<svg width="300" height="301" viewBox="0 0 300 301" fill="none" xmlns="http://www.w3.org/2000/svg">
<circle cx="150" cy="150.5" r="150" fill="#C4DDD1" fill-opacity="0.15"/>
<mask id="mask0_1074_3052" style="mask-type:alpha" maskUnits="userSpaceOnUse" x="0" y="0" width="300" height="301">
<rect y="0.5" width="300" height="300" fill="#D9D9D9"/>
</mask>
<g mask="url(#mask0_1074_3052)">
</g>
<g clip-path="url(#clip0_1074_3052)">
<path d="M194.676 91.2363C194.676 91.2363 236.116 142.007 236.75 191.545C237.275 198.977 230.833 204.995 223.443 204.003C217.28 203.176 209.57 200.888 200.838 195.635C199.553 194.859 198.388 193.895 197.394 192.777C193.122 187.958 181.865 173.395 181.009 153.021" fill="url(#paint0_linear_1074_3052)"/>
<path d="M195.144 90.86C216.23 116.493 234.62 149.428 238.469 182.796C238.709 184.952 238.834 187.125 238.931 189.292C238.994 191.42 239.171 194.295 238.452 196.337C237.041 201.236 232.792 205.121 227.778 206.096C225.39 206.621 222.952 206.267 220.599 205.805C212.986 204.334 205.824 201.196 199.313 197.038C197.348 195.761 195.789 193.987 194.384 192.139C191.06 187.826 188.216 183.126 186.017 178.164C182.454 170.253 180.546 161.594 180.723 153.038C180.723 152.879 180.855 152.753 181.014 152.759C181.157 152.759 181.277 152.873 181.294 153.015C181.991 159.318 183.533 165.439 185.983 171.245C189.17 178.86 193.665 185.984 199.324 191.996C200.701 193.376 202.437 194.266 204.15 195.19C210.438 198.51 217.24 201.071 224.334 201.847C228.668 202.206 232.969 199.263 234.151 195.07C234.745 193.604 234.454 191.026 234.465 189.469C234.06 179.048 232.055 168.775 228.965 158.771C221.421 134.643 208.936 112.13 194.219 91.6243C194.013 91.3619 194.065 90.9684 194.339 90.7687C194.596 90.5805 194.95 90.6261 195.155 90.8657L195.144 90.86Z" fill="black"/>
<path d="M176.355 84.1407C181.215 81.0663 190.947 72.1739 192.026 49.9002C192.141 47.5787 194.077 45.7591 196.407 45.7591C198.725 45.7591 200.644 47.5559 200.782 49.8659C200.936 52.4213 201.044 55.7067 200.844 58.3362C200.696 60.3041 202.335 61.9525 204.305 61.8327C211.501 61.3992 219.234 58.5929 221.347 43.2665C221.616 41.3044 223.289 39.8328 225.271 39.8328C227.527 39.8328 229.337 41.7036 229.235 43.9567C228.863 51.8965 223.158 70.7422 203.511 72.288C200.821 72.4991 198.52 74.3015 197.378 76.7428C195.579 80.5815 191.878 86.6904 184.71 92.9133C182.786 94.5846 180.17 95.3432 177.697 94.7215C176.064 94.3108 174.464 93.3411 173.733 91.225C172.814 88.567 173.985 85.6409 176.361 84.135L176.355 84.1407Z" fill="url(#paint1_linear_1074_3052)"/>
<path d="M175.823 83.3081C186.206 76.5375 190.501 63.6923 191.478 51.8282C191.615 50.8985 191.558 49.598 191.878 48.6796C192.951 45.2288 197.669 44.299 199.982 47.0654C201.501 48.7538 201.107 51.1209 201.261 53.2028C201.301 54.7543 201.301 56.3172 201.21 57.8686C201.17 58.4162 201.141 58.844 201.267 59.3003C201.501 60.1901 202.186 60.943 203.043 61.2739C203.951 61.6218 204.979 61.3822 205.921 61.2967C216.007 60.2243 219.582 52.1305 220.753 43.0955C221.536 38.1844 228.463 37.8308 229.771 42.6449C230.051 43.7286 229.857 44.8808 229.743 45.976C228.309 57.3838 221.05 68.8487 209.508 72.0771C207.526 72.6988 205.356 73.0068 203.294 73.2178C201.512 73.446 199.873 74.5355 198.839 76.047C198.28 76.8455 197.926 77.8152 197.457 78.6765C195.024 83.3423 191.758 87.5575 188.017 91.2365C186.423 92.7138 184.933 94.3965 182.871 95.2521C179.701 96.6837 175.184 96.0107 173.322 92.7766C171.392 89.5938 172.699 85.1847 175.823 83.3195V83.3081ZM176.88 84.9736C174.63 86.3482 173.687 89.4683 175.07 91.7441C176.463 94.0371 179.718 94.3908 182.077 93.3755C183.865 92.6283 185.19 91.0768 186.612 89.7934C189.519 86.97 192.129 83.8328 194.282 80.4219C195.453 78.6822 196.201 76.7486 197.326 74.9861C198.634 73.1152 200.73 71.7234 203.066 71.4439C207.058 71.1416 211.056 70.1377 214.522 68.0957C221.547 64.0574 225.99 56.5282 227.812 48.7652C228.155 47.2936 228.412 45.7992 228.515 44.299C228.697 43.0042 228.109 41.641 226.956 40.968C225.037 39.7416 222.272 41.025 221.958 43.2837L221.684 44.8124C220.011 54.6687 215.145 61.7986 204.448 62.2093C202.021 62.4603 200.073 60.1616 200.53 57.8287C200.678 55.2677 200.593 52.7009 200.456 50.1398C200.461 48.172 198.959 46.4209 197.023 46.1471C194.556 45.7136 192.26 47.8526 192.374 50.3338L192.277 51.8852C191.592 64.2057 187.726 77.7753 176.874 84.9736H176.88Z" fill="black"/>
<path d="M102.189 95.6458C102.606 94.6704 103.166 93.7635 103.868 92.9706C108.511 87.6888 127.775 68.7975 162.39 73.4233C162.39 73.4233 189.467 77.3933 205.424 104.167C207.406 107.487 208.702 111.172 209.262 114.993C209.707 118.074 210.176 121.696 210.153 123.378C210.084 129.162 210.718 130.154 213.545 134.102C216.372 138.054 214.076 153.963 209.308 161.48C209.308 161.48 196.874 185.191 165.217 193.377C165.217 193.377 163.578 194.683 162.173 198.424C161.025 201.482 159.072 204.18 156.496 206.193C150.214 211.099 141.236 210.454 135.725 204.699C134 202.902 133.178 200.438 133.429 197.962C133.823 194.095 133.281 188.106 127.067 185.191C127.067 185.191 97.3915 171.645 100.784 157.248L97.403 156.524C87.3856 154.373 81.8115 143.644 85.8093 134.227L102.189 95.6458Z" fill="url(#paint2_linear_1074_3052)"/>
<path d="M101.664 95.4232C102.378 93.5751 103.794 92.0978 105.125 90.689C106.456 89.3029 107.849 87.9853 109.294 86.7247C122.35 75.1344 140.448 70.4002 157.656 71.9459C159.552 72.0999 161.534 72.311 163.413 72.6532C170.958 74.3187 178.056 77.4787 184.522 81.6311C194.111 87.894 202.346 96.5355 207.458 106.82C209.502 111.16 210.09 116.071 210.61 120.794C210.976 123.492 210.519 126.561 211.381 129.099C211.935 130.753 213.112 132.191 214.231 133.765C216.778 138.14 215.35 146.393 214.374 151.168C212.638 159.82 207.806 167.053 201.826 173.441C195.778 179.864 188.457 185.288 180.432 188.973C177.771 190.216 174.978 191.272 172.197 192.167C170.004 192.897 167.611 193.376 165.372 193.924H165.361L165.572 193.816C164.098 195.185 163.236 197.13 162.482 199C160.826 203.022 157.702 206.467 153.727 208.275C147.799 211.081 140.328 209.707 135.754 205.041C134.166 203.541 133.235 201.396 133.104 199.212C133.03 198.128 133.241 197.09 133.172 196.023C133.167 191.95 131.048 187.866 127.244 186.229C117.718 182.14 103.943 174.086 100.476 163.79C99.8021 161.651 99.665 159.284 100.327 157.151V157.134L100.682 157.693L98.4199 157.202C91.0982 155.953 85.4841 150.472 84.2905 143.096C84.222 142.623 84.1592 141.779 84.1135 141.328C84.1078 140.895 84.1249 139.982 84.1249 139.549C84.2163 138.864 84.2791 137.86 84.4619 137.204C84.6846 136.075 85.1072 134.877 85.5241 133.822C86.3008 132.128 100.539 98.0242 101.664 95.4232ZM102.715 95.8681C100.739 100.557 86.9119 132.265 85.5298 136.28C85.4156 136.708 85.2443 137.512 85.1472 137.929C85.0901 138.299 84.9987 139.229 84.9473 139.606C84.9587 140.267 84.8902 141.208 84.9816 141.859C85.5812 149.365 91.2467 155.132 98.6084 156.318C99.0139 156.398 100.979 156.826 101.281 156.883C99.2595 168.365 116.753 178.198 125.228 183.212C125.685 183.469 126.85 184.102 127.301 184.341C131.825 186.537 134.08 191.158 133.858 196.034C133.858 197.09 133.646 198.162 133.675 199.2C133.709 203.535 137.553 206.655 141.282 208.161C147.153 210.557 154.247 208.697 158.33 203.9C159.701 202.349 160.797 200.558 161.546 198.635C161.911 197.66 162.317 196.616 162.848 195.664C163.424 194.62 164.001 193.713 164.921 192.88C167.131 192.03 169.404 191.363 171.58 190.445C184.305 185.368 195.932 177.303 204.442 166.517C208.166 161.845 211.073 156.575 212.421 150.705C213.494 146.234 214.311 141.568 213.728 136.999C213.597 136.126 213.363 135.259 212.963 134.626C211.947 133.092 210.707 131.512 210.068 129.538C209.474 127.622 209.485 125.648 209.508 123.692C209.548 121.872 209.297 119.984 209.08 118.119C208.845 116.533 208.6 114.121 208.2 112.569C207.206 107.978 204.75 103.905 202.061 100.118C199.342 96.2959 196.218 92.7538 192.728 89.6166C184.367 82.1787 174.019 76.76 163.048 74.5013C162.299 74.3301 161.083 74.256 160.306 74.159C146.377 72.6418 132.007 75.1173 119.665 81.8194C114.72 84.4261 110.054 87.683 106.033 91.5845C104.731 92.8793 103.429 94.1626 102.715 95.8738V95.8681Z" fill="black"/>
<path d="M171.214 191.831C166.377 194.049 160.665 194.095 155.811 191.945C155.565 191.842 155.714 191.46 155.971 191.568C160.671 193.405 166.194 193.142 170.666 190.832C171.345 190.433 171.922 191.471 171.214 191.836V191.831Z" fill="black"/>
<path d="M173.893 149.251C176.622 148.344 181.254 147.083 184.116 147.842C185.703 148.264 186.674 149.873 186.32 151.475C185.994 152.953 185.121 155.206 182.791 156.295C181.665 156.82 180.392 156.911 179.164 156.706C177.348 156.398 174.584 155.422 172.739 152.388C172.025 151.213 172.579 149.684 173.887 149.251H173.893Z" fill="black"/>
<path d="M180.94 155.662C180.689 163.431 182.283 163.499 173.916 165.399C169.644 166.38 165.229 167.424 161.357 169.334C158.798 170.595 156.508 172.249 154.498 174.399C154.075 174.879 153.258 174.348 153.55 173.761C157.159 166.363 166.16 164.378 173.619 163.687C175.109 163.511 176.611 163.351 177.976 162.974C178.879 162.752 179.735 162.25 179.81 161.252C179.867 159.404 179.855 157.504 179.792 155.651C179.775 154.881 180.946 154.869 180.935 155.651L180.94 155.662Z" fill="black"/>
<path d="M188.861 171.753C187.474 168.992 185.675 166.306 182.996 164.64C182.122 164.024 181.151 163.573 180.192 163.077C179.884 162.946 179.735 162.575 179.901 162.273C180.032 162.033 180.306 161.925 180.557 161.993C181.111 162.147 181.683 162.29 182.231 162.495C185.012 163.516 187.491 165.49 188.97 168.079C189.358 168.701 190.78 172.044 189.427 172.129C189.164 172.135 188.964 171.969 188.867 171.747L188.861 171.753Z" fill="black"/>
<path d="M121.355 84.1407C116.495 81.0663 106.763 72.1739 105.684 49.9002C105.57 47.5787 103.634 45.7591 101.304 45.7591C98.9848 45.7591 97.0659 47.5559 96.9288 49.8659C96.7746 52.4213 96.6661 55.7067 96.866 58.3362C97.0145 60.3041 95.3754 61.9525 93.405 61.8327C86.209 61.3992 71.9253 58.5929 69.8122 43.2665C69.5438 41.3044 67.8704 39.8328 65.8886 39.8328C63.6327 39.8328 61.8223 41.7036 61.9251 43.9567C62.2963 51.8965 66.4083 68.8428 94.2046 72.288C96.8831 72.6188 99.1962 74.3015 100.338 76.7428C102.137 80.5815 105.838 86.6904 113.006 92.9133C114.93 94.5846 117.546 95.3432 120.019 94.7215C121.652 94.3108 123.252 93.3411 123.983 91.225C124.902 88.567 123.731 85.6409 121.355 84.135V84.1407Z" fill="url(#paint3_linear_1074_3052)"/>
<path d="M120.91 84.8423C110.51 77.8949 106.563 65.0725 105.564 53.2198L105.33 49.9572C105.29 48.9533 104.867 47.9893 104.153 47.282C101.869 44.9149 97.6654 46.3637 97.3284 49.632C97.1857 51.7425 97.1343 53.9385 97.18 56.0774C97.1514 57.1954 97.4312 58.3134 97.2085 59.4256C96.9344 60.6292 96.0206 61.6559 94.8498 62.0666C94.3015 62.2776 93.6219 62.3175 93.0622 62.2662C91.4174 62.1635 89.7783 61.9639 88.1563 61.6502C83.8215 60.8174 79.5382 59.226 76.0943 56.3798C72.5877 53.5506 70.2632 49.4039 69.3437 45.0176C69.0981 44.065 69.1324 43.0041 68.5841 42.1542C67.6875 40.6313 65.483 40.1921 64.0894 41.2644C62.9301 42.0744 62.6788 43.4946 62.9015 44.8122C63.0443 46.3808 63.3184 47.938 63.7239 49.4552C67.3048 63.3271 80.5433 69.3676 93.7304 70.9989C96.8316 71.2441 99.7728 73.0181 101.212 75.8016C101.686 76.7598 102.143 77.7466 102.674 78.682C105.233 83.2965 108.677 87.4546 112.543 91.0823C113.091 91.5729 114.188 92.6395 114.879 92.9874C117.215 94.4077 120.75 94.3678 122.492 92.109C124.211 89.8104 123.326 86.3424 120.904 84.8423H120.91ZM121.801 83.4334C126.438 86.1827 126.375 93.5806 120.973 95.4344C118.037 96.5125 114.685 95.7139 112.366 93.7289L111.115 92.6338C106.381 88.3844 102.269 83.3535 99.4302 77.6097C98.9447 76.5431 98.2651 75.5506 97.3284 74.8376C95.7921 73.5257 93.679 73.423 91.7715 73.1492C87.4081 72.4591 83.0677 71.3354 78.9842 69.5044C70.7544 65.9965 63.7982 58.8153 61.8335 49.9343C61.4338 48.303 61.1767 46.6375 61.0625 44.9605C60.7827 43.0497 61.4223 40.945 63.09 39.8498C65.2774 38.2584 68.6355 38.9828 69.9491 41.3385C70.5945 42.3595 70.6002 43.5745 70.8343 44.721C71.2455 46.7744 71.908 48.7879 72.936 50.6074C76.991 57.9654 85.8547 61.0627 93.8618 61.3707C95.0383 61.2908 96.1005 60.3839 96.369 59.2317C96.5574 58.2164 96.3119 57.1327 96.3575 56.0946C96.3404 53.8986 96.4147 51.7539 96.5917 49.5408C97.02 45.7134 101.96 44.0422 104.65 46.7858C105.49 47.6014 105.998 48.7536 106.049 49.9229C106.301 54.777 107.077 59.5796 108.431 64.234C110.733 71.7575 115.039 79.1897 121.807 83.4391L121.801 83.4334Z" fill="black"/>
<path d="M184.612 150.483C185.007 150.483 185.326 150.164 185.326 149.77C185.326 149.376 185.007 149.057 184.612 149.057C184.218 149.057 183.898 149.376 183.898 149.77C183.898 150.164 184.218 150.483 184.612 150.483Z" fill="white"/>
<path d="M132.327 207.511C126.062 207.995 108.9 210.556 105.541 224.177C105.239 225.398 105.165 226.659 105.222 227.913C105.461 232.99 105.444 250.033 95.1642 258.167C94.0277 259.068 94.6103 260.911 96.0609 260.922C100.43 260.956 107.386 259.268 113.166 249.959C114.24 248.231 114.577 246.149 114.131 244.164C113.748 242.464 113.326 240.291 113.2 238.528C113.12 237.433 114.519 236.886 115.205 237.741C115.981 238.711 116.844 240 117.392 241.5C117.632 242.162 118.38 242.47 119.003 242.139C120.625 241.272 123.12 238.899 122.212 232.642C121.972 230.999 121.972 229.322 122.321 227.697C122.938 224.811 124.628 220.795 129.146 217.738C130.379 216.905 131.727 216.238 133.126 215.718C135.062 215 139.483 212.929 137.153 209.667C136.062 208.144 134.194 207.362 132.321 207.505L132.327 207.511Z" fill="url(#paint4_linear_1074_3052)"/>
<path d="M132.373 208.104C122.744 208.617 111.344 212.022 107.095 221.479C106.45 222.968 105.982 224.565 105.89 226.185C105.816 227.817 106.033 229.573 105.993 231.245C105.953 238.141 104.976 245.174 101.824 251.425C100.373 254.277 98.3857 256.924 95.8785 258.954C95.5415 259.171 95.5529 259.736 95.9641 259.833C101.601 259.987 106.724 256.667 110.099 252.321C110.825 251.396 111.578 250.313 112.218 249.315C113.2 247.723 113.412 245.835 112.932 244.021C112.572 242.327 112.247 240.633 112.092 238.842C112.075 238.705 112.035 238.186 112.172 237.781C112.298 237.359 112.561 236.983 112.892 236.72C114.24 235.671 115.776 236.304 116.581 237.684C117.347 238.745 117.992 239.915 118.438 241.147C118.455 241.186 118.483 241.192 118.5 241.192C120.705 240.08 121.453 237.302 121.396 234.912C121.247 232.317 120.751 229.659 121.51 227.075C122.869 221.365 127.501 216.819 132.99 214.971C134.583 214.304 136.793 213.46 137.119 211.6C137.096 209.421 134.457 207.91 132.367 208.104H132.373ZM132.281 206.917C134.966 206.632 138.124 208.423 138.484 211.287C138.609 213.511 136.485 214.966 134.749 215.833C129.18 217.869 124.663 221.519 123.326 227.509C122.664 229.933 123.286 232.402 123.418 234.872C123.538 237.93 122.527 241.392 119.683 243C118.232 243.913 116.627 243 116.227 241.529C115.77 240.428 115.068 239.367 114.326 238.449C114.326 238.454 114.326 238.449 114.331 238.46C114.366 238.471 114.331 238.46 114.32 238.477C114.348 238.46 114.32 238.363 114.348 238.66C114.794 243.81 117.027 246.759 113.457 251.625C111.013 255.326 107.706 258.578 103.606 260.414C101.338 261.441 98.8483 261.983 96.3582 262C95.3359 262.091 94.2451 261.561 93.7882 260.614C93.1999 259.507 93.5369 258.047 94.5478 257.306C102.201 251.123 104.205 240.605 104.554 231.233C104.662 228.666 104.24 225.98 105.096 223.482C108.432 211.925 121.602 208.155 132.276 206.929L132.281 206.917Z" fill="black"/>
<path d="M125.994 214.31C119.655 217.31 112.698 222.403 112.013 229.91C111.979 230.463 111.493 230.891 110.939 230.84C110.385 230.794 109.974 230.286 110.043 229.733C110.168 228.718 110.38 227.714 110.705 226.744C111.682 223.898 113.555 221.405 115.725 219.403C118.621 216.757 121.95 214.737 125.571 213.243C126.268 212.975 126.696 214.007 125.994 214.304V214.31Z" fill="black"/>
<path d="M109.796 243.194C109.711 248.316 107.021 253.205 102.983 256.279C102.429 256.718 101.818 257.083 101.241 257.483C100.984 257.659 100.63 257.597 100.447 257.34C100.259 257.072 100.344 256.713 100.607 256.53C101.647 255.714 102.68 254.882 103.526 253.872C106.067 251.026 107.558 247.164 107.369 243.354C107.215 241.677 109.716 241.5 109.785 243.194H109.796Z" fill="black"/>
<path d="M130.299 215.154C130.299 215.154 136.073 208.651 132.732 204.077C132.047 203.136 131.476 202.103 131.219 200.974C131.213 200.94 131.202 200.911 131.196 200.877C130.596 198.076 132.984 195.527 135.828 195.875C137.141 196.034 138.906 196.519 141.071 197.717C144.309 199.508 148.101 200.124 151.676 199.149C153.053 198.772 154.566 198.185 156.194 197.301C157.313 196.69 158.53 196.257 159.792 196.052C162.088 195.681 164.852 196.029 164.029 200.198C164.029 200.198 163.938 204.02 161.362 207.996C159.586 210.745 159.209 214.19 160.603 217.15C160.94 217.869 161.357 218.645 161.871 219.466C161.871 219.466 164.84 224.046 152.967 227.685C152.967 227.685 146.793 229.995 139.985 228.615C136.41 227.891 133.138 225.991 130.962 223.071C129.328 220.881 128.215 217.983 130.305 215.154H130.299Z" fill="url(#paint5_linear_1074_3052)"/>
<path d="M129.568 214.561C131.539 212.171 133.618 208.92 132.715 205.748C132.373 204.687 131.499 203.809 131.065 202.742C129.763 200.267 130.476 197.033 133.081 195.761C135.439 194.574 138.175 195.709 140.368 196.742C144.989 199.628 150.26 199.919 155.097 197.352C157.799 195.709 164.081 193.587 164.664 198.396C164.732 199.058 164.635 199.679 164.544 200.295L164.555 200.21C164.475 201.698 164.144 203.073 163.704 204.442C162.962 207.083 160.854 209.193 160.523 211.965C160.106 214.452 161.031 216.819 162.391 218.873C163.024 219.78 163.104 220.983 162.796 221.982C161.808 224.89 158.633 226.431 156.005 227.56C150.711 229.767 144.766 230.766 139.095 229.482C133.058 228.267 124.925 220.932 129.574 214.561H129.568ZM131.036 215.747C129.517 217.761 130.145 220.339 131.647 222.261C136.53 228.906 146.177 229.083 153.407 226.579C155.983 225.769 162.545 223.413 161.248 219.865C158.701 215.97 158.256 211.669 160.866 207.676C162.328 205.452 163.35 202.771 163.527 200.124C164.618 195.367 160.015 196.063 157.068 197.375C156.045 197.882 154.943 198.481 153.847 198.892C150.494 200.324 146.593 200.466 143.161 199.194C140.962 198.413 138.998 197.004 136.69 196.611C135.679 196.382 134.589 196.36 133.663 196.879C131.733 197.917 131.367 200.301 132.418 202.109C132.938 203.199 133.846 204.031 134.24 205.235C135.479 209.028 133.309 212.867 131.042 215.753L131.036 215.747Z" fill="black"/>
<path d="M161.67 208.475C157.587 211.686 152.11 211.492 147.581 213.739C146.102 214.43 144.691 215.274 143.326 216.215C143.178 216.318 142.972 216.278 142.869 216.129C142.778 215.998 142.795 215.816 142.909 215.707C143.515 215.114 144.154 214.544 144.834 214.025C146.867 212.427 149.197 211.178 151.693 210.477C154.817 209.558 157.918 208.292 161.065 207.505C161.665 207.277 162.161 208.041 161.67 208.475Z" fill="black"/>
<path d="M134.771 217.042C138.044 221.942 144.926 220.384 149.86 219.569C151.722 219.164 153.578 218.662 155.234 217.744C155.377 217.664 155.56 217.709 155.64 217.858C155.714 217.989 155.674 218.149 155.56 218.234C154.76 218.844 153.864 219.312 152.955 219.717C149.26 221.234 145.32 222.05 141.322 222.17C138.209 222.107 134.354 220.789 133.663 217.316C133.583 216.608 134.497 216.415 134.771 217.048V217.042Z" fill="black"/>
<path d="M129.854 214.663C130.488 213.123 131.573 211.948 132.698 210.813C136.028 207.511 140.351 204.277 145.28 204.51C145.6 204.533 145.605 205.012 145.28 205.035C140.671 205.486 136.993 208.754 133.949 211.994C132.921 213.129 131.973 214.338 130.773 215.331C130.328 215.724 129.614 215.194 129.86 214.658L129.854 214.663Z" fill="black"/>
<path d="M105.472 91.2363C105.472 91.2363 64.0322 142.007 63.3982 191.545C62.8728 198.977 69.315 204.995 76.7052 204.003C82.8676 203.176 90.5777 200.888 99.31 195.635C100.595 194.859 101.76 193.895 102.754 192.777C107.026 187.958 118.283 173.395 119.139 153.021" fill="url(#paint6_linear_1074_3052)"/>
<path d="M105.941 91.6185C86.82 118.609 69.8407 149.992 66.117 183.246C65.8943 185.317 65.78 187.381 65.6887 189.463C65.6715 191.015 65.4431 193.582 66.0028 195.065C67.185 199.257 71.4855 202.194 75.8203 201.841C82.9136 201.065 89.7156 198.504 96.0036 195.184C97.7169 194.26 99.4531 193.371 100.829 191.99C106.489 185.984 110.984 178.86 114.171 171.239C116.621 165.427 118.163 159.307 118.86 153.01C118.877 152.85 119.02 152.742 119.174 152.753C119.317 152.77 119.425 152.89 119.431 153.033C119.608 161.594 117.7 170.253 114.137 178.158C111.938 183.121 109.094 187.821 105.77 192.133C105.09 193.006 104.365 193.912 103.605 194.717C102.017 196.416 99.9785 197.62 97.991 198.755C92.2799 202.069 86.0547 204.539 79.5554 205.799C78.7615 205.965 77.8934 206.085 77.0882 206.216C73.0161 206.837 68.6985 205.486 65.683 202.691C62.8674 200.147 61.1654 196.394 61.1426 192.589C61.2225 189.412 61.3253 185.933 61.6909 182.796C64.5978 157.031 75.9231 133.035 89.8184 111.468C94.4844 104.304 99.4759 97.3852 105.016 90.8599C105.233 90.6089 105.61 90.5747 105.861 90.7915C106.107 91.0025 106.141 91.3676 105.947 91.6185H105.941Z" fill="black"/>
<path d="M163.703 132.921C163.703 142.053 156.279 145.618 147.135 145.618C137.992 145.618 130.596 142.053 130.596 132.921C130.596 123.789 138.009 113.653 147.147 113.653C156.285 113.653 163.698 123.794 163.698 132.921H163.703Z" fill="white"/>
<path d="M164.88 132.921C164.76 140.883 158.94 145.076 151.522 145.823C145.485 146.359 137.295 146.011 132.909 141.271C126.826 134.261 130.693 122.791 136.844 117.041C149.197 105.491 164.983 118.467 164.88 132.921ZM162.533 132.921C162.253 125.169 157.027 116.613 149.089 114.913C140.665 113.408 133.708 121.285 131.858 128.871C129.385 138.784 135.37 144.608 145.039 145.178C153.218 145.635 162.978 142.731 162.533 132.915V132.921Z" fill="black"/>
<path d="M205.721 132.921C205.721 142.052 201.09 144.243 195.464 144.243C189.839 144.243 185.35 142.052 185.35 132.921C185.35 123.789 189.913 113.755 195.538 113.755C201.164 113.755 205.727 123.789 205.727 132.921H205.721Z" fill="white"/>
<path d="M206.361 132.921C206.321 136.389 205.716 140.393 202.752 142.669C198.879 145.327 191.169 145.64 187.657 142.207C181.426 136.143 185.076 116.915 193.014 113.379C196.909 111.537 200.667 114.634 202.506 117.828C205.219 122.368 206.372 127.69 206.367 132.926L206.361 132.921ZM205.087 132.921C204.956 127.091 202.94 118.724 197.846 115.347C194.979 113.55 192.117 115.74 190.507 118.233C187.828 122.26 186.429 127.336 186.195 132.208C185.887 137.136 187.034 142.572 192.683 143.518C200.861 144.99 205.219 141.214 205.082 132.915L205.087 132.921Z" fill="black"/>
<path d="M195.966 101.235C197.354 100.962 198.462 101.578 199.576 102.239C201.432 103.329 203.043 104.789 204.396 106.449C205.321 107.629 206.127 108.941 206.743 110.305C206.88 110.59 206.766 110.932 206.481 111.069C206.241 111.189 205.955 111.12 205.79 110.921C204.408 109.141 202.911 107.43 201.152 106.021C200.301 105.325 199.387 104.709 198.451 104.161C197.748 103.779 194.127 102.068 195.966 101.235Z" fill="black"/>
<path d="M142.401 99.0964C141.681 100.066 140.773 100.431 139.842 100.802C138.928 101.207 138.02 101.635 137.135 102.108C131.738 104.932 127.049 108.93 123.137 113.59C122.937 113.852 122.549 113.892 122.303 113.676C122.086 113.487 122.046 113.168 122.2 112.934C122.777 112.056 123.325 111.143 123.965 110.305C127.141 106.027 131.27 102.467 135.941 99.9064C136.878 99.3873 137.843 98.9196 138.826 98.4747C139.802 98.0355 140.824 97.6248 142.098 98.0013C142.572 98.1325 142.732 98.7485 142.401 99.1021V99.0964Z" fill="black"/>
<path d="M148.078 140.267C150.072 140.267 151.688 137.453 151.688 133.982C151.688 130.51 150.072 127.696 148.078 127.696C146.085 127.696 144.469 130.51 144.469 133.982C144.469 137.453 146.085 140.267 148.078 140.267Z" fill="#429195"/>
<path d="M149.935 132.008C150.329 132.008 150.648 131.689 150.648 131.295C150.648 130.901 150.329 130.582 149.935 130.582C149.54 130.582 149.221 130.901 149.221 131.295C149.221 131.689 149.54 132.008 149.935 132.008Z" fill="white"/>
<path d="M194.761 140.267C196.754 140.267 198.37 137.453 198.37 133.982C198.37 130.51 196.754 127.696 194.761 127.696C192.767 127.696 191.151 130.51 191.151 133.982C191.151 137.453 192.767 140.267 194.761 140.267Z" fill="#429195"/>
<path d="M196.902 132.008C197.297 132.008 197.616 131.689 197.616 131.295C197.616 130.901 197.297 130.582 196.902 130.582C196.508 130.582 196.188 130.901 196.188 131.295C196.188 131.689 196.508 132.008 196.902 132.008Z" fill="white"/>
<path d="M153.887 174.759C153.887 174.759 177.502 166.893 189.639 172.186C189.639 172.186 187.371 164.321 180.209 162.763C180.209 162.763 178.896 164.013 176.189 164.321C176.189 164.321 161.934 165.336 153.892 174.759H153.887Z" fill="black"/>
</g>
<defs>
<linearGradient id="paint0_linear_1074_3052" x1="208.896" y1="196.354" x2="208.896" y2="88.989" gradientUnits="userSpaceOnUse">
<stop stop-color="#643C3B"/>
<stop offset="0.02" stop-color="#7C4C3F"/>
<stop offset="0.05" stop-color="#9B6144"/>
<stop offset="0.08" stop-color="#B47249"/>
<stop offset="0.11" stop-color="#C87F4C"/>
<stop offset="0.15" stop-color="#D6884F"/>
<stop offset="0.2" stop-color="#DE8E50"/>
<stop offset="0.28" stop-color="#E19051"/>
</linearGradient>
<linearGradient id="paint1_linear_1074_3052" x1="201.324" y1="93.9172" x2="201.324" y2="38.1672" gradientUnits="userSpaceOnUse">
<stop offset="0.56" stop-color="#F9E9B3"/>
<stop offset="0.61" stop-color="#F3D9A5"/>
<stop offset="0.79" stop-color="#E1A276"/>
<stop offset="0.93" stop-color="#D58059"/>
<stop offset="1" stop-color="#D1744E"/>
</linearGradient>
<linearGradient id="paint2_linear_1074_3052" x1="149.637" y1="200.084" x2="149.637" y2="69.9782" gradientUnits="userSpaceOnUse">
<stop stop-color="#643C3B"/>
<stop offset="0.02" stop-color="#7C4C3F"/>
<stop offset="0.05" stop-color="#9B6144"/>
<stop offset="0.08" stop-color="#B47249"/>
<stop offset="0.11" stop-color="#C87F4C"/>
<stop offset="0.15" stop-color="#D6884F"/>
<stop offset="0.2" stop-color="#DE8E50"/>
<stop offset="0.28" stop-color="#E19051"/>
</linearGradient>
<linearGradient id="paint3_linear_1074_3052" x1="93.108" y1="100.511" x2="93.108" y2="38.2129" gradientUnits="userSpaceOnUse">
<stop offset="0.56" stop-color="#F9E9B3"/>
<stop offset="0.61" stop-color="#F3D9A5"/>
<stop offset="0.79" stop-color="#E1A276"/>
<stop offset="0.93" stop-color="#D58059"/>
<stop offset="1" stop-color="#D1744E"/>
</linearGradient>
<linearGradient id="paint4_linear_1074_3052" x1="120.62" y1="252.091" x2="106.808" y2="199.748" gradientUnits="userSpaceOnUse">
<stop stop-color="#487E50"/>
<stop offset="0.07" stop-color="#518A58"/>
<stop offset="0.21" stop-color="#61A167"/>
<stop offset="0.34" stop-color="#6AAE6F"/>
<stop offset="0.47" stop-color="#6EB373"/>
</linearGradient>
<linearGradient id="paint5_linear_1074_3052" x1="146.668" y1="230.509" x2="146.668" y2="195.532" gradientUnits="userSpaceOnUse">
<stop stop-color="#487E50"/>
<stop offset="0.07" stop-color="#518A58"/>
<stop offset="0.21" stop-color="#61A167"/>
<stop offset="0.34" stop-color="#6AAE6F"/>
<stop offset="0.47" stop-color="#6EB373"/>
</linearGradient>
<linearGradient id="paint6_linear_1074_3052" x1="91.2573" y1="196.354" x2="91.2573" y2="88.989" gradientUnits="userSpaceOnUse">
<stop stop-color="#643C3B"/>
<stop offset="0.02" stop-color="#7C4C3F"/>
<stop offset="0.05" stop-color="#9B6144"/>
<stop offset="0.08" stop-color="#B47249"/>
<stop offset="0.11" stop-color="#C87F4C"/>
<stop offset="0.15" stop-color="#D6884F"/>
<stop offset="0.2" stop-color="#DE8E50"/>
<stop offset="0.28" stop-color="#E19051"/>
</linearGradient>
<clipPath id="clip0_1074_3052">
<rect width="178" height="223" fill="white" transform="translate(61 39)"/>
</clipPath>
</defs>
</svg>
