<svg width="300" height="301" viewBox="0 0 300 301" fill="none" xmlns="http://www.w3.org/2000/svg">
<circle cx="150" cy="150.5" r="150" fill="#C4DDD1" fill-opacity="0.15"/>
<mask id="mask0_1026_2806" style="mask-type:alpha" maskUnits="userSpaceOnUse" x="25" y="25" width="250" height="251">
<rect x="25" y="25.5" width="250" height="250" fill="#D9D9D9"/>
</mask>
<g mask="url(#mask0_1026_2806)">
<path d="M29.4761 127.719V107.761C29.4761 99.5435 36.1165 92.9031 44.3344 92.9031H132.017C140.235 92.9031 146.875 99.5435 146.875 107.761V151.383C146.875 159.6 140.235 166.241 132.017 166.241H44.3344C36.1165 166.241 29.4761 159.6 29.4761 151.383V144.889" stroke="#201A18" stroke-width="5" stroke-miterlimit="10" stroke-linecap="round"/>
<path d="M86.5611 119.135C85.864 118.107 85.0569 117.154 84.1397 116.31C80.0307 112.384 74.0874 110.33 67.7038 111.577C62.054 112.714 57.2113 116.677 54.8266 121.923C48.9933 134.727 59.0823 147.897 71.4826 147.897C80.581 147.897 88.1386 141.294 89.5694 132.599C89.8629 130.838 91.3304 129.554 93.0914 129.554H123.358" stroke="#201A18" stroke-width="5" stroke-miterlimit="10" stroke-linecap="round"/>
<path d="M86.4145 123.097C88.9472 123.097 91.0004 121.043 91.0004 118.511C91.0004 115.978 88.9472 113.925 86.4145 113.925C83.8818 113.925 81.8286 115.978 81.8286 118.511C81.8286 121.043 83.8818 123.097 86.4145 123.097Z" fill="#201A18"/>
<path d="M29.5859 145.807C32.1186 145.807 34.1718 143.754 34.1718 141.221C34.1718 138.688 32.1186 136.635 29.5859 136.635C27.0532 136.635 25 138.688 25 141.221C25 143.754 27.0532 145.807 29.5859 145.807Z" fill="#201A18"/>
<path d="M118.589 75.0004C121.122 75.0004 123.175 72.9472 123.175 70.4145C123.175 67.8818 121.122 65.8286 118.589 65.8286C116.057 65.8286 114.003 67.8818 114.003 70.4145C114.003 72.9472 116.057 75.0004 118.589 75.0004Z" fill="#201A18"/>
<path d="M111.105 130.105V138.873" stroke="#201A18" stroke-width="5" stroke-miterlimit="10" stroke-linecap="round"/>
<path d="M51.8916 92.0597C51.8916 69.497 68.2541 50.97 88.1753 50.97C100.539 50.97 111.508 58.0873 118.075 68.8733" stroke="#201A18" stroke-width="5" stroke-miterlimit="10" stroke-linecap="round"/>
<g clip-path="url(#clip0_1026_2806)">
<mask id="mask1_1026_2806" style="mask-type:luminance" maskUnits="userSpaceOnUse" x="88" y="101" width="192" height="153">
<path d="M279.051 101.252H88.5796V253.525H279.051V101.252Z" fill="white"/>
</mask>
<g mask="url(#mask1_1026_2806)">
<path d="M125.174 194.562C125.991 194.079 127.037 193.529 128.037 193.169C128.3 193.074 128.57 193.305 128.523 193.584C128.456 193.957 128.32 194.31 128.104 194.616C127.314 195.723 126.909 197.259 126.842 197.551C126.835 197.585 126.815 197.619 126.835 197.646C135.215 208.719 138.841 208.97 148.849 219.377C149.693 220.26 149.585 220.131 150.578 220.837C157.945 226.082 161.734 226.333 165.11 226.836C166.9 227.107 169.283 227.644 170.04 227.515C173.68 226.903 177.13 228.704 177.13 228.704C177.745 228.391 178.035 229.695 178.035 229.695L193.695 233.228C195.046 235.116 194.384 248.485 194.039 254.096C193.952 255.536 194.012 256.97 194.256 258.389C196.106 269.116 197.207 302.564 197.207 302.564C197.207 302.85 197.207 303.128 197.2 303.414C183.275 313.284 158.823 306.572 152.523 302.259C152.644 299.643 152.982 297.042 153.515 294.481C153.779 293.21 154.015 291.899 154.143 291.458C162.531 262.058 169.857 248.995 169.857 248.995C173.133 243.533 165.13 236.251 158.033 233.201C156.851 232.691 143.926 226.251 142.934 225.423C134.709 218.541 120.406 198.087 120.258 197.123C120.258 197.096 120.244 197.075 120.237 197.048C120.008 196.525 119.819 195.995 119.65 195.472C119.569 195.207 119.798 194.949 120.075 195.003C120.501 195.092 120.96 195.173 121.406 195.255C122.709 195.479 124.039 195.234 125.18 194.569L125.174 194.562Z" fill="url(#paint0_linear_1026_2806)"/>
<path d="M125.025 194.297C125.808 193.828 126.652 193.407 127.497 193.054C127.726 192.972 127.807 192.911 128.084 192.85C128.509 192.796 128.888 193.196 128.813 193.624C128.678 194.575 127.963 195.166 127.659 196.015C127.422 196.552 127.247 197.102 127.098 197.666C127.098 197.666 127.098 197.659 127.098 197.612C127.098 197.591 127.098 197.558 127.085 197.524C127.078 197.49 127.037 197.449 127.051 197.469L127.091 197.524L127.26 197.741C129.88 201.233 132.811 204.459 136.133 207.278C139.476 210.097 142.974 212.733 146.141 215.776C147.445 217.006 148.734 218.351 149.997 219.601C153.124 221.931 156.426 224.247 160.133 225.531C162.861 226.442 165.819 226.713 168.642 227.196C169.398 227.311 169.986 227.264 170.742 227.033C172.977 226.53 175.395 227.134 177.231 228.473H177.002C177.718 228.119 178.177 229.07 178.298 229.634L178.089 229.424L193.749 232.936L193.871 232.963C194.688 234.355 194.586 235.979 194.721 237.521C194.883 241.937 194.667 246.345 194.445 250.747C194.35 252.941 194.073 255.122 194.33 257.302C194.89 260.923 195.39 264.578 195.701 268.226C196.754 280.018 197.922 291.831 197.659 303.679C194.276 305.913 190.541 307.598 186.625 308.624C182.749 309.534 178.731 309.5 174.787 309.262C170.843 309.004 166.954 308.277 163.165 307.224C159.377 306.131 155.602 304.84 152.313 302.571C151.976 301.899 152.219 302.367 152.145 302.204V302.17V302.103L152.158 301.967L152.178 301.695C152.536 297.538 153.239 293.326 154.454 289.318C156.48 282.335 158.715 275.419 161.207 268.586C163.206 263.124 165.387 257.73 167.804 252.432C168.419 251.121 169.054 249.789 169.716 248.505C171.005 245.897 169.533 243.017 167.804 240.979C163.125 235.388 155.906 233.153 149.707 229.77C147.634 228.649 144.352 227.141 142.441 225.81C140.07 223.765 138.018 221.415 136.012 219.064C130.475 212.305 125.255 205.342 120.42 198.067C119.96 197.361 119.71 196.559 119.427 195.757L119.386 195.628L119.366 195.56C119.359 195.526 119.346 195.486 119.339 195.445C119.278 195.01 119.683 194.623 120.109 194.704L120.251 194.732L120.514 194.779L121.041 194.881C122.412 195.207 123.83 195.01 125.025 194.304V194.297ZM125.329 194.82C123.85 195.737 122.02 195.778 120.399 195.363L120.129 195.316L120.008 195.295C120.001 195.295 119.987 195.295 119.981 195.295C119.94 195.309 119.92 195.343 119.933 195.377L119.954 195.438C120.156 196.043 120.406 196.729 120.663 197.293C125.356 204.785 130.893 211.809 136.755 218.405C138.929 220.763 141.097 223.174 143.602 225.117C145.297 226.115 148.478 227.719 150.274 228.643C154.13 230.721 158.161 232.318 161.95 234.505C165.65 236.869 169.351 239.96 170.735 244.307C171.167 245.775 171.086 247.466 170.33 248.825C169.601 250.095 168.952 251.372 168.324 252.683C167.062 255.292 165.914 257.955 164.833 260.645C161.572 268.715 158.769 276.968 156.257 285.31C154.562 290.717 153.056 296.301 152.914 302.007V302.143V302.211V302.245C152.84 302.109 153.076 302.598 152.752 301.946C156.041 303.855 159.816 304.935 163.523 305.866C170.972 307.625 178.751 308.216 186.314 306.939C190.075 306.457 193.877 305.363 196.936 303.026L196.734 303.414C195.89 291.92 195.802 279.787 195.039 268.287C194.829 265.366 194.586 262.438 194.201 259.544C193.985 258.097 193.749 256.609 193.796 255.129C193.898 253.865 193.925 252.004 194.019 250.727C194.208 246.338 194.357 241.936 194.141 237.555C194.019 236.196 194.046 234.641 193.459 233.411C194.6 233.873 177.657 229.845 177.981 229.981L177.812 229.94C177.738 229.607 177.637 229.159 177.373 228.941C177.333 228.894 177.191 228.969 177.13 228.982C174.638 228.35 172.268 227.793 169.702 227.807C166.44 227.23 163.199 226.897 159.964 226.149C156.014 225.069 152.428 223.038 149.146 220.606C147.816 219.302 146.621 217.984 145.277 216.707C141.171 212.577 136.518 209.031 132.48 204.806C130.387 202.591 128.442 200.254 126.605 197.829C126.612 197.836 126.571 197.788 126.558 197.741C126.517 197.659 126.544 197.551 126.558 197.503C126.821 196.206 127.557 195.01 128.152 193.882C128.179 193.808 128.199 193.726 128.219 193.645L128.239 193.529C128.239 193.529 128.239 193.509 128.239 193.502C128.185 193.387 128.111 193.468 127.969 193.509C127.058 193.869 126.173 194.317 125.329 194.82Z" fill="black"/>
<path d="M194.303 225.314C198.091 224.302 208.727 222.257 213.515 229.641C213.94 230.3 214.251 231.034 214.473 231.794C215.378 234.858 218.91 244.959 226.642 247.649C227.5 247.948 227.534 249.164 226.683 249.47C224.117 250.394 219.673 250.842 214.345 246.515C213.359 245.713 212.724 244.545 212.583 243.281C212.454 242.195 212.259 240.816 211.968 239.749C211.786 239.083 210.854 239.049 210.624 239.701C210.368 240.435 210.125 241.379 210.111 242.385C210.111 242.826 209.726 243.166 209.294 243.098C208.16 242.921 206.201 242.031 205.445 238.132C205.242 237.107 204.898 236.115 204.358 235.218C203.399 233.635 201.575 231.604 198.28 230.728C197.382 230.49 196.45 230.375 195.518 230.354C194.228 230.327 191.196 230.021 191.899 227.603C192.223 226.475 193.168 225.619 194.296 225.321L194.303 225.314Z" fill="url(#paint1_linear_1026_2806)"/>
<path d="M194.208 224.954C200.745 223.473 209.281 222.977 213.643 229.132C214.69 230.422 214.967 232.121 215.568 233.615C217.593 238.832 220.68 244.3 225.96 246.644L226.656 246.929L226.831 247.004C227.574 247.242 228.087 248.037 227.959 248.818C227.885 249.463 227.358 250.013 226.73 250.17C225.265 250.679 223.678 250.869 222.138 250.733C219.315 250.489 216.729 249.246 214.521 247.561C213.548 246.882 212.684 245.972 212.259 244.851C211.678 243.288 211.772 241.454 211.293 239.933L211.307 239.939C211.3 239.939 211.28 239.939 211.3 239.933C211.3 239.933 211.3 239.933 211.3 239.926C211.3 239.926 211.3 239.919 211.273 240C210.949 240.904 210.841 241.672 210.78 242.643C210.57 243.676 209.531 243.988 208.626 243.621C207.403 243.248 206.471 242.297 205.891 241.284C204.749 239.369 204.966 237.12 203.737 235.306C202.676 233.595 201.049 232.263 199.165 231.543C197.72 230.939 196.153 230.857 194.6 230.755C193.452 230.579 192.108 230.307 191.548 229.07C190.906 227.202 192.513 225.368 194.208 224.954ZM194.397 225.674C193.128 225.993 191.885 227.433 192.324 228.731C192.864 229.743 194.397 229.818 195.451 229.872C196.822 229.872 198.213 230.096 199.509 230.572C201.609 231.319 203.48 232.773 204.709 234.668C206.471 237.012 205.816 241.257 209.004 242.33C209.132 242.364 209.274 242.398 209.402 242.419C209.402 242.419 209.422 242.405 209.422 242.378C209.429 241.556 209.571 240.727 209.801 239.939C209.909 239.6 210.01 239.179 210.3 238.914C210.908 238.323 211.921 238.404 212.414 239.077C213.474 241.115 212.711 243.682 214.285 245.455C217.168 248.152 221.253 250.027 225.211 249.171C225.569 249.11 225.94 248.988 226.284 248.879L226.453 248.825C226.467 248.811 226.5 248.811 226.507 248.797C226.669 248.73 226.663 248.39 226.473 248.302C220.342 245.999 216.803 239.824 214.696 233.934C214.136 232.474 213.933 230.857 212.968 229.6C208.923 223.69 200.583 223.819 194.397 225.681V225.674Z" fill="black"/>
<path d="M199.462 227.318C204.243 227.63 209.706 229.254 212.009 233.873C212.164 234.179 212.042 234.552 211.739 234.709C211.428 234.865 211.05 234.736 210.901 234.423C208.936 230.11 203.804 228.5 199.428 228.038C198.969 228.018 198.989 227.304 199.462 227.325V227.318Z" fill="black"/>
<path d="M215.561 240.931C216.209 243.186 217.931 245.231 219.997 246.372C220.713 246.793 221.49 247.086 222.286 247.351C222.712 247.493 222.523 248.145 222.091 248.037C219.471 247.466 217.026 245.999 215.439 243.798C215.02 243.112 213.251 240.897 214.561 240.36C214.993 240.197 215.473 240.476 215.561 240.931Z" fill="black"/>
<path d="M120.622 185.765L124.559 185.371C125.315 185.296 126.065 185.575 126.598 186.125L128.462 188.074C129.016 188.652 129.259 189.453 129.117 190.241L128.671 192.755C128.644 192.891 128.55 192.999 128.422 193.04C127.307 193.387 126.099 194.018 125.18 194.562C124.039 195.234 122.702 195.479 121.405 195.248C120.825 195.146 120.224 195.031 119.697 194.922C119.562 194.895 119.454 194.793 119.42 194.657C118.691 191.953 118.643 189.406 118.731 187.776C118.785 186.723 119.596 185.874 120.636 185.765H120.622Z" fill="#643C3B"/>
<path d="M120.595 185.5L124.816 185.113C125.585 185.113 126.349 185.473 126.855 186.03C127.395 186.628 128.631 187.715 129.07 188.394C129.489 189.039 129.536 189.949 129.367 190.649C129.279 191.172 129.11 192.218 129.029 192.741C128.996 193.312 128.422 193.4 127.989 193.563C127.064 193.91 126.072 194.453 125.207 194.949C123.58 195.927 121.588 195.737 119.845 195.309C119.515 195.282 119.13 195.085 119.062 194.718C118.583 192.85 118.367 190.914 118.387 188.992C118.292 187.368 118.738 185.711 120.602 185.5H120.595ZM120.649 186.023C120.035 186.091 119.474 186.485 119.204 187.035C118.914 187.619 119.015 188.346 118.995 188.985C119.015 190.86 119.251 192.728 119.751 194.528C119.764 194.576 119.751 194.548 119.758 194.555C121.169 194.834 122.574 195.2 123.958 194.705C124.525 194.548 125.268 194.08 125.788 193.794C126.592 193.36 127.456 192.959 128.327 192.673L128.341 192.606L128.536 191.566C128.611 191.009 128.894 190.092 128.834 189.562C128.78 188.883 128.435 188.401 127.942 187.912L126.504 186.363C126.078 185.86 125.464 185.575 124.822 185.575C123.472 185.683 122.04 185.86 120.656 186.009L120.649 186.023Z" fill="black"/>
<path d="M182.573 143.587C179.926 141.148 174.935 134.566 176.732 120.667C176.921 119.22 175.928 117.882 174.503 117.624C173.078 117.366 171.701 118.269 171.363 119.682C170.985 121.244 170.559 123.269 170.391 124.913C170.269 126.149 169.074 126.984 167.879 126.692C163.509 125.626 159.073 123.031 159.464 113.317C159.512 112.074 158.654 110.98 157.432 110.756C156.048 110.505 154.731 111.462 154.542 112.869C153.893 117.821 155.318 130.109 167.21 133.248C168.837 133.676 170.053 135.048 170.485 136.685C171.167 139.26 172.768 143.451 176.475 148.09C177.474 149.34 178.994 150.101 180.581 149.986C181.627 149.911 182.721 149.49 183.403 148.26C184.261 146.718 183.869 144.775 182.573 143.587Z" fill="url(#paint2_linear_1026_2806)"/>
<path d="M182.154 144.042C176.293 138.37 175.415 129.573 176.34 121.869L176.448 120.898C176.968 118.582 174.253 116.836 172.417 118.357C171.944 118.738 171.64 119.268 171.518 119.879C171.147 121.448 170.816 123.024 170.62 124.627C170.668 126.095 169.162 127.345 167.73 126.903C160.788 125.436 158.809 119.75 159.066 113.256C159.113 111.041 156.027 110.308 155.116 112.339C154.798 113.113 154.886 114.2 154.839 115.042C154.879 117.895 155.44 120.755 156.541 123.377C158.161 127.345 161.355 130.49 165.299 132.045C165.583 132.134 167.244 132.67 167.561 132.772C169.324 133.309 170.614 134.865 171.052 136.604C171.984 139.973 173.625 143.104 175.638 145.951C176.36 146.902 177.022 148.029 178.021 148.675C181.567 150.998 185.112 147.194 182.147 144.042H182.154ZM182.985 143.132C184.687 144.633 185.004 147.5 183.464 149.252C181.391 151.643 177.42 150.638 175.806 148.254C173.355 145.163 171.39 141.651 170.208 137.867C169.85 136.169 169 134.355 167.224 133.839L165.367 133.227C160.97 131.679 157.371 128.085 155.649 123.758C154.521 120.993 153.974 118.025 153.961 115.049C154.035 114.051 153.934 112.943 154.346 111.992C155.669 109.173 159.903 110.151 159.829 113.283C159.654 117.277 160.16 121.937 163.57 124.505C164.563 125.266 165.724 125.803 166.933 126.183C167.5 126.339 168.108 126.604 168.702 126.489C169.607 126.319 170.188 125.51 170.202 124.587L170.337 123.615C170.539 122.331 170.809 121.054 171.113 119.791C171.242 119.132 171.613 118.473 172.153 118.038C174.28 116.279 177.488 118.262 176.948 120.966C176.063 128.676 177.11 137.589 182.985 143.132Z" fill="black"/>
<path d="M163.375 154.34C163.375 154.34 157.797 162.417 154.981 175.365C153.867 180.507 152.05 185.486 149.437 190.045C147.087 194.141 143.994 198.169 140.428 199.473C139.287 199.895 138.814 201.253 139.503 202.258C140.989 204.432 145.452 206.891 158.783 203.936C158.783 203.936 172.95 201.26 177.15 194.236C177.15 194.236 177.346 167.94 163.368 154.34H163.375Z" fill="url(#paint3_linear_1026_2806)"/>
<path d="M163.388 154.49C163.388 154.49 163.429 154.524 163.435 154.517C163.442 154.517 163.408 154.558 163.395 154.578L163.294 154.734C160.275 159.802 158.101 165.352 156.541 171.031C155.136 176.934 153.914 182.987 151.057 188.428C148.674 192.938 145.878 197.823 141.05 200.064L140.685 200.221C140.212 200.397 139.881 200.947 140.01 201.436C140.732 203.019 142.569 203.665 144.183 204.059C149.95 205.118 155.973 203.705 161.605 202.306C167.001 200.866 173.612 198.149 176.799 194.229C176.428 180.181 173.295 164.965 163.388 154.49ZM163.361 154.184C171.316 161.751 174.773 172.831 176.536 183.428C177.096 187.035 177.461 190.663 177.515 194.338C177.225 194.813 176.941 195.302 176.637 195.778C170.904 202.999 158.803 205.404 150.044 206.103C146.472 206.219 142.204 206.144 139.442 203.434C137.869 202.068 138.112 199.5 140.131 198.74C147.256 195.751 152.313 183.842 154.137 176.655C155.859 169.02 158.594 161.48 162.828 154.877L163.037 154.558L163.145 154.401L163.213 154.306C163.253 154.252 163.314 154.204 163.368 154.177L163.361 154.184Z" fill="black"/>
<path d="M226.845 158.932C226.697 158.28 226.453 157.655 226.102 157.078C223.827 153.28 214.075 139.484 192.324 138.506C192.324 138.506 175.253 137.955 162.497 152.757C160.917 154.592 159.715 156.718 158.952 159.021C158.337 160.875 157.648 163.069 157.48 164.109C156.885 167.695 156.386 168.239 154.211 170.365C152.037 172.498 151.692 182.592 153.793 187.769C153.793 187.769 158.81 203.814 177.347 212.387C177.347 212.387 178.184 213.351 178.636 215.743C179.028 217.794 179.899 219.723 181.284 221.286L181.351 221.36C184.626 225.049 190.15 225.64 194.121 222.726C195.39 221.795 196.241 220.369 196.356 218.793C196.532 216.354 197.517 212.679 201.677 211.558C201.677 211.558 215.926 207.883 219.896 201.076C221.672 198.033 224.043 195.384 227.088 193.638L227.345 193.489C233.733 193.271 234.05 190.873 232.632 184.603L226.832 158.919L226.845 158.932Z" fill="url(#paint4_linear_1026_2806)"/>
<path d="M226.494 159.014C225.859 156.779 224.178 155.006 222.739 153.247C218.046 148.05 212.077 144.008 205.479 141.685C201.096 140.143 196.41 139.328 191.798 139.103C181.317 139.402 170.925 144.13 163.807 151.908C161.241 154.367 159.64 157.553 158.729 160.977C157.851 163.3 157.918 165.651 156.852 167.926C156.237 169.074 155.305 169.917 154.515 170.759C153.279 172.478 153.131 175.12 153.016 177.26C152.773 182.232 153.833 187.096 156.224 191.43C160.626 199.636 167.514 206.497 175.597 211.035L177.495 212.074L177.583 212.122L177.61 212.163C178.555 213.46 178.792 214.982 179.102 216.456C179.44 217.855 180.027 219.193 180.858 220.369C182.512 222.746 185.247 224.302 188.138 224.41C190.92 224.526 194.121 223.344 195.573 220.858C196.336 219.547 196.079 218.011 196.477 216.592C196.842 215.138 197.524 213.671 198.713 212.625C199.813 211.551 201.42 211.069 202.805 210.621C204.176 210.138 205.533 209.636 206.877 209.085C210.219 207.706 213.515 206.232 216.446 204.133C217.283 203.474 218.1 202.781 218.802 201.973C219.444 201.131 220.079 200.159 220.686 199.283C222.429 196.851 224.623 194.677 227.277 193.251C228.844 193.162 230.593 193.101 231.889 192.171C234.273 190.235 232.45 185.656 232.038 183.068L230.937 178.259L226.494 159.041V159.014ZM227.189 158.858C227.986 162.424 231.781 179.767 232.511 182.932C233.821 188.74 235.408 193.686 227.365 193.774C225.407 194.868 222.672 197.299 221.206 199.623C220.639 200.513 220.038 201.559 219.444 202.455C215.473 207.523 209.186 210.118 203.163 211.769C200.205 212.265 197.828 213.664 196.97 216.714C196.761 217.4 196.619 218.113 196.558 218.84C196.417 220.362 195.593 221.775 194.404 222.712C190.184 226.041 183.579 225.069 180.473 220.654C179.048 218.888 178.535 216.598 177.995 214.472C177.779 213.807 177.468 213.114 177.09 212.625L177.211 212.713C171.843 210.328 166.738 207.197 162.618 202.938C158.499 198.658 155.109 193.658 153.117 187.993C151.949 184.766 151.652 180.779 151.875 177.199C152.097 174.78 152.266 172.05 153.853 170.086C154.704 169.231 155.595 168.477 156.109 167.512C156.629 166.547 156.845 165.386 157.061 164.231C157.574 161.833 158.317 159.618 159.222 157.343C160.869 153.43 164.057 150.421 167.156 147.656C174.105 141.929 182.769 138.329 191.798 137.921C201.4 138.139 211.077 141.162 218.458 147.445C220.275 149.028 221.969 150.747 223.475 152.628C224.893 154.564 226.622 156.466 227.203 158.858H227.189Z" fill="black"/>
<path d="M224.886 155.42C224.886 155.42 237.352 181.859 272.238 200.601C273.595 201.334 273.966 203.128 272.98 204.323C270.273 207.591 263.702 212.917 249.643 212.726C249.643 212.726 240.979 212.332 232.997 208.841C231.018 207.978 229.323 206.579 228.101 204.799C225.933 201.647 222.78 195.601 221.294 185.69" fill="url(#paint5_linear_1026_2806)"/>
<path d="M225.292 155.23C233.848 170.453 246.813 182.905 261.096 192.7C262.277 193.468 265.431 195.492 266.586 196.226C267.828 196.933 270.982 198.739 272.251 199.46C274.453 200.397 275.317 203.121 273.696 205.016C269.867 209.554 264.074 212.074 258.361 213.046C249.535 214.635 240.344 213.005 232.213 209.303C229.404 207.944 227.473 205.383 226.089 202.666C224.677 200.037 223.637 197.238 222.847 194.392C222.05 191.546 221.51 188.638 221.173 185.717C221.166 185.642 221.213 185.581 221.287 185.575C221.355 185.568 221.416 185.615 221.429 185.683C221.983 188.557 222.672 191.403 223.604 194.161C224.535 196.919 225.704 199.589 227.135 202.082C228.52 204.561 230.269 206.796 232.875 207.958C240.769 211.184 249.568 212.692 258.016 211.089C262.487 210.274 266.916 208.61 270.374 205.594C271.042 204.962 271.873 204.221 272.386 203.461C272.771 202.795 272.488 201.844 271.792 201.491L271.319 201.219L267.49 199.025C253.566 190.914 241.012 179.977 231.457 166.928C228.871 163.375 226.419 159.605 224.495 155.624C224.387 155.4 224.481 155.135 224.704 155.026C224.927 154.918 225.197 155.013 225.299 155.237L225.292 155.23Z" fill="black"/>
<path d="M174.281 210.213C176.772 212.136 180.142 212.917 183.235 212.299C183.39 212.271 183.444 212.523 183.282 212.55C180.885 213.141 178.312 212.93 176.036 211.972C175.266 211.653 174.544 211.28 173.835 210.77C173.673 210.655 173.639 210.43 173.754 210.267C173.875 210.091 174.125 210.07 174.281 210.206V210.213Z" fill="black"/>
<path d="M184.734 175.521C183.728 181.159 187.017 187.667 192.628 188.679C198.233 189.691 204.034 184.828 205.04 179.189C206.046 173.551 202.758 167.016 197.153 166.004C191.548 164.992 185.74 169.883 184.734 175.521Z" fill="white"/>
<path d="M185.457 175.65C183.708 184.807 192.466 192.85 200.482 186.05C204.952 182.443 206.012 176.085 203.115 171.173C198.166 162.539 187.239 167.254 185.457 175.65ZM184.018 175.392C185.146 167.818 194.735 161.948 201.231 167.186C207.262 172.118 207.174 181.906 200.914 186.587C192.237 193.244 182.668 185.412 184.018 175.399V175.392Z" fill="black"/>
<path d="M193.638 172.66C194.021 170.515 193.341 168.596 192.118 168.376C190.896 168.155 189.594 169.715 189.211 171.86C188.829 174.006 189.509 175.924 190.731 176.145C191.954 176.366 193.255 174.806 193.638 172.66Z" fill="#429195"/>
<path d="M158.965 170.868C157.959 176.506 159.823 182.429 163.274 183.054C166.724 183.679 170.452 178.768 171.458 173.13C172.464 167.491 170.54 161.887 167.089 161.262C163.638 160.637 159.965 165.229 158.959 170.868H158.965Z" fill="white"/>
<path d="M159.357 170.936C158.708 174.468 159.019 181.628 163.192 182.742C165.421 183.163 167.305 181.254 168.473 179.529C171.438 174.964 172.282 168.442 169.425 163.66C168.298 161.772 166.069 161.188 164.246 162.471C161.484 164.346 160.018 167.709 159.35 170.929L159.357 170.936ZM158.573 170.793C159.255 166.629 162.24 159.972 167.366 160.719C169.992 161.323 171.343 163.959 171.91 166.33C173.112 172.016 171.33 178.945 166.582 182.504C162.753 185.14 159.688 181.458 158.789 177.844C158.209 175.534 158.182 173.123 158.573 170.786V170.793Z" fill="black"/>
<path d="M166.743 167.802C167.126 165.657 166.445 163.739 165.223 163.518C164 163.297 162.699 164.857 162.316 167.003C161.933 169.148 162.613 171.066 163.836 171.287C165.058 171.508 166.36 169.948 166.743 167.802Z" fill="#429195"/>
<path d="M172.653 151.738C171.228 151.854 169.992 151.249 168.567 151.344C167.197 151.331 165.765 151.548 164.421 151.861C164.225 151.915 164.023 151.786 163.982 151.589C163.948 151.426 164.029 151.256 164.178 151.188C166.217 150.183 168.567 149.789 170.83 150.142C171.586 150.264 172.383 150.387 172.964 151.093C173.18 151.344 172.977 151.738 172.653 151.738Z" fill="black"/>
<path d="M196.43 154.884C197.875 154.395 199.07 155.278 200.36 155.712C202.798 156.779 205.074 158.253 207.012 160.087C207.984 160.991 208.855 161.996 209.652 163.049C209.774 163.205 209.74 163.429 209.585 163.552C209.436 163.667 209.234 163.64 209.112 163.518C205.979 160.393 202.197 157.893 197.997 156.507C197.511 156.433 195.437 155.549 196.437 154.891L196.43 154.884Z" fill="black"/>
<path d="M176.894 184.135C175.32 183.272 172.613 181.974 170.769 182.131C169.749 182.212 168.973 183.102 169.013 184.135C169.047 185.086 169.337 186.573 170.647 187.504C171.282 187.952 172.052 188.149 172.829 188.156C173.977 188.17 175.786 187.871 177.252 186.2C177.819 185.554 177.65 184.549 176.894 184.135Z" fill="black"/>
<path d="M189.988 198.332C185.112 199.473 179.636 198.984 175.462 195.995C174.22 195.173 172.437 193.407 171.951 192.497C170.992 191.851 171.303 190.683 171.181 189.773C171.093 188.862 171.107 188.007 171.856 187.32C172.045 187.151 172.336 187.171 172.498 187.361C173.268 188.584 172.363 189.732 171.964 190.866C171.897 191.281 172.086 191.722 172.43 191.96C175.145 196.05 180.149 198.318 184.991 198.237C186.618 198.223 188.239 198.006 189.826 197.632C190.271 197.524 190.454 198.23 189.988 198.332Z" fill="black"/>
<path d="M216.344 149.687C219.667 148.322 226.629 143.906 229.749 130.245C230.073 128.819 231.464 127.915 232.895 128.173C234.32 128.431 235.299 129.756 235.131 131.203C234.942 132.799 234.644 134.844 234.233 136.447C233.922 137.65 234.746 138.845 235.975 138.995C240.438 139.525 249.528 139.375 252.513 130.13C252.897 128.948 254.086 128.221 255.301 128.438C256.686 128.69 257.591 130.048 257.28 131.427C256.173 136.298 251.777 146.324 234.327 145.373C232.646 145.278 231.038 146.066 230.066 147.445C228.533 149.619 225.589 152.988 220.504 156.045C219.14 156.867 217.445 157.044 215.993 156.385C215.034 155.95 214.163 155.169 213.947 153.783C213.677 152.037 214.717 150.353 216.344 149.687Z" fill="url(#paint6_linear_1026_2806)"/>
<path d="M216.148 149.205C223.718 146.053 227.723 137.867 229.526 130.225C230.37 126.733 235.495 127.44 235.374 131.033C235.232 133.064 234.732 135.075 234.435 137.052C234.658 139.328 237.582 138.737 239.196 138.852C245.111 138.805 250.277 135.877 252.046 129.98C253.296 126.332 258.631 127.847 257.813 131.631C256.308 138.716 250.885 143.716 243.97 145.319C241.262 145.985 238.473 146.263 235.725 146.148C233.854 146.019 231.997 146.114 230.815 147.703C228.189 151.385 224.677 154.354 220.808 156.616C218.539 158.008 214.973 157.581 213.724 154.992C212.664 152.791 213.954 150.02 216.155 149.198L216.148 149.205ZM216.54 150.176C214.892 150.835 213.96 152.887 214.764 154.496C215.757 156.378 218.464 156.575 220.146 155.502L220.99 154.972C224.333 152.791 227.358 150.067 229.634 146.78C230.593 145.536 232.092 144.742 233.652 144.626C234.489 144.599 235.063 144.64 235.752 144.64C238.412 144.735 241.066 144.484 243.626 143.906C250.102 142.5 255.146 137.908 256.699 131.373C257.3 128.927 253.809 127.915 252.965 130.286C250.932 136.515 245.496 139.497 239.203 139.463C237.271 139.396 234.077 139.769 233.895 137.086C234.178 135.048 234.746 133.064 234.901 131.013C234.941 130.388 234.732 129.756 234.34 129.274C233.111 127.657 230.322 128.33 229.958 130.334C228.141 138.234 224.346 146.705 216.54 150.183V150.176Z" fill="black"/>
<path d="M190.58 170.84C190.827 170.84 191.026 170.64 191.026 170.392C191.026 170.144 190.827 169.944 190.58 169.944C190.334 169.944 190.135 170.144 190.135 170.392C190.135 170.64 190.334 170.84 190.58 170.84Z" fill="white"/>
<path d="M163.508 165.956C163.754 165.956 163.953 165.756 163.953 165.508C163.953 165.26 163.754 165.06 163.508 165.06C163.262 165.06 163.062 165.26 163.062 165.508C163.062 165.756 163.262 165.956 163.508 165.956Z" fill="white"/>
<path d="M170.256 183.713C170.502 183.713 170.701 183.513 170.701 183.265C170.701 183.017 170.502 182.817 170.256 182.817C170.01 182.817 169.81 183.017 169.81 183.265C169.81 183.513 170.01 183.713 170.256 183.713Z" fill="white"/>
<path d="M171.836 187.789C171.836 187.789 172.025 189.99 171.336 191.186C171.336 191.186 168.52 194.895 164.833 193.264C164.833 193.264 166.96 201.063 175.151 202.387C175.151 202.387 182.141 203.882 189.542 198.386C189.569 198.366 189.555 198.325 189.522 198.332C188.117 198.672 176.556 201.131 171.68 191.077" fill="black"/>
<path d="M171.836 187.789C171.836 187.789 172.025 189.99 171.336 191.186C171.336 191.186 168.52 194.895 164.833 193.264C164.833 193.264 166.96 201.063 175.151 202.387C175.151 202.387 182.141 203.882 189.542 198.386C189.569 198.366 189.555 198.325 189.522 198.332C188.117 198.672 176.556 201.131 171.68 191.077" stroke="black" stroke-miterlimit="10" stroke-linecap="round"/>
<path d="M172.167 201.008C172.167 201.008 175.01 197.388 179.014 198.305C179.014 198.305 182.519 198.964 184.329 200.696C184.329 200.696 178.197 203.624 172.167 201.008Z" fill="#FF5C5C"/>
<path d="M168.791 251.134C168.791 251.134 171.093 246.624 172.052 245.245L168.791 251.134Z" fill="#D1744E"/>
<path d="M168.473 250.971C169.58 248.994 170.627 247.018 171.91 245.143C171.964 245.068 172.072 245.048 172.153 245.102C172.228 245.156 172.248 245.265 172.194 245.34C171.039 247.242 170.087 249.293 169.108 251.297C168.898 251.732 168.243 251.399 168.473 250.971Z" fill="black"/>
<path d="M194.032 235.11C194.032 235.11 195.309 237.997 196.288 239.158C196.288 239.158 201.677 244.47 201.724 249.694C201.724 249.694 201.008 255.224 213.629 273.49C214.419 274.632 214.284 276.187 213.298 277.172C210.158 280.297 203.547 287.538 199.887 296.335C199.698 296.784 199.786 297.307 200.103 297.667C200.38 297.979 200.785 298.38 201.346 298.808C200.002 298.944 198.678 299.243 198.53 299.847C198.53 299.847 197.051 302.904 196.794 306.022C196.322 305.302 195.876 304.487 195.478 303.57C195.201 302.938 195.072 302.252 195.086 301.559C195.14 298.333 195.991 288.231 203.925 277.43C204.513 276.636 204.655 275.596 204.297 274.672C202.96 271.249 199.158 262.764 192.182 256.134" fill="url(#paint7_linear_1026_2806)"/>
<path d="M194.492 234.906C195.059 236.271 195.687 237.752 196.572 238.92C197.855 240.299 199.212 242.066 200.212 243.811C201.204 245.598 202.008 247.561 202.096 249.694C202.082 250.781 202.46 252.017 202.825 253.077C204.223 256.983 206.37 260.597 208.457 264.163C210.314 267.2 212.286 270.25 214.298 273.191C215.372 274.767 214.825 276.982 213.4 278.11C212.367 279.156 211.354 280.256 210.381 281.363C207.248 284.909 204.459 288.775 202.177 292.925C201.522 294.175 200.813 295.439 200.34 296.763C200.293 297.232 200.691 297.497 201.008 297.837C201.427 298.258 202.19 298.794 202.643 299.175C201.542 299.351 199.887 299.283 199.023 299.97C198.213 301.777 197.477 303.998 197.301 306.063L197.166 307.422C195.869 305.567 194.269 303.516 194.445 301.124C194.6 293.346 197.355 285.745 201.555 279.271C202.015 278.544 202.589 277.777 203.075 277.063C203.527 276.506 203.737 275.725 203.473 275.039C200.779 268.192 197.024 261.752 192 256.345C191.764 256.107 192.122 255.699 192.385 255.937C195.984 258.987 198.969 262.75 201.4 266.819C202.616 268.857 203.709 270.963 204.648 273.151L204.993 273.973C205.668 275.318 205.499 276.989 204.554 278.157C200.049 284.42 196.842 291.75 195.93 299.46C195.836 300.54 195.62 301.668 195.849 302.734C196.119 303.726 196.693 304.827 197.227 305.75L196.302 305.988C196.464 303.93 197.315 301.226 198.051 299.732C198.219 299.195 198.591 299.012 198.861 298.869C199.644 298.509 200.482 298.4 201.305 298.305L201.056 299.216C200.509 298.794 200.076 298.448 199.617 297.891C199.097 297.218 199.219 296.362 199.59 295.663C200.056 294.542 200.563 293.441 201.116 292.361C203.325 288.041 206.168 284.081 209.308 280.412C210.28 279.271 211.333 278.157 212.38 277.084C213.339 276.316 213.785 275.053 213.089 273.986C209.368 268.525 205.735 262.941 203.23 256.786C202.541 255.101 201.94 253.362 201.562 251.569C201.245 250.007 201.474 248.444 200.894 246.834C199.921 244.029 198.118 241.515 196.045 239.43C195.761 239.111 195.532 238.757 195.309 238.418C194.667 237.419 194.127 236.38 193.587 235.32C193.459 235.069 193.56 234.763 193.81 234.641C194.073 234.505 194.404 234.634 194.512 234.913L194.492 234.906Z" fill="black"/>
<path d="M195.964 228.975C195.964 228.975 193.188 224.281 195.768 221.849C196.302 221.347 196.767 220.783 197.058 220.11C197.065 220.09 197.071 220.07 197.085 220.056C197.78 218.399 196.612 216.544 194.829 216.422C194.006 216.367 192.871 216.456 191.399 216.945C189.204 217.672 186.807 217.604 184.734 216.578C183.93 216.184 183.073 215.641 182.181 214.907C181.567 214.397 180.871 213.99 180.122 213.711C178.758 213.215 177.022 213.1 177.036 215.776C177.036 215.776 176.644 218.147 177.758 220.905C178.528 222.807 178.352 224.981 177.15 226.645C176.86 227.046 176.516 227.481 176.104 227.929C176.104 227.929 173.747 230.409 180.601 234.05C180.601 234.05 184.113 236.203 188.448 236.149C190.724 236.122 192.952 235.334 194.627 233.785C195.883 232.623 196.909 230.966 195.957 228.975H195.964Z" fill="url(#paint8_linear_1026_2806)"/>
<path d="M195.451 229.261C194.424 227.257 193.526 224.58 194.742 222.4C195.113 221.707 195.768 221.292 196.214 220.681C197.085 219.642 197.105 218.168 196.052 217.298C194.998 216.449 193.384 216.795 192.128 217.081C190.764 217.529 189.191 217.855 187.685 217.699C186.172 217.583 184.7 217.006 183.444 216.177C182.202 215.396 181.202 214.302 179.771 213.915C178.103 213.372 177.319 214.133 177.367 215.838C177.178 217.482 177.481 219.227 178.116 220.776C179.021 222.882 178.737 225.579 177.191 227.338C177.076 227.488 176.678 227.984 176.563 228.133C175.483 229.498 177.198 231.156 178.339 231.978C182.782 235.232 189.812 237.378 194.323 233.214C195.464 232.202 196.16 230.687 195.458 229.261H195.451ZM196.491 228.704C197.517 230.551 196.66 232.861 195.201 234.145C192.507 236.821 188.36 237.29 184.862 236.359C181.864 235.741 172.835 231.455 175.874 227.501C176.003 227.359 176.354 226.924 176.482 226.774C177.893 225.26 178.184 222.977 177.427 221.055C176.779 219.445 176.516 217.318 176.725 215.783C176.664 212.203 179.919 212.835 181.986 214.391C184.795 216.958 188.381 217.889 191.953 216.435C193.418 216.055 195.214 215.675 196.531 216.687C197.963 217.746 198.037 219.893 196.943 221.231C196.552 221.836 195.91 222.277 195.586 222.896C194.661 224.757 195.532 226.951 196.484 228.704H196.491Z" fill="black"/>
<path d="M178.008 220.64C179.824 221.483 181.607 222.644 183.403 223.575C185.321 224.54 186.962 226.082 188.171 227.834C188.313 228.031 188.022 228.276 187.854 228.092C186.415 226.632 184.808 225.355 182.924 224.553C181.013 223.595 178.953 222.835 177.522 221.157C177.272 220.837 177.67 220.416 178.008 220.634V220.64Z" fill="black"/>
<path d="M190.67 229.532C188.232 234.124 179.636 229.43 177.306 226.618C177.164 226.441 177.421 226.204 177.576 226.374C179.332 227.99 181.628 228.894 183.836 229.722C185.869 230.538 188.381 230.748 190.035 229.193C190.278 228.833 190.845 229.125 190.663 229.532H190.67Z" fill="black"/>
<path d="M195.646 229.023C193.546 225.973 191.791 222.121 187.962 220.973C187.773 220.926 187.833 220.62 188.029 220.654C190.048 220.926 191.784 222.21 193.141 223.663C194.438 225.178 195.795 226.741 196.295 228.731C196.383 229.105 195.863 229.336 195.646 229.023Z" fill="black"/>
</g>
</g>
</g>
<defs>
<linearGradient id="paint0_linear_1026_2806" x1="145.568" y1="305.568" x2="170.297" y2="198.578" gradientUnits="userSpaceOnUse">
<stop stop-color="#643C3B"/>
<stop offset="0.03" stop-color="#72453D"/>
<stop offset="0.12" stop-color="#996044"/>
<stop offset="0.22" stop-color="#B87449"/>
<stop offset="0.3" stop-color="#CF834D"/>
<stop offset="0.39" stop-color="#DC8C50"/>
<stop offset="0.47" stop-color="#E19051"/>
</linearGradient>
<linearGradient id="paint1_linear_1026_2806" x1="210.412" y1="249.237" x2="207.722" y2="215.332" gradientUnits="userSpaceOnUse">
<stop stop-color="#487E50"/>
<stop offset="0.07" stop-color="#518A58"/>
<stop offset="0.21" stop-color="#61A167"/>
<stop offset="0.34" stop-color="#6AAE6F"/>
<stop offset="0.47" stop-color="#6EB373"/>
</linearGradient>
<linearGradient id="paint2_linear_1026_2806" x1="166.155" y1="146.899" x2="172.382" y2="112.425" gradientUnits="userSpaceOnUse">
<stop offset="0.56" stop-color="#F9E9B3"/>
<stop offset="0.61" stop-color="#F3D9A5"/>
<stop offset="0.79" stop-color="#E1A276"/>
<stop offset="0.93" stop-color="#D58059"/>
<stop offset="1" stop-color="#D1744E"/>
</linearGradient>
<linearGradient id="paint3_linear_1026_2806" x1="160.308" y1="206.171" x2="152.876" y2="166.886" gradientUnits="userSpaceOnUse">
<stop stop-color="#643C3B"/>
<stop offset="0.03" stop-color="#72453D"/>
<stop offset="0.12" stop-color="#996044"/>
<stop offset="0.22" stop-color="#B87449"/>
<stop offset="0.3" stop-color="#CF834D"/>
<stop offset="0.39" stop-color="#DC8C50"/>
<stop offset="0.47" stop-color="#E19051"/>
</linearGradient>
<linearGradient id="paint4_linear_1026_2806" x1="186.551" y1="218.399" x2="201.088" y2="137.922" gradientUnits="userSpaceOnUse">
<stop stop-color="#643C3B"/>
<stop offset="0.02" stop-color="#7C4C3F"/>
<stop offset="0.05" stop-color="#9B6144"/>
<stop offset="0.08" stop-color="#B47249"/>
<stop offset="0.11" stop-color="#C87F4C"/>
<stop offset="0.15" stop-color="#D6884F"/>
<stop offset="0.2" stop-color="#DE8E50"/>
<stop offset="0.28" stop-color="#E19051"/>
</linearGradient>
<linearGradient id="paint5_linear_1026_2806" x1="246.595" y1="219.401" x2="248.366" y2="166.33" gradientUnits="userSpaceOnUse">
<stop stop-color="#643C3B"/>
<stop offset="0.06" stop-color="#835140"/>
<stop offset="0.15" stop-color="#A56746"/>
<stop offset="0.23" stop-color="#BF794B"/>
<stop offset="0.32" stop-color="#D2864E"/>
<stop offset="0.41" stop-color="#DD8D50"/>
<stop offset="0.51" stop-color="#E19051"/>
</linearGradient>
<linearGradient id="paint6_linear_1026_2806" x1="231.879" y1="162.981" x2="238.838" y2="124.457" gradientUnits="userSpaceOnUse">
<stop offset="0.56" stop-color="#F9E9B3"/>
<stop offset="0.61" stop-color="#F3D9A5"/>
<stop offset="0.79" stop-color="#E1A276"/>
<stop offset="0.93" stop-color="#D58059"/>
<stop offset="1" stop-color="#D1744E"/>
</linearGradient>
<linearGradient id="paint7_linear_1026_2806" x1="192.582" y1="300.978" x2="199.887" y2="272.364" gradientUnits="userSpaceOnUse">
<stop stop-color="#643C3B"/>
<stop offset="0.03" stop-color="#72453D"/>
<stop offset="0.12" stop-color="#996044"/>
<stop offset="0.22" stop-color="#B87449"/>
<stop offset="0.3" stop-color="#CF834D"/>
<stop offset="0.39" stop-color="#DC8C50"/>
<stop offset="0.47" stop-color="#E19051"/>
</linearGradient>
<linearGradient id="paint8_linear_1026_2806" x1="184.163" y1="236.4" x2="188.301" y2="214.816" gradientUnits="userSpaceOnUse">
<stop stop-color="#487E50"/>
<stop offset="0.07" stop-color="#518A58"/>
<stop offset="0.21" stop-color="#61A167"/>
<stop offset="0.34" stop-color="#6AAE6F"/>
<stop offset="0.47" stop-color="#6EB373"/>
</linearGradient>
<clipPath id="clip0_1026_2806">
<rect width="156.667" height="143.333" fill="white" transform="translate(118.333 110.083)"/>
</clipPath>
</defs>
</svg>
