<svg width="300" height="301" viewBox="0 0 300 301" fill="none" xmlns="http://www.w3.org/2000/svg">
<circle cx="150" cy="150.5" r="150" fill="#C4DDD1" fill-opacity="0.15"/>
<mask id="mask0_1007_2939" style="mask-type:alpha" maskUnits="userSpaceOnUse" x="0" y="0" width="300" height="301">
<rect y="0.5" width="300" height="300" fill="#D9D9D9"/>
</mask>
<g mask="url(#mask0_1007_2939)">
<g clip-path="url(#clip0_1007_2939)">
<mask id="mask1_1007_2939" style="mask-type:luminance" maskUnits="userSpaceOnUse" x="118" y="72" width="186" height="149">
<path d="M303.952 72.0498H118.166V220.45H303.952V72.0498Z" fill="white"/>
</mask>
<g mask="url(#mask1_1007_2939)">
<path d="M153.86 162.986C154.657 162.516 155.678 161.979 156.653 161.628C156.91 161.536 157.173 161.761 157.127 162.032C157.061 162.396 156.929 162.741 156.719 163.039C155.948 164.118 155.553 165.614 155.487 165.898C155.48 165.932 155.46 165.965 155.48 165.991C163.654 176.782 167.191 177.027 176.953 187.169C177.776 188.03 177.671 187.904 178.639 188.593C185.825 193.704 189.521 193.948 192.814 194.438C194.559 194.703 196.884 195.226 197.622 195.1C201.172 194.505 204.538 196.259 204.538 196.259C205.138 195.954 205.421 197.226 205.421 197.226L220.696 200.668C222.013 202.508 221.367 215.537 221.031 221.006C220.946 222.409 221.005 223.806 221.242 225.19C223.047 235.643 224.121 268.241 224.121 268.241C224.121 268.519 224.121 268.791 224.114 269.069C210.532 278.688 186.682 272.147 180.536 267.943C180.655 265.394 180.984 262.859 181.504 260.363C181.761 259.125 181.992 257.847 182.117 257.417C190.298 228.764 197.444 216.034 197.444 216.034C200.639 210.711 192.834 203.614 185.911 200.642C184.758 200.145 172.151 193.869 171.183 193.061C163.16 186.355 149.21 166.421 149.065 165.481C149.065 165.455 149.052 165.435 149.045 165.409C148.821 164.899 148.637 164.382 148.472 163.873C148.393 163.614 148.617 163.363 148.887 163.416C149.302 163.502 149.75 163.581 150.184 163.661C151.456 163.879 152.753 163.641 153.866 162.992L153.86 162.986Z" fill="url(#paint0_linear_1007_2939)"/>
<path d="M153.715 162.727C154.479 162.271 155.302 161.86 156.126 161.516C156.35 161.437 156.429 161.377 156.699 161.317C157.114 161.264 157.483 161.655 157.41 162.072C157.278 162.999 156.58 163.575 156.284 164.402C156.053 164.925 155.882 165.462 155.737 166.011C155.737 166.011 155.737 166.004 155.737 165.958C155.737 165.938 155.737 165.905 155.724 165.872C155.717 165.839 155.678 165.799 155.691 165.819L155.73 165.872L155.895 166.084C158.451 169.487 161.309 172.631 164.55 175.379C167.811 178.126 171.222 180.695 174.312 183.661C175.583 184.859 176.841 186.17 178.073 187.388C181.122 189.659 184.343 191.916 187.959 193.167C190.62 194.055 193.505 194.319 196.259 194.789C196.996 194.902 197.569 194.856 198.307 194.63C200.487 194.141 202.845 194.73 204.637 196.034H204.413C205.111 195.69 205.559 196.617 205.678 197.166L205.474 196.961L220.748 200.383L220.867 200.41C221.664 201.767 221.565 203.349 221.697 204.852C221.855 209.155 221.644 213.452 221.427 217.742C221.334 219.88 221.064 222.005 221.315 224.13C221.861 227.659 222.349 231.221 222.652 234.776C223.679 246.269 224.819 257.781 224.562 269.327C221.262 271.505 217.62 273.147 213.799 274.146C210.018 275.034 206.099 275 202.253 274.769C198.406 274.517 194.612 273.809 190.917 272.783C187.222 271.717 183.54 270.459 180.332 268.248C180.003 267.592 180.24 268.049 180.167 267.89V267.857V267.791L180.18 267.659L180.2 267.394C180.549 263.342 181.234 259.238 182.42 255.332C184.396 248.526 186.576 241.787 189.007 235.127C190.956 229.804 193.084 224.547 195.442 219.384C196.041 218.106 196.661 216.808 197.306 215.557C198.564 213.015 197.128 210.208 195.442 208.222C190.877 202.773 183.836 200.595 177.789 197.298C175.767 196.206 172.566 194.736 170.702 193.439C168.39 191.446 166.388 189.156 164.432 186.865C159.03 180.278 153.939 173.492 149.223 166.402C148.775 165.713 148.531 164.932 148.255 164.151L148.215 164.025L148.195 163.959C148.189 163.926 148.175 163.886 148.169 163.846C148.11 163.423 148.505 163.045 148.92 163.125L149.058 163.151L149.315 163.197L149.829 163.297C151.166 163.615 152.549 163.423 153.715 162.734V162.727ZM154.011 163.237C152.569 164.131 150.784 164.171 149.203 163.767L148.94 163.72L148.821 163.701C148.814 163.701 148.801 163.701 148.795 163.701C148.755 163.714 148.735 163.747 148.749 163.78L148.768 163.84C148.966 164.429 149.21 165.098 149.46 165.647C154.038 172.949 159.439 179.794 165.156 186.223C167.277 188.52 169.391 190.87 171.835 192.764C173.488 193.737 176.591 195.299 178.343 196.199C182.104 198.225 186.036 199.781 189.731 201.913C193.341 204.217 196.95 207.229 198.301 211.466C198.722 212.896 198.643 214.544 197.905 215.868C197.194 217.106 196.562 218.351 195.949 219.629C194.717 222.171 193.598 224.766 192.544 227.388C189.362 235.252 186.629 243.296 184.179 251.426C182.525 256.695 181.057 262.137 180.918 267.698V267.831V267.897V267.93C180.846 267.798 181.076 268.274 180.76 267.639C183.968 269.499 187.65 270.552 191.266 271.459C198.531 273.173 206.119 273.749 213.496 272.505C217.165 272.035 220.873 270.969 223.857 268.691L223.66 269.069C222.836 257.867 222.751 246.043 222.006 234.835C221.802 231.989 221.565 229.135 221.19 226.315C220.979 224.905 220.748 223.455 220.794 222.012C220.893 220.781 220.919 218.967 221.012 217.722C221.196 213.445 221.341 209.155 221.13 204.885C221.012 203.561 221.038 202.045 220.465 200.847C221.578 201.297 205.052 197.371 205.368 197.504L205.204 197.464C205.131 197.14 205.032 196.703 204.775 196.491C204.736 196.444 204.598 196.517 204.538 196.531C202.108 195.915 199.796 195.372 197.293 195.385C194.111 194.822 190.95 194.498 187.795 193.77C183.942 192.717 180.444 190.738 177.243 188.368C175.945 187.097 174.779 185.812 173.469 184.568C169.464 180.543 164.926 177.087 160.987 172.969C158.945 170.811 157.048 168.533 155.256 166.17C155.263 166.177 155.223 166.13 155.21 166.084C155.171 166.004 155.197 165.899 155.21 165.852C155.467 164.588 156.185 163.423 156.765 162.324C156.791 162.251 156.811 162.171 156.83 162.092L156.85 161.979C156.85 161.979 156.85 161.96 156.85 161.953C156.798 161.84 156.725 161.92 156.587 161.96C155.698 162.31 154.835 162.747 154.011 163.237Z" fill="black"/>
<path d="M221.288 192.956C224.984 191.969 235.358 189.977 240.028 197.173C240.443 197.815 240.746 198.53 240.963 199.271C241.846 202.257 245.29 212.101 252.832 214.723C253.669 215.014 253.702 216.199 252.872 216.497C250.369 217.398 246.035 217.835 240.838 213.617C239.876 212.836 239.257 211.698 239.119 210.466C238.994 209.407 238.803 208.063 238.519 207.024C238.341 206.375 237.433 206.342 237.209 206.977C236.958 207.692 236.721 208.613 236.708 209.592C236.708 210.023 236.333 210.354 235.911 210.287C234.804 210.115 232.894 209.248 232.157 205.448C231.959 204.448 231.623 203.482 231.096 202.608C230.161 201.065 228.382 199.086 225.168 198.232C224.292 198 223.383 197.888 222.474 197.868C221.216 197.841 218.258 197.543 218.944 195.187C219.26 194.088 220.182 193.254 221.282 192.962L221.288 192.956Z" fill="url(#paint1_linear_1007_2939)"/>
<path d="M221.196 192.605C227.572 191.161 235.898 190.678 240.153 196.676C241.174 197.934 241.444 199.589 242.03 201.046C244.006 206.13 247.016 211.459 252.167 213.743L252.845 214.021L253.017 214.094C253.741 214.326 254.242 215.1 254.117 215.862C254.044 216.491 253.53 217.027 252.918 217.179C251.489 217.676 249.941 217.861 248.439 217.729C245.686 217.49 243.163 216.279 241.009 214.637C240.061 213.975 239.217 213.088 238.802 211.995C238.236 210.473 238.328 208.685 237.861 207.202L237.874 207.209C237.867 207.209 237.847 207.209 237.867 207.202C237.867 207.202 237.867 207.202 237.867 207.196C237.867 207.196 237.867 207.189 237.841 207.269C237.525 208.149 237.419 208.897 237.36 209.844C237.156 210.85 236.141 211.155 235.259 210.797C234.067 210.433 233.158 209.506 232.591 208.52C231.478 206.653 231.689 204.462 230.49 202.694C229.456 201.026 227.868 199.728 226.031 199.026C224.621 198.437 223.093 198.358 221.578 198.258C220.458 198.086 219.148 197.821 218.601 196.617C217.975 194.796 219.543 193.009 221.196 192.605ZM221.381 193.306C220.142 193.618 218.93 195.021 219.358 196.286C219.885 197.272 221.381 197.345 222.408 197.398C223.745 197.398 225.102 197.616 226.367 198.08C228.415 198.808 230.24 200.225 231.439 202.072C233.158 204.356 232.519 208.493 235.628 209.539C235.753 209.572 235.891 209.606 236.016 209.625C236.016 209.625 236.036 209.612 236.036 209.586C236.043 208.785 236.181 207.977 236.405 207.209C236.51 206.878 236.609 206.468 236.892 206.209C237.485 205.633 238.473 205.713 238.954 206.368C239.988 208.354 239.244 210.857 240.779 212.585C243.591 215.213 247.576 217.04 251.436 216.206C251.785 216.146 252.147 216.027 252.483 215.921L252.648 215.868C252.661 215.855 252.694 215.855 252.701 215.842C252.859 215.776 252.852 215.445 252.668 215.359C246.687 213.114 243.235 207.096 241.18 201.357C240.634 199.933 240.436 198.358 239.494 197.133C235.549 191.373 227.414 191.499 221.381 193.313V193.306Z" fill="black"/>
<path d="M226.321 194.908C230.984 195.213 236.313 196.795 238.559 201.297C238.71 201.595 238.592 201.959 238.295 202.111C237.992 202.264 237.623 202.138 237.479 201.833C235.562 197.629 230.556 196.06 226.288 195.61C225.84 195.59 225.86 194.895 226.321 194.915V194.908Z" fill="black"/>
<path d="M242.023 208.176C242.656 210.374 244.335 212.366 246.351 213.478C247.049 213.889 247.807 214.174 248.584 214.432C248.999 214.571 248.814 215.206 248.393 215.1C245.837 214.544 243.453 213.114 241.905 210.969C241.497 210.301 239.771 208.143 241.049 207.62C241.47 207.461 241.938 207.732 242.023 208.176Z" fill="black"/>
<path d="M149.42 154.412L153.26 154.028C153.998 153.956 154.729 154.227 155.25 154.763L157.068 156.663C157.608 157.226 157.845 158.007 157.706 158.775L157.272 161.225C157.245 161.357 157.153 161.463 157.028 161.503C155.941 161.84 154.762 162.456 153.866 162.986C152.753 163.641 151.449 163.879 150.184 163.654C149.618 163.555 149.032 163.443 148.518 163.337C148.386 163.31 148.281 163.211 148.248 163.078C147.537 160.444 147.49 157.961 147.576 156.372C147.629 155.346 148.419 154.518 149.433 154.412H149.42Z" fill="#643C3B"/>
<path d="M149.394 154.154L153.511 153.777C154.262 153.777 155.006 154.128 155.5 154.671C156.027 155.253 157.232 156.312 157.66 156.974C158.069 157.603 158.115 158.49 157.95 159.172C157.865 159.682 157.7 160.702 157.621 161.211C157.588 161.768 157.028 161.854 156.606 162.012C155.704 162.35 154.736 162.88 153.893 163.363C152.305 164.316 150.362 164.131 148.663 163.714C148.34 163.687 147.965 163.495 147.899 163.138C147.431 161.317 147.22 159.431 147.24 157.557C147.148 155.975 147.583 154.359 149.401 154.154H149.394ZM149.447 154.664C148.847 154.73 148.301 155.114 148.037 155.65C147.754 156.22 147.853 156.928 147.833 157.55C147.853 159.378 148.083 161.198 148.571 162.953C148.584 162.999 148.571 162.972 148.577 162.979C149.954 163.25 151.324 163.608 152.674 163.125C153.227 162.972 153.952 162.516 154.459 162.238C155.243 161.814 156.086 161.423 156.936 161.145L156.949 161.079L157.14 160.066C157.212 159.523 157.489 158.63 157.43 158.113C157.377 157.451 157.041 156.981 156.56 156.504L155.157 154.995C154.742 154.505 154.143 154.227 153.517 154.227C152.2 154.333 150.804 154.505 149.453 154.651L149.447 154.664Z" fill="black"/>
<path d="M209.847 113.307C207.265 110.931 202.397 104.516 204.15 90.9705C204.334 89.5604 203.366 88.2562 201.976 88.0046C200.586 87.753 199.242 88.6335 198.913 90.0105C198.544 91.5332 198.129 93.506 197.965 95.1081C197.846 96.313 196.68 97.1273 195.514 96.8427C191.253 95.8033 186.925 93.2743 187.307 83.8074C187.353 82.5959 186.517 81.53 185.325 81.3115C183.974 81.0666 182.69 82 182.505 83.3704C181.873 88.1966 183.263 100.173 194.862 103.231C196.45 103.648 197.635 104.986 198.057 106.581C198.722 109.09 200.283 113.175 203.899 117.696C204.874 118.915 206.356 119.656 207.904 119.544C208.925 119.471 209.992 119.06 210.657 117.862C211.494 116.359 211.112 114.466 209.847 113.307Z" fill="url(#paint2_linear_1007_2939)"/>
<path d="M209.439 113.751C203.721 108.223 202.865 99.6496 203.768 92.1422L203.873 91.1955C204.38 88.938 201.732 87.2366 199.941 88.7195C199.48 89.0903 199.183 89.6067 199.065 90.2025C198.702 91.7318 198.38 93.2677 198.189 94.83C198.235 96.26 196.766 97.4781 195.369 97.0478C188.598 95.6178 186.668 90.0767 186.919 83.7477C186.965 81.5895 183.955 80.8745 183.065 82.854C182.756 83.6087 182.841 84.6679 182.795 85.4889C182.835 88.2694 183.382 91.0565 184.455 93.6119C186.036 97.4781 189.152 100.543 192.998 102.059C193.275 102.145 194.895 102.668 195.205 102.768C196.924 103.291 198.182 104.807 198.61 106.502C199.519 109.785 201.12 112.837 203.083 115.611C203.787 116.538 204.433 117.637 205.408 118.266C208.866 120.53 212.324 116.823 209.432 113.751H209.439ZM210.249 112.864C211.909 114.327 212.218 117.12 210.717 118.828C208.694 121.159 204.821 120.179 203.247 117.855C200.856 114.843 198.939 111.42 197.787 107.733C197.438 106.078 196.608 104.31 194.875 103.807L193.064 103.211C188.776 101.702 185.265 98.1998 183.586 93.9826C182.486 91.2882 181.952 88.3951 181.939 85.4955C182.012 84.5223 181.913 83.4432 182.315 82.5164C183.606 79.7689 187.735 80.7223 187.663 83.7742C187.492 87.6669 187.986 92.2084 191.312 94.7109C192.28 95.4523 193.413 95.9753 194.592 96.3461C195.146 96.4983 195.738 96.7565 196.318 96.644C197.201 96.4785 197.767 95.6907 197.78 94.7903L197.912 93.8436C198.11 92.5924 198.373 91.3478 198.669 90.1164C198.795 89.4742 199.157 88.8321 199.684 88.4084C201.759 86.6937 204.887 88.6269 204.36 91.2617C203.498 98.7757 204.518 107.461 210.249 112.864Z" fill="black"/>
<path d="M191.121 123.787C191.121 123.787 185.68 131.659 182.934 144.277C181.847 149.288 180.075 154.141 177.526 158.583C175.234 162.575 172.217 166.501 168.739 167.772C167.626 168.183 167.165 169.507 167.837 170.486C169.286 172.605 173.64 175.001 186.642 172.122C186.642 172.122 200.461 169.513 204.558 162.668C204.558 162.668 204.749 137.041 191.114 123.787H191.121Z" fill="url(#paint3_linear_1007_2939)"/>
<path d="M191.134 123.933C191.134 123.933 191.174 123.966 191.18 123.959C191.187 123.959 191.154 123.999 191.141 124.019L191.042 124.171C188.098 129.11 185.977 134.519 184.455 140.053C183.085 145.806 181.893 151.705 179.107 157.008C176.782 161.403 174.055 166.163 169.345 168.348L168.99 168.5C168.528 168.672 168.206 169.209 168.331 169.685C169.036 171.228 170.827 171.857 172.401 172.241C178.027 173.274 183.902 171.896 189.395 170.533C194.658 169.129 201.107 166.481 204.215 162.661C203.853 148.971 200.797 134.141 191.134 123.933ZM191.108 123.635C198.867 131.01 202.239 141.807 203.959 152.135C204.505 155.65 204.861 159.186 204.914 162.767C204.63 163.231 204.354 163.707 204.057 164.171C198.465 171.208 186.662 173.552 178.119 174.233C174.634 174.346 170.472 174.273 167.778 171.632C166.243 170.301 166.48 167.799 168.449 167.057C175.398 164.144 180.332 152.539 182.11 145.535C183.79 138.093 186.458 130.745 190.587 124.31L190.792 123.999L190.897 123.847L190.963 123.754C191.002 123.701 191.062 123.655 191.114 123.628L191.108 123.635Z" fill="black"/>
<path d="M253.03 128.262C252.885 127.627 252.648 127.018 252.305 126.455C250.085 122.754 240.574 109.309 219.358 108.355C219.358 108.355 202.707 107.819 190.265 122.245C188.723 124.032 187.551 126.104 186.807 128.349C186.207 130.156 185.535 132.294 185.371 133.307C184.791 136.803 184.304 137.332 182.183 139.404C180.062 141.483 179.726 151.321 181.774 156.365C181.774 156.365 186.668 172.003 204.749 180.357C204.749 180.357 205.566 181.297 206.007 183.628C206.389 185.627 207.239 187.507 208.589 189.03L208.655 189.103C211.849 192.697 217.237 193.273 221.11 190.433C222.349 189.526 223.179 188.136 223.291 186.6C223.462 184.224 224.424 180.642 228.481 179.55C228.481 179.55 242.379 175.968 246.252 169.335C247.984 166.369 250.296 163.787 253.267 162.085L253.517 161.94C259.748 161.728 260.058 159.391 258.675 153.28L253.017 128.249L253.03 128.262Z" fill="url(#paint4_linear_1007_2939)"/>
<path d="M252.687 128.342C252.068 126.164 250.428 124.436 249.025 122.721C244.447 117.657 238.625 113.718 232.189 111.454C227.915 109.951 223.343 109.156 218.845 108.938C208.622 109.229 198.485 113.837 191.543 121.417C189.04 123.814 187.478 126.918 186.589 130.255C185.733 132.519 185.799 134.81 184.758 137.028C184.159 138.146 183.25 138.967 182.479 139.788C181.274 141.463 181.129 144.038 181.017 146.124C180.78 150.97 181.814 155.71 184.146 159.934C188.44 167.931 195.159 174.617 203.043 179.04L204.894 180.053L204.979 180.099L205.006 180.139C205.928 181.403 206.158 182.886 206.461 184.323C206.791 185.686 207.364 186.991 208.174 188.136C209.788 190.453 212.455 191.969 215.275 192.075C217.988 192.188 221.11 191.036 222.527 188.613C223.271 187.335 223.021 185.839 223.409 184.455C223.765 183.038 224.43 181.608 225.589 180.589C226.663 179.543 228.231 179.073 229.581 178.636C230.918 178.166 232.242 177.676 233.553 177.14C236.813 175.796 240.028 174.359 242.886 172.314C243.703 171.671 244.5 170.996 245.185 170.208C245.811 169.387 246.43 168.441 247.023 167.587C248.722 165.217 250.863 163.098 253.451 161.708C254.979 161.622 256.685 161.562 257.95 160.655C260.275 158.769 258.497 154.306 258.095 151.784L257.021 147.097L252.687 128.368V128.342ZM253.366 128.19C254.143 131.665 257.845 148.567 258.556 151.652C259.834 157.312 261.382 162.132 253.537 162.218C251.627 163.284 248.959 165.654 247.53 167.918C246.977 168.785 246.39 169.804 245.811 170.678C241.938 175.617 235.805 178.146 229.93 179.755C227.045 180.238 224.727 181.602 223.89 184.574C223.686 185.243 223.548 185.938 223.488 186.646C223.35 188.129 222.546 189.506 221.387 190.42C217.27 193.664 210.829 192.717 207.799 188.414C206.409 186.693 205.908 184.462 205.381 182.39C205.17 181.741 204.868 181.066 204.499 180.589L204.617 180.675C199.381 178.351 194.401 175.299 190.383 171.148C186.365 166.978 183.059 162.105 181.116 156.584C179.976 153.439 179.686 149.553 179.904 146.064C180.121 143.707 180.286 141.046 181.834 139.133C182.664 138.299 183.533 137.564 184.034 136.624C184.541 135.684 184.752 134.552 184.962 133.426C185.463 131.089 186.187 128.931 187.07 126.713C188.677 122.9 191.786 119.967 194.81 117.273C201.587 111.692 210.038 108.183 218.845 107.786C228.211 107.998 237.65 110.944 244.849 117.067C246.621 118.61 248.274 120.285 249.743 122.119C251.126 124.006 252.812 125.859 253.379 128.19H253.366Z" fill="black"/>
<path d="M251.12 124.84C251.12 124.84 263.279 150.606 297.306 168.871C298.63 169.586 298.992 171.334 298.03 172.499C295.389 175.683 288.98 180.873 275.267 180.688C275.267 180.688 266.816 180.304 259.03 176.901C257.1 176.061 255.447 174.697 254.255 172.962C252.141 169.89 249.065 163.998 247.615 154.339" fill="url(#paint5_linear_1007_2939)"/>
<path d="M251.515 124.654C259.86 139.49 272.507 151.625 286.438 161.172C287.59 161.92 290.666 163.893 291.793 164.608C293.005 165.296 296.081 167.057 297.319 167.759C299.466 168.672 300.309 171.327 298.729 173.174C294.994 177.597 289.343 180.053 283.77 180.999C275.161 182.549 266.197 180.96 258.266 177.352C255.526 176.028 253.642 173.532 252.292 170.884C250.915 168.322 249.901 165.594 249.13 162.82C248.353 160.046 247.826 157.213 247.497 154.366C247.49 154.293 247.536 154.234 247.609 154.227C247.675 154.22 247.734 154.267 247.747 154.333C248.287 157.133 248.959 159.907 249.868 162.595C250.777 165.283 251.917 167.885 253.313 170.314C254.663 172.731 256.369 174.909 258.912 176.041C266.612 179.185 275.194 180.655 283.434 179.093C287.795 178.298 292.116 176.676 295.488 173.737C296.14 173.121 296.95 172.4 297.451 171.658C297.826 171.009 297.55 170.083 296.871 169.738L296.41 169.473L292.675 167.335C279.094 159.431 266.849 148.772 257.529 136.054C255.006 132.592 252.615 128.918 250.738 125.038C250.632 124.82 250.724 124.562 250.942 124.456C251.159 124.35 251.423 124.442 251.521 124.661L251.515 124.654Z" fill="black"/>
<path d="M201.759 178.239C204.189 180.112 207.476 180.874 210.493 180.271C210.644 180.245 210.697 180.49 210.539 180.516C208.2 181.092 205.691 180.887 203.471 179.953C202.72 179.642 202.015 179.278 201.324 178.782C201.166 178.669 201.133 178.451 201.245 178.292C201.363 178.12 201.607 178.1 201.759 178.232V178.239Z" fill="black"/>
<path d="M211.955 144.429C210.973 149.924 214.181 156.266 219.655 157.252C225.122 158.239 230.78 153.499 231.761 148.004C232.743 142.509 229.535 136.14 224.068 135.154C218.601 134.167 212.936 138.934 211.955 144.429Z" fill="white"/>
<path d="M212.66 144.555C210.954 153.479 219.497 161.317 227.315 154.69C231.676 151.175 232.71 144.978 229.884 140.192C225.056 131.778 214.399 136.372 212.66 144.555ZM211.257 144.303C212.357 136.922 221.71 131.202 228.046 136.306C233.928 141.112 233.843 150.652 227.737 155.213C219.273 161.701 209.939 154.068 211.257 144.31V144.303Z" fill="black"/>
<path d="M224.66 145.805C225.033 143.714 224.37 141.845 223.177 141.63C221.985 141.415 220.716 142.935 220.342 145.026C219.969 147.117 220.632 148.986 221.825 149.201C223.017 149.417 224.286 147.896 224.66 145.805Z" fill="#429195"/>
<path d="M186.82 139.894C185.838 145.389 187.656 151.162 191.022 151.771C194.388 152.38 198.024 147.594 199.005 142.099C199.987 136.604 198.109 131.142 194.744 130.533C191.378 129.924 187.795 134.399 186.813 139.894H186.82Z" fill="white"/>
<path d="M187.202 139.96C186.57 143.403 186.872 150.381 190.943 151.466C193.117 151.877 194.954 150.016 196.094 148.335C198.986 143.886 199.809 137.531 197.023 132.87C195.923 131.03 193.749 130.46 191.971 131.711C189.277 133.539 187.847 136.816 187.195 139.954L187.202 139.96ZM186.438 139.821C187.103 135.763 190.014 129.275 195.014 130.003C197.576 130.593 198.893 133.161 199.447 135.472C200.619 141.013 198.88 147.766 194.25 151.235C190.515 153.803 187.525 150.215 186.649 146.693C186.082 144.442 186.056 142.092 186.438 139.815V139.821Z" fill="black"/>
<path d="M198.426 141.071C198.799 138.98 198.136 137.111 196.943 136.896C195.751 136.68 194.482 138.201 194.108 140.292C193.734 142.383 194.398 144.252 195.59 144.467C196.783 144.682 198.052 143.162 198.426 141.071Z" fill="#429195"/>
<path d="M200.171 121.251C198.781 121.364 197.576 120.775 196.186 120.867C194.849 120.854 193.453 121.066 192.142 121.371C191.951 121.424 191.753 121.298 191.714 121.106C191.681 120.947 191.76 120.781 191.905 120.715C193.894 119.735 196.186 119.351 198.393 119.696C199.131 119.815 199.908 119.934 200.474 120.622C200.685 120.867 200.487 121.251 200.171 121.251Z" fill="black"/>
<path d="M223.363 124.317C224.773 123.84 225.939 124.701 227.197 125.124C229.574 126.164 231.794 127.6 233.685 129.388C234.633 130.268 235.483 131.248 236.26 132.274C236.378 132.426 236.346 132.645 236.194 132.764C236.049 132.877 235.852 132.85 235.733 132.731C232.677 129.686 228.988 127.249 224.891 125.899C224.417 125.826 222.395 124.965 223.37 124.323L223.363 124.317Z" fill="black"/>
<path d="M204.308 152.823C202.773 151.983 200.132 150.718 198.334 150.87C197.339 150.95 196.581 151.817 196.621 152.823C196.654 153.75 196.937 155.2 198.215 156.107C198.834 156.544 199.585 156.736 200.342 156.743C201.462 156.756 203.227 156.465 204.657 154.836C205.21 154.207 205.045 153.227 204.308 152.823Z" fill="black"/>
<path d="M217.079 166.66C212.324 167.772 206.982 167.295 202.911 164.382C201.699 163.581 199.96 161.86 199.486 160.973C198.551 160.344 198.854 159.205 198.735 158.318C198.65 157.431 198.663 156.597 199.394 155.928C199.578 155.763 199.862 155.783 200.02 155.968C200.771 157.16 199.888 158.279 199.499 159.384C199.433 159.788 199.618 160.218 199.954 160.45C202.602 164.435 207.482 166.647 212.205 166.567C213.793 166.554 215.373 166.342 216.921 165.978C217.356 165.872 217.534 166.56 217.079 166.66Z" fill="black"/>
<path d="M242.787 119.252C246.028 117.921 252.819 113.618 255.862 100.305C256.178 98.9147 257.535 98.0342 258.931 98.2857C260.321 98.5373 261.276 99.8283 261.112 101.238C260.927 102.794 260.637 104.787 260.236 106.349C259.933 107.521 260.736 108.686 261.935 108.832C266.289 109.348 275.155 109.203 278.066 100.192C278.441 99.0405 279.601 98.3321 280.786 98.5439C282.137 98.7889 283.019 100.113 282.716 101.457C281.636 106.204 277.348 115.975 260.328 115.048C258.688 114.956 257.12 115.724 256.172 117.067C254.676 119.186 251.805 122.47 246.845 125.449C245.514 126.25 243.861 126.422 242.445 125.78C241.509 125.356 240.66 124.595 240.449 123.244C240.186 121.543 241.2 119.901 242.787 119.252Z" fill="url(#paint6_linear_1007_2939)"/>
<path d="M242.596 118.782C249.98 115.71 253.886 107.733 255.645 100.285C256.468 96.8822 261.467 97.5707 261.349 101.073C261.211 103.052 260.723 105.012 260.433 106.938C260.651 109.156 263.503 108.58 265.077 108.693C270.847 108.646 275.886 105.793 277.612 100.047C278.83 96.4916 284.034 97.968 283.237 101.655C281.768 108.56 276.479 113.433 269.734 114.995C267.092 115.644 264.372 115.915 261.691 115.803C259.867 115.677 258.055 115.77 256.903 117.319C254.341 120.907 250.915 123.8 247.141 126.005C244.928 127.362 241.45 126.945 240.232 124.423C239.198 122.278 240.456 119.576 242.603 118.775L242.596 118.782ZM242.978 119.729C241.371 120.371 240.462 122.37 241.246 123.939C242.214 125.773 244.856 125.965 246.496 124.919L247.319 124.403C250.579 122.278 253.53 119.623 255.75 116.419C256.685 115.207 258.148 114.433 259.669 114.32C260.486 114.294 261.046 114.333 261.718 114.333C264.313 114.426 266.901 114.181 269.398 113.618C275.715 112.248 280.635 107.773 282.15 101.404C282.736 99.0206 279.331 98.0342 278.507 100.345C276.525 106.415 271.222 109.322 265.084 109.289C263.2 109.222 260.084 109.587 259.906 106.972C260.183 104.985 260.736 103.052 260.888 101.053C260.927 100.444 260.723 99.8283 260.341 99.3582C259.142 97.7826 256.422 98.438 256.066 100.391C254.294 108.09 250.593 116.346 242.978 119.735V119.729Z" fill="black"/>
<path d="M221.677 144.032C221.917 144.032 222.112 143.836 222.112 143.595C222.112 143.354 221.917 143.158 221.677 143.158C221.437 143.158 221.242 143.354 221.242 143.595C221.242 143.836 221.437 144.032 221.677 144.032Z" fill="white"/>
<path d="M195.271 139.272C195.511 139.272 195.705 139.076 195.705 138.835C195.705 138.594 195.511 138.398 195.271 138.398C195.031 138.398 194.836 138.594 194.836 138.835C194.836 139.076 195.031 139.272 195.271 139.272Z" fill="white"/>
<path d="M197.833 152.413C198.073 152.413 198.268 152.218 198.268 151.976C198.268 151.735 198.073 151.539 197.833 151.539C197.593 151.539 197.398 151.735 197.398 151.976C197.398 152.218 197.593 152.413 197.833 152.413Z" fill="white"/>
<path d="M199.374 156.385C199.374 156.385 199.559 158.53 198.887 159.695C198.887 159.695 196.14 163.31 192.544 161.721C192.544 161.721 194.619 169.321 202.608 170.612C202.608 170.612 209.426 172.069 216.645 166.713C216.671 166.693 216.658 166.653 216.625 166.66C215.255 166.991 203.978 169.387 199.223 159.589" fill="black"/>
<path d="M199.374 156.385C199.374 156.385 199.559 158.53 198.887 159.695C198.887 159.695 196.14 163.31 192.544 161.721C192.544 161.721 194.619 169.321 202.608 170.612C202.608 170.612 209.426 172.069 216.645 166.713C216.671 166.693 216.658 166.653 216.625 166.66C215.255 166.991 203.978 169.387 199.223 159.589" stroke="black" stroke-miterlimit="10" stroke-linecap="round"/>
<path d="M199.697 169.268C199.697 169.268 202.47 165.74 206.376 166.633C206.376 166.633 209.794 167.275 211.56 168.964C211.56 168.964 205.579 171.817 199.697 169.268Z" fill="#FF5C5C"/>
<path d="M196.404 218.119C196.404 218.119 198.65 213.723 199.585 212.379L196.404 218.119Z" fill="#D1744E"/>
<path d="M196.094 217.96C197.174 216.034 198.195 214.107 199.447 212.28C199.499 212.207 199.605 212.187 199.684 212.24C199.756 212.293 199.776 212.399 199.723 212.472C198.597 214.326 197.668 216.325 196.713 218.278C196.509 218.702 195.87 218.377 196.094 217.96Z" fill="black"/>
<path d="M221.025 202.502C221.025 202.502 222.27 205.316 223.225 206.448C223.225 206.448 228.481 211.625 228.527 216.716C228.527 216.716 227.829 222.105 240.139 239.906C240.91 241.019 240.778 242.535 239.817 243.495C236.754 246.54 230.305 253.597 226.735 262.17C226.551 262.607 226.637 263.117 226.946 263.468C227.216 263.772 227.611 264.163 228.158 264.58C226.847 264.713 225.556 265.004 225.412 265.593C225.412 265.593 223.969 268.572 223.719 271.611C223.258 270.909 222.823 270.115 222.434 269.221C222.164 268.605 222.039 267.937 222.052 267.261C222.105 264.117 222.935 254.272 230.674 243.746C231.247 242.972 231.386 241.959 231.037 241.058C229.732 237.722 226.024 229.453 219.22 222.992" fill="url(#paint7_linear_1007_2939)"/>
<path d="M221.473 202.303C222.026 203.634 222.639 205.077 223.501 206.216C224.753 207.56 226.077 209.281 227.052 210.983C228.02 212.724 228.804 214.637 228.889 216.716C228.876 217.775 229.245 218.98 229.601 220.013C230.964 223.819 233.059 227.341 235.094 230.817C236.905 233.776 238.829 236.749 240.792 239.615C241.839 241.151 241.305 243.309 239.916 244.408C238.908 245.428 237.92 246.5 236.971 247.579C233.915 251.035 231.195 254.802 228.968 258.847C228.329 260.065 227.638 261.297 227.177 262.587C227.131 263.044 227.519 263.302 227.829 263.633C228.237 264.044 228.982 264.567 229.423 264.938C228.349 265.11 226.736 265.044 225.892 265.712C225.102 267.473 224.384 269.638 224.213 271.651L224.081 272.975C222.816 271.167 221.255 269.168 221.427 266.838C221.578 259.257 224.265 251.849 228.362 245.54C228.81 244.832 229.37 244.084 229.844 243.389C230.286 242.846 230.49 242.085 230.233 241.416C227.605 234.743 223.943 228.467 219.042 223.197C218.812 222.965 219.161 222.568 219.418 222.8C222.928 225.772 225.84 229.44 228.211 233.405C229.397 235.391 230.464 237.444 231.379 239.575L231.715 240.376C232.374 241.687 232.209 243.316 231.287 244.455C226.894 250.558 223.765 257.702 222.876 265.216C222.783 266.268 222.573 267.367 222.797 268.407C223.06 269.373 223.62 270.446 224.14 271.346L223.238 271.578C223.396 269.572 224.226 266.937 224.944 265.481C225.109 264.958 225.471 264.779 225.734 264.64C226.498 264.289 227.315 264.183 228.119 264.09L227.875 264.977C227.341 264.567 226.92 264.229 226.472 263.686C225.965 263.031 226.083 262.197 226.446 261.515C226.9 260.423 227.394 259.35 227.934 258.298C230.088 254.087 232.861 250.227 235.924 246.653C236.872 245.54 237.9 244.455 238.921 243.409C239.856 242.66 240.291 241.429 239.613 240.39C235.983 235.067 232.44 229.625 229.996 223.627C229.324 221.985 228.738 220.291 228.369 218.543C228.059 217.02 228.283 215.498 227.717 213.929C226.768 211.194 225.01 208.745 222.988 206.712C222.711 206.401 222.487 206.057 222.27 205.726C221.644 204.753 221.117 203.74 220.59 202.707C220.465 202.462 220.564 202.164 220.807 202.045C221.064 201.913 221.387 202.039 221.492 202.31L221.473 202.303Z" fill="black"/>
<path d="M222.909 196.524C222.909 196.524 220.201 191.949 222.718 189.579C223.238 189.089 223.692 188.54 223.976 187.884C223.982 187.864 223.989 187.845 224.002 187.831C224.68 186.216 223.541 184.409 221.802 184.29C220.998 184.237 219.892 184.323 218.456 184.799C216.315 185.508 213.977 185.441 211.955 184.442C211.171 184.058 210.334 183.528 209.465 182.813C208.866 182.317 208.187 181.919 207.456 181.648C206.126 181.165 204.433 181.052 204.446 183.661C204.446 183.661 204.064 185.971 205.151 188.659C205.902 190.513 205.73 192.631 204.558 194.253C204.275 194.644 203.939 195.067 203.537 195.504C203.537 195.504 201.238 197.921 207.924 201.469C207.924 201.469 211.349 203.568 215.578 203.515C217.797 203.488 219.971 202.72 221.604 201.211C222.83 200.079 223.831 198.464 222.902 196.524H222.909Z" fill="url(#paint8_linear_1007_2939)"/>
<path d="M222.408 196.802C221.407 194.849 220.531 192.24 221.716 190.115C222.079 189.44 222.718 189.036 223.152 188.44C224.002 187.428 224.022 185.991 222.994 185.144C221.967 184.316 220.392 184.654 219.167 184.932C217.837 185.369 216.302 185.686 214.833 185.534C213.358 185.422 211.922 184.859 210.697 184.051C209.485 183.29 208.51 182.224 207.114 181.847C205.487 181.317 204.723 182.058 204.769 183.72C204.584 185.322 204.881 187.024 205.5 188.533C206.382 190.585 206.106 193.214 204.597 194.928C204.485 195.074 204.097 195.557 203.985 195.703C202.931 197.034 204.604 198.649 205.717 199.45C210.051 202.621 216.908 204.713 221.308 200.655C222.421 199.668 223.1 198.192 222.415 196.802H222.408ZM223.422 196.259C224.424 198.06 223.587 200.311 222.164 201.562C219.536 204.17 215.492 204.627 212.08 203.72C209.155 203.118 200.349 198.94 203.313 195.087C203.438 194.948 203.781 194.524 203.906 194.379C205.282 192.902 205.566 190.678 204.828 188.805C204.196 187.236 203.939 185.163 204.143 183.667C204.084 180.178 207.258 180.794 209.274 182.31C212.014 184.813 215.512 185.719 218.996 184.303C220.425 183.932 222.177 183.561 223.462 184.548C224.858 185.58 224.931 187.672 223.864 188.977C223.482 189.566 222.856 189.996 222.54 190.599C221.637 192.413 222.487 194.551 223.416 196.259H223.422Z" fill="black"/>
<path d="M205.394 188.401C207.166 189.222 208.905 190.354 210.657 191.261C212.528 192.201 214.128 193.703 215.307 195.411C215.446 195.603 215.163 195.842 214.998 195.663C213.595 194.24 212.027 192.995 210.19 192.214C208.325 191.28 206.317 190.539 204.92 188.904C204.676 188.593 205.065 188.182 205.394 188.394V188.401Z" fill="black"/>
<path d="M217.745 197.067C215.367 201.542 206.982 196.967 204.709 194.227C204.571 194.054 204.821 193.823 204.973 193.988C206.685 195.564 208.925 196.444 211.079 197.252C213.061 198.046 215.512 198.252 217.125 196.736C217.363 196.385 217.916 196.669 217.738 197.067H217.745Z" fill="black"/>
<path d="M222.599 196.57C220.551 193.598 218.838 189.844 215.103 188.725C214.919 188.679 214.978 188.381 215.169 188.414C217.139 188.679 218.831 189.93 220.155 191.347C221.42 192.823 222.744 194.346 223.231 196.285C223.317 196.65 222.81 196.875 222.599 196.57Z" fill="black"/>
</g>
</g>
<rect y="99.6406" width="154.688" height="37.5" rx="18.75" fill="#C4DDD1"/>
<path d="M21.727 112.383V122.141H20.453V112.383H21.727ZM27.6363 114.329C28.5696 114.329 29.3256 114.613 29.9043 115.183C30.483 115.743 30.7723 116.555 30.7723 117.619V122.141H29.5123V117.801C29.5123 117.035 29.321 116.452 28.9383 116.051C28.5556 115.64 28.033 115.435 27.3703 115.435C26.6983 115.435 26.1616 115.645 25.7603 116.065C25.3683 116.485 25.1723 117.096 25.1723 117.899V122.141H23.8983V114.469H25.1723V115.561C25.4243 115.169 25.765 114.865 26.1943 114.651C26.633 114.436 27.1136 114.329 27.6363 114.329ZM36.0174 114.343C36.6801 114.343 37.2587 114.487 37.7534 114.777C38.2574 115.066 38.6307 115.43 38.8734 115.869V114.469H40.1614V122.309C40.1614 123.009 40.0121 123.629 39.7134 124.171C39.4147 124.721 38.9854 125.151 38.4254 125.459C37.8747 125.767 37.2307 125.921 36.4934 125.921C35.4854 125.921 34.6454 125.683 33.9734 125.207C33.3014 124.731 32.9047 124.082 32.7834 123.261H34.0434C34.1834 123.727 34.4727 124.101 34.9114 124.381C35.3501 124.67 35.8774 124.815 36.4934 124.815C37.1934 124.815 37.7627 124.595 38.2014 124.157C38.6494 123.718 38.8734 123.102 38.8734 122.309V120.699C38.6214 121.147 38.2481 121.52 37.7534 121.819C37.2587 122.117 36.6801 122.267 36.0174 122.267C35.3361 122.267 34.7154 122.099 34.1554 121.763C33.6047 121.427 33.1707 120.955 32.8534 120.349C32.5361 119.742 32.3774 119.051 32.3774 118.277C32.3774 117.493 32.5361 116.807 32.8534 116.219C33.1707 115.621 33.6047 115.159 34.1554 114.833C34.7154 114.506 35.3361 114.343 36.0174 114.343ZM38.8734 118.291C38.8734 117.712 38.7567 117.208 38.5234 116.779C38.2901 116.349 37.9727 116.023 37.5714 115.799C37.1794 115.565 36.7454 115.449 36.2694 115.449C35.7934 115.449 35.3594 115.561 34.9674 115.785C34.5754 116.009 34.2627 116.335 34.0294 116.765C33.7961 117.194 33.6794 117.698 33.6794 118.277C33.6794 118.865 33.7961 119.378 34.0294 119.817C34.2627 120.246 34.5754 120.577 34.9674 120.811C35.3594 121.035 35.7934 121.147 36.2694 121.147C36.7454 121.147 37.1794 121.035 37.5714 120.811C37.9727 120.577 38.2901 120.246 38.5234 119.817C38.7567 119.378 38.8734 118.869 38.8734 118.291ZM43.5883 115.715C43.8123 115.276 44.1297 114.935 44.5403 114.693C44.9603 114.45 45.469 114.329 46.0663 114.329V115.645H45.7303C44.3023 115.645 43.5883 116.419 43.5883 117.969V122.141H42.3143V114.469H43.5883V115.715ZM54.537 118.011C54.537 118.253 54.523 118.51 54.495 118.781H48.363C48.4097 119.537 48.6663 120.129 49.133 120.559C49.609 120.979 50.183 121.189 50.855 121.189C51.4057 121.189 51.863 121.063 52.227 120.811C52.6003 120.549 52.8617 120.204 53.011 119.775H54.383C54.1777 120.512 53.767 121.114 53.151 121.581C52.535 122.038 51.7697 122.267 50.855 122.267C50.127 122.267 49.4737 122.103 48.895 121.777C48.3257 121.45 47.8777 120.988 47.551 120.391C47.2243 119.784 47.061 119.084 47.061 118.291C47.061 117.497 47.2197 116.802 47.537 116.205C47.8543 115.607 48.2977 115.15 48.867 114.833C49.4457 114.506 50.1083 114.343 50.855 114.343C51.583 114.343 52.227 114.501 52.787 114.819C53.347 115.136 53.7763 115.575 54.075 116.135C54.383 116.685 54.537 117.311 54.537 118.011ZM53.221 117.745C53.221 117.259 53.1137 116.844 52.899 116.499C52.6843 116.144 52.3903 115.878 52.017 115.701C51.653 115.514 51.247 115.421 50.799 115.421C50.155 115.421 49.6043 115.626 49.147 116.037C48.699 116.447 48.4423 117.017 48.377 117.745H53.221ZM58.9346 122.267C58.3466 122.267 57.8193 122.169 57.3526 121.973C56.886 121.767 56.5173 121.487 56.2466 121.133C55.976 120.769 55.8266 120.353 55.7986 119.887H57.1146C57.152 120.269 57.3293 120.582 57.6466 120.825C57.9733 121.067 58.398 121.189 58.9206 121.189C59.406 121.189 59.7886 121.081 60.0686 120.867C60.3486 120.652 60.4886 120.381 60.4886 120.055C60.4886 119.719 60.3393 119.471 60.0406 119.313C59.742 119.145 59.28 118.981 58.6546 118.823C58.0853 118.673 57.6186 118.524 57.2546 118.375C56.9 118.216 56.592 117.987 56.3306 117.689C56.0786 117.381 55.9526 116.979 55.9526 116.485C55.9526 116.093 56.0693 115.733 56.3026 115.407C56.536 115.08 56.8673 114.823 57.2966 114.637C57.726 114.441 58.216 114.343 58.7666 114.343C59.616 114.343 60.302 114.557 60.8246 114.987C61.3473 115.416 61.6273 116.004 61.6646 116.751H60.3906C60.3626 116.349 60.1993 116.027 59.9006 115.785C59.6113 115.542 59.2193 115.421 58.7246 115.421C58.2673 115.421 57.9033 115.519 57.6326 115.715C57.362 115.911 57.2266 116.167 57.2266 116.485C57.2266 116.737 57.306 116.947 57.4646 117.115C57.6326 117.273 57.838 117.404 58.0806 117.507C58.3326 117.6 58.678 117.707 59.1166 117.829C59.6673 117.978 60.1153 118.127 60.4606 118.277C60.806 118.417 61.1 118.631 61.3426 118.921C61.5946 119.21 61.7253 119.588 61.7346 120.055C61.7346 120.475 61.618 120.853 61.3846 121.189C61.1513 121.525 60.82 121.791 60.3906 121.987C59.9706 122.173 59.4853 122.267 58.9346 122.267ZM63.0571 118.277C63.0571 117.493 63.2157 116.807 63.5331 116.219C63.8504 115.621 64.2844 115.159 64.8351 114.833C65.3951 114.506 66.0157 114.343 66.6971 114.343C67.3691 114.343 67.9524 114.487 68.4471 114.777C68.9417 115.066 69.3104 115.43 69.5531 115.869V114.469H70.8411V122.141H69.5531V120.713C69.3011 121.161 68.9231 121.534 68.4191 121.833C67.9244 122.122 67.3457 122.267 66.6831 122.267C66.0017 122.267 65.3857 122.099 64.8351 121.763C64.2844 121.427 63.8504 120.955 63.5331 120.349C63.2157 119.742 63.0571 119.051 63.0571 118.277ZM69.5531 118.291C69.5531 117.712 69.4364 117.208 69.2031 116.779C68.9697 116.349 68.6524 116.023 68.2511 115.799C67.8591 115.565 67.4251 115.449 66.9491 115.449C66.4731 115.449 66.0391 115.561 65.6471 115.785C65.2551 116.009 64.9424 116.335 64.7091 116.765C64.4757 117.194 64.3591 117.698 64.3591 118.277C64.3591 118.865 64.4757 119.378 64.7091 119.817C64.9424 120.246 65.2551 120.577 65.6471 120.811C66.0391 121.035 66.4731 121.147 66.9491 121.147C67.4251 121.147 67.8591 121.035 68.2511 120.811C68.6524 120.577 68.9697 120.246 69.2031 119.817C69.4364 119.378 69.5531 118.869 69.5531 118.291ZM74.268 115.715C74.492 115.276 74.8093 114.935 75.22 114.693C75.64 114.45 76.1487 114.329 76.746 114.329V115.645H76.41C74.982 115.645 74.268 116.419 74.268 117.969V122.141H72.994V114.469H74.268V115.715ZM83.2231 111.781V122.141H81.9491V111.781H83.2231ZM86.0524 113.223C85.8097 113.223 85.6044 113.139 85.4364 112.971C85.2684 112.803 85.1844 112.597 85.1844 112.355C85.1844 112.112 85.2684 111.907 85.4364 111.739C85.6044 111.571 85.8097 111.487 86.0524 111.487C86.2857 111.487 86.4817 111.571 86.6404 111.739C86.8084 111.907 86.8924 112.112 86.8924 112.355C86.8924 112.597 86.8084 112.803 86.6404 112.971C86.4817 113.139 86.2857 113.223 86.0524 113.223ZM86.6684 114.469V122.141H85.3944V114.469H86.6684ZM88.3637 118.291C88.3637 117.497 88.5224 116.807 88.8397 116.219C89.1571 115.621 89.5957 115.159 90.1557 114.833C90.7251 114.506 91.3737 114.343 92.1017 114.343C93.0444 114.343 93.8191 114.571 94.4257 115.029C95.0417 115.486 95.4477 116.121 95.6437 116.933H94.2717C94.1411 116.466 93.8844 116.097 93.5017 115.827C93.1284 115.556 92.6617 115.421 92.1017 115.421C91.3737 115.421 90.7857 115.673 90.3377 116.177C89.8897 116.671 89.6657 117.376 89.6657 118.291C89.6657 119.215 89.8897 119.929 90.3377 120.433C90.7857 120.937 91.3737 121.189 92.1017 121.189C92.6617 121.189 93.1284 121.058 93.5017 120.797C93.8751 120.535 94.1317 120.162 94.2717 119.677H95.6437C95.4384 120.461 95.0277 121.091 94.4117 121.567C93.7957 122.033 93.0257 122.267 92.1017 122.267C91.3737 122.267 90.7251 122.103 90.1557 121.777C89.5957 121.45 89.1571 120.988 88.8397 120.391C88.5224 119.793 88.3637 119.093 88.3637 118.291ZM104.344 118.011C104.344 118.253 104.33 118.51 104.302 118.781H98.1696C98.2163 119.537 98.473 120.129 98.9396 120.559C99.4156 120.979 99.9896 121.189 100.662 121.189C101.212 121.189 101.67 121.063 102.034 120.811C102.407 120.549 102.668 120.204 102.818 119.775H104.19C103.984 120.512 103.574 121.114 102.958 121.581C102.342 122.038 101.576 122.267 100.662 122.267C99.9336 122.267 99.2803 122.103 98.7016 121.777C98.1323 121.45 97.6843 120.988 97.3576 120.391C97.031 119.784 96.8676 119.084 96.8676 118.291C96.8676 117.497 97.0263 116.802 97.3436 116.205C97.661 115.607 98.1043 115.15 98.6736 114.833C99.2523 114.506 99.915 114.343 100.662 114.343C101.39 114.343 102.034 114.501 102.594 114.819C103.154 115.136 103.583 115.575 103.882 116.135C104.19 116.685 104.344 117.311 104.344 118.011ZM103.028 117.745C103.028 117.259 102.92 116.844 102.706 116.499C102.491 116.144 102.197 115.878 101.824 115.701C101.46 115.514 101.054 115.421 100.606 115.421C99.9616 115.421 99.411 115.626 98.9536 116.037C98.5056 116.447 98.249 117.017 98.1836 117.745H103.028ZM109.763 114.329C110.697 114.329 111.453 114.613 112.031 115.183C112.61 115.743 112.899 116.555 112.899 117.619V122.141H111.639V117.801C111.639 117.035 111.448 116.452 111.065 116.051C110.683 115.64 110.16 115.435 109.497 115.435C108.825 115.435 108.289 115.645 107.887 116.065C107.495 116.485 107.299 117.096 107.299 117.899V122.141H106.025V114.469H107.299V115.561C107.551 115.169 107.892 114.865 108.321 114.651C108.76 114.436 109.241 114.329 109.763 114.329ZM114.504 118.291C114.504 117.497 114.663 116.807 114.98 116.219C115.298 115.621 115.736 115.159 116.296 114.833C116.866 114.506 117.514 114.343 118.242 114.343C119.185 114.343 119.96 114.571 120.566 115.029C121.182 115.486 121.588 116.121 121.784 116.933H120.412C120.282 116.466 120.025 116.097 119.642 115.827C119.269 115.556 118.802 115.421 118.242 115.421C117.514 115.421 116.926 115.673 116.478 116.177C116.03 116.671 115.806 117.376 115.806 118.291C115.806 119.215 116.03 119.929 116.478 120.433C116.926 120.937 117.514 121.189 118.242 121.189C118.802 121.189 119.269 121.058 119.642 120.797C120.016 120.535 120.272 120.162 120.412 119.677H121.784C121.579 120.461 121.168 121.091 120.552 121.567C119.936 122.033 119.166 122.267 118.242 122.267C117.514 122.267 116.866 122.103 116.296 121.777C115.736 121.45 115.298 120.988 114.98 120.391C114.663 119.793 114.504 119.093 114.504 118.291ZM124.142 113.223C123.9 113.223 123.694 113.139 123.526 112.971C123.358 112.803 123.274 112.597 123.274 112.355C123.274 112.112 123.358 111.907 123.526 111.739C123.694 111.571 123.9 111.487 124.142 111.487C124.376 111.487 124.572 111.571 124.73 111.739C124.898 111.907 124.982 112.112 124.982 112.355C124.982 112.597 124.898 112.803 124.73 112.971C124.572 113.139 124.376 113.223 124.142 113.223ZM124.758 114.469V122.141H123.484V114.469H124.758ZM126.454 118.277C126.454 117.493 126.612 116.807 126.93 116.219C127.247 115.621 127.681 115.159 128.232 114.833C128.792 114.506 129.412 114.343 130.094 114.343C130.766 114.343 131.349 114.487 131.844 114.777C132.338 115.066 132.707 115.43 132.95 115.869V114.469H134.238V122.141H132.95V120.713C132.698 121.161 132.32 121.534 131.816 121.833C131.321 122.122 130.742 122.267 130.08 122.267C129.398 122.267 128.782 122.099 128.232 121.763C127.681 121.427 127.247 120.955 126.93 120.349C126.612 119.742 126.454 119.051 126.454 118.277ZM132.95 118.291C132.95 117.712 132.833 117.208 132.6 116.779C132.366 116.349 132.049 116.023 131.648 115.799C131.256 115.565 130.822 115.449 130.346 115.449C129.87 115.449 129.436 115.561 129.044 115.785C128.652 116.009 128.339 116.335 128.106 116.765C127.872 117.194 127.756 117.698 127.756 118.277C127.756 118.865 127.872 119.378 128.106 119.817C128.339 120.246 128.652 120.577 129.044 120.811C129.436 121.035 129.87 121.147 130.346 121.147C130.822 121.147 131.256 121.035 131.648 120.811C132.049 120.577 132.366 120.246 132.6 119.817C132.833 119.378 132.95 118.869 132.95 118.291Z" fill="#201A18"/>
</g>
<defs>
<linearGradient id="paint0_linear_1007_2939" x1="173.753" y1="271.168" x2="197.834" y2="166.89" gradientUnits="userSpaceOnUse">
<stop stop-color="#643C3B"/>
<stop offset="0.03" stop-color="#72453D"/>
<stop offset="0.12" stop-color="#996044"/>
<stop offset="0.22" stop-color="#B87449"/>
<stop offset="0.3" stop-color="#CF834D"/>
<stop offset="0.39" stop-color="#DC8C50"/>
<stop offset="0.47" stop-color="#E19051"/>
</linearGradient>
<linearGradient id="paint1_linear_1007_2939" x1="237.002" y1="216.271" x2="234.382" y2="183.228" gradientUnits="userSpaceOnUse">
<stop stop-color="#487E50"/>
<stop offset="0.07" stop-color="#518A58"/>
<stop offset="0.21" stop-color="#61A167"/>
<stop offset="0.34" stop-color="#6AAE6F"/>
<stop offset="0.47" stop-color="#6EB373"/>
</linearGradient>
<linearGradient id="paint2_linear_1007_2939" x1="193.833" y1="116.535" x2="199.897" y2="82.9363" gradientUnits="userSpaceOnUse">
<stop offset="0.56" stop-color="#F9E9B3"/>
<stop offset="0.61" stop-color="#F3D9A5"/>
<stop offset="0.79" stop-color="#E1A276"/>
<stop offset="0.93" stop-color="#D58059"/>
<stop offset="1" stop-color="#D1744E"/>
</linearGradient>
<linearGradient id="paint3_linear_1007_2939" x1="188.129" y1="174.3" x2="180.893" y2="136.011" gradientUnits="userSpaceOnUse">
<stop stop-color="#643C3B"/>
<stop offset="0.03" stop-color="#72453D"/>
<stop offset="0.12" stop-color="#996044"/>
<stop offset="0.22" stop-color="#B87449"/>
<stop offset="0.3" stop-color="#CF834D"/>
<stop offset="0.39" stop-color="#DC8C50"/>
<stop offset="0.47" stop-color="#E19051"/>
</linearGradient>
<linearGradient id="paint4_linear_1007_2939" x1="213.727" y1="186.217" x2="227.883" y2="107.782" gradientUnits="userSpaceOnUse">
<stop stop-color="#643C3B"/>
<stop offset="0.02" stop-color="#7C4C3F"/>
<stop offset="0.05" stop-color="#9B6144"/>
<stop offset="0.08" stop-color="#B47249"/>
<stop offset="0.11" stop-color="#C87F4C"/>
<stop offset="0.15" stop-color="#D6884F"/>
<stop offset="0.2" stop-color="#DE8E50"/>
<stop offset="0.28" stop-color="#E19051"/>
</linearGradient>
<linearGradient id="paint5_linear_1007_2939" x1="272.294" y1="187.193" x2="274.018" y2="135.472" gradientUnits="userSpaceOnUse">
<stop stop-color="#643C3B"/>
<stop offset="0.06" stop-color="#835140"/>
<stop offset="0.15" stop-color="#A56746"/>
<stop offset="0.23" stop-color="#BF794B"/>
<stop offset="0.32" stop-color="#D2864E"/>
<stop offset="0.41" stop-color="#DD8D50"/>
<stop offset="0.51" stop-color="#E19051"/>
</linearGradient>
<linearGradient id="paint6_linear_1007_2939" x1="257.94" y1="132.208" x2="264.717" y2="94.6619" gradientUnits="userSpaceOnUse">
<stop offset="0.56" stop-color="#F9E9B3"/>
<stop offset="0.61" stop-color="#F3D9A5"/>
<stop offset="0.79" stop-color="#E1A276"/>
<stop offset="0.93" stop-color="#D58059"/>
<stop offset="1" stop-color="#D1744E"/>
</linearGradient>
<linearGradient id="paint7_linear_1007_2939" x1="219.61" y1="266.695" x2="226.724" y2="238.806" gradientUnits="userSpaceOnUse">
<stop stop-color="#643C3B"/>
<stop offset="0.03" stop-color="#72453D"/>
<stop offset="0.12" stop-color="#996044"/>
<stop offset="0.22" stop-color="#B87449"/>
<stop offset="0.3" stop-color="#CF834D"/>
<stop offset="0.39" stop-color="#DC8C50"/>
<stop offset="0.47" stop-color="#E19051"/>
</linearGradient>
<linearGradient id="paint8_linear_1007_2939" x1="211.398" y1="203.76" x2="215.428" y2="182.723" gradientUnits="userSpaceOnUse">
<stop stop-color="#487E50"/>
<stop offset="0.07" stop-color="#518A58"/>
<stop offset="0.21" stop-color="#61A167"/>
<stop offset="0.34" stop-color="#6AAE6F"/>
<stop offset="0.47" stop-color="#6EB373"/>
</linearGradient>
<clipPath id="clip0_1007_2939">
<rect width="152.812" height="139.688" fill="white" transform="translate(147.188 80.6562)"/>
</clipPath>
</defs>
</svg>
