<svg width="300" height="301" viewBox="0 0 300 301" fill="none" xmlns="http://www.w3.org/2000/svg">
<circle cx="150" cy="150.5" r="150" fill="#C4DDD1" fill-opacity="0.15"/>
<mask id="mask0_1026_2803" style="mask-type:luminance" maskUnits="userSpaceOnUse" x="49" y="115" width="136" height="136">
<path d="M49.9998 115.066H184.07V250.5H49.9998V115.066Z" fill="white"/>
</mask>
<g mask="url(#mask0_1026_2803)">
<path d="M177.688 190.365C176.928 189.916 175.948 189.404 175.014 189.074C174.767 188.982 174.51 189.202 174.556 189.459C174.62 189.806 174.748 190.136 174.95 190.42C175.691 191.446 176.067 192.874 176.131 193.149C176.131 193.176 176.131 193.204 176.131 193.24C177.321 204.879 171.9 218.789 169.758 221.362C169.034 222.241 169.071 222.067 168.146 222.717C161.26 227.589 157.276 228.706 154.126 229.173C152.451 229.42 150.674 229.036 149.96 228.917C146.563 228.349 143.33 230.025 143.33 230.025C142.753 229.732 142.488 230.95 142.488 230.95L127.864 234.228C126.6 235.977 127.223 248.394 127.543 253.604C127.626 254.941 127.571 256.278 127.342 257.597C125.611 267.56 124.585 298.621 124.585 298.621C124.585 298.887 124.585 299.143 124.595 299.409C137.607 308.575 160.445 302.339 166.333 298.337C166.223 295.911 165.902 293.493 165.408 291.112C165.161 289.931 164.941 288.722 164.822 288.301C156.983 260.994 150.143 248.861 150.143 248.861C147.085 243.788 154.557 237.021 161.187 234.191C162.295 233.715 174.538 227.909 175.289 226.966C180.673 220.217 182.138 193.634 182.275 192.746C182.275 192.718 182.285 192.7 182.294 192.682C182.504 192.197 182.688 191.702 182.843 191.217C182.926 190.969 182.706 190.731 182.449 190.786C182.047 190.869 181.625 190.942 181.204 191.015C179.986 191.226 178.741 190.997 177.679 190.374L177.688 190.365Z" fill="url(#paint0_linear_1026_2803)"/>
<path d="M177.825 190.127C177.084 189.687 176.287 189.293 175.49 188.964L175.243 188.872C175.17 188.854 175.087 188.799 174.904 188.781C174.584 188.771 174.3 189.019 174.272 189.339C174.272 189.907 174.639 190.493 174.932 190.896C175.353 191.601 175.655 192.398 175.866 193.194C176.15 196.06 176.076 198.954 175.673 201.811C174.941 207.196 173.366 212.488 171.214 217.452C170.527 218.944 169.859 220.51 168.723 221.581C164.108 224.851 159.218 228.495 153.403 229.054C151.306 229.283 149.319 228.129 147.213 228.33C145.784 228.486 144.392 228.944 143.23 229.814H143.449C143.294 229.722 143.046 229.713 142.882 229.814C142.488 230.061 142.369 230.482 142.241 230.885L142.442 230.684L127.809 233.944L127.699 233.971L127.644 234.054C126.536 236.627 126.966 239.566 126.866 242.304C126.911 246.388 127.177 250.491 127.369 254.556C127.223 258.622 126.234 262.642 125.996 266.717C125.446 272.147 125.016 277.587 124.659 283.026C124.393 287.751 123.945 294.692 124.155 299.399L124.164 299.637L124.338 299.756C127.461 301.771 130.876 303.3 134.475 304.234C141.719 305.727 149.319 304.829 156.388 302.934C159.932 301.917 163.458 300.718 166.525 298.612C166.846 297.989 166.617 298.419 166.681 298.273V298.236V298.172C166.324 292.733 164.987 287.412 163.311 282.248C159.896 271.158 155.995 260.179 150.94 249.712C147.854 245.326 151.947 240.866 155.427 238.248C159.74 234.951 165.024 233.257 169.776 230.675C171.791 229.567 173.952 228.761 175.756 227.268C177.734 224.548 178.54 221.179 179.309 218.038C180.527 212.672 181.122 207.232 181.726 201.802C182.028 198.918 182.312 196.024 182.523 193.13C182.541 192.984 182.55 192.736 182.569 192.718C182.788 192.233 182.944 191.757 183.118 191.253C183.228 190.951 183.036 190.594 182.743 190.493C182.614 190.429 182.386 190.456 182.34 190.475C180.792 190.859 179.208 190.942 177.825 190.09V190.127ZM177.541 190.612C178.942 191.482 180.664 191.5 182.193 191.106C182.358 191.079 182.569 191.033 182.541 191.051C182.578 191.07 182.587 191.097 182.578 191.125C182.413 191.757 181.955 192.507 181.955 193.13C181.726 196.015 181.525 198.908 181.204 201.793C180.618 207.196 179.748 212.598 178.42 217.864C177.578 220.94 176.708 224.045 174.849 226.59C170.783 229.173 166.214 231.087 161.883 233.211C159.346 234.273 156.846 235.647 154.713 237.378C151.718 239.905 147.9 243.861 149.438 248.174C155.235 259.007 159.154 270.728 162.789 282.431C164.41 287.577 165.866 292.897 165.967 298.328C166.031 298.199 165.82 298.657 166.113 298.044C163.046 299.82 159.52 300.818 156.05 301.688C150.812 302.897 145.427 303.547 140.061 303.263C136.517 302.989 132.955 302.613 129.558 301.524C127.873 300.937 126.27 300.104 124.842 299.042L125.034 299.399C125.822 288.731 125.904 277.449 126.618 266.781C126.765 262.679 127.617 258.65 127.8 254.566C127.516 248.128 126.875 240.198 127.937 234.502L142.561 231.206L142.726 231.169C142.79 230.858 142.891 230.446 143.129 230.244C143.175 230.226 143.184 230.217 143.248 230.244L143.367 230.281C144.695 229.915 146.041 229.631 147.359 229.438C149.374 228.944 151.389 229.484 153.44 229.438C158.998 228.944 164.099 226.233 168.622 223.129C170.573 222.094 171.47 219.759 172.313 217.928C174.428 212.791 175.682 207.37 176.305 201.894C176.58 199.146 176.708 196.381 176.452 193.625C176.388 192.59 175.93 191.528 175.417 190.621C175.142 190.172 174.886 189.861 174.84 189.394C174.84 189.367 174.877 189.33 174.913 189.33C175.792 189.65 176.736 190.117 177.56 190.612H177.541Z" fill="black"/>
<path d="M127.296 226.874C123.762 225.931 113.817 224.036 109.348 230.894C108.945 231.508 108.661 232.186 108.451 232.891C107.599 235.738 104.303 245.115 97.0775 247.615C96.2809 247.89 96.2442 249.016 97.0409 249.309C99.4401 250.17 103.588 250.582 108.57 246.571C109.495 245.83 110.081 244.74 110.218 243.568C110.337 242.561 110.52 241.279 110.795 240.28C110.96 239.667 111.839 239.63 112.049 240.235C112.288 240.921 112.517 241.791 112.526 242.725C112.526 243.137 112.883 243.449 113.286 243.385C114.348 243.22 116.179 242.396 116.884 238.77C117.068 237.817 117.397 236.892 117.901 236.068C118.798 234.594 120.502 232.707 123.578 231.902C124.421 231.682 125.291 231.572 126.161 231.554C127.36 231.526 130.199 231.242 129.54 228.999C129.237 227.946 128.358 227.158 127.296 226.874Z" fill="url(#paint1_linear_1026_2803)"/>
<path d="M127.388 226.535C121.28 225.162 113.304 224.695 109.229 230.418C108.258 231.609 107.984 233.248 107.434 234.585C106.033 238.22 104.11 241.764 101.271 244.364C100.035 245.482 98.625 246.388 97.0683 246.956C95.7954 247.267 95.3376 248.989 96.528 249.749C101.006 251.699 106.317 249.712 109.632 246.461C111.161 244.831 110.859 242.341 111.418 240.454C111.418 240.473 111.39 240.39 111.436 240.518L111.546 240.848C111.683 241.288 111.784 241.727 111.839 242.185L111.903 242.982C111.985 243.449 112.352 243.861 112.837 243.989C115.63 244.19 117.132 241.022 117.48 238.733C118.176 234.951 121.774 232.286 125.52 232.039C126.93 231.938 129.1 231.984 129.869 230.372C130.464 228.632 128.972 226.938 127.378 226.545L127.388 226.535ZM127.214 227.204C128.395 227.497 129.558 228.834 129.155 230.043C128.798 230.784 127.726 230.968 126.939 231.068C125.465 231.123 123.862 231.196 122.443 231.755C119.494 232.781 117.013 235.372 116.372 238.476C116.033 240.189 115.309 242.139 113.579 242.68C113.46 242.716 113.331 242.744 113.203 242.762C113.203 242.762 113.185 242.753 113.185 242.725C113.176 241.828 113.002 240.931 112.709 240.079C112.562 239.41 111.637 238.925 110.987 239.209C110.758 239.291 110.538 239.447 110.383 239.649C109.403 241.526 110.09 243.962 108.634 245.573C105.658 248.366 101.189 250.179 97.2056 248.677C97.0866 248.632 97.0591 248.412 97.1507 248.293C97.1049 248.229 97.7825 248.009 98.2221 247.798C101.509 246.315 103.991 243.412 105.74 240.354C106.747 238.605 107.572 236.764 108.24 234.868C108.78 233.467 108.945 232.021 109.852 230.839C113.624 225.363 121.426 225.464 127.204 227.195L127.214 227.204Z" fill="black"/>
<path d="M122.47 228.733C118.001 229.026 112.901 230.528 110.749 234.823C110.602 235.107 110.721 235.455 111.005 235.601C111.298 235.748 111.646 235.629 111.783 235.336C113.624 231.325 118.422 229.832 122.516 229.402C122.937 229.374 122.9 228.715 122.47 228.733Z" fill="black"/>
<path d="M107.434 241.379C106.83 243.476 105.218 245.372 103.286 246.434C102.617 246.828 101.885 247.093 101.143 247.34C100.749 247.459 100.923 248.082 101.326 247.981C104.641 247.276 107.59 245.005 108.789 241.754C108.917 241.388 108.734 240.985 108.359 240.848C107.956 240.701 107.507 240.958 107.425 241.379H107.434Z" fill="black"/>
<path d="M181.937 182.196L178.256 181.83C177.551 181.757 176.846 182.013 176.352 182.526L174.612 184.339C174.099 184.87 173.87 185.621 173.998 186.354L174.41 188.689C174.429 188.817 174.52 188.918 174.648 188.954C175.683 189.275 176.819 189.87 177.679 190.365C178.742 190.987 179.996 191.216 181.205 191.006C181.745 190.914 182.304 190.804 182.798 190.703C182.926 190.676 183.027 190.584 183.064 190.456C183.751 187.947 183.787 185.585 183.705 184.065C183.65 183.085 182.899 182.297 181.928 182.196H181.937Z" fill="#643C3B"/>
<path d="M181.965 181.959L178.018 181.602C177.304 181.602 176.58 181.931 176.113 182.453C175.234 183.451 173.796 184.376 173.696 185.686C173.613 186.336 173.86 187.096 173.925 187.719C174.007 188.021 174.016 188.827 174.245 189.074C174.456 189.312 174.804 189.339 175.051 189.449C176.324 189.88 177.313 190.685 178.613 191.152C179.922 191.629 181.369 191.354 182.66 191.07C182.88 191.043 183.192 190.951 183.311 190.722C183.402 190.557 183.393 190.475 183.42 190.402C183.851 188.708 184.034 186.949 184.025 185.2C184.135 183.726 183.668 182.124 181.965 181.959ZM181.919 182.444C183.347 182.609 183.558 184.001 183.466 185.2C183.448 186.904 183.237 188.598 182.789 190.228C182.734 190.429 182.789 190.356 182.532 190.411C181.278 190.667 180.042 190.942 178.814 190.511C177.642 190.09 176.516 189.229 175.28 188.817C175.106 188.753 174.923 188.689 174.74 188.634C174.74 188.616 174.74 188.689 174.721 188.57C174.63 188.085 174.437 187.114 174.346 186.638C174.08 185.686 174.364 184.871 175.087 184.211L176.434 182.774C176.827 182.307 177.404 182.041 178.009 182.041C179.272 182.142 180.609 182.307 181.9 182.444H181.919Z" fill="black"/>
<path d="M121.179 151.255C122.983 148.425 125.913 141.319 120.969 129.278C120.456 128.023 121.024 126.585 122.251 126.008C123.478 125.432 124.934 125.908 125.575 127.098C126.289 128.408 127.159 130.12 127.708 131.558C128.12 132.638 129.393 133.096 130.4 132.547C134.091 130.541 137.479 127.144 134.796 118.518C134.448 117.41 134.97 116.219 136.014 115.734C137.204 115.176 138.624 115.716 139.127 116.934C140.895 121.219 142.561 132.592 132.571 138.27C131.206 139.048 130.437 140.568 130.437 142.143C130.437 144.616 129.998 148.764 127.763 153.828C127.159 155.192 125.968 156.236 124.512 156.52C123.551 156.712 122.461 156.593 121.555 155.65C120.41 154.478 120.3 152.637 121.188 151.255H121.179Z" fill="url(#paint2_linear_1026_2803)"/>
<path d="M121.664 151.566C126.005 144.469 123.871 135.807 121.023 128.618C120.721 126.869 122.699 125.386 124.302 126.173C125.776 126.933 126.289 129.14 127.076 130.541C127.333 131.054 127.488 131.75 127.855 132.226C128.807 133.408 130.29 133.06 131.362 132.263C134.713 130.431 136.462 126.613 136.023 122.868C135.895 121.65 135.702 120.432 135.364 119.26L135.125 118.381C134.915 117.648 135.18 116.796 135.776 116.339C136.554 115.679 137.845 115.807 138.468 116.613C138.77 116.97 138.916 117.575 139.118 118.124C139.988 120.935 140.226 123.957 139.832 126.86C139.228 131.594 136.307 135.651 132.131 137.949C130.968 138.673 130.208 139.927 129.979 141.246C129.823 142.455 129.906 143.664 129.714 144.872C129.173 148.242 128.395 151.878 126.49 154.744C123.899 157.674 119.714 155.128 121.655 151.585L121.664 151.566ZM120.694 150.944C119.512 152.702 119.915 155.357 121.719 156.548C123.496 157.784 126.032 157.024 127.36 155.495C128.248 154.515 128.606 153.288 129.082 152.106C129.942 149.817 130.529 147.418 130.812 144.973C131.096 142.849 130.519 140.092 132.68 138.801C136.984 136.42 140.171 131.906 140.711 126.961C141.078 123.316 140.867 119.333 139.072 116.091C137.232 113.875 133.596 115.798 134.429 118.573C135.547 122.117 136.206 126.421 133.743 129.543C132.506 131.008 128.953 134.415 127.781 131.21C127.452 130.395 127.049 129.507 126.655 128.728C126.06 127.666 125.675 126.32 124.457 125.807C122.113 124.745 119.696 127.291 120.831 129.589C123.478 136.292 124.668 144.543 120.685 150.934L120.694 150.944Z" fill="black"/>
<path d="M144.274 156.703C144.274 156.703 148.981 164.533 150.803 176.702C151.526 181.537 152.909 186.263 155.07 190.649C157.011 194.596 159.649 198.515 162.89 199.943C163.934 200.401 164.282 201.692 163.577 202.581C162.057 204.504 157.744 206.5 145.501 202.947C145.501 202.947 132.461 199.586 128.972 192.819C128.972 192.819 130.401 168.434 144.265 156.694L144.274 156.703Z" fill="url(#paint3_linear_1026_2803)"/>
<path d="M144.246 156.84C144.246 156.84 144.209 156.868 144.2 156.868C144.2 156.868 144.219 156.914 144.228 156.932L144.31 157.088C146.81 161.968 148.495 167.243 149.603 172.609C150.546 178.167 151.315 183.845 153.65 189.064C155.592 193.396 157.899 198.093 162.267 200.465C162.817 200.666 163.366 201.152 163.156 201.802C162.386 203.221 160.637 203.707 159.099 203.972C153.66 204.604 148.129 202.919 142.964 201.271C138.028 199.613 132.021 196.665 129.292 192.846C130.483 179.861 134.411 165.942 144.237 156.849L144.246 156.84ZM144.292 156.566C133.944 165.494 130.025 179.742 128.633 192.901C132.351 201.454 150.702 206.6 159.346 205.492C161.333 205.163 163.815 204.284 164.593 202.205C164.941 201.051 164.291 199.769 163.211 199.293C156.59 195.85 152.881 184.953 151.517 177.966C150.381 170.787 148.294 163.635 144.75 157.243L144.576 156.932L144.484 156.776L144.429 156.685C144.393 156.63 144.338 156.584 144.292 156.556V156.566Z" fill="black"/>
<path d="M84.8894 175.686C84.8619 175.064 84.9443 174.45 85.1183 173.846C86.2629 169.89 91.7572 155.156 111.161 149.039C111.161 149.039 126.435 144.433 141.499 154.643C143.358 155.907 144.96 157.528 146.197 159.405C147.195 160.925 148.339 162.72 148.742 163.617C150.134 166.694 150.72 167.06 153.193 168.443C155.665 169.835 158.394 178.809 157.735 183.955C157.735 183.955 157.048 199.559 142.369 211.72C142.369 211.72 141.847 212.782 142.003 215.044C142.14 216.976 141.81 218.917 140.94 220.657L140.895 220.74C138.816 224.833 133.981 226.701 129.695 225.044C128.331 224.512 127.223 223.441 126.738 222.058C125.996 219.916 124.229 216.857 120.199 216.848C120.199 216.848 106.464 216.985 101.244 211.83C98.909 209.531 96.1344 207.727 92.966 206.894L92.7004 206.821C86.8856 208.167 86.0248 206.088 85.7959 200.127L84.8802 175.686H84.8894Z" fill="url(#paint4_linear_1026_2803)"/>
<path d="M85.2187 175.677C85.6307 171.428 88.2863 167.481 90.6855 164.056C95.8318 157.005 103.478 152.015 111.765 149.451C120.776 147.308 130.629 148.773 138.697 153.333C141.022 154.707 143.394 156.19 145.024 158.388C146.288 160.11 147.524 162.033 148.458 163.947C148.925 164.954 149.392 166.007 150.207 166.895C151.04 167.774 152.084 168.305 153 168.873C153.742 169.395 154.3 170.384 154.758 171.327C156.489 175.192 157.478 179.743 157.047 183.946C156.013 193.185 151.315 201.894 145.042 208.67C144.108 209.677 143.074 210.584 142.085 211.555C141.517 212.992 141.682 214.467 141.755 215.804C141.929 219.833 139.475 223.944 135.501 225.116C133.019 225.895 129.842 225.602 127.937 223.715C126.939 222.726 126.792 221.289 126.096 220.107C125.419 218.89 124.457 217.736 123.129 217.086C120.565 215.895 117.626 216.399 114.915 215.877C110.941 215.318 106.848 214.796 103.295 212.873C102.745 212.644 102.141 212.104 101.665 211.747C99.1284 209.421 96.1706 207.379 92.7642 206.582C90.7496 206.939 87.8376 207.635 86.8303 205.255C85.9787 203.167 86.0978 200.813 85.9604 198.57L85.8047 193.991L85.2187 175.677ZM84.5502 175.704L85.3286 194.01L85.5117 198.588C85.7773 201.335 85.1088 205.731 88.094 207.159C89.4035 207.754 91.7844 207.342 92.636 207.077C95.9417 207.883 98.8537 209.806 101.198 212.251C102.718 213.725 104.641 214.741 106.619 215.474C110.566 216.939 114.751 217.406 118.917 217.397C120.291 217.369 121.536 217.26 122.791 217.8C123.981 218.276 124.988 219.21 125.693 220.346C126.463 221.481 126.673 222.974 127.717 223.926C132.058 227.864 139.64 225.217 141.535 219.906C142.396 217.983 142.314 215.804 142.295 213.762C142.332 213.111 142.442 212.415 142.671 211.884L142.588 211.994C149.099 206.921 154.291 200.081 156.745 192.141C158.339 187.352 159.08 182.206 157.862 177.27C156.993 174.047 156.205 170.357 153.467 168.113C152.496 167.554 151.507 167.087 150.811 166.346C150.115 165.604 149.639 164.615 149.172 163.635C148.138 161.602 146.938 159.798 145.574 157.976C143.147 154.863 139.557 152.931 136.087 151.191C128.45 147.729 119.759 146.585 111.509 148.398C102.901 150.907 94.8886 155.952 89.724 163.37C87.8193 166.144 86.2901 169.166 85.2187 172.353C84.8524 173.424 84.4861 174.56 84.5685 175.714L84.5502 175.704Z" fill="black"/>
<path d="M85.0356 174.661C85.0356 174.661 81.0522 201.546 54.936 227.69C53.9195 228.706 54.0752 230.409 55.2839 231.197C58.5897 233.367 65.9063 236.307 78.4149 232.314C78.4149 232.314 86.052 229.604 92.2423 224.329C93.7715 223.02 94.9161 221.326 95.5297 219.403C96.6102 216.014 97.7915 209.788 96.4454 200.575" fill="url(#paint5_linear_1026_2803)"/>
<path d="M84.6239 174.606C81.0984 190.457 72.8753 205.053 62.7658 217.635C61.9142 218.642 59.6524 221.289 58.8191 222.26C57.5187 223.697 55.0555 226.087 53.8376 227.607C53.05 228.834 53.2423 230.556 54.2954 231.572C55.4401 232.543 56.8319 233.138 58.1964 233.706C64.8903 236.243 72.2343 235.254 78.8824 233.083C84.0654 230.995 88.9003 228.276 93.076 224.521C97.2059 220.474 97.3616 214.119 97.4165 208.725C97.3616 205.978 97.0594 203.249 96.5649 200.557C96.5557 200.493 96.4916 200.447 96.4275 200.456C96.3634 200.465 96.3268 200.53 96.3268 200.594C96.6107 203.304 96.7663 206.015 96.6839 208.716C96.6015 211.417 96.2719 214.11 95.6766 216.719C95.1089 219.293 94.1565 221.765 92.1328 223.496C85.97 228.505 78.4795 232.25 70.5036 233.12C65.9525 233.651 61.1999 233.294 57.0975 231.179C56.3008 230.712 55.0646 230.29 55.202 229.155C55.2203 228.679 55.6324 228.294 55.9346 227.974L58.7641 224.979C68.0953 214.989 75.7415 203.194 80.842 190.512C82.8383 185.402 84.5598 180.182 85.4481 174.725C85.4847 174.496 85.329 174.285 85.1093 174.249C84.8803 174.212 84.6697 174.377 84.6331 174.606H84.6239Z" fill="black"/>
<path d="M144.612 209.046C142.817 211.372 139.969 212.882 137.03 213.075C136.883 213.084 136.892 213.322 137.048 213.313C139.356 213.267 141.627 212.461 143.449 211.051C144.063 210.575 144.63 210.071 145.143 209.439C145.262 209.293 145.244 209.091 145.097 208.972C144.942 208.844 144.713 208.881 144.603 209.046H144.612Z" fill="black"/>
<path d="M126.865 180.429C129.127 185.246 127.707 191.876 122.891 194.137C118.074 196.399 111.673 193.432 109.411 188.616C107.149 183.799 108.551 177.142 113.376 174.88C118.193 172.618 124.603 175.613 126.865 180.429Z" fill="white"/>
<path d="M126.252 180.722C130.089 188.433 123.954 197.892 115.172 193.671C110.328 191.592 107.764 185.969 109.238 180.96C111.564 172.051 122.699 173.635 126.252 180.722ZM127.488 180.145C124.695 173.626 114.577 170.677 109.989 176.922C105.712 182.682 108.212 191.674 114.925 194.247C124.32 198.158 131.114 188.762 127.497 180.136L127.488 180.145Z" fill="black"/>
<path d="M119.756 180.589C118.897 178.758 119.051 176.874 120.1 176.383C121.148 175.891 122.694 176.977 123.553 178.809C124.412 180.641 124.258 182.524 123.209 183.016C122.161 183.507 120.615 182.421 119.756 180.589Z" fill="#429195"/>
<path d="M149.017 170.045C151.278 174.862 151.013 180.631 148.046 182.014C145.079 183.406 140.537 179.898 138.284 175.082C136.023 170.265 136.416 164.771 139.383 163.379C142.35 161.987 146.764 165.219 149.026 170.045H149.017Z" fill="white"/>
<path d="M148.687 170.201C150.116 173.296 151.581 179.614 148.055 181.721C146.142 182.636 143.99 181.382 142.515 180.109C138.743 176.73 136.417 171.08 137.854 166.098C140.336 159.881 147.185 166.483 148.687 170.201ZM149.356 169.89C147.662 166.263 143.559 161.108 139.008 162.967C136.783 164.139 136.197 166.831 136.252 169.102C136.554 174.551 139.759 180.237 144.933 182.334C147.332 183.241 149.603 181.95 150.299 179.541C151.416 176.382 150.674 172.875 149.347 169.899L149.356 169.89Z" fill="black"/>
<path d="M142.873 169.744C142.015 167.912 142.168 166.029 143.217 165.537C144.266 165.045 145.812 166.132 146.671 167.963C147.529 169.795 147.376 171.678 146.327 172.17C145.278 172.662 143.732 171.575 142.873 169.744Z" fill="#429195"/>
<path d="M134.97 156.374C135.647 156.566 136.252 156.41 136.893 156.374C138.843 156.255 140.766 156.657 142.607 157.317C142.964 157.445 143.22 156.914 142.891 156.712C141.114 155.586 138.944 154.972 136.819 155.073C136.105 155.11 135.354 155.137 134.741 155.733C134.512 155.943 134.667 156.328 134.96 156.355L134.97 156.374Z" fill="black"/>
<path d="M107.855 167.096C106.491 167.518 106.07 168.836 105.337 169.871C103.423 173.058 102.334 176.748 102.269 180.466C102.269 180.649 102.407 180.805 102.59 180.805C102.764 180.805 102.901 180.686 102.929 180.521C103.515 177.023 104.687 173.625 106.555 170.613C107.114 169.523 108.121 168.845 108.322 167.554C108.386 167.28 108.121 167.014 107.846 167.087L107.855 167.096Z" fill="black"/>
<path d="M136.014 186.272C137.231 185.118 139.365 183.305 141.059 182.994C142.002 182.82 142.909 183.433 143.12 184.367C143.312 185.228 143.413 186.638 142.451 187.783C141.984 188.341 141.334 188.699 140.638 188.891C139.603 189.175 137.9 189.349 136.178 188.204C135.51 187.764 135.428 186.812 136.004 186.263L136.014 186.272Z" fill="black"/>
<path d="M140.721 188.195C141.343 189.11 141.27 190.292 141.71 191.271C141.82 191.564 141.893 191.683 141.948 192.169C141.948 192.407 142.113 192.636 142.369 192.608C142.973 192.462 143.285 191.748 143.193 191.125C142.946 189.861 141.655 189.138 141.325 187.911C141.169 187.425 140.455 187.764 140.721 188.195Z" fill="black"/>
<path d="M92.1509 164.862C88.8269 164.441 81.4828 162.151 75.3933 150.65C74.7615 149.45 73.2872 148.974 72.0601 149.542C70.833 150.119 70.2653 151.538 70.7689 152.793C71.3184 154.185 72.0784 155.943 72.8385 157.28C73.4062 158.278 72.9484 159.56 71.877 159.981C67.976 161.538 59.7346 163.589 54.8263 156.007C54.1945 155.036 52.9491 154.67 51.9052 155.164C50.7148 155.723 50.2203 157.161 50.8338 158.324C52.9949 162.426 59.3683 170.365 74.8897 165.311C76.3823 164.825 78.0214 165.137 79.2302 166.144C81.1349 167.728 84.5963 170.036 89.9257 171.556C91.3543 171.959 92.9201 171.721 94.0739 170.777C94.834 170.155 95.4383 169.248 95.301 167.948C95.127 166.318 93.7809 165.054 92.1601 164.853L92.1509 164.862Z" fill="url(#paint6_linear_1026_2803)"/>
<path d="M92.2146 164.386C84.6234 163.379 79.0558 157.005 75.5944 150.577C74.0102 147.647 69.5324 149.515 70.503 152.711C71.1165 154.505 72.0506 156.181 72.7923 157.884C73.122 159.981 70.3657 160.155 68.928 160.641C63.6809 162.051 58.1134 160.586 55.2014 155.778C53.4432 153.068 49.2401 155.018 50.1741 158.122C52.9396 164.386 59.4595 167.866 66.1717 167.6C68.7723 167.545 71.3546 167.124 73.8179 166.364C75.4753 165.796 77.1694 165.43 78.6254 166.575C81.8579 169.23 85.768 171.071 89.7972 172.16C92.178 172.865 95.2915 171.62 95.8043 168.992C96.2346 166.767 94.4124 164.578 92.2238 164.377L92.2146 164.386ZM92.0956 165.347C93.7439 165.54 95.0717 167.161 94.7329 168.8C94.2933 170.732 91.885 171.556 90.1177 170.997C86.8669 170.027 83.6893 168.598 80.9513 166.611C79.8983 165.842 78.8635 164.78 77.4991 164.532C76.1621 164.148 74.642 164.642 73.4333 165.009C71.0524 165.732 68.5983 166.153 66.1442 166.245C61.2451 166.483 56.2911 164.642 53.1502 160.796C52.4085 159.899 51.6484 158.846 51.1814 157.802C50.8334 156.868 51.4561 155.714 52.4634 155.494C53.196 155.302 54.0293 155.632 54.4505 156.273L55.0366 157.06C58.1408 161.501 64.0838 162.655 69.0745 161.199C70.3107 160.806 71.6751 160.604 72.7099 159.762C73.5157 159.011 73.4974 157.683 72.8839 156.85L72.4535 156.016C71.9041 154.899 71.3821 153.718 70.9334 152.573C70.0726 149.863 73.8912 148.251 75.2373 150.769C78.7719 157.427 84.2204 164.111 92.1048 165.347H92.0956Z" fill="black"/>
<path d="M121.967 178.232C121.739 178.232 121.555 178.047 121.555 177.82C121.555 177.592 121.739 177.407 121.967 177.407C122.195 177.407 122.379 177.592 122.379 177.82C122.379 178.047 122.195 178.232 121.967 178.232Z" fill="white"/>
<path d="M145.236 167.317C145.008 167.317 144.824 167.132 144.824 166.905C144.824 166.677 145.008 166.492 145.236 166.492C145.463 166.492 145.648 166.677 145.648 166.905C145.648 167.132 145.463 167.317 145.236 167.317Z" fill="white"/>
<path d="M141.801 184.303C141.573 184.303 141.389 184.118 141.389 183.891C141.389 183.663 141.573 183.479 141.801 183.479C142.028 183.479 142.213 183.663 142.213 183.891C142.213 184.118 142.028 184.303 141.801 184.303Z" fill="white"/>
<path d="M142.781 200.539C141.496 200.539 140.455 198.452 140.455 195.878C140.455 193.303 141.496 191.217 142.781 191.217C144.065 191.217 145.107 193.303 145.107 195.878C145.107 198.452 144.065 200.539 142.781 200.539Z" fill="#020202" stroke="black" stroke-width="1.44" stroke-miterlimit="10" stroke-linecap="round"/>
<path d="M151.132 250.848C151.132 250.848 148.98 246.663 148.083 245.372L151.132 250.848Z" fill="#D1744E"/>
<path d="M151.425 250.702C151.169 250.372 147.9 243.989 147.945 245.464C149.026 247.231 149.914 249.145 150.83 251.004C151.013 251.407 151.645 251.086 151.425 250.702Z" fill="black"/>
<path d="M127.543 235.968C127.543 235.968 126.353 238.651 125.437 239.732C125.437 239.732 120.401 244.668 120.355 249.521C120.355 249.521 121.023 254.658 109.238 271.617C108.496 272.679 108.625 274.126 109.54 275.033C112.471 277.936 118.652 284.666 122.067 292.825C122.241 293.246 122.159 293.722 121.866 294.061C121.61 294.354 121.225 294.721 120.703 295.124C121.957 295.252 123.194 295.526 123.34 296.094C123.34 296.094 124.723 298.933 124.961 301.827C125.401 301.158 125.822 300.398 126.188 299.546C126.444 298.96 126.564 298.319 126.554 297.678C126.499 294.684 125.703 285.298 118.295 275.271C117.745 274.529 117.608 273.568 117.947 272.707C119.192 269.529 122.745 261.645 129.265 255.491" fill="url(#paint7_linear_1026_2803)"/>
<path d="M127.113 235.775C126.582 237.039 125.996 238.421 125.172 239.502C123.972 240.784 122.708 242.423 121.774 244.044C120.85 245.701 120.099 247.524 120.016 249.511C120.016 250.481 119.705 251.626 119.339 252.652C117.406 257.826 114.366 262.514 111.409 267.157C110.813 268.091 110.181 269.006 109.559 269.922L108.616 271.323C107.837 272.495 107.929 274.153 108.826 275.242C111.555 278.026 114.147 280.902 116.399 284.079C118.395 286.881 120.181 289.839 121.573 292.98C121.893 293.767 120.923 294.244 120.41 294.738L119.494 295.461C120.254 295.516 121.289 295.645 122.013 295.809C122.287 295.864 122.837 296.084 122.855 296.185C123.89 298.328 124.448 300.736 124.613 303.108C125.511 301.807 126.463 300.599 126.957 299.06C127.543 295.718 126.71 292.302 125.959 289.061C124.622 283.96 122.196 279.18 119.091 274.931C118.542 274.272 118.478 273.448 118.862 272.688C121.372 266.47 124.833 260.609 129.439 255.683C129.659 255.463 129.32 255.088 129.082 255.307C125.712 258.137 122.956 261.653 120.657 265.408C119.522 267.303 118.496 269.263 117.626 271.287L117.306 272.047C116.674 273.301 116.83 274.84 117.718 275.929C121.93 281.744 124.925 288.557 125.776 295.718C125.868 296.707 126.069 297.797 125.849 298.758C125.602 299.683 125.062 300.699 124.567 301.56L125.428 301.78C125.282 299.866 124.485 297.357 123.789 295.965C123.295 294.784 121.784 294.83 120.749 294.646L120.987 295.489H120.996C121.857 294.857 123.111 293.804 122.525 292.577C121.188 289.317 119.458 286.222 117.434 283.347C115.502 280.581 113.359 277.962 111.006 275.535C110.74 275.233 110.108 274.656 109.879 274.382C109.348 273.741 109.293 272.752 109.751 272.056C113.222 266.983 116.619 261.8 118.963 256.086C119.787 253.915 120.657 251.873 120.694 249.465C120.694 247.908 121.39 245.839 122.287 244.346C123.469 241.993 125.685 240.354 126.93 238.092C127.296 237.451 127.626 236.81 127.965 236.16C128.084 235.931 127.992 235.647 127.763 235.528C127.516 235.4 127.205 235.528 127.113 235.784V235.775Z" fill="black"/>
<path d="M125.739 230.271C125.739 230.271 128.331 225.912 125.923 223.651C125.428 223.184 124.989 222.662 124.714 222.039C124.714 222.021 124.696 222.002 124.686 221.984C124.036 220.446 125.126 218.724 126.793 218.614C127.562 218.559 128.624 218.651 129.998 219.1C132.049 219.777 134.283 219.713 136.224 218.761C136.975 218.394 137.772 217.891 138.605 217.204C139.182 216.728 139.832 216.352 140.528 216.096C141.801 215.629 143.422 215.528 143.413 218.01C143.413 218.01 143.779 220.208 142.735 222.772C142.021 224.539 142.177 226.563 143.303 228.101C143.578 228.476 143.898 228.87 144.283 229.291C144.283 229.291 146.48 231.59 140.08 234.978C140.08 234.978 136.801 236.974 132.745 236.929C130.62 236.901 128.542 236.168 126.967 234.731C125.794 233.65 124.833 232.112 125.721 230.262L125.739 230.271Z" fill="url(#paint8_linear_1026_2803)"/>
<path d="M126.225 230.537C127.186 228.678 128.02 226.187 126.884 224.164C126.536 223.523 125.923 223.138 125.51 222.57C124.695 221.609 124.677 220.235 125.666 219.429C128.01 217.955 130.867 220.299 133.477 219.796C134.897 219.686 136.27 219.155 137.442 218.385C138.99 217.223 143.101 214.118 143.12 218.019C143.303 219.558 143.028 221.206 142.424 222.653C141.444 224.841 142.003 227.524 143.687 229.237C145.052 230.528 143.422 232.24 142.231 233.074C138.092 236.095 131.499 238.064 127.287 234.209C126.225 233.266 125.575 231.865 126.225 230.537ZM125.254 230.015C124.302 231.727 125.098 233.87 126.454 235.07C128.972 237.551 132.845 237.991 136.105 237.121C138.999 236.498 147.653 232.433 144.319 228.678C142.79 227.186 142.231 224.933 143.056 222.918C143.66 221.426 143.907 219.448 143.706 218.028C143.761 214.713 140.711 215.29 138.788 216.737C137.232 218.038 135.464 219.127 133.422 219.255C131.353 219.548 129.448 218.358 127.379 218.285C123.945 218.074 123.084 221.865 125.538 223.926C127.223 225.592 126.261 228.193 125.245 230.033L125.254 230.015Z" fill="black"/>
<path d="M142.515 222.534C140.006 223.907 137.204 225.125 134.988 226.975C134.237 227.634 133.587 228.403 133.019 229.218C132.955 229.301 132.983 229.429 133.065 229.484C133.147 229.539 133.248 229.521 133.312 229.457C134.649 228.092 136.16 226.92 137.918 226.169C139.713 225.263 141.59 224.612 142.973 223.019C143.22 222.726 142.827 222.314 142.524 222.534H142.515Z" fill="black"/>
<path d="M130.694 230.784C133.093 235.051 140.913 230.711 143.184 228.083C143.321 227.918 143.074 227.698 142.928 227.854C141.288 229.355 139.136 230.189 137.076 230.967C135.19 231.727 132.791 231.91 131.28 230.473C131.051 230.134 130.52 230.409 130.694 230.784Z" fill="black"/>
<path d="M126.042 230.317C128.001 227.478 129.64 223.907 133.221 222.845C133.395 222.799 133.34 222.515 133.157 222.543C131.27 222.799 129.65 223.989 128.377 225.336C127.168 226.746 125.895 228.193 125.437 230.042C125.355 230.39 125.84 230.601 126.042 230.317Z" fill="black"/>
</g>
<g clip-path="url(#clip0_1026_2803)">
<path d="M153.581 114.609V98.6428C153.581 92.0684 158.893 86.7561 165.467 86.7561H235.613C242.188 86.7561 247.5 92.0684 247.5 98.6428V133.54C247.5 140.114 242.188 145.426 235.613 145.426H165.467C158.893 145.426 153.581 140.114 153.581 133.54V128.345" stroke="#201A18" stroke-width="5" stroke-miterlimit="10" stroke-linecap="round"/>
<path d="M199.249 107.741C198.691 106.92 198.046 106.156 197.312 105.481C194.025 102.341 189.27 100.697 184.163 101.695C179.643 102.605 175.769 105.775 173.861 109.972C169.195 120.215 177.266 130.752 187.186 130.752C194.465 130.752 200.511 125.469 201.656 118.513C201.891 117.104 203.064 116.077 204.473 116.077H228.687" stroke="#201A18" stroke-width="5" stroke-miterlimit="10" stroke-linecap="round"/>
<path d="M199.132 110.911C201.158 110.911 202.8 109.268 202.8 107.242C202.8 105.216 201.158 103.573 199.132 103.573C197.105 103.573 195.463 105.216 195.463 107.242C195.463 109.268 197.105 110.911 199.132 110.911Z" fill="#201A18"/>
<path d="M153.669 129.079C155.695 129.079 157.337 127.436 157.337 125.41C157.337 123.384 155.695 121.741 153.669 121.741C151.643 121.741 150 123.384 150 125.41C150 127.436 151.643 129.079 153.669 129.079Z" fill="#201A18"/>
<path d="M218.884 116.517V123.532" stroke="#201A18" stroke-width="5" stroke-miterlimit="10" stroke-linecap="round"/>
<path d="M171.513 86.0812C171.513 68.0311 184.603 53.2095 200.54 53.2095C216.477 53.2095 229.596 68.0311 229.596 86.0812" stroke="#201A18" stroke-width="5" stroke-miterlimit="10" stroke-linecap="round"/>
</g>
<defs>
<linearGradient id="paint0_linear_1026_2803" x1="167.006" y1="302.888" x2="141.544" y2="192.071" gradientUnits="userSpaceOnUse">
<stop stop-color="#643C3B"/>
<stop offset="0.03" stop-color="#72453D"/>
<stop offset="0.12" stop-color="#996044"/>
<stop offset="0.22" stop-color="#B87449"/>
<stop offset="0.3" stop-color="#CF834D"/>
<stop offset="0.39" stop-color="#DC8C50"/>
<stop offset="0.47" stop-color="#E19051"/>
</linearGradient>
<linearGradient id="paint1_linear_1026_2803" x1="112.25" y1="248.951" x2="114.734" y2="217.457" gradientUnits="userSpaceOnUse">
<stop stop-color="#487E50"/>
<stop offset="0.07" stop-color="#518A58"/>
<stop offset="0.21" stop-color="#61A167"/>
<stop offset="0.34" stop-color="#6AAE6F"/>
<stop offset="0.47" stop-color="#6EB373"/>
</linearGradient>
<linearGradient id="paint2_linear_1026_2803" x1="136.761" y1="150.176" x2="122.949" y2="120.718" gradientUnits="userSpaceOnUse">
<stop offset="0.56" stop-color="#F9E9B3"/>
<stop offset="0.61" stop-color="#F3D9A5"/>
<stop offset="0.79" stop-color="#E1A276"/>
<stop offset="0.93" stop-color="#D58059"/>
<stop offset="1" stop-color="#D1744E"/>
</linearGradient>
<linearGradient id="paint3_linear_1026_2803" x1="143.957" y1="204.866" x2="153.217" y2="168.907" gradientUnits="userSpaceOnUse">
<stop stop-color="#643C3B"/>
<stop offset="0.03" stop-color="#72453D"/>
<stop offset="0.12" stop-color="#996044"/>
<stop offset="0.22" stop-color="#B87449"/>
<stop offset="0.3" stop-color="#CF834D"/>
<stop offset="0.39" stop-color="#DC8C50"/>
<stop offset="0.47" stop-color="#E19051"/>
</linearGradient>
<linearGradient id="paint4_linear_1026_2803" x1="135.477" y1="219.248" x2="103.228" y2="150.466" gradientUnits="userSpaceOnUse">
<stop stop-color="#643C3B"/>
<stop offset="0.02" stop-color="#7C4C3F"/>
<stop offset="0.05" stop-color="#9B6144"/>
<stop offset="0.08" stop-color="#B47249"/>
<stop offset="0.11" stop-color="#C87F4C"/>
<stop offset="0.15" stop-color="#D6884F"/>
<stop offset="0.2" stop-color="#DE8E50"/>
<stop offset="0.28" stop-color="#E19051"/>
</linearGradient>
<linearGradient id="paint5_linear_1026_2803" x1="83.0122" y1="237.703" x2="67.0882" y2="191.034" gradientUnits="userSpaceOnUse">
<stop stop-color="#643C3B"/>
<stop offset="0.06" stop-color="#835140"/>
<stop offset="0.15" stop-color="#A56746"/>
<stop offset="0.23" stop-color="#BF794B"/>
<stop offset="0.32" stop-color="#D2864E"/>
<stop offset="0.41" stop-color="#DD8D50"/>
<stop offset="0.51" stop-color="#E19051"/>
</linearGradient>
<linearGradient id="paint6_linear_1026_2803" x1="81.2883" y1="180.443" x2="65.8516" y2="147.519" gradientUnits="userSpaceOnUse">
<stop offset="0.56" stop-color="#F9E9B3"/>
<stop offset="0.61" stop-color="#F3D9A5"/>
<stop offset="0.79" stop-color="#E1A276"/>
<stop offset="0.93" stop-color="#D58059"/>
<stop offset="1" stop-color="#D1744E"/>
</linearGradient>
<linearGradient id="paint7_linear_1026_2803" x1="128.918" y1="297.291" x2="122.172" y2="270.708" gradientUnits="userSpaceOnUse">
<stop stop-color="#643C3B"/>
<stop offset="0.03" stop-color="#72453D"/>
<stop offset="0.12" stop-color="#996044"/>
<stop offset="0.22" stop-color="#B87449"/>
<stop offset="0.3" stop-color="#CF834D"/>
<stop offset="0.39" stop-color="#DC8C50"/>
<stop offset="0.47" stop-color="#E19051"/>
</linearGradient>
<linearGradient id="paint8_linear_1026_2803" x1="136.752" y1="236.969" x2="132.931" y2="216.918" gradientUnits="userSpaceOnUse">
<stop stop-color="#487E50"/>
<stop offset="0.07" stop-color="#518A58"/>
<stop offset="0.21" stop-color="#61A167"/>
<stop offset="0.34" stop-color="#6AAE6F"/>
<stop offset="0.47" stop-color="#6EB373"/>
</linearGradient>
<clipPath id="clip0_1026_2803">
<rect width="99.9999" height="99.9999" fill="white" transform="translate(150 50.5002)"/>
</clipPath>
</defs>
</svg>
