<svg width="300" height="301" viewBox="0 0 300 301" fill="none" xmlns="http://www.w3.org/2000/svg">
<circle cx="150" cy="150.5" r="150" fill="#C4DDD1" fill-opacity="0.15"/>
<mask id="mask0_1074_3049" style="mask-type:alpha" maskUnits="userSpaceOnUse" x="0" y="0" width="300" height="301">
<rect y="0.5" width="300" height="300" fill="#D9D9D9"/>
</mask>
<g mask="url(#mask0_1074_3049)">
<path d="M150.865 219.483C146.205 218.633 133.185 217.193 128.105 226.493C127.655 227.323 127.355 228.233 127.155 229.163C126.355 232.923 123.045 245.363 113.985 249.323C112.985 249.763 113.055 251.223 114.105 251.513C117.285 252.373 122.685 252.493 128.705 246.803C129.815 245.753 130.465 244.293 130.525 242.753C130.575 241.433 130.685 239.763 130.935 238.453C131.085 237.643 132.215 237.513 132.555 238.263C132.935 239.123 133.315 240.233 133.425 241.433C133.475 241.963 133.965 242.333 134.475 242.213C135.825 241.893 138.105 240.643 138.655 235.893C138.795 234.643 139.125 233.423 139.685 232.303C140.695 230.313 142.695 227.703 146.585 226.343C147.645 225.973 148.755 225.743 149.875 225.633C151.425 225.483 155.055 224.823 153.975 221.993C153.475 220.673 152.255 219.743 150.865 219.483Z" fill="url(#paint0_linear_1074_3049)"/>
<path d="M150.785 219.923C143.155 218.283 133.055 218.913 128.735 226.373C127.685 227.973 127.605 229.933 127.065 231.743C126.405 234.253 125.525 236.713 124.415 239.073C122.455 243.203 119.555 247.193 115.465 249.443C114.915 249.763 114.065 250.123 114.135 250.193C114.025 250.363 114.085 250.643 114.245 250.683C119.535 252.223 125.115 249.423 128.675 245.513C130.395 243.283 129.245 240.213 130.325 237.693C130.935 236.673 132.535 236.643 133.185 237.663C133.815 238.833 134.085 240.123 134.265 241.413C135.495 241.153 136.415 240.223 137.005 239.033C138.105 236.783 137.795 233.883 139.195 231.673C140.495 229.283 142.615 227.363 145.075 226.273C146.845 225.413 148.915 225.143 150.815 224.923C151.835 224.713 153.185 224.373 153.575 223.373C153.975 221.773 152.345 220.163 150.785 219.903V219.923ZM150.945 219.033C153.035 219.373 155.135 221.423 154.545 223.713C153.995 225.243 152.395 225.703 151.025 226.023C149.115 226.303 147.315 226.533 145.595 227.403C142.305 228.963 139.795 232.113 139.405 235.763C139.195 238.753 137.575 242.993 133.955 243.023C133.075 242.893 132.555 241.983 132.555 241.223C132.445 240.503 132.245 239.783 131.975 239.103L131.805 238.693C131.765 238.593 131.755 238.603 131.775 238.613C131.795 238.623 131.775 238.613 131.765 238.623C131.765 238.623 131.765 238.623 131.775 238.613C131.205 241.183 131.895 244.273 130.075 246.563C129.715 247.093 129.075 247.633 128.605 248.063C124.915 251.433 119.685 253.623 114.625 252.473L114.125 252.353C113.355 252.223 112.665 251.623 112.515 250.853C112.295 249.933 112.825 248.933 113.705 248.573C113.815 248.513 114.585 248.133 114.725 248.063C120.875 244.743 124.075 237.903 126.045 231.453C126.635 229.603 126.815 227.543 127.945 225.903C132.615 218.113 142.935 217.873 150.955 219.033H150.945Z" fill="black"/>
<path d="M144.935 223.233C139.705 224.203 133.675 226.613 131.705 231.973C131.365 232.883 129.965 232.363 130.305 231.453C131.435 228.573 133.785 226.393 136.455 224.983C139.075 223.613 141.895 222.783 144.825 222.383C145.065 222.353 145.275 222.523 145.305 222.753C145.335 222.993 145.165 223.203 144.925 223.233H144.935Z" fill="black"/>
<path d="M128.505 240.573C127.285 244.883 123.715 248.113 119.505 249.363C119.275 249.433 119.035 249.313 118.965 249.093C118.895 248.883 119.005 248.653 119.205 248.563C120.135 248.173 121.055 247.743 121.875 247.173C124.275 245.603 126.165 242.963 126.725 240.163C126.985 238.943 128.815 239.353 128.505 240.573Z" fill="black"/>
<path d="M174.785 289.113C177.845 287.913 179.435 284.523 178.415 281.403C175.235 271.713 171.895 262.123 169.715 257.483C168.965 255.883 168.435 254.203 168.115 252.493C166.875 245.843 163.695 229.953 161.345 228.103L150.165 228.153L138.985 228.103C136.625 229.953 133.455 245.833 132.215 252.493C131.895 254.203 131.365 255.883 130.615 257.483C128.265 262.473 124.935 271.993 121.815 281.473C120.795 284.573 122.355 287.923 125.365 289.153L128.995 290.633C142.195 296.013 156.955 296.113 170.225 290.903L174.775 289.113H174.785Z" fill="url(#paint1_linear_1074_3049)"/>
<path d="M174.575 288.593C177.665 287.423 178.975 283.733 177.625 280.763L176.985 278.813C174.835 272.393 172.665 265.803 170.085 259.573C167.495 254.633 167.105 249.043 165.855 243.703C164.985 239.723 164.075 235.733 162.775 231.863C162.395 230.733 161.875 229.273 160.985 228.553L161.335 228.673C159.475 228.853 157.615 229.143 155.745 229.223C152.005 229.493 148.285 228.583 144.565 228.503C142.705 228.523 140.835 228.503 138.975 228.503L139.225 228.423C138.495 229.203 138.035 230.403 137.655 231.443C136.435 234.853 135.615 238.403 134.805 241.933C134.275 244.303 133.785 246.673 133.315 249.053C132.925 251.213 132.425 254.193 131.645 256.213C128.635 262.903 126.325 269.743 124.065 276.693L122.945 280.163C122.615 281.273 122.155 282.313 122.235 283.473C122.285 285.633 123.775 287.623 125.755 288.243L129.205 289.443C144.345 294.613 159.755 294.073 174.575 288.583V288.593ZM174.965 289.583C161.955 296.843 145.715 298.803 131.735 293.123C129.685 292.393 127.005 290.983 125.015 290.093C122.425 288.953 120.735 286.233 120.775 283.513C120.815 281.303 122.245 278.423 122.865 276.313C125.285 269.443 127.775 262.533 130.785 255.913C131.555 253.973 132.065 250.983 132.455 248.903C133.875 242.363 135.005 235.663 137.615 229.453C137.905 228.863 138.255 228.243 138.825 227.723C140.735 227.743 142.655 227.733 144.565 227.783C148.285 227.753 152.005 226.843 155.735 227.063C157.685 227.123 159.635 227.423 161.585 227.573C162.695 228.813 162.985 230.173 163.605 231.583C164.935 235.483 165.865 239.503 166.765 243.513C167.745 247.453 168.165 251.593 169.395 255.453C172.145 261.713 174.515 268.133 176.685 274.603L177.995 278.493C178.335 279.663 179.025 281.253 179.195 282.513C179.635 285.413 177.685 288.833 174.935 289.583H174.965Z" fill="black"/>
<path d="M219.765 167.973C218.775 167.323 217.775 166.693 216.765 166.083C202.335 157.363 196.095 145.093 196.095 145.093C180.845 113.413 154.825 112.933 150.615 113.073C150.255 113.083 149.895 113.083 149.535 113.073C145.325 112.933 119.315 113.413 104.055 145.093C104.055 145.093 97.8151 157.363 83.3851 166.083C82.3751 166.693 81.3751 167.323 80.3851 167.973C76.1551 170.743 64.7051 178.093 53.1851 183.953C52.1151 184.493 51.9451 185.953 52.8651 186.723C55.7851 189.193 63.1251 193.663 79.6551 196.193C84.9251 197.003 90.3051 197.033 95.5551 196.133C101.065 195.193 107.305 193.143 110.455 188.723C110.985 187.983 112.075 187.983 112.575 188.743C115.565 193.373 125.505 205.143 150.025 206.703H150.115C174.645 205.143 184.585 193.373 187.565 188.743C188.055 187.983 189.155 187.983 189.685 188.723C192.835 193.143 199.075 195.193 204.585 196.133C210.095 197.073 215.215 196.993 220.485 196.193C237.015 193.663 244.355 189.193 247.275 186.723C248.195 185.953 248.025 184.493 246.955 183.953C235.445 178.093 223.985 170.743 219.755 167.973H219.765Z" fill="url(#paint2_linear_1074_3049)"/>
<path d="M219.515 168.353C209.885 162.873 200.945 155.603 195.565 145.723C195.005 144.653 193.545 141.903 193.005 140.873C192.025 139.013 190.305 136.473 189.155 134.723C188.035 133.373 186.965 131.743 185.805 130.433L183.345 127.763C179.105 123.463 174.125 119.833 168.615 117.323C150.765 109.253 130.275 113.773 116.805 127.793C113.035 131.703 109.785 136.143 107.135 140.883C106.095 142.803 104.785 145.503 103.635 147.363C99.6852 153.663 94.3752 159.043 88.3452 163.363C77.0152 170.733 65.7752 178.113 53.8552 184.453C53.6452 184.583 53.4252 184.653 53.2952 184.813C52.9552 185.173 52.9852 185.823 53.3852 186.123C57.1152 189.053 61.7052 190.873 66.2352 192.283C75.4452 194.913 85.1952 196.973 94.8052 195.583C100.245 194.713 106.395 193.243 109.905 188.673C110.485 187.563 112.225 187.253 113.005 188.433C113.365 188.943 113.695 189.423 114.075 189.893C115.545 191.783 117.265 193.493 119.125 195.003C127.555 201.873 138.545 204.763 149.235 205.533L150.085 205.613L150.945 205.543C163.355 204.653 176.575 200.993 185.025 191.333C185.825 190.423 186.535 189.483 187.235 188.463C187.705 187.753 188.725 187.543 189.445 187.943C189.815 188.113 190.095 188.513 190.245 188.703C191.855 190.833 194.175 192.323 196.655 193.363C205.705 196.933 215.745 196.493 225.165 194.593C232.235 193.163 239.415 191.283 245.475 187.303C245.965 186.963 246.445 186.613 246.895 186.243C247.345 185.883 247.395 185.133 246.975 184.713C246.825 184.543 246.595 184.463 246.365 184.333C237.145 179.473 228.235 174.063 219.535 168.353H219.515ZM220.015 167.593C228.725 173.233 237.635 178.583 246.905 183.243C248.495 183.813 249.145 186.023 247.705 187.213C241.365 192.303 233.245 194.483 225.445 196.123C218.195 197.683 210.605 198.213 203.325 196.563C197.985 195.443 192.395 193.193 189.025 188.733C188.665 188.533 188.185 188.643 187.975 188.983C187.315 190.003 186.575 191.033 185.775 191.973C177.245 202.073 163.935 206.763 151.045 207.733C150.445 207.823 149.705 207.833 149.105 207.743C138.015 206.933 126.665 203.533 118.195 196.063C115.855 194.023 113.765 191.653 112.105 189.023C111.925 188.713 111.485 188.593 111.145 188.763C110.865 188.853 110.465 189.543 110.035 189.973C106.195 194.223 100.435 195.933 94.9952 196.913C85.1852 198.623 75.1252 196.813 65.6852 194.013C60.9452 192.473 56.2252 190.603 52.3452 187.343C51.2852 186.463 51.1952 184.713 52.1952 183.753C52.4752 183.353 55.9052 181.773 56.4252 181.473C62.9352 178.113 69.2852 174.453 75.4952 170.573C79.5752 167.943 83.8352 165.433 87.7252 162.533C94.3852 157.323 100.115 150.873 104.085 143.403C105.755 140.213 107.755 136.823 109.855 133.923C120.465 119.563 136.665 111.233 154.665 112.903C169.515 114.233 183.015 123.223 191.295 135.453C192.515 137.233 194.225 139.853 195.155 141.773C200.645 152.593 209.495 161.393 219.995 167.603L220.015 167.593Z" fill="black"/>
<path d="M160.925 226.763C163.625 224.273 167.365 224.793 169.305 225.313C170.435 225.613 171.625 225.713 172.795 225.613C182.435 224.853 190.725 221.143 194.065 219.453C195.025 218.973 195.665 218.023 195.765 216.953C197.105 202.293 203.765 193.403 206.065 190.733C206.565 190.153 207.195 189.683 207.895 189.363C208.875 188.913 209.815 188.583 210.715 188.343C208.655 191.083 207.645 194.663 207.645 194.663C207.325 195.273 208.195 196.483 209.205 197.583C208.435 197.523 207.805 197.553 207.345 197.603C206.815 197.663 206.375 198.023 206.195 198.523C202.795 208.383 202.965 219.153 203.265 224.003C203.365 225.533 202.335 226.893 200.845 227.253C177.185 232.933 173.755 237.973 173.755 237.973C173.755 237.973 167.155 244.893 165.335 251.663" fill="url(#paint3_linear_1074_3049)"/>
<path d="M160.555 226.353C163.005 224.213 166.525 224.133 169.485 224.983C170.895 225.353 172.325 225.353 173.815 225.163C180.825 224.453 187.565 222.003 193.785 218.773C194.575 218.353 195.015 217.493 195.035 216.613C195.505 211.333 196.835 206.103 198.895 201.233C200.745 197.043 202.965 192.953 206.205 189.643C207.985 188.223 210.275 187.833 212.385 187.243L211.245 188.753C209.895 190.513 208.795 193.033 208.185 194.953C208.445 196.163 209.825 197.333 210.625 198.303C209.635 198.243 208.285 198.013 207.355 198.183C207.055 198.243 206.815 198.443 206.725 198.753C204.125 206.303 203.515 214.413 203.955 222.343C204.075 223.783 204.295 225.453 203.255 226.663C202.465 227.893 200.615 228.223 199.305 228.573C191.835 230.643 184.215 232.723 177.365 236.413C176.315 237.033 175.205 237.683 174.405 238.593C170.805 242.423 167.445 246.763 165.645 251.763C165.585 251.923 165.415 252.003 165.255 251.953C165.105 251.903 165.025 251.743 165.055 251.593C165.975 247.553 168.135 243.923 170.545 240.613C171.965 238.773 172.965 237.253 174.705 235.963C180.785 231.793 187.985 229.703 195.015 227.793C196.295 227.453 197.575 227.153 198.855 226.853C199.705 226.573 201.395 226.493 201.945 225.643C202.735 224.783 202.425 223.493 202.435 222.413C202.285 214.313 203.135 206.123 205.665 198.403C206.095 196.873 208.005 196.933 209.245 197.023L208.765 197.993C208.155 197.313 207.525 196.623 207.145 195.743C207.025 195.423 206.845 194.993 207.105 194.403C207.545 192.693 208.835 189.773 210.185 187.973L210.885 189.003C210.195 189.193 209.515 189.433 208.845 189.713C206.745 190.423 205.695 192.373 204.445 194.083C202.805 196.513 201.405 199.113 200.275 201.833C198.275 206.573 197.125 211.663 196.565 216.773C196.515 217.213 196.455 217.653 196.285 218.063C195.535 220.123 193.135 220.653 191.345 221.483C187.155 223.193 182.785 224.443 178.345 225.263C175.355 225.673 172.315 226.443 169.295 225.693C166.575 224.973 163.355 225.123 161.295 227.183C160.785 227.693 159.965 226.873 160.545 226.363L160.555 226.353Z" fill="black"/>
<path d="M207.645 194.663C207.325 195.273 208.195 196.483 209.205 197.583C210.105 197.653 211.195 197.853 212.455 198.303C213.255 198.583 214.155 198.443 214.825 197.913L217.485 195.793C217.945 195.423 218.255 194.913 218.365 194.333L219.035 190.833C219.305 189.443 218.345 188.123 216.945 187.933C215.405 187.713 213.245 187.683 210.725 188.363C208.665 191.103 207.655 194.683 207.655 194.683L207.645 194.663Z" fill="#643C3B"/>
<path d="M208.015 194.813C207.925 195.743 208.935 196.603 209.495 197.323L209.235 197.193C210.505 197.103 211.845 197.463 213.065 197.693C213.655 197.743 214.165 197.413 214.575 197.023C215.485 196.063 216.975 195.453 217.445 194.233C217.595 193.483 217.895 191.983 218.045 191.243C218.115 190.843 218.265 190.433 218.185 190.043C218.075 189.373 217.525 188.783 216.775 188.653C214.835 188.323 212.815 188.373 210.815 188.723L211.025 188.583C209.655 190.463 208.695 192.583 208.005 194.813H208.015ZM207.285 194.523C207.995 192.233 209.025 189.963 210.475 188.013C212.525 187.273 214.755 186.933 216.985 187.173C218.685 187.273 220.155 188.983 219.915 190.743C219.755 191.913 219.425 193.503 219.215 194.663C218.795 196.443 216.895 197.243 215.635 198.333C214.885 198.973 213.875 199.333 212.895 199.143C211.535 198.753 210.395 198.153 208.995 197.923C208.255 196.973 206.905 195.853 207.295 194.513L207.285 194.523Z" fill="black"/>
<path d="M139.705 226.763C137.005 224.273 133.265 224.793 131.325 225.313C130.195 225.613 129.005 225.713 127.835 225.613C118.195 224.853 109.905 221.143 106.565 219.453C105.605 218.973 104.965 218.023 104.865 216.953C103.525 202.293 96.865 193.403 94.565 190.733C94.065 190.153 93.435 189.683 92.735 189.363C91.755 188.913 90.815 188.583 89.915 188.343C91.975 191.083 92.985 194.663 92.985 194.663C93.305 195.273 92.435 196.483 91.425 197.583C92.195 197.523 92.825 197.553 93.285 197.603C93.815 197.663 94.255 198.023 94.435 198.523C97.835 208.383 97.665 219.153 97.365 224.003C97.265 225.533 98.295 226.893 99.785 227.253C123.445 232.933 126.875 237.973 126.875 237.973C126.875 237.973 133.475 244.893 135.295 251.663" fill="url(#paint4_linear_1074_3049)"/>
<path d="M139.335 227.173C137.275 225.113 134.055 224.963 131.335 225.683C129.845 226.083 128.235 226.073 126.765 225.873C120.775 225.263 114.875 223.743 109.285 221.473C107.495 220.643 105.105 220.113 104.345 218.053C104.175 217.643 104.115 217.193 104.065 216.763C103.515 211.653 102.355 206.563 100.355 201.823C98.9451 198.433 97.1251 195.213 94.9051 192.283C93.7151 190.383 91.8451 189.543 89.7551 188.993L90.4551 187.963C91.8051 189.763 93.0851 192.673 93.5351 194.403C93.7951 194.993 93.6051 195.423 93.4951 195.743C93.1051 196.613 92.4851 197.313 91.8751 197.993L91.3951 197.023C93.0251 196.923 94.7251 196.883 95.1251 198.873C97.5351 206.453 98.3451 214.473 98.2051 222.413C98.2251 223.503 97.9051 224.793 98.6951 225.643C99.2451 226.483 100.925 226.593 101.785 226.853C103.065 227.153 104.355 227.453 105.625 227.793C112.655 229.703 119.865 231.793 125.935 235.963C127.675 237.263 128.675 238.783 130.095 240.613C132.515 243.933 134.675 247.563 135.585 251.593C135.625 251.763 135.515 251.923 135.355 251.963C135.205 251.993 135.045 251.913 134.995 251.763C133.195 246.763 129.845 242.423 126.235 238.593C124.505 236.793 122.095 235.763 119.845 234.703C113.895 232.113 107.605 230.263 101.345 228.583C100.045 228.223 98.1851 227.913 97.3951 226.673C96.6351 225.763 96.4651 224.423 96.6351 223.323C96.7451 221.713 96.8251 220.063 96.8251 218.453C96.8651 211.793 96.1051 205.073 93.9251 198.763C93.8251 198.463 93.5951 198.263 93.2951 198.193C92.3651 198.033 90.9951 198.243 90.0251 198.313C90.8251 197.343 92.1951 196.163 92.4651 194.963C92.1951 194.123 91.6551 192.653 91.1551 191.673C90.4351 190.093 89.3151 188.613 88.2651 187.253C90.3851 187.853 92.6651 188.223 94.4451 189.653C95.6551 190.773 96.4551 191.973 97.3951 193.263C102.105 200.153 104.855 208.333 105.625 216.633C105.645 217.513 106.075 218.373 106.875 218.793C113.095 222.023 119.835 224.473 126.845 225.183C128.325 225.383 129.765 225.373 131.175 225.003C134.125 224.163 137.655 224.233 140.105 226.373C140.635 226.853 139.915 227.713 139.355 227.193L139.335 227.173Z" fill="black"/>
<path d="M92.9854 194.663C93.3054 195.273 92.4354 196.483 91.4254 197.583C90.5254 197.653 89.4354 197.853 88.1754 198.303C87.3754 198.583 86.4754 198.443 85.8054 197.913L83.1454 195.793C82.6854 195.423 82.3754 194.913 82.2654 194.333L81.5954 190.833C81.3254 189.443 82.2854 188.123 83.6854 187.933C85.2254 187.713 87.3854 187.683 89.9054 188.363C91.9654 191.103 92.9754 194.683 92.9754 194.683L92.9854 194.663Z" fill="#643C3B"/>
<path d="M93.3553 194.523C93.7353 195.873 92.3853 196.983 91.6553 197.933C90.2553 198.163 89.1153 198.763 87.7553 199.153C86.7753 199.333 85.7653 198.983 85.0153 198.343C83.7553 197.263 81.8553 196.453 81.4353 194.673C81.2353 193.513 80.8953 191.923 80.7353 190.753C80.4953 188.993 81.9653 187.273 83.6653 187.183C85.8953 186.943 88.1253 187.283 90.1753 188.023C91.6253 189.963 92.6553 192.233 93.3653 194.533L93.3553 194.523ZM92.6253 194.813C91.9353 192.583 90.9753 190.463 89.6053 188.583L89.8153 188.723C87.8153 188.373 85.7953 188.323 83.8553 188.653C83.1053 188.773 82.5653 189.373 82.4453 190.043C82.3653 190.423 82.5053 190.843 82.5853 191.243C82.7353 191.993 83.0353 193.493 83.1853 194.233C83.6553 195.453 85.1553 196.063 86.0553 197.023C86.4653 197.413 86.9753 197.743 87.5653 197.693C88.7853 197.463 90.1253 197.103 91.3953 197.193L91.1353 197.323C91.6853 196.623 92.7153 195.733 92.6153 194.813H92.6253Z" fill="black"/>
<path d="M160.335 205.613C160.335 205.613 166.575 209.293 163.455 212.573C163.455 212.573 158.895 216.493 162.575 220.813C162.575 220.813 167.105 225.803 161.375 229.653C160.185 230.453 158.815 230.943 157.405 231.203C155.345 231.573 151.865 232.123 150.025 232.013C150.025 232.013 141.065 231.453 138.745 229.373C138.745 229.373 133.145 225.053 137.945 219.933C137.945 219.933 140.665 217.293 138.025 214.173C138.025 214.173 132.825 207.773 140.905 205.933L150.015 207.343L160.345 205.613H160.335Z" fill="url(#paint5_linear_1074_3049)"/>
<path d="M160.415 205.183C160.675 205.283 160.565 205.263 160.615 205.283L160.675 205.333L160.785 205.423C162.375 206.833 164.515 208.243 164.645 210.593C164.665 211.443 164.245 212.253 163.685 212.833C161.855 214.543 160.825 217.353 162.315 219.553C166.405 224.023 165.595 228.743 159.985 231.263C157.365 232.263 154.595 232.483 151.825 232.813C149.055 233.013 146.315 232.473 143.585 231.993C141.695 231.523 139.885 231.183 138.275 229.873C136.505 228.373 134.925 225.593 135.615 223.023C135.915 221.743 136.635 220.663 137.475 219.753C138.685 218.603 139.175 216.853 138.355 215.373C134.905 211.053 134.595 206.783 140.875 205.403C140.955 205.373 149.985 206.873 150.075 206.853C152.745 206.333 157.165 205.693 160.405 205.173L160.415 205.183ZM160.255 206.033C156.805 206.633 153.375 207.323 149.935 207.823L140.825 206.433C135.865 207.803 135.895 210.723 139.075 215.023C140.055 216.763 139.495 219.043 138.145 220.383C137.415 221.223 136.825 222.203 136.615 223.253C136.115 226.193 138.495 229.113 141.365 229.823C147.205 231.353 153.555 231.663 159.385 229.813C163.325 228.323 165.035 224.813 162.245 221.253C159.715 218.543 160.565 214.533 163.225 212.293C165.595 210.033 161.955 206.723 160.255 206.033Z" fill="black"/>
<path d="M146.745 216.953C149.045 218.343 151.755 218.263 154.015 216.823C154.155 216.753 154.335 216.803 154.405 216.943C154.535 217.383 153.845 217.733 153.585 218.053C151.515 219.843 148.095 219.453 146.415 217.303C146.235 217.093 146.525 216.793 146.745 216.953Z" fill="black"/>
<path d="M161.435 214.373L163.115 212.293L163.755 212.873C161.305 215.303 159.165 218.143 157.575 221.213C157.455 221.463 157.065 221.273 157.185 221.023C158.695 217.803 160.725 214.863 163.155 212.253L163.795 212.833L162.115 214.913C161.765 215.353 161.085 214.803 161.445 214.373H161.435Z" fill="black"/>
<path d="M138.315 213.853C140.415 216.023 142.085 218.653 142.635 221.653C142.655 221.763 142.575 221.873 142.465 221.893C142.355 221.913 142.245 221.833 142.225 221.723C141.585 218.923 139.815 216.413 137.745 214.483C137.295 214.103 137.905 213.433 138.325 213.843L138.315 213.853Z" fill="black"/>
<path d="M161.205 224.653C156.545 228.483 149.335 229.433 144.015 227.003C144.035 226.923 144.125 226.873 144.205 226.893C144.925 227.043 145.625 227.243 146.345 227.363C151.185 228.233 156.615 227.053 160.255 223.683C160.895 222.993 161.925 224.023 161.205 224.653Z" fill="black"/>
<path d="M157.425 210.122C153.185 213.242 146.845 213.302 142.755 209.902C142.505 209.712 142.775 209.312 143.045 209.472C147.385 211.972 152.695 211.822 157.165 209.732C157.415 209.592 157.655 209.962 157.425 210.132V210.122Z" fill="black"/>
<path d="M130.875 171.543C137.768 171.543 143.355 165.955 143.355 159.063C143.355 152.17 137.768 146.583 130.875 146.583C123.983 146.583 118.395 152.17 118.395 159.063C118.395 165.955 123.983 171.543 130.875 171.543Z" fill="white"/>
<path d="M144.235 159.063C143.945 170.603 129.995 175.953 121.765 168.173C116.655 163.433 116.595 154.663 121.575 149.763C129.785 141.343 144.415 147.183 144.235 159.063ZM142.465 159.063C142.315 148.853 129.905 143.493 122.525 150.713C117.845 155.083 117.785 163.073 122.335 167.593C129.685 175.443 142.805 169.623 142.465 159.063Z" fill="black"/>
<path d="M135.305 158.403C136.808 158.403 138.025 156.276 138.025 153.653C138.025 151.029 136.808 148.903 135.305 148.903C133.803 148.903 132.585 151.029 132.585 153.653C132.585 156.276 133.803 158.403 135.305 158.403Z" fill="#429195"/>
<path d="M136.705 152.163C137.003 152.163 137.245 151.921 137.245 151.623C137.245 151.325 137.003 151.083 136.705 151.083C136.407 151.083 136.165 151.325 136.165 151.623C136.165 151.921 136.407 152.163 136.705 152.163Z" fill="white"/>
<path d="M170.495 171.543C177.388 171.543 182.975 165.955 182.975 159.063C182.975 152.17 177.388 146.583 170.495 146.583C163.603 146.583 158.015 152.17 158.015 159.063C158.015 165.955 163.603 171.543 170.495 171.543Z" fill="white"/>
<path d="M158.895 159.063C158.555 169.623 171.675 175.453 179.025 167.593C183.575 163.073 183.515 155.083 178.835 150.713C171.455 143.493 159.045 148.853 158.895 159.063ZM157.125 159.063C156.945 147.183 171.575 141.343 179.785 149.763C184.765 154.663 184.705 163.423 179.595 168.173C171.365 175.953 157.415 170.603 157.125 159.063Z" fill="black"/>
<path d="M166.065 158.403C167.567 158.403 168.785 156.276 168.785 153.653C168.785 151.029 167.567 148.903 166.065 148.903C164.563 148.903 163.345 151.029 163.345 153.653C163.345 156.276 164.563 158.403 166.065 158.403Z" fill="#429195"/>
<path d="M164.665 152.163C164.963 152.163 165.205 151.921 165.205 151.623C165.205 151.325 164.963 151.083 164.665 151.083C164.367 151.083 164.125 151.325 164.125 151.623C164.125 151.921 164.367 152.163 164.665 152.163Z" fill="white"/>
<path d="M155.815 172.733C153.895 171.083 146.455 171.083 144.535 172.733C143.815 173.353 143.585 174.363 143.955 175.233C144.525 176.583 146.075 178.543 150.175 178.473C154.275 178.543 155.825 176.583 156.395 175.233C156.765 174.363 156.525 173.353 155.815 172.733Z" fill="black"/>
<path d="M139.575 184.153C140.755 186.203 144.335 190.693 149.935 192.263C149.935 192.263 155.295 191.573 159.775 184.933C160.025 184.553 159.645 184.563 159.185 184.593C157.495 184.713 153.585 184.813 150.375 181.253C150.375 181.253 145.315 186.583 140.235 184.133C139.875 183.963 139.395 183.813 139.585 184.153H139.575Z" fill="black"/>
<path d="M140.125 183.833C142.455 187.383 146.095 190.203 150.145 191.503L149.835 191.483C151.565 191.303 153.425 190.463 154.905 189.453C156.695 188.293 158.205 186.693 159.495 184.963C159.565 184.873 159.655 184.753 159.655 184.733C159.645 184.733 159.695 184.813 159.695 184.793C159.695 184.793 159.635 184.773 159.585 184.773C156.175 185.013 152.625 183.913 150.305 181.313H150.445C147.765 183.923 143.685 185.993 140.005 184.303C139.885 184.293 139.725 184.353 139.665 184.423C139.645 184.443 139.645 184.463 139.665 184.483C139.705 184.483 139.775 184.553 140.005 184.363C140.235 184.093 140.145 183.943 140.145 183.833H140.125ZM139.015 184.473C138.695 183.973 139.165 183.123 139.805 183.483C143.065 186.143 147.805 183.763 150.365 181.123C152.595 183.853 156.195 184.863 159.605 184.403C159.795 184.383 160.115 184.553 160.035 184.813C157.775 188.583 154.295 191.943 149.895 193.073C145.255 191.923 141.365 188.583 139.015 184.473Z" fill="black"/>
<path d="M150.605 177.813V181.223C148.035 186.083 141.865 186.793 137.725 183.493C137.195 183.063 136.685 182.623 136.175 182.173C135.995 182.013 135.975 181.743 136.135 181.563C136.295 181.383 136.565 181.373 136.745 181.523L138.315 182.623C142.535 185.343 146.495 184.413 149.815 180.843L149.745 181.083V177.803C149.745 177.243 150.605 177.233 150.605 177.803V177.813Z" fill="black"/>
<path d="M150.605 177.813V181.093L150.535 180.853C152.505 182.263 154.335 183.943 156.815 184.023C159.275 184.153 161.605 182.883 163.605 181.523C163.805 181.373 164.105 181.423 164.245 181.643C164.355 181.813 164.315 182.043 164.175 182.173C163.195 183.133 162.155 184.053 160.925 184.693C157.195 186.913 151.435 185.583 149.815 181.323L149.745 181.223V181.093V177.813C149.745 177.253 150.605 177.243 150.605 177.813Z" fill="black"/>
<path d="M163.875 137.373C166.255 134.743 170.225 134.763 173.385 135.593C176.535 136.463 179.275 138.423 181.515 140.753C181.895 141.123 181.355 141.723 180.945 141.403C175.735 137.553 170.705 135.953 164.385 138.073C163.965 138.263 163.555 137.723 163.865 137.383L163.875 137.373Z" fill="black"/>
<path d="M136.875 137.053C135.285 137.063 134.045 136.463 132.585 136.403C128.055 136.063 123.925 138.553 120.535 141.343C120.145 141.703 119.565 141.113 119.925 140.733C123.095 137.053 127.655 134.113 132.705 134.433C134.355 134.573 136.215 134.753 137.335 136.343C137.575 136.683 137.255 137.133 136.865 137.063L136.875 137.053Z" fill="black"/>
<path d="M132.095 121.573C128.425 119.253 121.085 112.533 120.265 95.7028C120.175 93.9528 118.715 92.5728 116.965 92.5728C115.215 92.5728 113.765 93.9328 113.665 95.6728C113.545 97.6028 113.465 100.083 113.615 102.073C113.725 103.563 112.495 104.803 111.005 104.713C105.575 104.383 94.795 102.263 93.195 90.6828C92.995 89.2028 91.735 88.0828 90.235 88.0828C88.535 88.0828 87.165 89.5028 87.245 91.2028C87.525 97.2028 90.635 110.003 111.605 112.613C113.625 112.863 115.375 114.133 116.235 115.983C117.595 118.883 120.385 123.503 125.795 128.203C127.245 129.463 129.225 130.043 131.085 129.573C132.315 129.263 133.525 128.533 134.075 126.933C134.765 124.923 133.885 122.713 132.095 121.573Z" fill="url(#paint6_linear_1074_3049)"/>
<path d="M131.755 122.103C123.195 116.313 120.485 105.493 119.995 95.7427C119.775 92.0427 114.475 91.8227 113.955 95.4927C113.705 97.9527 113.955 100.423 113.865 102.893C113.075 106.033 109.355 104.903 107.045 104.573C99.6052 103.303 93.6652 98.5027 92.6152 90.7627C92.2352 88.0927 88.2852 88.0527 87.9452 90.7627C88.0352 95.4427 89.9052 100.133 93.0952 103.553C98.0752 108.993 105.475 110.823 112.565 111.883C115.435 112.513 116.855 115.033 117.975 117.453C119.525 120.243 121.515 122.783 123.725 125.113C124.535 125.963 125.455 126.833 126.335 127.623C128.105 129.253 131.375 129.603 132.955 127.583C134.255 125.843 133.585 123.223 131.755 122.093V122.103ZM132.425 121.043C134.875 122.483 135.825 126.043 134.085 128.423C132.045 131.213 127.715 130.963 125.305 128.833L124.365 128.003C121.245 125.213 118.535 121.983 116.455 118.323C115.435 116.343 114.505 114.123 112.115 113.623C104.785 112.663 96.9952 110.403 91.8852 104.673C88.4452 100.893 86.4852 95.7227 86.5852 90.6127C87.2152 86.4627 93.1852 86.4627 93.7752 90.6227C94.5852 97.9327 100.205 102.583 107.185 103.873C109.145 104.093 112.465 105.403 113.235 102.763C113.305 100.363 113.135 97.8827 113.395 95.4427C114.015 91.1727 120.275 91.4227 120.535 95.7427C121.055 105.173 124.085 115.723 132.425 121.063V121.043Z" fill="black"/>
<path d="M167.945 121.573C171.615 119.253 178.955 112.533 179.775 95.7028C179.865 93.9528 181.325 92.5728 183.075 92.5728C184.825 92.5728 186.275 93.9328 186.375 95.6728C186.495 97.6028 186.575 100.083 186.425 102.073C186.315 103.563 187.545 104.803 189.035 104.713C194.465 104.383 205.245 102.263 206.845 90.6828C207.045 89.2028 208.305 88.0828 209.805 88.0828C211.505 88.0828 212.875 89.5028 212.795 91.2028C212.515 97.2028 209.405 110.003 188.435 112.613C186.415 112.863 184.665 114.133 183.805 115.983C182.445 118.883 179.655 123.503 174.245 128.203C172.795 129.463 170.815 130.043 168.955 129.573C167.725 129.263 166.515 128.533 165.965 126.933C165.275 124.923 166.155 122.713 167.945 121.573Z" fill="url(#paint7_linear_1074_3049)"/>
<path d="M167.605 121.043C175.945 115.693 178.975 105.153 179.495 95.7227C179.755 91.4127 186.005 91.1527 186.635 95.4227C186.895 97.8627 186.735 100.343 186.795 102.743C187.565 105.383 190.885 104.073 192.845 103.853C199.825 102.573 205.445 97.9127 206.255 90.6027C206.825 86.4527 212.825 86.4327 213.445 90.5927C213.545 95.7027 211.595 100.883 208.145 104.653C203.035 110.393 195.245 112.653 187.915 113.603C185.525 114.103 184.585 116.323 183.575 118.303C181.495 121.963 178.785 125.193 175.665 127.983L174.725 128.813C172.315 130.943 167.985 131.203 165.945 128.403C164.215 126.033 165.155 122.463 167.605 121.023V121.043ZM168.275 122.103C166.455 123.233 165.775 125.863 167.075 127.593C168.655 129.613 171.925 129.263 173.695 127.633C174.575 126.833 175.485 125.983 176.305 125.123C178.515 122.803 180.505 120.253 182.055 117.463C183.185 115.033 184.595 112.523 187.465 111.893C194.545 110.833 201.945 108.993 206.935 103.563C210.125 100.143 211.995 95.4527 212.085 90.7727C211.735 88.0727 207.815 88.0827 207.415 90.7727C206.355 98.5227 200.425 103.313 192.985 104.583C190.675 104.923 186.945 106.023 186.165 102.903C186.065 100.433 186.325 97.9627 186.075 95.5027C185.565 91.8427 180.255 92.0527 180.035 95.7527C179.545 105.493 176.835 116.323 168.275 122.113V122.103Z" fill="black"/>
<path d="M190.975 153.843C190.265 157.123 192.255 159.983 193.885 162.643C198.615 171.773 194.035 182.553 187.575 189.593C187.125 190.063 186.405 189.373 186.885 188.903C193.225 182.203 197.885 171.783 193.425 162.873C191.775 160.133 189.825 157.123 190.615 153.753C190.665 153.533 191.025 153.593 190.975 153.833V153.843Z" fill="black"/>
<path d="M109.455 153.743C110.245 157.133 108.305 160.153 106.635 162.893C102.265 171.773 106.795 182.073 113.175 188.703C113.715 189.203 112.915 190.033 112.405 189.483C105.255 182.003 100.685 169.683 107.285 160.483C108.525 158.543 109.345 156.143 108.885 153.853C108.805 153.493 109.375 153.363 109.455 153.733V153.743Z" fill="black"/>
<path d="M149.935 191.623C149.935 191.623 152.845 191.363 155.985 188.663C154.505 187.243 152.415 186.123 150.195 186.123C147.975 186.123 145.835 187.063 144.335 188.573C145.845 189.783 147.665 190.983 149.925 191.613L149.935 191.623Z" fill="#FF5C5C"/>
<path d="M19.5179 96.4264V97.6104H16.4779V107.578H15.0219V97.6104H11.9659V96.4264H19.5179ZM25.1341 107.722C24.3128 107.722 23.5661 107.536 22.8941 107.162C22.2328 106.789 21.7101 106.261 21.3261 105.578C20.9528 104.885 20.7661 104.085 20.7661 103.178C20.7661 102.282 20.9581 101.493 21.3421 100.81C21.7368 100.117 22.2701 99.589 22.9421 99.2264C23.6141 98.853 24.3661 98.6664 25.1981 98.6664C26.0301 98.6664 26.7821 98.853 27.4541 99.2264C28.1261 99.589 28.6541 100.112 29.0381 100.794C29.4328 101.477 29.6301 102.272 29.6301 103.178C29.6301 104.085 29.4275 104.885 29.0221 105.578C28.6275 106.261 28.0888 106.789 27.4061 107.162C26.7235 107.536 25.9661 107.722 25.1341 107.722ZM25.1341 106.442C25.6568 106.442 26.1475 106.32 26.6061 106.074C27.0648 105.829 27.4328 105.461 27.7101 104.97C27.9981 104.48 28.1421 103.882 28.1421 103.178C28.1421 102.474 28.0035 101.877 27.7261 101.386C27.4488 100.896 27.0861 100.533 26.6381 100.298C26.1901 100.053 25.7048 99.9304 25.1821 99.9304C24.6488 99.9304 24.1581 100.053 23.7101 100.298C23.2728 100.533 22.9208 100.896 22.6541 101.386C22.3875 101.877 22.2541 102.474 22.2541 103.178C22.2541 103.893 22.3821 104.496 22.6381 104.986C22.9048 105.477 23.2568 105.845 23.6941 106.09C24.1315 106.325 24.6115 106.442 25.1341 106.442ZM42.0885 98.6504C42.7712 98.6504 43.3792 98.7944 43.9125 99.0824C44.4458 99.3597 44.8672 99.781 45.1765 100.346C45.4858 100.912 45.6405 101.6 45.6405 102.41V107.578H44.2005V102.618C44.2005 101.744 43.9818 101.077 43.5445 100.618C43.1178 100.149 42.5365 99.9144 41.8005 99.9144C41.0432 99.9144 40.4405 100.16 39.9925 100.65C39.5445 101.13 39.3205 101.829 39.3205 102.746V107.578H37.8805V102.618C37.8805 101.744 37.6618 101.077 37.2245 100.618C36.7978 100.149 36.2165 99.9144 35.4805 99.9144C34.7232 99.9144 34.1205 100.16 33.6725 100.65C33.2245 101.13 33.0005 101.829 33.0005 102.746V107.578H31.5445V98.8104H33.0005V100.074C33.2885 99.6157 33.6725 99.2637 34.1525 99.0184C34.6432 98.773 35.1818 98.6504 35.7685 98.6504C36.5045 98.6504 37.1552 98.8157 37.7205 99.1464C38.2858 99.477 38.7072 99.9624 38.9845 100.602C39.2298 99.9837 39.6352 99.5037 40.2005 99.1624C40.7658 98.821 41.3952 98.6504 42.0885 98.6504ZM47.4849 103.162C47.4849 102.266 47.6662 101.482 48.0289 100.81C48.3915 100.128 48.8875 99.5997 49.5169 99.2264C50.1569 98.853 50.8662 98.6664 51.6449 98.6664C52.4129 98.6664 53.0795 98.8317 53.6449 99.1624C54.2102 99.493 54.6315 99.909 54.9089 100.41V98.8104H56.3809V107.578H54.9089V105.946C54.6209 106.458 54.1889 106.885 53.6129 107.226C53.0475 107.557 52.3862 107.722 51.6289 107.722C50.8502 107.722 50.1462 107.53 49.5169 107.146C48.8875 106.762 48.3915 106.224 48.0289 105.53C47.6662 104.837 47.4849 104.048 47.4849 103.162ZM54.9089 103.178C54.9089 102.517 54.7755 101.941 54.5089 101.45C54.2422 100.96 53.8795 100.586 53.4209 100.33C52.9729 100.064 52.4769 99.9304 51.9329 99.9304C51.3889 99.9304 50.8929 100.058 50.4449 100.314C49.9969 100.57 49.6395 100.944 49.3729 101.434C49.1062 101.925 48.9729 102.501 48.9729 103.162C48.9729 103.834 49.1062 104.421 49.3729 104.922C49.6395 105.413 49.9969 105.792 50.4449 106.058C50.8929 106.314 51.3889 106.442 51.9329 106.442C52.4769 106.442 52.9729 106.314 53.4209 106.058C53.8795 105.792 54.2422 105.413 54.5089 104.922C54.7755 104.421 54.9089 103.84 54.9089 103.178ZM60.2974 100.234C60.5534 99.733 60.916 99.3437 61.3854 99.0664C61.8654 98.789 62.4467 98.6504 63.1294 98.6504V100.154H62.7454C61.1134 100.154 60.2974 101.04 60.2974 102.81V107.578H58.8414V98.8104H60.2974V100.234Z" fill="black"/>
<circle cx="37.5" cy="42.0784" r="37.5" fill="#C4DDD1"/>
<path d="M56.7397 29.6684C55.8995 28.8284 54.8692 28.3984 53.6789 28.3984H50.2581C48.7477 28.3984 47.2873 27.7584 46.2571 26.6484C45.0368 25.3284 43.3063 24.5784 41.5059 24.5784H35.2443C33.4439 24.5784 31.7134 25.3384 30.4931 26.6484C29.4629 27.7584 28.0125 28.3984 26.4921 28.3984H23.0713C21.891 28.3984 20.8607 28.8284 20.0205 29.6684C19.1803 30.5084 18.7502 31.5384 18.7502 32.7284V41.6184C18.3101 41.8184 18 42.2584 18 42.7684C18 43.4684 18.5701 44.0384 19.2703 44.0384C19.9705 44.0384 20.5406 43.4684 20.5406 42.7684C20.5406 42.2484 20.2206 41.7984 19.7704 41.5984V32.7184C19.7704 31.7984 20.0905 31.0284 20.7507 30.3784C21.4008 29.7284 22.171 29.4084 23.0813 29.4084H26.5021C28.3026 29.4084 30.033 28.6484 31.2533 27.3384C32.2836 26.2284 33.7339 25.5884 35.2543 25.5884H41.5159C43.0263 25.5884 44.4866 26.2284 45.5169 27.3384C46.7372 28.6584 48.4676 29.4084 50.2681 29.4084H53.6889C54.6091 29.4084 55.3793 29.7284 56.0295 30.3884C56.6797 31.0484 56.9997 31.8084 56.9997 32.7284V55.6684C56.9997 56.5884 56.6797 57.3584 56.0195 58.0084C55.3693 58.6584 54.5991 58.9784 53.6889 58.9784H23.0813C22.161 58.9784 21.3908 58.6584 20.7407 57.9984C20.0805 57.3384 19.7704 56.5784 19.7704 55.6584V51.6984C19.7704 51.4184 19.5404 51.1884 19.2603 51.1884C18.9802 51.1884 18.7502 51.4184 18.7502 51.6984V55.6584C18.7502 56.8484 19.1803 57.8684 20.0205 58.7184C20.8607 59.5584 21.891 59.9884 23.0813 59.9884H53.6789C54.8592 59.9884 55.8895 59.5584 56.7297 58.7184C57.5699 57.8784 58 56.8484 58 55.6584V32.7184C58 31.5284 57.5699 30.5084 56.7297 29.6584L56.7397 29.6684Z" fill="#201A18"/>
<path d="M38.385 53.2984C40.9056 53.2984 43.0762 52.4084 44.8366 50.6384C46.597 48.8784 47.4973 46.7084 47.4973 44.1884C47.4973 41.6684 46.607 39.4984 44.8366 37.7384C43.0762 35.9784 40.9056 35.0784 38.395 35.0784C35.8744 35.0784 33.7038 35.9684 31.9434 37.7384C30.1829 39.4984 29.2827 41.6684 29.2827 44.1884C29.2827 46.7084 30.1729 48.8784 31.9434 50.6384C33.7038 52.3984 35.8744 53.2984 38.395 53.2984H38.385ZM30.293 44.1884C30.293 41.9184 31.0632 40.0484 32.6536 38.4584C34.244 36.8684 36.1244 36.0984 38.395 36.0984C40.6656 36.0984 42.536 36.8684 44.1264 38.4584C45.7168 40.0484 46.487 41.9184 46.487 44.1984C46.487 46.4684 45.7168 48.3384 44.1264 49.9284C42.536 51.5184 40.6656 52.2884 38.395 52.2884C36.1244 52.2884 34.254 51.5184 32.6636 49.9284C31.0732 48.3384 30.303 46.4584 30.303 44.1884H30.293Z" fill="#201A18"/>
<path d="M247.096 107.69C246.36 107.69 245.699 107.562 245.112 107.306C244.536 107.04 244.083 106.677 243.752 106.218C243.421 105.749 243.251 105.21 243.24 104.602H244.792C244.845 105.125 245.059 105.568 245.432 105.93C245.816 106.282 246.371 106.458 247.096 106.458C247.789 106.458 248.333 106.288 248.728 105.946C249.133 105.594 249.336 105.146 249.336 104.602C249.336 104.176 249.219 103.829 248.984 103.562C248.749 103.296 248.456 103.093 248.104 102.954C247.752 102.816 247.277 102.666 246.68 102.506C245.944 102.314 245.352 102.122 244.904 101.93C244.467 101.738 244.088 101.44 243.768 101.034C243.459 100.618 243.304 100.064 243.304 99.3704C243.304 98.7624 243.459 98.2237 243.768 97.7544C244.077 97.285 244.509 96.9224 245.064 96.6664C245.629 96.4104 246.275 96.2824 247 96.2824C248.045 96.2824 248.899 96.5437 249.56 97.0664C250.232 97.589 250.611 98.2824 250.696 99.1464H249.096C249.043 98.7197 248.819 98.3464 248.424 98.0264C248.029 97.6957 247.507 97.5304 246.856 97.5304C246.248 97.5304 245.752 97.6904 245.368 98.0104C244.984 98.3197 244.792 98.757 244.792 99.3224C244.792 99.7277 244.904 100.058 245.128 100.314C245.363 100.57 245.645 100.768 245.976 100.906C246.317 101.034 246.792 101.184 247.4 101.354C248.136 101.557 248.728 101.76 249.176 101.962C249.624 102.154 250.008 102.458 250.328 102.874C250.648 103.28 250.808 103.834 250.808 104.538C250.808 105.082 250.664 105.594 250.376 106.074C250.088 106.554 249.661 106.944 249.096 107.242C248.531 107.541 247.864 107.69 247.096 107.69ZM260.727 98.8104V107.578H259.271V106.282C258.993 106.73 258.604 107.082 258.103 107.338C257.612 107.584 257.068 107.706 256.471 107.706C255.788 107.706 255.175 107.568 254.631 107.29C254.087 107.002 253.655 106.576 253.335 106.01C253.025 105.445 252.871 104.757 252.871 103.946V98.8104H254.311V103.754C254.311 104.618 254.529 105.285 254.967 105.754C255.404 106.213 256.001 106.442 256.759 106.442C257.537 106.442 258.151 106.202 258.599 105.722C259.047 105.242 259.271 104.544 259.271 103.626V98.8104H260.727ZM264.641 100.442C264.94 99.9197 265.377 99.493 265.953 99.1624C266.529 98.8317 267.185 98.6664 267.921 98.6664C268.71 98.6664 269.42 98.853 270.049 99.2264C270.678 99.5997 271.174 100.128 271.537 100.81C271.9 101.482 272.081 102.266 272.081 103.162C272.081 104.048 271.9 104.837 271.537 105.53C271.174 106.224 270.673 106.762 270.033 107.146C269.404 107.53 268.7 107.722 267.921 107.722C267.164 107.722 266.497 107.557 265.921 107.226C265.356 106.896 264.929 106.474 264.641 105.962V107.578H263.185V95.7384H264.641V100.442ZM270.593 103.162C270.593 102.501 270.46 101.925 270.193 101.434C269.926 100.944 269.564 100.57 269.105 100.314C268.657 100.058 268.161 99.9304 267.617 99.9304C267.084 99.9304 266.588 100.064 266.129 100.33C265.681 100.586 265.318 100.965 265.041 101.466C264.774 101.957 264.641 102.528 264.641 103.178C264.641 103.84 264.774 104.421 265.041 104.922C265.318 105.413 265.681 105.792 266.129 106.058C266.588 106.314 267.084 106.442 267.617 106.442C268.161 106.442 268.657 106.314 269.105 106.058C269.564 105.792 269.926 105.413 270.193 104.922C270.46 104.421 270.593 103.834 270.593 103.162ZM274.75 97.3864C274.472 97.3864 274.238 97.2904 274.046 97.0984C273.854 96.9064 273.758 96.6717 273.758 96.3944C273.758 96.117 273.854 95.8824 274.046 95.6904C274.238 95.4984 274.472 95.4024 274.75 95.4024C275.016 95.4024 275.24 95.4984 275.422 95.6904C275.614 95.8824 275.71 96.117 275.71 96.3944C275.71 96.6717 275.614 96.9064 275.422 97.0984C275.24 97.2904 275.016 97.3864 274.75 97.3864ZM275.454 98.8104V107.578H273.998V98.8104H275.454ZM279.391 100.234C279.647 99.733 280.01 99.3437 280.479 99.0664C280.959 98.789 281.54 98.6504 282.223 98.6504V100.154H281.839C280.207 100.154 279.391 101.04 279.391 102.81V107.578H277.935V98.8104H279.391V100.234Z" fill="black"/>
<circle cx="262.5" cy="42.0784" r="37.5" fill="#C4DDD1"/>
<g clip-path="url(#clip0_1074_3049)">
<path d="M280.31 30.6409C278.6 28.9309 276.32 27.9709 273.9 27.9509C271.52 27.9509 269.18 28.8509 267.44 30.5309L253.12 44.4709C252.66 44.9209 252.29 45.4509 252.04 46.0409C251.79 46.6309 251.65 47.2609 251.65 47.9109C251.65 48.5609 251.77 49.1909 252.01 49.7809C252.25 50.3809 252.61 50.9109 253.07 51.3709C253.53 51.8309 254.06 52.1809 254.66 52.4309C255.24 52.6709 255.86 52.7909 256.49 52.7909H256.53C257.18 52.7909 257.8 52.6509 258.4 52.4009C258.99 52.1409 259.52 51.7809 259.96 51.3209L274.28 37.0009C274.47 36.8109 274.47 36.5009 274.28 36.3109C274.09 36.1209 273.78 36.1209 273.59 36.3109L259.27 50.6309C258.91 51.0009 258.49 51.2909 258.02 51.4909C257.55 51.6909 257.05 51.8009 256.53 51.8009C256 51.8009 255.51 51.7109 255.04 51.5109C254.56 51.3109 254.14 51.0309 253.77 50.6709C253.41 50.3109 253.12 49.8809 252.93 49.4009C252.73 48.9309 252.64 48.4209 252.64 47.9109C252.64 47.3909 252.75 46.8909 252.95 46.4209C253.15 45.9509 253.45 45.5209 253.82 45.1709L268.14 31.2309C269.68 29.7409 271.7 28.9309 273.84 28.9309C273.86 28.9309 273.89 28.9309 273.91 28.9309C276.07 28.9509 278.11 29.8009 279.64 31.3309C281.17 32.8609 282.02 34.9009 282.04 37.0609C282.06 39.2209 281.24 41.2809 279.74 42.8209L272.49 49.9509C272.3 50.1409 272.3 50.4509 272.49 50.6409C272.68 50.8309 272.99 50.8309 273.18 50.6409L280.44 43.5009C282.12 41.7609 283.04 39.4609 283.02 37.0409C283 34.6209 282.04 32.3409 280.33 30.6309L280.31 30.6409Z" fill="#201A18"/>
<path d="M266.56 55.0609C265.89 55.0609 265.34 55.6109 265.34 56.2809C265.34 56.4509 265.37 56.6109 265.44 56.7509C265.44 56.7509 265.42 56.7609 265.41 56.7709C263.04 59.1409 259.89 60.4509 256.53 60.4509C253.17 60.4509 250.02 59.1409 247.65 56.7709C245.28 54.4009 243.97 51.2409 243.97 47.8909C243.97 44.5409 245.28 41.3809 247.65 39.0109L261.22 25.4109C261.41 25.2209 261.41 24.9109 261.22 24.7209C261.03 24.5309 260.72 24.5309 260.53 24.7209L246.96 38.3309C244.4 40.8909 243 44.2809 243 47.9009C243 51.5209 244.41 54.9109 246.96 57.4709C249.52 60.0309 252.91 61.4309 256.53 61.4309C260.15 61.4309 263.54 60.0209 266.1 57.4709C266.12 57.4509 266.12 57.4409 266.13 57.4209C266.26 57.4709 266.41 57.5109 266.56 57.5109C267.23 57.5109 267.78 56.9609 267.78 56.2909C267.78 55.6209 267.23 55.0709 266.56 55.0709V55.0609Z" fill="#201A18"/>
</g>
</g>
<defs>
<linearGradient id="paint0_linear_1074_3049" x1="133.725" y1="249.803" x2="133.725" y2="208.903" gradientUnits="userSpaceOnUse">
<stop stop-color="#487E50"/>
<stop offset="0.07" stop-color="#518A58"/>
<stop offset="0.21" stop-color="#61A167"/>
<stop offset="0.34" stop-color="#6AAE6F"/>
<stop offset="0.47" stop-color="#6EB373"/>
</linearGradient>
<linearGradient id="paint1_linear_1074_3049" x1="150.115" y1="296.803" x2="150.115" y2="225.483" gradientUnits="userSpaceOnUse">
<stop stop-color="#643C3B"/>
<stop offset="0.03" stop-color="#72453D"/>
<stop offset="0.12" stop-color="#996044"/>
<stop offset="0.22" stop-color="#B87449"/>
<stop offset="0.3" stop-color="#CF834D"/>
<stop offset="0.39" stop-color="#DC8C50"/>
<stop offset="0.47" stop-color="#E19051"/>
</linearGradient>
<linearGradient id="paint2_linear_1074_3049" x1="150.075" y1="223.243" x2="150.075" y2="114.163" gradientUnits="userSpaceOnUse">
<stop stop-color="#643C3B"/>
<stop offset="0.03" stop-color="#72453D"/>
<stop offset="0.12" stop-color="#996044"/>
<stop offset="0.22" stop-color="#B87449"/>
<stop offset="0.3" stop-color="#CF834D"/>
<stop offset="0.39" stop-color="#DC8C50"/>
<stop offset="0.47" stop-color="#E19051"/>
</linearGradient>
<linearGradient id="paint3_linear_1074_3049" x1="201.463" y1="188.59" x2="186.033" y2="218.281" gradientUnits="userSpaceOnUse">
<stop stop-color="#643C3B"/>
<stop offset="0.03" stop-color="#72453D"/>
<stop offset="0.12" stop-color="#996044"/>
<stop offset="0.22" stop-color="#B87449"/>
<stop offset="0.3" stop-color="#CF834D"/>
<stop offset="0.39" stop-color="#DC8C50"/>
<stop offset="0.47" stop-color="#E19051"/>
</linearGradient>
<linearGradient id="paint4_linear_1074_3049" x1="99.1621" y1="188.588" x2="114.596" y2="218.287" gradientUnits="userSpaceOnUse">
<stop stop-color="#643C3B"/>
<stop offset="0.03" stop-color="#72453D"/>
<stop offset="0.12" stop-color="#996044"/>
<stop offset="0.22" stop-color="#B87449"/>
<stop offset="0.3" stop-color="#CF834D"/>
<stop offset="0.39" stop-color="#DC8C50"/>
<stop offset="0.47" stop-color="#E19051"/>
</linearGradient>
<linearGradient id="paint5_linear_1074_3049" x1="135.995" y1="218.813" x2="164.325" y2="218.813" gradientUnits="userSpaceOnUse">
<stop stop-color="#487E50"/>
<stop offset="0.07" stop-color="#518A58"/>
<stop offset="0.21" stop-color="#61A167"/>
<stop offset="0.34" stop-color="#6AAE6F"/>
<stop offset="0.47" stop-color="#6EB373"/>
</linearGradient>
<linearGradient id="paint6_linear_1074_3049" x1="110.775" y1="133.943" x2="110.775" y2="86.8728" gradientUnits="userSpaceOnUse">
<stop offset="0.56" stop-color="#F9E9B3"/>
<stop offset="0.61" stop-color="#F3D9A5"/>
<stop offset="0.79" stop-color="#E1A276"/>
<stop offset="0.93" stop-color="#D58059"/>
<stop offset="1" stop-color="#D1744E"/>
</linearGradient>
<linearGradient id="paint7_linear_1074_3049" x1="189.255" y1="133.943" x2="189.255" y2="86.8728" gradientUnits="userSpaceOnUse">
<stop offset="0.56" stop-color="#F9E9B3"/>
<stop offset="0.61" stop-color="#F3D9A5"/>
<stop offset="0.79" stop-color="#E1A276"/>
<stop offset="0.93" stop-color="#D58059"/>
<stop offset="1" stop-color="#D1744E"/>
</linearGradient>
<clipPath id="clip0_1074_3049">
<rect width="40" height="40" fill="white" transform="translate(243 22.5784)"/>
</clipPath>
</defs>
</svg>
