<svg width="300" height="301" viewBox="0 0 300 301" fill="none" xmlns="http://www.w3.org/2000/svg">
<circle cx="150" cy="150.5" r="150" fill="#C4DDD1" fill-opacity="0.15"/>
<mask id="mask0_1074_3050" style="mask-type:alpha" maskUnits="userSpaceOnUse" x="0" y="0" width="300" height="301">
<rect y="0.5" width="300" height="300" fill="#D9D9D9"/>
</mask>
<g mask="url(#mask0_1074_3050)">
<rect x="0.0390625" y="208.99" width="299.961" height="34.2813" rx="17.1406" fill="#C4DDD1"/>
<rect x="0.0390625" y="208.99" width="51.4219" height="34.2813" rx="17.1406" fill="#004F40"/>
<path d="M73.3696 233.958C72.6336 233.958 71.9722 233.83 71.3856 233.574C70.8096 233.308 70.3562 232.945 70.0256 232.486C69.6949 232.017 69.5242 231.478 69.5136 230.87H71.0656C71.1189 231.393 71.3322 231.836 71.7056 232.198C72.0896 232.55 72.6442 232.726 73.3696 232.726C74.0629 232.726 74.6069 232.556 75.0016 232.214C75.4069 231.862 75.6096 231.414 75.6096 230.87C75.6096 230.444 75.4922 230.097 75.2576 229.83C75.0229 229.564 74.7296 229.361 74.3776 229.222C74.0256 229.084 73.5509 228.934 72.9536 228.774C72.2176 228.582 71.6256 228.39 71.1776 228.198C70.7402 228.006 70.3616 227.708 70.0416 227.302C69.7322 226.886 69.5776 226.332 69.5776 225.638C69.5776 225.03 69.7322 224.492 70.0416 224.022C70.3509 223.553 70.7829 223.19 71.3376 222.934C71.9029 222.678 72.5482 222.55 73.2736 222.55C74.3189 222.55 75.1722 222.812 75.8336 223.334C76.5056 223.857 76.8842 224.55 76.9696 225.414H75.3696C75.3162 224.988 75.0922 224.614 74.6976 224.294C74.3029 223.964 73.7802 223.798 73.1296 223.798C72.5216 223.798 72.0256 223.958 71.6416 224.278C71.2576 224.588 71.0656 225.025 71.0656 225.59C71.0656 225.996 71.1776 226.326 71.4016 226.582C71.6362 226.838 71.9189 227.036 72.2496 227.174C72.5909 227.302 73.0656 227.452 73.6736 227.622C74.4096 227.825 75.0016 228.028 75.4496 228.23C75.8976 228.422 76.2816 228.726 76.6016 229.142C76.9216 229.548 77.0816 230.102 77.0816 230.806C77.0816 231.35 76.9376 231.862 76.6496 232.342C76.3616 232.822 75.9349 233.212 75.3696 233.51C74.8042 233.809 74.1376 233.958 73.3696 233.958ZM87.2242 229.126C87.2242 229.404 87.2082 229.697 87.1762 230.006H80.1682C80.2215 230.87 80.5149 231.548 81.0482 232.038C81.5922 232.518 82.2482 232.758 83.0162 232.758C83.6455 232.758 84.1682 232.614 84.5842 232.326C85.0109 232.028 85.3095 231.633 85.4802 231.142H87.0482C86.8135 231.985 86.3442 232.673 85.6402 233.206C84.9362 233.729 84.0615 233.99 83.0162 233.99C82.1842 233.99 81.4375 233.804 80.7762 233.43C80.1255 233.057 79.6135 232.529 79.2402 231.846C78.8669 231.153 78.6802 230.353 78.6802 229.446C78.6802 228.54 78.8615 227.745 79.2242 227.062C79.5869 226.38 80.0935 225.857 80.7442 225.494C81.4055 225.121 82.1629 224.934 83.0162 224.934C83.8482 224.934 84.5842 225.116 85.2242 225.478C85.8642 225.841 86.3549 226.342 86.6962 226.982C87.0482 227.612 87.2242 228.326 87.2242 229.126ZM85.7202 228.822C85.7202 228.268 85.5975 227.793 85.3522 227.398C85.1069 226.993 84.7709 226.689 84.3442 226.486C83.9282 226.273 83.4642 226.166 82.9522 226.166C82.2162 226.166 81.5869 226.401 81.0642 226.87C80.5522 227.34 80.2589 227.99 80.1842 228.822H85.7202ZM90.6021 222.006V233.846H89.1461V222.006H90.6021ZM101.084 229.126C101.084 229.404 101.068 229.697 101.036 230.006H94.0276C94.0809 230.87 94.3742 231.548 94.9076 232.038C95.4516 232.518 96.1076 232.758 96.8756 232.758C97.5049 232.758 98.0276 232.614 98.4436 232.326C98.8702 232.028 99.1689 231.633 99.3396 231.142H100.908C100.673 231.985 100.204 232.673 99.4996 233.206C98.7956 233.729 97.9209 233.99 96.8756 233.99C96.0436 233.99 95.2969 233.804 94.6356 233.43C93.9849 233.057 93.4729 232.529 93.0996 231.846C92.7262 231.153 92.5396 230.353 92.5396 229.446C92.5396 228.54 92.7209 227.745 93.0836 227.062C93.4462 226.38 93.9529 225.857 94.6036 225.494C95.2649 225.121 96.0222 224.934 96.8756 224.934C97.7076 224.934 98.4436 225.116 99.0836 225.478C99.7236 225.841 100.214 226.342 100.556 226.982C100.908 227.612 101.084 228.326 101.084 229.126ZM99.5796 228.822C99.5796 228.268 99.4569 227.793 99.2116 227.398C98.9662 226.993 98.6302 226.689 98.2036 226.486C97.7876 226.273 97.3236 226.166 96.8116 226.166C96.0756 226.166 95.4462 226.401 94.9236 226.87C94.4116 227.34 94.1182 227.99 94.0436 228.822H99.5796ZM102.461 229.446C102.461 228.54 102.643 227.75 103.005 227.078C103.368 226.396 103.869 225.868 104.509 225.494C105.16 225.121 105.901 224.934 106.733 224.934C107.811 224.934 108.696 225.196 109.389 225.718C110.093 226.241 110.557 226.966 110.781 227.894H109.213C109.064 227.361 108.771 226.94 108.333 226.63C107.907 226.321 107.373 226.166 106.733 226.166C105.901 226.166 105.229 226.454 104.717 227.03C104.205 227.596 103.949 228.401 103.949 229.446C103.949 230.502 104.205 231.318 104.717 231.894C105.229 232.47 105.901 232.758 106.733 232.758C107.373 232.758 107.907 232.609 108.333 232.31C108.76 232.012 109.053 231.585 109.213 231.03H110.781C110.547 231.926 110.077 232.646 109.373 233.19C108.669 233.724 107.789 233.99 106.733 233.99C105.901 233.99 105.16 233.804 104.509 233.43C103.869 233.057 103.368 232.529 103.005 231.846C102.643 231.164 102.461 230.364 102.461 229.446ZM112.18 229.446C112.18 228.54 112.362 227.75 112.724 227.078C113.087 226.396 113.588 225.868 114.228 225.494C114.879 225.121 115.62 224.934 116.452 224.934C117.53 224.934 118.415 225.196 119.108 225.718C119.812 226.241 120.276 226.966 120.5 227.894H118.932C118.783 227.361 118.49 226.94 118.052 226.63C117.626 226.321 117.092 226.166 116.452 226.166C115.62 226.166 114.948 226.454 114.436 227.03C113.924 227.596 113.668 228.401 113.668 229.446C113.668 230.502 113.924 231.318 114.436 231.894C114.948 232.47 115.62 232.758 116.452 232.758C117.092 232.758 117.626 232.609 118.052 232.31C118.479 232.012 118.772 231.585 118.932 231.03H120.5C120.266 231.926 119.796 232.646 119.092 233.19C118.388 233.724 117.508 233.99 116.452 233.99C115.62 233.99 114.879 233.804 114.228 233.43C113.588 233.057 113.087 232.529 112.724 231.846C112.362 231.164 112.18 230.364 112.18 229.446ZM123.195 223.654C122.918 223.654 122.683 223.558 122.491 223.366C122.299 223.174 122.203 222.94 122.203 222.662C122.203 222.385 122.299 222.15 122.491 221.958C122.683 221.766 122.918 221.67 123.195 221.67C123.462 221.67 123.686 221.766 123.867 221.958C124.059 222.15 124.155 222.385 124.155 222.662C124.155 222.94 124.059 223.174 123.867 223.366C123.686 223.558 123.462 223.654 123.195 223.654ZM123.899 225.078V233.846H122.443V225.078H123.899ZM130.204 233.99C129.383 233.99 128.636 233.804 127.964 233.43C127.303 233.057 126.78 232.529 126.396 231.846C126.023 231.153 125.836 230.353 125.836 229.446C125.836 228.55 126.028 227.761 126.412 227.078C126.807 226.385 127.34 225.857 128.012 225.494C128.684 225.121 129.436 224.934 130.268 224.934C131.1 224.934 131.852 225.121 132.524 225.494C133.196 225.857 133.724 226.38 134.108 227.062C134.503 227.745 134.7 228.54 134.7 229.446C134.7 230.353 134.498 231.153 134.092 231.846C133.698 232.529 133.159 233.057 132.476 233.43C131.794 233.804 131.036 233.99 130.204 233.99ZM130.204 232.71C130.727 232.71 131.218 232.588 131.676 232.342C132.135 232.097 132.503 231.729 132.78 231.238C133.068 230.748 133.212 230.15 133.212 229.446C133.212 228.742 133.074 228.145 132.796 227.654C132.519 227.164 132.156 226.801 131.708 226.566C131.26 226.321 130.775 226.198 130.252 226.198C129.719 226.198 129.228 226.321 128.78 226.566C128.343 226.801 127.991 227.164 127.724 227.654C127.458 228.145 127.324 228.742 127.324 229.446C127.324 230.161 127.452 230.764 127.708 231.254C127.975 231.745 128.327 232.113 128.764 232.358C129.202 232.593 129.682 232.71 130.204 232.71ZM140.887 224.918C141.953 224.918 142.817 225.244 143.479 225.894C144.14 226.534 144.471 227.462 144.471 228.678V233.846H143.031V228.886C143.031 228.012 142.812 227.345 142.375 226.886C141.937 226.417 141.34 226.182 140.583 226.182C139.815 226.182 139.201 226.422 138.743 226.902C138.295 227.382 138.071 228.081 138.071 228.998V233.846H136.615V225.078H138.071V226.326C138.359 225.878 138.748 225.532 139.239 225.286C139.74 225.041 140.289 224.918 140.887 224.918ZM146.305 229.43C146.305 228.534 146.487 227.75 146.849 227.078C147.212 226.396 147.708 225.868 148.337 225.494C148.977 225.121 149.687 224.934 150.465 224.934C151.233 224.934 151.9 225.1 152.465 225.43C153.031 225.761 153.452 226.177 153.729 226.678V225.078H155.201V233.846H153.729V232.214C153.441 232.726 153.009 233.153 152.433 233.494C151.868 233.825 151.207 233.99 150.449 233.99C149.671 233.99 148.967 233.798 148.337 233.414C147.708 233.03 147.212 232.492 146.849 231.798C146.487 231.105 146.305 230.316 146.305 229.43ZM153.729 229.446C153.729 228.785 153.596 228.209 153.329 227.718C153.063 227.228 152.7 226.854 152.241 226.598C151.793 226.332 151.297 226.198 150.753 226.198C150.209 226.198 149.713 226.326 149.265 226.582C148.817 226.838 148.46 227.212 148.193 227.702C147.927 228.193 147.793 228.769 147.793 229.43C147.793 230.102 147.927 230.689 148.193 231.19C148.46 231.681 148.817 232.06 149.265 232.326C149.713 232.582 150.209 232.71 150.753 232.71C151.297 232.71 151.793 232.582 152.241 232.326C152.7 232.06 153.063 231.681 153.329 231.19C153.596 230.689 153.729 230.108 153.729 229.446ZM159.118 226.502C159.374 226.001 159.736 225.612 160.206 225.334C160.686 225.057 161.267 224.918 161.95 224.918V226.422H161.566C159.934 226.422 159.118 227.308 159.118 229.078V233.846H157.662V225.078H159.118V226.502ZM175.896 229.126C175.896 229.404 175.88 229.697 175.848 230.006H168.84C168.893 230.87 169.187 231.548 169.72 232.038C170.264 232.518 170.92 232.758 171.688 232.758C172.317 232.758 172.84 232.614 173.256 232.326C173.683 232.028 173.981 231.633 174.152 231.142H175.72C175.485 231.985 175.016 232.673 174.312 233.206C173.608 233.729 172.733 233.99 171.688 233.99C170.856 233.99 170.109 233.804 169.448 233.43C168.797 233.057 168.285 232.529 167.912 231.846C167.539 231.153 167.352 230.353 167.352 229.446C167.352 228.54 167.533 227.745 167.896 227.062C168.259 226.38 168.765 225.857 169.416 225.494C170.077 225.121 170.835 224.934 171.688 224.934C172.52 224.934 173.256 225.116 173.896 225.478C174.536 225.841 175.027 226.342 175.368 226.982C175.72 227.612 175.896 228.326 175.896 229.126ZM174.392 228.822C174.392 228.268 174.269 227.793 174.024 227.398C173.779 226.993 173.443 226.689 173.016 226.486C172.6 226.273 172.136 226.166 171.624 226.166C170.888 226.166 170.259 226.401 169.736 226.87C169.224 227.34 168.931 227.99 168.856 228.822H174.392ZM180.922 233.99C180.25 233.99 179.647 233.878 179.114 233.654C178.581 233.42 178.159 233.1 177.85 232.694C177.541 232.278 177.37 231.804 177.338 231.27H178.842C178.885 231.708 179.087 232.065 179.45 232.342C179.823 232.62 180.309 232.758 180.906 232.758C181.461 232.758 181.898 232.636 182.218 232.39C182.538 232.145 182.698 231.836 182.698 231.462C182.698 231.078 182.527 230.796 182.186 230.614C181.845 230.422 181.317 230.236 180.602 230.054C179.951 229.884 179.418 229.713 179.002 229.542C178.597 229.361 178.245 229.1 177.946 228.758C177.658 228.406 177.514 227.948 177.514 227.382C177.514 226.934 177.647 226.524 177.914 226.15C178.181 225.777 178.559 225.484 179.05 225.27C179.541 225.046 180.101 224.934 180.73 224.934C181.701 224.934 182.485 225.18 183.082 225.67C183.679 226.161 183.999 226.833 184.042 227.686H182.586C182.554 227.228 182.367 226.86 182.026 226.582C181.695 226.305 181.247 226.166 180.682 226.166C180.159 226.166 179.743 226.278 179.434 226.502C179.125 226.726 178.97 227.02 178.97 227.382C178.97 227.67 179.061 227.91 179.242 228.102C179.434 228.284 179.669 228.433 179.946 228.55C180.234 228.657 180.629 228.78 181.13 228.918C181.759 229.089 182.271 229.26 182.666 229.43C183.061 229.59 183.397 229.836 183.674 230.166C183.962 230.497 184.111 230.929 184.122 231.462C184.122 231.942 183.989 232.374 183.722 232.758C183.455 233.142 183.077 233.446 182.586 233.67C182.106 233.884 181.551 233.99 180.922 233.99ZM187.633 226.694C187.921 226.193 188.348 225.777 188.913 225.446C189.489 225.105 190.156 224.934 190.913 224.934C191.692 224.934 192.396 225.121 193.025 225.494C193.665 225.868 194.167 226.396 194.529 227.078C194.892 227.75 195.073 228.534 195.073 229.43C195.073 230.316 194.892 231.105 194.529 231.798C194.167 232.492 193.665 233.03 193.025 233.414C192.396 233.798 191.692 233.99 190.913 233.99C190.167 233.99 189.505 233.825 188.929 233.494C188.364 233.153 187.932 232.732 187.633 232.23V238.006H186.177V225.078H187.633V226.694ZM193.585 229.43C193.585 228.769 193.452 228.193 193.185 227.702C192.919 227.212 192.556 226.838 192.097 226.582C191.649 226.326 191.153 226.198 190.609 226.198C190.076 226.198 189.58 226.332 189.121 226.598C188.673 226.854 188.311 227.233 188.033 227.734C187.767 228.225 187.633 228.796 187.633 229.446C187.633 230.108 187.767 230.689 188.033 231.19C188.311 231.681 188.673 232.06 189.121 232.326C189.58 232.582 190.076 232.71 190.609 232.71C191.153 232.71 191.649 232.582 192.097 232.326C192.556 232.06 192.919 231.681 193.185 231.19C193.452 230.689 193.585 230.102 193.585 229.43ZM204.99 229.126C204.99 229.404 204.974 229.697 204.942 230.006H197.934C197.987 230.87 198.28 231.548 198.814 232.038C199.358 232.518 200.014 232.758 200.782 232.758C201.411 232.758 201.934 232.614 202.35 232.326C202.776 232.028 203.075 231.633 203.246 231.142H204.814C204.579 231.985 204.11 232.673 203.406 233.206C202.702 233.729 201.827 233.99 200.782 233.99C199.95 233.99 199.203 233.804 198.542 233.43C197.891 233.057 197.379 232.529 197.006 231.846C196.632 231.153 196.446 230.353 196.446 229.446C196.446 228.54 196.627 227.745 196.99 227.062C197.352 226.38 197.859 225.857 198.51 225.494C199.171 225.121 199.928 224.934 200.782 224.934C201.614 224.934 202.35 225.116 202.99 225.478C203.63 225.841 204.12 226.342 204.462 226.982C204.814 227.612 204.99 228.326 204.99 229.126ZM203.486 228.822C203.486 228.268 203.363 227.793 203.118 227.398C202.872 226.993 202.536 226.689 202.11 226.486C201.694 226.273 201.23 226.166 200.718 226.166C199.982 226.166 199.352 226.401 198.83 226.87C198.318 227.34 198.024 227.99 197.95 228.822H203.486ZM206.368 229.446C206.368 228.54 206.549 227.75 206.912 227.078C207.274 226.396 207.776 225.868 208.416 225.494C209.066 225.121 209.808 224.934 210.64 224.934C211.717 224.934 212.602 225.196 213.296 225.718C214 226.241 214.464 226.966 214.688 227.894H213.12C212.97 227.361 212.677 226.94 212.24 226.63C211.813 226.321 211.28 226.166 210.64 226.166C209.808 226.166 209.136 226.454 208.624 227.03C208.112 227.596 207.856 228.401 207.856 229.446C207.856 230.502 208.112 231.318 208.624 231.894C209.136 232.47 209.808 232.758 210.64 232.758C211.28 232.758 211.813 232.609 212.24 232.31C212.666 232.012 212.96 231.585 213.12 231.03H214.688C214.453 231.926 213.984 232.646 213.28 233.19C212.576 233.724 211.696 233.99 210.64 233.99C209.808 233.99 209.066 233.804 208.416 233.43C207.776 233.057 207.274 232.529 206.912 231.846C206.549 231.164 206.368 230.364 206.368 229.446ZM217.382 223.654C217.105 223.654 216.87 223.558 216.678 223.366C216.486 223.174 216.39 222.94 216.39 222.662C216.39 222.385 216.486 222.15 216.678 221.958C216.87 221.766 217.105 221.67 217.382 221.67C217.649 221.67 217.873 221.766 218.054 221.958C218.246 222.15 218.342 222.385 218.342 222.662C218.342 222.94 218.246 223.174 218.054 223.366C217.873 223.558 217.649 223.654 217.382 223.654ZM218.086 225.078V233.846H216.63V225.078H218.086ZM228.568 229.126C228.568 229.404 228.552 229.697 228.52 230.006H221.512C221.565 230.87 221.859 231.548 222.392 232.038C222.936 232.518 223.592 232.758 224.36 232.758C224.989 232.758 225.512 232.614 225.928 232.326C226.355 232.028 226.653 231.633 226.824 231.142H228.392C228.157 231.985 227.688 232.673 226.984 233.206C226.28 233.729 225.405 233.99 224.36 233.99C223.528 233.99 222.781 233.804 222.12 233.43C221.469 233.057 220.957 232.529 220.584 231.846C220.211 231.153 220.024 230.353 220.024 229.446C220.024 228.54 220.205 227.745 220.568 227.062C220.931 226.38 221.437 225.857 222.088 225.494C222.749 225.121 223.507 224.934 224.36 224.934C225.192 224.934 225.928 225.116 226.568 225.478C227.208 225.841 227.699 226.342 228.04 226.982C228.392 227.612 228.568 228.326 228.568 229.126ZM227.064 228.822C227.064 228.268 226.941 227.793 226.696 227.398C226.451 226.993 226.115 226.689 225.688 226.486C225.272 226.273 224.808 226.166 224.296 226.166C223.56 226.166 222.931 226.401 222.408 226.87C221.896 227.34 221.603 227.99 221.528 228.822H227.064Z" fill="#201A18"/>
<path d="M20.9188 233.43C20.6788 232.63 20.8588 231.72 21.4888 231.09C21.6788 230.9 21.6788 230.59 21.4888 230.4C21.2988 230.21 20.9888 230.21 20.7988 230.4C19.8688 231.33 19.6188 232.69 20.0288 233.85C19.9288 234 19.8488 234.18 19.8488 234.37C19.8488 234.91 20.2788 235.34 20.8188 235.34C21.3588 235.34 21.7888 234.91 21.7888 234.37C21.7888 233.86 21.3988 233.46 20.9088 233.42L20.9188 233.43Z" fill="white"/>
<path d="M42.0188 233.68L38.4688 230.13C37.8788 229.54 36.9288 229.43 36.2288 229.88C35.2488 230.51 34.1088 230.76 32.9388 230.61C30.8188 230.33 29.0788 228.58 28.8088 226.45C28.6188 224.94 29.1188 223.46 30.1888 222.39C31.2588 221.32 32.7388 220.82 34.2488 221.01C36.4488 221.29 38.2088 223.09 38.4288 225.3C38.4888 225.87 38.4488 226.43 38.3188 226.97C37.8688 227.05 37.5188 227.43 37.5188 227.91C37.5188 228.45 37.9488 228.88 38.4888 228.88C39.0288 228.88 39.4588 228.45 39.4588 227.91C39.4588 227.68 39.3688 227.47 39.2288 227.31C39.4088 226.63 39.4688 225.92 39.3988 225.21C39.1288 222.56 37.0188 220.39 34.3688 220.06C32.5488 219.83 30.7788 220.44 29.5088 221.72C28.2288 223 27.6288 224.77 27.8588 226.59C28.1788 229.15 30.2688 231.25 32.8188 231.59C34.2088 231.78 35.6088 231.46 36.7688 230.72C37.0888 230.51 37.5188 230.56 37.7888 230.84L41.3388 234.39C41.4288 234.48 41.5588 234.53 41.6788 234.53C41.7988 234.53 41.9288 234.48 42.0188 234.39C42.2088 234.2 42.2088 233.89 42.0188 233.7V233.68Z" fill="white"/>
<path d="M34.7589 222.17C34.6089 221.82 34.2689 221.57 33.8689 221.57C33.3289 221.57 32.8989 222 32.8989 222.54C32.8989 223.08 33.3289 223.51 33.8689 223.51C34.1789 223.51 34.4389 223.36 34.6189 223.13C35.5189 223.37 36.1989 224.18 36.1989 225.16C36.1989 225.43 36.4189 225.64 36.6789 225.64C36.9389 225.64 37.1589 225.42 37.1589 225.16C37.1589 223.7 36.1289 222.48 34.7589 222.17Z" fill="white"/>
<path d="M24.3088 233.92C24.6188 233.61 24.7888 233.19 24.7888 232.75C24.7888 232.31 24.6188 231.89 24.3088 231.58C23.9988 231.27 23.5788 231.1 23.1388 231.1C22.6988 231.1 22.2788 231.27 21.9688 231.58C21.3288 232.22 21.3288 233.27 21.9688 233.92C22.2788 234.23 22.6988 234.4 23.1388 234.4C23.5788 234.4 23.9988 234.23 24.3088 233.92ZM22.6588 232.27C22.7888 232.14 22.9588 232.07 23.1388 232.07C23.3188 232.07 23.4888 232.14 23.6188 232.27C23.7488 232.4 23.8188 232.57 23.8188 232.75C23.8188 232.93 23.7488 233.1 23.6188 233.23C23.3588 233.49 22.9088 233.49 22.6488 233.23C22.3788 232.96 22.3788 232.53 22.6488 232.26L22.6588 232.27Z" fill="white"/>
<path d="M25.4889 235.09C26.1189 234.46 26.4589 233.63 26.4589 232.75C26.4589 231.87 26.1189 231.03 25.4889 230.41C25.0689 229.99 24.5489 229.71 23.9889 229.56C23.8789 229.15 23.5189 228.84 23.0689 228.84C22.5289 228.84 22.0989 229.27 22.0989 229.81C22.0989 230.35 22.5289 230.78 23.0689 230.78C23.3389 230.78 23.5789 230.67 23.7589 230.5C24.1489 230.6 24.5189 230.8 24.8089 231.1C25.2489 231.54 25.4989 232.13 25.4989 232.76C25.4989 233.39 25.2589 233.97 24.8089 234.42C24.2289 235 23.3989 235.24 22.5889 235.04C22.3189 234.97 22.0689 235.13 21.9989 235.39C21.9289 235.65 22.0889 235.91 22.3489 235.98C22.6189 236.05 22.8889 236.08 23.1589 236.08C24.0289 236.08 24.8589 235.74 25.4889 235.11V235.09Z" fill="white"/>
<path d="M33.6189 232.26C33.3489 232.26 33.1389 232.48 33.1389 232.74C33.1389 233.43 32.9589 234.07 32.6689 234.65C32.6389 234.65 32.5989 234.63 32.5689 234.63H30.6589C30.4889 234.35 30.1889 234.14 29.8389 234.14C29.2989 234.14 28.8689 234.57 28.8689 235.11C28.8689 235.65 29.2989 236.08 29.8389 236.08C30.1889 236.08 30.4889 235.88 30.6589 235.6H32.0189C31.2389 236.45 30.1289 237 28.8889 237H26.1589C26.3989 236.83 26.6289 236.65 26.8489 236.44C27.7289 235.56 28.2089 234.44 28.3289 233.29H30.8089C30.9789 233.57 31.2789 233.77 31.6289 233.77C32.1689 233.77 32.5989 233.34 32.5989 232.8C32.5989 232.26 32.1689 231.83 31.6289 231.83C31.2789 231.83 30.9789 232.03 30.8089 232.31H28.3389C28.2389 231.12 27.7589 229.95 26.8489 229.04C26.6389 228.83 26.3989 228.65 26.1589 228.48H26.9589C27.2289 228.48 27.4389 228.26 27.4389 228C27.4389 227.74 27.2189 227.52 26.9589 227.52H23.3489C23.3489 227.52 23.2989 227.53 23.2789 227.53C21.8989 227.5 20.5089 227.99 19.4489 229.05C17.4089 231.09 17.4089 234.4 19.4489 236.44C20.4689 237.46 21.8089 237.97 23.1489 237.97C23.1689 237.97 23.1889 237.97 23.2089 237.97C23.2189 237.97 23.2389 237.97 23.2489 237.97H28.8889C31.7689 237.97 34.1189 235.63 34.1189 232.74C34.1189 232.47 33.8989 232.26 33.6389 232.26H33.6189ZM20.1289 229.74C20.9589 228.91 22.0489 228.5 23.1389 228.5C24.2289 228.5 25.3189 228.91 26.1489 229.74C27.8089 231.4 27.8089 234.1 26.1489 235.76C24.4889 237.42 21.7889 237.42 20.1289 235.76C18.4689 234.1 18.4689 231.4 20.1289 229.74Z" fill="white"/>
<g clip-path="url(#clip0_1074_3050)">
<mask id="mask1_1074_3050" style="mask-type:luminance" maskUnits="userSpaceOnUse" x="25" y="51" width="144" height="158">
<path d="M168.017 51.2961H25.75V208.99H168.017V51.2961Z" fill="white"/>
</mask>
<g mask="url(#mask1_1074_3050)">
<path d="M39.0597 210.114C39.0597 210.114 33.6421 206.716 35.1644 197.773C35.4349 196.175 34.4962 194.622 32.9348 194.161C31.3897 193.703 29.7534 194.469 29.1047 195.941C27.263 200.125 24.6683 208.74 30.2032 215.929L31.5527 217.222C33.5932 219.174 36.8268 219.135 38.8185 217.134C40.6634 215.279 40.8297 212.342 39.1998 210.293L39.0564 210.111L39.0597 210.114Z" fill="url(#paint0_linear_1074_3050)"/>
<path d="M38.893 210.299C35.6105 207.941 34.3295 203.591 34.7044 199.709C34.7272 199.218 34.9228 198.146 34.9879 197.656C35.4476 194.735 31.6859 193.066 29.8377 195.382C29.3259 196.048 29.1075 196.99 28.8044 197.786C27.067 202.99 26.8388 209.006 29.7432 213.83C29.9453 214.239 30.5744 215.071 30.8286 215.464L30.7504 215.376L31.5425 216.143C35.767 220.86 42.3645 215.441 38.8995 210.305L38.893 210.299ZM39.2222 209.932C41.6409 212.313 41.165 216.484 38.3356 218.368C36.2625 219.827 33.2343 219.694 31.3111 218.03C30.7374 217.556 30.1572 216.932 29.6226 216.452C25.9359 211.722 25.4828 205.751 27.142 200.144C27.5266 198.803 28.0188 197.497 28.599 196.23C28.9283 195.346 29.6324 194.459 30.5483 194.079C33.0159 192.962 35.7409 195.054 35.3693 197.705C35.34 197.987 35.2161 199.153 35.19 199.397C35.1183 201.518 35.2455 203.705 36.0604 205.68C36.7319 207.327 37.7815 208.873 39.2287 209.932H39.2222Z" fill="black"/>
<path d="M131.777 104.597C134.851 104.652 141.803 103.548 148.841 93.9518C149.574 92.9513 150.973 92.7109 152.013 93.3931C153.046 94.072 153.375 95.4364 152.756 96.5019C152.071 97.6843 151.155 99.1786 150.291 100.29C149.646 101.121 149.894 102.333 150.807 102.859C154.141 104.776 158.415 105.789 163.868 99.5879C164.565 98.792 165.742 98.6264 166.629 99.2078C167.633 99.8673 167.89 101.232 167.183 102.203C164.68 105.627 156.592 112.341 147.374 107.274C146.113 106.579 144.558 106.709 143.326 107.459C141.393 108.641 137.944 110.275 132.918 110.945C131.568 111.126 130.176 110.698 129.257 109.697C128.647 109.034 128.224 108.135 128.517 106.981C128.889 105.529 130.271 104.568 131.773 104.597H131.777Z" fill="url(#paint1_linear_1074_3050)"/>
<path d="M131.786 104.074C138.41 104.116 144.101 99.6365 148.029 94.6501C148.365 94.2765 148.72 93.6821 149.134 93.367C150.611 92.1423 153.019 93.1233 153.221 95.0237C153.306 95.6084 153.147 96.2289 152.84 96.7129C152.286 97.6679 151.706 98.6067 151.077 99.5163C150.803 99.9549 150.369 100.374 150.197 100.845C149.952 101.553 150.288 102.381 150.963 102.716C156.054 105.705 160.152 103.382 163.656 99.3376C165.448 97.3788 168.643 99.2564 167.808 101.777C167.613 102.342 167.189 102.797 166.817 103.252C162.821 107.907 156.211 110.886 150.115 108.94C149.049 108.635 147.99 108.138 147.009 107.628C146.148 107.205 145.095 107.212 144.189 107.582C143.703 107.774 143.26 108.099 142.797 108.349C140.339 109.71 137.64 110.633 134.893 111.172C133.748 111.36 132.588 111.675 131.418 111.454C129.583 111.162 127.767 109.538 127.888 107.556C127.963 105.575 129.847 103.996 131.786 104.08V104.074ZM131.767 105.123C130.358 105.078 129.019 106.189 128.966 107.605C128.914 109.034 130.261 110.145 131.61 110.382C132.627 110.574 133.673 110.272 134.687 110.119C136.816 109.713 138.899 109.083 140.867 108.196C141.901 107.767 142.804 107.124 143.827 106.669C144.962 106.218 146.305 106.215 147.429 106.773C147.99 107.066 148.678 107.42 149.258 107.66C150.617 108.203 152.058 108.56 153.521 108.641C157.844 108.904 162.039 106.855 165.135 103.931C165.722 103.379 166.273 102.788 166.765 102.148C167.228 101.625 167.368 100.845 167.049 100.208C166.553 99.1005 164.943 98.8601 164.141 99.7762L163.571 100.377C159.936 104.266 155.64 106.02 150.767 103.07C149.613 102.485 149.421 100.864 150.307 99.9744C151.129 98.8796 151.846 97.7102 152.534 96.531C153.114 95.6571 152.961 94.439 152.178 93.7503C151.204 92.8342 149.551 93.1136 148.873 94.2538L148.374 94.9165C144.453 100.202 138.706 105.094 131.77 105.13L131.767 105.123Z" fill="black"/>
<path d="M138.335 123.298C138.335 123.298 140.689 131.299 139.482 142.477C139.003 146.915 139.134 151.407 140.027 155.78C140.832 159.71 142.26 163.787 144.799 165.798C145.614 166.445 145.63 167.663 144.799 168.29C143.006 169.638 138.72 170.408 128.693 164.434C128.693 164.434 117.913 158.453 116.391 151.667C116.391 151.667 123.315 130.461 138.332 123.298H138.335Z" fill="url(#paint2_linear_1074_3050)"/>
<path d="M138.387 123.178C138.446 123.224 138.485 123.341 138.504 123.415C138.53 123.49 138.609 123.795 138.635 123.883C139.877 128.681 140.268 133.664 140.167 138.608C140.144 140.09 139.945 142.25 139.824 143.751C139.466 148.812 139.916 153.951 141.428 158.791C141.937 160.386 142.576 161.939 143.466 163.297C143.912 163.973 144.424 164.593 145.017 165.097L145.249 165.295C145.366 165.389 145.473 165.496 145.568 165.613C146.393 166.552 146.217 168.15 145.17 168.858C140.564 172.013 132.409 167.416 128.197 165.032C123.442 162.228 117.088 157.472 116.094 151.732L116.075 151.648L116.101 151.573C117.128 148.662 118.392 145.869 119.807 143.143C124.064 135.129 129.922 127.086 138.384 123.181L138.387 123.178ZM138.283 123.415C130.101 127.658 124.387 135.337 120.276 143.38C118.901 146.093 117.665 148.896 116.688 151.762C116.688 151.762 116.694 151.589 116.697 151.606C118.62 157.261 126.134 162.153 131.193 164.98C134.299 166.679 141.604 170.343 144.619 167.497C144.854 167.133 144.74 166.604 144.401 166.334L144.147 166.113C143.439 165.496 142.859 164.775 142.367 164.015C140.463 160.984 139.691 157.511 139.146 154.052C138.648 150.612 138.596 147.123 138.915 143.679C139.065 142.192 139.303 140.054 139.381 138.579C139.645 133.586 139.378 128.535 138.292 123.643L138.253 123.487C138.25 123.467 138.234 123.419 138.24 123.425C138.244 123.428 138.266 123.432 138.286 123.415H138.283Z" fill="black"/>
<path d="M95.3204 87.9976C95.7931 87.6858 96.3081 87.4454 96.8557 87.2959C100.48 86.3052 114.631 83.5407 128.706 95.7387C128.706 95.7387 139.612 105.435 138.85 122.022C138.755 124.078 138.253 126.099 137.373 127.964C136.666 129.464 135.808 131.212 135.303 131.956C133.569 134.509 133.563 135.136 133.66 137.722C133.758 140.308 128.051 146.717 123.715 148.663C123.715 148.663 111.195 155.569 94.6685 149.943C94.6685 149.943 93.5537 150.047 91.8261 151.297C90.4114 152.321 88.749 152.951 87.0083 153.09C82.7643 153.432 78.9505 150.518 78.1845 146.343C77.9465 145.038 78.3018 143.702 79.1428 142.673C80.4564 141.068 81.9754 138.245 80.0653 135.126C80.0653 135.126 70.8209 120.408 76.5677 114.996L75.2736 113.683C71.4403 109.795 72.1085 103.386 76.6655 100.368L95.3237 87.9976H95.3204Z" fill="url(#paint3_linear_1074_3050)"/>
<path d="M95.1507 87.744C96.0145 87.13 97.0804 86.8864 98.0877 86.6492C99.0884 86.4219 100.099 86.2432 101.113 86.1067C107.237 85.2524 113.571 86.2952 119.165 88.8972C122.672 90.4889 125.912 92.6329 128.803 95.1635C130.531 96.7163 131.942 98.5971 133.227 100.501C136.607 105.611 138.66 111.585 139.104 117.688C139.299 120.739 139.29 123.886 138.198 126.787C137.686 128.168 136.93 129.633 136.268 130.945C135.636 132.251 134.531 133.486 134.165 134.866C133.924 135.763 134.029 136.75 134.061 137.777C134.035 138.94 133.487 139.862 132.94 140.808C131.274 143.442 129.11 145.684 126.649 147.578C123.79 149.705 120.345 150.933 116.857 151.801C110.729 153.272 104.193 153.194 98.1333 151.453C96.924 151.125 95.7537 150.654 94.5738 150.238H94.5672L94.6944 150.254C93.635 150.43 92.6766 151.044 91.79 151.658C89.8668 152.96 87.4612 153.578 85.1566 153.22C81.6884 152.733 78.758 149.939 78.0865 146.519C77.8224 145.385 78.0441 144.157 78.6276 143.15C78.9144 142.646 79.3121 142.247 79.5957 141.75C80.8963 139.775 81.0234 137.244 79.625 135.311C76.4306 130.549 71.0815 119.508 76.3915 114.823L76.3849 115.174L75.5211 114.29C72.4603 111.445 71.6421 107.004 73.6631 103.314C73.8163 102.976 74.1456 102.56 74.3411 102.248C74.478 102.079 74.8203 101.686 74.9539 101.524C75.0843 101.371 75.495 101.024 75.6417 100.868C77.4182 99.5262 92.9472 89.248 95.1475 87.7505L95.1507 87.744ZM95.4897 88.2507C94.1533 89.1571 77.7964 99.8543 76.9032 100.475C76.4077 100.8 75.9221 101.199 75.4983 101.612C75.231 101.836 74.9311 102.248 74.6964 102.508C74.5041 102.804 74.201 103.207 74.051 103.522C72.1083 107.03 72.9427 111.269 75.8732 113.946C76.0133 114.096 76.7924 114.869 76.9 114.982C72.4929 119.576 77.8159 129.679 80.2183 134.457C81.7764 136.939 81.5775 139.599 79.9053 141.945C79.5957 142.416 79.185 142.828 78.8916 143.299C77.6334 145.239 78.4418 147.747 79.6478 149.514C81.558 152.301 85.274 153.548 88.5043 152.613C89.5735 152.324 90.5872 151.849 91.4869 151.213C92.4322 150.524 93.4492 149.858 94.6389 149.647L94.6846 149.64C95.3137 149.793 95.9493 149.936 96.5719 150.098C98.3517 150.55 100.174 150.878 101.996 151.096C109.219 152.005 116.837 151.213 123.457 148.107C125.224 147.318 126.831 146.087 128.275 144.784C129.736 143.446 131.101 141.971 132.18 140.33C132.669 139.577 133.197 138.657 133.249 137.787C133.249 136.809 133.161 135.74 133.455 134.675C133.764 133.619 134.361 132.752 134.925 131.91C135.479 131.111 135.922 130.198 136.372 129.302C136.737 128.525 137.334 127.382 137.614 126.576C138.328 124.715 138.569 122.72 138.559 120.735C138.612 115.739 137.552 110.733 135.437 106.199C133.768 102.599 131.502 99.2013 128.679 96.4109C127.962 95.758 127.154 95.1148 126.378 94.5333C120.847 90.2778 114.151 87.5621 107.179 86.9611C104.206 86.672 101.168 86.7532 98.2278 87.3152C97.2662 87.5101 96.3079 87.6985 95.4865 88.2507H95.4897Z" fill="black"/>
<path d="M95.9432 87.7148C95.9432 87.7148 76.7275 103.496 42.9185 105.244C41.6016 105.312 40.6661 106.559 41.0018 107.833C41.9178 111.321 45.0862 117.796 56.0516 122.743C56.0516 122.743 62.9066 125.579 70.3549 125.793C72.1999 125.849 74.0188 125.391 75.6127 124.465C78.4323 122.831 83.0578 119.332 87.794 112.26" fill="url(#paint4_linear_1074_3050)"/>
<path d="M96.1842 88.0038C93.2538 90.3622 89.9974 92.3665 86.7052 94.1564C83.3999 95.9658 79.9773 97.5608 76.4634 98.9186C73.1255 100.273 69.2106 101.488 65.7359 102.485C63.6138 103.012 60.5139 103.811 58.3854 104.178C57.2999 104.386 55.7516 104.691 54.6726 104.857L50.9338 105.364C49.8321 105.533 48.3065 105.688 47.182 105.763L43.4203 106.069C43.0357 106.098 42.5011 106.104 42.2077 106.41C41.8524 106.728 41.7155 107.215 41.8524 107.664L41.973 108.086C42.0774 108.573 42.4098 109.262 42.5826 109.739C44.17 113.309 46.9929 116.201 50.158 118.445C51.8791 119.676 53.7632 120.748 55.6799 121.658C58.1539 122.821 60.8399 123.545 63.516 124.179C65.8988 124.702 68.3338 125.072 70.7753 125.144C73.1907 125.199 75.4072 124.088 77.3402 122.717C81.4115 119.92 84.795 116.181 87.6928 112.195C87.7287 112.146 87.7971 112.133 87.8493 112.169C87.8982 112.202 87.908 112.27 87.8786 112.319C84.5505 117.555 80.3 122.717 74.6575 125.585C73.145 126.238 71.4696 126.524 69.8202 126.423L68.8651 126.388C66.9615 126.271 65.0709 126.014 63.2031 125.631C60.4096 125.027 57.5998 124.344 54.9921 123.136C54.7085 123.003 53.9685 122.649 53.6947 122.519C48.7075 119.975 44.0168 116.382 41.4156 111.318C41.0147 110.503 40.5649 109.457 40.3106 108.583C40.2226 108.258 40.0727 107.829 40.0662 107.478C39.9553 106.013 41.0766 104.633 42.5239 104.409C42.9672 104.353 46.4877 104.097 47.0255 104.054C48.1436 103.983 49.6365 103.843 50.7219 103.681C52.9157 103.424 55.9374 102.986 58.0659 102.557C60.1586 102.226 63.2422 101.478 65.3317 100.998L68.9108 99.9939C73.6503 98.6133 78.3409 96.8429 82.8262 94.7898C85.0199 93.7861 87.3538 92.6134 89.4498 91.4114C91.5946 90.1802 93.7297 88.8841 95.692 87.4158C95.8583 87.2794 96.1092 87.3054 96.2396 87.4808C96.3635 87.6432 96.3309 87.8738 96.1744 88.0005L96.1842 88.0038Z" fill="black"/>
<path d="M97.7944 151.015C94.9814 150.586 92.4225 148.932 90.8938 146.554C90.8123 146.437 90.9981 146.311 91.0763 146.434C92.6312 148.63 95.1737 150.128 97.8466 150.41C98.2671 150.433 98.2182 151.063 97.7944 151.018V151.015Z" fill="black"/>
<path d="M111.707 122.948C109.024 127.005 105.504 125.098 101.432 122.425C97.3611 119.751 94.2775 117.321 96.9602 113.264C99.6429 109.207 102.606 112.861 106.677 115.535C110.749 118.208 114.39 118.89 111.707 122.948Z" fill="white"/>
<path d="M112.232 123.289C108.454 128.753 103.127 123.714 99.2484 121.154C97.6838 120.017 95.9464 118.682 95.6531 116.6C95.4184 114.677 96.6864 112.325 98.3325 111.351C101.025 109.963 104.19 113.329 106.348 114.628C109.494 116.948 115.82 118.234 112.232 123.285V123.289ZM111.185 122.603C111.593 121.934 112.023 121.115 111.945 120.365C111.893 119.725 111.283 119.144 110.543 118.63C109.803 118.12 108.972 117.646 108.147 117.146C106.491 116.178 104.914 114.979 103.404 113.81C102.303 113.011 101.211 112.104 99.8743 111.903C97.8892 111.633 96.1061 114.774 96.3115 116.522C96.6961 119.196 99.7015 121.051 101.853 122.431C104.839 124.263 108.884 126.625 111.182 122.6L111.185 122.603Z" fill="black"/>
<path d="M110.291 121.58C109.271 123.123 107.966 123.433 107.08 122.849C106.193 122.267 106.056 121.011 107.08 119.468C108.1 117.925 109.649 117.145 110.536 117.73C111.422 118.315 111.315 120.037 110.294 121.58H110.291Z" fill="#429195"/>
<path d="M130.424 135.237C127.741 139.294 126.02 137.452 123.513 135.805C121.007 134.158 118.666 133.333 121.349 129.276C124.032 125.218 125.586 127.388 128.093 129.032C130.6 130.679 133.106 131.176 130.424 135.233V135.237Z" fill="white"/>
<path d="M130.707 135.425C129.778 136.89 128.044 138.69 126.154 137.731C125.489 137.426 124.1 136.448 123.464 136.055C120.133 134.135 118.591 132.995 120.902 129.181C121.861 127.534 123.536 125.67 125.625 126.742C126.6 127.216 127.405 127.97 128.259 128.554C129.413 129.418 130.815 129.867 131.669 131.189C132.471 132.621 131.493 134.246 130.704 135.425H130.707ZM130.14 135.051C132.432 131.433 130.616 131.153 127.708 129.376C126.493 128.697 125.022 127.031 123.618 127.635C122.773 128.054 122.177 128.857 121.626 129.643C121.248 130.195 120.909 130.773 120.694 131.374C120.146 132.725 120.866 133.755 122.001 134.512C125.218 136.464 127.327 139.534 130.14 135.051Z" fill="black"/>
<path d="M129.966 134.434C128.945 135.977 127.641 136.192 126.755 135.61C125.868 135.029 125.731 133.869 126.754 132.322C127.775 130.779 129.323 129.999 130.21 130.584C131.097 131.166 130.989 132.891 129.969 134.434H129.966Z" fill="#429195"/>
<path d="M123.852 123.922C124.937 123.734 125.941 124.013 126.945 124.266C127.949 124.52 128.94 124.832 129.908 125.215C131.845 125.975 133.813 127.018 135.085 128.717C135.326 129.009 134.899 129.396 134.632 129.12C133.25 127.713 131.372 126.907 129.521 126.258C128.585 125.926 127.62 125.657 126.652 125.413C125.664 125.166 124.67 125.017 123.757 124.517C123.493 124.387 123.565 123.961 123.855 123.922H123.852Z" fill="black"/>
<path d="M116.818 109.645C116.003 109.723 115.325 109.47 114.64 109.22C113.956 108.976 113.261 108.745 112.564 108.534C108.401 107.277 104.05 106.319 99.6816 106.718C99.3035 106.751 99.222 106.189 99.6001 106.117C102.557 105.494 105.627 105.695 108.58 106.211C110.794 106.621 112.965 107.206 115.087 107.946C115.797 108.18 116.505 108.443 117.052 109.09C117.235 109.294 117.085 109.642 116.811 109.648L116.818 109.645Z" fill="black"/>
<path d="M111.521 132.849C113.007 133.245 115.442 134.041 116.495 135.217C117.079 135.87 117.04 136.871 116.411 137.481C115.83 138.043 114.777 138.79 113.418 138.592C112.763 138.498 112.167 138.164 111.681 137.712C110.96 137.043 110.015 135.799 110.087 133.911C110.113 133.18 110.81 132.664 111.521 132.852V132.849Z" fill="black"/>
<path d="M112.779 137.767C112.244 138.521 111.729 139.284 111.24 140.067C111.1 140.301 110.924 140.519 110.689 140.661C110.031 141.126 109.148 140.83 108.424 140.71C103.867 139.71 99.3036 138.472 95.2355 136.127C94.7759 135.851 92.4094 134.33 93.1102 133.797C93.2406 133.72 93.4003 133.749 93.5014 133.856C94.8802 134.938 96.6632 135.5 98.2703 136.201C99.962 136.887 101.673 137.546 103.388 138.206C105.52 138.966 107.642 139.885 109.871 140.275C110.249 140.291 110.566 140.077 110.761 139.749C111.289 138.992 111.791 138.219 112.274 137.433C112.492 137.085 113.017 137.423 112.782 137.767H112.779Z" fill="black"/>
<path d="M115.766 145.431C113.226 145.285 111.244 142.952 110.234 140.811C110.074 140.476 110.556 140.204 110.762 140.509C111.763 141.88 112.93 143.17 114.413 144.028C114.896 144.323 115.414 144.603 115.906 144.853C116.193 144.986 116.076 145.444 115.766 145.431Z" fill="black"/>
<path d="M107.254 88.4913C105.99 85.7008 104.268 78.8953 110.341 68.6658C110.974 67.6003 110.644 66.223 109.608 65.5408C108.574 64.8619 107.189 65.099 106.446 66.0866C105.628 67.178 104.611 68.6106 103.926 69.8385C103.414 70.7579 102.199 71.0112 101.354 70.381C98.2739 68.0811 92.7293 62.6464 96.2953 55.2107C96.7517 54.2589 96.442 53.1154 95.5554 52.5339C94.5514 51.8745 93.1922 52.1766 92.5761 53.2096C90.4052 56.8511 87.2531 65.596 98.6325 75.27C99.731 76.2023 100.266 77.6284 100.057 79.048C99.731 81.2862 99.5811 85.0869 100.947 89.9531C101.312 91.2622 102.257 92.3634 103.542 92.815C104.392 93.1106 105.39 93.1463 106.338 92.4219C107.531 91.5091 107.87 89.8621 107.254 88.4978V88.4913Z" fill="url(#paint5_linear_1074_3050)"/>
<path d="M106.847 88.673C104.956 84.2519 105.526 79.2492 107.137 74.867C107.935 72.6743 108.991 70.592 110.162 68.5877C110.439 68.1297 110.536 67.5774 110.426 67.0544C110.103 65.3328 107.805 64.7448 106.69 66.1026C106.006 66.9992 105.337 67.9608 104.725 68.9256C104.382 69.4161 104.18 69.9943 103.75 70.4231C103.157 70.9981 102.189 71.1313 101.458 70.7317C101.051 70.4978 100.735 70.212 100.373 69.9293C96.0441 66.4697 93.3451 61.3176 95.5649 55.8505C95.7377 55.3534 96.0636 54.8922 96.0701 54.3529C96.0864 53.8884 95.8941 53.4304 95.5682 53.112C94.9195 52.4461 93.7297 52.4948 93.1528 53.216C90.0431 58.1114 90.4766 64.1698 93.7036 68.8963C95.0988 71.0143 96.8818 72.8822 98.7952 74.5487C99.0103 74.7306 99.2939 74.9872 99.483 75.1919C100.386 76.1794 100.849 77.547 100.718 78.8789C100.653 79.3597 100.555 80.1068 100.523 80.5876C100.347 82.829 100.516 85.103 100.924 87.3314C101.145 88.3709 101.321 89.5631 101.758 90.5279C102.384 91.8435 103.972 92.8636 105.412 92.3665C106.856 91.8468 107.479 90.0439 106.843 88.6665L106.847 88.673ZM107.658 88.3092C108.916 90.8917 106.713 94.1629 103.756 93.4061C102.133 93.026 100.872 91.6876 100.419 90.1251L100.184 89.274C99.3233 85.9963 98.968 82.5562 99.395 79.168C99.4928 78.5508 99.483 77.9108 99.2744 77.3164C98.981 76.2931 98.0553 75.6109 97.2925 74.9352C90.7243 69.1367 87.1681 60.5055 92.4259 52.589C94.0035 50.7828 97.0546 51.9913 96.9242 54.3854C96.9111 55.0286 96.5558 55.5711 96.3244 56.1493C95.9039 57.1856 95.604 58.2738 95.5291 59.3848C95.1705 63.8482 98.2117 67.8211 101.693 70.3029C102.244 70.6115 102.981 70.5173 103.44 70.0853C103.799 69.7247 104.043 69.1205 104.356 68.6852C104.995 67.7041 105.657 66.7718 106.387 65.8363C107.704 64.2608 110.4 64.9624 110.791 66.97C110.924 67.5807 110.814 68.2401 110.491 68.7761C109.177 71.0111 108.108 73.376 107.342 75.8416C106.155 79.8632 105.888 84.4305 107.655 88.3027L107.658 88.3092Z" fill="black"/>
<path d="M110.297 120.255C110.508 120.255 110.679 120.084 110.679 119.874C110.679 119.664 110.508 119.494 110.297 119.494C110.086 119.494 109.915 119.664 109.915 119.874C109.915 120.084 110.086 120.255 110.297 120.255Z" fill="white"/>
<path d="M130.1 133.194C130.311 133.194 130.482 133.023 130.482 132.813C130.482 132.603 130.311 132.432 130.1 132.432C129.889 132.432 129.718 132.603 129.718 132.813C129.718 133.023 129.889 133.194 130.1 133.194Z" fill="white"/>
<path d="M116.147 136.602C116.358 136.602 116.529 136.432 116.529 136.221C116.529 136.011 116.358 135.841 116.147 135.841C115.936 135.841 115.765 136.011 115.765 136.221C115.765 136.432 115.936 136.602 116.147 136.602Z" fill="white"/>
<path d="M111.613 152.415C110.847 152.155 109.875 151.872 108.976 151.745C108.734 151.713 108.549 151.947 108.637 152.171C108.764 152.489 108.966 152.765 109.213 153.003C110.038 153.789 110.618 154.952 110.726 155.179C110.739 155.205 110.746 155.231 110.752 155.26C111.955 162.725 109.363 168.826 107.913 171.525C107.424 172.435 106.404 172.932 105.383 172.757C97.5146 171.382 96.0706 170.509 94.0561 169.225C93.427 168.823 91.556 167.699 89.2156 164.645C87.5303 162.443 86.3927 161.27 86.3927 161.27C86.0993 160.76 85.907 159.919 85.907 159.919L73.0705 155.049C71.2191 155.751 65.4006 165.548 63.0211 169.667C62.405 170.733 61.6716 171.724 60.8273 172.62C58.5912 174.988 55.5499 178.584 52.5446 182.255C45.7677 190.526 40.4904 199.901 36.8689 209.948C36.8298 210.059 36.8037 210.124 36.7939 210.137C45.5852 218.495 65.5864 213.834 72.2817 211.745L74.8633 210.54C74.8862 209.773 75.4403 207.736 75.6685 207.002C83.4753 182.258 82.605 176.46 82.605 176.46C86.8132 174.358 106.498 179.28 110.684 180.072C111.75 180.274 112.841 179.777 113.34 178.818C116.975 171.831 116.209 154.51 116.173 153.698C116.173 153.675 116.173 153.659 116.179 153.636C116.28 153.165 116.352 152.697 116.401 152.236C116.427 151.999 116.192 151.817 115.971 151.911C115.625 152.054 115.26 152.207 114.898 152.346C113.845 152.756 112.685 152.782 111.613 152.418V152.415Z" fill="url(#paint6_linear_1074_3050)"/>
<path d="M111.531 152.655C110.687 152.369 109.813 152.122 108.936 151.995C108.822 152.012 108.888 152.096 108.923 152.187C109.083 152.541 109.315 152.733 109.605 153.035C110.182 153.685 110.661 154.393 110.997 155.189C111.114 155.936 111.205 156.699 111.251 157.453C111.528 161.647 110.703 165.886 109.018 169.729C108.542 170.671 108.226 171.785 107.365 172.464C106.691 172.99 105.788 173.088 104.976 172.88L104.203 172.74C100.628 172.039 96.8855 171.415 93.8279 169.277C91.5755 167.894 89.8773 165.805 88.28 163.752C87.6151 162.946 86.9436 162.134 86.2069 161.403C85.9429 160.942 85.7962 160.471 85.6625 159.967C85.6625 159.967 85.8223 160.146 85.8157 160.143C82.0411 158.749 76.7018 156.657 72.9727 155.289H73.1618C72.9271 155.387 72.6598 155.618 72.4251 155.845C70.7627 157.58 69.4686 159.636 68.1322 161.627C66.6295 163.943 65.1757 166.299 63.7968 168.693C62.8255 170.535 61.5542 172.237 60.1069 173.734C54.22 180.478 48.646 187.566 44.2585 195.382C42.1723 198.929 40.0275 202.509 38.7301 206.443C38.2966 207.733 37.9348 209.048 37.5078 210.338L37.4915 210.384L37.4784 210.416C37.4654 210.439 37.4784 210.429 37.4165 210.533L37.3024 209.594C45.6047 216.968 62.4115 214.399 72.1741 211.527L74.7623 210.338L74.6384 210.526C74.6612 210.13 74.7395 209.773 74.8144 209.409C75.2349 207.46 76.3986 204 76.9788 202.038C79.1954 194.352 81.5 186.601 82.3181 178.623C82.367 177.837 82.4094 177.044 82.3214 176.304C83.6416 175.631 85.1051 175.648 86.5296 175.625C93.2249 175.797 99.8061 177.171 106.325 178.574C107.919 178.903 109.504 179.354 111.104 179.588C111.922 179.62 112.711 179.117 113.011 178.357C114.162 176.037 114.703 173.413 115.133 170.856C115.557 168.254 115.772 165.613 115.912 162.969C116.072 159.915 116.046 156.842 115.912 153.789C115.912 153.737 115.902 153.733 115.912 153.623C115.919 153.574 115.925 153.561 115.928 153.542C115.964 153.363 115.997 153.181 116.026 153.003L116.098 152.518C116.114 152.369 116.15 152.142 116.13 152.168C116.124 152.155 116.111 152.142 116.098 152.138C116.078 152.138 116.088 152.129 116.042 152.148L115.576 152.337C114.328 152.934 112.848 153.126 111.518 152.655H111.531ZM111.697 152.171C112.92 152.606 114.24 152.411 115.397 151.862L115.857 151.677C116.095 151.554 116.509 151.671 116.61 151.956C116.681 152.083 116.662 152.285 116.652 152.337L116.619 152.587C116.57 152.954 116.505 153.324 116.427 153.685C116.427 153.659 116.427 153.737 116.43 153.769L116.44 154.019C116.564 159.672 116.538 165.334 115.857 170.96C115.501 173.63 115.042 176.301 113.894 178.786C113.598 179.517 113.011 180.124 112.271 180.413C111.564 180.728 110.742 180.647 110.015 180.475C107.773 180.017 104.477 179.299 102.202 178.815C97.7265 177.98 86.5883 175.19 82.7191 176.687L82.8592 176.421C82.9342 177.548 82.7908 178.665 82.6734 179.76C82.4518 181.566 82.1356 183.398 81.7705 185.179C80.6101 190.915 79.0226 196.545 77.3602 202.152C76.6985 204.533 75.3425 208.093 75.0785 210.543L75.0719 210.676L74.9546 210.731L72.3827 211.953C62.9232 214.766 49.5815 217.579 40.272 213.395C38.8214 212.716 37.4198 211.842 36.2822 210.673L36.1681 209.734C36.1127 209.828 36.129 209.805 36.1224 209.822C36.1159 209.835 36.129 209.812 36.129 209.812C36.5527 208.776 37.3318 207.119 37.8337 206.083C39.6852 202.344 41.1586 198.436 43.1959 194.781C45.9568 189.951 49.249 185.422 52.8835 181.215C55.1425 178.587 57.4144 175.969 59.7646 173.426C60.7165 172.419 61.6813 171.457 62.418 170.284C64.2108 167.335 65.9189 164.32 67.7834 161.406C68.908 159.652 70.0391 157.898 71.3592 156.277C71.8612 155.718 72.2523 155.156 72.9825 154.802L73.0705 154.763L73.1716 154.802C75.3034 155.631 77.4482 156.433 79.5833 157.248L86.0015 159.685L86.1254 159.733L86.1547 159.86C86.259 160.305 86.396 160.77 86.5981 161.153L86.5622 161.107C87.263 161.9 87.9345 162.696 88.5799 163.521C91.9765 168.241 95.4415 170.661 101.211 171.756C102.228 171.98 103.252 172.175 104.275 172.36L105.044 172.497C105.745 172.675 106.541 172.61 107.121 172.146C107.9 171.506 108.187 170.444 108.63 169.563C110.266 165.775 111.052 161.608 110.755 157.489C110.706 156.758 110.612 156.02 110.501 155.296C110.061 154.325 109.406 153.564 108.685 152.782C108.529 152.587 108.46 152.418 108.372 152.168C108.284 151.81 108.617 151.44 108.985 151.489C109.918 151.619 110.807 151.875 111.697 152.171Z" fill="black"/>
<path d="M113.937 144.329L110.566 144.67C109.917 144.735 109.334 145.096 108.985 145.645L107.753 147.581C107.388 148.153 107.323 148.864 107.574 149.494L108.376 151.508C108.418 151.619 108.519 151.69 108.636 151.7C109.627 151.797 110.752 152.119 111.616 152.411C112.685 152.775 113.849 152.749 114.901 152.34C115.371 152.158 115.853 151.956 116.28 151.778C116.391 151.732 116.463 151.625 116.469 151.508C116.623 149.134 116.228 147.016 115.876 145.674C115.648 144.81 114.83 144.238 113.94 144.329H113.937Z" fill="#643C3B"/>
<path d="M113.959 144.55C113.36 144.605 111.844 144.745 111.264 144.803L110.814 144.849C110.116 144.871 109.448 145.209 109.109 145.846L108.164 147.379C107.861 147.821 107.61 148.354 107.694 148.9C107.733 149.348 108.128 150.066 108.284 150.514L108.63 151.346L108.653 151.398C108.653 151.398 108.653 151.398 108.653 151.401C110.038 151.489 111.309 152.103 112.656 152.323C113.516 152.424 114.347 152.262 115.139 151.904L115.971 151.57L116.15 151.498C116.15 151.498 116.156 151.495 116.156 151.492C116.16 151.42 116.173 151.219 116.179 151.138C116.254 149.663 116.13 148.185 115.847 146.733C115.72 146.203 115.68 145.58 115.335 145.148C115.016 144.735 114.478 144.501 113.953 144.55H113.959ZM113.914 144.108C114.761 144.004 115.638 144.498 115.993 145.277C116.182 145.723 116.254 146.168 116.365 146.629C116.701 148.188 116.854 149.793 116.776 151.391C116.769 151.485 116.776 151.602 116.733 151.7C116.681 151.882 116.486 152.041 116.319 152.09L116.215 152.132L115.377 152.479C113.93 153.197 112.264 153.071 110.798 152.483C110.09 152.271 109.38 152.093 108.653 152.012C108.522 152.002 108.392 151.963 108.288 151.882C108.183 151.804 108.112 151.687 108.072 151.567L107.753 150.725C107.58 150.179 107.222 149.546 107.173 148.951C107.098 148.289 107.378 147.649 107.763 147.126L108.75 145.622C109.08 145.073 109.663 144.644 110.305 144.514L113.911 144.111L113.914 144.108Z" fill="black"/>
<path d="M82.6313 176.681C82.6313 176.681 82.677 174.68 82.6411 173.25Z" fill="#D1744E"/>
<path d="M82.3279 176.675C82.3279 176.675 82.4942 173.254 82.4942 173.247C82.504 173.065 82.7811 173.065 82.7876 173.247L82.9376 176.688C82.9441 177.113 82.3018 177.1 82.3279 176.675Z" fill="black"/>
<path d="M70.0879 161.455C70.0879 161.455 70.6551 167.867 74.0712 170.706C74.0712 170.706 78.0968 173.208 83.2666 191.354C83.5893 192.491 84.6846 193.238 85.8646 193.114C89.6229 192.725 97.9807 192.257 105.752 194.573C106.149 194.69 106.443 195.028 106.508 195.434C106.563 195.785 106.609 196.269 106.583 196.866C107.404 196.054 108.314 195.343 108.799 195.567C108.799 195.567 111.613 196.236 113.806 197.744C113.588 197.045 113.295 196.314 112.91 195.557C112.643 195.038 112.261 194.583 111.802 194.219C109.65 192.52 102.541 187.651 91.1256 187.076C90.2847 187.033 89.5219 186.569 89.1112 185.838C87.5857 183.116 84.0653 176.044 83.4883 167.877" fill="url(#paint7_linear_1074_3050)"/>
<path d="M70.518 161.419C70.7005 163.904 71.3394 166.464 72.6368 168.614C73.0768 169.326 73.6147 169.972 74.247 170.502C74.5763 170.726 75.0261 171.23 75.3586 171.629C76.9363 173.646 78.1456 175.989 79.2473 178.288C81.1999 182.443 82.6243 186.851 83.8923 191.256C84.2444 192.315 85.2679 192.66 86.3208 192.452C87.5986 192.335 88.8992 192.247 90.1802 192.211C95.4608 192.078 100.803 192.552 105.869 194.112C106.387 194.251 106.83 194.713 106.945 195.242C107.042 195.781 107.049 196.343 107.02 196.889L106.286 196.568C106.961 195.97 107.965 194.817 108.988 195.184C110.357 195.496 112.616 196.395 114.057 197.396L113.402 197.877C112.91 196.607 112.391 195.206 111.179 194.456C107.593 191.922 103.476 190.178 99.2257 189.086C96.6213 188.427 93.9483 188.024 91.2657 187.875C90.9625 187.858 90.6496 187.829 90.3562 187.741C89.5641 187.524 88.8666 186.978 88.4624 186.263C88.2896 185.939 88.0842 185.578 87.9213 185.25C86.0763 181.664 84.6942 177.837 83.8956 173.887C83.6153 172.509 83.4164 170.807 83.3056 169.407L83.2534 167.903C83.2502 167.77 83.3512 167.659 83.4849 167.656C83.6087 167.653 83.7131 167.744 83.7294 167.864C84.2379 171.785 85.3331 175.586 86.7967 179.221C87.6605 181.378 88.6612 183.473 89.8053 185.49C90.0857 185.965 90.617 186.273 91.1679 186.302C91.2787 186.309 91.986 186.354 92.1164 186.361C98.6879 186.825 105.233 188.849 110.651 192.643C111.71 193.42 112.903 194.209 113.431 195.46C113.933 196.47 114.236 197.662 114.536 198.744C112.763 197.474 110.739 196.483 108.61 195.97C108.063 196.038 107.362 196.743 106.896 197.182L106.146 197.919C106.156 197.165 106.208 196.252 106.064 195.518C106.016 195.278 105.843 195.09 105.598 195.028L105.233 194.934C102.313 194.147 99.3039 193.725 96.2823 193.524C93.2573 193.332 90.2161 193.384 87.1944 193.621L86.4414 193.686C85.5939 193.829 84.5377 193.735 83.8239 193.163C83.3056 192.79 82.9079 192.247 82.7156 191.64L82.2723 190.158C81.9822 189.187 81.7019 188.213 81.3824 187.251C80.1503 183.421 78.9051 179.516 77.1905 175.875C76.5484 174.52 75.8182 173.182 74.912 171.98C74.6056 171.603 74.2894 171.197 73.9015 170.914C73.217 170.336 72.6563 169.635 72.1869 168.894C70.8016 166.643 70.091 164.083 69.6672 161.491C69.6053 160.916 70.4691 160.786 70.5245 161.416L70.518 161.419Z" fill="black"/>
<path d="M108.8 195.571C108.314 195.343 107.405 196.058 106.583 196.87C106.554 197.565 106.433 198.416 106.13 199.407C105.934 200.041 106.075 200.726 106.508 201.226L108.239 203.218C108.539 203.562 108.95 203.786 109.403 203.854L112.147 204.264C113.236 204.426 114.227 203.64 114.335 202.548C114.452 201.35 114.413 199.68 113.806 197.747C111.613 196.24 108.8 195.571 108.8 195.571Z" fill="#643C3B"/>
<path d="M108.698 195.86C108.627 195.827 108.597 195.834 108.522 195.84C107.844 196.038 107.316 196.607 106.798 197.084L106.889 196.883C106.958 197.718 106.873 198.562 106.694 199.381C106.544 199.92 106.619 200.404 106.99 200.797C107.117 200.934 107.861 201.746 108.007 201.902L108.796 202.785C108.972 202.97 109.204 203.094 109.451 203.149L110.608 203.331C111.101 203.409 111.606 203.484 112.098 203.571C112.304 203.607 112.528 203.643 112.737 203.588C113.252 203.477 113.692 203.032 113.761 202.447C113.969 200.94 113.855 199.381 113.526 197.848C113.513 197.812 113.643 198.007 113.643 197.997C112.157 197 110.442 196.314 108.708 195.856L108.698 195.86ZM108.9 195.285C110.71 195.762 112.493 196.486 114.057 197.549C114.706 199.108 115.029 200.823 114.928 202.558C114.888 203.903 113.607 205.066 112.242 204.942C111.629 204.884 111.009 204.786 110.4 204.702L109.171 204.523C108.63 204.419 108.128 204.133 107.76 203.727L106.967 202.798L106.205 201.869C105.501 201.145 105.253 200.011 105.677 199.089C105.96 198.325 106.172 197.532 106.309 196.72C106.831 196.217 107.359 195.697 108.033 195.372C108.281 195.252 108.633 195.174 108.904 195.288L108.9 195.285Z" fill="black"/>
<path d="M75.9649 148.201C75.137 144.963 72.2131 136.195 64.7322 135.682C64.0607 135.636 63.3892 135.711 62.734 135.857C60.0807 136.448 51.1004 137.995 45.8751 133.349C45.2949 132.836 44.379 133.31 44.5061 134.07C44.8907 136.364 46.413 139.859 51.8468 142.039C52.854 142.442 53.9851 142.429 54.9859 142.013C55.8464 141.656 56.9514 141.237 57.8674 141.009C58.4346 140.869 58.8518 141.552 58.4672 141.99C58.0304 142.487 57.4273 143.056 56.6874 143.481C56.3614 143.666 56.2669 144.089 56.4983 144.384C57.1046 145.157 58.5812 146.246 61.7953 145.2C62.6395 144.924 63.5229 144.771 64.4128 144.803C65.9904 144.862 68.2591 145.382 70.2834 147.474C70.8375 148.045 71.3102 148.689 71.7111 149.377C72.2685 150.326 73.7647 152.457 75.2674 150.933C75.9715 150.222 76.2094 149.169 75.9617 148.205L75.9649 148.201Z" fill="url(#paint8_linear_1074_3050)"/>
<path d="M75.655 148.279C74.5011 143.276 71.6652 137.611 66.2933 136.247C65.4523 136.045 64.5657 135.945 63.7052 136.045C62.8381 136.156 61.9319 136.429 61.0518 136.562C57.414 137.173 53.6198 137.303 50.0375 136.221C48.4044 135.721 46.8234 134.918 45.5261 133.791C45.4805 133.752 45.487 133.765 45.4577 133.739C45.4218 133.723 45.3925 133.703 45.3599 133.703C45.2164 133.674 45.0306 133.814 45.073 133.97C45.1382 134.327 45.2197 134.691 45.3338 135.038C46.0868 137.527 48.0654 139.43 50.3243 140.642C50.8752 140.938 51.5173 141.233 52.1008 141.477C53.0298 141.847 54.0436 141.785 54.9563 141.37C55.8135 141.025 56.6806 140.7 57.6064 140.457C57.6781 140.434 57.9486 140.366 58.1703 140.402C58.8744 140.486 59.3633 141.207 59.1775 141.906C59.0928 142.243 58.8418 142.477 58.6234 142.705C58.1344 143.205 57.577 143.647 56.9675 143.994C56.9479 144.007 56.9446 144.024 56.9512 144.03C57.4923 144.732 58.3463 145.05 59.2851 145.079C60.1358 145.096 60.967 144.904 61.7885 144.647C64.5527 143.773 67.7341 144.602 69.8757 146.496C70.5895 147.116 71.2219 147.841 71.7271 148.636C72.278 149.514 72.7865 150.553 73.7514 151.011C74.286 151.232 74.7521 150.988 75.1465 150.543C75.6648 149.946 75.8408 149.069 75.6485 148.282L75.655 148.279ZM76.2711 148.123C76.6459 149.445 76.082 151.138 74.7423 151.706C73.5362 152.181 72.4443 151.115 71.7989 150.235C71.0785 149.124 70.3646 147.99 69.3085 147.162C67.1376 145.313 64.08 144.807 61.4332 145.862C59.6502 146.392 57.3945 146.369 56.1069 144.816C55.9733 144.667 55.869 144.488 55.8233 144.293C55.7125 143.851 55.882 143.377 56.2177 143.101C56.5339 142.87 56.573 142.883 56.8208 142.698C57.2413 142.399 57.6259 142.026 57.9714 141.642C58.0203 141.587 58.0073 141.594 58.0138 141.594C58.0106 141.594 58.0138 141.594 58.0105 141.6C58.0105 141.62 58.0106 141.6 58.0008 141.597C57.238 141.811 56.2406 142.153 55.4159 142.5C54.262 143.036 52.8407 143.108 51.6477 142.627L50.9958 142.347C48.8216 141.405 46.8039 139.966 45.4609 137.985C44.7112 136.89 44.1962 135.633 43.9615 134.33C43.8181 133.801 44.0006 133.18 44.4569 132.855C44.985 132.446 45.7869 132.492 46.2693 132.953C50.2265 136.399 55.9537 136.49 60.9214 135.815C62.2839 135.636 63.6595 135.168 65.0546 135.389C71.4501 136.081 74.6413 142.643 76.2646 148.126L76.2711 148.123Z" fill="black"/>
<path d="M71.8021 145.502C70.1364 143.124 67.8905 140.886 65.1002 139.921C64.194 139.628 63.2455 139.505 62.3002 139.596C62.0036 139.628 61.7363 139.414 61.7135 139.118C61.6874 138.823 61.9156 138.563 62.2122 138.547C62.7598 138.517 63.3074 138.54 63.8453 138.621C65.4327 138.871 66.9191 139.625 68.1741 140.58C69.8332 141.857 71.2023 143.419 72.3203 145.18C72.5257 145.521 72.0205 145.839 71.8021 145.498V145.502Z" fill="black"/>
<path d="M55.7942 140.08C53.0886 140.505 50.2658 139.541 48.2774 137.705C47.9971 137.455 47.7461 137.169 47.4821 136.903C47.3647 136.783 47.3647 136.591 47.4821 136.474C47.6059 136.351 47.8048 136.364 47.9221 136.484C48.4469 136.955 48.9815 137.419 49.591 137.77C51.3252 138.842 53.4961 139.271 55.4845 138.826C56.3548 138.592 56.6743 139.888 55.7909 140.08H55.7942Z" fill="black"/>
<path d="M73.1096 150.881C73.1096 150.881 77.4189 149.15 76.9137 146.174C76.8093 145.564 76.7833 144.937 76.9299 144.333C76.9332 144.316 76.9397 144.297 76.943 144.281C77.3244 142.802 79.0715 142.153 80.3493 142.994C80.9393 143.381 81.6662 144.03 82.4159 145.115C83.5372 146.74 85.2062 147.932 87.1457 148.312C87.8954 148.458 88.7592 148.536 89.7469 148.5C90.4281 148.474 91.1127 148.556 91.7646 148.76C92.9511 149.127 94.1898 149.949 92.8012 151.746C92.8012 151.746 91.8461 153.545 89.6686 154.832C88.1627 155.722 87.162 157.278 87.1229 159.019C87.1131 159.441 87.1294 159.909 87.175 160.425C87.175 160.425 87.501 163.317 80.9589 162.235C80.9589 162.235 77.458 161.874 74.5308 159.597C72.9956 158.402 71.884 156.722 71.5385 154.812C71.2777 153.38 71.4374 151.733 73.1096 150.878V150.881Z" fill="url(#paint9_linear_1074_3050)"/>
<path d="M72.9008 150.423C74.4132 149.751 76.18 148.695 76.5027 146.967C76.5907 146.379 76.3821 145.752 76.4277 145.141C76.3658 143.199 78.2596 141.698 80.1078 142.507C81.0108 142.939 81.7083 143.715 82.3048 144.485C84.114 147.392 86.7901 148.49 90.1508 148.253C92.3543 148.286 94.9034 149.497 93.016 151.911C92.3641 153.058 91.0961 154.354 89.8249 155.104C88.3319 156.004 87.341 157.7 87.5235 159.454C87.5301 159.678 87.5627 160.169 87.5724 160.396C87.4616 163.287 83.3414 163.05 81.3074 162.771C78.2727 162.42 75.1727 161.224 73.0377 158.98C70.9515 156.813 69.5531 152.125 72.8975 150.423H72.9008ZM73.318 151.336C72.1119 151.937 71.799 153.318 72.0565 154.588C72.8062 158.915 77.3763 161.289 81.428 161.809C82.8525 162.033 86.5522 162.465 86.7771 160.467C86.7673 160.221 86.7608 159.724 86.751 159.47C86.6695 158.301 87.0542 157.07 87.7485 156.128C88.6155 154.841 90.1541 154.357 91.2167 153.279C91.7415 152.778 92.2207 152.2 92.5695 151.596C92.928 151.135 93.2344 150.569 93.1106 150.092C92.9932 149.618 92.4554 149.283 91.9045 149.082C91.0374 148.747 90.128 148.728 89.199 148.757C86.5619 148.815 84.0096 147.717 82.4189 145.586C81.8713 144.829 81.3139 144.111 80.5805 143.549C80.1502 143.199 79.6352 142.932 79.068 142.961C77.9076 142.991 77.1481 144.059 77.2263 145.161C77.2133 145.804 77.4512 146.418 77.3534 147.084C77.0405 149.186 75.088 150.504 73.318 151.343V151.336Z" fill="black"/>
<path d="M89.6975 155.134C86.9823 155.696 84.4071 154.305 81.7081 154.305C80.8378 154.282 79.961 154.351 79.0841 154.477C78.9896 154.49 78.8983 154.425 78.8853 154.328C78.8723 154.243 78.9244 154.162 79.0059 154.136C80.7498 153.571 82.6404 153.379 84.4528 153.724C86.1673 154.026 87.9504 154.159 89.6421 154.529C89.9844 154.562 90.0365 155.046 89.7008 155.134H89.6975Z" fill="black"/>
<path d="M77.0374 154.084C77.3535 156.001 79.2278 157.147 80.9913 157.641C82.921 158.229 84.9518 158.804 86.9825 158.619C87.1683 158.593 87.2303 158.879 87.0412 158.924C84.9583 159.395 82.7874 158.95 80.7534 158.45C78.6965 157.989 76.0073 156.469 76.4343 153.987C76.5386 153.623 77.0308 153.714 77.0374 154.081V154.084Z" fill="black"/>
<path d="M73.0118 150.54C73.68 149.955 74.4819 149.657 75.2903 149.38C77.6731 148.588 80.4959 148.094 82.8038 149.358C82.9537 149.439 82.8364 149.679 82.6799 149.608C80.3558 148.747 77.8393 149.41 75.6032 150.245C74.8437 150.543 74.1005 150.891 73.2889 151.079C72.9792 151.157 72.7673 150.745 73.0118 150.543V150.54Z" fill="black"/>
</g>
</g>
<g clip-path="url(#clip1_1074_3050)">
<path d="M238.004 108.5C235.949 108.5 234.281 110.167 234.281 112.222C234.281 114.277 235.949 115.945 238.004 115.945C239.374 115.945 240.506 115.171 241.161 114.069C246.492 115.052 250.542 119.697 250.542 125.296C250.542 126.13 251.197 126.786 252.031 126.786C252.865 126.786 253.52 126.13 253.52 125.296C253.52 118.179 248.308 112.282 241.518 111.12C241.042 109.601 239.672 108.47 238.004 108.47V108.5Z" fill="#201A18"/>
<path d="M173.437 167.498C173.169 167.498 172.96 167.587 172.692 167.646C170.995 163.149 171.918 157.848 175.551 154.245C176.147 153.649 176.147 152.726 175.551 152.13C174.956 151.534 174.032 151.534 173.437 152.13C168.761 156.806 167.719 163.715 170.22 169.433C169.923 169.969 169.714 170.565 169.714 171.22C169.714 173.275 171.382 174.943 173.437 174.943C175.492 174.943 177.16 173.275 177.16 171.22C177.16 169.165 175.492 167.498 173.437 167.498Z" fill="#201A18"/>
<path d="M278.03 168.48L260.28 150.73C257.63 148.08 253.431 147.603 250.274 149.628C245.211 152.904 239.284 154.215 233.209 153.381C222.189 151.922 213.195 142.838 211.796 131.819C210.813 123.986 213.404 116.332 218.943 110.793C224.483 105.253 232.137 102.662 239.969 103.645C251.376 105.075 260.489 114.426 261.65 125.892C261.978 129.109 261.68 132.265 260.817 135.333C258.851 135.422 257.273 137.031 257.273 139.026C257.273 141.021 258.94 142.749 260.995 142.749C263.05 142.749 264.718 141.081 264.718 139.026C264.718 137.984 264.301 137.06 263.616 136.375C264.629 132.891 264.986 129.287 264.599 125.594C263.288 112.788 253.073 102.305 240.327 100.697C231.571 99.5948 222.994 102.513 216.829 108.708C210.634 114.903 207.745 123.48 208.847 132.236C210.426 144.565 220.492 154.721 232.822 156.389C239.523 157.282 246.313 155.793 251.882 152.16C253.848 150.879 256.498 151.177 258.166 152.875L275.916 170.625C276.214 170.922 276.601 171.071 276.958 171.071C277.316 171.071 277.733 170.922 278.001 170.625C278.596 170.029 278.596 169.106 278.001 168.51L278.03 168.48Z" fill="#201A18"/>
<path d="M189.668 168.331C192.527 165.472 192.527 160.826 189.668 157.967C186.809 155.108 182.163 155.108 179.304 157.967C176.445 160.826 176.445 165.472 179.304 168.331C180.674 169.701 182.52 170.476 184.486 170.476C186.452 170.476 188.268 169.701 189.668 168.331ZM181.418 160.082C182.252 159.248 183.384 158.801 184.486 158.801C185.588 158.801 186.72 159.218 187.554 160.082C189.251 161.779 189.251 164.519 187.554 166.217C185.916 167.855 183.056 167.855 181.418 166.217C179.721 164.519 179.721 161.779 181.418 160.082Z" fill="#201A18"/>
<path d="M195.505 174.198C198.454 171.25 200.062 167.348 200.062 163.179C200.062 159.009 198.454 155.108 195.505 152.16C193.182 149.837 190.234 148.348 187.077 147.812C186.541 146.412 185.201 145.399 183.622 145.399C181.567 145.399 179.899 147.067 179.899 149.122C179.899 151.177 181.567 152.845 183.622 152.845C185.082 152.845 186.273 152.011 186.898 150.79C189.34 151.266 191.604 152.457 193.391 154.244C195.773 156.627 197.084 159.784 197.084 163.179C197.084 166.574 195.773 169.731 193.391 172.113C190.234 175.27 185.767 176.521 181.418 175.449C180.614 175.241 179.81 175.747 179.602 176.551C179.393 177.355 179.899 178.159 180.704 178.368C181.954 178.665 183.235 178.844 184.486 178.844C188.566 178.844 192.497 177.236 195.475 174.258L195.505 174.198Z" fill="#201A18"/>
<path d="M236.783 161.69C235.949 161.69 235.294 162.345 235.294 163.179C235.294 167.676 233.954 171.875 231.631 175.36C231.571 175.36 231.541 175.36 231.511 175.36H221.296C220.73 174.049 219.42 173.126 217.901 173.126C215.846 173.126 214.178 174.794 214.178 176.849C214.178 178.904 215.846 180.572 217.901 180.572C219.42 180.572 220.73 179.648 221.296 178.338H229.308C225.257 182.656 219.509 185.367 213.136 185.367H196.369C198.513 184.235 200.509 182.776 202.295 180.989C205.303 177.981 207.388 174.407 208.55 170.595H223.411C223.977 171.905 225.287 172.828 226.806 172.828C228.861 172.828 230.529 171.161 230.529 169.106C230.529 167.051 228.861 165.383 226.806 165.383C225.287 165.383 223.977 166.306 223.411 167.617H209.264C210.634 159.814 208.341 151.445 202.325 145.429C200.538 143.642 198.543 142.183 196.399 141.051H203.576C204.41 141.051 205.065 140.396 205.065 139.562C205.065 138.728 204.41 138.073 203.576 138.073H185.588C185.588 138.073 185.439 138.103 185.35 138.133C178.649 137.924 171.888 140.336 166.795 145.459C156.997 155.257 156.997 171.22 166.795 181.018C171.709 185.932 178.142 188.375 184.575 188.375C184.694 188.375 184.813 188.375 184.903 188.375C184.962 188.375 184.992 188.375 185.052 188.375H213.196C227.074 188.375 238.361 177.087 238.361 163.209C238.361 162.375 237.706 161.72 236.872 161.72L236.783 161.69ZM168.821 147.484C173.139 143.166 178.827 140.992 184.486 140.992C190.144 140.992 195.833 143.166 200.151 147.484C208.788 156.121 208.788 170.208 200.151 178.844C191.514 187.481 177.428 187.481 168.791 178.844C160.154 170.208 160.154 156.121 168.791 147.484H168.821Z" fill="#201A18"/>
</g>
</g>
<defs>
<linearGradient id="paint0_linear_1074_3050" x1="24.9846" y1="211.103" x2="46.2375" y2="199.529" gradientUnits="userSpaceOnUse">
<stop stop-color="#643C3B"/>
<stop offset="0.03" stop-color="#72453D"/>
<stop offset="0.12" stop-color="#996044"/>
<stop offset="0.22" stop-color="#B87449"/>
<stop offset="0.3" stop-color="#CF834D"/>
<stop offset="0.39" stop-color="#DC8C50"/>
<stop offset="0.47" stop-color="#E19051"/>
</linearGradient>
<linearGradient id="paint1_linear_1074_3050" x1="140.036" y1="116.276" x2="156.365" y2="91.418" gradientUnits="userSpaceOnUse">
<stop offset="0.56" stop-color="#F9E9B3"/>
<stop offset="0.61" stop-color="#F3D9A5"/>
<stop offset="0.79" stop-color="#E1A276"/>
<stop offset="0.93" stop-color="#D58059"/>
<stop offset="1" stop-color="#D1744E"/>
</linearGradient>
<linearGradient id="paint2_linear_1074_3050" x1="126.852" y1="165.841" x2="143.319" y2="136.165" gradientUnits="userSpaceOnUse">
<stop stop-color="#643C3B"/>
<stop offset="0.03" stop-color="#72453D"/>
<stop offset="0.12" stop-color="#996044"/>
<stop offset="0.22" stop-color="#B87449"/>
<stop offset="0.3" stop-color="#CF834D"/>
<stop offset="0.39" stop-color="#DC8C50"/>
<stop offset="0.47" stop-color="#E19051"/>
</linearGradient>
<linearGradient id="paint3_linear_1074_3050" x1="85.7491" y1="148.377" x2="123.853" y2="90.3681" gradientUnits="userSpaceOnUse">
<stop stop-color="#643C3B"/>
<stop offset="0.02" stop-color="#7C4C3F"/>
<stop offset="0.05" stop-color="#9B6144"/>
<stop offset="0.08" stop-color="#B47249"/>
<stop offset="0.11" stop-color="#C87F4C"/>
<stop offset="0.15" stop-color="#D6884F"/>
<stop offset="0.2" stop-color="#DE8E50"/>
<stop offset="0.28" stop-color="#E19051"/>
</linearGradient>
<linearGradient id="paint4_linear_1074_3050" x1="56.021" y1="128.93" x2="73.7459" y2="87.5122" gradientUnits="userSpaceOnUse">
<stop stop-color="#643C3B"/>
<stop offset="0.06" stop-color="#835140"/>
<stop offset="0.15" stop-color="#A56746"/>
<stop offset="0.23" stop-color="#BF794B"/>
<stop offset="0.32" stop-color="#D2864E"/>
<stop offset="0.41" stop-color="#DD8D50"/>
<stop offset="0.51" stop-color="#E19051"/>
</linearGradient>
<linearGradient id="paint5_linear_1074_3050" x1="89.8433" y1="87.516" x2="108.089" y2="59.7388" gradientUnits="userSpaceOnUse">
<stop offset="0.56" stop-color="#F9E9B3"/>
<stop offset="0.61" stop-color="#F3D9A5"/>
<stop offset="0.79" stop-color="#E1A276"/>
<stop offset="0.93" stop-color="#D58059"/>
<stop offset="1" stop-color="#D1744E"/>
</linearGradient>
<linearGradient id="paint6_linear_1074_3050" x1="63.9385" y1="224.23" x2="95.1558" y2="140.537" gradientUnits="userSpaceOnUse">
<stop stop-color="#643C3B"/>
<stop offset="0.03" stop-color="#72453D"/>
<stop offset="0.12" stop-color="#996044"/>
<stop offset="0.22" stop-color="#B87449"/>
<stop offset="0.3" stop-color="#CF834D"/>
<stop offset="0.39" stop-color="#DC8C50"/>
<stop offset="0.47" stop-color="#E19051"/>
</linearGradient>
<linearGradient id="paint7_linear_1074_3050" x1="112.223" y1="193.525" x2="90.6194" y2="183.361" gradientUnits="userSpaceOnUse">
<stop stop-color="#643C3B"/>
<stop offset="0.03" stop-color="#72453D"/>
<stop offset="0.12" stop-color="#996044"/>
<stop offset="0.22" stop-color="#B87449"/>
<stop offset="0.3" stop-color="#CF834D"/>
<stop offset="0.39" stop-color="#DC8C50"/>
<stop offset="0.47" stop-color="#E19051"/>
</linearGradient>
<linearGradient id="paint8_linear_1074_3050" x1="51.3869" y1="146.092" x2="77.6569" y2="133.979" gradientUnits="userSpaceOnUse">
<stop stop-color="#487E50"/>
<stop offset="0.07" stop-color="#518A58"/>
<stop offset="0.21" stop-color="#61A167"/>
<stop offset="0.34" stop-color="#6AAE6F"/>
<stop offset="0.47" stop-color="#6EB373"/>
</linearGradient>
<linearGradient id="paint9_linear_1074_3050" x1="77.2749" y1="162.097" x2="85.566" y2="145.389" gradientUnits="userSpaceOnUse">
<stop stop-color="#487E50"/>
<stop offset="0.07" stop-color="#518A58"/>
<stop offset="0.21" stop-color="#61A167"/>
<stop offset="0.34" stop-color="#6AAE6F"/>
<stop offset="0.47" stop-color="#6EB373"/>
</linearGradient>
<clipPath id="clip0_1074_3050">
<rect width="142.267" height="157.694" fill="white" transform="translate(25.75 51.2961)"/>
</clipPath>
<clipPath id="clip1_1074_3050">
<rect width="119.127" height="119.127" fill="white" transform="translate(159.447 85.5774)"/>
</clipPath>
</defs>
</svg>
