<svg width="219" height="28" viewBox="0 0 219 28" fill="none" xmlns="http://www.w3.org/2000/svg">
<path d="M32.8483 4.69999L28.6583 23.65C28.2383 25.56 26.5383 26.92 24.5783 26.92C22.7383 26.92 21.1183 25.72 20.5783 23.95L17.3883 13.41C17.0983 12.47 15.7683 12.46 15.4683 13.41L12.1783 23.99C11.6383 25.74 10.0183 26.92 8.18832 26.92C6.21832 26.92 4.51832 25.54 4.10832 23.62L0.0583208 4.66999C-0.281679 3.10999 0.908321 1.64999 2.49832 1.64999C3.66832 1.64999 4.67832 2.45999 4.93832 3.59999L7.81832 16.4C8.03832 17.4 9.44832 17.46 9.74832 16.48L12.1283 8.85999C12.7283 6.94999 14.4983 5.64999 16.4983 5.64999C18.5183 5.64999 20.2983 6.96999 20.8783 8.90999L23.1283 16.4C23.4283 17.39 24.8383 17.34 25.0683 16.33L27.9583 3.59999C28.2183 2.45999 29.2383 1.64999 30.4083 1.64999C32.0083 1.64999 33.2083 3.12999 32.8583 4.69999H32.8483Z" fill="#201A18"/>
<path d="M54.4182 11.44C53.5082 9.86001 52.2582 8.64001 50.6782 7.80001C49.0982 6.96001 47.3182 6.54001 45.3482 6.54001C43.3782 6.54001 41.6082 6.96001 40.0182 7.80001C38.4382 8.64001 37.1882 9.85001 36.2782 11.44C35.3682 13 34.9082 14.81 34.9082 16.88C34.9082 18.95 35.3482 20.79 36.2382 22.35C37.1482 23.91 38.3882 25.11 39.9482 25.95C41.5282 26.79 43.3082 27.21 45.2782 27.21C47.2482 27.21 49.0182 26.79 50.6082 25.95C52.2182 25.11 53.4782 23.91 54.3882 22.35C55.3282 20.77 55.7882 18.94 55.7882 16.88C55.7882 14.82 55.3282 13 54.4182 11.44ZM48.2582 20.58C47.4382 21.44 46.4482 21.88 45.2682 21.88C44.0882 21.88 43.1082 21.45 42.3182 20.58C41.5482 19.72 41.1682 18.48 41.1682 16.87C41.1682 15.26 41.5682 14 42.3582 13.16C43.1482 12.3 44.1482 11.86 45.3482 11.86C46.5482 11.86 47.5082 12.29 48.2982 13.16C49.1182 14.02 49.5182 15.26 49.5182 16.87C49.5182 18.48 49.0982 19.71 48.2582 20.58Z" fill="#201A18"/>
<path d="M77.2983 11.44C76.3883 9.86001 75.1383 8.64001 73.5583 7.80001C71.9783 6.96001 70.1983 6.54001 68.2283 6.54001C66.2583 6.54001 64.4883 6.96001 62.8983 7.80001C61.3183 8.64001 60.0683 9.85001 59.1583 11.44C58.2483 13 57.7883 14.81 57.7883 16.88C57.7883 18.95 58.2283 20.79 59.1183 22.35C60.0283 23.91 61.2683 25.11 62.8283 25.95C64.4083 26.79 66.1883 27.21 68.1583 27.21C70.1283 27.21 71.8983 26.79 73.4883 25.95C75.0983 25.11 76.3583 23.91 77.2683 22.35C78.2083 20.77 78.6683 18.94 78.6683 16.88C78.6683 14.82 78.2083 13 77.2983 11.44ZM71.1383 20.58C70.3183 21.44 69.3283 21.88 68.1483 21.88C66.9683 21.88 65.9883 21.45 65.1983 20.58C64.4283 19.72 64.0483 18.48 64.0483 16.87C64.0483 15.26 64.4483 14 65.2383 13.16C66.0283 12.3 67.0283 11.86 68.2283 11.86C69.4283 11.86 70.3883 12.29 71.1783 13.16C71.9983 14.02 72.3983 15.26 72.3983 16.87C72.3983 18.48 71.9783 19.71 71.1383 20.58Z" fill="#201A18"/>
<path d="M99.8682 0.279999H97.7082C96.6082 0.279999 95.7082 1.18 95.7082 2.28V4.54C95.7082 5.64 94.8082 6.54 93.7082 6.54H89.5182C87.8582 6.54 86.3582 6.96 85.0182 7.8C83.6782 8.64 82.6082 9.84 81.8182 11.4C81.0482 12.96 80.6682 14.77 80.6682 16.84C80.6682 18.91 81.0482 20.73 81.8182 22.31C82.6082 23.87 83.6782 25.08 85.0182 25.95C86.3582 26.79 87.8582 27.21 89.5182 27.21H95.7082C99.1082 27.21 101.868 24.45 101.868 21.05V2.28C101.868 1.18 100.968 0.279999 99.8682 0.279999ZM94.4182 20.51C93.5782 21.4 92.5482 21.84 91.3182 21.84C90.0882 21.84 89.0482 21.4 88.1882 20.51C87.3482 19.6 86.9282 18.37 86.9282 16.84C86.9282 15.31 87.3482 14.1 88.1882 13.24C89.0482 12.35 90.0982 11.91 91.3182 11.91C92.5382 11.91 93.5782 12.35 94.4182 13.24C95.2782 14.13 95.7182 15.34 95.7182 16.88C95.7182 18.42 95.2882 19.63 94.4182 20.52V20.51Z" fill="#201A18"/>
<path d="M123.418 4.10998C123.418 5.46998 122.318 6.57998 120.948 6.57998H118.718C117.608 6.57998 116.718 7.47998 116.718 8.57998V23.84C116.718 25.54 115.338 26.92 113.638 26.92C111.938 26.92 110.558 25.54 110.558 23.84V8.57998C110.558 7.46998 109.658 6.57998 108.558 6.57998H106.328C104.968 6.57998 103.858 5.47998 103.858 4.10998C103.858 2.74998 104.958 1.63998 106.328 1.63998H120.948C122.308 1.63998 123.418 2.73998 123.418 4.10998Z" fill="#004F40"/>
<path d="M137.878 9.97999C137.878 11.72 136.468 13.13 134.728 13.13H133.578C132.468 13.13 131.578 14.03 131.578 15.13V23.84C131.578 25.54 130.198 26.92 128.498 26.92C126.798 26.92 125.418 25.54 125.418 23.84V9.90999C125.418 8.20999 126.798 6.82999 128.498 6.82999H134.728C136.468 6.82999 137.878 8.23999 137.878 9.97999Z" fill="#004F40"/>
<path d="M218.578 9.97999C218.578 11.72 217.168 13.13 215.428 13.13H214.278C213.168 13.13 212.278 14.03 212.278 15.13V23.84C212.278 25.54 210.898 26.92 209.198 26.92C207.498 26.92 206.118 25.54 206.118 23.84V9.90999C206.118 8.20999 207.498 6.82999 209.198 6.82999H215.428C217.168 6.82999 218.578 8.23999 218.578 9.97999Z" fill="#004F40"/>
<path d="M154.918 6.82999H148.728C147.068 6.82999 145.568 6.95999 144.228 7.79999C142.888 8.63999 141.818 9.83999 141.028 11.4C140.258 12.96 139.878 14.77 139.878 16.84C139.878 18.91 140.258 20.73 141.028 22.31C141.818 23.87 142.888 25.08 144.228 25.95C145.568 26.79 147.058 27.21 148.688 27.21C150.108 27.21 151.338 26.92 152.398 26.35C152.398 26.35 152.418 26.35 152.428 26.34C153.508 25.76 154.798 25.96 155.748 26.73C156.118 27.03 156.568 27.22 157.048 27.22H159.088C160.188 27.22 161.088 26.32 161.088 25.22V13C161.088 9.59999 158.328 6.83999 154.928 6.83999L154.918 6.82999ZM153.618 20.51C152.778 21.4 151.748 21.84 150.518 21.84C149.288 21.84 148.248 21.4 147.388 20.51C146.548 19.6 146.128 18.37 146.128 16.84C146.128 15.31 146.548 14.1 147.388 13.24C148.248 12.35 149.298 11.91 150.518 11.91C151.738 11.91 152.778 12.35 153.618 13.24C154.478 14.13 154.918 15.34 154.918 16.88C154.918 18.42 154.488 19.63 153.618 20.52V20.51Z" fill="#004F40"/>
<path d="M163.078 16.88C163.078 14.79 163.498 12.97 164.338 11.41C165.198 9.84999 166.388 8.64999 167.898 7.80999C169.438 6.96999 171.188 6.54999 173.158 6.54999C175.678 6.54999 177.778 7.20999 179.458 8.52999C180.378 9.24999 181.138 10.12 181.708 11.15C182.448 12.47 181.458 14.11 179.948 14.11H177.348C176.718 14.11 176.168 13.75 175.828 13.22C175.218 12.28 174.298 11.81 173.058 11.81C171.928 11.81 171.028 12.25 170.358 13.14C169.688 14 169.348 15.25 169.348 16.88C169.348 18.51 169.688 19.77 170.358 20.66C171.028 21.52 171.928 21.96 173.058 21.96C174.298 21.96 175.218 21.49 175.828 20.55C176.168 20.02 176.718 19.66 177.348 19.66H179.928C181.448 19.66 182.438 21.3 181.688 22.62C181.118 23.63 180.368 24.49 179.458 25.21C177.758 26.55 175.658 27.23 173.158 27.23C171.188 27.23 169.438 26.81 167.898 25.97C166.388 25.13 165.198 23.93 164.338 22.37C163.498 20.81 163.078 18.99 163.078 16.9V16.88Z" fill="#004F40"/>
<path d="M204.128 16.55C204.128 14.53 203.698 12.77 202.828 11.26C201.988 9.74999 200.808 8.57999 199.298 7.76999C197.788 6.94999 196.058 6.54999 194.118 6.54999C192.178 6.54999 190.358 6.96999 188.828 7.80999C187.288 8.64999 186.088 9.84999 185.228 11.41C184.388 12.97 183.968 14.79 183.968 16.88C183.968 18.97 184.398 20.79 185.268 22.35C186.138 23.91 187.328 25.11 188.868 25.95C190.408 26.79 192.158 27.21 194.128 27.21C195.758 27.21 197.238 26.91 198.558 26.31C199.878 25.71 200.968 24.88 201.838 23.83C202.208 23.39 202.528 22.93 202.798 22.45C203.348 21.47 202.588 20.27 201.468 20.27H197.968C197.488 20.27 197.038 20.5 196.768 20.89C196.138 21.77 195.188 22.22 193.918 22.22C192.888 22.22 192.008 21.9 191.288 21.25C190.868 20.84 190.548 20.33 190.348 19.7C190.138 19.05 190.618 18.37 191.298 18.37H202.298C203.288 18.37 204.138 17.58 204.138 16.59C204.138 16.59 204.138 16.58 204.138 16.57L204.128 16.55ZM191.468 14.93C190.748 14.93 190.228 14.17 190.548 13.52C190.768 13.07 191.058 12.68 191.428 12.37C192.148 11.77 193.028 11.47 194.058 11.47C195.088 11.47 196.038 11.78 196.758 12.41C197.148 12.74 197.428 13.14 197.608 13.6C197.858 14.24 197.338 14.93 196.658 14.93H191.488H191.468Z" fill="#004F40"/>
</svg>
