<svg width="127" height="146" viewBox="0 0 127 146" fill="none" xmlns="http://www.w3.org/2000/svg">
<path d="M97.4672 20.1635C97.6747 20.1427 97.8615 20.3019 97.8892 20.5164C97.91 20.6547 97.8685 20.7724 97.7508 20.8692C96.8168 21.7549 95.7928 22.5506 94.6719 23.2286C93.4818 23.9551 92.2018 24.5571 90.8941 25.0068C88.2787 25.8924 85.5041 26.1761 82.778 25.8717C72.9599 24.73 65.5911 15.9844 66.1931 6.12475C66.3107 4.11822 66.7535 2.13246 67.5008 0.257398C67.57 0.0498267 67.8052 -0.0470399 68.0128 0.0221506C68.1304 0.0705839 68.1996 0.160531 68.248 0.278155C68.3864 0.720974 68.5248 1.14304 68.6909 1.5651C68.7808 1.8211 68.7808 2.12554 68.7116 2.38154C66.0063 11.3071 71.0641 20.7239 79.9758 23.4362C82.1415 24.0935 84.404 24.3011 86.6665 24.0658C81.3942 22.1977 77.222 18.0393 75.2847 12.7809C75.2155 12.594 75.2847 12.4072 75.4508 12.3104C75.5891 12.2619 75.7552 12.2896 75.8452 12.4072C76.4264 12.9469 77.0145 13.4797 77.6441 13.9709C77.8102 14.0886 77.9209 14.2546 78.0177 14.4414C80.5847 19.1879 85.2481 22.4122 90.5896 23.1594C92.1533 22.599 93.6478 21.8033 94.9763 20.8C95.4399 20.4472 96.028 20.2603 96.6092 20.2603L97.4741 20.1704L97.4672 20.1635Z" fill="#004F40"/>
<path d="M86.9988 88.4405C87.9536 88.4405 88.7009 87.6725 88.7009 86.7315C88.7009 85.7905 87.9328 85.0225 86.9988 85.0225C86.0647 85.0225 85.2967 85.7905 85.2967 86.7315C85.2967 86.9183 85.3174 87.0844 85.3866 87.2435C80.8408 92.246 78.4607 99.6771 77.5958 102.804C77.575 102.922 77.4574 103.012 77.3398 103.012H77.2706C68.7602 103.012 57.3299 98.5285 51.8985 95.8647C50.9436 95.4703 49.892 95.4426 48.9164 95.7955C48.0307 96.1691 47.2143 96.7088 46.5362 97.3869C46.4463 97.3661 46.3494 97.3661 46.2802 97.3661C45.3254 97.3661 44.5781 98.1341 44.5781 99.0751C44.5781 100.016 45.3461 100.784 46.2802 100.784C47.2143 100.784 47.9823 100.016 47.9823 99.0751C47.9823 98.8675 47.9339 98.653 47.8647 98.4662C48.3559 97.9957 48.9371 97.6221 49.5668 97.3661C50.0788 97.2 50.6392 97.2 51.1512 97.3869C52.6872 98.1341 66.4008 104.721 77.2706 104.721H77.3398C78.2254 104.721 79.0211 104.112 79.2494 103.247C80.0659 100.258 82.3284 93.104 86.6459 88.3852C86.7635 88.4059 86.8811 88.4336 86.9988 88.4336V88.4405Z" fill="#004F40"/>
<path d="M51.8499 101.711C51.8292 100.777 51.0543 100.03 50.0994 100.03C49.1446 100.051 48.3973 100.826 48.4181 101.78C48.4181 102.106 48.5081 102.438 48.6949 102.694C40.3713 113.82 37.1262 116.179 33.4176 118.912L33.0648 119.168C32.0615 119.867 30.989 120.476 29.8682 120.967C20.4237 124.586 18.9292 133.027 18.7423 136.479C18.6731 137.531 18.86 138.583 19.282 139.538L21.2678 144.236H14.5771V129.865C14.6463 121.105 20.1538 115.632 23.4404 113.135C25.1424 111.875 26.2633 110 26.5885 107.904C26.9622 105.192 26.9622 102.459 26.637 99.7463C26.3118 96.7572 25.2601 93.9066 23.558 91.4296C20.2438 86.5932 19.3166 81.8467 20.991 78.4633C22.5063 75.3567 20.6382 72.3192 19.3374 70.7278C19.3858 70.5618 19.4273 70.4026 19.4273 70.2366C19.4273 69.3025 18.6593 68.5276 17.7252 68.5276C16.7912 68.5276 16.0232 69.2956 16.0232 70.2366C16.0232 71.1776 16.7912 71.9456 17.7252 71.9456C17.8429 71.9456 17.9812 71.9248 18.0989 71.8971C19.1506 73.2048 20.5482 75.5158 19.4758 77.716C17.5384 81.6876 18.5209 87.036 22.1811 92.3913C23.7171 94.6331 24.6789 97.2277 24.9764 99.94C25.3016 102.507 25.2808 105.102 24.9556 107.648C24.6996 109.281 23.814 110.782 22.4579 111.758C18.9361 114.422 12.9926 120.33 12.9165 129.844V145.917H23.8763L20.8665 138.839C20.562 138.112 20.4237 137.317 20.4721 136.549C20.6589 133.414 21.9874 125.803 30.4978 122.531C31.7571 121.991 32.9679 121.313 34.0888 120.524L34.4416 120.268C38.2886 117.438 41.6513 114.961 50.3001 103.4C51.165 103.351 51.8361 102.604 51.8361 101.718L51.8499 101.711Z" fill="#004F40"/>
<path d="M14.8885 75.751C14.8885 76.685 15.6357 77.46 16.5905 77.4807C17.5246 77.4807 18.2926 76.7335 18.3134 75.7717C18.3134 74.9069 17.6838 74.1596 16.8189 74.0627C14.0236 67.4966 6.32269 64.0163 1.82531 63.3382C1.75612 63.3382 1.70769 63.2898 1.68693 63.2206C1.66617 63.1722 1.68693 63.103 1.73536 63.0545C1.94293 62.8885 2.15742 62.7293 2.365 62.584C8.10088 58.5433 16.2446 59.429 21.6968 64.6874C29.6053 72.3053 40.3782 72.9557 40.821 72.9834C42.9452 73.1909 45.1385 73.2878 47.3734 73.2878C55.4202 73.2878 63.9099 71.9524 70.2754 69.5723L70.5522 69.4546C78.6682 66.3964 85.0614 56.9796 84.7777 48.4C84.6878 45.1065 85.4558 41.9722 85.9193 40.0833C86.037 39.5921 86.1546 39.17 86.1961 38.8448C86.2861 38.3536 86.1961 37.8623 85.9193 37.4402C85.6426 37.0182 85.1928 36.7137 84.7085 36.6238C80.654 35.8558 78.2946 34.7072 78.2738 34.6865L78.2254 34.6657C75.5408 33.5656 74.4683 31.1854 74.0255 29.6632C74.7243 29.0336 74.7935 27.9542 74.1639 27.2554C73.5343 26.5566 72.4618 26.4874 71.7353 27.117C71.0365 27.7467 70.9673 28.826 71.5969 29.5249C71.8045 29.7601 72.0397 29.9192 72.3442 30.0161C72.8562 31.8635 74.1846 34.8525 77.5473 36.2571C77.8517 36.4231 80.2734 37.544 84.4041 38.3397C84.4525 38.3397 84.494 38.3605 84.5217 38.4089C84.5425 38.4297 84.5425 38.4781 84.5425 38.5265C84.4733 38.8102 84.3764 39.2254 84.2657 39.6958C83.7744 41.6609 82.9857 44.9543 83.0756 48.483C83.3109 56.2393 77.3121 65.1164 69.9433 67.8771L69.6665 67.9947C61.2737 71.1498 49.0478 72.3883 39.2573 71.1014C35.9915 70.6101 28.5536 68.9288 22.8592 63.4628C16.8396 57.6438 7.79644 56.689 1.40325 61.1933C1.168 61.3594 0.939673 61.5462 0.725183 61.7053C0.116307 62.1481 -0.139697 62.9231 0.074793 63.6427C0.261607 64.3692 0.870483 64.9296 1.61082 65.0195C6.01825 65.6769 12.8543 69.0879 15.2759 74.7131C14.9992 75.0176 14.8815 75.3912 14.8815 75.7441L14.8885 75.751Z" fill="#004F40"/>
<path d="M91.8281 136.39C88.8875 132.978 88.2371 131.297 88.3271 130.827V130.778C89.0536 125.215 91.3369 110.097 93.1566 107.087L93.205 106.997C93.2258 106.949 94.7687 103.469 96.4916 101.179C96.6299 101.227 96.796 101.248 96.9344 101.248C97.8892 101.248 98.6365 100.48 98.6365 99.5387C98.6365 98.5977 97.8684 97.8297 96.9344 97.8297C96.0003 97.8297 95.2323 98.5977 95.2323 99.5387C95.2323 99.6771 95.253 99.8224 95.3015 99.9608C93.461 102.32 91.8766 105.8 91.6621 106.292C89.3096 110.284 86.7634 129.491 86.625 130.571C86.5351 131.083 86.3206 132.653 90.5204 137.51C91.3853 138.514 92.0357 139.683 92.4578 140.921L93.5786 144.263H85.6494V139.704C85.6494 138.444 85.1858 137.206 84.3694 136.244L84.3486 136.196C83.3661 135.026 82.7849 133.58 82.6673 132.058C81.8716 121.963 82.4321 109.557 82.4597 109.018C83.9266 92.848 94.7272 85.327 101.044 82.2618C102.511 81.5146 104.054 80.9541 105.659 80.5805C111.326 79.4389 112.869 77.4462 113.865 73.9659C116.688 64.0371 114.308 53.3333 107.569 45.5287L107.008 44.8713C106.074 43.8404 105.023 42.9755 103.84 42.2767C104.047 42.0691 104.303 41.8823 104.587 41.737L104.635 41.7163C105.659 41.1074 106.759 40.0557 107.853 38.5612C109.389 36.4578 111.257 34.6381 113.381 33.1159L113.471 33.0467C115.498 31.6214 116.785 29.3312 116.972 26.8542C117.02 26.3422 116.972 25.8232 116.903 25.3112C116.647 24.052 115.436 23.2078 114.177 23.4154C112.475 23.6991 109.859 23.9758 107.97 24.1627C106.69 24.2803 105.403 24.301 104.123 24.2111L103.798 24.1903C99.8819 23.9343 95.9865 24.7715 92.5339 26.6189C91.413 27.2278 90.2506 27.7398 89.0328 28.1411C88.3548 28.3487 87.6352 28.3764 86.9571 28.2103C84.231 27.6014 81.408 27.5115 78.6543 27.975C78.3498 27.6914 77.9347 27.5322 77.5334 27.5322C76.5993 27.5322 75.8313 28.3002 75.8313 29.2412C75.8313 30.1822 76.5786 30.9502 77.5334 30.9502C78.3291 30.9502 79.0279 30.3898 79.2147 29.6218C81.6848 29.2482 84.1826 29.3173 86.6319 29.857C87.6144 30.0646 88.6177 30.0438 89.5725 29.7394C90.8802 29.3173 92.1602 28.7569 93.3711 28.1065C96.5677 26.4252 100.159 25.6295 103.75 25.8647L104.054 25.8855C105.431 25.9754 106.808 25.9547 108.206 25.8371C110.115 25.6503 112.751 25.3666 114.523 25.0691C114.875 25.0206 115.221 25.2559 115.291 25.6087C115.36 25.9824 115.381 26.356 115.339 26.7296C115.201 28.6946 114.17 30.4936 112.564 31.6352L112.475 31.7044C110.212 33.3165 108.233 35.2816 106.573 37.5233C105.639 38.7826 104.704 39.7167 103.888 40.2079C103.445 40.4155 102.207 41.142 102.165 42.2421C102.144 42.8717 102.49 43.4599 103.051 43.7366C104.103 44.3455 105.037 45.1135 105.846 46.0268L106.407 46.6565C112.772 54.0391 115.014 64.134 112.357 73.5023C111.589 76.1662 110.745 77.8475 105.452 78.9199C103.701 79.3143 102.02 79.9232 100.435 80.7397C93.7862 83.9432 82.4044 91.8862 80.8891 108.893V108.914C80.8891 109.032 80.2802 121.811 81.0967 132.19C81.2351 134.085 81.9823 135.884 83.1932 137.31L83.2139 137.358C83.7744 138.015 84.0788 138.853 84.0788 139.718V145.979H96.0903L94.2014 140.368C93.6409 138.894 92.8521 137.538 91.8212 136.376L91.8281 136.39Z" fill="#004F40"/>
<path d="M125.524 100.009C125.289 99.4694 124.984 98.7222 124.638 97.885C122.729 93.1178 119.318 84.7042 115.685 81.1547C115.706 81.0579 115.706 80.9472 115.706 80.8503C115.706 79.8955 114.959 79.0998 114.004 79.0998C113.049 79.0998 112.253 79.847 112.253 80.8088C112.233 81.7636 113.001 82.5593 113.955 82.5593C114.163 82.5593 114.377 82.5386 114.585 82.4417C117.899 85.7144 121.324 94.1971 123.054 98.5146C123.407 99.3795 123.704 100.127 123.94 100.687C124.452 101.877 124.687 103.164 124.59 104.451C124.569 104.686 124.542 104.922 124.5 105.129C124.196 106.811 123.005 108.215 121.421 108.824C117.574 110.388 110.295 111.723 107.355 112.214C106.559 112.353 105.742 112.284 104.974 112.048L98.865 110.042L104.788 104.811L107.936 107.288C108.87 108.014 110.032 108.36 111.202 108.27C113.907 108.035 117.636 106.776 119.131 106.264C119.857 106.008 120.224 105.212 119.968 104.486C119.92 104.32 119.83 104.181 119.733 104.064C117.076 100.86 108.842 94.2525 105.41 91.5402C104.428 90.7445 103.286 90.1841 102.075 89.8797C96.7823 88.6411 93.0737 92.7995 91.3439 96.0722C90.3891 96.0514 89.5934 96.8195 89.5727 97.7812C89.5519 98.736 90.3199 99.5317 91.2955 99.5594C92.2503 99.5594 93.046 98.8121 93.0668 97.8296C93.0668 97.5252 92.9976 97.2 92.8315 96.944C94.0009 94.7507 96.9622 90.3986 101.667 91.5264C102.65 91.7616 103.556 92.2252 104.324 92.8548C106.863 94.8614 115.166 101.476 118.086 104.769C116.453 105.33 113.305 106.333 111.022 106.52C110.274 106.589 109.555 106.354 108.967 105.911L104.698 102.569L95.4608 110.727L104.393 113.647C105.071 113.882 105.77 113.972 106.49 113.999C106.863 113.999 107.237 113.979 107.611 113.909C110.62 113.397 118.038 112.041 122.023 110.402C124.168 109.557 125.711 107.669 126.126 105.399C126.174 105.115 126.216 104.839 126.244 104.555C126.41 103.033 126.126 101.469 125.496 100.023L125.524 100.009Z" fill="#004F40"/>
<path d="M58.7068 120.171C58.9835 119.984 65.0999 115.522 66.3315 108.769C67.148 108.277 67.404 107.226 66.9404 106.43C66.4492 105.614 65.4044 105.358 64.6087 105.849C63.7923 106.319 63.5362 107.371 63.9998 108.187C64.1382 108.423 64.3527 108.63 64.6087 108.796C63.3494 114.705 57.7727 118.774 57.7035 118.822C53.0124 122.302 60.4088 134.757 61.2737 136.133L65.9372 144.291H58.8728L58.4507 139.994C58.43 138.617 57.8695 137.31 56.9147 136.348C44.3221 123.894 46.979 117.535 48.0999 115.902C48.6811 115.058 49.0339 114.082 49.1031 113.072C49.8019 112.415 49.8227 111.343 49.1723 110.664C48.5219 109.986 47.4495 109.938 46.7437 110.595C46.0449 111.253 46.0241 112.325 46.6745 113.003C46.8614 113.19 47.0689 113.356 47.3249 113.425C47.2073 113.965 46.9997 114.477 46.6745 114.947C44.9932 117.404 42.5231 124.551 55.697 137.566C56.3474 138.223 56.721 139.109 56.7487 140.043L57.3299 146H68.8985L62.7682 135.275C59.8069 130.439 56.119 122.095 58.7137 120.178L58.7068 120.171Z" fill="#004F40"/>
</svg>
