<svg width="139" height="25" viewBox="0 0 139 25" fill="none" xmlns="http://www.w3.org/2000/svg">
<path d="M7.40088 18.23L4.74488 13.67H2.98488V18.23H1.52888V7.07801H5.12888C5.97154 7.07801 6.68088 7.22201 7.25688 7.51001C7.84354 7.79801 8.28088 8.18734 8.56888 8.67801C8.85688 9.16868 9.00088 9.72868 9.00088 10.358C9.00088 11.126 8.77688 11.8033 8.32888 12.39C7.89154 12.9767 7.23021 13.366 6.34488 13.558L9.14488 18.23H7.40088ZM2.98488 12.502H5.12888C5.91821 12.502 6.51021 12.31 6.90488 11.926C7.29954 11.5313 7.49688 11.0087 7.49688 10.358C7.49688 9.69668 7.29954 9.18468 6.90488 8.82201C6.52088 8.45934 5.92888 8.27801 5.12888 8.27801H2.98488V12.502ZM19.2633 13.51C19.2633 13.7873 19.2473 14.0807 19.2153 14.39H12.2073C12.2606 15.254 12.5539 15.9313 13.0873 16.422C13.6313 16.902 14.2873 17.142 15.0553 17.142C15.6846 17.142 16.2073 16.998 16.6233 16.71C17.0499 16.4113 17.3486 16.0167 17.5193 15.526H19.0873C18.8526 16.3687 18.3833 17.0567 17.6793 17.59C16.9753 18.1127 16.1006 18.374 15.0553 18.374C14.2233 18.374 13.4766 18.1873 12.8153 17.814C12.1646 17.4407 11.6526 16.9127 11.2793 16.23C10.9059 15.5367 10.7193 14.7367 10.7193 13.83C10.7193 12.9233 10.9006 12.1287 11.2633 11.446C11.6259 10.7633 12.1326 10.2407 12.7833 9.87801C13.4446 9.50468 14.2019 9.31801 15.0553 9.31801C15.8873 9.31801 16.6233 9.49934 17.2633 9.86201C17.9033 10.2247 18.3939 10.726 18.7353 11.366C19.0873 11.9953 19.2633 12.71 19.2633 13.51ZM17.7593 13.206C17.7593 12.6513 17.6366 12.1767 17.3913 11.782C17.1459 11.3767 16.8099 11.0727 16.3833 10.87C15.9673 10.6567 15.5033 10.55 14.9913 10.55C14.2553 10.55 13.6259 10.7847 13.1033 11.254C12.5913 11.7233 12.2979 12.374 12.2233 13.206H17.7593ZM20.6411 13.814C20.6411 12.918 20.8225 12.134 21.1851 11.462C21.5478 10.7793 22.0438 10.2513 22.6731 9.87801C23.3131 9.50468 24.0278 9.31801 24.8171 9.31801C25.4998 9.31801 26.1345 9.47801 26.7211 9.79801C27.3078 10.1073 27.7558 10.518 28.0651 11.03V6.39001H29.5371V18.23H28.0651V16.582C27.7771 17.1047 27.3505 17.5367 26.7851 17.878C26.2198 18.2087 25.5585 18.374 24.8011 18.374C24.0225 18.374 23.3131 18.182 22.6731 17.798C22.0438 17.414 21.5478 16.8753 21.1851 16.182C20.8225 15.4887 20.6411 14.6993 20.6411 13.814ZM28.0651 13.83C28.0651 13.1687 27.9318 12.5927 27.6651 12.102C27.3985 11.6113 27.0358 11.238 26.5771 10.982C26.1291 10.7153 25.6331 10.582 25.0891 10.582C24.5451 10.582 24.0491 10.71 23.6011 10.966C23.1531 11.222 22.7958 11.5953 22.5291 12.086C22.2625 12.5767 22.1291 13.1527 22.1291 13.814C22.1291 14.486 22.2625 15.0727 22.5291 15.574C22.7958 16.0647 23.1531 16.4433 23.6011 16.71C24.0491 16.966 24.5451 17.094 25.0891 17.094C25.6331 17.094 26.1291 16.966 26.5771 16.71C27.0358 16.4433 27.3985 16.0647 27.6651 15.574C27.9318 15.0727 28.0651 14.4913 28.0651 13.83ZM42.5673 7.07801V8.26201H37.7193V12.022H41.6553V13.206H37.7193V18.23H36.2633V7.07801H42.5673ZM48.1498 18.374C47.3284 18.374 46.5818 18.1873 45.9098 17.814C45.2484 17.4407 44.7258 16.9127 44.3418 16.23C43.9684 15.5367 43.7818 14.7367 43.7818 13.83C43.7818 12.934 43.9738 12.1447 44.3578 11.462C44.7524 10.7687 45.2858 10.2407 45.9578 9.87801C46.6298 9.50468 47.3818 9.31801 48.2138 9.31801C49.0458 9.31801 49.7978 9.50468 50.4698 9.87801C51.1418 10.2407 51.6698 10.7633 52.0538 11.446C52.4484 12.1287 52.6458 12.9233 52.6458 13.83C52.6458 14.7367 52.4431 15.5367 52.0378 16.23C51.6431 16.9127 51.1044 17.4407 50.4218 17.814C49.7391 18.1873 48.9818 18.374 48.1498 18.374ZM48.1498 17.094C48.6724 17.094 49.1631 16.9713 49.6218 16.726C50.0804 16.4807 50.4484 16.1127 50.7258 15.622C51.0138 15.1313 51.1578 14.534 51.1578 13.83C51.1578 13.126 51.0191 12.5287 50.7418 12.038C50.4644 11.5473 50.1018 11.1847 49.6538 10.95C49.2058 10.7047 48.7204 10.582 48.1978 10.582C47.6644 10.582 47.1738 10.7047 46.7258 10.95C46.2884 11.1847 45.9364 11.5473 45.6698 12.038C45.4031 12.5287 45.2698 13.126 45.2698 13.83C45.2698 14.5447 45.3978 15.1473 45.6538 15.638C45.9204 16.1287 46.2724 16.4967 46.7098 16.742C47.1471 16.9767 47.6271 17.094 48.1498 17.094ZM56.0161 10.886C56.2721 10.3847 56.6348 9.99534 57.1041 9.71801C57.5841 9.44068 58.1655 9.30201 58.8481 9.30201V10.806H58.4641C56.8321 10.806 56.0161 11.6913 56.0161 13.462V18.23H54.5601V9.46201H56.0161V10.886ZM68.5289 13.51C68.5289 13.7873 68.5129 14.0807 68.4809 14.39H61.4729C61.5262 15.254 61.8195 15.9313 62.3529 16.422C62.8969 16.902 63.5529 17.142 64.3209 17.142C64.9502 17.142 65.4729 16.998 65.8889 16.71C66.3155 16.4113 66.6142 16.0167 66.7849 15.526H68.3529C68.1182 16.3687 67.6489 17.0567 66.9449 17.59C66.2409 18.1127 65.3662 18.374 64.3209 18.374C63.4889 18.374 62.7422 18.1873 62.0809 17.814C61.4302 17.4407 60.9182 16.9127 60.5449 16.23C60.1715 15.5367 59.9849 14.7367 59.9849 13.83C59.9849 12.9233 60.1662 12.1287 60.5289 11.446C60.8915 10.7633 61.3982 10.2407 62.0489 9.87801C62.7102 9.50468 63.4675 9.31801 64.3209 9.31801C65.1529 9.31801 65.8889 9.49934 66.5289 9.86201C67.1689 10.2247 67.6595 10.726 68.0009 11.366C68.3529 11.9953 68.5289 12.71 68.5289 13.51ZM67.0249 13.206C67.0249 12.6513 66.9022 12.1767 66.6569 11.782C66.4115 11.3767 66.0755 11.0727 65.6489 10.87C65.2329 10.6567 64.7689 10.55 64.2569 10.55C63.5209 10.55 62.8915 10.7847 62.3689 11.254C61.8569 11.7233 61.5635 12.374 61.4889 13.206H67.0249ZM73.5548 18.374C72.8828 18.374 72.2801 18.262 71.7468 18.038C71.2134 17.8033 70.7921 17.4833 70.4828 17.078C70.1734 16.662 70.0028 16.1873 69.9708 15.654H71.4748C71.5174 16.0913 71.7201 16.4487 72.0828 16.726C72.4561 17.0033 72.9414 17.142 73.5388 17.142C74.0934 17.142 74.5308 17.0193 74.8508 16.774C75.1708 16.5287 75.3308 16.2193 75.3308 15.846C75.3308 15.462 75.1601 15.1793 74.8188 14.998C74.4774 14.806 73.9494 14.6193 73.2348 14.438C72.5841 14.2673 72.0508 14.0967 71.6348 13.926C71.2294 13.7447 70.8774 13.4833 70.5788 13.142C70.2908 12.79 70.1468 12.3313 70.1468 11.766C70.1468 11.318 70.2801 10.9073 70.5468 10.534C70.8134 10.1607 71.1921 9.86734 71.6828 9.65401C72.1734 9.43001 72.7334 9.31801 73.3628 9.31801C74.3334 9.31801 75.1174 9.56334 75.7148 10.054C76.3121 10.5447 76.6321 11.2167 76.6748 12.07H75.2188C75.1868 11.6113 75.0001 11.2433 74.6588 10.966C74.3281 10.6887 73.8801 10.55 73.3148 10.55C72.7921 10.55 72.3761 10.662 72.0668 10.886C71.7574 11.11 71.6028 11.4033 71.6028 11.766C71.6028 12.054 71.6934 12.294 71.8748 12.486C72.0668 12.6673 72.3014 12.8167 72.5788 12.934C72.8668 13.0407 73.2614 13.1633 73.7628 13.302C74.3921 13.4727 74.9041 13.6433 75.2988 13.814C75.6934 13.974 76.0294 14.2193 76.3068 14.55C76.5948 14.8807 76.7441 15.3127 76.7548 15.846C76.7548 16.326 76.6214 16.758 76.3548 17.142C76.0881 17.526 75.7094 17.83 75.2188 18.054C74.7388 18.2673 74.1841 18.374 73.5548 18.374ZM80.5861 10.662V15.83C80.5861 16.2567 80.6768 16.5607 80.8581 16.742C81.0395 16.9127 81.3541 16.998 81.8021 16.998H82.8741V18.23H81.5621C80.7515 18.23 80.1435 18.0433 79.7381 17.67C79.3328 17.2967 79.1301 16.6833 79.1301 15.83V10.662H77.9941V9.46201H79.1301V7.25401H80.5861V9.46201H82.8741V10.662H80.5861ZM84.0943 13.814C84.0943 12.918 84.2756 12.134 84.6383 11.462C85.0009 10.7793 85.4969 10.2513 86.1263 9.87801C86.7663 9.50468 87.4756 9.31801 88.2543 9.31801C89.0223 9.31801 89.6889 9.48334 90.2543 9.81401C90.8196 10.1447 91.2409 10.5607 91.5183 11.062V9.46201H92.9903V18.23H91.5183V16.598C91.2303 17.11 90.7983 17.5367 90.2223 17.878C89.6569 18.2087 88.9956 18.374 88.2383 18.374C87.4596 18.374 86.7556 18.182 86.1263 17.798C85.4969 17.414 85.0009 16.8753 84.6383 16.182C84.2756 15.4887 84.0943 14.6993 84.0943 13.814ZM91.5183 13.83C91.5183 13.1687 91.3849 12.5927 91.1183 12.102C90.8516 11.6113 90.4889 11.238 90.0303 10.982C89.5823 10.7153 89.0863 10.582 88.5423 10.582C87.9983 10.582 87.5023 10.71 87.0543 10.966C86.6063 11.222 86.2489 11.5953 85.9823 12.086C85.7156 12.5767 85.5823 13.1527 85.5823 13.814C85.5823 14.486 85.7156 15.0727 85.9823 15.574C86.2489 16.0647 86.6063 16.4433 87.0543 16.71C87.5023 16.966 87.9983 17.094 88.5423 17.094C89.0863 17.094 89.5823 16.966 90.0303 16.71C90.4889 16.4433 90.8516 16.0647 91.1183 15.574C91.3849 15.0727 91.5183 14.4913 91.5183 13.83ZM96.9068 6.39001V18.23H95.4508V6.39001H96.9068ZM107.19 18.342C106.454 18.342 105.793 18.214 105.206 17.958C104.63 17.6913 104.177 17.3287 103.846 16.87C103.515 16.4007 103.345 15.862 103.334 15.254H104.886C104.939 15.7767 105.153 16.2193 105.526 16.582C105.91 16.934 106.465 17.11 107.19 17.11C107.883 17.11 108.427 16.9393 108.822 16.598C109.227 16.246 109.43 15.798 109.43 15.254C109.43 14.8273 109.313 14.4807 109.078 14.214C108.843 13.9473 108.55 13.7447 108.198 13.606C107.846 13.4673 107.371 13.318 106.774 13.158C106.038 12.966 105.446 12.774 104.998 12.582C104.561 12.39 104.182 12.0913 103.862 11.686C103.553 11.27 103.398 10.7153 103.398 10.022C103.398 9.41401 103.553 8.87534 103.862 8.40601C104.171 7.93668 104.603 7.57401 105.158 7.31801C105.723 7.06201 106.369 6.93401 107.094 6.93401C108.139 6.93401 108.993 7.19534 109.654 7.71801C110.326 8.24068 110.705 8.93401 110.79 9.79801H109.19C109.137 9.37134 108.913 8.99801 108.518 8.67801C108.123 8.34734 107.601 8.18201 106.95 8.18201C106.342 8.18201 105.846 8.34201 105.462 8.66201C105.078 8.97134 104.886 9.40868 104.886 9.97401C104.886 10.3793 104.998 10.71 105.222 10.966C105.457 11.222 105.739 11.4193 106.07 11.558C106.411 11.686 106.886 11.8353 107.494 12.006C108.23 12.2087 108.822 12.4113 109.27 12.614C109.718 12.806 110.102 13.11 110.422 13.526C110.742 13.9313 110.902 14.486 110.902 15.19C110.902 15.734 110.758 16.246 110.47 16.726C110.182 17.206 109.755 17.5953 109.19 17.894C108.625 18.1927 107.958 18.342 107.19 18.342ZM113.509 18.326C113.231 18.326 112.997 18.23 112.805 18.038C112.613 17.846 112.517 17.6113 112.517 17.334C112.517 17.0567 112.613 16.822 112.805 16.63C112.997 16.438 113.231 16.342 113.509 16.342C113.775 16.342 113.999 16.438 114.181 16.63C114.373 16.822 114.469 17.0567 114.469 17.334C114.469 17.6113 114.373 17.846 114.181 18.038C113.999 18.23 113.775 18.326 113.509 18.326ZM122.996 15.75H118.132L117.236 18.23H115.7L119.732 7.14201H121.412L125.428 18.23H123.892L122.996 15.75ZM122.58 14.566L120.564 8.93401L118.548 14.566H122.58ZM127.649 18.326C127.372 18.326 127.137 18.23 126.945 18.038C126.753 17.846 126.657 17.6113 126.657 17.334C126.657 17.0567 126.753 16.822 126.945 16.63C127.137 16.438 127.372 16.342 127.649 16.342C127.916 16.342 128.14 16.438 128.321 16.63C128.513 16.822 128.609 17.0567 128.609 17.334C128.609 17.6113 128.513 17.846 128.321 18.038C128.14 18.23 127.916 18.326 127.649 18.326ZM134.081 18.342C133.345 18.342 132.683 18.214 132.097 17.958C131.521 17.6913 131.067 17.3287 130.737 16.87C130.406 16.4007 130.235 15.862 130.225 15.254H131.777C131.83 15.7767 132.043 16.2193 132.417 16.582C132.801 16.934 133.355 17.11 134.081 17.11C134.774 17.11 135.318 16.9393 135.713 16.598C136.118 16.246 136.321 15.798 136.321 15.254C136.321 14.8273 136.203 14.4807 135.969 14.214C135.734 13.9473 135.441 13.7447 135.089 13.606C134.737 13.4673 134.262 13.318 133.665 13.158C132.929 12.966 132.337 12.774 131.889 12.582C131.451 12.39 131.073 12.0913 130.753 11.686C130.443 11.27 130.289 10.7153 130.289 10.022C130.289 9.41401 130.443 8.87534 130.753 8.40601C131.062 7.93668 131.494 7.57401 132.049 7.31801C132.614 7.06201 133.259 6.93401 133.985 6.93401C135.03 6.93401 135.883 7.19534 136.545 7.71801C137.217 8.24068 137.595 8.93401 137.681 9.79801H136.081C136.027 9.37134 135.803 8.99801 135.409 8.67801C135.014 8.34734 134.491 8.18201 133.841 8.18201C133.233 8.18201 132.737 8.34201 132.353 8.66201C131.969 8.97134 131.777 9.40868 131.777 9.97401C131.777 10.3793 131.889 10.71 132.113 10.966C132.347 11.222 132.63 11.4193 132.961 11.558C133.302 11.686 133.777 11.8353 134.385 12.006C135.121 12.2087 135.713 12.4113 136.161 12.614C136.609 12.806 136.993 13.11 137.312 13.526C137.633 13.9313 137.793 14.486 137.793 15.19C137.793 15.734 137.649 16.246 137.361 16.726C137.073 17.206 136.646 17.5953 136.081 17.894C135.515 18.1927 134.849 18.342 134.081 18.342Z" fill="#201A18"/>
</svg>
