<svg width="300" height="300" viewBox="0 0 300 300" fill="none" xmlns="http://www.w3.org/2000/svg">
<circle cx="150" cy="150" r="150" fill="#C4DDD1" fill-opacity="0.15"/>
<mask id="mask0_1026_2801" style="mask-type:alpha" maskUnits="userSpaceOnUse" x="0" y="0" width="300" height="300">
<rect width="300" height="300" fill="#D9D9D9"/>
</mask>
<g mask="url(#mask0_1026_2801)">
<path d="M63.0474 105.666L60.8149 118.634C60.1499 122.386 63.0474 125.806 66.8474 125.806H138.572C141.565 125.806 144.082 123.669 144.605 120.724L153.345 69.8515C154.01 66.099 151.112 62.679 147.312 62.679H72.3099C71.6924 62.679 71.4074 63.4865 71.8824 63.8665L95.1574 82.629C99.3849 86.049 105.132 86.9515 110.215 84.9565L141.232 72.844" stroke="#201A18" stroke-width="5" stroke-miterlimit="10" stroke-linecap="round"/>
<path d="M141.185 78.734C144.464 78.734 147.122 76.0757 147.122 72.7965C147.122 69.5173 144.464 66.859 141.185 66.859C137.906 66.859 135.247 69.5173 135.247 72.7965C135.247 76.0757 137.906 78.734 141.185 78.734Z" fill="#201A18"/>
<path d="M66.7051 85.3364C69.9843 85.3364 72.6426 82.6781 72.6426 79.3989C72.6426 76.1197 69.9843 73.4614 66.7051 73.4614C63.4259 73.4614 60.7676 76.1197 60.7676 79.3989C60.7676 82.6781 63.4259 85.3364 66.7051 85.3364Z" fill="#201A18"/>
<path d="M42.48 79.3989H69.7925" stroke="#201A18" stroke-width="5" stroke-miterlimit="10" stroke-linecap="round"/>
<path d="M79.1975 101.154C82.4767 101.154 85.135 98.4956 85.135 95.2164C85.135 91.9372 82.4767 89.2789 79.1975 89.2789C75.9183 89.2789 73.26 91.9372 73.26 95.2164C73.26 98.4956 75.9183 101.154 79.1975 101.154Z" fill="#201A18"/>
<path d="M40.2949 95.2164H75.6824" stroke="#201A18" stroke-width="5" stroke-miterlimit="10" stroke-linecap="round"/>
<g clip-path="url(#clip0_1026_2801)">
<path d="M135.193 248.441C135.193 248.441 133.569 241.035 122.929 239.131C121.027 238.79 119.668 237.112 119.778 235.196C119.888 233.293 121.409 231.777 123.318 231.648C128.754 231.287 139.452 231.867 145.283 240.925L146.189 242.951C147.554 246.008 146.208 249.595 143.166 251.008C140.345 252.318 136.986 251.318 135.342 248.679L135.2 248.447L135.193 248.441Z" fill="url(#paint0_linear_1026_2801)"/>
<path d="M134.922 248.55C133.478 243.815 128.929 240.925 124.347 239.712C123.408 239.46 121.985 239.254 121.202 238.628C118.574 236.835 119.111 232.59 122.127 231.506C124.314 230.9 126.58 231.08 128.819 231.145C135.556 231.48 142.403 234.564 146.059 240.422L146.098 240.48L146.124 240.544L146.655 241.738C149.632 247.021 145.186 253.434 139.173 252.014C137.303 251.531 135.756 250.279 134.922 248.544V248.55ZM135.465 248.331C139.193 253.711 147.606 249.982 145.47 243.634C145.257 243.028 144.7 241.938 144.435 241.299C141.244 236.325 135.083 232.958 128.709 232.293C126.657 232.1 124.412 231.79 122.392 232.229C120.431 232.841 119.448 235.312 120.47 237.119C121.525 239.228 124.153 238.906 126.081 239.622C130.262 240.899 134.242 244.002 135.472 248.331H135.465Z" fill="black"/>
<path d="M137.238 282.284C136.048 280.768 135.155 279.226 134.592 277.697C136.785 274.858 138.61 272.084 140.034 269.439C141.788 271.265 144.493 274.781 145.283 279.742C142.578 280.742 139.872 281.6 137.238 282.284Z" fill="url(#paint1_linear_1026_2801)"/>
<path d="M140.099 269.994C141.788 271.826 144.137 275.078 144.914 279.535C142.377 280.471 139.834 281.271 137.361 281.916C136.3 280.529 135.491 279.135 134.954 277.755C136.999 275.091 138.727 272.484 140.099 269.994ZM139.95 268.904C138.261 272.117 136.164 275.142 134.223 277.645C134.695 278.961 135.549 280.697 137.116 282.651C140.034 281.903 142.888 280.987 145.639 279.961C144.836 274.42 141.646 270.594 139.95 268.91V268.904Z" fill="black"/>
<path d="M242.099 113.991C245.439 112.52 252.377 107.862 255.14 94.0179C255.431 92.5728 256.816 91.618 258.272 91.8374C259.728 92.0567 260.764 93.3598 260.634 94.8178C260.492 96.4306 260.253 98.5015 259.877 100.127C259.599 101.346 260.473 102.527 261.722 102.637C266.278 103.037 271.39 102.004 274.154 92.605C274.51 91.3987 275.694 90.6374 276.937 90.8181C278.354 91.031 279.312 92.3728 279.034 93.7663C278.056 98.7014 272.711 109.972 260.24 109.101C258.531 108.985 256.92 109.894 255.975 111.32C254.486 113.559 251.593 117.036 246.513 120.261C245.148 121.126 243.439 121.358 241.944 120.739C240.954 120.332 240.048 119.571 239.783 118.178C239.453 116.429 240.462 114.7 242.093 113.984L242.099 113.991Z" fill="url(#paint2_linear_1026_2801)"/>
<path d="M241.847 113.417C249.309 110.03 253.192 101.869 254.836 94.2178C255.218 91.4502 258.887 90.6051 260.401 92.9792C260.79 93.5662 260.926 94.3146 260.842 94.9855C260.725 96.2886 260.57 97.5918 260.35 98.8885C260.278 99.4239 260.013 100.25 260.065 100.759C260.123 101.34 260.486 101.875 260.99 102.159C261.528 102.462 262.194 102.411 262.796 102.443C264.084 102.469 265.372 102.34 266.575 101.933C270.691 100.585 272.685 96.3015 273.804 92.4373C274.73 89.4374 279.15 89.8632 279.506 92.9856C279.597 94.0307 279.144 95.05 278.885 96.0241C277.907 98.8562 276.419 101.514 274.439 103.785C271.481 107.256 267.08 109.417 262.518 109.675C262.194 109.675 260.389 109.662 260.026 109.656C258.149 109.572 256.751 111.023 255.852 112.533C253.49 115.765 250.461 118.474 247.102 120.636C244.779 122.39 240.624 122.061 239.401 119.1C238.488 116.933 239.718 114.294 241.847 113.417ZM242.352 114.558C240.805 115.204 239.919 117.074 240.566 118.636C241.226 120.216 243.245 120.745 244.824 120.319C245.995 120.023 246.999 119.158 248.002 118.494C250.862 116.429 253.451 113.971 255.438 111.062C256.428 109.546 258.169 108.481 260.046 108.539C260.401 108.546 262.149 108.578 262.459 108.585C266.757 108.378 270.86 106.411 273.701 103.153C275.603 101.011 277.073 98.4562 278.03 95.7532C278.25 94.9339 278.684 93.9275 278.639 93.0824C278.412 90.8503 275.222 90.5342 274.542 92.676C272.678 98.9659 268.944 103.733 261.78 102.888C260.259 102.843 259.217 101.159 259.735 99.7787C260.071 98.1917 260.253 96.5725 260.408 94.9597C260.486 94.3404 260.369 93.7275 260.033 93.2179C259.398 92.1728 257.962 91.7212 256.855 92.2437C255.988 92.6179 255.464 93.4114 255.328 94.3339L255.121 95.2951C253.522 102.946 249.833 111.062 242.352 114.571V114.558Z" fill="black"/>
<path d="M212.906 121.971C212.906 121.971 205.612 128.699 200.001 140.828C197.775 145.64 194.895 150.143 191.31 154.059C188.087 157.582 184.139 160.865 180.314 161.375C179.091 161.536 178.327 162.775 178.793 163.917C179.796 166.381 183.692 169.768 197.568 169.768C197.568 169.768 212.213 170.219 217.915 164.226C217.915 164.226 223.83 138.396 212.906 121.971Z" fill="url(#paint3_linear_1026_2801)"/>
<path d="M212.886 122.126C212.886 122.126 212.919 122.164 212.925 122.164C212.932 122.164 212.886 122.203 212.873 122.216L212.737 122.352C208.641 126.68 205.275 131.667 202.493 136.912C199.813 142.415 197.289 148.098 193.264 152.827C189.918 156.749 186.08 160.943 180.793 162.091L180.398 162.162C179.887 162.226 179.447 162.697 179.46 163.214C179.829 164.93 181.518 165.968 183.039 166.704C188.533 169.007 194.824 168.929 200.713 168.781C206.421 168.536 213.488 167.316 217.552 164.149C220.245 150.292 220.426 134.544 212.88 122.126H212.886ZM212.925 121.823C220.956 133.673 220.808 150.705 218.264 164.31C214.032 169.678 204.136 170.729 197.691 170.684C192.494 170.568 187.174 170.387 182.327 168.22C180.346 167.271 178.03 165.613 177.842 163.207C177.829 161.897 178.89 160.756 180.165 160.588C187.867 159.22 195.516 148.576 198.868 141.918C202.24 134.783 206.589 127.964 212.233 122.384L212.511 122.119L212.653 121.99L212.737 121.913C212.789 121.868 212.86 121.835 212.919 121.823H212.925Z" fill="black"/>
<path d="M194.5 114.268C194.85 113.694 195.29 113.184 195.801 112.746C199.212 109.875 213.067 99.8433 234.346 105.972C234.346 105.972 250.959 110.985 258.46 129.241C259.392 131.506 259.858 133.931 259.851 136.376C259.845 138.344 259.793 140.66 259.625 141.712C259.036 145.331 259.347 146.008 260.745 148.743C262.149 151.479 259.217 161.233 255.515 165.491C255.515 165.491 245.491 179.174 224.865 181.341C224.865 181.341 223.733 181.999 222.51 184.167C221.481 185.986 220.012 187.522 218.187 188.554C213.786 191.038 208.214 189.799 205.295 185.683C204.376 184.386 204.104 182.754 204.492 181.212C205.094 178.825 205.295 175.052 201.69 172.658C201.69 172.658 188.585 164.155 187.44 156.22C186.864 152.227 185.511 148.382 183.608 144.821L183.285 144.208L194.487 114.268H194.5Z" fill="url(#paint4_linear_1026_2801)"/>
<path d="M194.17 114.113C195.516 111.971 197.781 110.765 199.787 109.346C205.444 105.727 212.097 103.682 218.801 103.424C224.315 103.133 229.771 103.978 235.052 105.598C241.336 108.03 246.876 112.049 251.296 117.055C252.894 118.823 254.35 120.874 255.638 122.874C256.156 123.816 256.926 125.1 257.399 126.048C257.845 127.029 258.486 128.377 258.894 129.358C260.499 133.364 260.427 137.744 260.013 141.97C259.845 143.137 259.677 144.324 259.877 145.402C260.11 146.95 261.489 148.402 261.605 150.066C261.78 153.317 260.803 156.504 259.69 159.517C258.79 161.788 257.709 164.013 256.098 165.994C248.319 175.613 237.278 180.503 224.898 181.664L225.027 181.625C224.477 181.987 223.94 182.574 223.506 183.167C223.047 183.754 222.71 184.432 222.264 185.09C221.377 186.386 220.245 187.515 218.918 188.36C214.957 190.986 209.236 190.347 206.033 186.812C204.913 185.709 204.098 184.212 204.078 182.599C204.078 181.083 204.628 179.58 204.382 178.064C204.078 174.555 201.509 173.458 198.998 171.658C194.118 167.981 189.232 163.297 187.388 157.311C186.669 152.775 185.356 148.35 183.065 144.331L183.006 144.228L183.045 144.118C186.177 135.751 191.07 122.597 194.17 114.113ZM194.824 114.429C191.665 122.939 186.592 135.873 183.537 144.305L183.524 144.092C185.019 146.789 186.236 149.666 187.019 152.666C187.439 154.124 187.614 155.724 187.957 157.175C188.352 158.614 189.096 159.949 189.963 161.181C193.413 165.749 198.144 169.136 202.693 172.555C205.03 174.426 205.716 177.626 205.036 180.4C204.246 182.645 204.512 184.877 206.272 186.606C210.712 191.47 218.478 190.289 221.824 184.812C222.633 183.477 223.344 182.038 224.71 181.083L224.749 181.058L224.839 181.045L227.014 180.703C233.479 179.671 239.627 176.948 245.141 173.49C251.898 169.22 257.515 163.594 259.651 155.711C260.233 153.646 260.939 151.066 260.311 149.04C259.826 147.982 259.185 146.879 258.978 145.569C258.706 143.041 259.515 140.828 259.431 138.325C259.651 134.764 259.172 131.196 257.489 128.016L256.738 126.396C252.169 117.429 244.138 110.178 234.676 106.707C225.616 104.049 215.695 103.966 206.777 107.262C203.438 108.449 200.182 110.01 197.315 112.101C196.396 112.752 195.426 113.494 194.837 114.436L194.824 114.429Z" fill="black"/>
<path d="M195.477 113.152C195.477 113.152 174.671 134.099 134.934 140.202C133.388 140.441 132.43 142.028 132.98 143.492C134.481 147.511 139.005 154.775 152.55 159.317C152.55 159.317 160.989 161.846 169.817 161.214C172.004 161.059 174.095 160.298 175.868 159.014C179 156.743 184.048 152.059 188.792 143.137" fill="url(#paint5_linear_1026_2801)"/>
<path d="M195.794 113.468C186.08 122.764 173.998 129.293 161.559 134.222C157.501 135.725 152.932 137.241 148.771 138.338C147.282 138.705 143.684 139.544 142.228 139.886C140.778 140.15 137.102 140.821 135.614 141.092L135.07 141.189C134.294 141.292 133.698 142.099 133.841 142.86C134.067 143.757 134.63 144.737 135.057 145.563C137.368 149.595 141.057 152.659 145.076 154.937C150.136 157.872 155.747 159.478 161.546 160.117C164.42 160.452 167.364 160.601 170.244 160.401C173.13 160.175 175.557 158.633 177.719 156.743C182.184 152.93 185.731 148.131 188.675 143.066C188.747 142.918 188.993 143.047 188.908 143.189C186.281 148.524 182.948 153.595 178.515 157.653C176.276 159.775 173.564 161.556 170.419 161.904C167.364 162.233 164.361 162.162 161.358 161.872C150.195 160.981 136.941 155.266 132.281 144.453C131.019 141.937 132.508 139.357 135.31 139.112C145.419 137.441 155.547 134.783 165.021 130.893C173.169 127.532 181.058 123.39 188.261 118.3C190.649 116.591 193.012 114.797 195.154 112.83C195.335 112.649 195.633 112.649 195.807 112.842C195.969 113.023 195.963 113.294 195.794 113.468Z" fill="black"/>
<path d="M257.418 199.173C256.525 198.45 255.315 197.56 254.195 197.057L254.208 197.799C254.215 198.121 254.357 198.605 254.571 198.85C254.687 198.986 254.758 199.147 254.797 199.308C254.914 199.831 254.661 200.373 254.228 200.702C241.381 210.424 239.233 211.559 235.214 211.617C234.534 211.623 233.848 211.553 233.188 211.378C223.558 208.895 222.95 209.127 220.148 208.198C218.148 207.533 216.252 204.43 216.129 203.605C215.585 199.966 212.783 199.295 212.783 199.295C212.621 198.618 212.051 198.263 212.051 198.263L199.063 188.425C196.72 188.606 185.517 193.16 180.664 196.076C153.955 212.088 139.601 235.222 139.381 235.409C146.001 248.35 168.309 248.892 183.835 246.77C183.835 246.77 184.236 243.363 184.579 242.525C193.096 221.707 201.548 219.339 201.548 219.339C211.928 214.643 227.901 217.184 232.644 218.862C233.363 219.113 234.405 219.036 235.673 218.765C247.471 216.275 261.968 202.45 261.968 202.45C262.401 201.766 262.77 201.076 263.094 200.379C262.492 200.411 261.78 200.437 261.1 200.45C259.761 200.469 258.454 200.018 257.412 199.173H257.418Z" fill="url(#paint6_linear_1026_2801)"/>
<path d="M204.887 182.09C202.505 178.903 195.322 170.594 186.87 173.4C186.113 173.652 185.407 174.039 184.754 174.49C182.107 176.335 172.949 182.083 165.099 179.335C164.232 179.032 163.436 179.967 163.921 180.748C165.384 183.096 168.645 186.244 175.596 186.193C176.884 186.18 178.12 185.657 179.033 184.748C179.816 183.967 180.838 183.006 181.744 182.348C182.307 181.935 183.071 182.496 182.844 183.154C182.592 183.896 182.184 184.793 181.569 185.593C181.298 185.941 181.382 186.451 181.77 186.67C182.786 187.244 184.902 187.78 187.957 185.18C188.76 184.496 189.659 183.928 190.649 183.567C192.41 182.922 195.134 182.47 198.305 183.851C199.173 184.232 199.981 184.722 200.739 185.296C201.781 186.089 204.389 187.754 205.353 185.406C205.8 184.309 205.586 183.045 204.881 182.096L204.887 182.09Z" fill="url(#paint7_linear_1026_2801)"/>
<path d="M204.583 182.316C200.829 176.955 194.261 171.594 187.329 173.71C185.77 174.09 184.592 175.245 183.226 176.039C177.848 179.361 171.144 181.999 164.821 179.954C164.581 179.909 164.355 180.206 164.504 180.387L164.601 180.535C165.358 181.69 166.361 182.69 167.532 183.438C170.095 185.064 173.305 185.631 176.315 185.393C178.418 185.019 179.499 182.98 181.214 181.851C181.466 181.593 182.217 181.367 182.624 181.567C183.375 181.787 183.828 182.741 183.505 183.464L183.349 183.87C183.039 184.638 182.631 185.373 182.12 186.031C182.081 186.09 182.158 186.096 182.191 186.115C185.459 187.702 187.782 183.67 190.721 182.916C192.889 182.193 195.296 182.225 197.432 182.961C198.765 183.406 200.014 184.103 201.108 184.967C201.988 185.593 203.25 186.496 204.318 186.038C205.483 185.29 205.398 183.367 204.589 182.316H204.583ZM205.191 181.864C206.822 183.767 205.89 187.87 202.823 186.915C200.732 186.257 199.263 184.464 197.108 183.948C195.147 183.328 193.018 183.354 191.102 184.038C188.986 184.696 187.744 186.606 185.634 187.399C184.54 187.838 183.2 187.999 181.99 187.522C181.039 187.244 180.405 186.328 180.89 185.393C181.453 184.586 181.848 183.909 182.158 182.993C182.191 182.909 182.178 182.916 182.184 182.928C182.191 182.954 182.184 182.928 182.171 182.928C182.171 182.928 182.171 182.928 182.184 182.928C180.845 183.832 179.77 185.335 178.327 186.199C177.285 186.818 176.023 186.986 174.82 186.909C173.13 186.883 171.454 186.612 169.836 186.096C167.397 185.302 165.164 183.761 163.695 181.638L163.455 181.277C163.06 180.761 162.97 179.993 163.326 179.438C163.708 178.748 164.627 178.432 165.358 178.716C165.461 178.742 166.154 178.948 166.277 178.98C171.959 180.451 177.848 178.09 182.741 175.245C184.158 174.445 185.453 173.277 187.09 172.916C194.429 170.807 200.907 176.574 205.185 181.864H205.191Z" fill="black"/>
<path d="M199.089 181.006C195.329 178.625 190.248 176.664 185.977 178.8C185.666 178.974 185.265 178.858 185.103 178.535C184.948 178.219 185.084 177.832 185.401 177.69C187.744 176.574 190.429 176.587 192.869 177.238C195.27 177.896 197.484 178.993 199.509 180.419C199.891 180.696 199.47 181.283 199.082 181.006H199.089Z" fill="black"/>
<path d="M179.052 182.258C175.836 184.206 171.784 184.148 168.484 182.516C168.302 182.432 168.225 182.219 168.302 182.038C168.38 181.864 168.581 181.787 168.755 181.851C169.551 182.141 170.36 182.406 171.195 182.522C173.557 182.928 176.211 182.393 178.146 181.025C178.994 180.354 179.958 181.664 179.052 182.264V182.258Z" fill="black"/>
<path d="M228.774 180.935C225.532 181.877 221.947 181.367 219.099 179.567C219.034 179.529 219.015 179.451 219.054 179.387C219.093 179.322 219.17 179.303 219.235 179.342C222.011 180.935 225.5 181.277 228.522 180.251C228.981 180.058 229.253 180.78 228.768 180.929L228.774 180.935Z" fill="black"/>
<path d="M229.68 143.763C228.826 149.472 223.901 150.182 218.174 149.331C212.446 148.479 208.078 146.382 208.939 140.673C209.793 134.964 215.132 131.028 220.859 131.88C226.587 132.732 230.535 138.054 229.68 143.763Z" fill="white"/>
<path d="M230.418 143.866C229.35 150.608 222.555 150.543 217.229 149.408C213.411 148.769 208.693 147.176 208.421 142.621C208.123 138.538 210.427 134.493 214.012 132.519C221.979 128.029 231.952 134.777 230.412 143.866H230.418ZM228.949 143.647C229.997 135.789 221.688 129.79 214.582 133.544C211.314 135.215 209.12 138.886 209.288 142.563C209.43 146.621 213.825 148.401 217.319 148.943C221.979 149.737 228.47 149.589 228.956 143.647H228.949Z" fill="black"/>
<path d="M256.007 147.679C255.153 153.388 252.318 153.517 248.791 152.995C245.264 152.472 242.384 151.492 243.238 145.782C244.093 140.073 247.646 135.867 251.166 136.396C254.693 136.918 256.855 141.976 256.001 147.685L256.007 147.679Z" fill="white"/>
<path d="M256.408 147.737C256.098 150.234 254.816 153.401 251.826 153.401C248.455 153.492 243.407 153.13 242.76 148.989C242.248 144.924 243.582 140.357 246.565 137.434C249.303 134.822 253.231 135.325 255.088 138.654C256.674 141.383 256.881 144.692 256.408 147.731V147.737ZM255.612 147.621C257.01 137.615 249.018 131.809 244.449 143.182C242.507 149.408 243.342 152.337 250.312 152.911C253.781 153.362 255.269 150.647 255.612 147.621Z" fill="black"/>
<path d="M246.673 132.629C247.295 131.941 248.11 131.861 248.876 131.773C249.653 131.692 250.439 131.693 251.208 131.768C252.74 131.937 254.232 132.396 255.575 133.142C255.751 133.24 255.817 133.46 255.719 133.635C255.639 133.783 255.468 133.856 255.309 133.815C253.263 133.237 251.146 132.911 249.034 133.173C248.552 133.238 246.069 133.775 246.664 132.631L246.673 132.629Z" fill="black"/>
<path d="M230.689 130.536C229.275 130.441 228.438 129.422 227.205 128.932C223.774 127.195 219.979 126.242 216.14 125.947C215.934 125.936 215.773 125.752 215.802 125.537C215.824 125.363 215.966 125.232 216.137 125.219C218.812 125.03 221.536 125.314 224.117 126.062C226.073 126.617 227.944 127.432 229.696 128.461C230.283 128.8 230.866 129.185 231.138 129.971C231.248 130.264 230.982 130.573 230.68 130.534L230.689 130.536Z" fill="black"/>
<path d="M234.45 154.524C236.249 154.208 239.271 153.853 240.993 154.595C241.951 155.008 242.41 156.104 242.035 157.078C241.692 157.975 240.935 159.304 239.368 159.769C238.611 159.994 237.809 159.93 237.058 159.685C235.945 159.323 234.301 158.453 233.434 156.382C233.097 155.582 233.589 154.672 234.45 154.524Z" fill="black"/>
<path d="M238.275 159.201C238.055 160.375 237.893 161.517 237.725 162.743C237.595 163.375 237.116 163.93 236.508 164.149C231.285 166.207 225.066 165.794 220.335 162.672C218.251 161.356 216.446 159.659 214.989 157.73C214.867 157.569 214.899 157.343 215.061 157.22C215.197 157.117 215.391 157.124 215.514 157.233C219.06 160.214 222.904 162.904 227.486 163.846C230.282 164.446 233.279 164.31 236.042 163.465C236.508 163.375 236.935 163.078 237.039 162.594C237.239 161.472 237.42 160.265 237.55 159.098C237.602 158.614 238.352 158.724 238.268 159.207L238.275 159.201Z" fill="black"/>
<path d="M243.264 165.336C243.226 166.62 241.867 167.684 240.605 167.194C239.569 166.871 238.773 166.084 238.106 165.284C237.666 164.781 237.33 164.22 236.98 163.672C236.87 163.504 236.922 163.278 237.09 163.175C237.233 163.085 237.42 163.104 237.537 163.22C237.996 163.672 238.411 164.155 238.87 164.575C239.025 164.743 239.362 165.046 239.543 165.181C240.637 166.11 241.672 166.607 242.559 165.155C242.74 164.801 243.297 164.943 243.258 165.342L243.264 165.336Z" fill="black"/>
<path d="M134.223 277.645C133.543 278.516 132.883 279.329 132.268 280.064C131.032 281.535 132.365 283.729 134.242 283.322C135.206 283.116 136.164 282.89 137.109 282.645C135.549 280.69 134.689 278.955 134.216 277.639L134.223 277.645Z" fill="#643C3B"/>
<path d="M263.359 191.128L259.288 190.07C258.648 189.902 257.968 190.038 257.444 190.438L254.972 192.309C254.422 192.721 254.111 193.373 254.124 194.063L254.189 197.05C255.308 197.553 256.518 198.444 257.412 199.166C258.453 200.011 259.754 200.463 261.1 200.443C261.786 200.431 262.492 200.405 263.094 200.373C264.323 197.721 264.783 195.102 264.958 193.418C265.061 192.36 264.388 191.386 263.359 191.121V191.128Z" fill="#643C3B" stroke="black" stroke-miterlimit="10"/>
<path d="M220.913 142.044C221.238 139.874 220.49 137.963 219.242 137.778C217.994 137.592 216.719 139.201 216.394 141.372C216.069 143.543 216.817 145.453 218.065 145.638C219.313 145.824 220.588 144.215 220.913 142.044Z" fill="#429195"/>
<path d="M220.076 140.654C220.327 140.654 220.529 140.451 220.529 140.202C220.529 139.953 220.327 139.75 220.076 139.75C219.826 139.75 219.623 139.953 219.623 140.202C219.623 140.451 219.826 140.654 220.076 140.654Z" fill="white"/>
<path d="M250.59 146.345C250.915 144.175 250.167 142.264 248.919 142.079C247.671 141.893 246.396 143.502 246.071 145.673C245.746 147.844 246.494 149.754 247.742 149.94C248.99 150.125 250.265 148.516 250.59 146.345Z" fill="#429195"/>
<path d="M249.924 144.982C250.174 144.982 250.377 144.78 250.377 144.531C250.377 144.281 250.174 144.079 249.924 144.079C249.674 144.079 249.471 144.281 249.471 144.531C249.471 144.78 249.674 144.982 249.924 144.982Z" fill="white"/>
<path d="M241.122 156.304C241.372 156.304 241.575 156.102 241.575 155.853C241.575 155.603 241.372 155.401 241.122 155.401C240.872 155.401 240.669 155.603 240.669 155.853C240.669 156.102 240.872 156.304 241.122 156.304Z" fill="white"/>
<path d="M141.723 175.755C142.202 176.168 141.866 177.497 141.38 178.78C140.636 179.148 139.769 179.69 138.837 180.496C138.242 181.012 137.426 181.193 136.675 180.967L133.673 180.058C133.155 179.903 132.708 179.567 132.417 179.109L130.644 176.342C129.938 175.245 130.314 173.794 131.453 173.148C132.702 172.439 134.54 171.678 136.934 171.4C139.633 173.039 141.723 175.761 141.723 175.761V175.755Z" fill="#643C3B" stroke="black" stroke-width="2" stroke-miterlimit="10"/>
<path d="M185.582 201.276C185.582 201.276 180.916 198.134 158.66 201.321C157.268 201.521 155.922 200.695 155.489 199.366C154.097 195.115 150.564 185.851 144.286 178.567C143.962 178.193 143.458 178.038 142.985 178.167C142.578 178.277 142.027 178.464 141.387 178.78C141.872 177.497 142.209 176.174 141.73 175.755C141.73 175.755 139.639 173.039 136.941 171.394C137.808 171.29 138.746 171.252 139.756 171.31C140.455 171.348 141.128 171.536 141.749 171.858C144.636 173.361 153.379 178.696 159.527 190.76C159.98 191.65 160.854 192.25 161.85 192.341C165.552 192.676 174.949 193.063 184.119 189.734C184.119 189.734 190.384 186.477 195.917 189.651" fill="url(#paint8_linear_1026_2801)"/>
<path d="M167.74 267.994C166.73 260.898 155.67 259.233 146.157 256.408C144.014 256.911 142.604 263.852 139.95 268.91C141.646 270.594 144.836 274.42 145.639 279.961C151.761 277.671 160.194 274.355 167.74 267.994Z" fill="url(#paint9_linear_1026_2801)"/>
<path d="M187.381 268.665C187.75 269.633 188.054 270.51 188.3 271.297C188.954 273.349 186.805 275.181 184.877 274.2C183.751 273.626 182.644 273.097 181.544 272.6C184.644 271.387 186.397 269.891 187.375 268.665H187.381Z" fill="#643C3B"/>
<path d="M183.233 259.562C185.129 263.201 186.456 266.22 187.381 268.659C186.404 269.878 184.65 271.381 181.55 272.594C178.793 271.342 176.14 270.317 173.622 269.471C174.218 267.51 176.373 262.498 183.239 259.556L183.233 259.562Z" fill="url(#paint10_linear_1026_2801)" stroke="black" stroke-miterlimit="10"/>
<path d="M179.874 255.943C180.961 254.014 182.088 251.253 183.835 246.763C176.153 247.815 147.619 250.589 139.381 235.403C135.659 243.092 134.838 248.279 136.106 254.795C136.106 254.795 136.106 254.814 136.113 254.821C137.42 256.64 143.503 265.272 173.616 269.471C174.211 267.51 176.367 262.498 183.233 259.556C182.631 258.401 181.434 257.156 179.868 255.937L179.874 255.943Z" fill="url(#paint11_linear_1026_2801)"/>
<path d="M179.557 256.008C179.622 255.73 179.816 255.376 179.887 255.247C180.554 253.963 181.13 252.627 181.686 251.292C182.32 249.757 182.929 248.202 183.537 246.653L183.88 247.092C179.881 247.75 175.836 248.144 171.778 248.24C163.669 248.382 155.236 247.737 147.846 244.054C144.183 242.189 140.876 239.306 139.096 235.564L139.672 235.551C138.235 238.551 136.96 241.654 136.326 244.899C135.608 248.015 135.892 252.421 136.423 254.718C137.679 256.64 141.406 259.498 144.215 260.904C153.256 265.568 163.675 267.581 173.668 269.162C173.681 269.162 173.312 269.388 173.318 269.388C174.05 267.059 175.402 264.968 177.111 263.259C178.826 261.549 180.903 260.24 183.116 259.272L182.955 259.717C182.301 258.498 181.22 257.479 180.159 256.588C179.958 256.421 179.699 256.227 179.563 256.014L179.557 256.008ZM180.191 255.879C180.385 255.879 180.398 255.969 180.567 256.085C181.796 257.111 182.961 258.246 183.686 259.711L183.369 259.859C179.104 261.665 175.331 265.085 173.933 269.568L173.849 269.833L173.577 269.794C162.239 268.11 148.829 265.71 139.484 258.756C138.125 257.692 136.468 256.111 135.795 254.853C135.265 252.666 134.954 247.834 135.698 244.77C136.391 241.254 137.795 237.951 139.335 234.757C141.471 238.344 144.7 241.093 148.454 242.841C155.689 246.266 163.831 246.995 171.759 247.073C175.946 247.073 180.146 246.834 184.327 246.389C183.103 249.466 181.971 252.589 180.457 255.543C180.34 255.782 180.327 255.795 180.191 255.879Z" fill="black"/>
<path d="M183.188 260.098C182.715 259.285 182.036 258.569 181.311 257.924C180.444 257.214 179.965 255.93 180.269 254.763L181.214 251.879C181.757 250.131 183.285 245.118 183.841 243.286C184.495 241.409 185.336 239.46 186.171 237.654C188.689 232.158 191.802 226.674 196.15 222.358C203.813 214.455 220.038 215.21 230.451 217.468C231.389 217.662 232.554 218.029 233.408 218.3C234.23 218.436 235.143 218.255 236.023 218.049C240.598 216.978 244.759 214.662 248.714 212.139C253.25 209.185 257.567 205.779 261.541 202.114L261.392 202.295C262.246 200.972 262.906 199.502 263.392 197.973C263.832 196.592 264.123 195.147 264.285 193.702C264.349 193.128 263.974 192.541 263.404 192.386C262.473 192.154 260.641 191.638 259.767 191.418L259.463 191.334L259.314 191.296C258.868 191.192 258.492 191.283 258.137 191.567L257.127 192.321L256.117 193.076L255.865 193.263C255.457 193.528 255.205 193.947 255.211 194.437C255.224 195.192 255.257 197.373 255.27 198.166C255.27 198.25 255.308 198.405 255.36 198.534C255.425 198.715 255.541 198.824 255.632 198.985C256.279 200.256 255.528 201.411 254.461 202.063L253.451 202.817L251.425 204.321C248.694 206.314 245.989 208.327 243.096 210.107C240.954 211.449 238.34 212.668 235.699 212.598C233.104 212.617 230.677 211.494 228.16 210.998C225.506 210.282 222.775 209.875 220.167 208.978C218.2 208.12 216.841 206.23 216.045 204.308C215.844 203.217 215.566 202.121 214.828 201.269C214.284 200.624 213.546 200.121 212.757 199.914C212.686 199.508 212.453 199.108 212.097 198.889L199.108 189.051L199.328 189.115C198.131 189.276 196.882 189.747 195.71 190.141C193.044 188.947 190.035 189.025 187.304 189.863C186.372 190.141 185.453 190.534 184.65 190.947C182.139 191.947 179.531 192.708 176.878 193.225C171.882 194.205 166.73 194.495 161.656 194.031C160.233 193.824 159.016 192.837 158.414 191.554C157.553 189.934 156.485 188.122 155.456 186.612C151.722 181.154 146.862 176.258 140.947 173.252C140.468 173.052 139.95 173.019 139.445 173.006C137.031 172.935 134.592 173.426 132.469 174.574C131.886 174.806 131.653 175.464 131.932 175.987C132.262 176.542 133.239 178.058 133.601 178.638L133.724 178.832C133.783 178.929 133.86 179.012 133.951 179.083C134.164 179.238 134.132 179.206 134.43 179.309C135.148 179.522 136.591 179.993 137.264 180.2C137.685 180.348 138.132 180.187 138.442 179.883C139.711 178.838 141.128 177.974 142.733 177.516C142.869 177.477 143.212 177.38 143.523 177.387C143.833 177.387 144.144 177.445 144.429 177.555C144.914 177.735 145.302 178.109 145.606 178.516C146.467 179.561 147.289 180.632 148.046 181.748C151.088 186.173 153.444 191.018 155.288 196.031C155.605 196.921 155.968 197.953 156.252 198.869C156.557 200.321 157.508 201.256 159.035 200.998C164.601 200.321 170.205 199.85 175.823 199.966C172.335 202.805 168.846 205.637 165.494 208.591C156.058 216.842 147.419 226.022 139.847 236.009C137.019 241.912 135.226 248.266 136.753 255.034C137.996 256.724 140.41 258.866 142.578 260.085C142.778 260.207 143.011 260.343 143.173 260.511C143.781 261.078 143.827 262.02 143.471 262.736L143.257 263.317L142.824 264.478C140.895 269.981 137.692 274.955 134.054 279.477L133.278 280.451L132.915 280.909C132.462 281.49 132.605 282.374 133.187 282.832C133.556 283.103 133.957 283.193 134.41 283.077L135.006 282.935C137.42 282.432 139.678 281.626 141.995 280.742C146.603 278.993 151.166 277.09 155.612 274.987C159.178 273.239 162.769 271.529 165.811 269.033C166.627 268.252 168.109 268.007 169.105 268.272L173.978 268.994C176.509 269.768 178.981 270.742 181.408 271.8C182.748 272.381 184.042 273.065 185.356 273.697C185.64 273.826 185.964 274 186.288 273.968C187.446 273.903 188.132 272.749 187.647 271.652C187.194 270.136 186.663 268.652 186.113 267.168C185.213 264.794 184.204 262.452 183.181 260.111L183.757 259.814C185.763 263.117 187.53 266.594 188.902 270.226L189.239 271.142C189.329 271.407 189.491 271.845 189.511 272.278C189.731 274.852 186.767 276.665 184.527 275.329C181.207 273.71 176.651 271.742 173.733 270.755L168.82 269.942C168.05 269.826 167.656 269.762 167.054 270.162C166.743 270.375 166.432 270.678 166.122 270.897C160.278 274.987 153.644 277.574 147.108 280.258C143.037 281.826 138.979 283.477 134.669 284.329C132.365 284.909 130.43 282.148 131.932 280.206L132.339 279.703L133.116 278.755C137.038 274.039 140.313 268.794 142.319 262.994L142.539 262.42L142.649 262.13C142.804 261.762 142.668 261.298 142.319 261.085C139.898 259.569 137.549 257.788 135.938 255.388C134.372 248.628 136.216 241.699 139.316 235.661C145.814 224.816 154.473 215.197 164.29 207.204C167.604 204.579 171.06 202.134 174.729 200.031C174.723 200.031 174.943 200.637 174.904 200.618C169.642 200.856 164.413 201.521 159.21 202.359C157.599 202.721 155.825 201.895 155.133 200.372C153.767 196.657 152.272 193.044 150.396 189.573C148.512 186.083 146.325 182.767 143.73 179.774L143.658 179.683C143.639 179.664 143.613 179.651 143.587 179.645C143.568 179.645 143.542 179.638 143.523 179.645C143.497 179.645 143.523 179.645 143.341 179.696C142.241 180.045 141.193 180.664 140.28 181.399L139.931 181.69C139.044 182.528 137.698 182.877 136.527 182.509C135.478 182.199 134.618 181.954 133.673 181.677C132.922 181.509 132.022 180.896 131.602 180.212L131.459 179.993L130.385 178.335L129.848 177.503C128.799 176.032 129.142 173.793 130.605 172.716C133.362 170.903 136.753 170.245 140.008 170.374C142.461 170.516 144.455 172.168 146.422 173.432C151.994 177.38 156.544 182.625 159.883 188.528L160.841 190.321C161.016 190.676 161.229 191.012 161.585 191.199C161.773 191.309 161.999 191.373 162.219 191.392C164.387 191.586 166.568 191.676 168.743 191.644C173.907 191.554 179.085 190.863 184.016 189.296C186.307 188.27 190.138 187.593 193.025 188.386C194.028 188.625 194.979 189.038 195.853 189.541L195.6 189.522C196.856 189.109 198.034 188.644 199.38 188.489L199.483 188.567L212.472 198.405C212.75 198.618 213.255 199.114 213.32 199.618L213.08 199.379C214.886 199.895 216.142 201.482 216.588 203.198C216.828 204.785 217.915 206.133 219.041 207.211C220.232 208.359 221.908 208.52 223.455 208.895C225.098 209.23 226.755 209.578 228.399 209.953C230.813 210.378 233.175 211.41 235.641 211.372C238.126 211.359 240.236 210.275 242.326 208.94C245.122 207.146 247.808 205.121 250.474 203.114L252.48 201.592L253.483 200.83L253.975 200.45C254.176 200.321 254.305 199.947 254.202 199.792C253.846 199.347 253.703 198.889 253.626 198.315C253.606 197.527 253.535 195.276 253.516 194.502C253.47 193.566 253.936 192.605 254.687 192.037L254.81 191.941L255.062 191.747L256.059 190.979L257.056 190.212C257.8 189.58 258.939 189.36 259.884 189.657L260.188 189.734L261.411 190.044L263.877 190.67C265.275 191.038 266.258 192.476 266.097 193.908C265.741 197.289 264.796 200.701 262.867 203.553C255.651 210.056 247.814 216.281 238.534 219.526C236.469 220.139 233.984 220.939 231.874 220.036C222.833 217.565 207.864 216.739 199.801 222.068C194.351 226.242 190.831 232.364 187.776 238.428C187.116 239.712 186.501 241.157 185.899 242.467L185.589 243.144C185.498 243.344 185.427 243.557 185.343 243.796C184.087 247.447 182.683 251.434 181.246 255.034C180.657 257.033 183.091 258.027 183.744 259.807L183.168 260.104L183.188 260.098Z" fill="black"/>
<path d="M180.204 256.485C176.256 253.356 171.584 251.06 166.704 249.75C166.484 249.699 166.562 249.344 166.788 249.402C169.306 249.95 171.778 250.75 174.134 251.802C176.515 252.866 178.774 254.098 180.896 255.647C181.136 255.827 181.188 256.163 181.006 256.401C180.819 256.653 180.443 256.692 180.21 256.485H180.204Z" fill="black"/>
<path d="M242.708 166.342C242.708 166.342 216.361 184.244 215.818 158.278C215.818 158.278 224.691 168.833 237.058 163.472C237.058 163.472 240.003 167.729 242.708 166.342Z" fill="white"/>
<path d="M242.883 166.239C242.902 166.284 242.883 166.452 242.798 166.523C242.734 166.581 242.747 166.562 242.701 166.594C241.459 167.478 240.151 168.278 238.818 169.02C233.401 171.89 226.224 174.922 220.406 171.432C215.87 168.433 214.86 162.278 215.611 157.349L216.07 158.072C221.319 163.872 229.59 166.478 236.929 163.175L237.174 163.078L237.323 163.284C238.449 164.781 240.087 166.691 242.158 166.329C242.378 166.246 242.695 166.239 242.883 166.239ZM242.54 166.446C242.358 166.6 242.365 166.749 242.151 166.762C239.899 167.181 238.081 165.252 236.793 163.659L237.187 163.768C229.59 167.181 221.008 164.51 215.572 158.485L216.141 158.272C216.931 162.652 217.339 167.594 221.17 170.265C227.124 173.948 236.003 169.762 241.582 166.762C241.815 166.626 242.268 166.375 242.494 166.233C242.514 166.226 242.514 166.22 242.494 166.246C242.449 166.291 242.475 166.426 242.533 166.446H242.54Z" fill="black"/>
<path d="M222.05 166.6C222.05 166.6 224.438 168.878 228.451 168.587L222.05 166.6Z" fill="white"/>
<path d="M222.49 166.142C224.03 167.626 226.296 168.362 228.438 168.329C228.586 168.329 228.709 168.439 228.703 168.587C228.703 168.716 228.599 168.826 228.47 168.839C226.056 169.123 223.564 168.568 221.616 167.052C220.937 166.465 221.869 165.491 222.49 166.142Z" fill="black"/>
<path d="M275.629 133.409C271.831 129.886 266.433 125.519 259.521 121.474C258.913 121.119 258.557 120.455 258.628 119.758C258.784 118.165 259.263 115.262 260.745 113.158C261.463 112.139 260.932 110.726 259.728 110.404C251.943 108.327 231.551 103.643 223.539 109.126C223.319 109.275 223.144 109.475 223.014 109.707C222.756 110.152 222.303 110.997 221.875 112.107C221.299 113.604 219.753 114.468 218.18 114.158C207.359 112.017 197.289 112.023 196.209 112.03C196.144 112.03 196.086 112.036 196.027 112.062C194.681 112.565 192.798 114.442 191.601 115.752C191.264 116.12 191.588 116.694 192.073 116.597C199.47 115.113 215.902 118.455 220.316 119.41C220.859 119.526 221.351 119.771 221.83 120.042C221.895 120.081 221.96 120.106 222.024 120.139C224.555 121.171 231.505 124.455 233.078 129.99C233.304 130.777 234.036 131.299 234.851 131.273C240.165 131.073 258.512 130.848 273.766 136.409C275.617 137.086 277.073 134.751 275.629 133.415V133.409Z" fill="url(#paint12_linear_1026_2801)"/>
<path d="M275.041 134.041C270.264 129.551 264.99 125.571 259.36 122.197C258.24 121.629 257.735 120.448 257.994 119.236C258.246 117.358 258.693 115.52 259.593 113.817C259.923 113.094 260.777 112.417 260.292 111.559C260.117 111.243 259.864 111.043 259.457 110.946L257.955 110.546C249.316 108.378 230.904 104.159 223.422 109.701C222.872 110.533 222.484 111.468 222.089 112.417C221.416 114.01 219.481 114.875 217.844 114.417C210.725 113.036 203.457 112.346 196.209 112.288C194.83 112.759 193.724 113.978 192.675 114.958L192.138 115.513L191.873 115.797C191.834 115.842 191.776 115.9 191.75 115.926C191.627 116.055 191.704 116.294 191.866 116.345C192.481 116.333 193.4 116.087 194.08 116.081C201.386 115.629 208.66 116.939 215.824 118.19C216.879 118.397 219.416 118.887 220.419 119.113C225.661 121.19 231.609 124.158 233.499 129.893C233.667 130.461 234.236 130.848 234.825 130.815L235.608 130.783C237.699 130.706 239.783 130.686 241.867 130.712C250.746 130.828 259.651 131.699 268.284 133.88C269.973 134.331 271.915 134.899 273.571 135.467C273.817 135.551 274.109 135.641 274.206 135.66C275.079 135.847 275.727 134.66 275.028 134.048L275.041 134.041ZM276.212 132.783C278.186 134.525 276.477 137.905 273.863 137.312C272.931 137.047 271.74 136.583 270.834 136.28C269.423 135.835 267.831 135.351 266.388 134.989C256.383 132.435 245.963 131.538 235.641 131.712C235.104 131.706 234.411 131.809 233.913 131.551C233.311 131.299 232.832 130.764 232.651 130.145C232.353 129.19 231.958 128.287 231.395 127.454C229.085 124.068 225.325 121.926 221.617 120.3C220.84 119.784 219.636 119.584 218.756 119.403C211.676 117.971 204.441 116.662 197.212 116.481C195.536 116.468 193.866 116.526 192.216 116.816C192.119 116.829 191.879 116.881 191.698 116.803C191.135 116.603 191.044 115.816 191.51 115.462L191.776 115.178C193.018 113.92 194.274 112.539 195.924 111.817C200.176 111.668 204.447 112.049 208.686 112.442C211.793 112.765 214.893 113.217 217.967 113.804C219.397 114.184 220.918 113.488 221.487 112.146C221.759 111.455 222.083 110.675 222.445 109.997C222.775 109.165 223.474 108.681 224.238 108.281C226.134 107.256 228.224 106.759 230.308 106.456C239.724 105.385 249.121 107.314 258.246 109.423C258.797 109.617 260.175 109.785 260.673 110.21C261.832 111.036 261.968 112.7 261.075 113.778C260.033 115.449 259.567 117.449 259.34 119.397C259.243 119.945 259.282 120.487 259.787 120.823C265.67 124.209 271.196 128.209 276.212 132.783Z" fill="black"/>
<path d="M256.409 121.158C249.814 118.926 242.74 117.107 235.725 117.855C235.434 117.9 235.343 117.442 235.647 117.39C239.2 116.791 242.824 116.997 246.377 117.474C249.943 117.984 253.425 118.758 256.875 119.816C257.25 119.932 257.457 120.332 257.34 120.706C257.218 121.1 256.784 121.306 256.402 121.158H256.409Z" fill="black"/>
<path d="M269.792 132.196C264.886 130.667 259.864 129.383 254.804 128.467C249.769 127.609 244.533 126.867 239.472 127.835C239.291 127.88 239.2 127.583 239.401 127.538C244.514 126.429 249.807 127.035 254.92 127.771C260.059 128.564 265.119 129.712 270.122 131.138C270.828 131.357 270.51 132.422 269.792 132.196Z" fill="black"/>
<path d="M207.599 108.856C204.835 106.475 199.567 100.005 200.978 85.9538C201.127 84.4894 200.079 83.1733 198.623 82.954C197.166 82.7346 195.794 83.683 195.49 85.1151C195.154 86.7021 194.778 88.7472 194.655 90.4116C194.565 91.6567 193.38 92.534 192.157 92.276C187.685 91.3341 178.987 88.244 179.097 78.451C179.11 77.193 178.204 76.1221 176.955 75.9351C175.538 75.7222 174.231 76.7286 174.082 78.1478C173.571 83.154 174.561 94.1468 191.672 98.9014C193.322 99.3594 194.617 100.63 195.102 102.262C195.872 104.837 197.619 109.004 201.528 113.571C202.577 114.797 204.149 115.52 205.761 115.358C206.822 115.255 207.916 114.797 208.576 113.539C209.404 111.965 208.945 110.017 207.592 108.856H207.599Z" fill="url(#paint13_linear_1026_2801)"/>
<path d="M207.256 109.249C203.004 105.43 201.108 99.753 200.642 94.2307C200.402 91.4696 200.499 88.7021 200.752 85.9538C200.823 85.3216 200.648 84.6765 200.266 84.1669C199.076 82.4702 196.267 82.9863 195.762 84.9991C195.244 87.0054 195.154 89.0827 194.765 91.1213C193.704 93.6308 190.779 92.2309 188.883 91.6696C182.799 89.6439 178.554 85.0571 178.599 78.4446C178.599 76.1738 175.357 75.6641 174.716 77.8705C174.237 81.4444 175.066 85.1668 176.858 88.2827C178.424 90.8181 180.618 92.9147 183.188 94.4759C185.466 95.8629 187.944 96.9661 190.533 97.7338C191.193 97.9531 191.769 98.1015 192.559 98.3982C194.028 99.0111 195.212 100.256 195.736 101.759C196.862 105.636 198.894 109.217 201.412 112.384L202.053 113.165C203.321 114.739 206 115.429 207.56 113.952C208.854 112.675 208.621 110.417 207.249 109.256L207.256 109.249ZM207.948 108.449C209.806 109.939 210.149 113.017 208.414 114.765C206.369 116.823 202.803 116.081 201.062 114.017L200.383 113.217C197.704 109.998 195.549 106.288 194.312 102.263C193.685 100.353 191.931 99.6756 190.086 99.1853C187.401 98.3982 184.806 97.2241 182.411 95.7145C176.263 91.9341 172.671 85.4184 173.506 78.1608C173.946 74.2965 179.557 74.5481 179.596 78.4575C179.453 82.9347 181.609 86.986 185.459 89.3214C187.161 90.4245 189.09 91.1729 191.044 91.7019C191.653 91.8438 192.326 92.1147 192.94 91.9986C193.523 91.8954 194.047 91.4696 194.267 90.9148C194.468 90.3471 194.435 89.573 194.552 88.9472C194.746 87.5731 194.992 86.2377 195.309 84.8636C195.51 84.1475 195.995 83.5153 196.636 83.1347C198.674 81.8315 201.515 83.5862 201.205 85.9925C200.461 93.8759 201.697 102.966 207.948 108.443V108.449Z" fill="black"/>
<path d="M201.283 218.823C204.493 217.165 207.89 215.546 210.576 213.114C210.802 212.875 211.191 213.23 210.964 213.475C208.337 216.152 205.023 217.958 201.82 219.849C201.127 220.216 200.577 219.178 201.283 218.823Z" fill="black"/>
<path d="M198.506 186.102C198.506 186.102 203.554 183.877 202.836 180.361C202.687 179.638 202.635 178.896 202.784 178.174C202.784 178.155 202.79 178.135 202.797 178.109C203.192 176.342 205.243 175.503 206.79 176.451C207.502 176.89 208.395 177.632 209.327 178.89C210.725 180.774 212.75 182.122 215.067 182.503C215.96 182.651 216.989 182.709 218.161 182.625C218.97 182.567 219.785 182.638 220.562 182.851C221.986 183.245 223.487 184.167 221.908 186.354C221.908 186.354 220.847 188.528 218.31 190.141C216.556 191.257 215.43 193.141 215.456 195.212C215.456 195.715 215.494 196.27 215.572 196.876C215.572 196.876 216.077 200.295 208.266 199.269C208.266 199.269 204.091 198.979 200.532 196.392C198.661 195.037 197.277 193.083 196.791 190.825C196.429 189.134 196.552 187.173 198.5 186.096L198.506 186.102Z" fill="url(#paint14_linear_1026_2801)"/>
<path d="M198.241 185.573C200.053 184.69 202.059 183.399 202.383 181.329C202.473 180.625 202.202 179.89 202.234 179.161C202.111 177.426 203.425 175.703 205.23 175.671C206.919 175.613 208.181 176.987 209.172 178.155C211.288 181.445 214.802 182.787 218.633 182.322C221.241 182.258 224.328 183.638 222.18 186.554C221.448 187.941 219.999 189.528 218.517 190.47C216.763 191.605 215.676 193.65 215.954 195.721C215.954 195.889 216.025 196.502 216.032 196.67C216.258 201.689 206.227 199.927 203.392 198.676C199.949 197.392 196.785 194.573 196.118 190.792C195.672 188.876 196.299 186.49 198.234 185.567L198.241 185.573ZM198.772 186.644C197.361 187.406 197.05 189.057 197.4 190.554C198.441 195.67 203.988 198.302 208.809 198.76C210.44 198.94 212.252 199.089 213.786 198.515C214.595 198.192 215.197 197.573 215.093 196.792C215.074 196.586 215.048 195.986 215.035 195.773C214.783 193.418 216.122 191.038 218.103 189.838C219.533 188.941 220.808 187.683 221.61 186.219C222.633 184.851 222.452 183.761 220.737 183.232C218.594 182.541 216.271 183.303 214.09 182.593C212.602 182.18 211.23 181.374 210.123 180.296C209.062 179.271 208.304 177.942 207.075 177.103C206.02 176.2 204.473 176.239 203.632 177.322C203.011 178.122 203.088 179.219 203.269 180.174C203.949 183.161 201.108 185.477 198.752 186.638L198.772 186.644Z" fill="black"/>
<path d="M218.368 190.509C216.2 191.044 214.045 190.464 211.903 190.128C209.877 189.676 207.793 189.786 205.742 190.141C205.502 190.193 205.399 189.818 205.632 189.741C206.648 189.38 207.709 189.109 208.79 188.999C210.932 188.702 213.074 189.238 215.203 189.393C216.258 189.483 217.333 189.618 218.323 189.806C218.692 189.864 218.717 190.418 218.362 190.509H218.368Z" fill="black"/>
<path d="M200.59 188.367C200.901 190.651 203.017 192.083 205.14 192.754C207.411 193.521 209.793 194.289 212.213 194.154C212.44 194.121 212.498 194.476 212.272 194.521C208.673 195.231 198.843 193.36 199.878 188.231C200.008 187.793 200.622 187.928 200.59 188.367Z" fill="black"/>
<path d="M198.383 185.709C201.121 183.554 206.764 182.225 209.961 183.922C210.045 183.967 210.071 184.064 210.032 184.148C209.993 184.225 209.903 184.257 209.825 184.225C207.036 183.303 204.065 184.167 201.451 185.251C200.564 185.638 199.69 186.083 198.739 186.335C198.377 186.444 198.105 185.954 198.39 185.709H198.383Z" fill="black"/>
</g>
<path d="M93.9902 259.603H109.948H125.906" stroke="black" stroke-linecap="round"/>
<path d="M81.303 243.202H97.2611H113.219" stroke="black" stroke-linecap="round"/>
<path d="M91.8953 198.075H111.478H131.06" stroke="black" stroke-linecap="round"/>
</g>
<defs>
<linearGradient id="paint0_linear_1026_2801" x1="141.999" y1="233.184" x2="120.575" y2="252.32" gradientUnits="userSpaceOnUse">
<stop stop-color="#643C3B"/>
<stop offset="0.03" stop-color="#72453D"/>
<stop offset="0.12" stop-color="#996044"/>
<stop offset="0.22" stop-color="#B87449"/>
<stop offset="0.3" stop-color="#CF834D"/>
<stop offset="0.39" stop-color="#DC8C50"/>
<stop offset="0.47" stop-color="#E19051"/>
</linearGradient>
<linearGradient id="paint1_linear_1026_2801" x1="134.272" y1="278.003" x2="145.04" y2="273.623" gradientUnits="userSpaceOnUse">
<stop stop-color="#643C3B"/>
<stop offset="0.03" stop-color="#72453D"/>
<stop offset="0.12" stop-color="#996044"/>
<stop offset="0.22" stop-color="#B87449"/>
<stop offset="0.3" stop-color="#CF834D"/>
<stop offset="0.39" stop-color="#DC8C50"/>
<stop offset="0.47" stop-color="#E19051"/>
</linearGradient>
<linearGradient id="paint2_linear_1026_2801" x1="256.844" y1="122.439" x2="262.039" y2="87.5268" gradientUnits="userSpaceOnUse">
<stop offset="0.56" stop-color="#F9E9B3"/>
<stop offset="0.61" stop-color="#F3D9A5"/>
<stop offset="0.79" stop-color="#E1A276"/>
<stop offset="0.93" stop-color="#D58059"/>
<stop offset="1" stop-color="#D1744E"/>
</linearGradient>
<linearGradient id="paint3_linear_1026_2801" x1="198.576" y1="172.302" x2="199.823" y2="132.04" gradientUnits="userSpaceOnUse">
<stop stop-color="#643C3B"/>
<stop offset="0.03" stop-color="#72453D"/>
<stop offset="0.12" stop-color="#996044"/>
<stop offset="0.22" stop-color="#B87449"/>
<stop offset="0.3" stop-color="#CF834D"/>
<stop offset="0.39" stop-color="#DC8C50"/>
<stop offset="0.47" stop-color="#E19051"/>
</linearGradient>
<linearGradient id="paint4_linear_1026_2801" x1="216.73" y1="184.424" x2="228.853" y2="102.952" gradientUnits="userSpaceOnUse">
<stop stop-color="#643C3B"/>
<stop offset="0.02" stop-color="#7C4C3F"/>
<stop offset="0.05" stop-color="#9B6144"/>
<stop offset="0.08" stop-color="#B47249"/>
<stop offset="0.11" stop-color="#C87F4C"/>
<stop offset="0.15" stop-color="#D6884F"/>
<stop offset="0.2" stop-color="#DE8E50"/>
<stop offset="0.28" stop-color="#E19051"/>
</linearGradient>
<linearGradient id="paint5_linear_1026_2801" x1="153.258" y1="166.629" x2="169.258" y2="115.568" gradientUnits="userSpaceOnUse">
<stop stop-color="#643C3B"/>
<stop offset="0.06" stop-color="#835140"/>
<stop offset="0.15" stop-color="#A56746"/>
<stop offset="0.23" stop-color="#BF794B"/>
<stop offset="0.32" stop-color="#D2864E"/>
<stop offset="0.41" stop-color="#DD8D50"/>
<stop offset="0.51" stop-color="#E19051"/>
</linearGradient>
<linearGradient id="paint6_linear_1026_2801" x1="167.593" y1="262.661" x2="234.262" y2="173.649" gradientUnits="userSpaceOnUse">
<stop stop-color="#643C3B"/>
<stop offset="0.03" stop-color="#72453D"/>
<stop offset="0.12" stop-color="#996044"/>
<stop offset="0.22" stop-color="#B87449"/>
<stop offset="0.3" stop-color="#CF834D"/>
<stop offset="0.39" stop-color="#DC8C50"/>
<stop offset="0.47" stop-color="#E19051"/>
</linearGradient>
<linearGradient id="paint7_linear_1026_2801" x1="176.977" y1="190.897" x2="200.321" y2="165.74" gradientUnits="userSpaceOnUse">
<stop stop-color="#487E50"/>
<stop offset="0.07" stop-color="#518A58"/>
<stop offset="0.21" stop-color="#61A167"/>
<stop offset="0.34" stop-color="#6AAE6F"/>
<stop offset="0.47" stop-color="#6EB373"/>
</linearGradient>
<linearGradient id="paint8_linear_1026_2801" x1="144.399" y1="167.802" x2="162.926" y2="183.874" gradientUnits="userSpaceOnUse">
<stop stop-color="#643C3B"/>
<stop offset="0.03" stop-color="#72453D"/>
<stop offset="0.12" stop-color="#996044"/>
<stop offset="0.22" stop-color="#B87449"/>
<stop offset="0.3" stop-color="#CF834D"/>
<stop offset="0.39" stop-color="#DC8C50"/>
<stop offset="0.47" stop-color="#E19051"/>
</linearGradient>
<linearGradient id="paint9_linear_1026_2801" x1="135.858" y1="272.287" x2="207.458" y2="243.164" gradientUnits="userSpaceOnUse">
<stop stop-color="#487E50"/>
<stop offset="0.07" stop-color="#518A58"/>
<stop offset="0.21" stop-color="#61A167"/>
<stop offset="0.34" stop-color="#6AAE6F"/>
<stop offset="0.47" stop-color="#6EB373"/>
</linearGradient>
<linearGradient id="paint10_linear_1026_2801" x1="182.379" y1="272.311" x2="176.536" y2="260.661" gradientUnits="userSpaceOnUse">
<stop stop-color="#643C3B"/>
<stop offset="0.03" stop-color="#72453D"/>
<stop offset="0.12" stop-color="#996044"/>
<stop offset="0.22" stop-color="#B87449"/>
<stop offset="0.3" stop-color="#CF834D"/>
<stop offset="0.39" stop-color="#DC8C50"/>
<stop offset="0.47" stop-color="#E19051"/>
</linearGradient>
<linearGradient id="paint11_linear_1026_2801" x1="156.588" y1="264.68" x2="170.923" y2="204.824" gradientUnits="userSpaceOnUse">
<stop stop-color="#487E50"/>
<stop offset="0.07" stop-color="#518A58"/>
<stop offset="0.21" stop-color="#61A167"/>
<stop offset="0.34" stop-color="#6AAE6F"/>
<stop offset="0.47" stop-color="#6EB373"/>
</linearGradient>
<linearGradient id="paint12_linear_1026_2801" x1="233.399" y1="135.709" x2="234.656" y2="105.369" gradientUnits="userSpaceOnUse">
<stop stop-color="#643C3B"/>
<stop offset="0.08" stop-color="#8F2C2B"/>
<stop offset="0.16" stop-color="#B71E1E"/>
<stop offset="0.24" stop-color="#D61413"/>
<stop offset="0.32" stop-color="#ED0C0C"/>
<stop offset="0.4" stop-color="#FA0707"/>
<stop offset="0.47" stop-color="#FF0606"/>
</linearGradient>
<linearGradient id="paint13_linear_1026_2801" x1="188.34" y1="116.466" x2="194.144" y2="77.4565" gradientUnits="userSpaceOnUse">
<stop offset="0.56" stop-color="#F9E9B3"/>
<stop offset="0.61" stop-color="#F3D9A5"/>
<stop offset="0.79" stop-color="#E1A276"/>
<stop offset="0.93" stop-color="#D58059"/>
<stop offset="1" stop-color="#D1744E"/>
</linearGradient>
<linearGradient id="paint14_linear_1026_2801" x1="203.898" y1="199.248" x2="213.088" y2="179.085" gradientUnits="userSpaceOnUse">
<stop stop-color="#487E50"/>
<stop offset="0.07" stop-color="#518A58"/>
<stop offset="0.21" stop-color="#61A167"/>
<stop offset="0.34" stop-color="#6AAE6F"/>
<stop offset="0.47" stop-color="#6EB373"/>
</linearGradient>
<clipPath id="clip0_1026_2801">
<rect width="160" height="209" fill="white" transform="translate(119.512 75.3932)"/>
</clipPath>
</defs>
</svg>
