<svg width="300" height="300" viewBox="0 0 300 300" fill="none" xmlns="http://www.w3.org/2000/svg">
<circle cx="150" cy="150" r="150" fill="#C4DDD1" fill-opacity="0.15"/>
<g clip-path="url(#clip0_1026_2798)">
<path d="M212.025 75H179.25C178.2 75 177.375 75.825 177.375 76.875C177.375 77.925 178.2 78.75 179.25 78.75H212.025C217.088 78.75 221.25 82.875 221.25 87.975V120.75C221.25 121.8 222.075 122.625 223.125 122.625C224.175 122.625 225 121.8 225 120.75V87.975C225 80.8125 219.188 75 212.025 75Z" fill="#201A18"/>
<path d="M223.125 177.375C222.075 177.375 221.25 178.2 221.25 179.25V212.025C221.25 217.088 217.125 221.25 212.025 221.25H179.25C178.2 221.25 177.375 222.075 177.375 223.125C177.375 224.175 178.2 225 179.25 225H212.025C219.188 225 225 219.188 225 212.025V179.25C225 178.2 224.175 177.375 223.125 177.375Z" fill="#201A18"/>
<path d="M120.75 221.25H87.975C82.9125 221.25 78.75 217.125 78.75 212.025V179.25C78.75 178.2 77.925 177.375 76.875 177.375C75.825 177.375 75 178.2 75 179.25V212.025C75 219.15 80.8125 225 87.975 225H120.787C121.837 225 122.662 224.175 122.662 223.125C122.662 222.075 121.837 221.25 120.787 221.25H120.75Z" fill="#201A18"/>
<path d="M76.875 122.625C77.925 122.625 78.75 121.8 78.75 120.75V87.975C78.75 82.9125 82.875 78.75 87.975 78.75H120.787C121.837 78.75 122.662 77.925 122.662 76.875C122.662 75.825 121.837 75 120.787 75H87.975C80.8125 75 75 80.8125 75 87.975V120.75C75 121.8 75.825 122.625 76.875 122.625Z" fill="#201A18"/>
<path d="M131.362 185.437C129.675 185.437 128.287 186.375 127.462 187.687C118.275 185.175 111.525 176.812 111.525 166.837C111.525 165.787 110.7 164.962 109.65 164.962C108.6 164.962 107.775 165.787 107.775 166.837C107.775 178.687 115.95 188.625 126.937 191.4C127.5 193.35 129.225 194.812 131.362 194.812C133.95 194.812 136.05 192.712 136.05 190.125C136.05 187.537 133.95 185.437 131.362 185.437Z" fill="#201A18"/>
<path d="M133.162 155.288C126.787 155.288 121.575 160.5 121.575 166.875C121.575 173.25 126.787 178.463 133.162 178.463C139.537 178.463 144.75 173.25 144.75 166.875C144.75 160.5 139.537 155.288 133.162 155.288ZM133.162 174.713C128.85 174.713 125.325 171.188 125.325 166.875C125.325 162.563 128.85 159.038 133.162 159.038C137.475 159.038 141 162.563 141 166.875C141 171.188 137.475 174.713 133.162 174.713Z" fill="#201A18"/>
<path d="M133.162 141.487C126.937 141.487 121.05 143.775 116.475 147.75C115.912 147.525 115.312 147.375 114.637 147.375C112.05 147.375 109.95 149.475 109.95 152.062C109.95 154.65 112.05 156.75 114.637 156.75C117.225 156.75 119.325 154.65 119.325 152.062C119.325 151.5 119.175 151.012 119.025 150.487C122.925 147.112 127.912 145.2 133.162 145.2C145.087 145.2 154.762 154.912 154.762 166.8C154.762 174.45 150.862 181.35 144.3 185.325C143.4 185.85 143.137 187.012 143.662 187.912C144 188.512 144.637 188.812 145.275 188.812C145.612 188.812 145.95 188.737 146.25 188.55C153.937 183.9 158.512 175.8 158.512 166.837C158.512 152.85 147.15 141.487 133.162 141.487Z" fill="#201A18"/>
<path d="M196.05 162.338C203.85 154.538 208.125 144.188 208.125 133.163C208.125 122.138 203.85 111.788 196.05 103.988C188.25 96.1875 177.9 91.9125 166.875 91.9125C155.85 91.9125 145.5 96.225 137.7 103.988L104.55 137.138H104.588C96.7876 144.675 91.9126 155.213 91.9126 166.875C91.9126 189.638 110.438 208.162 133.2 208.162C144.863 208.162 155.4 203.288 162.9 195.488H162.938L196.088 162.375L196.05 162.338ZM133.163 204.375C112.463 204.375 95.6251 187.538 95.6251 166.838C95.6251 146.138 112.463 129.3 133.163 129.3C153.863 129.3 170.7 146.138 170.7 166.838C170.7 187.538 153.863 204.375 133.163 204.375ZM169.425 147.15L188.475 128.1C190.163 128.738 192.15 128.4 193.5 127.05C195.338 125.213 195.338 122.25 193.5 120.413C191.663 118.575 188.7 118.575 186.863 120.413C185.513 121.763 185.175 123.75 185.813 125.438L167.4 143.85C159.975 132.863 147.413 125.588 133.163 125.588C128.063 125.588 123.225 126.563 118.688 128.25L140.325 106.613C147.413 99.525 156.825 95.625 166.875 95.625C168.263 95.625 169.65 95.7 171 95.85L159.6 107.25C157.875 106.5 155.85 106.838 154.425 108.225C152.588 110.063 152.588 113.025 154.425 114.863C156.263 116.7 159.225 116.7 161.063 114.863C162.375 113.55 162.713 111.675 162.15 110.025L175.538 96.6375C182.25 98.2125 188.438 101.588 193.425 106.575C198.788 111.938 202.313 118.613 203.738 125.925C203.588 126 203.4 126.075 203.288 126.225L189.788 139.725C188.063 138.975 186.038 139.313 184.613 140.7C182.775 142.538 182.775 145.5 184.613 147.338C186.45 149.175 189.413 149.175 191.25 147.338C192.563 146.025 192.9 144.15 192.338 142.5L204.3 130.538C204.375 131.4 204.413 132.263 204.413 133.163C204.413 143.175 200.513 152.625 193.425 159.713L171.788 181.35C173.475 176.85 174.45 171.975 174.45 166.913C174.45 159.788 172.613 153.038 169.425 147.188V147.15Z" fill="#201A18"/>
</g>
<defs>
<clipPath id="clip0_1026_2798">
<rect width="150" height="150" fill="white" transform="translate(75 75)"/>
</clipPath>
</defs>
</svg>
