<svg id="Layer_1" data-name="Layer 1" xmlns="http://www.w3.org/2000/svg" viewBox="0 0 200 207.21"><defs><style>.cls-1,.cls-3{fill:#ed8830;fill-rule:evenodd;}.cls-2{fill:none;stroke:#ed8830;stroke-linecap:round;stroke-width:10px;}.cls-3{fill-opacity:0.5;}</style></defs><path class="cls-1" d="M16.16,98.19A12.54,12.54,0,0,0,12.5,107v75.13A12.51,12.51,0,0,0,25,194.69H175a12.51,12.51,0,0,0,12.5-12.52V107A12.52,12.52,0,0,0,175,94.52H25A12.51,12.51,0,0,0,16.16,98.19ZM1.87,191.68A25.19,25.19,0,0,1,0,182.17V107A25,25,0,0,1,25,82H175a25,25,0,0,1,25,25v75.13a25,25,0,0,1-25,25H25A25,25,0,0,1,1.87,191.68Zm169.47-55.93a12.47,12.47,0,1,1-8.84-3.67A12.56,12.56,0,0,1,171.34,135.75Z"/><path class="cls-2" d="M128,5,73.88,59.56M73,5.44,127.12,60"/><path class="cls-3" d="M83,103.5a22,22,0,0,0-22,20,1.75,1.75,0,0,1-1.74,1.6h-.1a17.71,17.71,0,0,0,0,35.42h22V147.89L68.79,135.43A1.75,1.75,0,1,1,71.26,133l10,10V132a1.75,1.75,0,0,1,3.5,0v15.14h0v2.26l7.82-7.82a1.75,1.75,0,1,1,2.48,2.48l-10.3,10.3v6.17h22a17.71,17.71,0,1,0,0-35.42h-.1a1.75,1.75,0,0,1-1.74-1.6A22,22,0,0,0,83,103.5Zm-1.75,60.55v24.2a1.75,1.75,0,0,0,3.5,0v-24.2h22a21.21,21.21,0,0,0,1.46-42.37,25.54,25.54,0,0,0-50.5,0,21.21,21.21,0,0,0,1.46,42.37Z"/></svg>