<svg id="Layer_1" data-name="Layer 1" xmlns="http://www.w3.org/2000/svg" viewBox="0 0 213 206"><defs><style>.cls-1,.cls-2{fill:#ed8830;fill-rule:evenodd;}.cls-2{fill-opacity:0.5;}</style></defs><path class="cls-1" d="M112.32,16.65a12.89,12.89,0,0,0-9.12-3.77H25.8A12.89,12.89,0,0,0,12.9,25.75v154.5a12.89,12.89,0,0,0,12.9,12.87h77.4a12.89,12.89,0,0,0,12.9-12.87V25.75A12.85,12.85,0,0,0,112.32,16.65ZM7.56,7.54A25.82,25.82,0,0,1,25.8,0h77.4A25.78,25.78,0,0,1,129,25.75v154.5A25.78,25.78,0,0,1,103.2,206H25.8A25.78,25.78,0,0,1,0,180.25V25.75A25.73,25.73,0,0,1,7.56,7.54ZM73.62,176.48a12.86,12.86,0,1,1,3.78-9.1A12.93,12.93,0,0,1,73.62,176.48Z"/><path class="cls-1" d="M211.54,62.46a5,5,0,0,1,0,7.08L170.07,111a10,10,0,0,1-14.14,0L140.46,95.54a5,5,0,0,1,7.08-7.08l11.92,11.93a5,5,0,0,0,7.08,0l37.92-37.93A5,5,0,0,1,211.54,62.46Z"/><path class="cls-2" d="M65,48.5a22,22,0,0,0-22,20,1.74,1.74,0,0,1-1.74,1.6h-.1a17.71,17.71,0,0,0,0,35.42h22V92.89L50.79,80.43A1.75,1.75,0,1,1,53.26,78l10,10V77a1.75,1.75,0,1,1,3.5,0V92.16h0v2.26l7.82-7.82a1.75,1.75,0,0,1,2.48,2.48l-10.3,10.3v6.17h22a17.71,17.71,0,1,0,0-35.42h-.1A1.74,1.74,0,0,1,87,68.53,22,22,0,0,0,65,48.5Zm-1.75,60.55v24.2a1.75,1.75,0,0,0,3.5,0v-24.2h22a21.22,21.22,0,0,0,1.46-42.38,25.55,25.55,0,0,0-50.5,0,21.22,21.22,0,0,0,1.46,42.38Z"/></svg>