<svg id="Layer_1" data-name="Layer 1" xmlns="http://www.w3.org/2000/svg" xmlns:xlink="http://www.w3.org/1999/xlink" viewBox="0 0 172 83"><defs><style>.cls-1{fill:#fff;stroke-width:2px;stroke:url(#linear-gradient);}.cls-2,.cls-4{fill-rule:evenodd;}.cls-2{fill:url(#linear-gradient-2);}.cls-3{fill:url(#linear-gradient-3);}.cls-4{fill:#ed8830;}</style><linearGradient id="linear-gradient" x1="50" y1="26" x2="0" y2="26" gradientTransform="matrix(1, 0, 0, -1, 0, 84)" gradientUnits="userSpaceOnUse"><stop offset="0" stop-color="#ed8830"/><stop offset="1" stop-color="#fbca11"/></linearGradient><linearGradient id="linear-gradient-2" x1="38.5" y1="28.31" x2="10.5" y2="28.31" xlink:href="#linear-gradient"/><linearGradient id="linear-gradient-3" x1="32.15" y1="21" x2="23.85" y2="21" xlink:href="#linear-gradient"/></defs><circle class="cls-1" cx="25" cy="58" r="24"/><path class="cls-2" d="M12.5,48A1.5,1.5,0,0,1,14,49.5v6c4-4.18,8.66-5.42,11-5.42a12.34,12.34,0,0,1,9.9,4.42A14.1,14.1,0,0,1,38,61.74a1.5,1.5,0,0,1-3,.3,11.12,11.12,0,0,0-2.4-5.65A9.35,9.35,0,0,0,25,53.06c-1.67,0-5.92,1-9.55,5.26h6.42a1.5,1.5,0,1,1,0,3H13a2,2,0,0,1-2-2V49.5A1.5,1.5,0,0,1,12.5,48Z" transform="translate(0 0)"/><circle class="cls-3" cx="28" cy="63" r="4"/><path class="cls-4" d="M77.4,62a3.26,3.26,0,0,1-2.69-1.07,4.26,4.26,0,0,1-.93-2.8,4.35,4.35,0,0,1,1-2.82,3.33,3.33,0,0,1,2.71-1.08H117.8a3.87,3.87,0,1,0,0-7.74H105.94a3.91,3.91,0,1,1,0-7.82h1.36a11.76,11.76,0,0,0,1.2.06h7a3.93,3.93,0,0,0,.69-.06h.07a3.87,3.87,0,1,0,0-7.74h-8.48a3.87,3.87,0,0,1,.69-7.68h7.77a3.88,3.88,0,1,0,0-7.75h0a3.85,3.85,0,0,1-3.87-3.84v0a3.88,3.88,0,0,1,3.89-3.87h33.83c6.25,0,14.1,5.52,14.1,14.35V51.71c0,4-3.3,9.08-8.86,13.54s-11.76,7-15.76,7c-4.33,0-7.39-.93-9.56-2.53h.34a3.88,3.88,0,1,0,0-7.75Zm28-46.09a11.56,11.56,0,0,1-.81-4.25v0A11.64,11.64,0,0,1,116.29,0h33.83C159.89,0,172,8.25,172,22.09V51.71c0,7.6-5.69,14.71-11.76,19.57S146.11,80,139.6,80c-7.87,0-14.31-2.52-18.29-8.3a3.86,3.86,0,0,1-.68-2H77.4A11,11,0,0,1,68.8,66a12.35,12.35,0,0,1,0-15.71,11.1,11.1,0,0,1,8.6-3.77H94.91A11.61,11.61,0,0,1,98.7,33.4a11.51,11.51,0,0,1-1.87-6.3A11.63,11.63,0,0,1,105.43,15.89Z" transform="translate(0 0)"/></svg>