<svg id="Layer_1" data-name="Layer 1" xmlns="http://www.w3.org/2000/svg" viewBox="0 0 257 298"><defs><style>.cls-1{fill:#ed8830;fill-opacity:0.5;fill-rule:evenodd;}.cls-2{fill:none;stroke:#ed8830;stroke-linecap:round;stroke-width:10px;stroke-dasharray:20 20;}</style></defs><path class="cls-1" d="M128.5,10A62.93,62.93,0,0,0,65.83,67.2a5,5,0,0,1-5,4.55h-.27a50.58,50.58,0,1,0,0,101.15H123.5V136.75L87.91,101.16A5,5,0,1,1,95,94.09L123.5,122.6V91.45a5,5,0,1,1,10,0v43.22h0v6.45l22.34-22.34a5,5,0,0,1,7.07,7.07L133.5,155.27V172.9h62.93a50.58,50.58,0,1,0,0-101.15h-.28a5,5,0,0,1-5-4.55A62.93,62.93,0,0,0,128.5,10Zm-5,172.9V252a5,5,0,0,0,10,0V182.9h62.93a60.58,60.58,0,0,0,4.17-121,72.94,72.94,0,0,0-144.19,0,60.58,60.58,0,0,0,4.17,121Z"/><path class="cls-2" d="M119,5V293"/></svg>