<svg width="315" height="339" viewBox="0 0 315 339" fill="none" xmlns="http://www.w3.org/2000/svg">
<path fill-rule="evenodd" clip-rule="evenodd" d="M159 123.891C146.229 123.891 135.74 133.669 134.616 146.147C134.526 147.15 133.685 147.918 132.678 147.918H132.57C127.351 147.918 122.345 149.992 118.655 153.682C114.964 157.373 112.891 162.378 112.891 167.597C112.891 172.816 114.964 177.822 118.655 181.512C122.345 185.203 127.351 187.276 132.57 187.276H157.054V173.209L143.208 159.362C142.448 158.602 142.448 157.37 143.208 156.611C143.968 155.851 145.2 155.851 145.959 156.611L157.054 167.706V155.584C157.054 154.509 157.926 153.638 159 153.638C160.074 153.638 160.946 154.509 160.946 155.584V172.4C160.946 172.402 160.946 172.404 160.946 172.405V174.914L169.638 166.222C170.398 165.462 171.63 165.462 172.389 166.222C173.149 166.981 173.149 168.213 172.389 168.973L160.946 180.417V187.276H185.43C190.649 187.276 195.655 185.203 199.345 181.512C203.036 177.822 205.109 172.816 205.109 167.597C205.109 162.378 203.036 157.373 199.345 153.682C195.655 149.992 190.649 147.918 185.43 147.918H185.322C184.315 147.918 183.474 147.15 183.384 146.147C182.26 133.669 171.771 123.891 159 123.891ZM157.054 191.167V218.054C157.054 219.129 157.926 220 159 220C160.074 220 160.946 219.129 160.946 218.054V191.167H185.43C191.681 191.167 197.676 188.684 202.096 184.264C206.517 179.844 209 173.848 209 167.597C209 161.346 206.517 155.351 202.096 150.931C198.06 146.894 192.711 144.473 187.052 144.083C184.983 130.447 173.212 120 159 120C144.788 120 133.017 130.447 130.948 144.083C125.289 144.473 119.94 146.894 115.904 150.931C111.483 155.351 109 161.346 109 167.597C109 173.848 111.483 179.844 115.904 184.264C120.324 188.684 126.319 191.167 132.57 191.167H157.054Z" fill="#ED8830" fill-opacity="0.5"/>
<path fill-rule="evenodd" clip-rule="evenodd" d="M297.168 140.656C296.345 139.836 295.231 139.375 294.068 139.375H267.767C266.604 139.375 265.489 139.836 264.667 140.656C263.845 141.477 263.383 142.59 263.383 143.75V196.25C263.383 197.41 263.845 198.523 264.667 199.344C265.489 200.164 266.604 200.625 267.767 200.625H294.068C295.231 200.625 296.345 200.164 297.168 199.344C297.99 198.523 298.451 197.41 298.451 196.25V143.75C298.451 142.59 297.99 141.477 297.168 140.656ZM261.568 137.563C263.212 135.922 265.442 135 267.767 135H294.068C296.393 135 298.623 135.922 300.267 137.563C301.911 139.204 302.835 141.429 302.835 143.75V196.25C302.835 198.571 301.911 200.796 300.267 202.437C298.623 204.078 296.393 205 294.068 205H267.767C265.442 205 263.212 204.078 261.568 202.437C259.924 200.796 259 198.571 259 196.25V143.75C259 141.429 259.924 139.204 261.568 137.563ZM284.017 194.969C283.195 195.789 282.08 196.25 280.917 196.25C279.755 196.25 278.64 195.789 277.818 194.969C276.996 194.148 276.534 193.035 276.534 191.875C276.534 190.715 276.996 189.602 277.818 188.781C278.64 187.961 279.755 187.5 280.917 187.5C282.08 187.5 283.195 187.961 284.017 188.781C284.839 189.602 285.301 190.715 285.301 191.875C285.301 193.035 284.839 194.148 284.017 194.969Z" fill="#ED8830"/>
<path fill-rule="evenodd" clip-rule="evenodd" d="M281.087 151.481C277.181 151.481 273.974 154.472 273.63 158.288C273.602 158.594 273.345 158.829 273.037 158.829H273.004C271.408 158.829 269.877 159.463 268.749 160.592C267.62 161.721 266.986 163.252 266.986 164.848C266.986 166.444 267.62 167.975 268.749 169.103C269.877 170.232 271.408 170.866 273.004 170.866H280.492V166.564L276.258 162.329C276.025 162.097 276.025 161.72 276.258 161.488C276.49 161.255 276.867 161.255 277.099 161.488L280.492 164.881V161.174C280.492 160.845 280.759 160.579 281.087 160.579C281.416 160.579 281.682 160.845 281.682 161.174V166.317C281.682 166.317 281.682 166.318 281.682 166.318V167.085L284.341 164.427C284.573 164.195 284.95 164.195 285.182 164.427C285.414 164.659 285.414 165.036 285.182 165.268L281.682 168.768V170.866H289.17C290.766 170.866 292.297 170.232 293.426 169.103C294.554 167.975 295.188 166.444 295.188 164.848C295.188 163.252 294.554 161.721 293.426 160.592C292.297 159.463 290.766 158.829 289.17 158.829H289.137C288.829 158.829 288.572 158.594 288.544 158.288C288.201 154.472 284.993 151.481 281.087 151.481ZM280.492 172.056V180.279C280.492 180.607 280.759 180.874 281.087 180.874C281.416 180.874 281.682 180.607 281.682 180.279V172.056H289.17C291.082 172.056 292.915 171.297 294.267 169.945C295.619 168.593 296.378 166.759 296.378 164.848C296.378 162.936 295.619 161.102 294.267 159.751C293.033 158.516 291.397 157.776 289.666 157.656C289.033 153.486 285.434 150.291 281.087 150.291C276.741 150.291 273.141 153.486 272.508 157.656C270.778 157.776 269.142 158.516 267.907 159.751C266.555 161.102 265.796 162.936 265.796 164.848C265.796 166.759 266.555 168.593 267.907 169.945C269.259 171.297 271.092 172.056 273.004 172.056H280.492Z" fill="#ED8830" fill-opacity="0.5"/>
<path fill-rule="evenodd" clip-rule="evenodd" d="M175.168 274.656C174.345 273.836 173.231 273.375 172.068 273.375H145.767C144.604 273.375 143.489 273.836 142.667 274.656C141.845 275.477 141.383 276.59 141.383 277.75V330.25C141.383 331.41 141.845 332.523 142.667 333.344C143.489 334.164 144.604 334.625 145.767 334.625H172.068C173.231 334.625 174.345 334.164 175.168 333.344C175.99 332.523 176.451 331.41 176.451 330.25V277.75C176.451 276.59 175.99 275.477 175.168 274.656ZM139.568 271.563C141.212 269.922 143.442 269 145.767 269H172.068C174.393 269 176.623 269.922 178.267 271.563C179.911 273.204 180.835 275.429 180.835 277.75V330.25C180.835 332.571 179.911 334.796 178.267 336.437C176.623 338.078 174.393 339 172.068 339H145.767C143.442 339 141.212 338.078 139.568 336.437C137.924 334.796 137 332.571 137 330.25V277.75C137 275.429 137.924 273.204 139.568 271.563ZM162.017 328.969C161.195 329.789 160.08 330.25 158.917 330.25C157.755 330.25 156.64 329.789 155.818 328.969C154.996 328.148 154.534 327.035 154.534 325.875C154.534 324.715 154.996 323.602 155.818 322.781C156.64 321.961 157.755 321.5 158.917 321.5C160.08 321.5 161.195 321.961 162.017 322.781C162.839 323.602 163.301 324.715 163.301 325.875C163.301 327.035 162.839 328.148 162.017 328.969Z" fill="#ED8830"/>
<path fill-rule="evenodd" clip-rule="evenodd" d="M159.087 285.481C155.181 285.481 151.974 288.472 151.63 292.288C151.602 292.594 151.345 292.829 151.037 292.829H151.004C149.408 292.829 147.877 293.463 146.749 294.592C145.62 295.721 144.986 297.252 144.986 298.848C144.986 300.444 145.62 301.975 146.749 303.103C147.877 304.232 149.408 304.866 151.004 304.866H158.492V300.564L154.258 296.329C154.025 296.097 154.025 295.72 154.258 295.488C154.49 295.255 154.867 295.255 155.099 295.488L158.492 298.881V295.174C158.492 294.845 158.759 294.579 159.087 294.579C159.416 294.579 159.682 294.845 159.682 295.174V300.317C159.682 300.317 159.682 300.318 159.682 300.318V301.085L162.341 298.427C162.573 298.195 162.95 298.195 163.182 298.427C163.414 298.659 163.414 299.036 163.182 299.268L159.682 302.768V304.866H167.17C168.766 304.866 170.297 304.232 171.426 303.103C172.554 301.975 173.188 300.444 173.188 298.848C173.188 297.252 172.554 295.721 171.426 294.592C170.297 293.463 168.766 292.829 167.17 292.829H167.137C166.829 292.829 166.572 292.594 166.544 292.288C166.201 288.472 162.993 285.481 159.087 285.481ZM158.492 306.056V314.279C158.492 314.607 158.759 314.874 159.087 314.874C159.416 314.874 159.682 314.607 159.682 314.279V306.056H167.17C169.082 306.056 170.915 305.297 172.267 303.945C173.619 302.593 174.378 300.759 174.378 298.848C174.378 296.936 173.619 295.102 172.267 293.751C171.033 292.516 169.397 291.776 167.666 291.656C167.033 287.486 163.434 284.291 159.087 284.291C154.741 284.291 151.141 287.486 150.508 291.656C148.778 291.776 147.142 292.516 145.907 293.751C144.555 295.102 143.796 296.936 143.796 298.848C143.796 300.759 144.555 302.593 145.907 303.945C147.259 305.297 149.092 306.056 151.004 306.056H158.492Z" fill="#ED8830" fill-opacity="0.5"/>
<path fill-rule="evenodd" clip-rule="evenodd" d="M175.168 5.65641C174.345 4.83594 173.231 4.375 172.068 4.375H145.767C144.604 4.375 143.489 4.83594 142.667 5.65641C141.845 6.47687 141.383 7.58967 141.383 8.75V61.25C141.383 62.4103 141.845 63.5231 142.667 64.3436C143.489 65.1641 144.604 65.625 145.767 65.625H172.068C173.231 65.625 174.345 65.1641 175.168 64.3436C175.99 63.5231 176.451 62.4103 176.451 61.25V8.75C176.451 7.58967 175.99 6.47687 175.168 5.65641ZM139.568 2.56281C141.212 0.921872 143.442 0 145.767 0H172.068C174.393 0 176.623 0.921872 178.267 2.56281C179.911 4.20376 180.835 6.42936 180.835 8.75V61.25C180.835 63.5706 179.911 65.7962 178.267 67.4372C176.623 69.0781 174.393 70 172.068 70H145.767C143.442 70 141.212 69.0781 139.568 67.4372C137.924 65.7962 137 63.5706 137 61.25V8.75C137 6.42936 137.924 4.20376 139.568 2.56281ZM162.017 59.9686C161.195 60.7891 160.08 61.25 158.917 61.25C157.755 61.25 156.64 60.7891 155.818 59.9686C154.996 59.1481 154.534 58.0353 154.534 56.875C154.534 55.7147 154.996 54.6019 155.818 53.7814C156.64 52.9609 157.755 52.5 158.917 52.5C160.08 52.5 161.195 52.9609 162.017 53.7814C162.839 54.6019 163.301 55.7147 163.301 56.875C163.301 58.0353 162.839 59.1481 162.017 59.9686Z" fill="#ED8830"/>
<path fill-rule="evenodd" clip-rule="evenodd" d="M159.087 16.4812C155.181 16.4812 151.974 19.4716 151.63 23.2878C151.602 23.5944 151.345 23.8294 151.037 23.8294H151.004C149.408 23.8294 147.877 24.4635 146.749 25.5921C145.62 26.7208 144.986 28.2515 144.986 29.8477C144.986 31.4439 145.62 32.9747 146.749 34.1033C147.877 35.232 149.408 35.866 151.004 35.866H158.492V31.5638L154.258 27.3292C154.025 27.0968 154.025 26.7201 154.258 26.4877C154.49 26.2554 154.867 26.2554 155.099 26.4877L158.492 29.8809V26.1736C158.492 25.845 158.759 25.5787 159.087 25.5787C159.416 25.5787 159.682 25.845 159.682 26.1736V31.3166C159.682 31.3171 159.682 31.3176 159.682 31.3181V32.0853L162.341 29.427C162.573 29.1946 162.95 29.1946 163.182 29.427C163.414 29.6593 163.414 30.0361 163.182 30.2684L159.682 33.7682V35.866H167.17C168.766 35.866 170.297 35.232 171.426 34.1033C172.554 32.9747 173.188 31.4439 173.188 29.8477C173.188 28.2515 172.554 26.7208 171.426 25.5921C170.297 24.4635 168.766 23.8294 167.17 23.8294H167.137C166.829 23.8294 166.572 23.5944 166.544 23.2878C166.201 19.4716 162.993 16.4812 159.087 16.4812ZM158.492 37.056V45.2788C158.492 45.6074 158.759 45.8738 159.087 45.8738C159.416 45.8738 159.682 45.6074 159.682 45.2788V37.056H167.17C169.082 37.056 170.915 36.2966 172.267 34.9448C173.619 33.5929 174.378 31.7595 174.378 29.8477C174.378 27.9359 173.619 26.1025 172.267 24.7507C171.033 23.5163 169.397 22.7758 167.666 22.6565C167.033 18.4861 163.434 15.2913 159.087 15.2913C154.741 15.2913 151.141 18.4861 150.508 22.6565C148.778 22.7758 147.142 23.5163 145.907 24.7507C144.555 26.1025 143.796 27.9359 143.796 29.8477C143.796 31.7595 144.555 33.5929 145.907 34.9448C147.259 36.2966 149.092 37.056 151.004 37.056H158.492Z" fill="#ED8830" fill-opacity="0.5"/>
<path fill-rule="evenodd" clip-rule="evenodd" d="M53.1676 140.656C52.3455 139.836 51.2305 139.375 50.068 139.375H23.767C22.6044 139.375 21.4895 139.836 20.6674 140.656C19.8453 141.477 19.3835 142.59 19.3835 143.75V196.25C19.3835 197.41 19.8453 198.523 20.6674 199.344C21.4895 200.164 22.6044 200.625 23.767 200.625H50.068C51.2305 200.625 52.3455 200.164 53.1676 199.344C53.9896 198.523 54.4515 197.41 54.4515 196.25V143.75C54.4515 142.59 53.9896 141.477 53.1676 140.656ZM17.5678 137.563C19.2119 135.922 21.4418 135 23.767 135H50.068C52.3931 135 54.623 135.922 56.2672 137.563C57.9113 139.204 58.835 141.429 58.835 143.75V196.25C58.835 198.571 57.9113 200.796 56.2672 202.437C54.623 204.078 52.3931 205 50.068 205H23.767C21.4418 205 19.2119 204.078 17.5678 202.437C15.9237 200.796 15 198.571 15 196.25V143.75C15 141.429 15.9237 139.204 17.5678 137.563ZM40.0171 194.969C39.195 195.789 38.0801 196.25 36.9175 196.25C35.7549 196.25 34.6399 195.789 33.8179 194.969C32.9958 194.148 32.534 193.035 32.534 191.875C32.534 190.715 32.9958 189.602 33.8179 188.781C34.6399 187.961 35.7549 187.5 36.9175 187.5C38.0801 187.5 39.195 187.961 40.0171 188.781C40.8391 189.602 41.301 190.715 41.301 191.875C41.301 193.035 40.8391 194.148 40.0171 194.969Z" fill="#ED8830"/>
<path fill-rule="evenodd" clip-rule="evenodd" d="M37.0874 151.481C33.1817 151.481 29.9738 154.472 29.6301 158.288C29.6025 158.594 29.3454 158.829 29.0375 158.829H29.0045C27.4083 158.829 25.8775 159.463 24.7489 160.592C23.6202 161.721 22.9861 163.252 22.9861 164.848C22.9861 166.444 23.6202 167.975 24.7489 169.103C25.8775 170.232 27.4083 170.866 29.0045 170.866H36.4924V166.564L32.2578 162.329C32.0254 162.097 32.0254 161.72 32.2578 161.488C32.4902 161.255 32.8669 161.255 33.0992 161.488L36.4924 164.881V161.174C36.4924 160.845 36.7588 160.579 37.0874 160.579C37.416 160.579 37.6824 160.845 37.6824 161.174V166.317C37.6824 166.317 37.6824 166.318 37.6824 166.318V167.085L40.3408 164.427C40.5731 164.195 40.9498 164.195 41.1822 164.427C41.4146 164.659 41.4146 165.036 41.1822 165.268L37.6824 168.768V170.866H45.1704C46.7665 170.866 48.2973 170.232 49.426 169.103C50.5546 167.975 51.1887 166.444 51.1887 164.848C51.1887 163.252 50.5546 161.721 49.426 160.592C48.2973 159.463 46.7665 158.829 45.1704 158.829H45.1373C44.8294 158.829 44.5723 158.594 44.5447 158.288C44.201 154.472 40.9931 151.481 37.0874 151.481ZM36.4924 172.056V180.279C36.4924 180.607 36.7588 180.874 37.0874 180.874C37.416 180.874 37.6824 180.607 37.6824 180.279V172.056H45.1704C47.0821 172.056 48.9156 171.297 50.2674 169.945C51.6192 168.593 52.3787 166.759 52.3787 164.848C52.3787 162.936 51.6192 161.102 50.2674 159.751C49.033 158.516 47.397 157.776 45.6665 157.656C45.0337 153.486 41.4339 150.291 37.0874 150.291C32.7409 150.291 29.1411 153.486 28.5083 157.656C26.7778 157.776 25.1418 158.516 23.9074 159.751C22.5556 161.102 21.7961 162.936 21.7961 164.848C21.7961 166.759 22.5556 168.593 23.9074 169.945C25.2592 171.297 27.0927 172.056 29.0045 172.056H36.4924Z" fill="#ED8830" fill-opacity="0.5"/>
<path d="M193.102 29.848C194.318 29.848 195.369 30.0773 196.254 30.536C197.15 30.984 197.833 31.6293 198.302 32.472C198.782 33.3147 199.022 34.3067 199.022 35.448C199.022 36.5893 198.782 37.5813 198.302 38.424C197.833 39.256 197.15 39.896 196.254 40.344C195.369 40.7813 194.318 41 193.102 41H189.63V29.848H193.102ZM193.102 39.8C194.542 39.8 195.641 39.4213 196.398 38.664C197.156 37.896 197.534 36.824 197.534 35.448C197.534 34.0613 197.15 32.9787 196.382 32.2C195.625 31.4213 194.532 31.032 193.102 31.032H191.086V39.8H193.102ZM208.943 36.28C208.943 36.5573 208.927 36.8507 208.895 37.16H201.887C201.94 38.024 202.234 38.7013 202.767 39.192C203.311 39.672 203.967 39.912 204.735 39.912C205.364 39.912 205.887 39.768 206.303 39.48C206.73 39.1813 207.028 38.7867 207.199 38.296H208.767C208.532 39.1387 208.063 39.8267 207.359 40.36C206.655 40.8827 205.78 41.144 204.735 41.144C203.903 41.144 203.156 40.9573 202.495 40.584C201.844 40.2107 201.332 39.6827 200.959 39C200.586 38.3067 200.399 37.5067 200.399 36.6C200.399 35.6933 200.58 34.8987 200.943 34.216C201.306 33.5333 201.812 33.0107 202.463 32.648C203.124 32.2747 203.882 32.088 204.735 32.088C205.567 32.088 206.303 32.2693 206.943 32.632C207.583 32.9947 208.074 33.496 208.415 34.136C208.767 34.7653 208.943 35.48 208.943 36.28ZM207.439 35.976C207.439 35.4213 207.316 34.9467 207.071 34.552C206.826 34.1467 206.49 33.8427 206.063 33.64C205.647 33.4267 205.183 33.32 204.671 33.32C203.935 33.32 203.306 33.5547 202.783 34.024C202.271 34.4933 201.978 35.144 201.903 35.976H207.439ZM212.641 33.432V38.6C212.641 39.0267 212.731 39.3307 212.913 39.512C213.094 39.6827 213.409 39.768 213.857 39.768H214.929V41H213.617C212.806 41 212.198 40.8133 211.793 40.44C211.387 40.0667 211.185 39.4533 211.185 38.6V33.432H210.049V32.232H211.185V30.024H212.641V32.232H214.929V33.432H212.641ZM218.149 33.656C218.405 33.1547 218.768 32.7653 219.237 32.488C219.717 32.2107 220.298 32.072 220.981 32.072V33.576H220.597C218.965 33.576 218.149 34.4613 218.149 36.232V41H216.693V32.232H218.149V33.656ZM222.118 36.584C222.118 35.688 222.299 34.904 222.662 34.232C223.024 33.5493 223.52 33.0213 224.15 32.648C224.79 32.2747 225.499 32.088 226.278 32.088C227.046 32.088 227.712 32.2533 228.278 32.584C228.843 32.9147 229.264 33.3307 229.542 33.832V32.232H231.014V41H229.542V39.368C229.254 39.88 228.822 40.3067 228.246 40.648C227.68 40.9787 227.019 41.144 226.262 41.144C225.483 41.144 224.779 40.952 224.15 40.568C223.52 40.184 223.024 39.6453 222.662 38.952C222.299 38.2587 222.118 37.4693 222.118 36.584ZM229.542 36.6C229.542 35.9387 229.408 35.3627 229.142 34.872C228.875 34.3813 228.512 34.008 228.054 33.752C227.606 33.4853 227.11 33.352 226.566 33.352C226.022 33.352 225.526 33.48 225.078 33.736C224.63 33.992 224.272 34.3653 224.006 34.856C223.739 35.3467 223.606 35.9227 223.606 36.584C223.606 37.256 223.739 37.8427 224.006 38.344C224.272 38.8347 224.63 39.2133 225.078 39.48C225.526 39.736 226.022 39.864 226.566 39.864C227.11 39.864 227.606 39.736 228.054 39.48C228.512 39.2133 228.875 38.8347 229.142 38.344C229.408 37.8427 229.542 37.2613 229.542 36.6ZM228.406 29.752L224.998 31.576V30.488L228.406 28.488V29.752ZM236.578 41.144C235.906 41.144 235.304 41.032 234.77 40.808C234.237 40.5733 233.816 40.2533 233.506 39.848C233.197 39.432 233.026 38.9573 232.994 38.424H234.498C234.541 38.8613 234.744 39.2187 235.106 39.496C235.48 39.7733 235.965 39.912 236.562 39.912C237.117 39.912 237.554 39.7893 237.874 39.544C238.194 39.2987 238.354 38.9893 238.354 38.616C238.354 38.232 238.184 37.9493 237.842 37.768C237.501 37.576 236.973 37.3893 236.258 37.208C235.608 37.0373 235.074 36.8667 234.658 36.696C234.253 36.5147 233.901 36.2533 233.602 35.912C233.314 35.56 233.17 35.1013 233.17 34.536C233.17 34.088 233.304 33.6773 233.57 33.304C233.837 32.9307 234.216 32.6373 234.706 32.424C235.197 32.2 235.757 32.088 236.386 32.088C237.357 32.088 238.141 32.3333 238.738 32.824C239.336 33.3147 239.656 33.9867 239.698 34.84H238.242C238.21 34.3813 238.024 34.0133 237.682 33.736C237.352 33.4587 236.904 33.32 236.338 33.32C235.816 33.32 235.4 33.432 235.09 33.656C234.781 33.88 234.626 34.1733 234.626 34.536C234.626 34.824 234.717 35.064 234.898 35.256C235.09 35.4373 235.325 35.5867 235.602 35.704C235.89 35.8107 236.285 35.9333 236.786 36.072C237.416 36.2427 237.928 36.4133 238.322 36.584C238.717 36.744 239.053 36.9893 239.33 37.32C239.618 37.6507 239.768 38.0827 239.778 38.616C239.778 39.096 239.645 39.528 239.378 39.912C239.112 40.296 238.733 40.6 238.242 40.824C237.762 41.0373 237.208 41.144 236.578 41.144Z" fill="black"/>
<path d="M251.759 112.848C252.975 112.848 254.025 113.077 254.911 113.536C255.807 113.984 256.489 114.629 256.959 115.472C257.439 116.315 257.679 117.307 257.679 118.448C257.679 119.589 257.439 120.581 256.959 121.424C256.489 122.256 255.807 122.896 254.911 123.344C254.025 123.781 252.975 124 251.759 124H248.287V112.848H251.759ZM251.759 122.8C253.199 122.8 254.297 122.421 255.055 121.664C255.812 120.896 256.191 119.824 256.191 118.448C256.191 117.061 255.807 115.979 255.039 115.2C254.281 114.421 253.188 114.032 251.759 114.032H249.743V122.8H251.759ZM267.599 119.28C267.599 119.557 267.583 119.851 267.551 120.16H260.543C260.597 121.024 260.89 121.701 261.423 122.192C261.967 122.672 262.623 122.912 263.391 122.912C264.021 122.912 264.543 122.768 264.959 122.48C265.386 122.181 265.685 121.787 265.855 121.296H267.423C267.189 122.139 266.719 122.827 266.015 123.36C265.311 123.883 264.437 124.144 263.391 124.144C262.559 124.144 261.813 123.957 261.151 123.584C260.501 123.211 259.989 122.683 259.615 122C259.242 121.307 259.055 120.507 259.055 119.6C259.055 118.693 259.237 117.899 259.599 117.216C259.962 116.533 260.469 116.011 261.119 115.648C261.781 115.275 262.538 115.088 263.391 115.088C264.223 115.088 264.959 115.269 265.599 115.632C266.239 115.995 266.73 116.496 267.071 117.136C267.423 117.765 267.599 118.48 267.599 119.28ZM266.095 118.976C266.095 118.421 265.973 117.947 265.727 117.552C265.482 117.147 265.146 116.843 264.719 116.64C264.303 116.427 263.839 116.32 263.327 116.32C262.591 116.32 261.962 116.555 261.439 117.024C260.927 117.493 260.634 118.144 260.559 118.976H266.095ZM270.977 116.656C271.233 116.155 271.596 115.765 272.065 115.488C272.545 115.211 273.126 115.072 273.809 115.072V116.576H273.425C271.793 116.576 270.977 117.461 270.977 119.232V124H269.521V115.232H270.977V116.656ZM283.49 119.28C283.49 119.557 283.474 119.851 283.442 120.16H276.434C276.487 121.024 276.78 121.701 277.314 122.192C277.858 122.672 278.514 122.912 279.282 122.912C279.911 122.912 280.434 122.768 280.85 122.48C281.276 122.181 281.575 121.787 281.746 121.296H283.314C283.079 122.139 282.61 122.827 281.906 123.36C281.202 123.883 280.327 124.144 279.282 124.144C278.45 124.144 277.703 123.957 277.042 123.584C276.391 123.211 275.879 122.683 275.506 122C275.132 121.307 274.946 120.507 274.946 119.6C274.946 118.693 275.127 117.899 275.49 117.216C275.852 116.533 276.359 116.011 277.01 115.648C277.671 115.275 278.428 115.088 279.282 115.088C280.114 115.088 280.85 115.269 281.49 115.632C282.13 115.995 282.62 116.496 282.962 117.136C283.314 117.765 283.49 118.48 283.49 119.28ZM281.986 118.976C281.986 118.421 281.863 117.947 281.618 117.552C281.372 117.147 281.036 116.843 280.61 116.64C280.194 116.427 279.73 116.32 279.218 116.32C278.482 116.32 277.852 116.555 277.33 117.024C276.818 117.493 276.524 118.144 276.45 118.976H281.986ZM284.868 119.6C284.868 118.693 285.049 117.904 285.412 117.232C285.774 116.549 286.276 116.021 286.916 115.648C287.566 115.275 288.308 115.088 289.14 115.088C290.217 115.088 291.102 115.349 291.796 115.872C292.5 116.395 292.964 117.12 293.188 118.048H291.62C291.47 117.515 291.177 117.093 290.74 116.784C290.313 116.475 289.78 116.32 289.14 116.32C288.308 116.32 287.636 116.608 287.124 117.184C286.612 117.749 286.356 118.555 286.356 119.6C286.356 120.656 286.612 121.472 287.124 122.048C287.636 122.624 288.308 122.912 289.14 122.912C289.78 122.912 290.313 122.763 290.74 122.464C291.166 122.165 291.46 121.739 291.62 121.184H293.188C292.953 122.08 292.484 122.8 291.78 123.344C291.076 123.877 290.196 124.144 289.14 124.144C288.308 124.144 287.566 123.957 286.916 123.584C286.276 123.211 285.774 122.683 285.412 122C285.049 121.317 284.868 120.517 284.868 119.6ZM299.482 115.072C300.144 115.072 300.741 115.216 301.274 115.504C301.808 115.781 302.224 116.203 302.522 116.768C302.832 117.333 302.986 118.021 302.986 118.832V124H301.546V119.04C301.546 118.165 301.328 117.499 300.89 117.04C300.453 116.571 299.856 116.336 299.098 116.336C298.33 116.336 297.717 116.576 297.258 117.056C296.81 117.536 296.586 118.235 296.586 119.152V124H295.13V112.16H296.586V116.48C296.874 116.032 297.269 115.685 297.77 115.44C298.282 115.195 298.853 115.072 299.482 115.072ZM304.821 119.584C304.821 118.688 305.002 117.904 305.365 117.232C305.727 116.549 306.223 116.021 306.853 115.648C307.493 115.275 308.202 115.088 308.981 115.088C309.749 115.088 310.415 115.253 310.981 115.584C311.546 115.915 311.967 116.331 312.245 116.832V115.232H313.717V124H312.245V122.368C311.957 122.88 311.525 123.307 310.949 123.648C310.383 123.979 309.722 124.144 308.965 124.144C308.186 124.144 307.482 123.952 306.853 123.568C306.223 123.184 305.727 122.645 305.365 121.952C305.002 121.259 304.821 120.469 304.821 119.584ZM312.245 119.6C312.245 118.939 312.111 118.363 311.845 117.872C311.578 117.381 311.215 117.008 310.757 116.752C310.309 116.485 309.813 116.352 309.269 116.352C308.725 116.352 308.229 116.48 307.781 116.736C307.333 116.992 306.975 117.365 306.709 117.856C306.442 118.347 306.309 118.923 306.309 119.584C306.309 120.256 306.442 120.843 306.709 121.344C306.975 121.835 307.333 122.213 307.781 122.48C308.229 122.736 308.725 122.864 309.269 122.864C309.813 122.864 310.309 122.736 310.757 122.48C311.215 122.213 311.578 121.835 311.845 121.344C312.111 120.843 312.245 120.261 312.245 119.6Z" fill="black"/>
<path d="M2.82863 112.848V124H1.37263V112.848H2.82863ZM6.39813 122.8H10.7021V124H4.73413V122.8L8.99013 116.416H4.76613V115.232H10.6701V116.416L6.39813 122.8ZM12.0474 119.584C12.0474 118.688 12.2287 117.904 12.5914 117.232C12.954 116.549 13.45 116.021 14.0794 115.648C14.7194 115.275 15.434 115.088 16.2234 115.088C16.9807 115.088 17.642 115.259 18.2074 115.6C18.7834 115.931 19.2047 116.341 19.4714 116.832V115.232H20.9434V128.16H19.4714V122.384C19.194 122.875 18.7674 123.291 18.1914 123.632C17.6154 123.973 16.9434 124.144 16.1754 124.144C15.4074 124.144 14.7087 123.952 14.0794 123.568C13.45 123.184 12.954 122.645 12.5914 121.952C12.2287 121.259 12.0474 120.469 12.0474 119.584ZM19.4714 119.6C19.4714 118.939 19.338 118.363 19.0714 117.872C18.8047 117.381 18.442 117.008 17.9834 116.752C17.5354 116.485 17.0394 116.352 16.4954 116.352C15.9514 116.352 15.4554 116.48 15.0074 116.736C14.5594 116.992 14.202 117.365 13.9354 117.856C13.6687 118.347 13.5354 118.923 13.5354 119.584C13.5354 120.256 13.6687 120.843 13.9354 121.344C14.202 121.835 14.5594 122.213 15.0074 122.48C15.4554 122.736 15.9514 122.864 16.4954 122.864C17.0394 122.864 17.5354 122.736 17.9834 122.48C18.442 122.213 18.8047 121.835 19.0714 121.344C19.338 120.843 19.4714 120.261 19.4714 119.6ZM31.1799 115.232V124H29.7239V122.704C29.4465 123.152 29.0572 123.504 28.5559 123.76C28.0652 124.005 27.5212 124.128 26.9239 124.128C26.2412 124.128 25.6279 123.989 25.0839 123.712C24.5399 123.424 24.1079 122.997 23.7879 122.432C23.4785 121.867 23.3239 121.179 23.3239 120.368V115.232H24.7639V120.176C24.7639 121.04 24.9825 121.707 25.4199 122.176C25.8572 122.635 26.4545 122.864 27.2119 122.864C27.9905 122.864 28.6039 122.624 29.0519 122.144C29.4999 121.664 29.7239 120.965 29.7239 120.048V115.232H31.1799ZM34.3903 113.808C34.1129 113.808 33.8783 113.712 33.6863 113.52C33.4943 113.328 33.3983 113.093 33.3983 112.816C33.3983 112.539 33.4943 112.304 33.6863 112.112C33.8783 111.92 34.1129 111.824 34.3903 111.824C34.6569 111.824 34.8809 111.92 35.0623 112.112C35.2543 112.304 35.3503 112.539 35.3503 112.816C35.3503 113.093 35.2543 113.328 35.0623 113.52C34.8809 113.712 34.6569 113.808 34.3903 113.808ZM35.0943 115.232V124H33.6383V115.232H35.0943ZM45.5758 119.28C45.5758 119.557 45.5598 119.851 45.5278 120.16H38.5198C38.5731 121.024 38.8664 121.701 39.3998 122.192C39.9438 122.672 40.5998 122.912 41.3678 122.912C41.9971 122.912 42.5198 122.768 42.9358 122.48C43.3624 122.181 43.6611 121.787 43.8318 121.296H45.3998C45.1651 122.139 44.6958 122.827 43.9918 123.36C43.2878 123.883 42.4131 124.144 41.3678 124.144C40.5358 124.144 39.7891 123.957 39.1278 123.584C38.4771 123.211 37.9651 122.683 37.5918 122C37.2184 121.307 37.0318 120.507 37.0318 119.6C37.0318 118.693 37.2131 117.899 37.5758 117.216C37.9384 116.533 38.4451 116.011 39.0958 115.648C39.7571 115.275 40.5144 115.088 41.3678 115.088C42.1998 115.088 42.9358 115.269 43.5758 115.632C44.2158 115.995 44.7064 116.496 45.0478 117.136C45.3998 117.765 45.5758 118.48 45.5758 119.28ZM44.0718 118.976C44.0718 118.421 43.9491 117.947 43.7038 117.552C43.4584 117.147 43.1224 116.843 42.6958 116.64C42.2798 116.427 41.8158 116.32 41.3038 116.32C40.5678 116.32 39.9384 116.555 39.4158 117.024C38.9038 117.493 38.6104 118.144 38.5358 118.976H44.0718ZM48.9536 116.656C49.2096 116.155 49.5723 115.765 50.0416 115.488C50.5216 115.211 51.103 115.072 51.7856 115.072V116.576H51.4016C49.7696 116.576 48.9536 117.461 48.9536 119.232V124H47.4976V115.232H48.9536V116.656ZM52.9224 119.584C52.9224 118.688 53.1037 117.904 53.4664 117.232C53.829 116.549 54.325 116.021 54.9544 115.648C55.5944 115.275 56.309 115.088 57.0984 115.088C57.781 115.088 58.4157 115.248 59.0024 115.568C59.589 115.877 60.037 116.288 60.3464 116.8V112.16H61.8184V124H60.3464V122.352C60.0584 122.875 59.6317 123.307 59.0664 123.648C58.501 123.979 57.8397 124.144 57.0824 124.144C56.3037 124.144 55.5944 123.952 54.9544 123.568C54.325 123.184 53.829 122.645 53.4664 121.952C53.1037 121.259 52.9224 120.469 52.9224 119.584ZM60.3464 119.6C60.3464 118.939 60.213 118.363 59.9464 117.872C59.6797 117.381 59.317 117.008 58.8584 116.752C58.4104 116.485 57.9144 116.352 57.3704 116.352C56.8264 116.352 56.3304 116.48 55.8824 116.736C55.4344 116.992 55.077 117.365 54.8104 117.856C54.5437 118.347 54.4104 118.923 54.4104 119.584C54.4104 120.256 54.5437 120.843 54.8104 121.344C55.077 121.835 55.4344 122.213 55.8824 122.48C56.3304 122.736 56.8264 122.864 57.3704 122.864C57.9144 122.864 58.4104 122.736 58.8584 122.48C59.317 122.213 59.6797 121.835 59.9464 121.344C60.213 120.843 60.3464 120.261 60.3464 119.6ZM63.7349 119.584C63.7349 118.688 63.9162 117.904 64.2789 117.232C64.6415 116.549 65.1375 116.021 65.7669 115.648C66.4069 115.275 67.1162 115.088 67.8949 115.088C68.6629 115.088 69.3295 115.253 69.8949 115.584C70.4602 115.915 70.8815 116.331 71.1589 116.832V115.232H72.6309V124H71.1589V122.368C70.8709 122.88 70.4389 123.307 69.8629 123.648C69.2975 123.979 68.6362 124.144 67.8789 124.144C67.1002 124.144 66.3962 123.952 65.7669 123.568C65.1375 123.184 64.6415 122.645 64.2789 121.952C63.9162 121.259 63.7349 120.469 63.7349 119.584ZM71.1589 119.6C71.1589 118.939 71.0255 118.363 70.7589 117.872C70.4922 117.381 70.1295 117.008 69.6709 116.752C69.2229 116.485 68.7269 116.352 68.1829 116.352C67.6389 116.352 67.1429 116.48 66.6949 116.736C66.2469 116.992 65.8895 117.365 65.6229 117.856C65.3562 118.347 65.2229 118.923 65.2229 119.584C65.2229 120.256 65.3562 120.843 65.6229 121.344C65.8895 121.835 66.2469 122.213 66.6949 122.48C67.1429 122.736 67.6389 122.864 68.1829 122.864C68.7269 122.864 69.2229 122.736 69.6709 122.48C70.1295 122.213 70.4922 121.835 70.7589 121.344C71.0255 120.843 71.1589 120.261 71.1589 119.6Z" fill="black"/>
<path d="M192.72 298.848C193.936 298.848 194.986 299.077 195.872 299.536C196.768 299.984 197.45 300.629 197.92 301.472C198.4 302.315 198.64 303.307 198.64 304.448C198.64 305.589 198.4 306.581 197.92 307.424C197.45 308.256 196.768 308.896 195.872 309.344C194.986 309.781 193.936 310 192.72 310H189.248V298.848H192.72ZM192.72 308.8C194.16 308.8 195.258 308.421 196.016 307.664C196.773 306.896 197.152 305.824 197.152 304.448C197.152 303.061 196.768 301.979 196 301.2C195.242 300.421 194.149 300.032 192.72 300.032H190.704V308.8H192.72ZM208.56 305.28C208.56 305.557 208.544 305.851 208.512 306.16H201.504C201.557 307.024 201.851 307.701 202.384 308.192C202.928 308.672 203.584 308.912 204.352 308.912C204.981 308.912 205.504 308.768 205.92 308.48C206.347 308.181 206.645 307.787 206.816 307.296H208.384C208.149 308.139 207.68 308.827 206.976 309.36C206.272 309.883 205.397 310.144 204.352 310.144C203.52 310.144 202.773 309.957 202.112 309.584C201.461 309.211 200.949 308.683 200.576 308C200.203 307.307 200.016 306.507 200.016 305.6C200.016 304.693 200.197 303.899 200.56 303.216C200.923 302.533 201.429 302.011 202.08 301.648C202.741 301.275 203.499 301.088 204.352 301.088C205.184 301.088 205.92 301.269 206.56 301.632C207.2 301.995 207.691 302.496 208.032 303.136C208.384 303.765 208.56 304.48 208.56 305.28ZM207.056 304.976C207.056 304.421 206.933 303.947 206.688 303.552C206.443 303.147 206.107 302.843 205.68 302.64C205.264 302.427 204.8 302.32 204.288 302.32C203.552 302.32 202.923 302.555 202.4 303.024C201.888 303.493 201.595 304.144 201.52 304.976H207.056ZM211.938 298.16V310H210.482V298.16H211.938ZM213.876 305.584C213.876 304.688 214.057 303.904 214.42 303.232C214.782 302.549 215.278 302.021 215.908 301.648C216.548 301.275 217.257 301.088 218.036 301.088C218.804 301.088 219.47 301.253 220.036 301.584C220.601 301.915 221.022 302.331 221.3 302.832V301.232H222.772V310H221.3V308.368C221.012 308.88 220.58 309.307 220.004 309.648C219.438 309.979 218.777 310.144 218.02 310.144C217.241 310.144 216.537 309.952 215.908 309.568C215.278 309.184 214.782 308.645 214.42 307.952C214.057 307.259 213.876 306.469 213.876 305.584ZM221.3 305.6C221.3 304.939 221.166 304.363 220.9 303.872C220.633 303.381 220.27 303.008 219.812 302.752C219.364 302.485 218.868 302.352 218.324 302.352C217.78 302.352 217.284 302.48 216.836 302.736C216.388 302.992 216.03 303.365 215.764 303.856C215.497 304.347 215.364 304.923 215.364 305.584C215.364 306.256 215.497 306.843 215.764 307.344C216.03 307.835 216.388 308.213 216.836 308.48C217.284 308.736 217.78 308.864 218.324 308.864C218.868 308.864 219.364 308.736 219.812 308.48C220.27 308.213 220.633 307.835 220.9 307.344C221.166 306.843 221.3 306.261 221.3 305.6ZM229.504 301.072C230.571 301.072 231.435 301.397 232.096 302.048C232.757 302.688 233.088 303.616 233.088 304.832V310H231.648V305.04C231.648 304.165 231.429 303.499 230.992 303.04C230.555 302.571 229.957 302.336 229.2 302.336C228.432 302.336 227.819 302.576 227.36 303.056C226.912 303.536 226.688 304.235 226.688 305.152V310H225.232V301.232H226.688V302.48C226.976 302.032 227.365 301.685 227.856 301.44C228.357 301.195 228.907 301.072 229.504 301.072ZM237.242 302.432V307.6C237.242 308.027 237.333 308.331 237.514 308.512C237.696 308.683 238.01 308.768 238.458 308.768H239.53V310H238.218C237.408 310 236.8 309.813 236.394 309.44C235.989 309.067 235.786 308.453 235.786 307.6V302.432H234.65V301.232H235.786V299.024H237.242V301.232H239.53V302.432H237.242ZM249.295 305.28C249.295 305.557 249.279 305.851 249.247 306.16H242.239C242.292 307.024 242.585 307.701 243.119 308.192C243.663 308.672 244.319 308.912 245.087 308.912C245.716 308.912 246.239 308.768 246.655 308.48C247.081 308.181 247.38 307.787 247.551 307.296H249.119C248.884 308.139 248.415 308.827 247.711 309.36C247.007 309.883 246.132 310.144 245.087 310.144C244.255 310.144 243.508 309.957 242.847 309.584C242.196 309.211 241.684 308.683 241.311 308C240.937 307.307 240.751 306.507 240.751 305.6C240.751 304.693 240.932 303.899 241.295 303.216C241.657 302.533 242.164 302.011 242.815 301.648C243.476 301.275 244.233 301.088 245.087 301.088C245.919 301.088 246.655 301.269 247.295 301.632C247.935 301.995 248.425 302.496 248.767 303.136C249.119 303.765 249.295 304.48 249.295 305.28ZM247.791 304.976C247.791 304.421 247.668 303.947 247.423 303.552C247.177 303.147 246.841 302.843 246.415 302.64C245.999 302.427 245.535 302.32 245.023 302.32C244.287 302.32 243.657 302.555 243.135 303.024C242.623 303.493 242.329 304.144 242.255 304.976H247.791Z" fill="black"/>
<path d="M253.5 172C254.328 172 255 171.328 255 170.5C255 169.672 254.328 169 253.5 169V172ZM218 170.5L233 179.16V161.84L218 170.5ZM253.5 169H231.5V172H253.5V169Z" fill="#ED8830"/>
<path d="M160.5 77C160.5 76.1716 159.828 75.5 159 75.5C158.172 75.5 157.5 76.1716 157.5 77L160.5 77ZM159 112.5L167.66 97.5L150.34 97.5L159 112.5ZM157.5 77L157.5 99L160.5 99L160.5 77L157.5 77Z" fill="#ED8830"/>
<path d="M157.5 262.5C157.5 263.328 158.172 264 159 264C159.828 264 160.5 263.328 160.5 262.5L157.5 262.5ZM159 227L150.34 242L167.66 242L159 227ZM160.5 262.5L160.5 240.5L157.5 240.5L157.5 262.5L160.5 262.5Z" fill="#ED8830"/>
<path d="M66 169C65.1716 169 64.5 169.672 64.5 170.5C64.5 171.328 65.1716 172 66 172L66 169ZM101.5 170.5L86.5 161.84L86.5 179.16L101.5 170.5ZM66 172L88 172L88 169L66 169L66 172Z" fill="#ED8830"/>
</svg>
