<svg id="Layer_1" data-name="Layer 1" xmlns="http://www.w3.org/2000/svg" viewBox="0 0 229.82 248.25"><defs><style>.cls-1,.cls-2{fill:#ed8830;}.cls-1{fill-opacity:0.5;fill-rule:evenodd;}</style></defs><path class="cls-1" d="M109,8.48A53.38,53.38,0,0,0,55.84,57a4.23,4.23,0,0,1-4.22,3.86h-.24a42.9,42.9,0,1,0,0,85.8h53.38V116L74.57,85.81a4.24,4.24,0,0,1,6-6L104.76,104V77.57a4.24,4.24,0,0,1,8.48,0v36.66h0v5.47l19-18.95a4.24,4.24,0,0,1,6,6l-25,25v14.95h53.38a42.9,42.9,0,0,0,0-85.8h-.24A4.23,4.23,0,0,1,162.16,57,53.38,53.38,0,0,0,109,8.48Zm-4.24,146.67v58.61a4.24,4.24,0,0,0,8.48,0V155.15h53.38A51.39,51.39,0,0,0,170.15,52.5a61.86,61.86,0,0,0-122.3,0,51.39,51.39,0,0,0,3.53,102.65Z"/><path class="cls-2" d="M33,181a5,5,0,0,0-10,0Zm163.54-3.54a5,5,0,0,0-7.08,0l-31.81,31.82a5,5,0,0,0,7.07,7.07L193,188.07l28.28,28.28a5,5,0,0,0,7.07-7.07Zm-172.69,14a5,5,0,1,0,9.86-1.65ZM39.58,206A5,5,0,1,0,31,211.09Zm4.88,20.91a5,5,0,1,0,6.46-7.63Zm21.54,2a5,5,0,0,0-4.3,9Zm14.73,15.78a5,5,0,0,0,2.43-9.7Zm20.56-6.77a5,5,0,0,0-.79,10Zm19.21,10a5,5,0,0,0-.79-10ZM137.84,235a5,5,0,0,0,2.43,9.7Zm21.45,2.95a5,5,0,1,0-4.29-9Zm10.79-18.62a5,5,0,1,0,6.46,7.63Zm19.95-8.2a5,5,0,1,0-8.61-5.08Zm-2.74-21.31a5,5,0,1,0,9.86,1.65ZM23,181a63.2,63.2,0,0,0,.85,10.43l9.86-1.65A52.74,52.74,0,0,1,33,181Zm8,30.09a61.84,61.84,0,0,0,13.49,15.83l6.46-7.63A52,52,0,0,1,39.58,206ZM61.7,237.91a102.21,102.21,0,0,0,19,6.75l2.43-9.7A92.59,92.59,0,0,1,66,228.88Zm38.8,10a128.4,128.4,0,0,0,20,0l-.79-10a118,118,0,0,1-18.42,0Zm39.77-3.2a101.86,101.86,0,0,0,19-6.75l-4.29-9A92.59,92.59,0,0,1,137.84,235Zm36.27-17.74A61.84,61.84,0,0,0,190,211.09L181.42,206a52,52,0,0,1-11.34,13.28Zm20.61-35.49A63.2,63.2,0,0,0,198,181H188a52.74,52.74,0,0,1-.71,8.78Z"/></svg>