<svg id="Layer_1" data-name="Layer 1" xmlns="http://www.w3.org/2000/svg" xmlns:xlink="http://www.w3.org/1999/xlink" viewBox="0 0 193 95"><defs><style>.cls-1{fill:#fff;stroke-width:2px;stroke:url(#linear-gradient);}.cls-2{fill:url(#linear-gradient-2);}.cls-3{fill:#ed8830;fill-rule:evenodd;}</style><linearGradient id="linear-gradient" x1="75" y1="38.5" x2="0" y2="38.5" gradientTransform="matrix(1, 0, 0, -1, 0, 96)" gradientUnits="userSpaceOnUse"><stop offset="0" stop-color="#ed8830"/><stop offset="1" stop-color="#fbca11"/></linearGradient><linearGradient id="linear-gradient-2" x1="63" y1="38" x2="13" y2="38" xlink:href="#linear-gradient"/></defs><circle class="cls-1" cx="37.5" cy="57.5" r="36.5"/><rect class="cls-2" x="13" y="33" width="50" height="50" rx="15"/><path class="cls-3" d="M98.4,62a3.26,3.26,0,0,1-2.69-1.07,4.26,4.26,0,0,1-.93-2.8,4.35,4.35,0,0,1,1-2.82,3.33,3.33,0,0,1,2.71-1.08H138.8a3.87,3.87,0,1,0,0-7.74H126.94a3.91,3.91,0,1,1,0-7.82h1.36a11.76,11.76,0,0,0,1.2.06h7a4,4,0,0,0,.69-.06h.07a3.87,3.87,0,1,0,0-7.74h-8.48a3.87,3.87,0,0,1,.69-7.68h7.77a3.88,3.88,0,1,0,0-7.75h0a3.85,3.85,0,0,1-3.87-3.84v0a3.88,3.88,0,0,1,3.89-3.87h33.83c6.25,0,14.1,5.52,14.1,14.35V51.71c0,4-3.3,9.08-8.86,13.54s-11.76,7-15.76,7c-4.33,0-7.39-.93-9.56-2.53h.34a3.88,3.88,0,1,0,0-7.75Zm28-46.09a11.56,11.56,0,0,1-.81-4.25v0A11.64,11.64,0,0,1,137.29,0h33.83C180.89,0,193,8.25,193,22.09V51.71c0,7.6-5.69,14.71-11.76,19.57S167.11,80,160.6,80c-7.87,0-14.31-2.52-18.29-8.3a3.86,3.86,0,0,1-.68-2H98.4A11,11,0,0,1,89.8,66a12.35,12.35,0,0,1,0-15.71,11.1,11.1,0,0,1,8.6-3.77h17.47A11.61,11.61,0,0,1,119.7,33.4a11.51,11.51,0,0,1-1.87-6.3A11.63,11.63,0,0,1,126.43,15.89Z" transform="translate(0 0)"/></svg>