<svg width="16" height="22" viewBox="0 0 16 22" fill="none" xmlns="http://www.w3.org/2000/svg">
<path d="M7.95982 1.94995H12.1298C13.9498 1.94995 15.4298 3.42995 15.4298 5.24995V18C15.4298 19.82 13.9498 21.2999 12.1298 21.2999H3.86982C2.04982 21.2999 0.569824 19.82 0.569824 18V5.24995C0.569824 3.42995 2.04982 1.94995 3.86982 1.94995H5.52982" stroke="white" stroke-miterlimit="10" stroke-linecap="round"/>
<path d="M8.6499 3.19995C9.34026 3.19995 9.8999 2.64031 9.8999 1.94995C9.8999 1.2596 9.34026 0.699951 8.6499 0.699951C7.95955 0.699951 7.3999 1.2596 7.3999 1.94995C7.3999 2.64031 7.95955 3.19995 8.6499 3.19995Z" fill="white"/>
<path d="M12.3799 9.03003C13.0702 9.03003 13.6299 8.47039 13.6299 7.78003C13.6299 7.08967 13.0702 6.53003 12.3799 6.53003C11.6895 6.53003 11.1299 7.08967 11.1299 7.78003C11.1299 8.47039 11.6895 9.03003 12.3799 9.03003Z" fill="white"/>
<path d="M3.59961 9.03003C4.28997 9.03003 4.84961 8.47039 4.84961 7.78003C4.84961 7.08967 4.28997 6.53003 3.59961 6.53003C2.90925 6.53003 2.34961 7.08967 2.34961 7.78003C2.34961 8.47039 2.90925 9.03003 3.59961 9.03003Z" fill="white"/>
<path d="M2.86963 7.78003H13.1296" stroke="white" stroke-miterlimit="10" stroke-linecap="round"/>
<path d="M12.3799 12.8799C13.0702 12.8799 13.6299 12.3202 13.6299 11.6299C13.6299 10.9395 13.0702 10.3799 12.3799 10.3799C11.6895 10.3799 11.1299 10.9395 11.1299 11.6299C11.1299 12.3202 11.6895 12.8799 12.3799 12.8799Z" fill="white"/>
<path d="M2.86963 11.6299H13.1296" stroke="white" stroke-miterlimit="10" stroke-linecap="round"/>
<path d="M3.59961 16.72C4.28997 16.72 4.84961 16.1603 4.84961 15.47C4.84961 14.7796 4.28997 14.22 3.59961 14.22C2.90925 14.22 2.34961 14.7796 2.34961 15.47C2.34961 16.1603 2.90925 16.72 3.59961 16.72Z" fill="white"/>
<path d="M2.86963 15.47H13.1296" stroke="white" stroke-miterlimit="10" stroke-linecap="round"/>
</svg>
