<svg width="18" height="22" viewBox="0 0 18 22" fill="none" xmlns="http://www.w3.org/2000/svg">
<path d="M15.2598 9.40015L16.0798 9.91015C16.8898 10.4201 16.8898 11.5901 16.0798 12.0901L9.68977 16.1001C9.26977 16.3601 8.73977 16.3601 8.31977 16.1001L1.92977 12.0901C1.11977 11.5801 1.11977 10.4101 1.92977 9.91015L2.70977 9.42015" stroke="white" stroke-miterlimit="10" stroke-linecap="round"/>
<path d="M1.92977 17.0101C1.11977 16.5001 1.11977 15.3301 1.92977 14.8301L2.70977 14.3401" stroke="white" stroke-miterlimit="10" stroke-linecap="round"/>
<path d="M15.2602 14.3201L16.0802 14.8301C16.8902 15.3401 16.8902 16.5101 16.0802 17.0101L9.69016 21.0201C9.27016 21.2801 8.74016 21.2801 8.32016 21.0201L5.91016 19.5101" stroke="white" stroke-miterlimit="10" stroke-linecap="round"/>
<path d="M16.07 4.99016C16.88 5.50016 16.88 6.67016 16.07 7.17016L9.68 11.1802C9.26 11.4402 8.73 11.4402 8.31 11.1802L1.92 7.17016C1.11 6.66016 1.11 5.49016 1.92 4.99016L8.31 0.980156C8.73 0.720156 9.26 0.720156 9.68 0.980156L11.49 2.11016" stroke="white" stroke-miterlimit="10" stroke-linecap="round"/>
<path d="M12.25 3.90015C12.9404 3.90015 13.5 3.3405 13.5 2.65015C13.5 1.95979 12.9404 1.40015 12.25 1.40015C11.5596 1.40015 11 1.95979 11 2.65015C11 3.3405 11.5596 3.90015 12.25 3.90015Z" fill="white"/>
<path d="M5.25 20.2703C5.94036 20.2703 6.5 19.7106 6.5 19.0203C6.5 18.3299 5.94036 17.7703 5.25 17.7703C4.55964 17.7703 4 18.3299 4 19.0203C4 19.7106 4.55964 20.2703 5.25 20.2703Z" fill="white"/>
</svg>
