<svg width="16" height="16" viewBox="0 0 16 16" fill="none" xmlns="http://www.w3.org/2000/svg">
<path fill-rule="evenodd" clip-rule="evenodd" d="M14.8956 10.9584C14.692 10.9584 14.532 11.1184 14.532 11.322V13.322C14.532 13.962 14.0084 14.4857 13.3684 14.4857H2.84472C2.20472 14.4857 1.68108 13.962 1.68108 13.322V12.4129C2.01563 12.2748 2.24836 11.9548 2.24836 11.5766C2.24836 11.0748 1.84108 10.6675 1.33927 10.6675C0.837448 10.6675 0.430176 11.0748 0.430176 11.5766C0.430176 11.9402 0.648358 12.2457 0.953812 12.3911V13.322C0.953812 14.3693 1.80472 15.2129 2.84472 15.2129H13.3684C14.4084 15.2129 15.2593 14.362 15.2593 13.322V11.322C15.2593 11.1184 15.0993 10.9584 14.8956 10.9584Z" fill="black"/>
<path fill-rule="evenodd" clip-rule="evenodd" d="M7.52111 12.1292C7.65202 12.3256 7.8702 12.4419 8.10293 12.4419C8.33565 12.4419 8.55383 12.3256 8.68474 12.1292L11.6666 7.6274C11.812 7.40195 11.8193 7.12558 11.6884 6.89286C11.5575 6.66013 11.3102 6.52195 11.0411 6.54377L10.2775 6.61649V1.28558C10.2775 0.90013 9.96475 0.587402 9.57929 0.587402H6.61202C6.22656 0.587402 5.91384 0.90013 5.91384 1.28558V2.46377C5.60838 2.60922 5.3902 2.91467 5.3902 3.27831C5.3902 3.78013 5.79747 4.1874 6.29929 4.1874C6.80111 4.1874 7.20838 3.78013 7.20838 3.27831C7.20838 2.89286 6.96838 2.56558 6.62656 2.43468L6.61202 1.31468L9.5502 1.28558V6.61649C9.5502 6.80558 9.6302 6.99468 9.76838 7.12558C9.90656 7.25649 10.0884 7.32922 10.292 7.31468L11.0557 7.2274L8.11747 11.7292L5.10656 7.27104L5.89929 7.31468C6.08838 7.32922 6.27747 7.25649 6.42293 7.12558C6.56838 6.99468 6.64111 6.80558 6.64111 6.61649V5.86013C6.64111 5.65649 6.48111 5.49649 6.27747 5.49649C6.07384 5.49649 5.91384 5.65649 5.91384 5.86013L5.94293 6.5874L5.1502 6.54377C4.86656 6.52195 4.63384 6.66013 4.50293 6.89286C4.37202 7.12558 4.37929 7.40922 4.52474 7.6274L7.51384 12.1292H7.52111Z" fill="black"/>
</svg>
