<svg width="26" height="18" viewBox="0 0 26 18" fill="none" xmlns="http://www.w3.org/2000/svg">
<path d="M3.87974 13.4398C3.63974 12.6398 3.81974 11.7298 4.44974 11.0998C4.63974 10.9098 4.63974 10.5998 4.44974 10.4098C4.25974 10.2198 3.94974 10.2198 3.75974 10.4098C2.82974 11.3398 2.57974 12.6998 2.98974 13.8598C2.88974 14.0098 2.80974 14.1898 2.80974 14.3798C2.80974 14.9198 3.23974 15.3498 3.77974 15.3498C4.31974 15.3498 4.74974 14.9198 4.74974 14.3798C4.74974 13.8698 4.35974 13.4698 3.86974 13.4298L3.87974 13.4398Z" fill="white"/>
<path d="M24.9797 13.6899L21.4297 10.1399C20.8397 9.54989 19.8897 9.43989 19.1897 9.88989C18.2097 10.5199 17.0697 10.7699 15.8997 10.6199C13.7797 10.3399 12.0397 8.58989 11.7697 6.45989C11.5797 4.94989 12.0797 3.46989 13.1497 2.39989C14.2197 1.32989 15.6997 0.829895 17.2097 1.01989C19.4097 1.29989 21.1697 3.09989 21.3897 5.30989C21.4497 5.87989 21.4097 6.43989 21.2797 6.97989C20.8297 7.05989 20.4797 7.43989 20.4797 7.91989C20.4797 8.45989 20.9097 8.88989 21.4497 8.88989C21.9897 8.88989 22.4197 8.45989 22.4197 7.91989C22.4197 7.68989 22.3297 7.47989 22.1897 7.31989C22.3697 6.63989 22.4297 5.92989 22.3597 5.21989C22.0897 2.56989 19.9797 0.399895 17.3297 0.0698945C15.5097 -0.160105 13.7397 0.449894 12.4697 1.72989C11.1897 3.00989 10.5897 4.77989 10.8197 6.59989C11.1397 9.15989 13.2297 11.2599 15.7797 11.5999C17.1697 11.7899 18.5697 11.4699 19.7297 10.7299C20.0497 10.5199 20.4797 10.5699 20.7497 10.8499L24.2997 14.3999C24.3897 14.4899 24.5197 14.5399 24.6397 14.5399C24.7597 14.5399 24.8897 14.4899 24.9797 14.3999C25.1697 14.2099 25.1697 13.8999 24.9797 13.7099V13.6899Z" fill="white"/>
<path d="M17.7199 2.17983C17.5699 1.82983 17.2299 1.57983 16.8299 1.57983C16.2899 1.57983 15.8599 2.00983 15.8599 2.54983C15.8599 3.08983 16.2899 3.51983 16.8299 3.51983C17.1399 3.51983 17.3999 3.36983 17.5799 3.13983C18.4799 3.37983 19.1599 4.18983 19.1599 5.16983C19.1599 5.43983 19.3799 5.64983 19.6399 5.64983C19.8999 5.64983 20.1199 5.42983 20.1199 5.16983C20.1199 3.70983 19.0899 2.48983 17.7199 2.17983Z" fill="white"/>
<path d="M7.26971 13.9299C7.57971 13.6199 7.74971 13.1999 7.74971 12.7599C7.74971 12.3199 7.57971 11.8999 7.26971 11.5899C6.95971 11.2799 6.53971 11.1099 6.09971 11.1099C5.65971 11.1099 5.23971 11.2799 4.92971 11.5899C4.28971 12.2299 4.28971 13.2799 4.92971 13.9299C5.23971 14.2399 5.65971 14.4099 6.09971 14.4099C6.53971 14.4099 6.95971 14.2399 7.26971 13.9299ZM5.61971 12.2799C5.74971 12.1499 5.91971 12.0799 6.09971 12.0799C6.27971 12.0799 6.44971 12.1499 6.57971 12.2799C6.70971 12.4099 6.77971 12.5799 6.77971 12.7599C6.77971 12.9399 6.70971 13.1099 6.57971 13.2399C6.31971 13.4999 5.86971 13.4999 5.60971 13.2399C5.33971 12.9699 5.33971 12.5399 5.60971 12.2699L5.61971 12.2799Z" fill="white"/>
<path d="M8.44983 15.0999C9.07983 14.4699 9.41983 13.6399 9.41983 12.7599C9.41983 11.8799 9.07983 11.0399 8.44983 10.4199C8.02983 9.99985 7.50983 9.71985 6.94983 9.56985C6.83983 9.15985 6.47983 8.84985 6.02983 8.84985C5.48983 8.84985 5.05983 9.27985 5.05983 9.81985C5.05983 10.3599 5.48983 10.7899 6.02983 10.7899C6.29983 10.7899 6.53983 10.6799 6.71983 10.5099C7.10983 10.6099 7.47983 10.8099 7.76983 11.1099C8.20983 11.5499 8.45983 12.1399 8.45983 12.7699C8.45983 13.3999 8.21983 13.9799 7.76983 14.4299C7.18983 15.0099 6.35983 15.2499 5.54983 15.0499C5.27983 14.9799 5.02983 15.1399 4.95983 15.3999C4.88983 15.6599 5.04983 15.9199 5.30983 15.9899C5.57983 16.0599 5.84983 16.0899 6.11983 16.0899C6.98983 16.0899 7.81983 15.7499 8.44983 15.1199V15.0999Z" fill="white"/>
<path d="M16.5799 12.2698C16.3099 12.2698 16.0999 12.4898 16.0999 12.7498C16.0999 13.4398 15.9199 14.0798 15.6299 14.6598C15.5999 14.6598 15.5599 14.6398 15.5299 14.6398H13.6199C13.4499 14.3598 13.1499 14.1498 12.7999 14.1498C12.2599 14.1498 11.8299 14.5798 11.8299 15.1198C11.8299 15.6598 12.2599 16.0898 12.7999 16.0898C13.1499 16.0898 13.4499 15.8898 13.6199 15.6098H14.9799C14.1999 16.4598 13.0899 17.0098 11.8499 17.0098H9.11988C9.35988 16.8398 9.58988 16.6598 9.80988 16.4498C10.6899 15.5698 11.1699 14.4498 11.2899 13.2998H13.7699C13.9399 13.5798 14.2399 13.7798 14.5899 13.7798C15.1299 13.7798 15.5599 13.3498 15.5599 12.8098C15.5599 12.2698 15.1299 11.8398 14.5899 11.8398C14.2399 11.8398 13.9399 12.0398 13.7699 12.3198H11.2999C11.1999 11.1298 10.7199 9.95978 9.80988 9.04978C9.59988 8.83978 9.35988 8.65979 9.11988 8.48979H9.91988C10.1899 8.48979 10.3999 8.26979 10.3999 8.00979C10.3999 7.74979 10.1799 7.52979 9.91988 7.52979H6.30988C6.30988 7.52979 6.25988 7.53979 6.23988 7.53979C4.85988 7.50979 3.46988 7.99978 2.40988 9.05978C0.369883 11.0998 0.369883 14.4098 2.40988 16.4498C3.42988 17.4698 4.76988 17.9798 6.10988 17.9798C6.12988 17.9798 6.14988 17.9798 6.16988 17.9798C6.17988 17.9798 6.19988 17.9798 6.20988 17.9798H11.8499C14.7299 17.9798 17.0799 15.6398 17.0799 12.7498C17.0799 12.4798 16.8599 12.2698 16.5999 12.2698H16.5799ZM3.08988 9.74979C3.91988 8.91979 5.00988 8.50979 6.09988 8.50979C7.18988 8.50979 8.27988 8.91979 9.10988 9.74979C10.7699 11.4098 10.7699 14.1098 9.10988 15.7698C7.44988 17.4298 4.74988 17.4298 3.08988 15.7698C1.42988 14.1098 1.42988 11.4098 3.08988 9.74979Z" fill="white"/>
</svg>
