<svg width="300" height="300" viewBox="0 0 300 300" fill="none" xmlns="http://www.w3.org/2000/svg">
<circle cx="150" cy="150" r="150" fill="#C4DDD1" fill-opacity="0.15"/>
<path d="M181.887 88.4836C178.437 88.4836 175.637 91.2836 175.637 94.7336C175.637 98.1836 178.437 100.984 181.887 100.984C184.187 100.984 186.087 99.6836 187.187 97.8336C196.137 99.4836 202.937 107.284 202.937 116.684C202.937 118.084 204.037 119.184 205.437 119.184C206.837 119.184 207.937 118.084 207.937 116.684C207.937 104.734 199.187 94.8336 187.787 92.8836C186.987 90.3336 184.687 88.4336 181.887 88.4336V88.4836Z" fill="#201A18"/>
<path d="M73.4876 187.534C73.0376 187.534 72.6876 187.684 72.2376 187.784C69.3876 180.234 70.9376 171.334 77.0376 165.284C78.0376 164.284 78.0376 162.734 77.0376 161.734C76.0376 160.734 74.4876 160.734 73.4876 161.734C65.6376 169.584 63.8876 181.184 68.0876 190.784C67.5876 191.684 67.2376 192.684 67.2376 193.784C67.2376 197.234 70.0376 200.034 73.4876 200.034C76.9376 200.034 79.7376 197.234 79.7376 193.784C79.7376 190.334 76.9376 187.534 73.4876 187.534Z" fill="#201A18"/>
<path d="M249.087 189.184L219.287 159.384C214.837 154.934 207.787 154.134 202.487 157.534C193.987 163.034 184.037 165.234 173.837 163.834C155.337 161.384 140.237 146.134 137.887 127.634C136.237 114.484 140.587 101.634 149.887 92.3336C159.187 83.0336 172.037 78.6836 185.187 80.3336C204.337 82.7336 219.637 98.4336 221.587 117.684C222.137 123.084 221.637 128.384 220.187 133.534C216.887 133.684 214.237 136.384 214.237 139.734C214.237 143.084 217.037 145.984 220.487 145.984C223.937 145.984 226.737 143.184 226.737 139.734C226.737 137.984 226.037 136.434 224.887 135.284C226.587 129.434 227.187 123.384 226.537 117.184C224.337 95.6836 207.187 78.0836 185.787 75.3836C171.087 73.5336 156.687 78.4336 146.337 88.8336C135.937 99.2336 131.087 113.634 132.937 128.334C135.587 149.034 152.487 166.084 173.187 168.884C184.437 170.384 195.837 167.884 205.187 161.784C208.487 159.634 212.937 160.134 215.737 162.984L245.537 192.784C246.037 193.284 246.687 193.534 247.287 193.534C247.887 193.534 248.587 193.284 249.037 192.784C250.037 191.784 250.037 190.234 249.037 189.234L249.087 189.184Z" fill="#201A18"/>
<path d="M100.738 188.934C105.538 184.134 105.538 176.334 100.738 171.534C95.9376 166.734 88.1375 166.734 83.3375 171.534C78.5375 176.334 78.5375 184.134 83.3375 188.934C85.6375 191.234 88.7375 192.534 92.0375 192.534C95.3375 192.534 98.3876 191.234 100.738 188.934ZM86.8875 175.084C88.2875 173.684 90.1875 172.934 92.0375 172.934C93.8875 172.934 95.7876 173.634 97.1876 175.084C100.038 177.934 100.038 182.534 97.1876 185.384C94.4376 188.134 89.6376 188.134 86.8875 185.384C84.0375 182.534 84.0375 177.934 86.8875 175.084Z" fill="#201A18"/>
<path d="M110.537 198.784C115.487 193.834 118.187 187.284 118.187 180.284C118.187 173.284 115.487 166.734 110.537 161.784C106.637 157.884 101.687 155.384 96.3874 154.484C95.4874 152.134 93.2374 150.434 90.5874 150.434C87.1374 150.434 84.3374 153.234 84.3374 156.684C84.3374 160.134 87.1374 162.934 90.5874 162.934C93.0374 162.934 95.0374 161.534 96.0874 159.484C100.187 160.284 103.987 162.284 106.987 165.284C110.987 169.284 113.187 174.584 113.187 180.284C113.187 185.984 110.987 191.284 106.987 195.284C101.687 200.584 94.1874 202.684 86.8874 200.884C85.5374 200.534 84.1874 201.384 83.8374 202.734C83.4874 204.084 84.3374 205.434 85.6874 205.784C87.7874 206.284 89.9374 206.584 92.0374 206.584C98.8874 206.584 105.487 203.884 110.487 198.884L110.537 198.784Z" fill="#201A18"/>
<path d="M179.838 177.784C178.438 177.784 177.338 178.884 177.338 180.284C177.338 187.834 175.088 194.884 171.188 200.734C171.088 200.734 171.038 200.734 170.988 200.734H153.837C152.887 198.534 150.688 196.984 148.138 196.984C144.688 196.984 141.888 199.784 141.888 203.234C141.888 206.684 144.688 209.484 148.138 209.484C150.688 209.484 152.887 207.934 153.837 205.734H167.288C160.488 212.984 150.838 217.534 140.138 217.534H111.988C115.588 215.634 118.937 213.184 121.937 210.184C126.987 205.134 130.488 199.134 132.438 192.734H157.388C158.338 194.934 160.538 196.484 163.088 196.484C166.538 196.484 169.338 193.684 169.338 190.234C169.338 186.784 166.538 183.984 163.088 183.984C160.538 183.984 158.338 185.534 157.388 187.734H133.638C135.938 174.634 132.088 160.584 121.988 150.484C118.988 147.484 115.637 145.034 112.037 143.134H124.088C125.488 143.134 126.588 142.034 126.588 140.634C126.588 139.234 125.488 138.134 124.088 138.134H93.8875C93.8875 138.134 93.6375 138.184 93.4875 138.234C82.2375 137.884 70.8875 141.934 62.3375 150.534C45.8875 166.984 45.8875 193.784 62.3375 210.234C70.5875 218.484 81.3875 222.584 92.1875 222.584C92.3875 222.584 92.5875 222.584 92.7375 222.584C92.8375 222.584 92.8875 222.584 92.9875 222.584H140.238C163.538 222.584 182.488 203.634 182.488 180.334C182.488 178.934 181.388 177.834 179.988 177.834L179.838 177.784ZM65.7375 153.934C72.9875 146.684 82.5375 143.034 92.0375 143.034C101.537 143.034 111.087 146.684 118.337 153.934C132.837 168.434 132.837 192.084 118.337 206.584C103.837 221.084 80.1875 221.084 65.6875 206.584C51.1875 192.084 51.1875 168.434 65.6875 153.934H65.7375Z" fill="#201A18"/>
</svg>
