<svg width="300" height="300" viewBox="0 0 300 300" fill="none" xmlns="http://www.w3.org/2000/svg">
<circle cx="150" cy="150" r="150" fill="#C4DDD1" fill-opacity="0.15"/>
<mask id="mask0_1026_2796" style="mask-type:alpha" maskUnits="userSpaceOnUse" x="0" y="0" width="300" height="300">
<rect width="300" height="300" fill="#D9D9D9"/>
</mask>
<g mask="url(#mask0_1026_2796)">
<path d="M253.24 161.863H167.433C157.379 161.863 149.229 153.713 149.229 143.659V143.659C149.229 133.606 157.379 125.455 167.433 125.455H177.967M261.241 161.863H281.209C291.263 161.863 299.413 153.713 299.413 143.659V143.659C299.413 133.606 291.263 125.455 281.209 125.455H186.898" stroke="#004F40" stroke-linecap="round"/>
<ellipse cx="186.572" cy="125.455" rx="1.13776" ry="1.13776" fill="#004F40"/>
<circle cx="253.923" cy="161.863" r="1.13776" fill="#004F40"/>
<path d="M190.862 150.737L188.206 146.177H186.446V150.737H184.99V139.585H188.59C189.433 139.585 190.142 139.729 190.718 140.017C191.305 140.305 191.742 140.694 192.03 141.185C192.318 141.676 192.462 142.236 192.462 142.865C192.462 143.633 192.238 144.31 191.79 144.897C191.353 145.484 190.692 145.873 189.806 146.065L192.606 150.737H190.862ZM186.446 145.009H188.59C189.38 145.009 189.972 144.817 190.366 144.433C190.761 144.038 190.958 143.516 190.958 142.865C190.958 142.204 190.761 141.692 190.366 141.329C189.982 140.966 189.39 140.785 188.59 140.785H186.446V145.009ZM202.725 146.017C202.725 146.294 202.709 146.588 202.677 146.897H195.669C195.722 147.761 196.015 148.438 196.549 148.929C197.093 149.409 197.749 149.649 198.517 149.649C199.146 149.649 199.669 149.505 200.085 149.217C200.511 148.918 200.81 148.524 200.981 148.033H202.549C202.314 148.876 201.845 149.564 201.141 150.097C200.437 150.62 199.562 150.881 198.517 150.881C197.685 150.881 196.938 150.694 196.277 150.321C195.626 149.948 195.114 149.42 194.741 148.737C194.367 148.044 194.181 147.244 194.181 146.337C194.181 145.43 194.362 144.636 194.725 143.953C195.087 143.27 195.594 142.748 196.245 142.385C196.906 142.012 197.663 141.825 198.517 141.825C199.349 141.825 200.085 142.006 200.725 142.369C201.365 142.732 201.855 143.233 202.197 143.873C202.549 144.502 202.725 145.217 202.725 146.017ZM201.221 145.713C201.221 145.158 201.098 144.684 200.853 144.289C200.607 143.884 200.271 143.58 199.845 143.377C199.429 143.164 198.965 143.057 198.453 143.057C197.717 143.057 197.087 143.292 196.565 143.761C196.053 144.23 195.759 144.881 195.685 145.713H201.221ZM208.263 141.825C209.02 141.825 209.681 141.99 210.247 142.321C210.823 142.652 211.249 143.068 211.527 143.569V141.969H212.999V150.929C212.999 151.729 212.828 152.438 212.487 153.057C212.145 153.686 211.655 154.177 211.015 154.529C210.385 154.881 209.649 155.057 208.807 155.057C207.655 155.057 206.695 154.785 205.927 154.241C205.159 153.697 204.705 152.956 204.567 152.017H206.007C206.167 152.55 206.497 152.977 206.999 153.297C207.5 153.628 208.103 153.793 208.807 153.793C209.607 153.793 210.257 153.542 210.759 153.041C211.271 152.54 211.527 151.836 211.527 150.929V149.089C211.239 149.601 210.812 150.028 210.247 150.369C209.681 150.71 209.02 150.881 208.263 150.881C207.484 150.881 206.775 150.689 206.135 150.305C205.505 149.921 205.009 149.382 204.647 148.689C204.284 147.996 204.103 147.206 204.103 146.321C204.103 145.425 204.284 144.641 204.647 143.969C205.009 143.286 205.505 142.758 206.135 142.385C206.775 142.012 207.484 141.825 208.263 141.825ZM211.527 146.337C211.527 145.676 211.393 145.1 211.127 144.609C210.86 144.118 210.497 143.745 210.039 143.489C209.591 143.222 209.095 143.089 208.551 143.089C208.007 143.089 207.511 143.217 207.063 143.473C206.615 143.729 206.257 144.102 205.991 144.593C205.724 145.084 205.591 145.66 205.591 146.321C205.591 146.993 205.724 147.58 205.991 148.081C206.257 148.572 206.615 148.95 207.063 149.217C207.511 149.473 208.007 149.601 208.551 149.601C209.095 149.601 209.591 149.473 210.039 149.217C210.497 148.95 210.86 148.572 211.127 148.081C211.393 147.58 211.527 146.998 211.527 146.337ZM216.211 140.545C215.934 140.545 215.699 140.449 215.507 140.257C215.315 140.065 215.219 139.83 215.219 139.553C215.219 139.276 215.315 139.041 215.507 138.849C215.699 138.657 215.934 138.561 216.211 138.561C216.478 138.561 216.702 138.657 216.883 138.849C217.075 139.041 217.171 139.276 217.171 139.553C217.171 139.83 217.075 140.065 216.883 140.257C216.702 140.449 216.478 140.545 216.211 140.545ZM216.915 141.969V150.737H215.459V141.969H216.915ZM222.501 150.881C221.829 150.881 221.226 150.769 220.693 150.545C220.159 150.31 219.738 149.99 219.429 149.585C219.119 149.169 218.949 148.694 218.917 148.161H220.421C220.463 148.598 220.666 148.956 221.029 149.233C221.402 149.51 221.887 149.649 222.485 149.649C223.039 149.649 223.477 149.526 223.797 149.281C224.117 149.036 224.277 148.726 224.277 148.353C224.277 147.969 224.106 147.686 223.765 147.505C223.423 147.313 222.895 147.126 222.181 146.945C221.53 146.774 220.997 146.604 220.581 146.433C220.175 146.252 219.823 145.99 219.525 145.649C219.237 145.297 219.093 144.838 219.093 144.273C219.093 143.825 219.226 143.414 219.493 143.041C219.759 142.668 220.138 142.374 220.629 142.161C221.119 141.937 221.679 141.825 222.309 141.825C223.279 141.825 224.063 142.07 224.661 142.561C225.258 143.052 225.578 143.724 225.621 144.577H224.165C224.133 144.118 223.946 143.75 223.605 143.473C223.274 143.196 222.826 143.057 222.261 143.057C221.738 143.057 221.322 143.169 221.013 143.393C220.703 143.617 220.549 143.91 220.549 144.273C220.549 144.561 220.639 144.801 220.821 144.993C221.013 145.174 221.247 145.324 221.525 145.441C221.813 145.548 222.207 145.67 222.709 145.809C223.338 145.98 223.85 146.15 224.245 146.321C224.639 146.481 224.975 146.726 225.253 147.057C225.541 147.388 225.69 147.82 225.701 148.353C225.701 148.833 225.567 149.265 225.301 149.649C225.034 150.033 224.655 150.337 224.165 150.561C223.685 150.774 223.13 150.881 222.501 150.881ZM229.532 143.169V148.337C229.532 148.764 229.623 149.068 229.804 149.249C229.985 149.42 230.3 149.505 230.748 149.505H231.82V150.737H230.508C229.697 150.737 229.089 150.55 228.684 150.177C228.279 149.804 228.076 149.19 228.076 148.337V143.169H226.94V141.969H228.076V139.761H229.532V141.969H231.82V143.169H229.532ZM235.04 143.393C235.296 142.892 235.659 142.502 236.128 142.225C236.608 141.948 237.189 141.809 237.872 141.809V143.313H237.488C235.856 143.313 235.04 144.198 235.04 145.969V150.737H233.584V141.969H235.04V143.393ZM239.009 146.321C239.009 145.425 239.19 144.641 239.553 143.969C239.916 143.286 240.412 142.758 241.041 142.385C241.681 142.012 242.39 141.825 243.169 141.825C243.937 141.825 244.604 141.99 245.169 142.321C245.734 142.652 246.156 143.068 246.433 143.569V141.969H247.905V150.737H246.433V149.105C246.145 149.617 245.713 150.044 245.137 150.385C244.572 150.716 243.91 150.881 243.153 150.881C242.374 150.881 241.67 150.689 241.041 150.305C240.412 149.921 239.916 149.382 239.553 148.689C239.19 147.996 239.009 147.206 239.009 146.321ZM246.433 146.337C246.433 145.676 246.3 145.1 246.033 144.609C245.766 144.118 245.404 143.745 244.945 143.489C244.497 143.222 244.001 143.089 243.457 143.089C242.913 143.089 242.417 143.217 241.969 143.473C241.521 143.729 241.164 144.102 240.897 144.593C240.63 145.084 240.497 145.66 240.497 146.321C240.497 146.993 240.63 147.58 240.897 148.081C241.164 148.572 241.521 148.95 241.969 149.217C242.417 149.473 242.913 149.601 243.457 149.601C244.001 149.601 244.497 149.473 244.945 149.217C245.404 148.95 245.766 148.572 246.033 148.081C246.3 147.58 246.433 146.998 246.433 146.337ZM252.141 143.169V148.337C252.141 148.764 252.232 149.068 252.413 149.249C252.595 149.42 252.909 149.505 253.357 149.505H254.429V150.737H253.117C252.307 150.737 251.699 150.55 251.293 150.177C250.888 149.804 250.685 149.19 250.685 148.337V143.169H249.549V141.969H250.685V139.761H252.141V141.969H254.429V143.169H252.141ZM264.194 146.017C264.194 146.294 264.178 146.588 264.146 146.897H257.138C257.191 147.761 257.484 148.438 258.018 148.929C258.562 149.409 259.218 149.649 259.986 149.649C260.615 149.649 261.138 149.505 261.554 149.217C261.98 148.918 262.279 148.524 262.45 148.033H264.018C263.783 148.876 263.314 149.564 262.61 150.097C261.906 150.62 261.031 150.881 259.986 150.881C259.154 150.881 258.407 150.694 257.746 150.321C257.095 149.948 256.583 149.42 256.21 148.737C255.836 148.044 255.65 147.244 255.65 146.337C255.65 145.43 255.831 144.636 256.194 143.953C256.556 143.27 257.063 142.748 257.714 142.385C258.375 142.012 259.132 141.825 259.986 141.825C260.818 141.825 261.554 142.006 262.194 142.369C262.834 142.732 263.324 143.233 263.666 143.873C264.018 144.502 264.194 145.217 264.194 146.017ZM262.69 145.713C262.69 145.158 262.567 144.684 262.322 144.289C262.076 143.884 261.74 143.58 261.314 143.377C260.898 143.164 260.434 143.057 259.922 143.057C259.186 143.057 258.556 143.292 258.034 143.761C257.522 144.23 257.228 144.881 257.154 145.713H262.69Z" fill="#004F40"/>
<mask id="mask1_1026_2796" style="mask-type:luminance" maskUnits="userSpaceOnUse" x="0" y="79" width="171" height="152">
<path d="M170.503 79.0793H0V230.54H170.503V79.0793Z" fill="white"/>
</mask>
<g mask="url(#mask1_1026_2796)">
<path d="M99.4891 118.323C102.595 116.366 108.807 110.702 109.492 96.513C109.563 95.0329 110.799 93.873 112.284 93.873C113.762 93.873 114.99 95.0187 115.075 96.4916C115.175 98.1212 115.24 100.213 115.111 101.885C115.011 103.138 116.061 104.191 117.324 104.113C121.915 103.835 126.856 102.049 128.205 92.2862C128.377 91.0338 129.441 90.1016 130.712 90.1016C132.154 90.1016 133.31 91.2971 133.239 92.7274C133.003 97.7867 129.362 109.791 116.817 110.773C115.097 110.908 113.633 112.054 112.898 113.612C111.748 116.06 109.385 119.952 104.815 123.916C103.587 124.983 101.917 125.467 100.339 125.069C99.2963 124.805 98.2753 124.186 97.8112 122.842C97.2258 121.148 97.9683 119.284 99.4891 118.323Z" fill="url(#paint0_linear_1026_2796)"/>
<path d="M99.1461 117.796C106.065 113.321 108.721 104.618 109.213 96.7692C109.156 93.9726 112.733 92.5708 114.568 94.7127C115.039 95.2393 115.289 95.9651 115.304 96.6482C115.382 97.9646 115.425 99.281 115.396 100.605L115.361 101.594C115.211 102.519 115.646 103.43 116.524 103.764C118.274 104.106 120.466 103.451 122.051 102.711C125.942 100.761 127.291 96.1999 127.834 92.1866C128.305 89.0627 132.775 88.835 133.589 91.8877C133.831 92.9124 133.539 93.994 133.424 95.0044C132.875 97.9717 131.789 100.832 130.154 103.387C127.32 108.019 122.065 111.001 116.682 111.364C113.904 111.663 113.254 114.609 111.962 116.594C110.548 118.871 108.849 120.97 106.929 122.834C105.9 123.774 104.979 124.827 103.644 125.382C101.624 126.286 98.7534 125.859 97.5682 123.809C96.333 121.788 97.1612 118.985 99.1533 117.789L99.1461 117.796ZM99.8173 118.857C96.283 121.44 99.139 125.908 103.137 124.222C104.258 123.752 105.129 122.749 106.029 121.931C108.906 119.234 111.077 115.968 112.869 112.495C113.704 111.3 115.039 110.417 116.532 110.239C116.881 110.197 118.631 109.962 118.945 109.926C123.193 109.08 126.984 106.518 129.326 102.853C130.904 100.441 131.982 97.68 132.532 94.8479C132.725 93.4959 133.246 91.6529 131.782 90.8275C130.554 90.0518 128.791 90.8701 128.598 92.3075C128.334 93.9442 127.977 95.5879 127.398 97.1534C126.449 99.6582 124.785 102.042 122.293 103.209C121.073 103.807 119.744 104.127 118.416 104.276C117.724 104.333 117.01 104.476 116.346 104.205C115.296 103.814 114.718 102.618 114.918 101.572C115.011 99.9428 114.961 98.3062 114.868 96.6767C114.832 93.7734 110.748 93.1259 109.849 95.8939C109.677 96.3707 109.72 97.2673 109.656 97.7938C109.206 105.65 106.743 114.267 99.8173 118.871V118.857Z" fill="black"/>
<path d="M118.224 133.252C118.224 133.252 125.349 140.247 130.611 152.621C132.703 157.531 135.459 162.149 138.944 166.198C142.078 169.842 145.948 173.264 149.775 173.898C151.003 174.097 151.731 175.363 151.231 176.502C150.146 178.95 146.119 182.237 132.161 181.803C132.161 181.803 117.41 181.803 111.862 175.598C111.862 175.598 106.722 149.433 118.224 133.252Z" fill="url(#paint1_linear_1026_2796)"/>
<path d="M118.209 133.095C118.295 133.11 118.409 133.209 118.474 133.273C118.545 133.337 118.809 133.615 118.88 133.686C124.385 139.471 128.548 146.466 131.711 153.746C134.895 160.57 142.199 171.464 149.939 173.108C152.109 173.485 152.852 175.983 151.517 177.648C149.246 180.864 144.969 181.746 141.357 182.301C132.403 183.248 119.816 183.148 112.676 177.029C112.276 176.609 111.905 176.175 111.519 175.755C110.884 172.09 110.57 168.404 110.455 164.704C110.234 153.817 111.634 142.125 118.209 133.088V133.095ZM118.238 133.401C110.241 145.726 109.956 161.445 112.219 175.52C116.167 178.822 123.314 180.28 129.012 180.7C134.931 181.035 141.264 181.305 146.861 179.163C148.418 178.473 150.139 177.477 150.567 175.769C150.581 175.001 149.932 174.687 149.26 174.602C143.984 173.286 140.25 168.945 137.008 164.896C133.11 160.015 130.747 154.222 128.227 148.601C125.592 143.236 122.358 138.112 118.374 133.636L118.245 133.494C118.231 133.48 118.188 133.43 118.195 133.437C118.195 133.437 118.224 133.43 118.238 133.401Z" fill="black"/>
<path d="M52.1447 125.652C52.4089 125.033 52.7659 124.457 53.2157 123.944C56.1787 120.579 68.4806 108.546 90.5784 111.492C90.5784 111.492 107.864 114.018 118.052 131.082C119.316 133.195 120.144 135.543 120.501 137.977C120.787 139.941 121.087 142.246 121.073 143.321C121.03 147.007 121.437 147.633 123.236 150.152C125.042 152.671 123.571 162.804 120.53 167.593C120.53 167.593 112.59 182.7 92.3847 187.909C92.3847 187.909 91.3423 188.741 90.4427 191.125C89.7073 193.075 88.465 194.79 86.8157 196.078C82.8102 199.201 77.077 198.789 73.557 195.124C72.4575 193.978 71.9291 192.413 72.0862 190.833C72.3361 188.371 71.9934 184.557 68.0237 182.693C68.0237 182.693 49.0817 174.061 51.2451 164.889L49.0889 164.426C42.6987 163.06 39.136 156.222 41.6849 150.223L52.1447 125.645V125.652Z" fill="url(#paint2_linear_1026_2796)"/>
<path d="M51.8094 125.517C52.8233 123.233 54.9081 121.653 56.6859 119.974C58.5351 118.373 60.5557 116.957 62.6691 115.711C71.2368 110.773 81.5253 109.499 91.2283 111.008C100.817 113.2 109.463 118.85 115.418 126.606C116.153 127.381 116.91 128.712 117.517 129.594C119.681 132.59 120.78 136.234 121.151 139.87C121.63 142.14 121.23 144.758 121.844 146.971C122.351 148.629 124.157 149.967 124.336 151.831C124.843 154.898 124.379 158.022 123.743 161.032C123.243 163.338 122.315 166.035 121.166 167.949C115.061 178.409 104.294 185.859 92.4564 188.271L92.5921 188.2C92.1708 188.57 91.771 189.147 91.4497 189.702C90.5358 191.509 89.8575 193.523 88.3724 194.982C84.5883 199.251 77.5342 199.458 73.5573 195.359C72.5434 194.398 71.958 193.032 71.8723 191.644C71.8794 190.278 72.0222 188.976 71.6581 187.66C71.1226 185.361 69.3876 183.739 67.2243 182.963L66.289 182.543C61.3268 180.181 56.536 177.178 53.066 172.809C51.3453 170.624 50.0958 167.621 50.9526 164.839L51.1811 165.195L49.7388 164.882L49.0177 164.725C45.8119 164.014 42.9489 161.786 41.6137 158.776C40.5142 156.499 40.3214 153.824 40.9926 151.404C41.8565 148.914 50.6099 128.449 51.8165 125.524L51.8094 125.517ZM52.4805 125.802C51.2168 128.797 42.4277 148.992 41.5281 151.547C41.1425 152.92 41.0425 154.4 41.2425 155.809C41.8779 160.207 45.4978 163.644 49.8602 164.305C50.1101 164.362 51.381 164.619 51.5666 164.668C50.3671 172.14 61.3625 178.139 66.8601 181.447L67.7383 181.931C71.858 183.774 72.7505 187.524 72.2436 191.63C72.4506 195.772 77.27 198.162 81.0184 197.992C85.0738 197.871 88.6437 194.982 90.0431 191.267C90.5429 189.944 91.0784 188.67 92.1494 187.631C92.1637 187.595 92.2636 187.574 92.2922 187.56C100.617 184.835 108.478 180.444 114.554 174.09C118.224 170.247 121.287 165.971 122.508 160.726C123.193 157.538 124.143 153.553 122.858 150.486C122.215 149.505 121.423 148.501 121.009 147.242C120.345 144.78 120.837 142.446 120.366 139.969C120.059 136.39 119.031 132.918 116.882 130C111.113 120.956 101.495 114.367 90.9927 112.182C81.5825 110.88 71.6867 112.267 63.2974 116.85C60.1558 118.529 57.1428 120.564 54.6011 123.076C53.7657 123.895 52.9303 124.713 52.4734 125.802H52.4805Z" fill="black"/>
<path d="M52.5091 124.798C52.5091 124.798 38.872 151.163 2.56602 168.973C1.15234 169.671 0.716809 171.478 1.68068 172.716C4.3367 176.118 10.8839 181.739 25.2635 182.017C25.2635 182.017 34.1383 181.91 42.4205 178.644C44.4696 177.833 46.2546 176.481 47.5683 174.716C49.8888 171.599 53.3159 165.579 55.1722 155.589" fill="url(#paint3_linear_1026_2796)"/>
<path d="M52.9088 125.012C46.3973 136.86 36.7728 146.758 26.3201 155.233C22.8787 157.894 18.9518 160.726 15.2891 163.032C13.1043 164.32 9.7343 166.412 7.48526 167.529L3.4941 169.628L3.00145 169.891C2.28747 170.226 1.95904 171.179 2.33031 171.862C2.82296 172.659 3.65831 173.428 4.31518 174.097C7.75657 177.27 12.2261 179.106 16.767 180.081C25.3491 181.995 34.4095 180.764 42.5846 177.761C45.2906 176.68 47.1541 174.467 48.6535 172.005C50.1957 169.521 51.488 166.86 52.5304 164.099C53.5728 161.338 54.3725 158.478 55.0365 155.581C55.0508 155.51 55.1222 155.468 55.1935 155.482C55.2649 155.496 55.3078 155.56 55.2935 155.631C54.8508 158.577 54.2011 161.509 53.2872 164.362C52.3805 167.223 51.2238 170.019 49.6959 172.638C48.1894 175.349 46.126 177.875 43.2058 179.156C34.7665 182.636 25.3063 183.981 16.3386 182.067C10.5268 180.892 4.68645 178.139 0.923763 173.414C-0.661277 171.443 0.295458 168.724 2.59448 167.835C3.93677 167.13 7.20681 165.423 8.49911 164.747C9.69146 164.049 12.9901 162.092 14.2324 161.359C24.2638 155.069 33.5313 147.562 41.4637 138.753C45.4191 134.355 49.1247 129.651 52.1163 124.585C52.2448 124.371 52.5233 124.3 52.7374 124.428C52.9445 124.549 53.023 124.813 52.9088 125.026V125.012Z" fill="black"/>
<path d="M69.5659 198.782C65.6247 198.063 54.6079 196.853 50.3169 204.695C49.9314 205.399 49.6815 206.161 49.5101 206.943C48.8318 210.11 46.033 220.606 38.3649 223.943C37.5152 224.313 37.5723 225.544 38.472 225.786C41.1637 226.512 45.7332 226.612 50.8167 221.815C51.7592 220.926 52.3089 219.695 52.3589 218.407C52.4017 217.297 52.4946 215.888 52.7016 214.785C52.8301 214.102 53.7797 213.988 54.0653 214.628C54.3866 215.347 54.7079 216.286 54.8007 217.297C54.8436 217.745 55.2505 218.058 55.6932 217.952C56.8356 217.681 58.7633 216.628 59.2274 212.622C59.3488 211.569 59.6201 210.537 60.0985 209.59C60.9481 207.911 62.6474 205.712 65.9388 204.567C66.8385 204.254 67.7738 204.061 68.7234 203.969C70.0371 203.841 73.1001 203.286 72.1933 200.895C71.7721 199.778 70.7439 198.995 69.5659 198.782Z" fill="url(#paint4_linear_1026_2796)"/>
<path d="M69.5017 199.152C63.0402 197.778 54.5081 198.291 50.8525 204.595C49.9672 205.94 49.8958 207.598 49.4388 209.121C47.7753 215.248 44.6552 221.773 38.5863 224.591C38.3793 224.719 38.4221 225.096 38.6506 225.124L38.8291 225.167C39.2003 225.245 39.5787 225.338 39.95 225.373C44.0483 225.921 48.0751 223.694 50.7954 220.741C52.2591 218.82 51.2738 216.286 52.1948 214.145C52.6446 213.426 53.6728 213.262 54.3368 213.81C54.6509 214.052 54.7937 214.479 54.9294 214.806C55.2292 215.582 55.4363 216.407 55.5077 217.24C55.5077 217.268 55.5291 217.276 55.5291 217.276C55.6648 217.247 55.8004 217.204 55.9289 217.155C59.099 215.817 58.0852 211.583 59.6988 209.071C60.7983 207.057 62.5904 205.435 64.6752 204.517C65.9604 203.933 67.3598 203.592 68.7592 203.485C69.8373 203.343 71.3867 203.151 71.8579 202.076C72.2006 200.731 70.8155 199.372 69.4946 199.152H69.5017ZM69.6374 198.404C71.4081 198.689 73.1859 200.418 72.6861 202.354C72.2149 203.642 70.8654 204.026 69.7088 204.296C68.138 204.524 66.5459 204.73 65.1179 205.456C63.2473 206.339 61.6979 207.812 60.7555 209.626C59.6488 211.554 60.0486 213.81 59.0348 215.838C58.5278 216.906 57.6568 217.944 56.4359 218.421C55.5505 218.862 54.4439 218.628 54.1583 217.603C54.0226 216.628 53.8441 215.852 53.4443 214.97C53.4086 214.885 53.4086 214.899 53.4157 214.906C53.4371 214.92 53.4157 214.906 53.4086 214.913C53.43 214.913 53.43 214.842 53.3943 215.027C52.9516 217.482 53.5014 220.435 51.3594 222.306C48.325 225.231 44.1054 227.38 39.7644 226.74C39.1646 226.647 38.5149 226.555 37.9509 226.306C37.0869 225.879 36.8228 224.705 37.3654 223.922C37.5725 223.58 37.9509 223.381 38.2936 223.217C44.9907 220.051 47.6967 212.437 49.4103 205.719C52.5375 197.871 62.3833 197.273 69.6303 198.404H69.6374Z" fill="black"/>
<path d="M64.5466 201.941C60.1342 202.759 55.0435 204.78 53.3728 209.277C53.2657 209.619 52.8873 209.804 52.5446 209.676C52.209 209.555 52.0448 209.178 52.1804 208.843C53.1372 206.424 55.1221 204.595 57.3782 203.407C59.5987 202.247 61.9834 201.55 64.4609 201.215C64.6609 201.194 64.8394 201.329 64.8679 201.528C64.8965 201.728 64.7465 201.913 64.5466 201.934V201.941Z" fill="black"/>
<path d="M86.8726 155.112C88.9788 155.404 90.9351 153.966 91.3564 151.888C91.492 151.212 91.5634 150.508 91.5634 149.796C91.5634 149.583 91.5563 149.376 91.542 149.17C91.4778 148.053 91.235 146.978 90.8423 145.975C90.2069 144.36 88.9146 143.086 87.2653 142.524C84.952 141.741 81.9889 141.634 78.9117 142.374C76.4199 142.979 74.2494 144.047 72.6144 145.363C71.2792 146.438 70.451 148.053 70.4438 149.768C70.4438 149.775 70.4438 149.782 70.4438 149.796C70.4438 151.703 70.9579 153.496 71.8504 155.034C71.8575 155.048 71.8647 155.062 71.8718 155.069C72.9356 156.898 75.2847 157.524 77.1696 156.556C79.133 155.546 81.6391 154.941 84.3808 154.941C85.2304 154.941 86.0658 154.998 86.8654 155.112H86.8726Z" fill="white"/>
<path d="M86.937 154.671C92.349 155.098 91.8135 146.729 88.9504 144.153C84.6737 140.752 76.2273 142.631 72.4003 146.082C70.5868 147.761 70.5011 150.408 71.1723 152.657C71.7577 154.969 73.3356 157.204 76.0131 156.677C77.1483 156.421 78.255 155.624 79.433 155.332C81.8463 154.578 84.4238 154.379 86.9441 154.678L86.937 154.671ZM86.8156 155.553C84.4309 155.183 81.9534 155.29 79.6187 155.93C78.3692 156.208 77.391 156.919 76.113 157.204C73.15 157.737 71.2865 155.404 70.6011 152.813C69.2302 148.387 70.9366 145.342 74.9992 143.356C79.176 141.243 85.8303 140.112 89.7072 143.335C93.3343 146.637 93.32 156.193 86.8156 155.553Z" fill="black"/>
<path d="M96.2049 186.927C93.1133 188.343 89.472 188.371 86.3733 186.998C86.3091 186.969 86.2734 186.891 86.3019 186.827C86.3305 186.756 86.409 186.727 86.4733 186.756C89.472 187.93 92.9991 187.759 95.855 186.286C96.2834 186.03 96.6618 186.699 96.2049 186.927Z" fill="black"/>
<path d="M82.6604 152.671C83.9301 152.671 84.9594 150.881 84.9594 148.672C84.9594 146.463 83.9301 144.673 82.6604 144.673C81.3906 144.673 80.3613 146.463 80.3613 148.672C80.3613 150.881 81.3906 152.671 82.6604 152.671Z" fill="#429195"/>
<path d="M115.418 155.51C116.253 155.987 117.31 155.61 117.61 154.699V154.678C118.088 153.219 118.359 151.561 118.359 149.796C118.359 148.7 118.252 147.64 118.06 146.644C117.538 143.94 115.047 142.061 112.298 142.296C111.412 142.367 110.506 142.517 109.592 142.737C107.564 143.228 105.986 144.844 105.622 146.893C105.458 147.811 105.372 148.786 105.372 149.796C105.372 151.575 105.651 153.247 106.129 154.713C106.429 155.631 107.5 156.03 108.342 155.546C109.392 154.941 110.613 154.592 111.912 154.592C113.212 154.592 114.39 154.927 115.425 155.517L115.418 155.51Z" fill="white"/>
<path d="M115.539 155.297C116.275 155.695 117.21 155.29 117.353 154.436C118.088 151.817 118.052 148.843 117.396 146.26C116.767 144.21 114.69 142.709 112.533 142.816C110.377 142.944 107.864 143.314 106.636 145.32C105.165 148.039 105.508 151.846 106.357 154.742C106.579 155.325 107.271 155.674 107.878 155.51C108.506 155.275 109.156 154.841 109.834 154.685C111.705 154.144 113.804 154.322 115.525 155.29L115.539 155.297ZM115.289 155.731C113.711 154.799 111.727 154.514 109.949 155.055C109.228 155.226 108.678 155.638 107.978 155.887C106.379 156.243 105.8 154.806 105.551 153.525C104.808 149.924 104.315 144.844 108.142 142.794C110.834 141.549 114.483 141.108 116.81 143.307C119.131 145.449 118.973 148.935 118.645 151.803C118.502 152.764 118.274 153.71 117.96 154.628C117.731 155.738 116.26 156.378 115.289 155.731Z" fill="black"/>
<path d="M110.627 152.671C111.897 152.671 112.926 150.881 112.926 148.672C112.926 146.463 111.897 144.673 110.627 144.673C109.357 144.673 108.328 146.463 108.328 148.672C108.328 150.881 109.357 152.671 110.627 152.671Z" fill="#429195"/>
<path d="M106.957 170.489C106.957 170.489 103.423 179.455 86.9797 169.984C86.9797 169.984 93.477 171.841 96.3829 170.525C96.3829 170.525 101.795 168.838 101.895 168.269C101.895 168.269 104.487 172.282 106.95 170.496L106.957 170.489Z" fill="white"/>
<path d="M160.892 192.399C159.913 191.481 158.578 190.349 157.314 189.666L157.272 190.527C157.25 190.904 157.322 191.281 157.472 191.63C158.178 193.274 156.665 195.017 156.665 195.017C143.099 209.875 136.166 212.643 132.389 214.636C131.397 215.155 130.355 215.39 128.841 215.682C117.76 217.802 104.444 215.81 102.259 213.127C101.645 212.366 99.4105 210.622 98.618 210.053C95.2409 207.612 91.5139 207.733 91.5139 207.733C90.8856 207.214 89.5005 206.075 89.5005 206.075L70.4514 205.969C68.388 207.776 65.6106 223.31 64.5254 229.821C64.2469 231.5 63.7828 233.137 63.126 234.702C58.1495 246.55 48.0538 284.513 48.0538 284.513C47.9824 284.84 47.911 285.16 47.8396 285.488C61.341 300.495 92.9918 289.587 101.424 286.306C101.081 285.296 100.881 284.25 100.824 283.189C98.8965 247.269 96.3476 229.038 96.3476 229.038C105.215 222.918 116.403 225.153 130.205 223.843C131.675 223.701 133.346 223.203 134.717 222.541C151.838 214.194 165.925 196.604 165.925 196.604C166.489 195.843 166.975 195.067 167.41 194.284C166.703 194.27 165.875 194.242 165.083 194.199C163.519 194.114 162.034 193.48 160.892 192.413V192.399Z" fill="url(#paint5_linear_1026_2796)"/>
<path d="M160.649 192.662C159.563 191.652 158.414 190.684 157.143 189.986L157.664 189.695C157.657 190.1 157.593 190.563 157.628 190.89C157.664 191.31 157.885 191.63 157.957 192.071C158.278 194.014 156.85 195.38 155.643 196.64C152.795 199.721 149.803 202.667 146.647 205.442C142.87 208.772 138.751 211.782 134.224 214.045C132.76 214.835 131.154 215.625 129.483 215.867C122.865 217.155 116.017 217.176 109.37 216.066C106.907 215.539 104.23 215.148 102.23 213.462C99.396 210.516 95.6476 207.954 91.4065 208.068L91.3137 207.997L89.286 206.36L89.5073 206.438L70.4583 206.36L70.7082 206.267C70.2012 206.787 69.8514 207.669 69.5729 208.374C68.6733 210.786 68.0522 213.298 67.4738 215.803C66.2886 220.855 65.4818 225.95 64.5751 231.059C64.2252 232.76 63.5898 234.418 62.9615 236.019C60.5339 242.466 58.7133 249.14 56.8355 255.765C54.2009 265.379 51.3236 276.145 48.3605 285.609C48.3605 285.616 48.2391 285.146 48.2391 285.153C59.056 294.653 74.7136 292.789 87.7866 289.893C92.3418 288.825 96.8613 287.53 101.295 285.993C101.302 285.993 101.102 286.178 101.102 286.178L101.088 286.434C100.346 284.463 100.403 281.325 100.253 279.219L99.8315 272.039C98.8819 257.701 97.9252 243.334 95.9974 229.088L95.9689 228.882L96.1473 228.746C101.881 224.47 109.385 223.936 116.267 223.715C121.379 223.516 126.613 223.63 131.654 222.833C133.296 222.477 134.767 221.709 136.259 220.933C145.355 216.137 153.494 209.47 160.641 202.076C162.955 199.564 165.468 197.131 167.103 194.114C167.103 194.099 167.41 194.64 167.41 194.64L165.654 194.576C163.84 194.605 161.977 193.936 160.656 192.669L160.649 192.662ZM161.134 192.143C162.355 193.31 163.99 193.872 165.682 193.857L167.417 193.921L168.01 193.943L167.724 194.448C166.003 197.501 163.404 199.906 161.091 202.496C153.916 210.039 146.155 217.14 136.944 222.207C135.388 223.047 133.753 223.9 132.004 224.292C130.226 224.712 128.498 224.733 126.713 224.861C123.229 225.053 119.759 225.075 116.303 225.139C109.52 225.252 102.395 225.509 96.5543 229.316C96.5543 229.316 96.7043 228.96 96.7043 228.981C98.3893 243.284 99.5959 257.615 100.51 271.982L100.945 279.162C101.11 281.233 101.038 284.541 101.866 286.498C97.4111 288.42 92.8273 290.035 88.1436 291.309C75.7275 294.639 56.3 297.492 47.4466 285.829L47.2896 285.609L47.3253 285.374C50.1383 271.783 54.4651 258.675 58.8132 245.525C60.1841 241.441 61.6834 237.364 63.3256 233.379C64.2181 230.952 64.4537 228.376 64.9535 225.843C65.9031 220.748 66.8455 215.646 68.1664 210.622C68.709 208.922 68.9946 207.1 70.2012 205.691L70.2941 205.599H70.444L89.493 205.727H89.6216L89.7144 205.805L91.7064 207.491L91.4922 207.42C95.005 207.456 98.1536 209.1 100.71 211.384C102.016 212.408 102.944 213.81 104.629 214.315C109.335 215.988 114.447 216.301 119.416 216.301C122.75 216.258 126.092 215.952 129.355 215.283C132.618 214.643 135.438 212.665 138.272 211.014C143.877 207.392 148.775 202.766 153.394 197.97C154.266 197.095 155.115 196.127 155.965 195.231C156.75 194.469 157.457 193.26 157.25 192.178C157.179 191.794 156.936 191.367 156.914 190.947C156.9 190.235 156.95 189.723 156.957 189.061C158.514 189.865 159.885 190.961 161.127 192.128L161.134 192.143Z" fill="black"/>
<path d="M168.488 183.525L163.84 181.96C163.112 181.711 162.305 181.817 161.662 182.237L158.628 184.216C157.957 184.657 157.536 185.39 157.493 186.187L157.314 189.673C158.578 190.356 159.913 191.488 160.891 192.406C162.034 193.473 163.512 194.106 165.082 194.192C165.882 194.235 166.71 194.263 167.41 194.277C169.066 191.289 169.816 188.279 170.159 186.336C170.373 185.119 169.666 183.924 168.488 183.525Z" fill="#643C3B"/>
<path d="M168.388 183.817L164.447 182.458C163.811 182.237 163.226 181.995 162.569 182.152C162.012 182.23 161.334 182.828 160.856 183.113L159.128 184.265C158.235 184.763 157.793 185.539 157.828 186.564L157.793 187.603L157.735 189.68C157.735 189.723 157.514 189.289 157.514 189.296C159.256 190.193 160.541 191.659 162.084 192.79C163.247 193.559 164.59 193.808 165.975 193.793L167.403 193.843C167.481 193.829 167.017 194.064 167.039 194.064C168.245 191.929 169.102 189.581 169.63 187.183C170.059 185.809 169.873 184.358 168.388 183.817ZM168.588 183.234C170.394 183.831 170.83 185.696 170.323 187.332C169.823 189.816 168.988 192.235 167.781 194.477L167.66 194.704H167.403L167.388 194.697L165.946 194.647C164.461 194.662 162.89 194.348 161.634 193.509C160.084 192.406 158.814 190.912 157.121 190.043L156.879 189.915C156.879 189.873 157.043 187.709 157.043 187.574C157.121 186.528 157.043 185.233 157.885 184.415C158.428 183.838 159.892 183.077 160.534 182.622C161.42 182.024 162.483 181.319 163.612 181.618C164.333 181.817 167.817 182.999 168.595 183.241L168.588 183.234Z" fill="black"/>
<path d="M70.4585 206.595C70.4585 206.595 68.1595 209.512 66.6887 210.558C66.6887 210.558 58.942 215.041 57.3712 220.99C57.3712 220.99 56.593 227.501 36.7657 244.65C35.5234 245.725 35.2306 247.532 36.0731 248.941C38.7791 253.417 44.2839 263.6 45.9404 274.686C46.026 275.255 45.7761 275.817 45.2978 276.145C44.8908 276.422 44.3053 276.764 43.5342 277.084C45.0407 277.632 46.4758 278.351 46.4758 279.091C46.4758 279.091 47.2898 283.004 46.6829 286.641C47.4326 285.957 48.1823 285.161 48.9105 284.228C49.4103 283.588 49.7602 282.841 49.9458 282.051C50.8169 278.358 52.766 266.595 46.7757 251.972C46.333 250.891 46.4687 249.667 47.147 248.72C49.6816 245.205 56.5144 236.638 66.4673 231.109" fill="url(#paint6_linear_1026_2796)"/>
<path d="M70.9222 206.958C69.6656 208.359 68.459 209.776 66.9382 210.914C64.9176 212.095 63.0042 213.568 61.3691 215.248C59.7627 216.898 58.3776 218.862 57.7921 221.097C57.6921 221.68 57.328 222.541 57.0281 223.168C54.7577 227.636 51.4733 231.514 48.0819 235.165C31.7889 252.285 34.9946 240.402 43.184 261.621C44.7762 265.784 45.9543 270.125 46.5826 274.544C46.911 276.252 45.0975 277.113 43.7838 277.625H43.7695L43.7409 276.515C44.8262 276.949 46.0399 277.347 46.811 278.315C46.9396 278.507 47.0681 278.763 47.0681 279.084L47.0538 278.963C47.1823 279.617 47.268 280.243 47.3394 280.891C47.5464 282.834 47.575 284.783 47.2609 286.733L46.2684 286.199C47.4465 284.947 48.8173 283.638 49.1743 281.894C49.8526 278.422 50.0739 274.864 49.9454 271.327C49.6741 264.916 48.2176 258.569 45.84 252.613C45.0903 251.005 45.3759 249.055 46.5469 247.717L47.1823 246.877C48.8959 244.657 50.7665 242.572 52.7585 240.601C56.7354 236.673 61.2692 233.258 66.2956 230.824C66.4598 230.746 66.6597 230.81 66.7383 230.981C66.8097 231.137 66.7597 231.315 66.6169 231.408C59.6841 235.834 53.8081 241.662 48.8745 248.165C48.6817 248.45 48.1676 249.112 47.9891 249.382C47.5893 249.966 47.4893 250.727 47.7107 251.396C51.609 260.924 53.1655 271.64 50.8093 281.745C50.3096 284.541 47.882 286.384 45.8472 288.135C46.4112 285.168 46.4612 282.044 45.8614 279.077C45.1546 278.116 43.1555 277.646 41.9488 277.141L43.2982 276.543C43.7623 276.337 44.2121 276.109 44.6334 275.832C45.0689 275.59 45.3759 275.255 45.2688 274.743C43.7552 265.962 40.1639 257.651 35.6801 249.987C34.3735 248.286 34.3735 245.597 36.0728 244.116L37.6721 242.693C39.7855 240.836 41.8631 238.936 43.8766 236.979C47.8749 233.101 51.9589 229.131 55.1075 224.527C55.8358 223.424 56.6283 222.121 56.9282 220.883C57.6493 218.478 59.1415 216.472 60.8051 214.728C62.5115 212.999 64.3893 211.498 66.4456 210.188C66.9239 209.861 67.7664 208.957 68.2876 208.352C68.8731 207.669 69.4443 206.958 69.9726 206.232C70.1654 205.961 70.5367 205.905 70.808 206.097C71.0936 206.303 71.1364 206.709 70.9079 206.972L70.9222 206.958Z" fill="black"/>
<path d="M97.9183 159.801C99.6604 159.225 102.616 158.421 104.444 158.905C105.458 159.175 106.079 160.2 105.851 161.217C105.644 162.156 105.087 163.594 103.602 164.284C102.88 164.619 102.067 164.675 101.288 164.547C100.132 164.355 98.3609 163.729 97.19 161.801C96.7331 161.054 97.09 160.079 97.9183 159.801Z" fill="black"/>
<path d="M85.2594 168.212C89.3433 172.474 95.812 170.318 100.46 168.198C100.96 167.963 101.067 167.942 101.21 167.714C101.381 167.508 101.338 166.931 101.374 166.689C101.445 165.757 101.531 164.818 101.688 163.886C101.724 163.686 101.909 163.551 102.116 163.58C102.274 163.608 102.395 163.729 102.424 163.886C102.581 164.818 102.666 165.757 102.738 166.689C102.866 167.636 102.723 168.618 101.895 169.222C99.9531 170.368 97.8826 171.058 95.6692 171.45C91.878 172.154 87.6084 171.471 84.7524 168.731C84.3955 168.39 84.9238 167.856 85.2665 168.219L85.2594 168.212Z" fill="black"/>
<path d="M102.309 168.013C103.808 168.746 106.629 172.097 107.578 169.173C107.628 168.959 107.842 168.824 108.049 168.895C108.571 169.13 108.164 169.955 108.028 170.347C107.628 171.329 106.322 171.72 105.365 171.343C104.672 171.158 104.073 170.745 103.494 170.361C102.837 169.849 102.238 169.244 101.795 168.532C101.681 168.361 101.731 168.134 101.902 168.02C102.031 167.935 102.188 167.942 102.309 168.02V168.013Z" fill="black"/>
<path d="M64.3821 118.323C61.2763 116.366 55.0646 110.702 54.3792 96.513C54.3078 95.0329 53.0726 93.873 51.5875 93.873C50.1096 93.873 48.8815 95.0187 48.7958 96.4916C48.6959 98.1212 48.6316 100.213 48.7601 101.885C48.8601 103.138 47.8106 104.191 46.5468 104.113C41.9559 103.835 32.8312 102.049 31.4818 92.2862C31.3104 91.0338 30.2466 90.1016 28.9757 90.1016C27.5335 90.1016 26.3768 91.2971 26.4482 92.7274C26.6838 97.7867 29.3113 108.581 47.0537 110.773C48.7673 110.987 50.2381 112.054 50.9735 113.612C52.123 116.06 54.4863 119.952 59.0558 123.916C60.2838 124.983 61.9545 125.467 63.5324 125.069C64.5749 124.805 65.5959 124.186 66.0599 122.842C66.6454 121.148 65.9029 119.284 64.3821 118.323Z" fill="url(#paint7_linear_1026_2796)"/>
<path d="M64.0967 118.771C56.8569 113.897 54.5579 104.767 54.1509 96.5486C53.9582 93.4247 49.4815 93.2468 49.046 96.3351C48.8318 98.4129 49.046 100.491 48.9674 102.576C48.2963 105.223 45.1547 104.276 43.1984 103.992C36.8583 102.889 31.9175 98.9253 30.9893 92.3502C30.5824 89.8526 26.8625 90.2013 27.0339 92.763C27.4194 99.5515 31.689 105.059 37.9507 107.621C40.421 108.667 43.0556 109.393 45.7474 109.777C46.4399 109.898 47.0325 109.962 47.8679 110.14C49.4172 110.531 50.7881 111.599 51.5306 113.015C53.2299 116.708 55.7859 119.967 58.7633 122.749L59.5129 123.432C61.0123 124.805 63.7754 125.104 65.1106 123.404C66.2101 121.938 65.6389 119.732 64.0967 118.771ZM64.6679 117.875C66.7384 119.084 67.5381 122.094 66.0744 124.094C64.3466 126.449 60.6839 126.236 58.649 124.435L57.8494 123.738C54.7007 120.927 52.0018 117.562 50.174 113.733C49.2601 111.926 47.4181 111.506 45.5046 111.293C42.7129 110.908 39.957 110.126 37.3509 108.973C30.6752 106.134 26.1057 100.149 25.8701 92.8199C25.7344 88.9062 31.3535 88.3298 31.9746 92.2079C32.4887 96.6695 35.2661 100.42 39.4286 102.156C41.285 102.996 43.3198 103.465 45.3475 103.7C45.9758 103.75 46.6827 103.921 47.2753 103.714C48.2106 103.394 48.6176 102.448 48.4605 101.487C48.382 99.7365 48.4391 98.0215 48.5747 96.2639C48.6675 95.5168 49.0602 94.8194 49.6386 94.3427C51.4735 92.7487 54.565 94.0723 54.615 96.513C55.0577 104.461 57.6137 113.356 64.675 117.86L64.6679 117.875Z" fill="black"/>
<path d="M69.766 202.56C69.766 202.56 73.4501 198.419 71.3225 195.501C70.8869 194.903 70.5228 194.242 70.3586 193.523C70.3586 193.502 70.3514 193.48 70.3443 193.459C69.9588 191.673 71.4867 190.05 73.3002 190.271C74.1355 190.371 75.2636 190.684 76.6488 191.445C78.7193 192.591 81.1397 192.975 83.4173 192.356C84.2955 192.114 85.2594 191.744 86.3018 191.175C87.0158 190.783 87.794 190.513 88.6008 190.378C90.0645 190.143 91.828 190.364 91.3068 193.018C91.3068 193.018 91.2497 195.451 89.6075 197.985C88.4723 199.735 88.2296 201.934 89.122 203.82C89.3362 204.275 89.6075 204.773 89.9288 205.293C89.9288 205.293 91.8209 208.21 84.2455 210.53C84.2455 210.53 80.3044 212.003 75.9562 211.12C73.6715 210.658 71.5866 209.448 70.1944 207.591C69.152 206.196 68.438 204.353 69.7731 202.546L69.766 202.56Z" fill="url(#paint8_linear_1026_2796)"/>
<path d="M69.3018 202.183C70.5869 200.617 71.8792 198.604 71.308 196.569C71.101 195.885 70.5369 195.33 70.2585 194.647C69.4231 193.11 69.8944 190.983 71.5365 190.207C73.0573 189.453 74.7851 190.179 76.1917 190.833C78.7192 192.406 81.8107 192.861 84.581 191.673C85.9661 191.118 87.287 190.171 88.8434 190.05C90.9497 189.723 92.0849 191.054 91.6137 193.096C91.528 194.669 90.864 196.725 89.9073 198.212C88.7792 199.984 88.6435 202.311 89.7716 204.09C89.8502 204.239 90.1643 204.773 90.2429 204.93C92.5347 209.455 82.6604 211.989 79.5188 212.038C75.8276 212.295 71.7507 211.042 69.5517 207.861C68.3379 206.296 67.9095 203.841 69.2946 202.197L69.3018 202.183ZM70.2371 202.937C69.2661 204.225 69.673 205.862 70.6298 207.086C74.5138 212.529 84.3168 211.341 88.972 207.541C89.5788 206.908 89.8716 206.09 89.4503 205.421C89.3504 205.243 89.0719 204.702 88.9648 204.51C87.7439 202.46 87.9724 199.721 89.279 197.8C90.2214 196.369 90.8569 194.676 90.9783 192.989C91.3567 191.338 90.6641 190.421 88.922 190.655C87.4083 190.769 86.2017 191.666 84.7952 192.207C83.3815 192.79 81.7893 193.082 80.24 192.911C78.6978 192.776 77.177 192.157 75.8918 191.445C74.6852 190.926 73.1287 190.278 71.9078 190.919C70.6869 191.587 70.4227 193.053 71.101 194.256C71.4294 194.953 72.0078 195.487 72.2505 196.248C73.0573 198.646 71.6436 201.144 70.2299 202.944L70.2371 202.937Z" fill="black"/>
<path d="M89.7929 198.305C88.0365 199.714 85.8089 200.048 83.7098 200.646C81.6678 201.094 79.8043 202.048 78.0836 203.229C77.8837 203.378 77.6338 203.08 77.8123 202.909C80.147 200.425 83.31 199.614 86.4301 198.597C87.4297 198.241 88.4721 197.913 89.4574 197.672C89.8215 197.572 90.0785 198.07 89.7858 198.305H89.7929Z" fill="black"/>
<path d="M72.6219 203.763C73.8286 205.691 76.4203 206.168 78.6265 205.876C81.0255 205.627 83.5316 205.342 85.6878 204.204C85.8806 204.083 86.0876 204.382 85.8949 204.517C82.8533 206.666 73.1717 209.078 71.9151 203.933C71.8508 203.478 72.4649 203.35 72.6219 203.763Z" fill="black"/>
<path d="M69.4803 202.247C71.1081 199.109 75.6491 195.579 79.3261 195.779C79.4189 195.779 79.4903 195.864 79.4831 195.957C79.4831 196.042 79.4117 196.113 79.3261 196.113C76.3845 196.433 74.0283 198.461 72.0934 200.546C71.4437 201.272 70.8368 202.041 70.0657 202.667C69.7801 202.916 69.3303 202.581 69.4803 202.24V202.247Z" fill="black"/>
<path d="M83.8454 147.42C84.0977 147.42 84.3023 147.216 84.3023 146.964C84.3023 146.713 84.0977 146.509 83.8454 146.509C83.593 146.509 83.3884 146.713 83.3884 146.964C83.3884 147.216 83.593 147.42 83.8454 147.42Z" fill="white"/>
<path d="M111.991 147.42C112.243 147.42 112.448 147.216 112.448 146.964C112.448 146.713 112.243 146.509 111.991 146.509C111.738 146.509 111.534 146.713 111.534 146.964C111.534 147.216 111.738 147.42 111.991 147.42Z" fill="white"/>
<path d="M104.758 160.591C105.011 160.591 105.215 160.387 105.215 160.136C105.215 159.884 105.011 159.68 104.758 159.68C104.506 159.68 104.302 159.884 104.302 160.136C104.302 160.387 104.506 160.591 104.758 160.591Z" fill="white"/>
<path d="M89.2507 132.668C82.1537 131.779 77.6556 132.918 72.1294 137.564L70.1445 139.421C70.0446 139.528 69.8732 139.528 69.7804 139.421C69.6947 139.329 69.6876 139.194 69.7661 139.094C70.5943 138.055 71.5511 136.895 72.5435 135.977C75.5851 132.996 79.6476 130.961 83.9601 130.74C85.8736 130.619 87.887 130.826 89.5434 132C89.8647 132.22 89.6363 132.747 89.2507 132.668Z" fill="black"/>
<path d="M106.486 132.832C110.084 130.021 115.146 131.886 116.574 136.077C116.667 136.276 116.367 136.433 116.253 136.241C114.775 133.971 112.283 132.341 109.499 132.896C108.621 133.017 107.707 133.238 106.821 133.473C106.45 133.586 106.193 133.067 106.493 132.832H106.486Z" fill="black"/>
<path d="M88.7076 170.482C93.8983 173.399 102.288 176.844 106.579 170.888L106.636 170.809C106.6 170.852 106.686 170.93 106.736 170.916C104.744 171.357 102.944 169.856 101.531 168.682L101.981 168.717C100.952 169.351 99.8957 169.813 98.7962 170.212C95.5761 171.364 92.0348 171.677 88.6791 170.959L88.572 170.937C88.829 170.987 88.9647 170.617 88.7148 170.489L88.7076 170.482ZM88.472 170.966C88.2435 170.88 88.2435 170.468 88.5149 170.404C88.6648 170.368 88.6791 170.404 88.779 170.418L88.9861 170.454C92.1776 171.051 95.519 170.695 98.5534 169.564C99.703 169.137 100.817 168.603 101.816 167.949L102.023 168.141C103.259 169.265 104.737 170.681 106.514 170.454C106.621 170.432 106.721 170.397 106.843 170.439C107.157 170.553 107.171 170.93 106.971 171.137C102.487 177.157 93.884 173.862 88.472 170.959V170.966Z" fill="black"/>
</g>
</g>
<defs>
<linearGradient id="paint0_linear_1026_2796" x1="115.425" y1="124.556" x2="115.425" y2="89.0414" gradientUnits="userSpaceOnUse">
<stop offset="0.56" stop-color="#F9E9B3"/>
<stop offset="0.61" stop-color="#F3D9A5"/>
<stop offset="0.79" stop-color="#E1A276"/>
<stop offset="0.93" stop-color="#D58059"/>
<stop offset="1" stop-color="#D1744E"/>
</linearGradient>
<linearGradient id="paint1_linear_1026_2796" x1="131.054" y1="184.336" x2="131.054" y2="143.798" gradientUnits="userSpaceOnUse">
<stop stop-color="#643C3B"/>
<stop offset="0.03" stop-color="#72453D"/>
<stop offset="0.12" stop-color="#996044"/>
<stop offset="0.22" stop-color="#B87449"/>
<stop offset="0.3" stop-color="#CF834D"/>
<stop offset="0.39" stop-color="#DC8C50"/>
<stop offset="0.47" stop-color="#E19051"/>
</linearGradient>
<linearGradient id="paint2_linear_1026_2796" x1="82.4318" y1="192.185" x2="82.4318" y2="109.3" gradientUnits="userSpaceOnUse">
<stop stop-color="#643C3B"/>
<stop offset="0.02" stop-color="#7C4C3F"/>
<stop offset="0.05" stop-color="#9B6144"/>
<stop offset="0.08" stop-color="#B47249"/>
<stop offset="0.11" stop-color="#C87F4C"/>
<stop offset="0.15" stop-color="#D6884F"/>
<stop offset="0.2" stop-color="#DE8E50"/>
<stop offset="0.28" stop-color="#E19051"/>
</linearGradient>
<linearGradient id="paint3_linear_1026_2796" x1="28.1623" y1="188.834" x2="28.1623" y2="135.01" gradientUnits="userSpaceOnUse">
<stop stop-color="#643C3B"/>
<stop offset="0.06" stop-color="#835140"/>
<stop offset="0.15" stop-color="#A56746"/>
<stop offset="0.23" stop-color="#BF794B"/>
<stop offset="0.32" stop-color="#D2864E"/>
<stop offset="0.41" stop-color="#DD8D50"/>
<stop offset="0.51" stop-color="#E19051"/>
</linearGradient>
<linearGradient id="paint4_linear_1026_2796" x1="55.0578" y1="224.342" x2="55.0578" y2="189.858" gradientUnits="userSpaceOnUse">
<stop stop-color="#487E50"/>
<stop offset="0.07" stop-color="#518A58"/>
<stop offset="0.21" stop-color="#61A167"/>
<stop offset="0.34" stop-color="#6AAE6F"/>
<stop offset="0.47" stop-color="#6EB373"/>
</linearGradient>
<linearGradient id="paint5_linear_1026_2796" x1="107.628" y1="296.403" x2="107.628" y2="185.582" gradientUnits="userSpaceOnUse">
<stop stop-color="#643C3B"/>
<stop offset="0.03" stop-color="#72453D"/>
<stop offset="0.12" stop-color="#996044"/>
<stop offset="0.22" stop-color="#B87449"/>
<stop offset="0.3" stop-color="#CF834D"/>
<stop offset="0.39" stop-color="#DC8C50"/>
<stop offset="0.47" stop-color="#E19051"/>
</linearGradient>
<linearGradient id="paint6_linear_1026_2796" x1="53.0302" y1="281.973" x2="53.0302" y2="247.233" gradientUnits="userSpaceOnUse">
<stop stop-color="#643C3B"/>
<stop offset="0.03" stop-color="#72453D"/>
<stop offset="0.12" stop-color="#996044"/>
<stop offset="0.22" stop-color="#B87449"/>
<stop offset="0.3" stop-color="#CF834D"/>
<stop offset="0.39" stop-color="#DC8C50"/>
<stop offset="0.47" stop-color="#E19051"/>
</linearGradient>
<linearGradient id="paint7_linear_1026_2796" x1="46.3469" y1="128.755" x2="46.3469" y2="89.0698" gradientUnits="userSpaceOnUse">
<stop offset="0.56" stop-color="#F9E9B3"/>
<stop offset="0.61" stop-color="#F3D9A5"/>
<stop offset="0.79" stop-color="#E1A276"/>
<stop offset="0.93" stop-color="#D58059"/>
<stop offset="1" stop-color="#D1744E"/>
</linearGradient>
<linearGradient id="paint8_linear_1026_2796" x1="80.2187" y1="212.344" x2="80.2187" y2="190.065" gradientUnits="userSpaceOnUse">
<stop stop-color="#487E50"/>
<stop offset="0.07" stop-color="#518A58"/>
<stop offset="0.21" stop-color="#61A167"/>
<stop offset="0.34" stop-color="#6AAE6F"/>
<stop offset="0.47" stop-color="#6EB373"/>
</linearGradient>
</defs>
</svg>
