<svg width="300" height="300" viewBox="0 0 300 300" fill="none" xmlns="http://www.w3.org/2000/svg">
<circle cx="150" cy="150" r="150" fill="#C4DDD1" fill-opacity="0.15"/>
<mask id="mask0_1026_2800" style="mask-type:alpha" maskUnits="userSpaceOnUse" x="0" y="0" width="300" height="300">
<rect width="300" height="300" fill="#D9D9D9"/>
</mask>
<g mask="url(#mask0_1026_2800)">
<path d="M150.757 192.908C146.718 192.166 135.44 190.915 131.047 199.003C130.655 199.726 130.393 200.516 130.222 201.322C129.524 204.588 126.664 215.407 118.81 218.846C117.94 219.229 118 220.495 118.918 220.746C121.673 221.499 126.354 221.596 131.562 216.651C132.529 215.733 133.089 214.467 133.137 213.133C133.178 211.987 133.275 210.537 133.488 209.399C133.622 208.69 134.597 208.578 134.888 209.234C135.22 209.979 135.545 210.942 135.642 211.987C135.683 212.444 136.105 212.77 136.553 212.661C137.725 212.384 139.696 211.294 140.17 207.17C140.293 206.083 140.573 205.019 141.066 204.045C141.939 202.314 143.675 200.048 147.046 198.864C147.968 198.542 148.928 198.343 149.898 198.25C151.242 198.119 154.382 197.542 153.452 195.081C153.019 193.93 151.966 193.121 150.761 192.9L150.757 192.908Z" fill="url(#paint0_linear_1026_2800)"/>
<path d="M150.686 193.294C144.516 192.005 136.743 192.26 132.477 197.553C131.823 198.388 131.256 199.325 130.927 200.34C130.606 201.367 130.45 202.517 130.147 203.569C128.968 207.941 127.176 212.242 124.141 215.685C122.745 217.251 121.046 218.603 119.127 219.468C118.877 219.547 118.791 219.91 119.034 220.042C122.573 221.087 126.362 219.835 129.221 217.64C129.834 217.176 130.491 216.614 131.062 216.086C131.947 215.239 132.398 214.078 132.398 212.845C132.451 211.71 132.529 210.579 132.734 209.417C132.745 209.327 132.809 208.99 132.962 208.758C133.567 207.739 135.198 207.9 135.594 209.02C135.997 209.945 136.269 210.938 136.359 211.946C136.363 211.976 136.378 211.983 136.389 211.983L136.471 211.961C138.285 211.515 139.151 209.444 139.431 207.709C139.838 202.165 144.519 198.107 149.932 197.763C151.052 197.605 152.586 197.441 153.105 196.313C153.456 194.923 152.038 193.526 150.69 193.297L150.686 193.294ZM150.828 192.526C152.937 192.769 155.207 195.624 153.389 197.478C152.243 198.516 150.671 198.647 149.23 198.849C148.17 199.018 147.159 199.344 146.199 199.801C144.284 200.711 142.694 202.232 141.731 204.101C140.906 205.529 140.887 207.203 140.559 208.792C140.122 210.796 138.845 212.86 136.717 213.358C135.974 213.557 135.157 213.047 134.978 212.317C134.881 211.845 134.914 211.807 134.836 211.436C134.713 210.796 134.474 210.125 134.212 209.537C134.212 209.537 134.212 209.537 134.216 209.545C134.239 209.556 134.216 209.545 134.209 209.552C134.227 209.548 134.231 209.481 134.198 209.672C133.619 213.025 134.541 215.254 131.469 217.756C129.307 219.697 126.672 221.21 123.775 221.686C122.174 221.96 120.505 221.885 118.93 221.476C118.269 221.364 117.668 220.843 117.537 220.165C117.351 219.363 117.81 218.494 118.571 218.191C122.375 216.531 125.026 213.107 126.862 209.451C128.411 206.495 129.27 203.277 130.129 200.059C133.373 191.881 143.355 191.391 150.832 192.522L150.828 192.526Z" fill="black"/>
<path d="M145.617 196.163C141.108 197.006 135.863 199.074 134.172 203.727C133.884 204.543 132.675 204.135 132.947 203.307C133.881 200.805 135.971 198.89 138.271 197.68C140.544 196.485 142.985 195.762 145.524 195.418C146.009 195.365 146.106 196.092 145.613 196.163H145.617Z" fill="black"/>
<path d="M131.386 211.238C130.479 214.475 127.959 217.131 124.895 218.404C124.469 218.588 124.025 218.719 123.595 218.876C123.401 218.948 123.189 218.846 123.118 218.655C123.043 218.453 123.159 218.24 123.353 218.168C124.148 217.824 124.939 217.468 125.641 216.97C127.724 215.587 129.311 213.384 129.83 210.934C130.012 209.844 131.621 210.151 131.386 211.238Z" fill="black"/>
<path d="M158.955 180.849C158.955 180.849 164.356 184.048 161.657 186.895C161.657 186.895 157.708 190.3 160.896 194.054C160.896 194.054 164.763 198.321 159.97 201.659C158.929 202.386 157.726 202.846 156.476 203.071C154.695 203.39 151.63 203.88 150.022 203.787C150.022 203.787 142.264 203.3 140.256 201.494C140.256 201.494 135.407 197.74 139.562 193.29C139.562 193.29 141.917 190.997 139.633 188.285C139.633 188.285 135.131 182.722 142.126 181.126L158.958 180.849H158.955Z" fill="url(#paint1_linear_1026_2800)"/>
<path d="M159.052 180.485C159.13 180.508 159.19 180.557 159.246 180.609C160.213 181.437 161.232 182.212 161.986 183.261C162.882 184.419 162.964 186.052 161.859 187.131C160.821 188.143 160.011 189.562 160.056 190.978C160.071 191.956 160.515 192.885 161.15 193.62C164.386 197.298 162.919 201.288 158.648 203.15C156.379 204.034 153.978 204.221 151.582 204.498C149.178 204.66 146.807 204.225 144.448 203.783C142.813 203.375 141.245 203.082 139.845 201.944C138.322 200.651 136.945 198.216 137.542 195.991C137.807 194.882 138.434 193.945 139.162 193.155C139.838 192.477 140.297 191.593 140.275 190.664C140.252 189.641 139.688 188.926 139.061 188.113C138.464 187.232 137.964 186.251 137.815 185.119C137.441 182.516 139.894 181.077 142.111 180.684C147.106 180.635 154.131 180.489 159.048 180.482L159.052 180.485ZM158.861 181.208C154.008 181.332 147.046 181.478 142.13 181.564C138.837 182.347 137.516 184.351 139.655 187.716C141.271 189.626 141.499 191.773 139.726 193.683C139.091 194.41 138.587 195.275 138.412 196.186C138.035 198.07 139.233 199.924 140.659 201.044C141.734 201.835 143.377 202.127 144.732 202.389C147.703 202.903 150.746 203.3 153.747 202.772C155.203 202.539 156.767 202.434 158.133 201.887C161.739 200.445 163.035 197.452 160.437 194.215C159.111 192.623 158.91 190.375 159.94 188.581C160.336 187.854 160.836 187.225 161.456 186.663L161.433 186.685C161.631 186.472 161.814 186.243 161.937 185.989C162.859 183.966 160.164 181.782 158.861 181.212V181.208Z" fill="black"/>
<path d="M156.435 184.775C152.755 187.498 147.282 187.547 143.728 184.58C143.508 184.411 143.739 184.063 143.978 184.205C147.79 186.374 152.288 186.24 156.211 184.426C156.428 184.306 156.637 184.621 156.432 184.771L156.435 184.775Z" fill="black"/>
<path d="M159.91 188.469L161.366 186.663L161.919 187.165C161.392 187.678 160.874 188.24 160.385 188.809C158.906 190.525 157.6 192.402 156.566 194.418C156.517 194.515 156.401 194.552 156.308 194.5C156.219 194.451 156.181 194.343 156.226 194.249C156.555 193.556 156.898 192.863 157.286 192.2C158.447 190.192 159.813 188.322 161.4 186.625L161.952 187.127L160.497 188.933C160.187 189.315 159.612 188.843 159.914 188.461L159.91 188.469Z" fill="black"/>
<path d="M210.425 148.133C209.571 147.567 208.701 147.021 207.824 146.489C195.325 138.91 189.924 128.245 189.924 128.245C176.709 100.706 154.18 100.29 150.533 100.41C150.22 100.422 149.91 100.422 149.592 100.41C145.945 100.29 123.413 100.702 110.202 128.245C110.202 128.245 104.8 138.914 92.3021 146.489C91.4248 147.021 90.5588 147.567 89.7002 148.133C86.0418 150.546 76.1158 156.933 66.1449 162.028C65.2192 162.5 65.0698 163.766 65.865 164.437C68.3959 166.583 74.7532 170.472 89.073 172.667C93.6385 173.368 98.2935 173.401 102.848 172.618C107.619 171.798 113.024 170.018 115.753 166.175C116.208 165.531 117.16 165.531 117.586 166.194C120.173 170.217 128.781 180.452 150.025 181.808H150.108C171.352 180.452 179.96 170.217 182.547 166.194C182.973 165.531 183.925 165.531 184.38 166.175C187.105 170.015 192.515 171.798 197.285 172.618C201.84 173.401 206.495 173.368 211.06 172.667C225.38 170.472 231.737 166.583 234.268 164.437C235.063 163.762 234.914 162.5 233.988 162.028C224.017 156.933 214.091 150.546 210.433 148.133H210.425Z" fill="url(#paint2_linear_1026_2800)"/>
<path d="M210.209 148.463C207.585 146.792 204.636 145.11 202.19 143.214C197.883 140.023 194.135 136.033 191.156 131.567C190.073 130.043 188.864 127.649 188.031 125.944C185.071 120.385 181.349 115.185 176.631 110.99C161.811 97.6156 140.025 97.1211 124.704 109.974C119.87 114.02 115.936 119.063 112.863 124.566C112.244 125.641 111.583 126.963 111.038 128.065C110.209 129.758 109.149 131.365 108.04 132.886C103.643 138.985 97.6776 143.803 91.2531 147.609C84.1305 152.198 76.9594 156.836 69.5382 160.934C68.6087 161.451 67.6717 161.957 66.7347 162.455L66.5593 162.549C66.4099 162.623 66.3465 162.665 66.2419 162.77C65.9433 163.077 65.9657 163.642 66.3091 163.905C69.5345 166.46 73.5213 168.014 77.4372 169.254C87.3371 172.158 98.23 174.121 108.264 170.734C110.463 169.966 112.587 168.906 114.271 167.302C114.633 166.943 114.965 166.549 115.26 166.134C115.428 165.909 115.659 165.583 115.951 165.448C116.608 165.077 117.511 165.276 117.937 165.909C125.082 176.218 138.117 180.047 150.063 180.852C159.074 180.227 168.358 178.163 175.742 172.693C177.411 171.438 178.986 170.041 180.345 168.453C181.035 167.658 181.651 166.838 182.245 165.95C182.644 165.339 183.518 165.145 184.153 165.489C184.668 165.759 184.929 166.347 185.321 166.748C185.814 167.302 186.426 167.868 187.019 168.31C193.586 172.959 204.3 173.117 211.982 171.82C215.058 171.326 218.224 170.685 221.221 169.835C225.216 168.696 229.229 167.269 232.678 164.939C233.103 164.646 233.514 164.335 233.906 164.013C234.164 163.8 234.279 163.455 234.208 163.122C234.126 162.717 233.798 162.522 233.451 162.354C225.469 158.132 217.75 153.43 210.209 148.467V148.463ZM210.642 147.803C218.183 152.711 225.906 157.36 233.936 161.402C234.201 161.541 234.529 161.691 234.742 161.927C235.549 162.706 235.507 164.137 234.63 164.856C234.208 165.216 233.779 165.549 233.331 165.868C229.774 168.348 225.701 169.899 221.58 171.101C217.481 172.266 213.248 173.113 209.018 173.637C202.62 174.308 195.971 173.6 190.043 171C188.091 170.086 186.198 168.921 184.746 167.254C184.451 166.958 184.119 166.355 183.798 166.167C183.484 165.995 183.066 166.092 182.883 166.392C182.308 167.276 181.663 168.168 180.972 168.988C173.431 177.972 161.59 182.003 150.193 182.771C137.714 182.115 124.264 177.35 117.186 166.433C117.026 166.164 116.649 166.062 116.35 166.216C116.04 166.385 115.693 166.992 115.391 167.272C109.702 173.544 97.4386 174.574 89.4986 173.499C85.2579 172.884 81.062 172.068 76.9669 170.775C72.8531 169.449 68.7767 167.801 65.4095 164.965C64.1776 163.852 64.5658 161.897 66.1412 161.301C73.7005 157.532 81.062 153.269 88.1659 148.688C89.9054 147.556 91.7981 146.365 93.5078 145.234C97.8791 142.33 101.728 138.659 105.035 134.583C106.67 132.545 108.212 130.425 109.496 128.155C109.989 127.259 110.467 126.233 110.956 125.326C112.77 122.048 114.805 118.845 117.235 115.991C126.317 104.966 139.793 98.9268 154.061 100.26C170.691 101.819 183.652 113.417 190.637 128.155C193.787 133.572 198.118 138.299 202.874 142.353C205.203 144.338 208.051 146.17 210.646 147.803H210.642Z" fill="black"/>
<path d="M144.246 140.39C144.246 146.38 139.132 147.47 133.163 147.47C127.194 147.47 122.632 146.38 122.632 140.39C122.632 134.4 127.47 129.544 133.439 129.544C139.408 129.544 144.246 134.4 144.246 140.39Z" fill="white"/>
<path d="M145.012 140.39C144.926 145.664 140.935 147.481 136.28 147.684C134.94 147.774 133.607 147.762 132.278 147.706C129.609 147.56 126.731 147.571 124.476 145.852C122.169 144.061 121.874 140.791 122.363 138.105C122.882 135.37 124.454 132.845 126.69 131.163C134.197 125.491 145.157 130.878 145.012 140.394V140.39ZM143.481 140.39C143.455 135.385 139.457 130.837 134.466 130.309C129.423 129.631 124.357 133.283 123.345 138.307C121.524 147.185 129.643 147.699 136.22 147.006C140.162 146.552 143.731 144.926 143.485 140.394L143.481 140.39Z" fill="black"/>
<path d="M137.273 145.766C138.574 145.766 139.629 143.919 139.629 141.641C139.629 139.363 138.574 137.516 137.273 137.516C135.973 137.516 134.918 139.363 134.918 141.641C134.918 143.919 135.973 145.766 137.273 145.766Z" fill="#429195"/>
<path d="M138.487 140.349C138.744 140.349 138.953 140.139 138.953 139.88C138.953 139.622 138.744 139.412 138.487 139.412C138.229 139.412 138.02 139.622 138.02 139.88C138.02 140.139 138.229 140.349 138.487 140.349Z" fill="white"/>
<path d="M156.947 140.39C156.947 146.38 161.923 147.841 167.892 147.841C173.861 147.841 178.561 146.38 178.561 140.39C178.561 134.4 173.723 129.544 167.754 129.544C161.785 129.544 156.947 134.4 156.947 140.39Z" fill="white"/>
<path d="M157.711 140.39C157.364 146.631 163.916 147.635 168.784 147.582C174.697 147.508 179.169 145.095 177.881 138.475C176.959 133.407 171.889 129.657 166.813 130.297C161.784 130.781 157.738 135.351 157.711 140.386V140.39ZM156.181 140.39C156.043 130.799 167.126 125.442 174.622 131.249C176.851 132.969 178.392 135.535 178.863 138.296C179.341 141.008 178.907 144.248 176.6 146.039C174.368 147.788 171.483 147.916 168.799 148.073C167.458 148.137 166.114 148.141 164.767 148.021C160.082 147.721 156.263 145.582 156.185 140.39H156.181Z" fill="black"/>
<path d="M163.92 145.766C165.221 145.766 166.275 143.919 166.275 141.641C166.275 139.363 165.221 137.516 163.92 137.516C162.619 137.516 161.564 139.363 161.564 141.641C161.564 143.919 162.619 145.766 163.92 145.766Z" fill="#429195"/>
<path d="M162.707 140.349C162.965 140.349 163.173 140.139 163.173 139.88C163.173 139.622 162.965 139.412 162.707 139.412C162.449 139.412 162.24 139.622 162.24 139.88C162.24 140.139 162.449 140.349 162.707 140.349Z" fill="white"/>
<path d="M155.043 152.273C153.382 150.834 146.935 150.834 145.274 152.273C144.654 152.808 144.449 153.689 144.77 154.442C145.266 155.614 146.603 157.319 150.16 157.259C153.714 157.319 155.051 155.614 155.551 154.442C155.872 153.685 155.666 152.808 155.047 152.273H155.043Z" fill="black"/>
<path d="M150.156 156.69V159.54C150.156 159.54 145.55 166.561 138.278 160.2" stroke="black" stroke-width="2" stroke-miterlimit="10" stroke-linecap="round"/>
<path d="M150.156 156.69V159.54C150.156 159.54 154.762 166.561 162.034 160.2" stroke="black" stroke-width="2" stroke-miterlimit="10" stroke-linecap="round"/>
<path d="M164.621 121.348C165.831 120.374 167.358 120.104 168.821 120.205C173.2 120.505 176.821 123.547 179.068 127.147C179.314 127.51 178.814 127.934 178.501 127.626C177.791 126.948 177.075 126.162 176.313 125.544C174.189 123.652 171.554 122.172 168.701 121.988C167.447 121.898 166.212 121.966 164.946 122.022C164.558 122.093 164.308 121.603 164.621 121.348Z" fill="black"/>
<path d="M195.568 118.265H190.346C190.346 99.1441 172.218 83.5899 149.936 83.5899C127.654 83.5899 109.526 99.1441 109.526 118.265H104.304C104.304 96.6716 124.775 79.1057 149.936 79.1057C175.096 79.1057 195.568 96.6716 195.568 118.265Z" fill="url(#paint3_linear_1026_2800)"/>
<path d="M196.124 118.827C194.011 118.988 191.745 119.085 189.577 119.055C189.554 114.002 188.289 108.978 185.844 104.565C171.464 78.48 128.404 78.48 114.028 104.565C111.583 108.978 110.317 114.005 110.295 119.059C109.156 119.059 104.628 119.059 103.501 119.059C103.501 113.114 104.998 107.18 107.85 101.98C121.74 76.5657 159.19 71.7631 181.155 89.2354C188.065 94.6037 193.429 102.257 195.422 110.873C195.967 113.466 196.524 116.174 196.124 118.827ZM195.008 117.707C194.84 117.16 194.75 116.796 194.75 116.227C194.668 114.867 194.549 113.511 194.31 112.166C193.724 108.802 192.623 105.531 191.07 102.482C177.874 77.1614 140.592 72.3475 119.209 89.8572C110.661 96.6491 104.8 107.21 105.095 118.268L104.307 117.478H109.53L108.742 118.268C108.429 108.011 113.853 98.1663 121.752 91.8727C141.406 75.6891 175.652 80.2295 187.729 103.568C190.021 108.105 191.268 113.2 191.133 118.268L190.346 117.478C191.898 117.471 193.395 117.572 195.012 117.71L195.008 117.707Z" fill="black"/>
<path d="M137.464 121.475C136.314 121.498 135.299 121.202 134.179 121.149C132.462 121.104 130.722 121.535 129.154 122.266C127.071 123.273 125.302 124.798 123.656 126.409C123.327 126.716 122.827 126.255 123.111 125.903C123.536 125.364 123.973 124.824 124.417 124.289C124.873 123.858 125.44 123.221 125.918 122.828C128.076 120.962 130.786 119.636 133.686 119.576C134.407 119.553 135.161 119.606 135.866 119.748C136.355 119.819 138.427 120.67 137.796 121.37C137.703 121.46 137.584 121.479 137.464 121.475Z" fill="black"/>
<path d="M134.492 107.805C131.316 105.786 124.955 99.9457 124.249 85.3168C124.174 83.7921 122.909 82.5971 121.386 82.5971C119.87 82.5971 118.616 83.7771 118.526 85.2943C118.426 86.9726 118.355 89.1305 118.485 90.8575C118.582 92.1499 117.511 93.2325 116.223 93.1539C111.519 92.8692 102.183 91.026 100.802 80.96C100.627 79.6713 99.5328 78.7048 98.2375 78.7048C96.7629 78.7048 95.5796 79.9335 95.6468 81.4133C95.8894 86.628 98.5772 97.758 116.746 100.021C118.496 100.238 120.008 101.343 120.755 102.946C121.931 105.468 124.35 109.48 129.035 113.567C130.293 114.665 132.002 115.163 133.619 114.754C134.687 114.485 135.732 113.848 136.21 112.458C136.811 110.712 136.045 108.791 134.492 107.802V107.805Z" fill="url(#paint4_linear_1026_2800)"/>
<path d="M134.201 108.266C127.407 103.703 124.824 95.2818 124.17 87.4972L124.017 85.3543C123.991 84.695 123.715 84.0619 123.248 83.5974C121.755 82.0427 119.008 82.9942 118.787 85.1408C118.694 86.5269 118.66 87.9692 118.69 89.374C118.672 90.1083 118.855 90.8425 118.709 91.573C118.53 92.3635 117.932 93.0378 117.167 93.3075C116.809 93.4499 116.365 93.4723 115.999 93.4386C114.924 93.3712 113.852 93.2401 112.792 93.034C109.959 92.4871 107.159 91.4419 104.908 89.5726C102.62 87.7144 101.097 84.9909 100.496 82.1101C100.335 81.4845 100.357 80.7877 99.9991 80.2295C99.413 79.2293 97.9721 78.9408 97.0613 79.6451C96.3035 80.1771 96.1392 81.1099 96.2848 81.9753C96.3781 83.0055 96.5573 84.0282 96.8223 85.0247C99.1629 94.1354 107.816 98.1027 116.436 99.1741C118.463 99.3352 120.385 100.5 121.326 102.328C121.636 102.958 121.934 103.606 122.281 104.22C123.954 107.251 126.205 109.982 128.732 112.364C129.09 112.687 129.807 113.387 130.259 113.616C131.786 114.548 134.096 114.522 135.235 113.039C136.359 111.529 135.78 109.251 134.197 108.266H134.201ZM134.783 107.341C137.814 109.146 137.773 114.005 134.242 115.223C132.327 115.931 130.132 115.406 128.616 114.103L127.799 113.383C124.704 110.592 122.016 107.288 120.161 103.516C119.844 102.815 119.4 102.164 118.787 101.695C117.783 100.834 116.402 100.766 115.155 100.586C112.303 100.133 109.466 99.3951 106.797 98.1926C101.414 95.8849 96.8709 91.1684 95.583 85.3356C95.3217 84.2604 95.1574 83.1703 95.0828 82.0689C94.8961 80.8139 95.3179 79.4316 96.408 78.7123C97.8377 77.6634 100.033 78.1429 100.891 79.6863C101.313 80.3569 101.317 81.1548 101.47 81.9078C101.739 83.2565 102.172 84.5789 102.844 85.7739C105.494 90.6065 111.288 92.6407 116.521 92.843C117.29 92.7905 117.985 92.1949 118.16 91.4382C118.283 90.7713 118.123 90.0596 118.153 89.3777C118.142 87.9355 118.19 86.5269 118.306 85.0734C118.586 82.5597 121.815 81.462 123.573 83.2639C124.122 83.7997 124.454 84.5564 124.488 85.3244C124.652 88.5124 125.16 91.6667 126.044 94.7236C127.549 99.6648 130.363 104.546 134.787 107.337L134.783 107.341Z" fill="black"/>
<path d="M165.544 107.805C168.72 105.786 175.082 99.9457 175.787 85.3168C175.862 83.7921 177.127 82.5971 178.65 82.5971C180.166 82.5971 181.42 83.7771 181.51 85.2943C181.611 86.9726 181.681 89.1305 181.551 90.8575C181.454 92.1499 182.525 93.2325 183.813 93.1539C188.517 92.8692 197.853 91.026 199.234 80.96C199.409 79.6713 200.503 78.7048 201.799 78.7048C203.273 78.7048 204.456 79.9335 204.389 81.4133C204.147 86.628 201.459 97.758 183.29 100.021C181.54 100.238 180.028 101.343 179.281 102.946C178.105 105.468 175.686 109.48 171.001 113.567C169.743 114.665 168.034 115.163 166.417 114.754C165.35 114.485 164.304 113.848 163.826 112.458C163.225 110.712 163.991 108.791 165.544 107.802V107.805Z" fill="url(#paint5_linear_1026_2800)"/>
<path d="M165.252 107.344C169.676 104.554 172.491 99.6723 173.995 94.731C174.88 91.6779 175.387 88.5198 175.552 85.3318C175.585 84.5638 175.917 83.8071 176.466 83.2714C178.224 81.4732 181.45 82.5634 181.733 85.0808C181.849 86.5343 181.898 87.9429 181.887 89.3852C181.913 90.067 181.752 90.7788 181.879 91.4456C182.054 92.1986 182.745 92.798 183.518 92.8504C188.751 92.6481 194.549 90.614 197.196 85.7814C197.871 84.5863 198.301 83.2639 198.569 81.9153C198.719 81.1623 198.726 80.3643 199.148 79.6938C200.003 78.1503 202.205 77.6671 203.631 78.7198C204.718 79.439 205.143 80.8176 204.956 82.0764C204.882 83.1777 204.718 84.2716 204.456 85.3431C203.168 91.1759 198.625 95.8924 193.242 98.2C190.573 99.4025 187.736 100.141 184.884 100.594C183.637 100.774 182.256 100.845 181.252 101.703C180.64 102.171 180.192 102.827 179.878 103.523C178.023 107.296 175.339 110.596 172.24 113.391L171.423 114.11C169.907 115.414 167.712 115.938 165.797 115.23C162.273 114.005 162.217 109.165 165.256 107.348L165.252 107.344ZM165.835 108.27C164.256 109.255 163.669 111.54 164.797 113.042C165.935 114.526 168.246 114.548 169.773 113.619C170.251 113.365 170.897 112.739 171.3 112.368C173.827 109.989 176.078 107.258 177.75 104.224C178.094 103.61 178.396 102.965 178.706 102.332C179.647 100.5 181.569 99.3351 183.596 99.1778C192.212 98.1064 200.873 94.1316 203.209 85.0284C203.474 84.0319 203.654 83.0092 203.747 81.979C203.889 81.1173 203.736 80.1808 202.971 79.6488C202.056 78.9483 200.619 79.233 200.033 80.2332C199.678 80.7914 199.697 81.4882 199.536 82.1138C199.219 83.5449 198.722 84.9572 197.968 86.2272C195.762 90.1157 191.488 92.2585 187.24 93.034C186.179 93.2363 185.112 93.3712 184.033 93.4386C183.667 93.4723 183.223 93.4498 182.865 93.3075C182.099 93.0377 181.502 92.3634 181.323 91.573C181.177 90.8387 181.36 90.1082 181.341 89.374C181.371 87.9691 181.334 86.5268 181.244 85.1408C181.028 82.9979 178.277 82.0389 176.783 83.5973C176.317 84.0618 176.041 84.695 176.018 85.3543L175.865 87.4971C175.212 95.2817 172.629 103.707 165.831 108.266L165.835 108.27Z" fill="black"/>
<path d="M185.489 135.853C185.22 137.194 185.455 138.599 185.956 139.869C186.445 141.191 187.355 142.255 188.009 143.503C191.443 150.017 189.2 157.877 185.187 163.59C184.38 164.759 183.525 165.875 182.54 166.932C182.379 167.104 182.114 167.111 181.943 166.95C181.767 166.785 181.763 166.501 181.943 166.336C182.88 165.362 183.753 164.264 184.552 163.144C188.531 157.656 190.842 150.089 187.609 143.713C186.982 142.473 186.064 141.349 185.597 140.011C185.093 138.681 184.866 137.202 185.175 135.789C185.194 135.703 185.28 135.647 185.366 135.666C185.452 135.685 185.508 135.771 185.489 135.857V135.853Z" fill="black"/>
<path d="M114.883 135.767C115.193 137.202 114.961 138.693 114.457 140.03C113.991 141.364 113.076 142.495 112.445 143.728C111.855 144.949 111.407 146.26 111.157 147.601C110.131 153.071 112.348 158.6 115.499 163.002C116.298 164.114 117.175 165.201 118.112 166.16C118.306 166.343 118.313 166.658 118.119 166.849C117.929 167.036 117.627 167.029 117.444 166.838C116.447 165.789 115.585 164.684 114.771 163.519C110.22 157.143 108.133 148.44 113.005 141.634C114.08 139.948 114.789 137.865 114.39 135.868C114.327 135.565 114.804 135.43 114.883 135.763V135.767Z" fill="black"/>
<path d="M190.966 143.031C190.966 143.031 188.218 174.357 159.467 174.357" stroke="black" stroke-width="2" stroke-miterlimit="10"/>
<path d="M159.828 170.753H155.229C153.467 170.753 152.038 172.187 152.038 173.956V174.064C152.038 175.833 153.467 177.267 155.229 177.267H159.828C161.591 177.267 163.02 175.833 163.02 174.064V173.956C163.02 172.187 161.591 170.753 159.828 170.753Z" fill="black"/>
<path d="M114.043 121.265C114.315 126.458 114.767 133.928 115.323 139.011C115.607 141.615 113.502 143.956 110.497 144.383L108.772 144.627C104.822 145.189 101.164 142.72 100.877 139.292C100.485 134.628 100.037 128.08 99.9918 121.992C99.9732 119.658 101.855 117.635 104.505 117.115L106.958 116.635C110.485 115.946 113.879 118.16 114.043 121.262V121.265Z" fill="#643C3B"/>
<path d="M114.379 121.247C114.427 125.926 114.7 130.593 115.256 135.239C115.379 136.359 115.536 137.591 115.693 138.711C115.921 139.97 115.633 141.319 114.916 142.386C113.961 143.833 112.356 144.762 110.676 145.08C110.291 145.155 109.317 145.331 108.947 145.398C104.781 146.249 99.9135 143.567 99.697 139.011C99.249 134.729 98.9392 130.425 98.8496 126.12C98.8496 125.319 98.816 123.371 98.8459 122.588C98.7936 121.187 99.1968 119.707 100.096 118.654C101.231 117.234 102.982 116.437 104.725 116.242L105.879 116.073C106.237 116.024 106.685 115.946 107.055 115.912C110.366 115.433 114.278 117.662 114.375 121.25L114.379 121.247ZM113.703 121.284C113.446 118.28 109.974 116.628 107.282 117.309C106.984 117.339 106.48 117.515 106.17 117.572C105.565 117.729 104.557 117.931 104.016 118.152C102.385 118.737 101.011 120.314 101.119 121.985C101.242 124.828 101.369 127.847 101.526 130.687C101.597 132.238 101.683 133.785 101.78 135.336C101.881 136.509 101.911 138.768 102.097 139.809C102.717 142.679 105.991 144.158 108.731 143.844C109.1 143.81 110.078 143.701 110.463 143.664C112.68 143.469 114.943 141.727 114.916 139.352C114.879 138.329 114.722 136.336 114.67 135.287C114.442 130.608 114.155 125.944 113.707 121.28L113.703 121.284Z" fill="black"/>
<path d="M185.287 121.265C185.014 126.458 184.563 133.928 184.007 139.011C183.723 141.615 185.828 143.956 188.833 144.383L190.558 144.627C194.507 145.189 198.166 142.72 198.453 139.292C198.845 134.628 199.293 128.08 199.338 121.992C199.357 119.658 197.475 117.635 194.825 117.115L192.372 116.635C188.845 115.946 185.451 118.16 185.287 121.262V121.265Z" fill="#643C3B"/>
<path d="M185.616 121.28C185.231 125.768 184.869 130.758 184.619 135.284L184.455 137.621C184.436 138.254 184.268 139.273 184.369 139.884C184.649 142.079 186.754 143.582 188.849 143.803C189.237 143.848 190.207 143.952 190.581 143.997C193.407 144.35 196.796 142.825 197.442 139.858C197.64 138.768 197.673 136.557 197.774 135.351C198.028 131.118 198.23 126.806 198.368 122.565L198.386 121.985C198.439 120.565 197.573 119.261 196.27 118.474C195.019 117.748 193.44 117.579 192.059 117.227C189.338 116.571 185.855 118.257 185.616 121.284V121.28ZM184.959 121.247C185.074 117.68 188.979 115.485 192.257 115.991C193.067 116.096 193.806 116.227 194.582 116.343C197.457 116.616 200.279 118.913 200.294 121.996C200.357 126.499 200.111 131.006 199.745 135.49L199.532 137.827C199.432 138.584 199.424 139.509 199.211 140.289C198.162 144.278 193.575 146.062 189.83 145.144L188.677 144.938C187.027 144.634 185.444 143.735 184.496 142.323C183.783 141.289 183.484 139.944 183.704 138.715C183.861 137.588 183.996 136.363 184.111 135.239C184.638 130.59 184.854 125.918 184.959 121.247Z" fill="black"/>
</g>
<defs>
<linearGradient id="paint0_linear_1026_2800" x1="135.903" y1="219.259" x2="135.903" y2="183.707" gradientUnits="userSpaceOnUse">
<stop stop-color="#487E50"/>
<stop offset="0.07" stop-color="#518A58"/>
<stop offset="0.21" stop-color="#61A167"/>
<stop offset="0.34" stop-color="#6AAE6F"/>
<stop offset="0.47" stop-color="#6EB373"/>
</linearGradient>
<linearGradient id="paint1_linear_1026_2800" x1="137.874" y1="192.323" x2="162.411" y2="192.323" gradientUnits="userSpaceOnUse">
<stop stop-color="#487E50"/>
<stop offset="0.07" stop-color="#518A58"/>
<stop offset="0.21" stop-color="#61A167"/>
<stop offset="0.34" stop-color="#6AAE6F"/>
<stop offset="0.47" stop-color="#6EB373"/>
</linearGradient>
<linearGradient id="paint2_linear_1026_2800" x1="150.067" y1="181.812" x2="150.067" y2="100.399" gradientUnits="userSpaceOnUse">
<stop stop-color="#643C3B"/>
<stop offset="0.03" stop-color="#72453D"/>
<stop offset="0.12" stop-color="#996044"/>
<stop offset="0.22" stop-color="#B87449"/>
<stop offset="0.3" stop-color="#CF834D"/>
<stop offset="0.39" stop-color="#DC8C50"/>
<stop offset="0.47" stop-color="#E19051"/>
</linearGradient>
<linearGradient id="paint3_linear_1026_2800" x1="104.304" y1="98.687" x2="195.568" y2="98.687" gradientUnits="userSpaceOnUse">
<stop offset="0.56" stop-color="#F9E9B3"/>
<stop offset="0.61" stop-color="#F3D9A5"/>
<stop offset="0.79" stop-color="#E1A276"/>
<stop offset="0.93" stop-color="#D58059"/>
<stop offset="1" stop-color="#D1744E"/>
</linearGradient>
<linearGradient id="paint4_linear_1026_2800" x1="116.029" y1="118.557" x2="116.029" y2="77.6409" gradientUnits="userSpaceOnUse">
<stop offset="0.56" stop-color="#F9E9B3"/>
<stop offset="0.61" stop-color="#F3D9A5"/>
<stop offset="0.79" stop-color="#E1A276"/>
<stop offset="0.93" stop-color="#D58059"/>
<stop offset="1" stop-color="#D1744E"/>
</linearGradient>
<linearGradient id="paint5_linear_1026_2800" x1="184.007" y1="118.557" x2="184.007" y2="77.6409" gradientUnits="userSpaceOnUse">
<stop offset="0.56" stop-color="#F9E9B3"/>
<stop offset="0.61" stop-color="#F3D9A5"/>
<stop offset="0.79" stop-color="#E1A276"/>
<stop offset="0.93" stop-color="#D58059"/>
<stop offset="1" stop-color="#D1744E"/>
</linearGradient>
</defs>
</svg>
