<svg width="22" height="22" viewBox="0 0 22 22" fill="none" xmlns="http://www.w3.org/2000/svg">
<path d="M9.59961 15.1313C10.29 15.1313 10.8496 14.5717 10.8496 13.8813C10.8496 13.191 10.29 12.6313 9.59961 12.6313C8.90925 12.6313 8.34961 13.191 8.34961 13.8813C8.34961 14.5717 8.90925 15.1313 9.59961 15.1313Z" fill="white"/>
<path d="M9.59961 13.1515V16.6615C9.59961 17.1215 9.97961 17.5015 10.4396 17.5015H11.5796C12.0396 17.5015 12.4196 17.1215 12.4196 16.6615V9.8815C12.4196 9.4215 12.0396 9.0415 11.5796 9.0415H10.4396C9.97961 9.0415 9.59961 9.4215 9.59961 9.8815V10.8515" stroke="white" stroke-miterlimit="10" stroke-linecap="round"/>
<path d="M11.0096 7.32146C11.7883 7.32146 12.4196 6.69019 12.4196 5.91146C12.4196 5.13274 11.7883 4.50146 11.0096 4.50146C10.2309 4.50146 9.59961 5.13274 9.59961 5.91146C9.59961 6.69019 10.2309 7.32146 11.0096 7.32146Z" stroke="white" stroke-miterlimit="10" stroke-linecap="round"/>
<path fill-rule="evenodd" clip-rule="evenodd" d="M18.1998 3.82137C15.7698 3.24137 13.9998 2.21137 12.8198 1.32137C11.7498 0.511367 10.2498 0.511367 9.17976 1.32137C7.99976 2.21137 6.22976 3.24137 3.79976 3.82137C2.42976 4.15137 1.43976 5.37137 1.42976 6.79137C1.41976 10.6114 2.44976 17.6714 9.67976 21.0014C10.5098 21.3814 11.4798 21.3814 12.3198 21.0014C19.5398 17.6714 20.5798 10.6114 20.5698 6.79137C20.5698 5.38137 19.5798 4.16137 18.1998 3.82137Z" stroke="white" stroke-miterlimit="10"/>
</svg>
