<svg id="Layer_1" data-name="Layer 1" xmlns="http://www.w3.org/2000/svg" viewBox="0 0 42.73 40"><defs></defs><path class="cls-1" d="M21.4,11.16a8.37,8.37,0,1,1,8.37,8.37A8.37,8.37,0,0,1,21.4,11.16ZM29.77,0a11.17,11.17,0,1,0,6.84,20l3.74,3.74a1.4,1.4,0,1,0,2-2L38.59,18A11.17,11.17,0,0,0,29.77,0Zm.46,7.3a1.06,1.06,0,0,1,1.25-1.11,5.73,5.73,0,0,1,.89.28,5.59,5.59,0,0,1,3,3,5.73,5.73,0,0,1,.28.89,1.06,1.06,0,0,1-1.11,1.25,1,1,0,0,1-.94-.83,5,5,0,0,0-.16-.51,3.75,3.75,0,0,0-.76-1.13,3.43,3.43,0,0,0-1.13-.75,3.39,3.39,0,0,0-.51-.17A1,1,0,0,1,30.23,7.3ZM31.94,26c.39-1-.52-1.83-1.55-1.78a1.22,1.22,0,0,0-1.05.76,5.56,5.56,0,0,1-4.77,3.43h-6.9v-.82l3.73-3.72a1.4,1.4,0,1,0-2-2l-1.75,1.75V19.53a1.4,1.4,0,0,0-2.79,0v1.29l-1.74-1.75a1.4,1.4,0,0,0-2,2l3.72,3.72v3.61H8a5.58,5.58,0,0,1,.38-11.15,1.93,1.93,0,0,0,1.91-1.67,5.58,5.58,0,0,1,5.53-4.84,1,1,0,0,0,1.07-.86L17,9.32a1.2,1.2,0,0,0-1.14-1.41,8.38,8.38,0,0,0-8.17,6.54,8.37,8.37,0,0,0,0,16.68,1.63,1.63,0,0,0,.31,0h7V38.6a1.4,1.4,0,1,0,2.79,0V31.16h7a1.66,1.66,0,0,0,.32,0A8.37,8.37,0,0,0,31.94,26Z"/></svg>