<svg id="Layer_1" data-name="Layer 1" xmlns="http://www.w3.org/2000/svg" viewBox="0 0 40 40"><defs></defs><path class="cls-1" d="M11.16,4.19A4.19,4.19,0,0,1,15.35,0h9.3a4.19,4.19,0,1,1,0,8.37h-9.3A4.19,4.19,0,0,1,11.16,4.19Zm4.19-1.4a1.4,1.4,0,1,0,0,2.79h9.3a1.4,1.4,0,1,0,0-2.79ZM16.8,14.94a1.39,1.39,0,1,0-2-2L10.7,17.1,9.36,15.76a1.39,1.39,0,0,0-2,2L9.05,19.4a2.32,2.32,0,0,0,3.29,0Zm0,13a1.38,1.38,0,0,0,0-2,1.4,1.4,0,0,0-2,0L10.7,30.12,9.36,28.78a1.4,1.4,0,0,0-2,0,1.38,1.38,0,0,0,0,2l1.66,1.67a2.32,2.32,0,0,0,3.29,0ZM20,15.81a1.39,1.39,0,0,1,1.4-1.39H33a1.4,1.4,0,1,1,0,2.79H21.4A1.4,1.4,0,0,1,20,15.81Zm1.4,11.63a1.4,1.4,0,1,0,0,2.79H33a1.4,1.4,0,1,0,0-2.79ZM8.37,2.79a1.4,1.4,0,1,1,0,2.79H4.65A1.86,1.86,0,0,0,2.79,7.44V35.35a1.86,1.86,0,0,0,1.86,1.86h30.7a1.86,1.86,0,0,0,1.86-1.86V7.44a1.86,1.86,0,0,0-1.86-1.86H31.63a1.4,1.4,0,1,1,0-2.79h3.72A4.65,4.65,0,0,1,40,7.44V35.35A4.65,4.65,0,0,1,35.35,40H4.65A4.65,4.65,0,0,1,0,35.35V7.44A4.65,4.65,0,0,1,4.65,2.79Z"/></svg>