<?xml version="1.0" encoding="UTF-8"?><svg id="Capa_1" xmlns="http://www.w3.org/2000/svg" viewBox="0 0 36 40"><defs></defs><path class="cls-1" d="M17.78,0c-2.67,0-5.14,1.4-6.51,3.69l-.14,.23c-.19,.32-.55,.52-.92,.52H3.56c-1.96,0-3.56,1.59-3.56,3.56s1.59,3.56,3.56,3.56h28.44c1.96,0,3.56-1.59,3.56-3.56s-1.59-3.56-3.56-3.56h-6.65c-.38,0-.73-.2-.92-.52l-.14-.23c-1.37-2.29-3.84-3.69-6.51-3.69Zm-4.1,4.99c.86-1.44,2.42-2.32,4.1-2.32s3.24,.88,4.1,2.32l.61,1.01c.41,.69,1.16,1.11,1.96,1.11h7.74c.49,0,.89,.4,.89,.89s-.4,.89-.89,.89H3.37c-.49,0-.89-.4-.89-.89s.4-.89,.89-.89h7.74c.8,0,1.55-.42,1.96-1.11l.61-1.01Zm.1,23.01c0-.74-.6-1.33-1.33-1.33s-1.33,.6-1.33,1.33v.89c0,.74,.6,1.33,1.33,1.33s1.33-.6,1.33-1.33v-.89Zm10.67,0c0-.74-.6-1.33-1.33-1.33s-1.33,.6-1.33,1.33v2.11c0,.55-.45,1-1,1h-7.67c-1.1,0-2,.9-2,2v1.56c0,.74,.6,1.33,1.33,1.33s1.33-.6,1.33-1.33c0-.49,.4-.89,.89-.89h6.22c.49,0,.89,.4,.89,.89,0,.74,.6,1.33,1.33,1.33s1.33-.6,1.33-1.33v-6.67ZM9.86,13.59c.11-.7,.76-1.15,1.46-1.15,.84,0,1.39,.93,1.3,1.76-.02,.16-.03,.33-.03,.49,0,1.68,.9,3.16,2.28,4.03,.63,.4,1.12,1.04,1.12,1.78v2.15c0,.74-.6,1.33-1.33,1.33-4.17,0-7.56,3.38-7.56,7.56v5.33c0,.25,.2,.44,.44,.44H28c.25,0,.44-.2,.44-.44v-5.33c0-4.17-3.38-7.56-7.56-7.56-.74,0-1.33-.6-1.33-1.33v-2.15c0-.74,.49-1.38,1.12-1.78,1.38-.87,2.28-2.36,2.28-4.03,0-.17,0-.33-.03-.49-.09-.83,.47-1.76,1.3-1.76,.71,0,1.35,.45,1.46,1.15,.06,.36,.09,.73,.09,1.11,0,2.24-1.04,4.25-2.7,5.63-.39,.33-.21,1.18,.28,1.3,4.45,1.11,7.75,5.13,7.75,9.92v5.33c0,1.72-1.39,3.11-3.11,3.11H7.56c-1.72,0-3.11-1.39-3.11-3.11v-5.33c0-4.79,3.3-8.81,7.75-9.92,.5-.12,.68-.97,.28-1.3-1.65-1.38-2.7-3.39-2.7-5.63,0-.38,.03-.75,.09-1.11Z"/></svg>