<svg id="Layer_1" data-name="Layer 1" xmlns="http://www.w3.org/2000/svg" viewBox="0 0 30 40"><defs><style>.cls-1{fill:#ed8830;fill-rule:evenodd;}</style></defs><path class="cls-1" d="M19,25.07a2.28,2.28,0,0,0,2.16-2,9.9,9.9,0,0,1,.29-1.25,5.91,5.91,0,0,1,1.73-2.71,39.48,39.48,0,0,0,2.83-3,14.93,14.93,0,0,0,2.17-3.32A8.78,8.78,0,0,0,29,8.94a9.72,9.72,0,0,0-1.1-4.75,7.37,7.37,0,0,0-3.21-3.11A10.83,10.83,0,0,0,19.64,0a11.5,11.5,0,0,0-4.87,1,8.37,8.37,0,0,0-3.46,2.92,7.89,7.89,0,0,0-1.08,2.54,1.73,1.73,0,0,0,1.81,2h.32a2.76,2.76,0,0,0,2.33-1.93,3.71,3.71,0,0,1,.41-.73,4.46,4.46,0,0,1,2-1.53,7,7,0,0,1,2.57-.49,5.37,5.37,0,0,1,2.74.64,3.93,3.93,0,0,1,1.68,1.81,6.19,6.19,0,0,1,.59,2.8,6.3,6.3,0,0,1-.56,2.75,9.06,9.06,0,0,1-1.48,2.11c-.59.65-1.25,1.34-2,2.07a28.8,28.8,0,0,0-2.37,2.73A7.9,7.9,0,0,0,17,21.38a10.43,10.43,0,0,0-.29,1.68,1.86,1.86,0,0,0,1.91,2Zm-1.88,5.67a2.57,2.57,0,0,0-.66,1.79,2.52,2.52,0,0,0,.66,1.74A2.39,2.39,0,0,0,19,35a2.44,2.44,0,0,0,1.92-.73,2.52,2.52,0,0,0,.66-1.74,2.57,2.57,0,0,0-.66-1.79A2.48,2.48,0,0,0,19,30,2.43,2.43,0,0,0,17.07,30.74ZM5,10a5,5,0,0,0-5,5V35a5,5,0,0,0,5,5H25a5,5,0,0,0,5-5V25a1.5,1.5,0,0,0-3,0V35a2,2,0,0,1-2,2H5a2,2,0,0,1-2-2V15a2,2,0,0,1,2-2H7a1.5,1.5,0,0,0,0-3Z"/></svg>