<svg id="Layer_1" data-name="Layer 1" xmlns="http://www.w3.org/2000/svg" viewBox="0 0 13.01 12.44"><defs><style>.cls-1{fill:#ed8830;fill-rule:evenodd;}</style></defs><path class="cls-1" d="M12.7.48a.62.62,0,0,1,.9,0,.63.63,0,0,1,0,.85L10,5.13a2,2,0,0,0,0,2.74l3.6,3.8a.63.63,0,0,1,0,.85.62.62,0,0,1-.9,0L8.3,7.87a2,2,0,0,1,0-2.74Z" transform="translate(-0.75 -0.28)"/><path class="cls-1" d="M5.7.48a.62.62,0,0,1,.9,0,.63.63,0,0,1,0,.85L3,5.13A2,2,0,0,0,3,7.87l3.6,3.8a.63.63,0,0,1,0,.85.62.62,0,0,1-.9,0L1.3,7.87a2,2,0,0,1,0-2.74Z" transform="translate(-0.75 -0.28)"/></svg>