<svg id="Layer_1" data-name="Layer 1" xmlns="http://www.w3.org/2000/svg" viewBox="0 0 38.89 39"><defs><style>.cls-1{fill:#ed8830;fill-rule:evenodd;}</style></defs><path class="cls-1" d="M0,13.55A5.09,5.09,0,0,1,5.09,8.46H15.78a1.53,1.53,0,1,1,0,3H5.09a2,2,0,0,0-2,2V33.91a2,2,0,0,0,2,2H25.45a2,2,0,0,0,2-2V23.73a1.53,1.53,0,1,1,3.05,0V33.91A5.09,5.09,0,0,1,25.45,39H5.09A5.09,5.09,0,0,1,0,33.91Z" transform="translate(0 0)"/><path class="cls-1" d="M22.9,8.23a2,2,0,0,1,2.88,0l4.88,4.88a2,2,0,0,1,0,2.88L13.35,33.3a2,2,0,0,1-1.43.59H7a2,2,0,0,1-2-2V27a2,2,0,0,1,.6-1.44ZM8.65,26.8a2,2,0,0,0-.6,1.44v1.58a1,1,0,0,0,1,1h1.58a2,2,0,0,0,1.44-.6l15-15a1,1,0,0,0,0-1.44l-2-2a1,1,0,0,0-1.44,0Z" transform="translate(0 0)"/><path class="cls-1" d="M30.54.6a2,2,0,0,1,2.88,0L38.3,5.48a2,2,0,0,1,0,2.87l-3.36,3.36a2,2,0,0,1-2.88,0L27.18,6.83a2,2,0,0,1,0-2.88ZM30.42,5a.53.53,0,0,0,0,.72l2.72,2.72a.51.51,0,0,0,.72,0l1.2-1.19a.51.51,0,0,0,0-.72L32.34,3.84a.51.51,0,0,0-.72,0Z" transform="translate(0 0)"/></svg>