<svg id="Layer_1" data-name="Layer 1" xmlns="http://www.w3.org/2000/svg" viewBox="0 0 33 32.5"><defs><style>.cls-1{fill:#ed8830;fill-rule:evenodd;}</style></defs><path class="cls-1" d="M24.5,1.5a1.5,1.5,0,0,0-3,0v7H15a1.5,1.5,0,0,0,0,3h6.5V18a1.5,1.5,0,0,0,3,0V11.5h7a1.5,1.5,0,0,0,0-3h-7ZM5,2.5H17a1.5,1.5,0,0,1,0,3H5a2,2,0,0,0-2,2V26.35a.3.3,0,0,0,.56.15l2-3.45a1,1,0,0,1,1.75,0l2,3.74A1,1,0,0,0,11,27l5.77-7a1,1,0,0,1,1.54,0l7.64,9.32a.58.58,0,0,0,.47.23.62.62,0,0,0,.62-.62V16a1.5,1.5,0,0,1,3,0V27.5a5,5,0,0,1-5,5H5a5,5,0,0,1-5-5V7.5A5,5,0,0,1,5,2.5Z"/></svg>