<svg id="Layer_1" data-name="Layer 1" xmlns="http://www.w3.org/2000/svg" viewBox="0 0 39.97 40"><defs><style>.cls-1{fill:#ed8830;fill-rule:evenodd;}</style></defs><path class="cls-1" d="M0,15a5,5,0,0,1,5-5H7a1.5,1.5,0,0,1,0,3H5a2,2,0,0,0-2,2V35a2,2,0,0,0,2,2H25a2,2,0,0,0,2-2V30.5a1.5,1.5,0,0,1,3,0V35a5,5,0,0,1-5,5H5a5,5,0,0,1-5-5Z" transform="translate(0 0)"/><path class="cls-1" d="M25.46,6.77a.5.5,0,0,0-.95,0l-1.3,4.05a2.49,2.49,0,0,1-2.38,1.73H16.56a.5.5,0,0,0-.29.91L19.76,16a2.5,2.5,0,0,1,.89,2.78l-1.31,4.12a.5.5,0,0,0,.77.55L23.5,21a2.51,2.51,0,0,1,3,0l3.39,2.5a.5.5,0,0,0,.77-.55l-1.32-4.12a2.52,2.52,0,0,1,.9-2.78l3.49-2.57a.5.5,0,0,0-.3-.91H29.14a2.49,2.49,0,0,1-2.38-1.73ZM23.08,1.39a2,2,0,0,1,3.81,0L29.5,9.55H38a2,2,0,0,1,1.19,3.61l-6.87,5.07,2.62,8.2a2,2,0,0,1-3.09,2.22l-6.83-5-6.82,5a2,2,0,0,1-3.1-2.22l2.63-8.2-6.87-5.07A2,2,0,0,1,12,9.55h8.47Z" transform="translate(0 0)"/></svg>