<svg id="Layer_1" data-name="Layer 1" xmlns="http://www.w3.org/2000/svg" viewBox="0 0 114 112"><defs><style>.cls-1,.cls-3{fill:#ed8830;}.cls-1{fill-rule:evenodd;}.cls-2{fill:#fff;}</style></defs><path class="cls-1" d="M42,32.42a3.49,3.49,0,0,1,0,4.93L30.86,48.5a5.82,5.82,0,0,1-8.23,0l-4.17-4.17a3.49,3.49,0,0,1,4.94-4.94l3.34,3.35L37.07,32.42A3.47,3.47,0,0,1,42,32.42Z"/><path class="cls-1" d="M42,65a3.49,3.49,0,0,1,0,4.93L30.86,81.05a5.81,5.81,0,0,1-8.23,0l-4.17-4.16A3.49,3.49,0,0,1,23.4,72l3.34,3.35L37.07,65A3.47,3.47,0,0,1,42,65Z"/><path class="cls-1" d="M50,39.53a3.48,3.48,0,0,1,3.49-3.48H82.56a3.49,3.49,0,1,1,0,7H53.49A3.49,3.49,0,0,1,50,39.53Z"/><path class="cls-1" d="M50,72.09a3.49,3.49,0,0,1,3.49-3.49H82.56a3.49,3.49,0,0,1,0,7H53.49A3.49,3.49,0,0,1,50,72.09Z"/><path class="cls-1" d="M27.91,10.47A10.46,10.46,0,0,1,38.37,0H61.63a10.47,10.47,0,0,1,0,20.93H38.37A10.46,10.46,0,0,1,27.91,10.47ZM38.37,7a3.49,3.49,0,1,0,0,7H61.63a3.49,3.49,0,1,0,0-7Z"/><path class="cls-1" d="M24.42,10.47A3.49,3.49,0,0,0,20.93,7h-9.3A11.63,11.63,0,0,0,0,18.6V88.37A11.63,11.63,0,0,0,11.63,100H88.37A11.63,11.63,0,0,0,100,88.37V18.6A11.63,11.63,0,0,0,88.37,7h-9.3a3.49,3.49,0,0,0-3.49,3.49h0A3.48,3.48,0,0,0,79.07,14h9.3A4.65,4.65,0,0,1,93,18.6V88.37A4.65,4.65,0,0,1,88.37,93H11.63A4.65,4.65,0,0,1,7,88.37V18.6A4.65,4.65,0,0,1,11.63,14h9.3a3.48,3.48,0,0,0,3.49-3.48Z"/><rect class="cls-2" x="65" y="53" width="49" height="59"/><path class="cls-3" d="M96.5,50h0a3.5,3.5,0,0,1,3.5,3.5v1.4a3.5,3.5,0,0,1-3.5,3.5h0A3.5,3.5,0,0,1,93,54.9V53.5A3.5,3.5,0,0,1,96.5,50Z"/><path class="cls-3" d="M61,96.5h0A3.5,3.5,0,0,1,64.5,93h1.4a3.5,3.5,0,0,1,3.5,3.5h0a3.5,3.5,0,0,1-3.5,3.5H64.5A3.5,3.5,0,0,1,61,96.5Z"/><path class="cls-3" d="M50,72h0a4,4,0,0,1,4-4H68a4,4,0,0,1,4,4h0a4,4,0,0,1-4,4H54A4,4,0,0,1,50,72Z"/><path class="cls-3" d="M94,62a10,10,0,0,1,10,10v5h4.38a5.69,5.69,0,0,1,2.15.43,5.6,5.6,0,0,1,1.82,1.22,5.61,5.61,0,0,1,1.65,4v23.76a5.63,5.63,0,0,1-5.62,5.62H79.62A5.63,5.63,0,0,1,74,106.38V82.62A5.63,5.63,0,0,1,79.62,77H84V72A10,10,0,0,1,94,62Zm12.38,20.75H81.62a1.88,1.88,0,0,0-1.87,1.87v19.76a1.87,1.87,0,0,0,1.87,1.87h24.76a1.88,1.88,0,0,0,1.87-1.87V84.62a1.88,1.88,0,0,0-1.87-1.87ZM94,89.75a6.57,6.57,0,0,1,3.65,1.1,6.61,6.61,0,0,1,0,7.3,6.61,6.61,0,0,1-7.3,0,6.61,6.61,0,0,1,0-7.3A6.57,6.57,0,0,1,94,89.75Zm0-24A6.25,6.25,0,0,0,87.75,72v5h12.5V72A6.25,6.25,0,0,0,94,65.75Z"/></svg>