<svg id="Layer_1" data-name="Layer 1" xmlns="http://www.w3.org/2000/svg" xmlns:xlink="http://www.w3.org/1999/xlink" viewBox="0 0 168 105.5"><defs><style>.cls-1,.cls-2{fill:#ed8830;}.cls-2,.cls-3{fill-rule:evenodd;}.cls-3{fill:url(#linear-gradient);}</style><linearGradient id="linear-gradient" x1="166.5" y1="86.5" x2="1.5" y2="86.5" gradientTransform="matrix(1, 0, 0, -1, 0, 108)" gradientUnits="userSpaceOnUse"><stop offset="0" stop-color="#ed8830"/><stop offset="1" stop-color="#fbca11"/></linearGradient></defs><path class="cls-1" d="M35.43,13.28h5.16a7.14,7.14,0,0,1,2.79.49,3.88,3.88,0,0,1,1.78,1.44,4.22,4.22,0,0,1,.63,2.36,4.37,4.37,0,0,1-.39,1.91,3.67,3.67,0,0,1-1.11,1.36,5.55,5.55,0,0,1-1.66.86l-.84.43H37.23l0-2.12h3.41A3,3,0,0,0,42,19.72a2,2,0,0,0,.82-.81,2.43,2.43,0,0,0,.28-1.19,2.65,2.65,0,0,0-.27-1.23,1.86,1.86,0,0,0-.83-.81,3.08,3.08,0,0,0-1.41-.28H38.11V27.5H35.43Zm8,14.22-3.29-6.37H43l3.33,6.24v.14Zm9.24.2a5.51,5.51,0,0,1-2.16-.4,4.84,4.84,0,0,1-1.63-1.08,5,5,0,0,1-1-1.63,5.59,5.59,0,0,1-.35-2v-.39A6.47,6.47,0,0,1,47.88,20a5,5,0,0,1,1-1.73,4.41,4.41,0,0,1,1.55-1.11,5.28,5.28,0,0,1,4,0,4,4,0,0,1,1.44,1.05,4.85,4.85,0,0,1,.87,1.64,7.35,7.35,0,0,1,.29,2.1V23H48.7V21.22h5.74V21a3.16,3.16,0,0,0-.23-1.13,1.86,1.86,0,0,0-.67-.82,2,2,0,0,0-1.16-.31,1.94,1.94,0,0,0-1,.25,2.07,2.07,0,0,0-.7.71,3.46,3.46,0,0,0-.41,1.07,6.61,6.61,0,0,0-.14,1.39v.39a4.06,4.06,0,0,0,.18,1.23,2.75,2.75,0,0,0,.54,1,2.51,2.51,0,0,0,.86.65,2.78,2.78,0,0,0,1.15.22,3.29,3.29,0,0,0,1.46-.31,3.08,3.08,0,0,0,1.15-1l1.3,1.35a4.33,4.33,0,0,1-.89.94,4.83,4.83,0,0,1-1.35.73A5.67,5.67,0,0,1,52.69,27.7ZM65.43,16.93h2.34V27.18a4.46,4.46,0,0,1-.63,2.43,3.86,3.86,0,0,1-1.72,1.52,6.05,6.05,0,0,1-2.59.53,5.88,5.88,0,0,1-1.38-.18A5.29,5.29,0,0,1,60,30.93a3.53,3.53,0,0,1-1.13-1l1.16-1.52a3.64,3.64,0,0,0,1.2.93,3.29,3.29,0,0,0,1.43.32,2.75,2.75,0,0,0,1.33-.3,1.87,1.87,0,0,0,.85-.84,2.74,2.74,0,0,0,.3-1.34V19.35Zm-7.14,5.41v-.2a7.56,7.56,0,0,1,.29-2.2,5.46,5.46,0,0,1,.84-1.71,3.8,3.8,0,0,1,3.12-1.49,3.71,3.71,0,0,1,1.75.38,3.16,3.16,0,0,1,1.19,1.08,5.69,5.69,0,0,1,.75,1.67A14.85,14.85,0,0,1,66.65,22v.56a11.16,11.16,0,0,1-.44,2.06,6.39,6.39,0,0,1-.78,1.64,3.38,3.38,0,0,1-1.22,1.07,3.49,3.49,0,0,1-1.69.39,3.75,3.75,0,0,1-1.76-.41,3.89,3.89,0,0,1-1.34-1.12,5.51,5.51,0,0,1-.84-1.7A7.22,7.22,0,0,1,58.29,22.34Zm2.58-.2v.2A5.72,5.72,0,0,0,61,23.62a3.46,3.46,0,0,0,.42,1.06,2.16,2.16,0,0,0,.71.7,2,2,0,0,0,1,.25,2.38,2.38,0,0,0,1.31-.33,2.19,2.19,0,0,0,.78-.92A4.33,4.33,0,0,0,65.6,23V21.5a4.5,4.5,0,0,0-.21-1.08,2.79,2.79,0,0,0-.44-.86,2,2,0,0,0-.73-.57,2.54,2.54,0,0,0-1-.2,2,2,0,0,0-1,.26,2.07,2.07,0,0,0-.72.72A3.62,3.62,0,0,0,61,20.83,6,6,0,0,0,60.87,22.14Zm12-5.21V27.5H70.24V16.93Zm-2.77-2.76a1.28,1.28,0,0,1,.4-1,1.49,1.49,0,0,1,1.07-.38,1.46,1.46,0,0,1,1.06.38,1.28,1.28,0,0,1,.4,1,1.25,1.25,0,0,1-.4.95,1.46,1.46,0,0,1-1.06.38,1.49,1.49,0,0,1-1.07-.38A1.25,1.25,0,0,1,70.06,14.17Zm11,10.44a1.06,1.06,0,0,0-.18-.6,1.44,1.44,0,0,0-.66-.47,6.76,6.76,0,0,0-1.41-.42,11.72,11.72,0,0,1-1.51-.44A5,5,0,0,1,76.15,22a2.87,2.87,0,0,1-.78-.89A2.41,2.41,0,0,1,75.09,20a2.72,2.72,0,0,1,.29-1.23,3,3,0,0,1,.82-1A3.91,3.91,0,0,1,77.51,17a6.14,6.14,0,0,1,4,.18,3.35,3.35,0,0,1,1.49,1.21,3,3,0,0,1,.52,1.72H81a1.48,1.48,0,0,0-.19-.76,1.4,1.4,0,0,0-.58-.55,2.07,2.07,0,0,0-1-.22,2,2,0,0,0-.9.18,1.33,1.33,0,0,0-.55.46,1.16,1.16,0,0,0-.19.62,1.11,1.11,0,0,0,.1.46,1.15,1.15,0,0,0,.34.36,2.55,2.55,0,0,0,.64.31,8.87,8.87,0,0,0,1,.26,9.84,9.84,0,0,1,2.06.63,3.37,3.37,0,0,1,1.39,1,2.55,2.55,0,0,1,.5,1.62,2.79,2.79,0,0,1-.3,1.29,3.12,3.12,0,0,1-.88,1,4.66,4.66,0,0,1-1.38.67,6.3,6.3,0,0,1-1.81.24,5.39,5.39,0,0,1-2.46-.52,3.91,3.91,0,0,1-1.52-1.33,3,3,0,0,1-.52-1.68h2.47a1.67,1.67,0,0,0,.33,1,1.81,1.81,0,0,0,.77.53,2.92,2.92,0,0,0,1,.16,2.63,2.63,0,0,0,1-.16,1.28,1.28,0,0,0,.6-.44A1,1,0,0,0,81.1,24.61Zm9.48-7.68v1.86h-6V16.93Zm-4.43-2.59h2.59V24.45a1.75,1.75,0,0,0,.12.73.67.67,0,0,0,.38.34,1.87,1.87,0,0,0,.61.09,3.38,3.38,0,0,0,.47,0l.36-.06v1.93a6,6,0,0,1-.73.18,6.13,6.13,0,0,1-.91.07,3.58,3.58,0,0,1-1.52-.3,2.16,2.16,0,0,1-1-1,3.8,3.8,0,0,1-.36-1.78Zm8.73,4.75V27.5H92.3V16.93h2.44Zm3.21-2.22,0,2.4a3.12,3.12,0,0,0-.49-.06l-.49,0a2.82,2.82,0,0,0-1,.17,1.88,1.88,0,0,0-.75.45,2,2,0,0,0-.45.75,3.49,3.49,0,0,0-.18,1l-.55-.07a8.35,8.35,0,0,1,.2-1.86,5.35,5.35,0,0,1,.6-1.5,2.77,2.77,0,0,1,1-1,2.56,2.56,0,0,1,1.36-.36,2.45,2.45,0,0,1,.46,0A1.59,1.59,0,0,1,98.09,16.87ZM105,25.25V20.38a2.2,2.2,0,0,0-.19-.93,1.27,1.27,0,0,0-.57-.6,1.84,1.84,0,0,0-1-.22,2.14,2.14,0,0,0-.91.18,1.29,1.29,0,0,0-.79,1.22H99a2.56,2.56,0,0,1,.31-1.24,3.43,3.43,0,0,1,.89-1.06,4.53,4.53,0,0,1,1.4-.73,6.18,6.18,0,0,1,1.83-.26,5.34,5.34,0,0,1,2.14.41,3.3,3.3,0,0,1,1.49,1.21,3.6,3.6,0,0,1,.54,2V25a8.71,8.71,0,0,0,.1,1.36,3.87,3.87,0,0,0,.31,1v.17h-2.62a3.9,3.9,0,0,1-.29-1A8.48,8.48,0,0,1,105,25.25Zm.36-4.19,0,1.54h-1.63a4.26,4.26,0,0,0-1.07.12,1.94,1.94,0,0,0-.75.36,1.42,1.42,0,0,0-.44.54,1.66,1.66,0,0,0-.15.72,1.38,1.38,0,0,0,.18.7,1.35,1.35,0,0,0,.53.5,1.9,1.9,0,0,0,.82.17,2.52,2.52,0,0,0,1.19-.27,2.42,2.42,0,0,0,.79-.68,1.44,1.44,0,0,0,.3-.77l.74,1.12a4.08,4.08,0,0,1-.41.85,3.64,3.64,0,0,1-.7.84,3.53,3.53,0,0,1-1,.64,3.65,3.65,0,0,1-1.41.26,4.08,4.08,0,0,1-1.84-.41,3.34,3.34,0,0,1-1.28-1.13,2.87,2.87,0,0,1-.46-1.62,3.32,3.32,0,0,1,.31-1.48A2.94,2.94,0,0,1,100,22a4.25,4.25,0,0,1,1.52-.67,8.31,8.31,0,0,1,2.1-.24Zm7.14-2V27.5h-2.58V16.93h2.44Zm3.21-2.22,0,2.4a3.28,3.28,0,0,0-.49-.06l-.5,0a2.8,2.8,0,0,0-1,.17,1.88,1.88,0,0,0-.75.45,2,2,0,0,0-.45.75,3.16,3.16,0,0,0-.18,1l-.55-.07a7.8,7.8,0,0,1,.2-1.86,5.35,5.35,0,0,1,.6-1.5,2.82,2.82,0,0,1,1-1,2.59,2.59,0,0,1,1.37-.36,2.53,2.53,0,0,1,.46,0A1.59,1.59,0,0,1,115.71,16.87Zm6.9.06v1.86h-6V16.93Zm-4.43-2.59h2.59V24.45a1.75,1.75,0,0,0,.12.73.68.68,0,0,0,.39.34,1.76,1.76,0,0,0,.6.09,3.38,3.38,0,0,0,.47,0l.36-.06v1.93a5.57,5.57,0,0,1-.73.18,6.13,6.13,0,0,1-.91.07,3.58,3.58,0,0,1-1.52-.3,2.16,2.16,0,0,1-1-1,3.8,3.8,0,0,1-.36-1.78Zm10.9,13.36a5.51,5.51,0,0,1-2.16-.4,4.74,4.74,0,0,1-1.63-1.08,5,5,0,0,1-1-1.63,5.82,5.82,0,0,1-.35-2v-.39a6.71,6.71,0,0,1,.35-2.22,5.17,5.17,0,0,1,1-1.73,4.37,4.37,0,0,1,1.54-1.11,5.31,5.31,0,0,1,4,0,3.88,3.88,0,0,1,1.43,1.05,4.53,4.53,0,0,1,.87,1.64,7,7,0,0,1,.3,2.1V23h-8.29V21.22h5.75V21a3.16,3.16,0,0,0-.24-1.13,1.78,1.78,0,0,0-.66-.82,2,2,0,0,0-1.16-.31,1.94,1.94,0,0,0-1,.25,2.07,2.07,0,0,0-.7.71,3.23,3.23,0,0,0-.41,1.07,6.61,6.61,0,0,0-.14,1.39v.39a4.06,4.06,0,0,0,.18,1.23,2.89,2.89,0,0,0,.53,1,2.61,2.61,0,0,0,.86.65,2.81,2.81,0,0,0,1.15.22,3.37,3.37,0,0,0,1.47-.31,3.16,3.16,0,0,0,1.15-1l1.3,1.35a4.16,4.16,0,0,1-.9.94,4.57,4.57,0,0,1-1.35.73A5.57,5.57,0,0,1,129.08,27.7Z"/><path class="cls-2" d="M117.89,40.35a2.28,2.28,0,0,1,.73-1.85,2.91,2.91,0,0,1,1.93-.64,3,3,0,0,1,1.94.65,2.34,2.34,0,0,1,.74,1.87V68.17a2.66,2.66,0,1,0,5.32,0v-1h0V60a2.69,2.69,0,1,1,5.38,0v.94a7.56,7.56,0,0,0,0,.83v4.84a2.42,2.42,0,0,0,0,.47v0a2.66,2.66,0,1,0,5.32,0V61.29a2.66,2.66,0,0,1,5.28.48v5.35h0a2.66,2.66,0,1,0,5.32,0h0a2.66,2.66,0,0,1,2.65-2.66h0a2.66,2.66,0,0,1,2.66,2.67v23.3a10.06,10.06,0,0,1-9.86,9.71H125c-2.73,0-6.25-2.27-9.31-6.1s-4.82-8.1-4.82-10.86a10.84,10.84,0,0,1,1.74-6.58v.24a2.67,2.67,0,1,0,5.33,0Zm31.69,19.31a7.86,7.86,0,0,1,2.92-.56h0a8,8,0,0,1,8,8v23.3c0,6.73-5.67,15.07-15.18,15.07H125c-5.23,0-10.11-3.92-13.45-8.1s-6-9.73-6-14.22c0-5.41,1.74-9.85,5.71-12.59a2.62,2.62,0,0,1,1.35-.47V40.35a7.62,7.62,0,0,1,2.6-5.92,8.47,8.47,0,0,1,10.8,0,7.63,7.63,0,0,1,2.59,5.92v12a8,8,0,0,1,9,2.61,7.93,7.93,0,0,1,4.33-1.29A8,8,0,0,1,149.58,59.66Z"/><path class="cls-3" d="M16.5,0A16.5,16.5,0,0,0,0,16.5v10A16.5,16.5,0,0,0,16.5,43H107a1.5,1.5,0,0,0,0-3H16.5A13.49,13.49,0,0,1,3,26.5v-10A13.49,13.49,0,0,1,16.5,3h135A13.49,13.49,0,0,1,165,16.5v10A13.49,13.49,0,0,1,151.5,40H134a1.5,1.5,0,0,0,0,3h17.5A16.5,16.5,0,0,0,168,26.5v-10A16.5,16.5,0,0,0,151.5,0Z"/></svg>