<svg id="Layer_1" data-name="Layer 1" xmlns="http://www.w3.org/2000/svg" viewBox="0 0 123 133.04"><defs><style>.cls-1{fill:#ed8830;fill-rule:evenodd;}</style></defs><path class="cls-1" d="M107.71,85.93a2.09,2.09,0,0,1,2.28.44l6,6h0a23.5,23.5,0,0,1,7,16.72V131a2.09,2.09,0,1,1-4.18,0V109.1h0a19.47,19.47,0,0,0-5.74-13.76l-2.47-2.45v15.24a5.19,5.19,0,0,1-8.85,3.66h0l-4-4a3.77,3.77,0,0,0-2.22-.9,3.16,3.16,0,0,0-2.58.9,3.11,3.11,0,0,0-.9,2.54,3.75,3.75,0,0,0,.9,2.19h0l17,16.92a2.09,2.09,0,0,1-2.95,3L90,115.5a7.88,7.88,0,0,1-2.12-4.81A7.33,7.33,0,0,1,90,104.84h0a7.37,7.37,0,0,1,5.87-2.1,7.89,7.89,0,0,1,4.83,2.1h0l4,4a1,1,0,0,0,1.72-.69V87.86A2.07,2.07,0,0,1,107.71,85.93Z"/><path class="cls-1" d="M99.24,43.46a5.39,5.39,0,0,1,5.39,5.38v60.77H110V48.84A10.79,10.79,0,0,0,99.24,38.07H66.86a10.79,10.79,0,0,0-10.8,10.77v64.64a10.77,10.77,0,0,0,10.8,10.77H98.73v-5.38H66.86a5.39,5.39,0,0,1-5.4-5.39V48.84a5.39,5.39,0,0,1,5.4-5.38Zm-16.19,70a5.39,5.39,0,1,0-3.82-1.58A5.35,5.35,0,0,0,83.05,113.48Z"/><path class="cls-1" d="M22.29,22.75a21.31,21.31,0,0,1,42.44,0,1.69,1.69,0,0,0,1.69,1.54h.09A17.12,17.12,0,0,1,83.63,41.42a18.18,18.18,0,0,1-.12,2.09h3.4A20.74,20.74,0,0,0,87,41.42,20.52,20.52,0,0,0,67.92,21,24.69,24.69,0,0,0,19.1,21a20.51,20.51,0,0,0,1.41,41H41.82v23.4a1.69,1.69,0,1,0,3.38,0V61.93H59.41V58.54H45.2v-6l10-10a1.69,1.69,0,0,0-2.39-2.4L45.2,47.79V45.6h0V31a1.69,1.69,0,1,0-3.38,0V41.51l-9.66-9.65a1.69,1.69,0,1,0-2.39,2.39l12.05,12V58.54H20.51a17.13,17.13,0,0,1,0-34.25h.09A1.69,1.69,0,0,0,22.29,22.75Z"/></svg>