<svg width="18" height="24" viewBox="0 0 18 24" fill="none" xmlns="http://www.w3.org/2000/svg">
<path d="M17.07 5.47989C15.69 2.56989 12.98 0.669893 9.83002 0.419893C9.28002 0.379893 8.71002 0.379893 8.16002 0.419893C5.01002 0.679893 2.31002 2.56989 0.920023 5.47989C-0.519977 8.50989 -0.239977 12.0999 1.64002 14.8299L6.94002 22.5299C7.40002 23.1999 8.17002 23.5999 8.98002 23.5999C9.79002 23.5999 10.56 23.1999 11.02 22.5299L12.78 19.9699C12.93 19.7499 12.88 19.4499 12.66 19.2999C12.44 19.1499 12.14 19.1999 11.99 19.4199L10.23 21.9799C9.66002 22.8099 8.31002 22.8099 7.74002 21.9799L2.44002 14.2799C0.750022 11.8299 0.500023 8.60989 1.79002 5.88989C3.02002 3.28989 5.43002 1.60989 8.23002 1.37989C8.73002 1.33989 9.24002 1.33989 9.74002 1.37989C12.54 1.60989 14.95 3.28989 16.18 5.88989C17.46 8.57989 17.22 11.7399 15.59 14.1899C15.5 14.1699 15.41 14.1299 15.31 14.1299C14.64 14.1299 14.1 14.6699 14.1 15.3399C14.1 16.0099 14.64 16.5499 15.31 16.5499C15.98 16.5499 16.52 16.0099 16.52 15.3399C16.52 15.1299 16.46 14.9499 16.36 14.7799C18.22 12.0499 18.49 8.48989 17.06 5.47989H17.07Z" fill="white"/>
<path d="M5.01001 9.04981C5.01001 11.2498 6.80001 13.0398 9.00001 13.0398C11.2 13.0398 12.99 11.2498 12.99 9.04981C12.99 6.84981 11.2 5.05981 9.00001 5.05981C6.80001 5.05981 5.01001 6.84981 5.01001 9.04981ZM12.03 9.04981C12.03 10.7198 10.67 12.0698 9.01001 12.0698C7.35001 12.0698 5.99001 10.7098 5.99001 9.04981C5.99001 7.38981 7.35001 6.02981 9.01001 6.02981C10.67 6.02981 12.03 7.38981 12.03 9.04981Z" fill="white"/>
</svg>
