<svg width="300" height="300" viewBox="0 0 300 300" fill="none" xmlns="http://www.w3.org/2000/svg">
<circle cx="150" cy="150" r="150" fill="#C4DDD1" fill-opacity="0.15"/>
<path d="M181.275 77.8875H155.062C154.312 76.2 152.662 75 150.675 75C148.05 75 145.912 77.1375 145.912 79.7625C145.912 82.3875 148.05 84.525 150.675 84.525C152.625 84.525 154.312 83.325 155.062 81.6375H181.275C193.725 81.6375 203.85 91.7625 203.85 104.212V198.6C203.85 211.05 193.725 221.175 181.275 221.175H120.112C107.663 221.175 97.5375 211.05 97.5375 198.6V104.25C97.5375 91.8 107.663 81.675 120.112 81.675H132.412C133.462 81.675 134.325 80.8125 134.325 79.7625C134.325 78.7125 133.462 77.85 132.412 77.85H120.112C105.562 77.8875 93.75 89.7 93.75 104.25V198.638C93.75 213.188 105.562 225 120.112 225H181.275C195.825 225 207.637 213.188 207.637 198.638V104.25C207.637 89.7 195.825 77.8875 181.275 77.8875Z" fill="#201A18"/>
<path d="M186 118.2C184.125 118.2 182.513 119.325 181.763 120.9H119.625C118.838 119.325 117.263 118.2 115.388 118.2C112.763 118.2 110.625 120.338 110.625 122.963C110.625 125.588 112.763 127.725 115.388 127.725C117.263 127.725 118.875 126.6 119.625 125.025H181.725C182.513 126.6 184.088 127.725 185.963 127.725C188.588 127.725 190.725 125.588 190.725 122.963C190.725 120.338 188.588 118.2 185.963 118.2H186Z" fill="#201A18"/>
<path d="M186 146.7C184.125 146.7 182.513 147.825 181.763 149.4H112.725C111.6 149.4 110.663 150.3 110.663 151.463C110.663 152.625 111.563 153.525 112.725 153.525H181.763C182.55 155.1 184.125 156.225 186 156.225C188.625 156.225 190.763 154.088 190.763 151.463C190.763 148.838 188.625 146.7 186 146.7Z" fill="#201A18"/>
<path d="M119.625 177.863C118.838 176.288 117.263 175.163 115.388 175.163C112.763 175.163 110.625 177.3 110.625 179.925C110.625 182.55 112.763 184.688 115.388 184.688C117.263 184.688 118.875 183.563 119.625 181.988H188.663C189.788 181.988 190.725 181.088 190.725 179.925C190.725 178.763 189.825 177.863 188.663 177.863H119.625Z" fill="#201A18"/>
</svg>
