<svg width="24" height="24" viewBox="0 0 24 24" fill="none" xmlns="http://www.w3.org/2000/svg">
<path fill-rule="evenodd" clip-rule="evenodd" d="M4.395 7.0274L9.525 9.9899C10.1775 10.3649 10.56 11.0399 10.56 11.7899C10.56 12.5399 10.17 13.2149 9.525 13.5899L4.395 16.5524C3.5325 17.0474 3 17.9774 3 18.9674C3 19.9574 3.5175 20.8799 4.395 21.3824C5.265 21.8849 6.3075 21.8849 7.185 21.3824L19.605 14.1974C20.475 13.6949 21 12.7949 21 11.7824C21 10.7699 20.4825 9.8699 19.605 9.3674L13.4175 5.7974C13.4175 5.7974 13.4325 5.7449 13.4325 5.7149C13.4325 5.2274 13.035 4.8224 12.54 4.8224C12.045 4.8224 11.6475 5.2199 11.6475 5.7149C11.6475 6.2099 12.045 6.6074 12.54 6.6074C12.7425 6.6074 12.915 6.5324 13.065 6.4199L19.2525 9.9899C19.905 10.3649 20.2875 11.0399 20.2875 11.7899C20.2875 12.5399 19.8975 13.2149 19.2525 13.5899L6.825 20.7524C6.1725 21.1274 5.4 21.1274 4.7475 20.7524C4.095 20.3774 3.7125 19.7024 3.7125 18.9524C3.7125 18.2024 4.11 17.5274 4.7475 17.1524L9.8775 14.1899C10.7475 13.6874 11.2725 12.7874 11.2725 11.7749C11.2725 10.7624 10.755 9.8624 9.8775 9.3599L4.7475 6.3974C4.11 6.0299 3.7125 5.3399 3.7125 4.5974C3.7125 3.8549 4.1025 3.1724 4.7475 2.7974C5.3925 2.4224 6.1725 2.4224 6.825 2.7974L8.79 3.9299C8.9625 4.0274 9.18 3.9674 9.2775 3.8024C9.375 3.6299 9.315 3.4124 9.15 3.3149L7.185 2.1824C6.75 1.9274 6.27 1.8074 5.79 1.8074C5.31 1.8074 4.83 1.9349 4.395 2.1824C3.525 2.6849 3 3.5924 3 4.5974C3 5.6024 3.5325 6.5174 4.395 7.0124L4.395 7.0274Z" fill="black"/>
</svg>
