<svg width="26" height="21" viewBox="0 0 26 21" fill="none" xmlns="http://www.w3.org/2000/svg">
<path d="M11.7661 15.5268H5.79736C2.92415 15.5223 0.594971 13.2803 0.594971 10.5143C0.594971 7.74946 2.92415 5.50741 5.79736 5.50741C6.23638 3.53906 7.80145 1.93266 9.90274 1.29255C12.0029 0.653566 14.322 1.07695 15.9843 2.40967C17.6466 3.73903 18.3995 5.76882 17.9616 7.73717H19.0675C20.6091 7.73717 21.9385 8.64315 22.5618 9.95575" stroke="white" stroke-linecap="round" stroke-linejoin="round"/>
<circle cx="22.9372" cy="10.4953" r="1.39639" fill="white"/>
<path d="M18.4984 11.6273C19.5125 11.6226 20.4869 12.021 21.2072 12.7347C21.9276 13.4484 22.3349 14.4191 22.3396 15.4332C22.3443 16.4472 21.946 17.4216 21.2322 18.142L19.9136 19.4606M19.9136 19.4606L22.682 19.6417M19.9136 19.4606L19.6936 16.6534" stroke="white" stroke-linecap="round"/>
<path d="M17.7208 20.2081C16.7068 20.2081 15.7342 19.8053 15.0172 19.0882C14.3001 18.3712 13.8973 17.3986 13.8973 16.3845C13.8973 15.3705 14.3001 14.3979 15.0172 13.6809L16.3419 12.3684M16.3419 12.3684L13.5744 12.1744M16.3419 12.3684L16.5489 15.1765" stroke="white" stroke-linecap="round"/>
</svg>
