<svg width="40" height="41" viewBox="0 0 40 41" fill="none" xmlns="http://www.w3.org/2000/svg">
<path d="M38.7397 7.715C37.8995 6.875 36.8692 6.445 35.6789 6.445H32.2581C30.7477 6.445 29.2873 5.805 28.2571 4.695C27.0368 3.375 25.3063 2.625 23.5059 2.625H17.2443C15.4439 2.625 13.7134 3.385 12.4931 4.695C11.4629 5.805 10.0125 6.445 8.49212 6.445H5.07127C3.89097 6.445 2.86071 6.875 2.0205 7.715C1.18029 8.555 0.750188 9.585 0.750188 10.775V19.665C0.310077 19.865 0 20.305 0 20.815C0 21.515 0.570143 22.085 1.27032 22.085C1.97049 22.085 2.54063 21.515 2.54063 20.815C2.54063 20.295 2.22055 19.845 1.77044 19.645V10.765C1.77044 9.845 2.09052 9.075 2.75069 8.425C3.40085 7.775 4.17104 7.455 5.08127 7.455H8.50212C10.3026 7.455 12.033 6.695 13.2533 5.385C14.2836 4.275 15.7339 3.635 17.2543 3.635H23.5159C25.0263 3.635 26.4866 4.275 27.5169 5.385C28.7372 6.705 30.4676 7.455 32.2681 7.455H35.6889C36.6091 7.455 37.3793 7.775 38.0295 8.435C38.6797 9.095 38.9997 9.855 38.9997 10.775V33.715C38.9997 34.635 38.6797 35.405 38.0195 36.055C37.3693 36.705 36.5991 37.025 35.6889 37.025H5.08127C4.16104 37.025 3.39085 36.705 2.74068 36.045C2.08052 35.385 1.77044 34.625 1.77044 33.705V29.745C1.77044 29.465 1.54039 29.235 1.26031 29.235C0.980245 29.235 0.750188 29.465 0.750188 29.745V33.705C0.750188 34.895 1.18029 35.915 2.0205 36.765C2.86071 37.605 3.89097 38.035 5.08127 38.035H35.6789C36.8592 38.035 37.8895 37.605 38.7297 36.765C39.5699 35.925 40 34.895 40 33.705V10.765C40 9.575 39.5699 8.555 38.7297 7.705L38.7397 7.715Z" fill="#201A18"/>
<path d="M20.385 31.345C22.9056 31.345 25.0762 30.455 26.8366 28.685C28.597 26.925 29.4973 24.755 29.4973 22.235C29.4973 19.715 28.607 17.545 26.8366 15.785C25.0762 14.025 22.9056 13.125 20.395 13.125C17.8744 13.125 15.7038 14.015 13.9434 15.785C12.1829 17.545 11.2827 19.715 11.2827 22.235C11.2827 24.755 12.1729 26.925 13.9434 28.685C15.7038 30.445 17.8744 31.345 20.395 31.345H20.385ZM12.293 22.235C12.293 19.965 13.0632 18.095 14.6536 16.505C16.244 14.915 18.1244 14.145 20.395 14.145C22.6656 14.145 24.536 14.915 26.1264 16.505C27.7168 18.095 28.487 19.965 28.487 22.245C28.487 24.515 27.7168 26.385 26.1264 27.975C24.536 29.565 22.6656 30.335 20.395 30.335C18.1244 30.335 16.254 29.565 14.6636 27.975C13.0732 26.385 12.303 24.505 12.303 22.235H12.293Z" fill="#201A18"/>
</svg>
