<svg width="40" height="41" viewBox="0 0 40 41" fill="none" xmlns="http://www.w3.org/2000/svg">
<g clip-path="url(#clip0_485_2178)">
<path d="M37.3099 8.68756C35.5999 6.97756 33.3199 6.01756 30.8999 5.99756C28.5199 5.99756 26.1799 6.89756 24.4399 8.57756L10.1199 22.5176C9.6599 22.9676 9.2899 23.4976 9.0399 24.0876C8.7899 24.6776 8.6499 25.3076 8.6499 25.9576C8.6499 26.6076 8.7699 27.2376 9.0099 27.8276C9.2499 28.4276 9.6099 28.9576 10.0699 29.4176C10.5299 29.8776 11.0599 30.2276 11.6599 30.4776C12.2399 30.7176 12.8599 30.8376 13.4899 30.8376H13.5299C14.1799 30.8376 14.7999 30.6976 15.3999 30.4476C15.9899 30.1876 16.5199 29.8276 16.9599 29.3676L31.2799 15.0476C31.4699 14.8576 31.4699 14.5476 31.2799 14.3576C31.0899 14.1676 30.7799 14.1676 30.5899 14.3576L16.2699 28.6776C15.9099 29.0476 15.4899 29.3376 15.0199 29.5376C14.5499 29.7376 14.0499 29.8476 13.5299 29.8476C12.9999 29.8476 12.5099 29.7576 12.0399 29.5576C11.5599 29.3576 11.1399 29.0776 10.7699 28.7176C10.4099 28.3576 10.1199 27.9276 9.9299 27.4476C9.7299 26.9776 9.6399 26.4676 9.6399 25.9576C9.6399 25.4376 9.7499 24.9376 9.9499 24.4676C10.1499 23.9976 10.4499 23.5676 10.8199 23.2176L25.1399 9.27756C26.6799 7.78756 28.6999 6.97756 30.8399 6.97756C30.8599 6.97756 30.8899 6.97756 30.9099 6.97756C33.0699 6.99756 35.1099 7.84756 36.6399 9.37756C38.1699 10.9076 39.0199 12.9476 39.0399 15.1076C39.0599 17.2676 38.2399 19.3276 36.7399 20.8676L29.4899 27.9976C29.2999 28.1876 29.2999 28.4976 29.4899 28.6876C29.6799 28.8776 29.9899 28.8776 30.1799 28.6876L37.4399 21.5476C39.1199 19.8076 40.0399 17.5076 40.0199 15.0876C39.9999 12.6676 39.0399 10.3876 37.3299 8.67756L37.3099 8.68756Z" fill="#201A18"/>
<path d="M23.56 33.1075C22.89 33.1075 22.34 33.6575 22.34 34.3275C22.34 34.4975 22.37 34.6575 22.44 34.7975C22.44 34.7975 22.42 34.8075 22.41 34.8175C20.04 37.1875 16.89 38.4975 13.53 38.4975C10.17 38.4975 7.02 37.1875 4.65 34.8175C2.28 32.4475 0.97 29.2875 0.97 25.9375C0.97 22.5875 2.28 19.4275 4.65 17.0575L18.22 3.4575C18.41 3.2675 18.41 2.9575 18.22 2.7675C18.03 2.5775 17.72 2.5775 17.53 2.7675L3.96 16.3775C1.4 18.9375 0 22.3275 0 25.9475C0 29.5675 1.41 32.9575 3.96 35.5175C6.52 38.0775 9.91 39.4775 13.53 39.4775C17.15 39.4775 20.54 38.0675 23.1 35.5175C23.12 35.4975 23.12 35.4875 23.13 35.4675C23.26 35.5175 23.41 35.5575 23.56 35.5575C24.23 35.5575 24.78 35.0075 24.78 34.3375C24.78 33.6675 24.23 33.1175 23.56 33.1175V33.1075Z" fill="#201A18"/>
</g>
<defs>
<clipPath id="clip0_485_2178">
<rect width="40" height="40" fill="white" transform="translate(0 0.625)"/>
</clipPath>
</defs>
</svg>
