<svg width="12" height="17" viewBox="0 0 12 17" fill="none" xmlns="http://www.w3.org/2000/svg">
<path d="M0.577148 4.95996H10.6646" stroke="black" stroke-width="0.6" stroke-miterlimit="10" stroke-linecap="round"/>
<path d="M1.3125 7.32983L2.1075 14.8073C2.1825 15.4823 2.7525 15.9998 3.4275 15.9998H8.415C9.0975 15.9998 9.6675 15.4823 9.735 14.8073L10.4925 7.37483" stroke="black" stroke-width="0.6" stroke-miterlimit="10" stroke-linecap="round"/>
<path d="M3.50977 2.50743V1.83243C3.50977 1.36743 3.88477 0.992432 4.34977 0.992432H7.37977C7.84477 0.992432 8.21976 1.36743 8.21976 1.83243V4.93743" stroke="black" stroke-width="0.6" stroke-miterlimit="10" stroke-linecap="round"/>
<path d="M1.31977 8.18494C1.87067 8.18494 2.31727 7.73834 2.31727 7.18744C2.31727 6.63654 1.87067 6.18994 1.31977 6.18994C0.768862 6.18994 0.322266 6.63654 0.322266 7.18744C0.322266 7.73834 0.768862 8.18494 1.31977 8.18494Z" fill="black"/>
<path d="M10.6801 5.89002C11.231 5.89002 11.6776 5.44342 11.6776 4.89252C11.6776 4.34162 11.231 3.89502 10.6801 3.89502C10.1292 3.89502 9.68262 4.34162 9.68262 4.89252C9.68262 5.44342 10.1292 5.89002 10.6801 5.89002Z" fill="black"/>
<path d="M3.52484 4.04505C4.07575 4.04505 4.52234 3.59845 4.52234 3.04755C4.52234 2.49664 4.07575 2.05005 3.52484 2.05005C2.97394 2.05005 2.52734 2.49664 2.52734 3.04755C2.52734 3.59845 2.97394 4.04505 3.52484 4.04505Z" fill="black"/>
</svg>
