<svg width="228" height="252" viewBox="0 0 228 252" fill="none" xmlns="http://www.w3.org/2000/svg">
<path d="M70.1603 134.459H54.3366C49.0261 134.459 44.7212 130.154 44.7212 124.844V124.844C44.7212 119.534 49.0261 115.229 54.3366 115.229H99.7212C102.483 115.229 104.721 112.99 104.721 110.229V57.2159C104.721 52.4365 108.596 48.562 113.375 48.562V48.562C118.154 48.562 122.029 52.4365 122.029 57.2159V110.229C122.029 112.99 124.267 115.229 127.029 115.229H172.413C177.724 115.229 182.029 119.534 182.029 124.844V124.844C182.029 130.154 177.724 134.459 172.413 134.459H127.029C124.267 134.459 122.029 136.698 122.029 139.459V192.472C122.029 197.252 118.154 201.126 113.375 201.126V201.126C108.596 201.126 104.721 197.252 104.721 192.472V139.459C104.721 136.698 102.483 134.459 99.7212 134.459H85.0122" stroke="#201A18" stroke-linecap="round"/>
<path d="M225.375 203.169C225.375 203.445 225.599 203.669 225.875 203.669C226.151 203.669 226.375 203.445 226.375 203.169H225.375ZM10.875 1.125H215.875V0.125H10.875V1.125ZM215.875 250.125H10.875V251.125H215.875V250.125ZM1.375 240.625V10.625H0.375V240.625H1.375ZM225.375 10.625V203.169H226.375V10.625H225.375ZM225.375 222.053V240.625H226.375V222.053H225.375ZM10.875 250.125C5.62829 250.125 1.375 245.872 1.375 240.625H0.375C0.375 246.424 5.07601 251.125 10.875 251.125V250.125ZM215.875 251.125C221.674 251.125 226.375 246.424 226.375 240.625H225.375C225.375 245.872 221.122 250.125 215.875 250.125V251.125ZM215.875 1.125C221.122 1.125 225.375 5.37829 225.375 10.625H226.375C226.375 4.82601 221.674 0.125 215.875 0.125V1.125ZM10.875 0.125C5.07601 0.125 0.375 4.82602 0.375 10.625H1.375C1.375 5.3783 5.62829 1.125 10.875 1.125V0.125Z" fill="#201A18"/>
<circle cx="225.875" cy="222.113" r="1.25" fill="#201A18"/>
<circle cx="70.0269" cy="134.419" r="1.25" fill="#201A18"/>
</svg>
