<svg width="80" height="92" viewBox="0 0 80 92" fill="none" xmlns="http://www.w3.org/2000/svg">
<path d="M61.4176 12.7058C61.5484 12.6927 61.6661 12.793 61.6835 12.9281C61.6966 13.0153 61.6705 13.0894 61.5963 13.1505C61.0078 13.7085 60.3625 14.2099 59.6562 14.6372C58.9063 15.095 58.0997 15.4743 57.2756 15.7577C55.6276 16.3158 53.8792 16.4945 52.1614 16.3027C45.9747 15.5833 41.3313 10.0723 41.7106 3.85943C41.7848 2.59505 42.0638 1.34374 42.5347 0.162196C42.5783 0.0313977 42.7265 -0.0296416 42.8573 0.0139579C42.9314 0.0444775 42.975 0.101157 43.0055 0.175276C43.0927 0.454312 43.1799 0.720269 43.2846 0.986225C43.3413 1.14754 43.3413 1.33938 43.2977 1.5007C41.5929 7.12503 44.78 13.0589 50.3956 14.768C51.7603 15.1822 53.186 15.313 54.6117 15.1648C51.2894 13.9876 48.6604 11.3673 47.4396 8.05369C47.396 7.93598 47.4396 7.81826 47.5442 7.75722C47.6314 7.7267 47.7361 7.74414 47.7928 7.81826C48.159 8.15833 48.5296 8.49405 48.9263 8.80361C49.031 8.87772 49.1007 8.98236 49.1618 9.10008C50.7793 12.091 53.7179 14.1227 57.0838 14.5936C58.0691 14.2405 59.0109 13.7391 59.848 13.1069C60.1401 12.8845 60.5107 12.7668 60.877 12.7668L61.4219 12.7101L61.4176 12.7058Z" fill="#004F40"/>
<path d="M54.8211 55.7297C55.4228 55.7297 55.8937 55.2457 55.8937 54.6528C55.8937 54.0598 55.4097 53.5758 54.8211 53.5758C54.2326 53.5758 53.7486 54.0598 53.7486 54.6528C53.7486 54.7705 53.7617 54.8751 53.8053 54.9754C50.9408 58.1276 49.441 62.8102 48.896 64.7809C48.8829 64.855 48.8088 64.9117 48.7347 64.9117H48.6911C43.3283 64.9117 36.1257 62.0865 32.7032 60.4079C32.1015 60.1594 31.4388 60.1419 30.824 60.3643C30.2659 60.5997 29.7515 60.9398 29.3242 61.3671C29.2675 61.354 29.2065 61.354 29.1629 61.354C28.5612 61.354 28.0903 61.8379 28.0903 62.4309C28.0903 63.0238 28.5743 63.5078 29.1629 63.5078C29.7515 63.5078 30.2354 63.0238 30.2354 62.4309C30.2354 62.3001 30.2049 62.1649 30.1613 62.0472C30.4709 61.7507 30.8371 61.5153 31.2339 61.354C31.5565 61.2493 31.9096 61.2493 32.2323 61.3671C33.2002 61.8379 41.8416 65.9886 48.6911 65.9886H48.7347C49.2927 65.9886 49.7941 65.6049 49.938 65.0599C50.4525 63.1764 51.8782 58.6683 54.5988 55.6948C54.6729 55.7079 54.747 55.7253 54.8211 55.7253V55.7297Z" fill="#004F40"/>
<path d="M32.6726 64.092C32.6595 63.5035 32.1712 63.0326 31.5695 63.0326C30.9678 63.0457 30.497 63.534 30.51 64.1356C30.51 64.3406 30.5667 64.5498 30.6844 64.7112C25.4394 71.7219 23.3946 73.2087 21.0577 74.9309L20.8353 75.0922C20.2031 75.5325 19.5273 75.9162 18.821 76.2258C12.8697 78.506 11.928 83.8252 11.8102 86.0008C11.7666 86.6635 11.8844 87.3262 12.1503 87.9279L13.4016 90.8883H9.18555V81.8327C9.22915 76.313 12.6997 72.8643 14.7706 71.2903C15.8432 70.4968 16.5495 69.3153 16.7544 67.9942C16.9898 66.2851 16.9898 64.5629 16.7849 62.8538C16.58 60.9703 15.9173 59.174 14.8448 57.6132C12.7563 54.5656 12.1721 51.5746 13.2272 49.4426C14.182 47.485 13.0049 45.571 12.1852 44.5682C12.2157 44.4636 12.2419 44.3633 12.2419 44.2587C12.2419 43.6701 11.7579 43.1818 11.1693 43.1818C10.5807 43.1818 10.0968 43.6657 10.0968 44.2587C10.0968 44.8516 10.5807 45.3356 11.1693 45.3356C11.2434 45.3356 11.3306 45.3225 11.4048 45.305C12.0675 46.1291 12.9482 47.5853 12.2724 48.9718C11.0516 51.4744 11.6707 54.8446 13.9771 58.2192C14.945 59.6318 15.5511 61.2668 15.7385 62.9759C15.9435 64.5934 15.9304 66.2284 15.7255 67.8329C15.5641 68.8618 15.0061 69.8079 14.1515 70.4227C11.9323 72.1013 8.18712 75.8247 8.13916 81.8196V91.9477H15.0453L13.1487 87.4875C12.9569 87.0297 12.8697 86.5283 12.9002 86.0444C13.0179 84.0693 13.855 79.2734 19.2178 77.2111C20.0113 76.871 20.7743 76.4438 21.4806 75.9467L21.7029 75.7854C24.1271 74.0022 26.246 72.4413 31.6959 65.1559C32.2409 65.1254 32.6638 64.6545 32.6638 64.0964L32.6726 64.092Z" fill="#004F40"/>
<path d="M9.38177 47.7335C9.38177 48.3221 9.85264 48.8104 10.4543 48.8235C11.0429 48.8235 11.5269 48.3526 11.5399 47.7466C11.5399 47.2016 11.1432 46.7307 10.5982 46.6697C8.83678 42.5321 3.98416 40.339 1.1502 39.9118C1.1066 39.9118 1.07608 39.8812 1.063 39.8376C1.04992 39.8071 1.063 39.7635 1.09352 39.733C1.22431 39.6284 1.35947 39.5281 1.49027 39.4365C5.10466 36.8903 10.2363 37.4484 13.672 40.7619C18.6554 45.5622 25.4438 45.9721 25.7228 45.9895C27.0613 46.1203 28.4434 46.1814 29.8517 46.1814C34.9223 46.1814 40.272 45.3399 44.2831 43.8401L44.4575 43.7659C49.5717 41.8388 53.6003 35.905 53.4216 30.4986C53.3649 28.4233 53.8488 26.4482 54.141 25.258C54.2151 24.9484 54.2892 24.6825 54.3153 24.4776C54.372 24.168 54.3153 23.8584 54.141 23.5925C53.9666 23.3265 53.6832 23.1347 53.378 23.078C50.823 22.5941 49.3363 21.8703 49.3232 21.8572L49.2927 21.8441C47.601 21.1509 46.9252 19.6511 46.6462 18.6919C47.0866 18.2952 47.1302 17.615 46.7334 17.1746C46.3367 16.7343 45.6609 16.6907 45.2031 17.0874C44.7627 17.4842 44.7191 18.1644 45.1159 18.6047C45.2467 18.7529 45.3949 18.8532 45.5867 18.9143C45.9094 20.0784 46.7465 21.9619 48.8654 22.8469C49.0573 22.9516 50.5832 23.6579 53.1861 24.1593C53.2166 24.1593 53.2428 24.1724 53.2602 24.2029C53.2733 24.216 53.2733 24.2465 53.2733 24.277C53.2297 24.4558 53.1687 24.7173 53.0989 25.0138C52.7894 26.252 52.2923 28.3274 52.349 30.551C52.4973 35.4384 48.7172 41.0323 44.0738 42.7719L43.8994 42.846C38.6108 44.8341 30.9068 45.6146 24.7375 44.8036C22.6796 44.4941 17.9927 43.4346 14.4044 39.9902C10.6113 36.3235 4.91283 35.7218 0.884239 38.5602C0.736001 38.6648 0.592123 38.7825 0.456965 38.8828C0.0732895 39.1618 -0.0880284 39.6502 0.0471298 40.1036C0.164848 40.5614 0.548523 40.9145 1.01504 40.9712C3.79232 41.3854 8.09995 43.5349 9.62593 47.0795C9.45153 47.2713 9.37741 47.5068 9.37741 47.7291L9.38177 47.7335Z" fill="#004F40"/>
<path d="M57.8644 85.9441C56.0114 83.7946 55.6016 82.7352 55.6582 82.4387V82.4082C56.116 78.9028 57.5548 69.3763 58.7015 67.4797L58.732 67.423C58.7451 67.3925 59.7173 65.1995 60.803 63.7563C60.8902 63.7868 60.9948 63.7999 61.082 63.7999C61.6837 63.7999 62.1546 63.316 62.1546 62.723C62.1546 62.1301 61.6706 61.6461 61.082 61.6461C60.4934 61.6461 60.0095 62.1301 60.0095 62.723C60.0095 62.8102 60.0225 62.9018 60.0531 62.989C58.8933 64.4757 57.8949 66.6688 57.7597 66.9783C56.2774 69.494 54.6729 81.5972 54.5857 82.2774C54.529 82.6 54.3939 83.5897 57.0403 86.6504C57.5853 87.2826 57.9952 88.0194 58.2611 88.7998L58.9674 90.9057H53.9709V88.0325C53.9709 87.239 53.6788 86.4585 53.1644 85.8525L53.1513 85.822C52.5322 85.0852 52.1659 84.1739 52.0918 83.2148C51.5904 76.8536 51.9436 69.0362 51.961 68.6961C52.8853 58.5069 59.6912 53.7677 63.6718 51.8362C64.5961 51.3654 65.5684 51.0122 66.5799 50.7768C70.1507 50.0574 71.123 48.8017 71.7508 46.6087C73.5296 40.3521 72.0298 33.6073 67.7832 28.6893L67.4301 28.2751C66.8415 27.6255 66.1788 27.0805 65.4332 26.6401C65.564 26.5093 65.7253 26.3916 65.9041 26.3L65.9346 26.287C66.5799 25.9033 67.2731 25.2406 67.962 24.2988C68.9299 22.9734 70.1071 21.8267 71.4456 20.8675L71.5023 20.8239C72.7797 19.9258 73.5907 18.4827 73.7084 16.9218C73.7389 16.5992 73.7084 16.2722 73.6648 15.9495C73.5035 15.156 72.7405 14.6241 71.947 14.7549C70.8744 14.9337 69.2264 15.1081 68.0361 15.2258C67.2295 15.2999 66.4186 15.313 65.612 15.2563L65.4071 15.2432C62.9393 15.0819 60.4847 15.6095 58.3091 16.7736C57.6028 17.1572 56.8703 17.4799 56.103 17.7327C55.6757 17.8635 55.2222 17.881 54.795 17.7763C53.0772 17.3927 51.2983 17.336 49.563 17.6281C49.3712 17.4493 49.1096 17.3491 48.8567 17.3491C48.2681 17.3491 47.7842 17.833 47.7842 18.426C47.7842 19.0189 48.2551 19.5029 48.8567 19.5029C49.3581 19.5029 49.7985 19.1497 49.9162 18.6658C51.4727 18.4303 53.0466 18.4739 54.5901 18.814C55.2092 18.9448 55.8414 18.9317 56.443 18.7399C57.2671 18.4739 58.0737 18.1208 58.8366 17.7109C60.8509 16.6515 63.1137 16.1501 65.3766 16.2983L65.5684 16.3114C66.436 16.3681 67.3037 16.355 68.1844 16.2809C69.3877 16.1632 71.0488 15.9844 72.165 15.7969C72.3873 15.7664 72.6053 15.9146 72.6489 16.137C72.6925 16.3724 72.7056 16.6079 72.6795 16.8433C72.5923 18.0815 71.9426 19.2151 70.9311 19.9345L70.8744 19.9781C69.4487 20.994 68.2018 22.2322 67.1554 23.6448C66.5668 24.4383 65.9782 25.0269 65.4638 25.3365C65.1847 25.4673 64.4043 25.9251 64.3781 26.6183C64.365 27.0151 64.583 27.3857 64.9362 27.5601C65.5989 27.9437 66.1875 28.4277 66.6976 29.0032L67.0508 29.4C71.0619 34.052 72.4745 40.4132 70.8003 46.3165C70.3164 47.9951 69.7845 49.0546 66.4491 49.7304C65.346 49.9789 64.2866 50.3626 63.2881 50.877C59.0982 52.8957 51.9261 57.9009 50.9713 68.6177V68.6307C50.9713 68.7049 50.5876 76.7577 51.1021 83.2976C51.1893 84.4922 51.6602 85.6258 52.4232 86.5239L52.4362 86.5545C52.7894 86.9687 52.9812 87.4962 52.9812 88.0412V91.987H60.5501L59.3598 88.451C59.0067 87.5224 58.5096 86.6678 57.86 85.9354L57.8644 85.9441Z" fill="#004F40"/>
<path d="M79.0974 63.0195C78.9492 62.6794 78.7573 62.2085 78.5393 61.681C77.336 58.677 75.1865 53.3753 72.8976 51.1386C72.9106 51.0776 72.9106 51.0078 72.9106 50.9468C72.9106 50.3451 72.4398 49.8437 71.8381 49.8437C71.2364 49.8437 70.735 50.3146 70.735 50.9206C70.7219 51.5223 71.2059 52.0237 71.8076 52.0237C71.9384 52.0237 72.0735 52.0106 72.2043 51.9496C74.2927 54.0118 76.4509 59.3571 77.5409 62.0777C77.7633 62.6227 77.9507 63.0936 78.099 63.4467C78.4216 64.1966 78.5698 65.0076 78.5088 65.8185C78.4957 65.9668 78.4783 66.115 78.4521 66.2458C78.2603 67.3053 77.5104 68.1903 76.512 68.574C74.0878 69.5594 69.5012 70.4008 67.6482 70.7104C67.1468 70.7976 66.6323 70.754 66.1484 70.6058L62.2985 69.3414L66.0306 66.0453L68.0144 67.6061C68.603 68.0639 69.3355 68.2819 70.0723 68.2252C71.7771 68.077 74.1271 67.2835 75.0688 66.9608C75.5266 66.7995 75.7577 66.2981 75.5964 65.8403C75.5658 65.7357 75.5092 65.6485 75.4481 65.5744C73.7739 63.5557 68.5856 59.392 66.423 57.6829C65.8039 57.1815 65.0845 56.8283 64.3216 56.6365C60.9862 55.8561 58.6493 58.4764 57.5593 60.5387C56.9576 60.5256 56.4562 61.0095 56.4431 61.6156C56.4301 62.2172 56.914 62.7186 57.5288 62.7361C58.1304 62.7361 58.6318 62.2652 58.6449 61.6461C58.6449 61.4542 58.6013 61.2493 58.4967 61.088C59.2335 59.7059 61.0995 56.9635 64.0643 57.6742C64.6834 57.8224 65.2546 58.1145 65.7385 58.5113C67.3386 59.7757 72.5706 63.9438 74.4105 66.0191C73.3815 66.3723 71.3977 67.0044 69.959 67.1222C69.4881 67.1658 69.0346 67.0175 68.6641 66.7385L65.974 64.6326L60.1534 69.773L65.7821 71.6129C66.2094 71.7611 66.6498 71.8178 67.1032 71.8353C67.3386 71.8353 67.5741 71.8222 67.8095 71.7786C69.7061 71.4559 74.3799 70.6014 76.8913 69.5681C78.2429 69.0362 79.2151 67.8459 79.4767 66.4159C79.5072 66.2371 79.5334 66.0627 79.5508 65.8839C79.6555 64.9248 79.4767 63.9394 79.08 63.0282L79.0974 63.0195Z" fill="#004F40"/>
<path d="M36.9933 75.7243C37.1677 75.6066 41.0219 72.7944 41.7979 68.5391C42.3124 68.2296 42.4737 67.5669 42.1816 67.0655C41.872 66.551 41.2137 66.3897 40.7123 66.6992C40.1978 66.9957 40.0365 67.6584 40.3286 68.1729C40.4158 68.3211 40.551 68.4519 40.7123 68.5566C39.9188 72.28 36.4047 74.8436 36.3611 74.8741C33.405 77.0672 38.0658 84.9151 38.6108 85.7827L41.5494 90.9231H37.0979L36.8319 88.2156C36.8189 87.3479 36.4657 86.5239 35.864 85.9179C27.9289 78.07 29.6032 74.0632 30.3095 73.0342C30.6757 72.5023 30.8981 71.8876 30.9417 71.251C31.382 70.8368 31.3951 70.161 30.9853 69.7338C30.5754 69.3065 29.8996 69.276 29.4549 69.6902C29.0146 70.1044 29.0015 70.7802 29.4113 71.2074C29.529 71.3251 29.6598 71.4298 29.8212 71.4734C29.747 71.8135 29.6162 72.1361 29.4113 72.4326C28.3519 73.9804 26.7954 78.4842 35.0967 86.6852C35.5065 87.0994 35.742 87.6575 35.7594 88.2461L36.1256 92H43.4155L39.5526 85.2421C37.6865 82.1945 35.3626 76.9364 36.9976 75.7287L36.9933 75.7243Z" fill="#004F40"/>
</svg>
