<svg width="353" height="168" viewBox="0 0 353 168" fill="none" xmlns="http://www.w3.org/2000/svg">
<path d="M301.536 91.75H207.263C196.218 91.75 187.263 82.7957 187.263 71.75V71.75C187.263 60.7043 196.218 51.75 207.263 51.75H218.836M310.325 91.75H332.263C343.309 91.75 352.263 82.7957 352.263 71.75V71.75C352.263 60.7043 343.309 51.75 332.263 51.75H228.649" stroke="#004F40" stroke-linecap="round"/>
<circle cx="228.29" cy="51.75" r="1.25" fill="#004F40"/>
<circle cx="302.286" cy="91.75" r="1.25" fill="#004F40"/>
<path d="M236.401 69.878C236.401 71.126 235.681 72.022 234.033 72.022H231.889V67.798H234.033C235.697 67.798 236.401 68.614 236.401 69.878ZM230.433 66.598V77.75H231.889V73.19H233.649L236.305 77.75H238.049L235.249 73.078C237.121 72.662 237.905 71.302 237.905 69.878C237.905 68.054 236.657 66.598 234.033 66.598H230.433ZM243.895 70.07C245.399 70.07 246.679 71.014 246.663 72.726H241.127C241.287 71.014 242.471 70.07 243.895 70.07ZM247.991 75.046H246.423C246.103 75.99 245.271 76.662 243.959 76.662C242.471 76.662 241.223 75.686 241.111 73.91H248.119C248.151 73.606 248.167 73.35 248.167 73.03C248.167 70.63 246.503 68.838 243.959 68.838C241.399 68.838 239.623 70.582 239.623 73.35C239.623 76.134 241.463 77.894 243.959 77.894C246.135 77.894 247.543 76.646 247.991 75.046ZM249.545 73.334C249.545 76.054 251.353 77.894 253.705 77.894C255.305 77.894 256.441 77.046 256.969 76.102V77.942C256.969 79.814 255.801 80.806 254.249 80.806C252.809 80.806 251.769 80.086 251.449 79.03H250.009C250.297 80.902 251.945 82.07 254.249 82.07C256.825 82.07 258.441 80.358 258.441 77.942V68.982H256.969V70.582C256.457 69.638 255.305 68.838 253.705 68.838C251.353 68.838 249.545 70.598 249.545 73.334ZM256.969 73.35C256.969 75.414 255.593 76.614 253.993 76.614C252.393 76.614 251.033 75.398 251.033 73.334C251.033 71.27 252.393 70.102 253.993 70.102C255.593 70.102 256.969 71.318 256.969 73.35ZM260.902 77.75H262.358V68.982H260.902V77.75ZM261.654 67.558C262.182 67.558 262.614 67.126 262.614 66.566C262.614 66.006 262.182 65.574 261.654 65.574C261.094 65.574 260.662 66.006 260.662 66.566C260.662 67.126 261.094 67.558 261.654 67.558ZM271.143 75.366C271.079 72.23 265.991 73.366 265.991 71.286C265.991 70.582 266.631 70.07 267.703 70.07C268.871 70.07 269.543 70.71 269.607 71.59H271.063C270.967 69.878 269.687 68.838 267.751 68.838C265.799 68.838 264.535 69.942 264.535 71.286C264.535 74.55 269.719 73.414 269.719 75.366C269.719 76.086 269.079 76.662 267.927 76.662C266.695 76.662 265.943 76.022 265.863 75.174H264.359C264.455 76.774 265.895 77.894 267.943 77.894C269.879 77.894 271.143 76.806 271.143 75.366ZM273.519 75.35C273.519 77.11 274.399 77.75 275.951 77.75H277.263V76.518H276.191C275.295 76.518 274.975 76.214 274.975 75.35V70.182H277.263V68.982H274.975V66.774H273.519V68.982H272.383V70.182H273.519V75.35ZM280.483 72.982C280.483 70.95 281.539 70.326 282.931 70.326H283.315V68.822C281.923 68.822 280.979 69.43 280.483 70.406V68.982H279.027V77.75H280.483V72.982ZM284.451 73.334C284.451 76.054 286.259 77.894 288.595 77.894C290.211 77.894 291.347 77.062 291.875 76.118V77.75H293.347V68.982H291.875V70.582C291.363 69.67 290.243 68.838 288.611 68.838C286.259 68.838 284.451 70.598 284.451 73.334ZM291.875 73.35C291.875 75.414 290.499 76.614 288.899 76.614C287.299 76.614 285.939 75.398 285.939 73.334C285.939 71.27 287.299 70.102 288.899 70.102C290.499 70.102 291.875 71.318 291.875 73.35ZM296.128 75.35C296.128 77.11 297.008 77.75 298.56 77.75H299.872V76.518H298.8C297.904 76.518 297.584 76.214 297.584 75.35V70.182H299.872V68.982H297.584V66.774H296.128V68.982H294.992V70.182H296.128V75.35ZM305.364 70.07C306.868 70.07 308.148 71.014 308.132 72.726H302.596C302.756 71.014 303.94 70.07 305.364 70.07ZM309.46 75.046H307.892C307.572 75.99 306.74 76.662 305.428 76.662C303.94 76.662 302.692 75.686 302.58 73.91H309.588C309.62 73.606 309.636 73.35 309.636 73.03C309.636 70.63 307.972 68.838 305.428 68.838C302.868 68.838 301.092 70.582 301.092 73.35C301.092 76.134 302.932 77.894 305.428 77.894C307.604 77.894 309.012 76.646 309.46 75.046Z" fill="#004F40"/>
<mask id="mask0_666_16599" style="mask-type:luminance" maskUnits="userSpaceOnUse" x="0" y="0" width="232" height="168">
<path d="M231.516 0.798828H0.072998V167.201H231.516V0.798828Z" fill="white"/>
</mask>
<g mask="url(#mask0_666_16599)">
<path d="M132.616 43.9141C136.028 41.7642 142.853 35.5412 143.606 19.9525C143.684 18.3264 145.041 17.052 146.673 17.052C148.297 17.052 149.646 18.3107 149.74 19.929C149.85 21.7193 149.921 24.0177 149.779 25.8549C149.67 27.2309 150.823 28.3879 152.211 28.3019C157.255 27.997 162.683 26.0347 164.166 15.3087C164.354 13.9327 165.523 12.9086 166.919 12.9086C168.503 12.9086 169.774 14.222 169.696 15.7934C169.437 21.3518 165.436 34.5405 151.654 35.6194C149.764 35.7679 148.156 37.0266 147.348 38.7387C146.085 41.428 143.488 45.7044 138.468 50.0589C137.119 51.2316 135.283 51.7632 133.55 51.3254C132.404 51.0361 131.283 50.356 130.773 48.8784C130.13 47.0178 130.945 44.9695 132.616 43.9141Z" fill="url(#paint0_linear_666_16599)"/>
<path d="M132.24 43.3356C139.841 38.4181 142.759 28.8569 143.3 20.2339C143.237 17.1615 147.167 15.6214 149.183 17.9745C149.701 18.5531 149.975 19.3505 149.991 20.101C150.077 21.5473 150.125 22.9936 150.093 24.4477L150.054 25.5344C149.889 26.5507 150.368 27.5514 151.333 27.9188C153.254 28.2941 155.663 27.5748 157.404 26.7618C161.679 24.6197 163.162 19.6085 163.758 15.1992C164.275 11.7672 169.186 11.517 170.08 14.8709C170.347 15.9966 170.025 17.1849 169.9 18.2951C169.296 21.5551 168.103 24.6979 166.307 27.5045C163.193 32.5939 157.42 35.8695 151.505 36.2682C148.454 36.5966 147.74 39.8332 146.32 42.0143C144.767 44.5161 142.9 46.8223 140.79 48.8706C139.66 49.9025 138.648 51.0596 137.182 51.6694C134.962 52.6622 131.808 52.1932 130.506 49.9416C129.149 47.7214 130.059 44.6411 132.248 43.3277L132.24 43.3356ZM132.977 44.5004C129.094 47.3383 132.232 52.2479 136.625 50.3951C137.856 49.8791 138.813 48.7768 139.802 47.8777C142.963 44.9148 145.347 41.3264 147.316 37.5113C148.234 36.1979 149.701 35.2285 151.34 35.033C151.725 34.9861 153.647 34.7281 153.992 34.689C158.659 33.7587 162.824 30.9443 165.397 26.9181C167.131 24.2679 168.315 21.2346 168.919 18.1231C169.131 16.6377 169.704 14.6129 168.096 13.706C166.746 12.8539 164.809 13.7529 164.597 15.3321C164.307 17.1302 163.915 18.9361 163.279 20.6561C162.236 23.4079 160.408 26.0269 157.671 27.309C156.329 27.9657 154.87 28.3175 153.411 28.4817C152.65 28.5442 151.866 28.7006 151.136 28.4035C149.983 27.9735 149.348 26.6601 149.568 25.5109C149.67 23.7206 149.615 21.9225 149.513 20.1323C149.473 16.9426 144.987 16.2312 143.998 19.2723C143.81 19.7961 143.857 20.7811 143.786 21.3597C143.292 29.9905 140.586 39.4579 132.977 44.516V44.5004Z" fill="black"/>
<path d="M153.199 60.3159C153.199 60.3159 161.028 68.0008 166.809 81.596C169.107 86.9903 172.135 92.0641 175.963 96.5124C179.407 100.515 183.658 104.276 187.863 104.971C189.212 105.19 190.012 106.582 189.463 107.833C188.271 110.522 183.847 114.134 168.511 113.657C168.511 113.657 152.305 113.657 146.21 106.84C146.21 106.84 140.562 78.0936 153.199 60.3159Z" fill="url(#paint1_linear_666_16599)"/>
<path d="M153.184 60.1439C153.278 60.1595 153.403 60.269 153.474 60.3393C153.552 60.4097 153.843 60.7146 153.921 60.7928C159.969 67.1487 164.542 74.8336 168.017 82.8312C171.516 90.3285 179.54 102.298 188.043 104.104C190.428 104.518 191.244 107.262 189.777 109.091C187.282 112.625 182.584 113.594 178.615 114.204C168.778 115.244 154.949 115.134 147.104 108.411C146.665 107.95 146.257 107.473 145.834 107.012C145.136 102.986 144.79 98.9359 144.665 94.8707C144.422 82.9094 145.959 70.0647 153.184 60.1361V60.1439ZM153.215 60.4801C144.43 74.0205 144.116 91.2901 146.602 106.754C150.94 110.381 158.792 111.984 165.052 112.445C171.555 112.813 178.513 113.11 184.662 110.756C186.372 109.998 188.263 108.904 188.734 107.027C188.749 106.183 188.035 105.839 187.298 105.745C181.501 104.299 177.399 99.5301 173.837 95.0817C169.555 89.7187 166.958 83.355 164.189 77.1789C161.295 71.2843 157.741 65.6555 153.364 60.738L153.223 60.5817C153.207 60.5661 153.16 60.5113 153.168 60.5191C153.168 60.5191 153.199 60.5113 153.215 60.4801Z" fill="black"/>
<path d="M80.6013 51.9664C80.8915 51.2863 81.2837 50.6531 81.7779 50.0902C85.0332 46.3923 98.5488 33.1724 122.827 36.409C122.827 36.409 141.817 39.1843 153.011 57.9315C154.399 60.2533 155.309 62.8332 155.702 65.5069C156.015 67.6646 156.345 70.1976 156.329 71.3781C156.282 75.4277 156.729 76.1157 158.706 78.8832C160.69 81.6507 159.075 92.7833 155.733 98.0447C155.733 98.0447 147.01 114.642 124.811 120.365C124.811 120.365 123.666 121.279 122.678 123.898C121.87 126.04 120.505 127.924 118.693 129.339C114.292 132.771 107.993 132.318 104.126 128.292C102.918 127.033 102.338 125.313 102.51 123.578C102.785 120.873 102.408 116.682 98.0467 114.634C98.0467 114.634 77.2361 105.151 79.6129 95.0739L77.2439 94.5658C70.2234 93.0648 66.3091 85.5518 69.1095 78.9614L80.6013 51.9586V51.9664Z" fill="url(#paint2_linear_666_16599)"/>
<path d="M80.2327 51.8179C81.3466 49.3084 83.6371 47.5728 85.5903 45.7278C87.6219 43.9688 89.8419 42.4131 92.1637 41.0449C101.577 35.6194 112.88 34.22 123.541 35.8774C134.075 38.2853 143.575 44.4926 150.117 53.014C150.925 53.8662 151.756 55.3281 152.423 56.2975C154.8 59.5888 156.008 63.5915 156.416 67.5865C156.941 70.0803 156.502 72.9573 157.176 75.3886C157.733 77.2102 159.718 78.6799 159.914 80.7282C160.471 84.0977 159.961 87.5297 159.263 90.8367C158.714 93.3696 157.694 96.3326 156.431 98.4356C149.724 109.928 137.895 118.113 124.89 120.763L125.039 120.685C124.576 121.092 124.137 121.725 123.784 122.335C122.78 124.32 122.034 126.533 120.403 128.135C116.245 132.826 108.495 133.053 104.126 128.55C103.012 127.494 102.369 125.993 102.275 124.469C102.283 122.968 102.44 121.537 102.04 120.091C101.451 117.566 99.5451 115.783 97.1683 114.931L96.1407 114.47C90.689 111.874 85.4256 108.575 81.6133 103.775C79.7228 101.375 78.3501 98.076 79.2914 95.0192L79.5424 95.4101L77.9579 95.0661L77.1656 94.8941C73.6436 94.1123 70.4981 91.6653 69.0312 88.3584C67.8232 85.8567 67.6114 82.9172 68.3488 80.2591C69.2979 77.5229 78.9149 55.0388 80.2406 51.8257L80.2327 51.8179ZM80.9701 52.1306C79.5816 55.4219 69.9255 77.6089 68.9371 80.4155C68.5135 81.9243 68.4037 83.5504 68.6233 85.0984C69.3214 89.9298 73.2985 93.7058 78.0913 94.4328C78.3658 94.4954 79.7621 94.7768 79.966 94.8316C78.6482 103.04 90.7282 109.631 96.7683 113.266L97.7331 113.798C102.259 115.822 103.24 119.942 102.683 124.453C102.91 129.003 108.205 131.63 112.323 131.442C116.779 131.31 120.701 128.135 122.238 124.055C122.787 122.6 123.376 121.201 124.552 120.06C124.568 120.021 124.678 119.997 124.709 119.981C133.856 116.987 142.492 112.164 149.167 105.182C153.199 100.961 156.565 96.2622 157.906 90.5005C158.659 86.9981 159.702 82.6201 158.29 79.2506C157.584 78.1718 156.714 77.0695 156.259 75.6857C155.529 72.9808 156.07 70.4165 155.553 67.6959C155.215 63.7635 154.086 59.9484 151.725 56.7431C145.387 46.8067 134.82 39.5674 123.282 37.1673C112.943 35.7366 102.071 37.2611 92.854 42.2958C89.4026 44.1408 86.0923 46.3767 83.2998 49.1364C82.382 50.0354 81.4643 50.9345 80.9622 52.1306H80.9701Z" fill="black"/>
<path d="M81.0015 51.0283C81.0015 51.0283 66.0191 79.9934 26.1313 99.5614C24.5782 100.328 24.0997 102.313 25.1587 103.674C28.0767 107.41 35.2698 113.587 51.068 113.891C51.068 113.891 60.8184 113.774 69.9176 110.186C72.1689 109.295 74.1299 107.809 75.5733 105.87C78.1226 102.446 81.8879 95.8323 83.9273 84.856" fill="url(#paint3_linear_666_16599)"/>
<path d="M81.4407 51.2629C74.2868 64.2795 63.7128 75.1541 52.2289 84.4652C48.448 87.389 44.1337 90.5005 40.1096 93.0335C37.7093 94.4485 34.0069 96.747 31.5359 97.9744L27.151 100.281L26.6098 100.57C25.8254 100.937 25.4645 101.985 25.8724 102.735C26.4137 103.611 27.3314 104.455 28.0531 105.19C31.834 108.677 36.7445 110.694 41.7334 111.765C51.1621 113.868 61.1164 112.516 70.098 109.216C73.0709 108.028 75.1183 105.597 76.7655 102.892C78.4599 100.163 79.8797 97.2395 81.0249 94.2062C82.1702 91.1729 83.0487 88.0301 83.7783 84.8482C83.7939 84.7701 83.8724 84.7232 83.9508 84.7388C84.0293 84.7544 84.0763 84.8248 84.0606 84.903C83.5743 88.1395 82.8605 91.3605 81.8564 94.4954C80.8602 97.6382 79.5895 100.711 77.9108 103.588C76.2557 106.566 73.9887 109.341 70.7804 110.749C61.5086 114.572 51.115 116.049 41.2627 113.946C34.8776 112.656 28.461 109.631 24.3271 104.44C22.5857 102.274 23.6368 99.2878 26.1627 98.3105C27.6374 97.5366 31.23 95.6603 32.6498 94.9176C33.9598 94.1514 37.5838 92.0015 38.9487 91.1963C49.9698 84.2854 60.1515 76.0376 68.8664 66.3591C73.2121 61.5277 77.2833 56.3601 80.57 50.7938C80.7112 50.5593 81.0171 50.4811 81.2524 50.6218C81.4799 50.7547 81.5662 51.044 81.4407 51.2785V51.2629Z" fill="black"/>
<path d="M99.7411 132.31C95.4111 131.521 83.3076 130.192 78.5932 138.807C78.1696 139.581 77.8951 140.417 77.7068 141.277C76.9616 144.756 73.8867 156.287 65.462 159.954C64.5286 160.361 64.5913 161.713 65.5797 161.979C68.5369 162.776 73.5572 162.886 79.1423 157.617C80.1777 156.639 80.7817 155.287 80.8366 153.872C80.8837 152.652 80.9857 151.104 81.2132 149.893C81.3544 149.142 82.3976 149.017 82.7114 149.721C83.0644 150.51 83.4174 151.542 83.5194 152.652C83.5664 153.145 84.0135 153.489 84.4999 153.371C85.7549 153.074 87.8729 151.917 88.3828 147.516C88.5161 146.359 88.8142 145.225 89.3397 144.185C90.2732 142.34 92.1401 139.925 95.7563 138.666C96.7447 138.322 97.7722 138.111 98.8155 138.009C100.259 137.869 103.624 137.259 102.628 134.632C102.165 133.405 101.035 132.545 99.7411 132.31Z" fill="url(#paint4_linear_666_16599)"/>
<path d="M99.6706 132.717C92.5717 131.208 83.1978 131.771 79.1816 138.697C78.2089 140.175 78.1305 141.997 77.6285 143.67C75.8008 150.401 72.3729 157.57 65.7053 160.665C65.4778 160.806 65.5249 161.221 65.7759 161.252L65.972 161.299C66.3799 161.385 66.7956 161.486 67.2035 161.525C71.7061 162.127 76.1302 159.68 79.1189 156.436C80.7269 154.325 79.6444 151.542 80.6563 149.189C81.1505 148.399 82.2801 148.219 83.0096 148.821C83.3547 149.087 83.5116 149.556 83.6606 149.916C83.9901 150.768 84.2176 151.675 84.296 152.59C84.296 152.621 84.3196 152.629 84.3196 152.629C84.4686 152.597 84.6176 152.551 84.7588 152.496C88.2417 151.026 87.1278 146.374 88.9006 143.615C90.1086 141.402 92.0775 139.62 94.368 138.611C95.7799 137.97 97.3174 137.595 98.8548 137.478C100.039 137.321 101.742 137.11 102.259 135.93C102.636 134.452 101.114 132.959 99.6628 132.717H99.6706ZM99.8197 131.896C101.765 132.209 103.718 134.108 103.169 136.235C102.651 137.65 101.169 138.072 99.8981 138.369C98.1724 138.619 96.4231 138.846 94.8543 139.643C92.7991 140.613 91.0969 142.231 90.0615 144.225C88.8457 146.343 89.2849 148.821 88.1711 151.05C87.6141 152.222 86.6571 153.364 85.3158 153.887C84.3431 154.372 83.1272 154.114 82.8135 152.988C82.6644 151.917 82.4683 151.065 82.0291 150.096C81.9898 150.002 81.9898 150.018 81.9977 150.025C82.0212 150.041 81.9977 150.025 81.9898 150.033C82.0134 150.033 82.0134 149.955 81.9742 150.158C81.4878 152.855 82.0918 156.1 79.7386 158.156C76.4048 161.369 71.7689 163.73 66.9996 163.026C66.3407 162.925 65.6269 162.823 65.0072 162.55C64.058 162.08 63.7678 160.791 64.3639 159.931C64.5914 159.555 65.0072 159.336 65.3837 159.157C72.7415 155.678 75.7145 147.313 77.5971 139.933C81.0328 131.31 91.85 130.653 99.8118 131.896H99.8197Z" fill="black"/>
<path d="M94.2269 135.781C89.3791 136.68 83.7862 138.901 81.9507 143.842C81.833 144.217 81.4173 144.42 81.0408 144.279C80.6721 144.146 80.4917 143.732 80.6407 143.365C81.6918 140.707 83.8725 138.697 86.3513 137.392C88.7908 136.117 91.4108 135.351 94.1327 134.984C94.3524 134.96 94.5485 135.109 94.5798 135.328C94.6112 135.547 94.4465 135.75 94.2269 135.774V135.781Z" fill="black"/>
<path d="M118.755 84.3323C121.069 84.6528 123.219 83.0736 123.681 80.7908C123.83 80.0481 123.909 79.2741 123.909 78.4923C123.909 78.2578 123.901 78.0311 123.885 77.8044C123.815 76.577 123.548 75.3965 123.117 74.2942C122.419 72.5195 120.999 71.1201 119.187 70.5025C116.645 69.6426 113.39 69.5253 110.009 70.3384C107.271 71.0029 104.887 72.1755 103.09 73.6218C101.624 74.8023 100.714 76.577 100.706 78.4611C100.706 78.4689 100.706 78.4767 100.706 78.4923C100.706 80.5875 101.271 82.5576 102.251 84.2463C102.259 84.2619 102.267 84.2775 102.275 84.2853C103.443 86.2945 106.024 86.9825 108.095 85.9193C110.252 84.8091 113.006 84.1446 116.018 84.1446C116.951 84.1446 117.869 84.2072 118.747 84.3323H118.755Z" fill="white"/>
<path d="M118.826 83.8475C124.772 84.3166 124.184 75.1228 121.038 72.2928C116.339 68.5559 107.06 70.6198 102.855 74.4114C100.863 76.2564 100.769 79.1647 101.506 81.6351C102.149 84.1759 103.883 86.6307 106.824 86.0522C108.072 85.7707 109.288 84.8951 110.582 84.5746C113.233 83.7459 116.065 83.527 118.834 83.8553L118.826 83.8475ZM118.693 84.8169C116.073 84.4104 113.351 84.5277 110.786 85.2313C109.413 85.5362 108.338 86.318 106.934 86.6307C103.679 87.217 101.632 84.6528 100.879 81.8071C99.3724 76.9444 101.247 73.5984 105.711 71.4172C110.299 69.0953 117.61 67.8523 121.87 71.3937C125.854 75.0212 125.839 85.5205 118.693 84.8169Z" fill="black"/>
<path d="M129.008 119.286C125.611 120.841 121.611 120.873 118.207 119.364C118.136 119.333 118.097 119.247 118.128 119.176C118.159 119.098 118.246 119.067 118.316 119.098C121.611 120.388 125.486 120.2 128.624 118.582C129.094 118.301 129.51 119.036 129.008 119.286Z" fill="black"/>
<path d="M114.127 81.6507C115.522 81.6507 116.653 79.6836 116.653 77.2571C116.653 74.8306 115.522 72.8635 114.127 72.8635C112.732 72.8635 111.602 74.8306 111.602 77.2571C111.602 79.6836 112.732 81.6507 114.127 81.6507Z" fill="#429195"/>
<path d="M150.117 84.77C151.034 85.2938 152.195 84.8795 152.525 83.8788V83.8554C153.05 82.2527 153.348 80.4311 153.348 78.4923C153.348 77.2884 153.231 76.1235 153.019 75.029C152.446 72.0583 149.709 69.9944 146.689 70.2523C145.716 70.3305 144.72 70.4947 143.716 70.737C141.488 71.2765 139.754 73.0511 139.354 75.3027C139.174 76.3112 139.08 77.3822 139.08 78.4923C139.08 80.4468 139.386 82.284 139.911 83.8944C140.241 84.9029 141.417 85.3407 142.343 84.8091C143.496 84.1446 144.837 83.7615 146.265 83.7615C147.693 83.7615 148.987 84.129 150.124 84.7779L150.117 84.77Z" fill="white"/>
<path d="M150.25 84.5355C151.058 84.9733 152.086 84.5277 152.242 83.5896C153.05 80.7126 153.011 77.4448 152.29 74.6069C151.599 72.3553 149.317 70.7058 146.948 70.8231C144.579 70.9638 141.818 71.3703 140.468 73.5749C138.852 76.5613 139.229 80.7439 140.162 83.9257C140.406 84.5668 141.166 84.9499 141.833 84.7701C142.524 84.5121 143.237 84.0352 143.983 83.8632C146.038 83.269 148.344 83.4645 150.234 84.5277L150.25 84.5355ZM149.975 85.0124C148.242 83.9883 146.061 83.6756 144.108 84.2697C143.316 84.4573 142.712 84.9108 141.943 85.1844C140.186 85.5753 139.551 83.9961 139.276 82.5889C138.46 78.6331 137.919 73.0511 142.123 70.7996C145.081 69.4315 149.089 68.9468 151.646 71.3625C154.196 73.7156 154.023 77.5464 153.662 80.697C153.505 81.7524 153.254 82.7921 152.909 83.8006C152.658 85.0202 151.042 85.7238 149.975 85.0124Z" fill="black"/>
<path d="M144.853 81.6507C146.248 81.6507 147.379 79.6836 147.379 77.2571C147.379 74.8306 146.248 72.8635 144.853 72.8635C143.458 72.8635 142.327 74.8306 142.327 77.2571C142.327 79.6836 143.458 81.6507 144.853 81.6507Z" fill="#429195"/>
<path d="M140.821 101.227C140.821 101.227 136.938 111.077 118.873 100.671C118.873 100.671 126.011 102.712 129.204 101.266C129.204 101.266 135.15 99.4128 135.26 98.7874C135.26 98.7874 138.107 103.197 140.813 101.234L140.821 101.227Z" fill="white"/>
<path d="M200.076 125.298C199.002 124.289 197.535 123.046 196.146 122.296L196.099 123.242C196.076 123.656 196.154 124.07 196.319 124.453C197.095 126.259 195.433 128.175 195.433 128.175C180.529 144.498 172.912 147.539 168.762 149.728C167.672 150.299 166.527 150.557 164.864 150.878C152.69 153.207 138.06 151.018 135.66 148.071C134.985 147.234 132.53 145.319 131.659 144.694C127.949 142.012 123.854 142.145 123.854 142.145C123.164 141.574 121.642 140.323 121.642 140.323L100.714 140.206C98.4469 142.192 95.3955 159.258 94.2032 166.412C93.8973 168.257 93.3874 170.055 92.6658 171.775C87.1984 184.791 76.1067 226.499 76.1067 226.499C76.0282 226.859 75.9498 227.211 75.8713 227.57C90.7047 244.058 125.478 232.073 134.742 228.469C134.365 227.359 134.146 226.21 134.083 225.045C131.965 185.581 129.165 165.552 129.165 165.552C138.907 158.828 151.199 161.283 166.362 159.845C167.978 159.688 169.813 159.141 171.319 158.414C190.13 149.244 205.606 129.918 205.606 129.918C206.226 129.081 206.76 128.229 207.238 127.369C206.461 127.354 205.552 127.322 204.681 127.276C202.963 127.182 201.331 126.486 200.076 125.313V125.298Z" fill="url(#paint5_linear_666_16599)"/>
<path d="M199.81 125.587C198.617 124.477 197.354 123.414 195.958 122.647L196.531 122.327C196.523 122.772 196.452 123.281 196.491 123.64C196.531 124.102 196.774 124.453 196.852 124.938C197.205 127.072 195.636 128.573 194.311 129.957C191.181 133.342 187.894 136.579 184.427 139.628C180.278 143.286 175.751 146.593 170.778 149.079C169.17 149.947 167.405 150.815 165.57 151.081C158.298 152.496 150.776 152.519 143.473 151.3C140.766 150.721 137.825 150.291 135.628 148.438C132.514 145.202 128.396 142.387 123.737 142.512L123.635 142.434L121.407 140.636L121.65 140.722L100.722 140.636L100.996 140.535C100.439 141.105 100.055 142.075 99.7491 142.849C98.7607 145.499 98.0782 148.259 97.4429 151.01C96.1407 156.561 95.2543 162.159 94.2581 167.772C93.8738 169.64 93.1756 171.462 92.4853 173.221C89.8183 180.304 87.818 187.637 85.755 194.915C82.8605 205.477 79.6993 217.306 76.444 227.703C76.444 227.711 76.3106 227.195 76.3106 227.203C88.1946 237.64 105.397 235.591 119.76 232.41C124.764 231.237 129.73 229.814 134.601 228.125C134.609 228.125 134.389 228.329 134.389 228.329L134.373 228.61C133.558 226.445 133.62 222.997 133.456 220.683L132.993 212.795C131.949 197.042 130.898 181.258 128.78 165.606L128.749 165.38L128.945 165.231C135.244 160.533 143.488 159.946 151.05 159.704C156.667 159.485 162.416 159.61 167.954 158.734C169.758 158.344 171.374 157.499 173.014 156.647C183.007 151.378 191.95 144.053 199.802 135.93C202.343 133.17 205.104 130.496 206.901 127.182C206.901 127.166 207.238 127.76 207.238 127.76L205.308 127.69C203.316 127.721 201.269 126.986 199.817 125.595L199.81 125.587ZM200.343 125.016C201.684 126.298 203.481 126.916 205.34 126.9L207.246 126.971L207.897 126.994L207.583 127.549C205.693 130.903 202.837 133.545 200.296 136.391C192.413 144.678 183.886 152.48 173.767 158.046C172.057 158.969 170.26 159.907 168.339 160.337C166.385 160.798 164.487 160.822 162.526 160.963C158.698 161.174 154.886 161.197 151.089 161.267C143.637 161.393 135.809 161.674 129.392 165.856C129.392 165.856 129.557 165.466 129.557 165.489C131.408 181.203 132.734 196.948 133.738 212.732L134.216 220.62C134.397 222.895 134.318 226.531 135.228 228.681C130.334 230.791 125.298 232.566 120.152 233.965C106.511 237.624 85.1667 240.759 75.4399 227.946L75.2673 227.703L75.3066 227.445C78.3972 212.513 83.1507 198.113 87.9279 183.665C89.4339 179.178 91.0812 174.698 92.8854 170.32C93.8659 167.655 94.1248 164.825 94.6739 162.041C95.7171 156.444 96.7526 150.838 98.2038 145.319C98.7999 143.451 99.1137 141.449 100.439 139.901L100.541 139.8H100.706L121.634 139.94H121.776L121.878 140.026L124.066 141.879L123.831 141.801C127.69 141.84 131.149 143.646 133.958 146.156C135.393 147.281 136.413 148.821 138.264 149.377C143.433 151.214 149.05 151.558 154.509 151.558C158.173 151.511 161.844 151.175 165.428 150.44C169.013 149.736 172.112 147.563 175.226 145.749C181.384 141.77 186.765 136.688 191.84 131.419C192.797 130.457 193.73 129.394 194.664 128.409C195.527 127.573 196.303 126.244 196.076 125.055C195.997 124.633 195.731 124.164 195.707 123.703C195.691 122.921 195.746 122.358 195.754 121.631C197.464 122.514 198.97 123.718 200.335 125.001L200.343 125.016Z" fill="black"/>
<path d="M208.422 115.549L203.316 113.829C202.516 113.555 201.629 113.673 200.923 114.134L197.59 116.307C196.852 116.792 196.389 117.597 196.342 118.473L196.146 122.303C197.535 123.054 199.002 124.297 200.076 125.305C201.331 126.478 202.955 127.174 204.681 127.268C205.559 127.315 206.469 127.346 207.238 127.362C209.058 124.078 209.881 120.771 210.258 118.637C210.493 117.3 209.717 115.987 208.422 115.549Z" fill="#643C3B"/>
<path d="M208.313 115.869L203.983 114.376C203.284 114.134 202.641 113.868 201.92 114.04C201.308 114.126 200.562 114.783 200.037 115.095L198.139 116.362C197.158 116.909 196.672 117.761 196.711 118.887L196.672 120.028L196.609 122.311C196.609 122.358 196.366 121.881 196.366 121.889C198.28 122.874 199.692 124.485 201.386 125.728C202.665 126.572 204.139 126.846 205.661 126.83L207.23 126.885C207.316 126.869 206.806 127.127 206.83 127.127C208.156 124.782 209.097 122.202 209.677 119.567C210.148 118.058 209.944 116.464 208.313 115.869ZM208.532 115.228C210.517 115.885 210.995 117.933 210.438 119.731C209.889 122.46 208.971 125.118 207.646 127.58L207.512 127.831H207.23L207.214 127.823L205.63 127.768C203.998 127.784 202.273 127.44 200.892 126.517C199.19 125.305 197.793 123.664 195.934 122.71L195.668 122.569C195.668 122.522 195.848 120.146 195.848 119.997C195.934 118.848 195.848 117.425 196.774 116.526C197.37 115.893 198.978 115.056 199.684 114.556C200.657 113.899 201.825 113.125 203.065 113.454C203.857 113.673 207.685 114.97 208.54 115.236L208.532 115.228Z" fill="black"/>
<path d="M100.722 140.894C100.722 140.894 98.1959 144.1 96.58 145.249C96.58 145.249 88.069 150.174 86.3433 156.71C86.3433 156.71 85.4883 163.863 63.705 182.704C62.3401 183.884 62.0185 185.87 62.9441 187.418C65.917 192.335 71.9649 203.523 73.7848 215.703C73.8789 216.328 73.6044 216.946 73.0788 217.306C72.6317 217.61 71.9884 217.986 71.1413 218.338C72.7964 218.94 74.3731 219.729 74.3731 220.542C74.3731 220.542 75.2673 224.842 74.6006 228.837C75.4242 228.086 76.2478 227.211 77.0479 226.187C77.597 225.483 77.9814 224.662 78.1854 223.794C79.1424 219.737 81.2838 206.814 74.7025 190.748C74.2162 189.56 74.3652 188.215 75.1104 187.176C77.8951 183.314 85.402 173.901 96.3368 167.827" fill="url(#paint6_linear_666_16599)"/>
<path d="M101.232 141.293C99.851 142.833 98.5253 144.389 96.8545 145.64C94.6346 146.937 92.5323 148.556 90.736 150.401C88.9711 152.214 87.4493 154.372 86.8061 156.827C86.6963 157.468 86.2962 158.414 85.9667 159.102C83.4723 164.011 79.864 168.272 76.138 172.283C58.2375 191.092 61.7596 178.037 70.7569 201.349C72.5061 205.923 73.8004 210.692 74.4907 215.547C74.8515 217.423 72.8591 218.369 71.4158 218.932H71.4001L71.3687 217.712C72.561 218.189 73.8945 218.627 74.7417 219.69C74.8829 219.901 75.0241 220.183 75.0241 220.534L75.0084 220.401C75.1496 221.121 75.2437 221.809 75.3222 222.52C75.5497 224.654 75.581 226.796 75.2359 228.939L74.1455 228.352C75.4398 226.976 76.9459 225.538 77.3381 223.622C78.0833 219.807 78.3265 215.898 78.1853 212.013C77.8872 204.969 76.287 197.996 73.6749 191.452C72.8513 189.685 73.165 187.543 74.4515 186.073L75.1496 185.151C77.0322 182.712 79.0874 180.421 81.2759 178.256C85.6451 173.94 90.6262 170.188 96.1485 167.514C96.3289 167.428 96.5486 167.498 96.6348 167.686C96.7133 167.858 96.6584 168.053 96.5015 168.155C88.8848 173.018 82.429 179.42 77.0087 186.566C76.7969 186.879 76.2321 187.606 76.036 187.903C75.5967 188.544 75.4869 189.38 75.7301 190.115C80.013 200.583 81.723 212.357 79.1345 223.458C78.5854 226.531 75.9183 228.555 73.6827 230.479C74.3024 227.219 74.3573 223.787 73.6984 220.527C72.9218 219.471 70.7255 218.955 69.3998 218.4L70.8824 217.743C71.3922 217.517 71.8864 217.266 72.3492 216.962C72.8277 216.696 73.165 216.328 73.0474 215.765C71.3844 206.118 67.4388 196.987 62.5126 188.567C61.0771 186.699 61.0771 183.744 62.944 182.118L64.7011 180.554C67.023 178.514 69.3057 176.426 71.5177 174.276C75.9105 170.016 80.3974 165.653 83.8567 160.595C84.6568 159.383 85.5275 157.953 85.8569 156.592C86.6492 153.95 88.2886 151.745 90.1163 149.83C91.9911 147.93 94.0541 146.281 96.3132 144.842C96.8388 144.483 97.7644 143.49 98.337 142.825C98.9803 142.075 99.6078 141.293 100.188 140.495C100.4 140.198 100.808 140.136 101.106 140.347C101.42 140.574 101.467 141.019 101.216 141.309L101.232 141.293Z" fill="black"/>
<path d="M130.891 89.4842C132.805 88.851 136.052 87.9675 138.06 88.4991C139.174 88.7962 139.856 89.922 139.605 91.0399C139.378 92.0719 138.766 93.6511 137.135 94.4094C136.342 94.7769 135.448 94.8394 134.593 94.6987C133.322 94.4876 131.377 93.7996 130.09 91.681C129.588 90.8601 129.981 89.7891 130.891 89.4842Z" fill="black"/>
<path d="M116.983 98.7248C121.47 103.408 128.576 101.039 133.683 98.7092C134.232 98.4512 134.35 98.4278 134.507 98.1776C134.695 97.9509 134.648 97.3176 134.687 97.0518C134.766 96.0277 134.86 94.9957 135.032 93.9716C135.071 93.7527 135.275 93.6042 135.503 93.6354C135.675 93.6667 135.809 93.7996 135.84 93.9716C136.013 94.9957 136.107 96.0277 136.185 97.0518C136.327 98.0916 136.17 99.1705 135.26 99.835C133.126 101.094 130.851 101.852 128.42 102.282C124.254 103.056 119.563 102.305 116.426 99.2955C116.034 98.9203 116.614 98.3339 116.991 98.7327L116.983 98.7248Z" fill="black"/>
<path d="M135.715 98.5059C137.362 99.3112 140.46 102.993 141.504 99.7802C141.559 99.5457 141.794 99.3972 142.021 99.4753C142.594 99.7333 142.147 100.64 141.998 101.07C141.559 102.149 140.123 102.579 139.072 102.165C138.311 101.961 137.652 101.508 137.017 101.086C136.295 100.523 135.636 99.8584 135.15 99.0766C135.024 98.889 135.079 98.6388 135.268 98.5137C135.409 98.4199 135.581 98.4278 135.715 98.5137V98.5059Z" fill="black"/>
<path d="M94.0461 43.9141C90.6339 41.7642 83.8094 35.5412 83.0564 19.9525C82.9779 18.3264 81.6209 17.052 79.9893 17.052C78.3656 17.052 77.0164 18.3107 76.9222 19.929C76.8124 21.7193 76.7418 24.0177 76.883 25.8549C76.9928 27.2309 75.8397 28.3879 74.4513 28.3019C69.4075 27.997 59.3826 26.0347 57.9001 15.3087C57.7118 13.9327 56.543 12.9086 55.1467 12.9086C53.5622 12.9086 52.2915 14.222 52.3699 15.7934C52.6288 21.3518 55.5154 33.2115 75.0082 35.6194C76.8908 35.8539 78.5068 37.0266 79.3147 38.7387C80.5776 41.428 83.174 45.7044 88.1943 50.0589C89.5435 51.2316 91.3791 51.7632 93.1126 51.3254C94.2579 51.0361 95.3796 50.356 95.8895 48.8784C96.5327 47.0178 95.7169 44.9695 94.0461 43.9141Z" fill="url(#paint7_linear_666_16599)"/>
<path d="M93.7324 44.4066C85.7784 39.0514 83.2526 29.0211 82.8054 19.9915C82.5936 16.5595 77.6753 16.3641 77.1968 19.757C76.9615 22.0398 77.1968 24.3226 77.1105 26.6132C76.3732 29.5215 72.9217 28.4817 70.7724 28.169C63.8068 26.9572 58.3786 22.6027 57.3589 15.379C56.9118 12.635 52.8249 13.018 53.0132 15.8325C53.4368 23.2907 58.1276 29.3417 65.007 32.1561C67.7211 33.3053 70.6156 34.1027 73.5728 34.5249C74.3337 34.6578 74.9848 34.7281 75.9025 34.9236C77.6047 35.3536 79.1108 36.5262 79.9266 38.082C81.7935 42.1394 84.6018 45.72 87.8728 48.7768L88.6964 49.5273C90.3437 51.0361 93.3794 51.3645 94.8463 49.496C96.0543 47.8855 95.4267 45.462 93.7324 44.4066ZM94.3599 43.4216C96.6347 44.7506 97.5133 48.0575 95.9052 50.2543C94.0069 52.842 89.9829 52.6075 87.7473 50.6296L86.8687 49.8634C83.4094 46.7754 80.4443 43.0776 78.4362 38.8716C77.4322 36.8859 75.4084 36.4246 73.3061 36.1901C70.239 35.7679 67.2112 34.9079 64.3481 33.6415C57.0137 30.5222 51.9934 23.9474 51.7346 15.895C51.5855 11.5952 57.7589 10.962 58.4414 15.2227C59.0062 20.1244 62.0575 24.2444 66.6307 26.152C68.6702 27.0745 70.9058 27.5905 73.1335 27.8485C73.8238 27.9032 74.6004 28.0908 75.2515 27.8641C76.2791 27.5123 76.7262 26.4725 76.5536 25.4171C76.4673 23.4939 76.5301 21.6098 76.6791 19.6788C76.7811 18.858 77.2125 18.0918 77.8479 17.568C79.8639 15.8168 83.2604 17.2709 83.3153 19.9525C83.8016 28.685 86.6099 38.4572 94.3678 43.4059L94.3599 43.4216Z" fill="black"/>
<path d="M99.961 136.461C99.961 136.461 104.009 131.912 101.671 128.706C101.193 128.05 100.792 127.322 100.612 126.533C100.612 126.509 100.604 126.486 100.596 126.462C100.173 124.5 101.851 122.718 103.844 122.96C104.762 123.07 106.001 123.414 107.523 124.25C109.798 125.509 112.457 125.931 114.959 125.251C115.924 124.985 116.983 124.578 118.128 123.953C118.913 123.523 119.768 123.226 120.654 123.077C122.262 122.819 124.2 123.062 123.627 125.978C123.627 125.978 123.564 128.651 121.76 131.435C120.513 133.358 120.246 135.774 121.227 137.845C121.462 138.346 121.76 138.893 122.113 139.464C122.113 139.464 124.192 142.669 115.869 145.217C115.869 145.217 111.539 146.836 106.762 145.866C104.252 145.358 101.961 144.029 100.432 141.989C99.2864 140.456 98.502 138.432 99.9688 136.446L99.961 136.461Z" fill="url(#paint8_linear_666_16599)"/>
<path d="M99.4511 136.047C100.863 134.327 102.283 132.115 101.655 129.879C101.428 129.128 100.808 128.519 100.502 127.768C99.5844 126.079 100.102 123.742 101.906 122.89C103.577 122.061 105.475 122.858 107.021 123.578C109.798 125.305 113.194 125.806 116.238 124.5C117.759 123.89 119.211 122.851 120.921 122.718C123.235 122.358 124.482 123.82 123.964 126.064C123.87 127.792 123.141 130.051 122.089 131.685C120.85 133.631 120.701 136.188 121.94 138.142C122.027 138.306 122.372 138.893 122.458 139.065C124.976 144.037 114.128 146.82 110.676 146.875C106.621 147.156 102.142 145.78 99.7256 142.286C98.3921 140.566 97.9214 137.869 99.4432 136.063L99.4511 136.047ZM100.479 136.876C99.4118 138.291 99.8589 140.089 100.91 141.434C105.177 147.414 115.947 146.109 121.062 141.934C121.729 141.238 122.05 140.339 121.587 139.604C121.478 139.409 121.172 138.815 121.054 138.604C119.713 136.352 119.964 133.342 121.399 131.231C122.435 129.66 123.133 127.799 123.266 125.947C123.682 124.133 122.921 123.124 121.007 123.382C119.344 123.507 118.018 124.492 116.473 125.087C114.92 125.728 113.171 126.048 111.468 125.861C109.774 125.712 108.103 125.032 106.691 124.25C105.366 123.679 103.656 122.968 102.314 123.672C100.973 124.406 100.683 126.017 101.428 127.338C101.789 128.104 102.424 128.691 102.691 129.527C103.577 132.162 102.024 134.906 100.471 136.884L100.479 136.876Z" fill="black"/>
<path d="M121.964 131.786C120.034 133.334 117.587 133.702 115.281 134.359C113.037 134.851 110.99 135.899 109.099 137.196C108.88 137.361 108.605 137.032 108.801 136.845C111.366 134.116 114.841 133.225 118.269 132.107C119.367 131.716 120.513 131.356 121.595 131.091C121.995 130.981 122.278 131.528 121.956 131.786H121.964Z" fill="black"/>
<path d="M103.099 137.783C104.424 139.901 107.272 140.425 109.696 140.105C112.331 139.831 115.085 139.518 117.453 138.267C117.665 138.135 117.893 138.463 117.681 138.611C114.339 140.972 103.703 143.623 102.322 137.97C102.251 137.47 102.926 137.329 103.099 137.783Z" fill="black"/>
<path d="M99.647 136.117C101.435 132.67 106.424 128.792 110.464 129.011C110.566 129.011 110.645 129.105 110.637 129.207C110.637 129.3 110.558 129.379 110.464 129.379C107.232 129.73 104.644 131.958 102.518 134.249C101.804 135.046 101.137 135.891 100.29 136.579C99.9765 136.852 99.4823 136.485 99.647 136.11V136.117Z" fill="black"/>
<path d="M115.43 75.8812C115.707 75.8812 115.932 75.6572 115.932 75.3808C115.932 75.1045 115.707 74.8805 115.43 74.8805C115.152 74.8805 114.927 75.1045 114.927 75.3808C114.927 75.6572 115.152 75.8812 115.43 75.8812Z" fill="white"/>
<path d="M146.351 75.8812C146.629 75.8812 146.853 75.6572 146.853 75.3808C146.853 75.1045 146.629 74.8805 146.351 74.8805C146.074 74.8805 145.849 75.1045 145.849 75.3808C145.849 75.6572 146.074 75.8812 146.351 75.8812Z" fill="white"/>
<path d="M138.405 90.352C138.683 90.352 138.907 90.128 138.907 89.8516C138.907 89.5753 138.683 89.3513 138.405 89.3513C138.128 89.3513 137.903 89.5753 137.903 89.8516C137.903 90.128 138.128 90.352 138.405 90.352Z" fill="white"/>
<path d="M121.368 59.6748C113.571 58.6976 108.629 59.9484 102.557 65.0535L100.377 67.0939C100.267 67.2112 100.079 67.2112 99.9767 67.0939C99.8825 66.9923 99.8747 66.8438 99.961 66.7343C100.871 65.5929 101.922 64.3186 103.012 63.3101C106.354 60.0344 110.817 57.7985 115.555 57.5562C117.657 57.4233 119.87 57.65 121.689 58.9399C122.042 59.1823 121.791 59.7608 121.368 59.6748Z" fill="black"/>
<path d="M140.304 59.8546C144.257 56.7666 149.819 58.8148 151.387 63.4195C151.489 63.6384 151.16 63.8104 151.035 63.5993C149.411 61.1055 146.673 59.3152 143.614 59.925C142.649 60.0579 141.645 60.3002 140.672 60.5582C140.264 60.6833 139.982 60.1126 140.311 59.8546H140.304Z" fill="black"/>
<path d="M120.771 101.219C126.474 104.424 135.691 108.208 140.405 101.664L140.468 101.578C140.429 101.625 140.523 101.711 140.578 101.696C138.389 102.18 136.413 100.531 134.86 99.2408L135.354 99.2799C134.224 99.9757 133.063 100.484 131.855 100.922C128.318 102.188 124.427 102.532 120.74 101.743L120.622 101.719C120.905 101.774 121.054 101.367 120.779 101.227L120.771 101.219ZM120.513 101.75C120.262 101.657 120.262 101.203 120.56 101.133C120.724 101.094 120.74 101.133 120.85 101.148L121.077 101.187C124.584 101.844 128.255 101.453 131.589 100.21C132.852 99.7412 134.075 99.1548 135.173 98.4356L135.401 98.6467C136.758 99.8819 138.382 101.438 140.335 101.187C140.453 101.164 140.562 101.125 140.696 101.172C141.041 101.297 141.057 101.711 140.837 101.938C135.911 108.552 126.458 104.932 120.513 101.743V101.75Z" fill="black"/>
</g>
<defs>
<linearGradient id="paint0_linear_666_16599" x1="150.124" y1="50.7625" x2="150.124" y2="11.7437" gradientUnits="userSpaceOnUse">
<stop offset="0.56" stop-color="#F9E9B3"/>
<stop offset="0.61" stop-color="#F3D9A5"/>
<stop offset="0.79" stop-color="#E1A276"/>
<stop offset="0.93" stop-color="#D58059"/>
<stop offset="1" stop-color="#D1744E"/>
</linearGradient>
<linearGradient id="paint1_linear_666_16599" x1="167.295" y1="116.44" x2="167.295" y2="71.9019" gradientUnits="userSpaceOnUse">
<stop stop-color="#643C3B"/>
<stop offset="0.03" stop-color="#72453D"/>
<stop offset="0.12" stop-color="#996044"/>
<stop offset="0.22" stop-color="#B87449"/>
<stop offset="0.3" stop-color="#CF834D"/>
<stop offset="0.39" stop-color="#DC8C50"/>
<stop offset="0.47" stop-color="#E19051"/>
</linearGradient>
<linearGradient id="paint2_linear_666_16599" x1="113.876" y1="125.063" x2="113.876" y2="34.0011" gradientUnits="userSpaceOnUse">
<stop stop-color="#643C3B"/>
<stop offset="0.02" stop-color="#7C4C3F"/>
<stop offset="0.05" stop-color="#9B6144"/>
<stop offset="0.08" stop-color="#B47249"/>
<stop offset="0.11" stop-color="#C87F4C"/>
<stop offset="0.15" stop-color="#D6884F"/>
<stop offset="0.2" stop-color="#DE8E50"/>
<stop offset="0.28" stop-color="#E19051"/>
</linearGradient>
<linearGradient id="paint3_linear_666_16599" x1="54.2528" y1="121.381" x2="54.2528" y2="62.2469" gradientUnits="userSpaceOnUse">
<stop stop-color="#643C3B"/>
<stop offset="0.06" stop-color="#835140"/>
<stop offset="0.15" stop-color="#A56746"/>
<stop offset="0.23" stop-color="#BF794B"/>
<stop offset="0.32" stop-color="#D2864E"/>
<stop offset="0.41" stop-color="#DD8D50"/>
<stop offset="0.51" stop-color="#E19051"/>
</linearGradient>
<linearGradient id="paint4_linear_666_16599" x1="83.8017" y1="160.392" x2="83.8017" y2="122.507" gradientUnits="userSpaceOnUse">
<stop stop-color="#487E50"/>
<stop offset="0.07" stop-color="#518A58"/>
<stop offset="0.21" stop-color="#61A167"/>
<stop offset="0.34" stop-color="#6AAE6F"/>
<stop offset="0.47" stop-color="#6EB373"/>
</linearGradient>
<linearGradient id="paint5_linear_666_16599" x1="141.559" y1="239.563" x2="141.559" y2="117.808" gradientUnits="userSpaceOnUse">
<stop stop-color="#643C3B"/>
<stop offset="0.03" stop-color="#72453D"/>
<stop offset="0.12" stop-color="#996044"/>
<stop offset="0.22" stop-color="#B87449"/>
<stop offset="0.3" stop-color="#CF834D"/>
<stop offset="0.39" stop-color="#DC8C50"/>
<stop offset="0.47" stop-color="#E19051"/>
</linearGradient>
<linearGradient id="paint6_linear_666_16599" x1="81.574" y1="223.708" x2="81.574" y2="185.542" gradientUnits="userSpaceOnUse">
<stop stop-color="#643C3B"/>
<stop offset="0.03" stop-color="#72453D"/>
<stop offset="0.12" stop-color="#996044"/>
<stop offset="0.22" stop-color="#B87449"/>
<stop offset="0.3" stop-color="#CF834D"/>
<stop offset="0.39" stop-color="#DC8C50"/>
<stop offset="0.47" stop-color="#E19051"/>
</linearGradient>
<linearGradient id="paint7_linear_666_16599" x1="74.2317" y1="55.375" x2="74.2317" y2="11.775" gradientUnits="userSpaceOnUse">
<stop offset="0.56" stop-color="#F9E9B3"/>
<stop offset="0.61" stop-color="#F3D9A5"/>
<stop offset="0.79" stop-color="#E1A276"/>
<stop offset="0.93" stop-color="#D58059"/>
<stop offset="1" stop-color="#D1744E"/>
</linearGradient>
<linearGradient id="paint8_linear_666_16599" x1="111.445" y1="147.211" x2="111.445" y2="122.733" gradientUnits="userSpaceOnUse">
<stop stop-color="#487E50"/>
<stop offset="0.07" stop-color="#518A58"/>
<stop offset="0.21" stop-color="#61A167"/>
<stop offset="0.34" stop-color="#6AAE6F"/>
<stop offset="0.47" stop-color="#6EB373"/>
</linearGradient>
</defs>
</svg>
