<svg width="300" height="109" viewBox="0 0 300 109" fill="none" xmlns="http://www.w3.org/2000/svg">
<path d="M19.5179 91.848V93.032H16.4779V103H15.0219V93.032H11.9659V91.848H19.5179ZM25.1341 103.144C24.3128 103.144 23.5661 102.957 22.8941 102.584C22.2328 102.211 21.7101 101.683 21.3261 101C20.9528 100.307 20.7661 99.5067 20.7661 98.6C20.7661 97.704 20.9581 96.9147 21.3421 96.232C21.7368 95.5387 22.2701 95.0107 22.9421 94.648C23.6141 94.2747 24.3661 94.088 25.1981 94.088C26.0301 94.088 26.7821 94.2747 27.4541 94.648C28.1261 95.0107 28.6541 95.5333 29.0381 96.216C29.4328 96.8987 29.6301 97.6933 29.6301 98.6C29.6301 99.5067 29.4275 100.307 29.0221 101C28.6275 101.683 28.0888 102.211 27.4061 102.584C26.7235 102.957 25.9661 103.144 25.1341 103.144ZM25.1341 101.864C25.6568 101.864 26.1475 101.741 26.6061 101.496C27.0648 101.251 27.4328 100.883 27.7101 100.392C27.9981 99.9013 28.1421 99.304 28.1421 98.6C28.1421 97.896 28.0035 97.2987 27.7261 96.808C27.4488 96.3173 27.0861 95.9547 26.6381 95.72C26.1901 95.4747 25.7048 95.352 25.1821 95.352C24.6488 95.352 24.1581 95.4747 23.7101 95.72C23.2728 95.9547 22.9208 96.3173 22.6541 96.808C22.3875 97.2987 22.2541 97.896 22.2541 98.6C22.2541 99.3147 22.3821 99.9173 22.6381 100.408C22.9048 100.899 23.2568 101.267 23.6941 101.512C24.1315 101.747 24.6115 101.864 25.1341 101.864ZM42.0885 94.072C42.7712 94.072 43.3792 94.216 43.9125 94.504C44.4458 94.7813 44.8672 95.2027 45.1765 95.768C45.4858 96.3333 45.6405 97.0213 45.6405 97.832V103H44.2005V98.04C44.2005 97.1653 43.9818 96.4987 43.5445 96.04C43.1178 95.5707 42.5365 95.336 41.8005 95.336C41.0432 95.336 40.4405 95.5813 39.9925 96.072C39.5445 96.552 39.3205 97.2507 39.3205 98.168V103H37.8805V98.04C37.8805 97.1653 37.6618 96.4987 37.2245 96.04C36.7978 95.5707 36.2165 95.336 35.4805 95.336C34.7232 95.336 34.1205 95.5813 33.6725 96.072C33.2245 96.552 33.0005 97.2507 33.0005 98.168V103H31.5445V94.232H33.0005V95.496C33.2885 95.0373 33.6725 94.6853 34.1525 94.44C34.6432 94.1947 35.1818 94.072 35.7685 94.072C36.5045 94.072 37.1552 94.2373 37.7205 94.568C38.2858 94.8987 38.7072 95.384 38.9845 96.024C39.2298 95.4053 39.6352 94.9253 40.2005 94.584C40.7658 94.2427 41.3952 94.072 42.0885 94.072ZM47.4849 98.584C47.4849 97.688 47.6662 96.904 48.0289 96.232C48.3915 95.5493 48.8875 95.0213 49.5169 94.648C50.1569 94.2747 50.8662 94.088 51.6449 94.088C52.4129 94.088 53.0795 94.2533 53.6449 94.584C54.2102 94.9147 54.6315 95.3307 54.9089 95.832V94.232H56.3809V103H54.9089V101.368C54.6209 101.88 54.1889 102.307 53.6129 102.648C53.0475 102.979 52.3862 103.144 51.6289 103.144C50.8502 103.144 50.1462 102.952 49.5169 102.568C48.8875 102.184 48.3915 101.645 48.0289 100.952C47.6662 100.259 47.4849 99.4693 47.4849 98.584ZM54.9089 98.6C54.9089 97.9387 54.7755 97.3627 54.5089 96.872C54.2422 96.3813 53.8795 96.008 53.4209 95.752C52.9729 95.4853 52.4769 95.352 51.9329 95.352C51.3889 95.352 50.8929 95.48 50.4449 95.736C49.9969 95.992 49.6395 96.3653 49.3729 96.856C49.1062 97.3467 48.9729 97.9227 48.9729 98.584C48.9729 99.256 49.1062 99.8427 49.3729 100.344C49.6395 100.835 49.9969 101.213 50.4449 101.48C50.8929 101.736 51.3889 101.864 51.9329 101.864C52.4769 101.864 52.9729 101.736 53.4209 101.48C53.8795 101.213 54.2422 100.835 54.5089 100.344C54.7755 99.8427 54.9089 99.2613 54.9089 98.6ZM60.2974 95.656C60.5534 95.1547 60.916 94.7653 61.3854 94.488C61.8654 94.2107 62.4467 94.072 63.1294 94.072V95.576H62.7454C61.1134 95.576 60.2974 96.4613 60.2974 98.232V103H58.8414V94.232H60.2974V95.656Z" fill="black"/>
<circle cx="37.5" cy="37.5" r="37.5" fill="#C4DDD1"/>
<path d="M56.7397 25.09C55.8995 24.25 54.8692 23.82 53.6789 23.82H50.2581C48.7477 23.82 47.2873 23.18 46.2571 22.07C45.0368 20.75 43.3063 20 41.5059 20H35.2443C33.4439 20 31.7134 20.76 30.4931 22.07C29.4629 23.18 28.0125 23.82 26.4921 23.82H23.0713C21.891 23.82 20.8607 24.25 20.0205 25.09C19.1803 25.93 18.7502 26.96 18.7502 28.15V37.04C18.3101 37.24 18 37.68 18 38.19C18 38.89 18.5701 39.46 19.2703 39.46C19.9705 39.46 20.5406 38.89 20.5406 38.19C20.5406 37.67 20.2206 37.22 19.7704 37.02V28.14C19.7704 27.22 20.0905 26.45 20.7507 25.8C21.4008 25.15 22.171 24.83 23.0813 24.83H26.5021C28.3026 24.83 30.033 24.07 31.2533 22.76C32.2836 21.65 33.7339 21.01 35.2543 21.01H41.5159C43.0263 21.01 44.4866 21.65 45.5169 22.76C46.7372 24.08 48.4676 24.83 50.2681 24.83H53.6889C54.6091 24.83 55.3793 25.15 56.0295 25.81C56.6797 26.47 56.9997 27.23 56.9997 28.15V51.09C56.9997 52.01 56.6797 52.78 56.0195 53.43C55.3693 54.08 54.5991 54.4 53.6889 54.4H23.0813C22.161 54.4 21.3908 54.08 20.7407 53.42C20.0805 52.76 19.7704 52 19.7704 51.08V47.12C19.7704 46.84 19.5404 46.61 19.2603 46.61C18.9802 46.61 18.7502 46.84 18.7502 47.12V51.08C18.7502 52.27 19.1803 53.29 20.0205 54.14C20.8607 54.98 21.891 55.41 23.0813 55.41H53.6789C54.8592 55.41 55.8895 54.98 56.7297 54.14C57.5699 53.3 58 52.27 58 51.08V28.14C58 26.95 57.5699 25.93 56.7297 25.08L56.7397 25.09Z" fill="#201A18"/>
<path d="M38.385 48.72C40.9056 48.72 43.0762 47.83 44.8366 46.06C46.597 44.3 47.4973 42.13 47.4973 39.61C47.4973 37.09 46.607 34.92 44.8366 33.16C43.0762 31.4 40.9056 30.5 38.395 30.5C35.8744 30.5 33.7038 31.39 31.9434 33.16C30.1829 34.92 29.2827 37.09 29.2827 39.61C29.2827 42.13 30.1729 44.3 31.9434 46.06C33.7038 47.82 35.8744 48.72 38.395 48.72H38.385ZM30.293 39.61C30.293 37.34 31.0632 35.47 32.6536 33.88C34.244 32.29 36.1244 31.52 38.395 31.52C40.6656 31.52 42.536 32.29 44.1264 33.88C45.7168 35.47 46.487 37.34 46.487 39.62C46.487 41.89 45.7168 43.76 44.1264 45.35C42.536 46.94 40.6656 47.71 38.395 47.71C36.1244 47.71 34.254 46.94 32.6636 45.35C31.0732 43.76 30.303 41.88 30.303 39.61H30.293Z" fill="#201A18"/>
<path d="M247.096 103.112C246.36 103.112 245.699 102.984 245.112 102.728C244.536 102.461 244.083 102.099 243.752 101.64C243.421 101.171 243.251 100.632 243.24 100.024H244.792C244.845 100.547 245.059 100.989 245.432 101.352C245.816 101.704 246.371 101.88 247.096 101.88C247.789 101.88 248.333 101.709 248.728 101.368C249.133 101.016 249.336 100.568 249.336 100.024C249.336 99.5973 249.219 99.2507 248.984 98.984C248.749 98.7173 248.456 98.5147 248.104 98.376C247.752 98.2373 247.277 98.088 246.68 97.928C245.944 97.736 245.352 97.544 244.904 97.352C244.467 97.16 244.088 96.8613 243.768 96.456C243.459 96.04 243.304 95.4853 243.304 94.792C243.304 94.184 243.459 93.6453 243.768 93.176C244.077 92.7067 244.509 92.344 245.064 92.088C245.629 91.832 246.275 91.704 247 91.704C248.045 91.704 248.899 91.9653 249.56 92.488C250.232 93.0107 250.611 93.704 250.696 94.568H249.096C249.043 94.1413 248.819 93.768 248.424 93.448C248.029 93.1173 247.507 92.952 246.856 92.952C246.248 92.952 245.752 93.112 245.368 93.432C244.984 93.7413 244.792 94.1787 244.792 94.744C244.792 95.1493 244.904 95.48 245.128 95.736C245.363 95.992 245.645 96.1893 245.976 96.328C246.317 96.456 246.792 96.6053 247.4 96.776C248.136 96.9787 248.728 97.1813 249.176 97.384C249.624 97.576 250.008 97.88 250.328 98.296C250.648 98.7013 250.808 99.256 250.808 99.96C250.808 100.504 250.664 101.016 250.376 101.496C250.088 101.976 249.661 102.365 249.096 102.664C248.531 102.963 247.864 103.112 247.096 103.112ZM260.727 94.232V103H259.271V101.704C258.993 102.152 258.604 102.504 258.103 102.76C257.612 103.005 257.068 103.128 256.471 103.128C255.788 103.128 255.175 102.989 254.631 102.712C254.087 102.424 253.655 101.997 253.335 101.432C253.025 100.867 252.871 100.179 252.871 99.368V94.232H254.311V99.176C254.311 100.04 254.529 100.707 254.967 101.176C255.404 101.635 256.001 101.864 256.759 101.864C257.537 101.864 258.151 101.624 258.599 101.144C259.047 100.664 259.271 99.9653 259.271 99.048V94.232H260.727ZM264.641 95.864C264.94 95.3413 265.377 94.9147 265.953 94.584C266.529 94.2533 267.185 94.088 267.921 94.088C268.71 94.088 269.42 94.2747 270.049 94.648C270.678 95.0213 271.174 95.5493 271.537 96.232C271.9 96.904 272.081 97.688 272.081 98.584C272.081 99.4693 271.9 100.259 271.537 100.952C271.174 101.645 270.673 102.184 270.033 102.568C269.404 102.952 268.7 103.144 267.921 103.144C267.164 103.144 266.497 102.979 265.921 102.648C265.356 102.317 264.929 101.896 264.641 101.384V103H263.185V91.16H264.641V95.864ZM270.593 98.584C270.593 97.9227 270.46 97.3467 270.193 96.856C269.926 96.3653 269.564 95.992 269.105 95.736C268.657 95.48 268.161 95.352 267.617 95.352C267.084 95.352 266.588 95.4853 266.129 95.752C265.681 96.008 265.318 96.3867 265.041 96.888C264.774 97.3787 264.641 97.9493 264.641 98.6C264.641 99.2613 264.774 99.8427 265.041 100.344C265.318 100.835 265.681 101.213 266.129 101.48C266.588 101.736 267.084 101.864 267.617 101.864C268.161 101.864 268.657 101.736 269.105 101.48C269.564 101.213 269.926 100.835 270.193 100.344C270.46 99.8427 270.593 99.256 270.593 98.584ZM274.75 92.808C274.472 92.808 274.238 92.712 274.046 92.52C273.854 92.328 273.758 92.0933 273.758 91.816C273.758 91.5387 273.854 91.304 274.046 91.112C274.238 90.92 274.472 90.824 274.75 90.824C275.016 90.824 275.24 90.92 275.422 91.112C275.614 91.304 275.71 91.5387 275.71 91.816C275.71 92.0933 275.614 92.328 275.422 92.52C275.24 92.712 275.016 92.808 274.75 92.808ZM275.454 94.232V103H273.998V94.232H275.454ZM279.391 95.656C279.647 95.1547 280.01 94.7653 280.479 94.488C280.959 94.2107 281.54 94.072 282.223 94.072V95.576H281.839C280.207 95.576 279.391 96.4613 279.391 98.232V103H277.935V94.232H279.391V95.656Z" fill="black"/>
<circle cx="262.5" cy="37.5" r="37.5" fill="#C4DDD1"/>
<g clip-path="url(#clip0_755_2823)">
<path d="M280.31 26.0626C278.6 24.3526 276.32 23.3926 273.9 23.3726C271.52 23.3726 269.18 24.2726 267.44 25.9526L253.12 39.8926C252.66 40.3426 252.29 40.8726 252.04 41.4626C251.79 42.0526 251.65 42.6826 251.65 43.3326C251.65 43.9826 251.77 44.6126 252.01 45.2026C252.25 45.8026 252.61 46.3326 253.07 46.7926C253.53 47.2526 254.06 47.6026 254.66 47.8526C255.24 48.0926 255.86 48.2126 256.49 48.2126H256.53C257.18 48.2126 257.8 48.0726 258.4 47.8226C258.99 47.5626 259.52 47.2026 259.96 46.7426L274.28 32.4226C274.47 32.2326 274.47 31.9226 274.28 31.7326C274.09 31.5426 273.78 31.5426 273.59 31.7326L259.27 46.0526C258.91 46.4226 258.49 46.7126 258.02 46.9126C257.55 47.1126 257.05 47.2226 256.53 47.2226C256 47.2226 255.51 47.1326 255.04 46.9326C254.56 46.7326 254.14 46.4526 253.77 46.0926C253.41 45.7326 253.12 45.3026 252.93 44.8226C252.73 44.3526 252.64 43.8426 252.64 43.3326C252.64 42.8126 252.75 42.3126 252.95 41.8426C253.15 41.3726 253.45 40.9426 253.82 40.5926L268.14 26.6526C269.68 25.1626 271.7 24.3526 273.84 24.3526C273.86 24.3526 273.89 24.3526 273.91 24.3526C276.07 24.3726 278.11 25.2226 279.64 26.7526C281.17 28.2826 282.02 30.3226 282.04 32.4826C282.06 34.6426 281.24 36.7026 279.74 38.2426L272.49 45.3726C272.3 45.5626 272.3 45.8726 272.49 46.0626C272.68 46.2526 272.99 46.2526 273.18 46.0626L280.44 38.9226C282.12 37.1826 283.04 34.8826 283.02 32.4626C283 30.0426 282.04 27.7626 280.33 26.0526L280.31 26.0626Z" fill="#201A18"/>
<path d="M266.56 50.4825C265.89 50.4825 265.34 51.0325 265.34 51.7025C265.34 51.8725 265.37 52.0325 265.44 52.1725C265.44 52.1725 265.42 52.1825 265.41 52.1925C263.04 54.5625 259.89 55.8725 256.53 55.8725C253.17 55.8725 250.02 54.5625 247.65 52.1925C245.28 49.8225 243.97 46.6625 243.97 43.3125C243.97 39.9625 245.28 36.8025 247.65 34.4325L261.22 20.8325C261.41 20.6425 261.41 20.3325 261.22 20.1425C261.03 19.9525 260.72 19.9525 260.53 20.1425L246.96 33.7525C244.4 36.3125 243 39.7025 243 43.3225C243 46.9425 244.41 50.3325 246.96 52.8925C249.52 55.4525 252.91 56.8525 256.53 56.8525C260.15 56.8525 263.54 55.4425 266.1 52.8925C266.12 52.8725 266.12 52.8625 266.13 52.8425C266.26 52.8925 266.41 52.9325 266.56 52.9325C267.23 52.9325 267.78 52.3825 267.78 51.7125C267.78 51.0425 267.23 50.4925 266.56 50.4925V50.4825Z" fill="#201A18"/>
</g>
<defs>
<clipPath id="clip0_755_2823">
<rect width="40" height="40" fill="white" transform="translate(243 18)"/>
</clipPath>
</defs>
</svg>
