<svg width="32" height="32" viewBox="0 0 32 32" fill="none" xmlns="http://www.w3.org/2000/svg">
<path d="M14.83 21.5C13.95 21.5 13.21 21.78 12.63 22.34C12.05 22.9 11.75 23.61 11.75 24.44C11.75 25.27 12.05 25.98 12.63 26.54C13.21 27.09 13.95 27.38 14.83 27.38C15.71 27.38 16.42 27.1 16.99 26.54C17.56 25.98 17.85 25.28 17.85 24.45C17.85 23.62 17.56 22.92 16.99 22.36C16.42 21.8 15.69 21.52 14.83 21.52V21.5ZM16.31 25.83C15.92 26.21 15.44 26.39 14.83 26.39C14.22 26.39 13.7 26.2 13.3 25.82C12.91 25.44 12.72 24.99 12.72 24.42C12.72 23.85 12.91 23.4 13.3 23.02C13.7 22.64 14.2 22.45 14.83 22.45C15.46 22.45 15.92 22.63 16.31 23.01C16.69 23.39 16.88 23.84 16.88 24.41C16.88 24.98 16.69 25.43 16.31 25.81V25.83Z" fill="white"/>
<path d="M23.63 8.76C22.96 8.76 22.42 9.3 22.42 9.97001C22.42 10.47 22.72 10.9 23.16 11.09C23.16 11.21 23.18 11.32 23.18 11.45C23.18 13.26 22.62 14.6 21.48 15.54C20.53 16.32 19.3 16.78 17.82 16.92C16.97 17 16.3 17.7 16.26 18.54C16.24 18.94 15.91 19.26 15.5 19.26H14.21C13.8 19.26 13.47 18.94 13.45 18.53L13.35 16C13.33 15.64 13.58 15.31 13.94 15.23L14.2 15.17C14.2 15.17 14.3 15.15 14.35 15.15C16.11 15.14 17.44 14.9 18.43 14.41C19.19 14.04 20.11 13.22 20.11 11.47C20.11 10.47 19.81 9.65 19.21 9.04C18.61 8.43 17.8 8.12 16.79 8.12C15.78 8.12 14.92 8.42 14.32 9C13.96 9.36 13.7 9.8 13.55 10.32C13.45 10.69 13.17 10.93 12.85 10.93H11.31C11.08 10.93 10.88 10.83 10.73 10.65C10.58 10.46 10.52 10.22 10.57 9.97001C10.68 9.41001 10.88 8.88 11.16 8.39001C11.65 7.52001 12.38 6.84 13.33 6.35C14.3 5.85 15.47 5.6 16.79 5.6C18.64 5.6 20.15 6.08 21.3 7.02C21.5 7.19 21.81 7.16 21.98 6.95C22.15 6.74 22.12 6.44 21.91 6.27C20.59 5.18 18.86 4.63 16.78 4.63C15.3 4.63 13.98 4.92 12.87 5.49C11.74 6.07 10.88 6.89 10.3 7.92C9.98002 8.49 9.74002 9.12 9.61002 9.78C9.50002 10.31 9.63002 10.85 9.97002 11.27C10.3 11.67 10.78 11.9 11.3 11.9H12.84C13.6 11.9 14.26 11.37 14.48 10.59C14.58 10.23 14.75 9.95 14.99 9.71C15.41 9.3 15.99 9.10001 16.79 9.10001C17.54 9.10001 18.1 9.31 18.52 9.73C18.94 10.16 19.14 10.73 19.14 11.48C19.14 12.5 18.77 13.18 18.01 13.55C17.17 13.96 15.94 14.18 14.35 14.19C14.23 14.19 14.1 14.21 13.99 14.23L13.73 14.29C12.92 14.48 12.36 15.21 12.39 16.04L12.49 18.57C12.53 19.5 13.29 20.23 14.22 20.23H15.51C16.43 20.23 17.19 19.51 17.24 18.59C17.26 18.22 17.55 17.91 17.92 17.88C19.59 17.72 21 17.18 22.1 16.28C23.47 15.16 24.16 13.54 24.16 11.44C24.16 11.31 24.14 11.19 24.14 11.07C24.56 10.88 24.86 10.46 24.86 9.97001C24.86 9.3 24.32 8.76 23.65 8.76H23.63Z" fill="white"/>
</svg>
