<svg width="21" height="20" viewBox="0 0 21 20" fill="none" xmlns="http://www.w3.org/2000/svg">
<path d="M1.15649 13.068V9.86463C1.15649 8.54558 2.22234 7.47974 3.54139 7.47974H17.6152C18.9343 7.47974 20.0001 8.54558 20.0001 9.86463V16.8662C20.0001 18.1853 18.9343 19.2511 17.6152 19.2511H3.54139C2.22234 19.2511 1.15649 18.1853 1.15649 16.8662V15.8239" stroke="white" stroke-miterlimit="10" stroke-linecap="round"/>
<path d="M10.3191 11.6899C10.2072 11.525 10.0777 11.3719 9.93047 11.2365C9.27094 10.6064 8.31698 10.2766 7.29236 10.4768C6.38551 10.6594 5.60822 11.2954 5.22545 12.1374C4.28916 14.1926 5.90854 16.3066 7.89889 16.3066C9.35927 16.3066 10.5723 15.2466 10.802 13.851C10.8491 13.5684 11.0846 13.3623 11.3673 13.3623H16.2254" stroke="white" stroke-miterlimit="10" stroke-linecap="round"/>
<path d="M9.95716 12.4702C10.5958 12.4702 11.1135 11.9525 11.1135 11.3139C11.1135 10.6752 10.5958 10.1575 9.95716 10.1575C9.31851 10.1575 8.80078 10.6752 8.80078 11.3139C8.80078 11.9525 9.31851 12.4702 9.95716 12.4702Z" fill="white"/>
<path d="M1.15638 17.0076C1.79503 17.0076 2.31276 16.4899 2.31276 15.8512C2.31276 15.2126 1.79503 14.6948 1.15638 14.6948C0.517729 14.6948 0 15.2126 0 15.8512C0 16.4899 0.517729 17.0076 1.15638 17.0076Z" fill="white"/>
<path d="M15.8803 5.44679C16.5189 5.44679 17.0366 4.92906 17.0366 4.29041C17.0366 3.65176 16.5189 3.13403 15.8803 3.13403C15.2416 3.13403 14.7239 3.65176 14.7239 4.29041C14.7239 4.92906 15.2416 5.44679 15.8803 5.44679Z" fill="white"/>
<path d="M14.2585 13.4509V14.8583" stroke="white" stroke-miterlimit="10" stroke-linecap="round"/>
<path d="M4.75439 7.34429C4.75439 3.72278 7.38072 0.749023 10.5782 0.749023C12.5627 0.749023 14.3234 1.89142 15.3775 3.62267" stroke="white" stroke-miterlimit="10" stroke-linecap="round"/>
</svg>
