<svg width="16" height="17" viewBox="0 0 16 17" fill="none" xmlns="http://www.w3.org/2000/svg">
<path d="M11.37 1.56006C13.8 2.79006 15.47 5.31006 15.47 8.22006C15.47 12.3501 12.12 15.6901 8.00003 15.6901C3.88003 15.6901 0.530029 12.3401 0.530029 8.22006C0.530029 5.31006 2.19003 2.80006 4.61003 1.56006" stroke="white" stroke-miterlimit="10" stroke-linecap="round"/>
<path d="M7.99991 8.15994C7.80991 8.15994 7.65991 8.00994 7.65991 7.81994V1.02994C7.65991 0.839942 7.80991 0.689941 7.99991 0.689941C8.18991 0.689941 8.33991 0.839942 8.33991 1.02994V7.81994C8.33991 8.00994 8.18991 8.15994 7.99991 8.15994Z" fill="white"/>
<path d="M11.3801 2.81006C12.0705 2.81006 12.6301 2.25041 12.6301 1.56006C12.6301 0.869703 12.0705 0.310059 11.3801 0.310059C10.6898 0.310059 10.1301 0.869703 10.1301 1.56006C10.1301 2.25041 10.6898 2.81006 11.3801 2.81006Z" fill="white"/>
</svg>
