<svg width="32" height="32" viewBox="0 0 32 32" fill="none" xmlns="http://www.w3.org/2000/svg">
<path d="M23.76 8.73004H22.03C21.33 8.73004 20.65 8.43004 20.17 7.92004C19.51 7.20004 18.57 6.79004 17.6 6.79004H14.42C13.44 6.79004 12.51 7.20004 11.85 7.92004C11.37 8.44004 10.69 8.73004 9.99 8.73004H8.26C7.6 8.73004 7.02 8.97004 6.55 9.44004C6.08 9.91004 5.84 10.49 5.84 11.15V15.14C5.42 15.33 5.12 15.75 5.12 16.24C5.12 16.91 5.66 17.45 6.33 17.45C7 17.45 7.54 16.91 7.54 16.24C7.54 15.74 7.24 15.32 6.81 15.13V11.15C6.81 10.75 6.95 10.41 7.24 10.12C7.52999 9.83004 7.86 9.69004 8.26 9.69004H9.99C10.96 9.69004 11.9 9.28004 12.56 8.56004C13.04 8.04004 13.72 7.75004 14.42 7.75004H17.6C18.3 7.75004 18.98 8.05004 19.46 8.56004C20.12 9.28004 21.06 9.69004 22.03 9.69004H23.76C24.16 9.69004 24.5 9.83004 24.79 10.12C25.08 10.41 25.22 10.74 25.22 11.15V22.79C25.22 23.19 25.08 23.53 24.79 23.82C24.5 24.11 24.17 24.25 23.77 24.25H8.25C7.85 24.25 7.50999 24.11 7.22 23.82C6.93 23.53 6.79 23.2 6.79 22.79V20.78C6.79 20.51 6.57 20.3 6.31 20.3C6.05 20.3 5.83 20.52 5.83 20.78V22.79C5.83 23.45 6.07 24.03 6.54 24.5C7.01 24.97 7.59 25.21 8.25 25.21H23.77C24.43 25.21 25.01 24.97 25.48 24.5C25.95 24.03 26.19 23.45 26.19 22.79V11.15C26.19 10.49 25.95 9.91004 25.48 9.44004C25.01 8.97004 24.43 8.73004 23.77 8.73004H23.76Z" fill="white"/>
<path d="M16 21.8201C17.34 21.8201 18.5 21.3401 19.43 20.4001C20.37 19.4601 20.84 18.3101 20.84 16.9701C20.84 15.6301 20.36 14.4701 19.42 13.5401C18.48 12.6001 17.33 12.1301 15.99 12.1301C14.65 12.1301 13.49 12.6101 12.56 13.5501C11.62 14.4901 11.15 15.6401 11.15 16.9801C11.15 18.3201 11.63 19.4701 12.56 20.4101C13.5 21.3501 14.65 21.8201 15.99 21.8201H16ZM12.12 16.9701C12.12 15.8801 12.49 14.9801 13.25 14.2201C14.01 13.4601 14.91 13.0901 16 13.0901C17.09 13.0901 17.98 13.4601 18.75 14.2201C19.52 14.9801 19.88 15.8801 19.88 16.9701C19.88 18.0601 19.51 18.9601 18.75 19.7201C17.99 20.4801 17.09 20.8501 16 20.8501C14.91 20.8501 14.02 20.4801 13.25 19.7201C12.49 18.9601 12.12 18.0601 12.12 16.9701Z" fill="white"/>
</svg>
