<svg width="32" height="32" viewBox="0 0 32 32" fill="none" xmlns="http://www.w3.org/2000/svg">
<path fill-rule="evenodd" clip-rule="evenodd" d="M17.02 25.17H9.75999C8.89999 25.17 8.20999 24.47 8.20999 23.62V9.57998C8.20999 8.71998 8.90999 8.02998 9.75999 8.02998H15.2C15.38 8.46998 15.81 8.76998 16.32 8.76998C16.99 8.76998 17.53 8.22998 17.53 7.55998C17.53 6.88998 16.99 6.34998 16.32 6.34998C15.83 6.34998 15.41 6.63998 15.22 7.05998H9.75999C8.36999 7.05998 7.23999 8.18998 7.23999 9.57998V23.62C7.23999 25.01 8.36999 26.14 9.75999 26.14H17.02C17.29 26.14 17.5 25.92 17.5 25.66C17.5 25.4 17.28 25.18 17.02 25.18V25.17Z" fill="white"/>
<path fill-rule="evenodd" clip-rule="evenodd" d="M26.68 15.2199L20.68 11.2399C20.38 11.0399 20.01 11.0299 19.7 11.2099C19.39 11.3899 19.21 11.7199 19.24 12.0699L19.34 13.0899H12.23C11.72 13.0899 11.3 13.5099 11.3 14.0199V17.9699C11.3 18.4799 11.72 18.8999 12.23 18.8999H13.8C14 19.3099 14.4 19.5899 14.89 19.5899C15.56 19.5899 16.1 19.0499 16.1 18.3799C16.1 17.7099 15.56 17.1699 14.89 17.1699C14.38 17.1699 13.94 17.4899 13.77 17.9499L12.28 17.9699L12.24 14.0499H19.35C19.61 14.0499 19.85 13.9399 20.03 13.7599C20.21 13.5699 20.3 13.3199 20.28 13.0599L20.16 12.0399L26.16 15.9599L20.21 19.9699L20.27 18.9099C20.29 18.6499 20.19 18.3999 20.02 18.2199C19.84 18.0299 19.6 17.9299 19.34 17.9299H18.33C18.06 17.9299 17.85 18.1499 17.85 18.4099C17.85 18.6699 18.07 18.8899 18.33 18.8899L19.3 18.8499L19.24 19.9099C19.22 20.2699 19.4 20.5999 19.71 20.7699C19.85 20.8499 20.01 20.8899 20.17 20.8899C20.35 20.8899 20.53 20.8399 20.69 20.7299L26.69 16.7499C26.95 16.5799 27.11 16.2899 27.11 15.9699C27.11 15.6599 26.95 15.3699 26.69 15.1899L26.68 15.2199Z" fill="white"/>
</svg>
