<svg width="32" height="32" viewBox="0 0 32 32" fill="none" xmlns="http://www.w3.org/2000/svg">
<path fill-rule="evenodd" clip-rule="evenodd" d="M23.31 16.3999C23.08 16.3999 22.89 16.2099 22.89 15.9799C22.89 15.8499 22.95 15.7399 23.04 15.6599C24.17 14.7699 24.76 13.3799 24.6 11.9399C24.39 10.0199 22.85 8.46995 20.93 8.25995C19.75 8.12995 18.56 8.50995 17.68 9.28995C16.8 10.0799 16.29 11.2099 16.29 12.3899C16.29 13.6699 16.86 14.8499 17.87 15.6499C17.98 15.7299 18.04 15.8599 18.04 15.9799C18.04 16.2099 17.85 16.3999 17.62 16.3999H14.36C14.13 16.3999 13.94 16.2099 13.94 15.9799C13.94 15.8499 14 15.7399 14.09 15.6599C15.22 14.7699 15.81 13.3799 15.65 11.9399C15.44 10.0199 13.9 8.46995 11.98 8.25995C10.8 8.12995 9.60999 8.50995 8.72999 9.28995C7.84999 10.0799 7.33999 11.2099 7.33999 12.3899C7.33999 13.6699 7.90999 14.8499 8.91999 15.6499C9.02999 15.7299 9.08999 15.8599 9.08999 15.9799C9.08999 16.2099 8.89999 16.3999 8.66999 16.3999C7.08999 16.3999 5.79999 17.6899 5.79999 19.2699V22.0899C5.79999 23.0099 6.54999 23.7599 7.46999 23.7599H11.06C11.33 23.7599 11.54 23.5399 11.54 23.2799C11.54 23.0199 11.32 22.7999 11.06 22.7999H7.46999C7.07999 22.7999 6.76999 22.4899 6.76999 22.0999V19.2799C6.76999 18.2299 7.61999 17.3799 8.66999 17.3799C9.43999 17.3799 10.06 16.7599 10.06 15.9899C10.06 15.5699 9.86999 15.1699 9.52999 14.8999C8.75999 14.2899 8.31999 13.3799 8.31999 12.3999C8.31999 11.4899 8.70999 10.6199 9.37999 10.0199C10.06 9.40995 10.95 9.12995 11.88 9.22995C13.35 9.38995 14.53 10.5799 14.69 12.0499C14.81 13.1499 14.36 14.2199 13.49 14.9099C13.16 15.1699 12.97 15.5699 12.97 15.9899C12.97 16.7599 13.59 17.3799 14.36 17.3799H17.62C18.39 17.3799 19.01 16.7599 19.01 15.9899C19.01 15.5699 18.82 15.1699 18.48 14.8999C17.71 14.2899 17.27 13.3799 17.27 12.3999C17.27 11.4899 17.66 10.6199 18.33 10.0199C19.02 9.40995 19.9 9.12995 20.83 9.22995C22.3 9.38995 23.48 10.5799 23.64 12.0499C23.76 13.1499 23.31 14.2199 22.44 14.9099C22.11 15.1699 21.92 15.5699 21.92 15.9899C21.92 16.7599 22.54 17.3799 23.31 17.3799C24.36 17.3799 25.21 18.2299 25.21 19.2799V22.0999C25.21 22.4899 24.9 22.7999 24.51 22.7999H16.69C16.5 22.3799 16.08 22.0899 15.59 22.0899C14.92 22.0899 14.38 22.6299 14.38 23.2999C14.38 23.9699 14.92 24.5099 15.59 24.5099C16.09 24.5099 16.52 24.1999 16.71 23.7699H24.51C25.43 23.7699 26.18 23.0199 26.18 22.0999V19.2799C26.18 17.6999 24.89 16.4099 23.31 16.4099V16.3999Z" fill="white"/>
</svg>
