<svg width="24" height="14" viewBox="0 0 24 14" fill="none" xmlns="http://www.w3.org/2000/svg">
<path d="M1 8.30005V10.98C1 11.78 1.65 12.43 2.45 12.43H21.72" stroke="white" stroke-miterlimit="10" stroke-linecap="round"/>
<path d="M21.72 13.6899C22.4103 13.6899 22.97 13.1303 22.97 12.4399C22.97 11.7496 22.4103 11.1899 21.72 11.1899C21.0296 11.1899 20.47 11.7496 20.47 12.4399C20.47 13.1303 21.0296 13.6899 21.72 13.6899Z" fill="white"/>
<path d="M23 5.70007V3.02007C23 2.22007 22.35 1.57007 21.55 1.57007H2.28003" stroke="white" stroke-miterlimit="10" stroke-linecap="round"/>
<path d="M2.28003 2.81006C2.97039 2.81006 3.53003 2.25041 3.53003 1.56006C3.53003 0.869703 2.97039 0.310059 2.28003 0.310059C1.58967 0.310059 1.03003 0.869703 1.03003 1.56006C1.03003 2.25041 1.58967 2.81006 2.28003 2.81006Z" fill="white"/>
<path d="M8.24998 5.51994L8.35998 5.71994C8.43998 5.86994 8.37998 6.06994 8.21998 6.13994L6.97998 6.69994C6.73998 6.80994 6.73998 7.13994 6.97998 7.24994L8.22998 7.81994C8.38998 7.88994 8.45998 8.08994 8.36998 8.23994L8.24998 8.45994C8.15998 8.60994 7.95998 8.65994 7.81998 8.55994L6.63998 7.77994C6.42998 7.63994 6.14998 7.79994 6.16998 8.05994L6.27998 9.50994C6.28998 9.68994 6.14998 9.83994 5.97998 9.83994H5.74998C5.56998 9.83994 5.43998 9.68994 5.44998 9.51994L5.54998 8.06994C5.56998 7.81994 5.28998 7.65994 5.07998 7.79994L3.89998 8.59994C3.74998 8.69994 3.54998 8.64994 3.46998 8.49994L3.33998 8.26994C3.24998 8.10994 3.31998 7.91994 3.47998 7.83994L4.72998 7.27994C4.96998 7.16994 4.96998 6.82994 4.72998 6.72994L3.49998 6.17994C3.33998 6.10994 3.26998 5.90994 3.35998 5.75994L3.47998 5.53994C3.56998 5.38994 3.76998 5.33994 3.90998 5.43994L5.09998 6.23994C5.30998 6.37994 5.58998 6.21994 5.56998 5.96994L5.45998 4.51994C5.44998 4.33994 5.58998 4.18994 5.75998 4.18994H5.99998C6.17998 4.18994 6.31998 4.33994 6.29998 4.51994L6.17998 5.95994C6.15998 6.20994 6.43998 6.37994 6.64998 6.23994L7.81998 5.44994C7.96998 5.34994 8.16998 5.39994 8.24998 5.55994V5.51994Z" fill="white"/>
<path d="M14.3999 5.51994L14.5099 5.71994C14.5899 5.86994 14.5299 6.06994 14.3699 6.13994L13.1299 6.69994C12.8899 6.80994 12.8899 7.13994 13.1299 7.24994L14.3799 7.81994C14.5399 7.88994 14.6099 8.08994 14.5199 8.23994L14.3999 8.45994C14.3099 8.60994 14.1099 8.65994 13.9699 8.55994L12.7899 7.77994C12.5799 7.63994 12.2999 7.79994 12.3199 8.05994L12.4299 9.50994C12.4399 9.68994 12.2999 9.83994 12.1299 9.83994H11.8999C11.7199 9.83994 11.5899 9.68994 11.5999 9.51994L11.6999 8.06994C11.7199 7.81994 11.4399 7.65994 11.2299 7.79994L10.0499 8.59994C9.89989 8.69994 9.69989 8.64994 9.61989 8.49994L9.48989 8.26994C9.39989 8.10994 9.46989 7.91994 9.62989 7.83994L10.8799 7.27994C11.1199 7.16994 11.1199 6.82994 10.8799 6.72994L9.64989 6.17994C9.48989 6.10994 9.41989 5.90994 9.50989 5.75994L9.62989 5.53994C9.71989 5.38994 9.91989 5.33994 10.0599 5.43994L11.2499 6.23994C11.4599 6.37994 11.7399 6.21994 11.7199 5.96994L11.6099 4.51994C11.5999 4.33994 11.7399 4.18994 11.9099 4.18994H12.1499C12.3299 4.18994 12.4699 4.33994 12.4499 4.51994L12.3299 5.95994C12.3099 6.20994 12.5899 6.37994 12.7999 6.23994L13.9699 5.44994C14.1199 5.34994 14.3199 5.39994 14.3999 5.55994V5.51994Z" fill="white"/>
<path d="M20.55 5.51994L20.66 5.71994C20.74 5.86994 20.68 6.06994 20.52 6.13994L19.28 6.69994C19.04 6.80994 19.04 7.13994 19.28 7.24994L20.53 7.81994C20.69 7.88994 20.76 8.08994 20.67 8.23994L20.55 8.45994C20.46 8.60994 20.26 8.65994 20.12 8.55994L18.94 7.77994C18.73 7.63994 18.45 7.79994 18.47 8.05994L18.58 9.50994C18.59 9.68994 18.45 9.83994 18.28 9.83994H18.05C17.87 9.83994 17.74 9.68994 17.75 9.51994L17.85 8.06994C17.87 7.81994 17.59 7.65994 17.38 7.79994L16.2 8.59994C16.05 8.69994 15.85 8.64994 15.77 8.49994L15.64 8.26994C15.55 8.10994 15.62 7.91994 15.78 7.83994L17.03 7.27994C17.27 7.16994 17.27 6.82994 17.03 6.72994L15.8 6.17994C15.64 6.10994 15.57 5.90994 15.66 5.75994L15.78 5.53994C15.87 5.38994 16.07 5.33994 16.21 5.43994L17.4 6.23994C17.61 6.37994 17.89 6.21994 17.87 5.96994L17.76 4.51994C17.75 4.33994 17.89 4.18994 18.06 4.18994H18.3C18.48 4.18994 18.62 4.33994 18.6 4.51994L18.48 5.95994C18.46 6.20994 18.74 6.37994 18.95 6.23994L20.12 5.44994C20.27 5.34994 20.47 5.39994 20.55 5.55994V5.51994Z" fill="white"/>
</svg>
