<svg width="32" height="32" viewBox="0 0 32 32" fill="none" xmlns="http://www.w3.org/2000/svg">
<path d="M6.87999 20.4398C6.63999 19.6398 6.81999 18.7298 7.44999 18.0998C7.63999 17.9098 7.63999 17.5998 7.44999 17.4098C7.25999 17.2198 6.94999 17.2198 6.75999 17.4098C5.82999 18.3398 5.57999 19.6998 5.98999 20.8598C5.88999 21.0098 5.80999 21.1898 5.80999 21.3798C5.80999 21.9198 6.23999 22.3498 6.77999 22.3498C7.31999 22.3498 7.74999 21.9198 7.74999 21.3798C7.74999 20.8698 7.35999 20.4698 6.86999 20.4298L6.87999 20.4398Z" fill="white"/>
<path d="M27.98 20.6899L24.43 17.1399C23.84 16.5499 22.89 16.4399 22.19 16.8899C21.21 17.5199 20.07 17.7699 18.9 17.6199C16.78 17.3399 15.04 15.5899 14.77 13.4599C14.58 11.9499 15.08 10.4699 16.15 9.39989C17.22 8.32989 18.7 7.82989 20.21 8.01989C22.41 8.29989 24.17 10.0999 24.39 12.3099C24.45 12.8799 24.41 13.4399 24.28 13.9799C23.83 14.0599 23.48 14.4399 23.48 14.9199C23.48 15.4599 23.91 15.8899 24.45 15.8899C24.99 15.8899 25.42 15.4599 25.42 14.9199C25.42 14.6899 25.33 14.4799 25.19 14.3199C25.37 13.6399 25.43 12.9299 25.36 12.2199C25.09 9.56989 22.98 7.39989 20.33 7.06989C18.51 6.83989 16.74 7.44989 15.47 8.72989C14.19 10.0099 13.59 11.7799 13.82 13.5999C14.14 16.1599 16.23 18.2599 18.78 18.5999C20.17 18.7899 21.57 18.4699 22.73 17.7299C23.05 17.5199 23.48 17.5699 23.75 17.8499L27.3 21.3999C27.39 21.4899 27.52 21.5399 27.64 21.5399C27.76 21.5399 27.89 21.4899 27.98 21.3999C28.17 21.2099 28.17 20.8999 27.98 20.7099V20.6899Z" fill="white"/>
<path d="M20.72 9.17983C20.57 8.82983 20.23 8.57983 19.83 8.57983C19.29 8.57983 18.86 9.00983 18.86 9.54983C18.86 10.0898 19.29 10.5198 19.83 10.5198C20.14 10.5198 20.4 10.3698 20.58 10.1398C21.48 10.3798 22.16 11.1898 22.16 12.1698C22.16 12.4398 22.38 12.6498 22.64 12.6498C22.9 12.6498 23.12 12.4298 23.12 12.1698C23.12 10.7098 22.09 9.48983 20.72 9.17983Z" fill="white"/>
<path d="M10.27 20.9299C10.58 20.6199 10.75 20.1999 10.75 19.7599C10.75 19.3199 10.58 18.8999 10.27 18.5899C9.96001 18.2799 9.54001 18.1099 9.10001 18.1099C8.66001 18.1099 8.24001 18.2799 7.93001 18.5899C7.29001 19.2299 7.29001 20.2799 7.93001 20.9299C8.24001 21.2399 8.66001 21.4099 9.10001 21.4099C9.54001 21.4099 9.96001 21.2399 10.27 20.9299ZM8.62001 19.2799C8.75001 19.1499 8.92001 19.0799 9.10001 19.0799C9.28001 19.0799 9.45001 19.1499 9.58001 19.2799C9.71001 19.4099 9.78001 19.5799 9.78001 19.7599C9.78001 19.9399 9.71001 20.1099 9.58001 20.2399C9.32001 20.4999 8.87001 20.4999 8.61001 20.2399C8.34001 19.9699 8.34001 19.5399 8.61001 19.2699L8.62001 19.2799Z" fill="white"/>
<path d="M11.45 22.0999C12.08 21.4699 12.42 20.6399 12.42 19.7599C12.42 18.8799 12.08 18.0399 11.45 17.4199C11.03 16.9999 10.51 16.7199 9.95001 16.5699C9.84001 16.1599 9.48001 15.8499 9.03001 15.8499C8.49001 15.8499 8.06001 16.2799 8.06001 16.8199C8.06001 17.3599 8.49001 17.7899 9.03001 17.7899C9.30001 17.7899 9.54001 17.6799 9.72001 17.5099C10.11 17.6099 10.48 17.8099 10.77 18.1099C11.21 18.5499 11.46 19.1399 11.46 19.7699C11.46 20.3999 11.22 20.9799 10.77 21.4299C10.19 22.0099 9.36001 22.2499 8.55001 22.0499C8.28001 21.9799 8.03001 22.1399 7.96001 22.3999C7.89001 22.6599 8.05001 22.9199 8.31001 22.9899C8.58001 23.0599 8.85001 23.0899 9.12001 23.0899C9.99001 23.0899 10.82 22.7499 11.45 22.1199V22.0999Z" fill="white"/>
<path d="M19.58 19.2698C19.31 19.2698 19.1 19.4898 19.1 19.7498C19.1 20.4398 18.92 21.0798 18.63 21.6598C18.6 21.6598 18.56 21.6398 18.53 21.6398H16.62C16.45 21.3598 16.15 21.1498 15.8 21.1498C15.26 21.1498 14.83 21.5798 14.83 22.1198C14.83 22.6598 15.26 23.0898 15.8 23.0898C16.15 23.0898 16.45 22.8898 16.62 22.6098H17.98C17.2 23.4598 16.09 24.0098 14.85 24.0098H12.12C12.36 23.8398 12.59 23.6598 12.81 23.4498C13.69 22.5698 14.17 21.4498 14.29 20.2998H16.77C16.94 20.5798 17.24 20.7798 17.59 20.7798C18.13 20.7798 18.56 20.3498 18.56 19.8098C18.56 19.2698 18.13 18.8398 17.59 18.8398C17.24 18.8398 16.94 19.0398 16.77 19.3198H14.3C14.2 18.1298 13.72 16.9598 12.81 16.0498C12.6 15.8398 12.36 15.6598 12.12 15.4898H12.92C13.19 15.4898 13.4 15.2698 13.4 15.0098C13.4 14.7498 13.18 14.5298 12.92 14.5298H9.31001C9.31001 14.5298 9.26 14.5398 9.24 14.5398C7.86 14.5098 6.47 14.9998 5.41 16.0598C3.37 18.0998 3.37 21.4098 5.41 23.4498C6.43 24.4698 7.77 24.9798 9.11 24.9798C9.13 24.9798 9.15 24.9798 9.17 24.9798C9.18001 24.9798 9.2 24.9798 9.21 24.9798H14.85C17.73 24.9798 20.08 22.6398 20.08 19.7498C20.08 19.4798 19.86 19.2698 19.6 19.2698H19.58ZM6.09001 16.7498C6.92001 15.9198 8.01 15.5098 9.10001 15.5098C10.19 15.5098 11.28 15.9198 12.11 16.7498C13.77 18.4098 13.77 21.1098 12.11 22.7698C10.45 24.4298 7.75001 24.4298 6.09001 22.7698C4.43001 21.1098 4.43001 18.4098 6.09001 16.7498Z" fill="white"/>
</svg>
