<svg version="1.1" id="Layer_1" xmlns="http://www.w3.org/2000/svg" xmlns:xlink="http://www.w3.org/1999/xlink" x="0px" y="0px"
	 width="100%" viewBox="0 0 626 626" enable-background="new 0 0 626 626" xml:space="preserve">
<path fill="none" opacity="1.000000" stroke="none" 
	d="
M364.000000,627.000000 
	C242.666687,627.000000 121.833374,627.000000 1.000049,627.000000 
	C1.000032,418.333405 1.000032,209.666779 1.000016,1.000133 
	C209.666565,1.000088 418.333130,1.000088 626.999756,1.000044 
	C626.999878,209.666519 626.999878,418.333038 626.999939,626.999756 
	C539.500000,627.000000 452.000000,627.000000 364.000000,627.000000 
M380.500000,554.000000 
	C398.622375,554.000000 416.744781,554.000000 434.841949,554.000000 
	C435.119843,547.006531 435.119843,547.001282 428.972168,547.000916 
	C397.141083,546.998962 365.310028,547.000000 333.478943,547.000000 
	C331.716370,547.000000 329.953766,547.000000 328.000000,547.000000 
	C328.000000,544.594971 328.000000,542.781067 328.000000,540.967224 
	C328.000000,446.307251 328.056305,351.647186 327.852051,256.987640 
	C327.840546,251.641098 329.528076,247.962357 333.061920,244.393921 
	C355.793610,221.439957 378.466583,198.427536 401.097504,175.374100 
	C409.692230,166.618881 418.102966,157.683273 426.642120,148.873077 
	C429.987030,145.422028 432.949249,140.864395 438.979584,143.950851 
	C439.439484,144.186234 440.254425,143.809219 440.878967,143.628967 
	C446.289337,142.067307 448.732788,138.168411 447.974121,132.001266 
	C447.477722,127.966141 445.067383,125.535782 441.029877,125.025848 
	C434.846863,124.244942 430.390594,126.529892 429.596405,132.127213 
	C428.963837,136.585358 426.392273,139.073807 423.659454,141.831680 
	C421.286957,144.225952 418.904144,146.609970 416.521149,148.993805 
	C395.994720,169.527634 375.470734,190.063904 354.928986,210.582413 
	C353.969635,211.540665 352.849335,212.337738 351.001892,213.879105 
	C351.001892,205.140808 350.873474,197.533997 351.106781,189.938309 
	C351.155273,188.358688 352.207642,186.485901 353.369843,185.317764 
	C360.215820,178.436813 367.110870,171.592697 374.274963,165.048828 
	C376.040802,163.435867 378.815399,162.319717 381.217804,162.129166 
	C387.532288,161.628342 390.537354,158.261765 389.999420,151.338669 
	C389.620575,146.463058 384.770935,142.501160 379.794128,143.001495 
	C375.188171,143.464523 370.493561,149.750458 371.009888,154.323669 
	C371.166595,155.711655 370.678589,157.623810 369.754486,158.611710 
	C361.624390,167.303162 353.267883,175.782974 345.150238,184.485703 
	C343.968445,185.752670 343.137024,187.852493 343.094391,189.590271 
	C342.886017,198.084564 342.294525,206.660156 343.169525,215.068512 
	C344.403992,226.931091 334.415588,230.292511 328.671448,237.040344 
	C328.000000,232.109283 327.556824,227.442520 328.095551,222.891968 
	C329.106659,214.351334 327.127899,207.461868 319.857300,202.152405 
	C317.060699,200.110153 315.227020,196.749298 312.937866,193.968903 
	C318.378510,187.715851 323.727692,181.513077 329.145233,175.370621 
	C331.083282,173.173294 332.728638,171.338959 336.300476,170.549225 
	C342.919403,169.085800 344.857361,161.818130 341.880798,156.491287 
	C339.493500,152.219086 334.128967,150.783829 329.755707,152.762253 
	C324.889099,154.963852 323.486298,158.756775 324.874115,164.279709 
	C325.275116,165.875504 324.778442,168.234573 323.780090,169.551254 
	C319.450439,175.261383 314.748505,180.687576 310.252655,186.273926 
	C307.920410,189.171829 306.156403,187.928894 304.253937,185.776779 
	C300.872833,181.951981 297.564880,178.037537 293.903015,174.494751 
	C291.490387,172.160553 291.853119,170.815094 293.949860,168.423340 
	C300.616669,160.818405 306.969879,152.936768 313.380493,145.109833 
	C316.363251,141.468109 319.692810,139.070633 324.802155,139.984222 
	C336.582916,142.090652 348.388489,144.067505 360.215118,145.895798 
	C361.649231,146.117508 363.782990,145.582413 364.726532,144.581604 
	C369.901733,139.092133 374.754333,133.300156 379.838684,127.722305 
	C381.261810,126.161034 382.323914,124.226234 385.544495,125.629135 
	C389.515320,127.358818 396.179962,123.373344 396.990845,119.641037 
	C398.234406,113.917015 395.748291,108.543640 391.178467,107.078514 
	C385.741943,105.335526 380.290344,107.949554 379.140991,113.794540 
	C378.119904,118.987282 375.262329,122.498947 371.668335,125.879379 
	C368.274384,129.071671 364.742218,132.211029 361.903137,135.864960 
	C360.124054,138.154678 358.568420,138.091415 356.197144,137.682480 
	C345.982330,135.920914 335.736298,134.340179 324.783356,132.578049 
	C333.286438,122.426712 341.620667,112.411850 350.075226,102.499619 
	C350.799286,101.650742 352.348389,101.020134 353.470795,101.081612 
	C358.006165,101.330032 360.478485,98.176544 361.273895,94.903511 
	C361.978271,92.005142 361.257538,88.005051 359.638855,85.464211 
	C356.796204,81.002174 351.488129,80.833672 346.696198,84.035988 
	C342.852051,86.604919 342.200348,91.484947 345.040955,97.213539 
	C330.373322,113.224045 317.335236,130.788071 301.880737,147.124008 
	C300.201508,141.189087 298.576813,136.778549 297.817932,132.223755 
	C297.416016,129.811523 297.709595,126.542488 299.084961,124.705055 
	C304.636414,117.288582 310.816315,110.345947 316.558136,103.065849 
	C317.808075,101.481064 319.077332,99.096741 318.811462,97.307457 
	C318.316254,93.975159 319.503143,91.987297 321.652954,89.755875 
	C325.528595,85.733131 324.812866,79.559753 320.404846,75.945236 
	C316.673676,72.885727 310.392609,73.351196 307.600006,76.894188 
	C303.815247,81.695938 304.436066,87.340897 308.895782,91.063072 
	C309.941986,91.936264 310.793091,93.572273 310.912781,94.929749 
	C311.311584,99.453690 303.462067,109.368561 299.412476,110.192368 
	C295.283020,105.929131 290.629028,102.189232 285.967621,98.458588 
	C282.450714,95.643936 280.313019,92.490227 280.846863,87.479355 
	C281.298706,83.238754 277.841217,80.296661 273.530518,80.000443 
	C267.972198,79.618500 263.900330,81.819740 263.078613,85.944855 
	C261.508911,93.825264 265.764099,99.153534 273.352325,99.119781 
	C275.200684,99.111557 277.487854,100.152977 278.828674,101.469894 
	C283.328033,105.889145 287.348724,110.795212 291.839752,115.223793 
	C294.258667,117.609085 294.827637,119.453026 291.896515,121.606339 
	C288.379181,124.190323 288.416168,127.497627 289.646606,131.266373 
	C291.537140,137.056931 293.390717,142.873779 294.870544,148.777069 
	C295.451050,151.092712 295.777802,154.065140 294.803253,156.038895 
	C293.326813,159.029251 290.805939,161.619690 288.301392,163.913315 
	C287.586761,164.567749 284.848633,164.159836 283.969147,163.293823 
	C279.505737,158.898819 275.419312,154.124634 271.070007,149.609329 
	C260.247253,138.373535 249.449783,127.109779 238.416855,116.082680 
	C235.840561,113.507759 234.535461,111.002365 234.974854,107.422455 
	C235.553635,102.706627 233.396637,99.558327 228.966309,98.036324 
	C224.683456,96.564980 221.219269,98.179390 218.264938,101.243439 
	C215.203156,104.418907 215.622238,108.674858 217.478592,111.471550 
	C219.204239,114.071297 223.082489,115.317200 226.134842,116.928375 
	C227.569962,117.685898 229.780426,117.414566 230.803101,118.442017 
	C237.458099,125.128159 243.857849,132.067429 250.389816,138.877182 
	C259.343811,148.211960 268.380615,157.467667 277.287170,166.847290 
	C279.119263,168.776672 280.534027,171.102341 282.409973,173.603821 
	C263.947052,174.079865 246.111374,174.553574 228.274094,174.958237 
	C227.395020,174.978165 226.325302,174.611465 225.646866,174.055603 
	C222.860733,171.772842 220.122116,169.421432 217.493317,166.959381 
	C210.849991,160.737381 204.560593,154.095047 197.547012,148.329605 
	C194.284576,145.647751 192.917908,143.277191 192.725830,139.079300 
	C192.614700,136.650421 190.258881,133.586151 188.043060,132.157928 
	C184.361664,129.785049 179.746048,129.953003 177.055450,133.734467 
	C175.308319,136.189941 174.190353,140.035751 174.688461,142.932236 
	C175.500336,147.653122 179.432785,149.782242 184.316574,150.072922 
	C185.958481,150.170639 187.928818,150.693680 189.103775,151.744110 
	C197.707367,159.435837 206.194534,167.260239 214.619949,175.147949 
	C219.521362,179.736557 224.546661,182.504547 231.920776,182.225037 
	C250.060089,181.537491 268.244232,181.901398 286.406891,182.123489 
	C288.704742,182.151581 291.550903,183.286560 293.173157,184.889999 
	C301.420349,193.041687 309.469116,201.405838 317.297150,209.961136 
	C319.113647,211.946396 320.793243,214.951706 320.838928,217.517883 
	C321.147583,234.844498 321.007477,252.179230 320.976410,269.511292 
	C320.974884,270.354187 320.634491,271.196472 320.176880,273.307831 
	C314.875641,267.770447 310.147339,263.121338 305.806824,258.134644 
	C304.360321,256.472778 303.212463,253.974396 303.124725,251.809921 
	C302.807678,243.989990 302.542175,236.114029 303.143890,228.327759 
	C303.631348,222.020569 301.207184,217.344620 297.399628,212.900421 
	C295.686676,210.901093 294.498627,209.126877 295.810547,205.975922 
	C297.303619,202.389786 293.554688,196.163773 290.122345,195.059174 
	C285.402924,193.540344 278.401825,196.644577 277.071930,200.845581 
	C275.420044,206.063583 279.336884,212.583649 284.960938,213.977783 
	C291.081299,215.494949 295.963684,221.535645 295.989990,227.755676 
	C296.028717,236.921524 295.921600,246.088974 296.072998,255.252487 
	C296.099915,256.881165 296.640686,258.897766 297.694244,260.048553 
	C304.391388,267.363892 311.419983,274.377899 318.048065,281.752960 
	C319.605988,283.486481 320.876251,286.223419 320.880066,288.501099 
	C321.022339,373.161530 321.001099,457.822235 320.990692,542.482910 
	C320.990509,543.920044 320.850403,545.357178 320.757721,547.137817 
	C286.673340,547.137817 252.910721,547.137817 219.167633,547.137817 
	C218.868576,553.993286 218.868576,553.998962 225.010925,553.999146 
	C276.507294,554.000671 328.003632,554.000000 380.500000,554.000000 
M385.499573,526.000000 
	C374.735657,526.000000 363.971710,526.000000 353.000000,526.000000 
	C353.000000,496.780365 353.351013,468.128998 352.787720,439.495636 
	C352.617035,430.819855 354.322693,424.078369 361.476074,418.952087 
	C363.859039,417.244415 365.563843,414.038757 368.117065,413.241089 
	C372.706207,411.807312 377.691284,411.581604 382.530457,411.019043 
	C394.519043,409.625366 406.551910,408.558563 418.493683,406.848724 
	C422.090759,406.333679 425.905243,406.196747 429.014404,402.757538 
	C436.381531,394.608429 444.448639,387.093719 452.197174,379.287201 
	C455.656952,375.801575 458.668823,371.556641 464.634674,372.939331 
	C465.113403,373.050293 465.734192,372.354187 466.331696,372.177887 
	C470.910431,370.826752 472.559296,364.733368 471.913635,361.844604 
	C470.787415,356.805939 466.319641,353.492584 461.685913,354.001831 
	C456.552460,354.566040 453.306732,358.277161 452.911743,363.353424 
	C452.746338,365.478912 452.176117,368.058228 450.813232,369.521484 
	C444.854065,375.919678 438.080750,381.602997 432.490875,388.288208 
	C427.869843,393.814697 423.207306,398.395996 415.693542,398.986450 
	C413.407166,399.166107 411.111206,399.292206 408.841461,399.602417 
	C398.631775,400.997681 388.429962,402.450348 376.642181,404.104431 
	C380.736969,399.912781 383.715820,396.637543 386.929626,393.611847 
	C402.510834,378.942657 418.236572,364.426117 433.743439,349.679169 
	C441.769714,342.046234 449.364777,333.960724 457.351990,326.285065 
	C458.981598,324.719055 461.409668,323.395020 463.613770,323.121765 
	C471.493378,322.144897 475.145538,314.994232 470.801422,308.431122 
	C468.655182,305.188477 462.949982,303.874817 458.837646,305.676361 
	C455.284912,307.232758 451.890625,312.443359 453.300537,315.422882 
	C454.852509,318.702545 453.319550,320.324341 451.331329,322.176605 
	C441.513153,331.323547 431.592987,340.363983 421.902252,349.644012 
	C409.191650,361.815979 396.668945,374.184082 384.035980,386.437439 
	C383.324097,387.127930 382.345001,387.542938 381.681793,387.964447 
	C378.749420,376.192139 381.747192,366.811066 391.545197,359.898560 
	C392.868927,358.964722 393.642456,357.228699 394.989105,356.354462 
	C397.516937,354.713348 400.131531,352.847534 402.975494,352.135712 
	C407.237823,351.068817 410.974396,349.379272 411.816986,344.980286 
	C412.601868,340.882629 412.911041,335.841766 407.588074,334.310974 
	C404.446320,333.407410 400.280487,333.112915 397.547852,334.483612 
	C394.113739,336.206207 392.361450,340.169983 393.155640,344.557922 
	C393.321930,345.476868 393.472931,346.820984 392.973022,347.369049 
	C389.915588,350.721130 386.644135,353.876648 383.490143,357.142273 
	C378.008453,362.817902 372.179169,368.110077 373.848053,377.471130 
	C374.711975,382.317047 374.063538,387.445251 373.959259,392.443024 
	C373.929932,393.849335 373.870544,395.667542 373.038513,396.578705 
	C366.878418,403.324646 360.519714,409.889160 354.036743,416.707031 
	C353.339874,415.512451 353.061615,415.258026 353.061249,415.003204 
	C353.027191,391.837616 352.986053,368.671875 353.077606,345.506683 
	C353.082581,344.249817 353.933868,342.727142 354.857391,341.785370 
	C362.786682,333.699402 370.799866,325.694824 378.863220,317.742279 
	C379.707855,316.909210 381.071136,316.023956 382.138794,316.087494 
	C389.991669,316.554932 397.823425,317.588806 405.676514,317.755920 
	C410.036804,317.848724 414.763855,319.819214 418.806458,315.807373 
	C430.351746,304.350067 442.147736,293.145752 453.732269,281.727478 
	C464.572845,271.042480 475.331818,260.272430 485.980316,249.396484 
	C488.340118,246.986221 490.631866,245.679459 494.142120,245.910782 
	C498.832092,246.219803 503.050232,241.651901 502.997833,236.935730 
	C502.946564,232.323303 497.994476,227.247345 493.306702,227.002182 
	C488.794159,226.766190 483.718506,231.149414 484.153259,235.814941 
	C484.527313,239.829056 482.543243,242.380142 480.349182,244.883255 
	C478.285980,247.237106 475.576050,249.009460 473.322357,251.213257 
	C455.613800,268.529694 437.818268,285.760742 420.352417,303.319366 
	C415.705536,307.990906 411.634491,311.951630 404.216827,310.141602 
	C399.300812,308.941986 394.054840,309.094574 387.778900,308.537292 
	C394.184692,302.199341 399.793610,296.794830 405.226593,291.218903 
	C408.398712,287.963348 411.402374,284.734894 416.615814,285.954865 
	C417.325165,286.120850 418.277954,285.867554 418.944366,285.496521 
	C423.735443,282.829132 425.083160,278.487854 423.004089,272.713287 
	C421.834045,269.463379 416.565643,266.281342 413.264404,267.043640 
	C409.081055,268.009644 404.337189,272.361572 404.832825,276.885742 
	C405.041962,278.794769 403.926575,281.404114 402.533356,282.843445 
	C393.379059,292.300751 384.004852,301.546051 374.643188,310.800659 
	C373.443085,311.987030 371.900604,312.827148 370.000000,314.201294 
	C370.000000,311.028687 370.363922,308.517761 369.939728,306.147919 
	C367.544312,292.765472 372.059479,282.438202 382.918701,274.396362 
	C385.966125,272.139587 388.166412,269.491730 392.672363,269.829895 
	C397.530609,270.194458 401.001862,265.097839 400.357544,259.856537 
	C399.679810,254.343124 394.593994,250.196655 389.502869,251.006805 
	C385.210754,251.689804 380.687164,257.687286 381.112366,261.585754 
	C381.285065,263.169250 380.882721,265.334351 379.871979,266.437897 
	C375.573517,271.131012 371.060120,275.644958 366.398499,279.980621 
	C363.922852,282.283173 362.804260,284.638428 362.905609,288.136047 
	C363.180664,297.627960 362.458496,307.173737 363.167084,316.620483 
	C363.760590,324.533112 357.842377,326.882507 353.554962,330.961609 
	C353.002655,310.099640 352.965149,289.485901 353.097778,268.873260 
	C353.105591,267.664124 354.251404,266.198212 355.264954,265.300293 
	C365.943054,255.840408 376.578552,246.323441 387.540680,237.200562 
	C389.788940,235.329529 393.512299,233.831223 396.264771,234.220215 
	C405.670563,235.549515 414.923798,237.925705 424.291870,239.582260 
	C426.115112,239.904663 428.773804,239.420685 430.059265,238.236404 
	C439.057068,229.947083 447.461884,220.988556 456.723389,213.019287 
	C463.977905,206.777023 469.420746,197.438599 480.666687,197.070312 
	C480.999146,197.059433 481.361938,197.098602 481.657898,196.981354 
	C485.558929,195.435913 488.405731,190.604950 487.774261,187.447586 
	C486.488586,181.018814 482.779022,178.378113 476.233398,179.000748 
	C471.854218,179.417328 468.778534,182.767517 469.109985,187.714310 
	C469.332672,191.037643 467.775452,192.921555 465.650330,194.875778 
	C456.662018,203.141312 447.724365,211.461884 438.748871,219.741348 
	C434.996368,223.202835 431.250397,226.675720 427.380371,230.002579 
	C426.343567,230.893875 424.747742,231.956116 423.602295,231.766846 
	C416.050201,230.519058 408.551117,228.950790 400.225555,227.329376 
	C401.375366,225.756073 402.017883,224.458450 403.022034,223.569260 
	C410.782349,216.697693 418.345367,209.560532 426.522705,203.219009 
	C431.324463,199.495239 434.638000,193.455872 442.383240,193.606155 
	C446.926300,193.694305 449.628235,186.478256 447.985138,181.199814 
	C446.880463,177.651062 440.414276,174.122955 436.769989,175.080551 
	C431.997406,176.334641 428.472076,182.083267 430.003540,186.534317 
	C430.964020,189.325821 429.901947,191.079361 427.842316,192.636169 
	C426.551025,193.612228 425.184631,194.502625 423.974670,195.570511 
	C412.246674,205.920807 400.574402,216.334366 388.818390,226.652618 
	C384.974213,230.026642 380.931732,233.174667 376.000000,237.232315 
	C376.000000,234.204239 375.903290,232.593231 376.024048,230.998688 
	C376.181305,228.921783 375.788635,226.268402 376.904480,224.900894 
	C380.038818,221.059540 383.805786,217.729935 387.399567,214.277954 
	C387.635864,214.050980 388.509521,214.520966 389.094788,214.618591 
	C393.860077,215.413483 396.820862,213.313019 399.411072,209.304977 
	C402.304352,204.828018 400.453949,201.388992 397.728668,198.428436 
	C394.524384,194.947571 390.544983,194.563019 386.008606,196.887329 
	C381.784302,199.051743 382.077728,202.906693 381.131744,206.421478 
	C380.737030,207.887955 380.663422,209.969025 379.669769,210.664017 
	C370.224396,217.270508 367.164856,226.286102 368.989685,237.334747 
	C369.070099,237.821457 368.923004,238.347244 369.012299,238.830750 
	C369.653412,242.302017 368.203674,244.765396 365.601501,246.978012 
	C359.724274,251.975327 354.218506,257.438995 348.101440,262.110291 
	C345.634705,263.994019 344.944427,265.644531 344.946594,268.492950 
	C345.012054,355.158722 344.998901,441.824554 345.009460,528.490356 
	C345.009644,529.926941 345.151489,531.363586 345.223022,532.720825 
	C365.321228,532.720825 385.070099,532.720825 404.715454,532.720825 
	C404.715454,530.365967 404.715454,528.295593 404.715454,526.000000 
	C398.454987,526.000000 392.477173,526.000000 385.499573,526.000000 
M175.483902,212.989929 
	C180.408981,217.001114 185.357315,220.984131 190.253403,225.030396 
	C196.799759,230.440506 203.826324,235.408005 209.615372,241.539307 
	C212.639923,244.742676 215.515976,245.434006 218.995941,244.903275 
	C224.387619,244.080963 229.670471,242.567780 235.024750,241.471039 
	C239.895569,240.473328 244.069534,240.011642 248.367188,244.565704 
	C261.972534,258.982758 276.261505,272.754547 290.274445,286.787537 
	C291.286835,287.801392 292.205566,288.908813 294.438416,291.377441 
	C286.330200,291.972107 279.632385,292.488922 272.928223,292.903595 
	C272.423096,292.934845 271.824402,292.292664 271.351532,291.871155 
	C268.164490,289.030304 264.728394,286.402130 261.934937,283.212830 
	C260.393494,281.452972 259.342072,278.794464 259.121033,276.442261 
	C258.611023,271.015564 254.645599,266.865540 249.317459,267.000549 
	C244.322250,267.127167 239.795395,272.188751 240.000137,277.418488 
	C240.200577,282.538330 244.931183,286.268890 250.468735,286.104706 
	C252.051056,286.057800 253.934921,286.853424 255.217499,287.855347 
	C258.447540,290.378662 261.403412,293.251404 264.487976,295.962708 
	C269.057495,299.979340 273.628448,302.212311 280.342834,300.280090 
	C286.140076,298.611755 292.585480,299.195557 298.517883,298.798920 
	C298.517883,324.713074 298.517883,349.836273 298.517883,375.690033 
	C294.070221,371.725952 290.413239,368.124390 286.397736,364.980743 
	C282.105377,361.620331 280.434814,357.640533 280.888336,352.152283 
	C281.380737,346.193390 281.238281,340.147858 280.874542,334.170410 
	C280.742004,331.992737 279.500610,329.674683 278.198914,327.817566 
	C275.112213,323.413879 270.161316,320.345398 270.807434,313.630859 
	C271.208984,309.457520 264.624908,304.620789 260.529022,305.005524 
	C255.134857,305.512146 251.734406,309.937836 252.000031,316.105927 
	C252.163467,319.900940 257.695618,325.013672 261.613770,324.990784 
	C265.650940,324.967194 273.789642,331.307617 273.941803,334.946808 
	C274.162231,340.218414 273.998260,345.506073 273.998260,351.693298 
	C272.233582,350.769257 270.969299,350.423126 270.145691,349.623260 
	C265.725464,345.330658 261.547760,340.781799 257.031708,336.596130 
	C251.823532,331.768951 246.957413,326.055023 238.456375,327.852661 
	C237.559341,328.042389 235.442383,326.348724 235.238739,325.273560 
	C234.241882,320.010925 233.770340,314.651215 232.956375,309.349884 
	C232.724640,307.840576 232.371490,306.005341 231.379211,305.017578 
	C227.294739,300.951660 223.168427,296.861359 218.614334,293.355682 
	C215.269730,290.781067 212.548111,288.467621 211.827850,283.862976 
	C211.068359,279.007538 204.822678,275.856873 199.925949,277.048035 
	C195.563019,278.109344 191.980545,283.863739 193.036850,288.113800 
	C194.173553,292.687378 200.412827,297.421112 204.288834,295.760223 
	C208.322495,294.031799 210.453888,295.660919 212.786011,298.256744 
	C213.896042,299.492310 214.955154,300.980499 216.369934,301.702576 
	C227.308395,307.285461 226.950378,317.670654 228.016129,328.070862 
	C222.740738,327.557617 217.834686,329.319916 213.571320,324.411102 
	C209.318130,319.513947 203.857544,315.657745 198.880905,311.398224 
	C187.570908,301.717957 176.197464,292.111542 164.920807,282.392731 
	C158.824951,277.138977 153.144714,271.355804 146.724884,266.548798 
	C144.204742,264.661804 143.456070,263.340393 143.952957,260.496826 
	C145.023560,254.369934 139.020340,250.365326 134.874603,250.034241 
	C129.566940,249.610413 125.099586,253.852829 125.000038,259.168213 
	C124.890381,265.023773 128.715591,268.742493 134.701035,269.084930 
	C136.636871,269.195648 138.891602,269.842133 140.356705,271.034515 
	C147.461899,276.816986 154.400116,282.808960 161.301804,288.836304 
	C177.736038,303.188538 194.061188,317.666626 210.593475,331.904480 
	C212.503326,333.549286 215.408096,334.741089 217.913330,334.861816 
	C225.727966,335.238464 233.574402,334.904022 241.403259,335.079102 
	C243.014282,335.115173 245.002975,335.737885 246.140884,336.809052 
	C260.971893,350.770111 275.299469,365.295258 290.592712,378.722870 
	C297.516144,384.801697 300.165375,391.091278 299.123505,399.928558 
	C298.462555,405.534607 299.000000,411.281952 299.000000,418.108063 
	C290.086487,410.788940 282.263489,404.376068 274.452484,397.948578 
	C265.007538,390.176575 255.524307,382.449829 246.162048,374.579315 
	C243.239304,372.122253 239.777054,370.039490 239.889755,365.207764 
	C239.936371,363.208679 238.856354,360.601501 237.385330,359.265778 
	C233.959167,356.154602 229.261047,355.512756 225.784500,358.343109 
	C223.370178,360.308624 221.313583,364.325592 221.397293,367.362640 
	C221.517319,371.716675 225.465057,376.252991 229.478317,375.472931 
	C235.989197,374.207336 238.737930,378.670410 242.686172,381.365662 
	C245.781052,383.478394 248.393997,386.290588 251.262253,388.743835 
	C253.499985,390.657806 255.801056,392.497742 258.877533,395.032715 
	C248.901337,397.690186 240.880508,399.980988 232.766678,401.872986 
	C230.884216,402.311951 228.282242,402.004089 226.710876,400.973389 
	C222.917816,398.485382 219.547287,395.355682 215.990021,392.505127 
	C204.437088,383.247437 192.663849,374.247772 181.421417,364.627563 
	C176.754547,360.634125 169.059891,358.177368 170.804474,349.457031 
	C170.843430,349.262238 170.341644,349.006104 170.211365,348.723602 
	C168.063187,344.066071 163.366928,341.699738 158.911926,343.050201 
	C154.522873,344.380646 151.645691,348.781097 152.000488,353.620667 
	C152.333801,358.167450 156.024216,361.506836 161.167297,362.014038 
	C163.232666,362.217743 165.777710,361.912811 167.253220,362.997406 
	C174.060745,368.001404 180.620270,373.349701 187.171951,378.693207 
	C198.545578,387.969421 209.825058,397.361023 221.193558,406.643555 
	C224.706833,409.512238 228.239563,410.762299 233.205429,409.197174 
	C242.540817,406.254974 252.190231,404.286957 261.756561,402.123871 
	C263.168549,401.804657 265.210938,402.149109 266.333527,403.007721 
	C275.883118,410.311554 285.290771,417.800995 294.732910,425.245117 
	C297.718658,427.599121 299.150452,430.345612 299.117981,434.499725 
	C298.893799,463.162628 299.000000,491.828094 299.000000,520.492737 
	C299.000000,522.258057 299.000000,524.023376 299.000000,526.168457 
	C281.346008,526.168457 264.261322,526.168457 247.284027,526.168457 
	C247.284027,528.633362 247.284027,530.703613 247.284027,532.712646 
	C266.974457,532.712646 286.379486,532.712646 306.000000,532.712646 
	C306.000000,530.618469 306.000000,528.805481 306.000000,526.992493 
	C306.000000,479.495850 306.000000,431.999176 306.000000,384.502533 
	C306.000000,355.171265 306.052277,325.839722 305.903229,296.509216 
	C305.890961,294.097443 305.201416,291.041077 303.649048,289.394165 
	C295.746490,281.010529 287.401398,273.045471 279.373230,264.776642 
	C278.411499,263.786072 278.072876,261.843719 278.057831,260.336426 
	C277.949768,249.504944 278.064697,238.671066 277.930695,227.840149 
	C277.910461,226.204330 277.400940,224.200256 276.370972,223.016052 
	C271.931976,217.912354 267.385681,212.874222 262.531830,208.169846 
	C259.808960,205.530807 258.074066,203.061035 258.939575,199.055969 
	C259.838165,194.898102 257.094788,191.668457 253.884293,190.752869 
	C250.841980,189.885223 246.768448,190.618729 243.807312,192.030304 
	C240.650986,193.534927 239.130463,196.942429 240.340042,200.867081 
	C241.833298,205.712067 245.140213,208.286194 250.061737,209.009338 
	C251.469208,209.216125 253.357895,209.060989 254.175125,209.900269 
	C259.570679,215.441528 264.759644,221.185837 269.938354,226.933853 
	C270.535400,227.596527 270.942627,228.687500 270.950287,229.584030 
	C271.024567,238.324097 270.994965,247.065033 270.994965,257.233948 
	C266.493500,252.830292 262.952759,249.422562 259.473846,245.952820 
	C248.028214,234.537216 236.597565,223.106537 225.178253,211.664597 
	C222.268738,208.749313 218.036575,206.330322 220.965866,201.050858 
	C221.163574,200.694519 220.975174,200.065994 220.847733,199.596237 
	C219.654221,195.196579 214.357040,191.388733 210.332855,192.012115 
	C205.625656,192.741302 200.994919,197.794800 201.360138,201.803986 
	C201.813583,206.781921 206.298370,210.746384 211.642609,211.032730 
	C212.879822,211.099030 214.486389,211.173737 215.259415,211.926254 
	C222.357498,218.836044 229.309311,225.896103 237.184448,233.795822 
	C233.044205,234.452576 229.978470,234.547836 227.179977,235.461578 
	C220.701416,237.576889 215.813705,237.275482 210.026993,231.994095 
	C195.681702,218.901520 180.154465,207.109528 165.244949,194.624420 
	C162.590591,192.401703 159.537933,190.552368 159.651230,185.754181 
	C159.752960,181.445587 152.756790,177.175690 148.993896,178.021378 
	C143.372528,179.284744 140.492645,183.471558 141.000443,189.642349 
	C141.330017,193.647354 145.883682,197.282608 151.053711,196.903229 
	C155.606232,196.569153 158.779709,198.470108 161.918625,201.334686 
	C166.142456,205.189377 170.615555,208.770935 175.483902,212.989929 
M385.648926,98.997795 
	C390.155945,99.345070 391.379456,96.771721 390.985748,92.887871 
	C390.558655,88.674957 387.341980,88.571999 384.439362,89.170670 
	C383.113586,89.444099 381.508270,91.251717 381.135162,92.656998 
	C380.341156,95.647636 381.985931,97.797523 385.648926,98.997795 
M269.099487,433.026276 
	C268.442169,433.017578 267.675293,432.784088 267.147583,433.041290 
	C265.395264,433.895447 262.630066,434.644745 262.294067,435.956848 
	C261.821075,437.803986 262.600342,440.687988 263.941650,442.038818 
	C264.879700,442.983490 267.852509,442.610107 269.565552,441.934967 
	C273.022003,440.572632 273.021027,437.090088 269.099487,433.026276 
M199.912415,349.633545 
	C198.314362,354.375275 200.898682,358.712006 204.793396,357.507507 
	C206.416367,357.005585 208.405563,355.275055 208.768463,353.754700 
	C209.173706,352.057037 208.491257,349.391663 207.264267,348.168762 
	C205.108566,346.020233 202.531372,347.118683 199.912415,349.633545 
M183.850174,184.677551 
	C184.342804,183.866302 185.261246,183.046524 185.245193,182.245468 
	C185.203445,180.162628 185.428833,177.465805 184.261688,176.194901 
	C183.211838,175.051712 180.039856,174.678833 178.570404,175.442017 
	C177.191772,176.158005 176.184875,178.785187 176.122070,180.609512 
	C175.951096,185.575790 179.779861,185.036575 183.850174,184.677551 
M395.034241,426.358093 
	C395.631317,426.899200 396.235229,427.906464 396.824280,427.897858 
	C398.970001,427.866547 402.112061,428.250702 403.005463,427.065918 
	C404.179749,425.508636 404.513489,421.934418 403.465973,420.502472 
	C402.552399,419.253632 398.794403,418.923645 397.096680,419.780182 
	C395.752686,420.458252 395.626770,423.550629 395.034241,426.358093 
M226.495285,137.000168 
	C224.051910,135.820587 221.348206,135.984344 220.431046,138.441437 
	C219.693802,140.416550 219.877579,143.656815 221.100616,145.148819 
	C222.067566,146.328461 225.478256,146.396347 227.369690,145.728577 
	C230.627045,144.578537 230.430099,140.787247 226.495285,137.000168 
M464.548004,150.005066 
	C458.934021,152.366638 457.216309,155.264893 459.941498,158.238663 
	C461.078949,159.479858 463.507538,160.902817 464.651825,160.456314 
	C466.416016,159.767914 468.186188,157.762848 468.858459,155.917282 
	C469.891907,153.080322 468.347290,150.919952 464.548004,150.005066 
M374.361908,340.908936 
	C369.625031,339.317871 365.289825,341.898468 366.485687,345.786987 
	C366.984955,347.410309 368.705627,349.371368 370.233032,349.761658 
	C371.718231,350.141113 373.876892,349.017456 375.368866,348.006409 
	C378.664886,345.772888 376.260010,343.568542 374.361908,340.908936 
M483.005951,336.510315 
	C480.252502,333.507660 477.695435,334.847870 476.240845,337.527527 
	C475.383667,339.106689 475.286804,342.495056 476.306549,343.370300 
	C477.848114,344.693298 481.283539,345.629852 482.803284,344.769165 
	C485.731262,343.110931 486.137268,339.936096 483.005951,336.510315 
M493.330627,265.142975 
	C493.220490,266.121002 492.724457,267.277863 493.078094,268.040955 
	C493.888336,269.789276 494.876068,272.420013 496.227509,272.718384 
	C498.083557,273.128204 501.004120,272.286316 502.215179,270.892090 
	C503.146393,269.820068 502.807892,266.650543 501.864441,265.148193 
	C499.790771,261.846161 496.757599,262.698303 493.330627,265.142975 
M202.957581,261.543457 
	C204.454468,265.935486 207.499466,265.784485 210.571732,263.690430 
	C213.358643,261.790863 213.981079,258.691681 211.489502,256.313995 
	C210.273956,255.154022 207.534912,254.892929 205.688034,255.255844 
	C202.923737,255.799042 201.955307,258.146057 202.957581,261.543457 
M436.097076,254.973923 
	C439.687378,253.170746 439.905029,249.953659 438.329132,247.127457 
	C437.601501,245.822479 434.016388,244.611343 433.019043,245.281296 
	C431.177277,246.518494 429.323853,249.124084 429.214661,251.248947 
	C429.022888,254.981750 432.309174,255.177185 436.097076,254.973923 
M497.961243,306.270233 
	C497.973877,305.605743 497.998535,304.941254 497.997101,304.276794 
	C497.990540,301.241028 496.296082,298.917419 493.511139,299.228851 
	C491.556793,299.447388 489.103607,301.446564 488.269806,303.284241 
	C487.698730,304.542786 489.142365,308.092651 490.371338,308.488525 
	C492.563843,309.194733 495.874237,310.751373 497.961243,306.270233 
M155.385269,301.002045 
	C152.107239,301.524597 149.538818,303.204681 150.182404,306.709595 
	C150.512894,308.509460 152.524246,310.944427 154.159561,311.292999 
	C155.764084,311.635040 159.270462,309.883728 159.425049,308.717468 
	C159.709839,306.569000 158.186691,304.162354 157.324600,301.898468 
	C157.179504,301.517395 156.570496,301.312988 155.385269,301.002045 
M418.559174,333.037323 
	C420.816223,333.908478 423.073273,334.779633 424.988159,335.518707 
	C427.626343,331.760315 429.057098,328.593475 425.368805,326.102539 
	C424.045624,325.208893 421.267883,324.869690 420.118591,325.667297 
	C418.044525,327.106750 415.514343,329.253937 418.559174,333.037323 
M464.964844,237.437836 
	C467.574646,237.494629 470.184418,237.551422 472.794220,237.608215 
	C472.775391,235.206238 473.685089,231.912506 472.476013,230.653564 
	C471.271332,229.399139 467.335541,229.282898 465.731232,230.358734 
	C464.407776,231.246216 464.740875,234.604004 464.964844,237.437836 
M378.893005,430.370148 
	C376.593384,430.948486 373.535431,430.853546 372.234558,432.318665 
	C371.197968,433.486084 371.510681,437.735107 372.649445,438.503021 
	C374.302185,439.617615 377.238464,438.828857 379.627319,438.851868 
	C379.573517,436.228607 379.519714,433.605377 378.893005,430.370148 
M182.242371,334.998383 
	C185.703583,334.133606 186.853287,331.313171 185.632736,328.691864 
	C184.824265,326.955597 181.900452,325.312622 179.882889,325.262390 
	C177.494171,325.202881 175.644897,327.050659 175.909653,330.314423 
	C176.211121,334.030609 178.052490,335.228760 182.242371,334.998383 
M235.001541,427.720764 
	C234.426025,431.641449 237.056366,433.234924 240.088974,433.340607 
	C241.657272,433.395233 244.653854,431.336304 244.627869,430.291382 
	C244.571304,428.015778 243.602081,424.940369 241.904404,423.702667 
	C238.574890,421.275330 236.790649,424.619476 235.001541,427.720764 
M261.028473,116.530144 
	C263.404266,118.274086 266.018982,118.543976 267.970978,116.331573 
	C269.064087,115.092644 269.768890,112.815002 269.494507,111.201691 
	C268.793182,107.078247 264.969299,107.240059 262.477631,108.201843 
	C259.108398,109.502365 259.034515,112.818047 261.028473,116.530144 
M423.035126,109.562080 
	C420.266785,107.160164 417.455658,106.737572 415.050873,109.894028 
	C412.678558,113.007889 414.211517,115.676651 416.997955,117.279053 
	C418.196899,117.968529 420.398499,117.494492 421.916687,116.932938 
	C425.522064,115.599358 423.730316,112.583366 423.035126,109.562080 
M146.128113,223.333038 
	C147.751953,221.692123 150.524429,220.144775 150.667953,218.383255 
	C150.804214,216.710831 148.505142,214.075760 146.667053,213.289154 
	C145.537918,212.805923 142.502380,214.569031 141.649353,216.074875 
	C139.353424,220.127853 142.163712,222.308670 146.128113,223.333038 
M469.027740,285.818848 
	C468.975891,290.108734 471.187531,292.335052 475.373199,291.926086 
	C479.129547,291.559113 479.442413,288.459686 478.872223,285.632629 
	C478.602661,284.296051 476.804932,282.090118 476.099884,282.234375 
	C473.757080,282.713715 471.595886,284.080658 469.027740,285.818848 
M172.057343,258.407471 
	C173.752960,255.543900 173.904648,252.579041 170.986420,250.721497 
	C169.746979,249.932556 166.847092,250.120438 165.794327,251.072495 
	C164.397430,252.335693 162.892044,255.390198 163.516449,256.597900 
	C165.032516,259.529999 167.796814,261.680573 172.057343,258.407471 
M245.245789,156.030869 
	C240.066910,157.359146 238.059830,160.795227 240.814301,164.092377 
	C241.794937,165.266174 244.193039,166.400711 245.390625,165.979538 
	C247.178146,165.350830 249.784485,163.216934 249.674225,161.925598 
	C249.509598,159.997192 247.284683,158.244690 245.245789,156.030869 
z"/>
<path fill="#FFFFFF" opacity="1.000000" stroke="none" 
	d="
M380.000000,554.000000 
	C328.003632,554.000000 276.507294,554.000671 225.010925,553.999146 
	C218.868576,553.998962 218.868576,553.993286 219.167633,547.137817 
	C252.910721,547.137817 286.673340,547.137817 320.757721,547.137817 
	C320.850403,545.357178 320.990509,543.920044 320.990692,542.482910 
	C321.001099,457.822235 321.022339,373.161530 320.880066,288.501099 
	C320.876251,286.223419 319.605988,283.486481 318.048065,281.752960 
	C311.419983,274.377899 304.391388,267.363892 297.694244,260.048553 
	C296.640686,258.897766 296.099915,256.881165 296.072998,255.252487 
	C295.921600,246.088974 296.028717,236.921524 295.989990,227.755676 
	C295.963684,221.535645 291.081299,215.494949 284.960938,213.977783 
	C279.336884,212.583649 275.420044,206.063583 277.071930,200.845581 
	C278.401825,196.644577 285.402924,193.540344 290.122345,195.059174 
	C293.554688,196.163773 297.303619,202.389786 295.810547,205.975922 
	C294.498627,209.126877 295.686676,210.901093 297.399628,212.900421 
	C301.207184,217.344620 303.631348,222.020569 303.143890,228.327759 
	C302.542175,236.114029 302.807678,243.989990 303.124725,251.809921 
	C303.212463,253.974396 304.360321,256.472778 305.806824,258.134644 
	C310.147339,263.121338 314.875641,267.770447 320.176880,273.307831 
	C320.634491,271.196472 320.974884,270.354187 320.976410,269.511292 
	C321.007477,252.179230 321.147583,234.844498 320.838928,217.517883 
	C320.793243,214.951706 319.113647,211.946396 317.297150,209.961136 
	C309.469116,201.405838 301.420349,193.041687 293.173157,184.889999 
	C291.550903,183.286560 288.704742,182.151581 286.406891,182.123489 
	C268.244232,181.901398 250.060089,181.537491 231.920776,182.225037 
	C224.546661,182.504547 219.521362,179.736557 214.619949,175.147949 
	C206.194534,167.260239 197.707367,159.435837 189.103775,151.744110 
	C187.928818,150.693680 185.958481,150.170639 184.316574,150.072922 
	C179.432785,149.782242 175.500336,147.653122 174.688461,142.932236 
	C174.190353,140.035751 175.308319,136.189941 177.055450,133.734467 
	C179.746048,129.953003 184.361664,129.785049 188.043060,132.157928 
	C190.258881,133.586151 192.614700,136.650421 192.725830,139.079300 
	C192.917908,143.277191 194.284576,145.647751 197.547012,148.329605 
	C204.560593,154.095047 210.849991,160.737381 217.493317,166.959381 
	C220.122116,169.421432 222.860733,171.772842 225.646866,174.055603 
	C226.325302,174.611465 227.395020,174.978165 228.274094,174.958237 
	C246.111374,174.553574 263.947052,174.079865 282.409973,173.603821 
	C280.534027,171.102341 279.119263,168.776672 277.287170,166.847290 
	C268.380615,157.467667 259.343811,148.211960 250.389816,138.877182 
	C243.857849,132.067429 237.458099,125.128159 230.803101,118.442017 
	C229.780426,117.414566 227.569962,117.685898 226.134842,116.928375 
	C223.082489,115.317200 219.204239,114.071297 217.478592,111.471550 
	C215.622238,108.674858 215.203156,104.418907 218.264938,101.243439 
	C221.219269,98.179390 224.683456,96.564980 228.966309,98.036324 
	C233.396637,99.558327 235.553635,102.706627 234.974854,107.422455 
	C234.535461,111.002365 235.840561,113.507759 238.416855,116.082680 
	C249.449783,127.109779 260.247253,138.373535 271.070007,149.609329 
	C275.419312,154.124634 279.505737,158.898819 283.969147,163.293823 
	C284.848633,164.159836 287.586761,164.567749 288.301392,163.913315 
	C290.805939,161.619690 293.326813,159.029251 294.803253,156.038895 
	C295.777802,154.065140 295.451050,151.092712 294.870544,148.777069 
	C293.390717,142.873779 291.537140,137.056931 289.646606,131.266373 
	C288.416168,127.497627 288.379181,124.190323 291.896515,121.606339 
	C294.827637,119.453026 294.258667,117.609085 291.839752,115.223793 
	C287.348724,110.795212 283.328033,105.889145 278.828674,101.469894 
	C277.487854,100.152977 275.200684,99.111557 273.352325,99.119781 
	C265.764099,99.153534 261.508911,93.825264 263.078613,85.944855 
	C263.900330,81.819740 267.972198,79.618500 273.530518,80.000443 
	C277.841217,80.296661 281.298706,83.238754 280.846863,87.479355 
	C280.313019,92.490227 282.450714,95.643936 285.967621,98.458588 
	C290.629028,102.189232 295.283020,105.929131 299.412476,110.192368 
	C303.462067,109.368561 311.311584,99.453690 310.912781,94.929749 
	C310.793091,93.572273 309.941986,91.936264 308.895782,91.063072 
	C304.436066,87.340897 303.815247,81.695938 307.600006,76.894188 
	C310.392609,73.351196 316.673676,72.885727 320.404846,75.945236 
	C324.812866,79.559753 325.528595,85.733131 321.652954,89.755875 
	C319.503143,91.987297 318.316254,93.975159 318.811462,97.307457 
	C319.077332,99.096741 317.808075,101.481064 316.558136,103.065849 
	C310.816315,110.345947 304.636414,117.288582 299.084961,124.705055 
	C297.709595,126.542488 297.416016,129.811523 297.817932,132.223755 
	C298.576813,136.778549 300.201508,141.189087 301.880737,147.124008 
	C317.335236,130.788071 330.373322,113.224045 345.040955,97.213539 
	C342.200348,91.484947 342.852051,86.604919 346.696198,84.035988 
	C351.488129,80.833672 356.796204,81.002174 359.638855,85.464211 
	C361.257538,88.005051 361.978271,92.005142 361.273895,94.903511 
	C360.478485,98.176544 358.006165,101.330032 353.470795,101.081612 
	C352.348389,101.020134 350.799286,101.650742 350.075226,102.499619 
	C341.620667,112.411850 333.286438,122.426712 324.783356,132.578049 
	C335.736298,134.340179 345.982330,135.920914 356.197144,137.682480 
	C358.568420,138.091415 360.124054,138.154678 361.903137,135.864960 
	C364.742218,132.211029 368.274384,129.071671 371.668335,125.879379 
	C375.262329,122.498947 378.119904,118.987282 379.140991,113.794540 
	C380.290344,107.949554 385.741943,105.335526 391.178467,107.078514 
	C395.748291,108.543640 398.234406,113.917015 396.990845,119.641037 
	C396.179962,123.373344 389.515320,127.358818 385.544495,125.629135 
	C382.323914,124.226234 381.261810,126.161034 379.838684,127.722305 
	C374.754333,133.300156 369.901733,139.092133 364.726532,144.581604 
	C363.782990,145.582413 361.649231,146.117508 360.215118,145.895798 
	C348.388489,144.067505 336.582916,142.090652 324.802155,139.984222 
	C319.692810,139.070633 316.363251,141.468109 313.380493,145.109833 
	C306.969879,152.936768 300.616669,160.818405 293.949860,168.423340 
	C291.853119,170.815094 291.490387,172.160553 293.903015,174.494751 
	C297.564880,178.037537 300.872833,181.951981 304.253937,185.776779 
	C306.156403,187.928894 307.920410,189.171829 310.252655,186.273926 
	C314.748505,180.687576 319.450439,175.261383 323.780090,169.551254 
	C324.778442,168.234573 325.275116,165.875504 324.874115,164.279709 
	C323.486298,158.756775 324.889099,154.963852 329.755707,152.762253 
	C334.128967,150.783829 339.493500,152.219086 341.880798,156.491287 
	C344.857361,161.818130 342.919403,169.085800 336.300476,170.549225 
	C332.728638,171.338959 331.083282,173.173294 329.145233,175.370621 
	C323.727692,181.513077 318.378510,187.715851 312.937866,193.968903 
	C315.227020,196.749298 317.060699,200.110153 319.857300,202.152405 
	C327.127899,207.461868 329.106659,214.351334 328.095551,222.891968 
	C327.556824,227.442520 328.000000,232.109283 328.671448,237.040344 
	C334.415588,230.292511 344.403992,226.931091 343.169525,215.068512 
	C342.294525,206.660156 342.886017,198.084564 343.094391,189.590271 
	C343.137024,187.852493 343.968445,185.752670 345.150238,184.485703 
	C353.267883,175.782974 361.624390,167.303162 369.754486,158.611710 
	C370.678589,157.623810 371.166595,155.711655 371.009888,154.323669 
	C370.493561,149.750458 375.188171,143.464523 379.794128,143.001495 
	C384.770935,142.501160 389.620575,146.463058 389.999420,151.338669 
	C390.537354,158.261765 387.532288,161.628342 381.217804,162.129166 
	C378.815399,162.319717 376.040802,163.435867 374.274963,165.048828 
	C367.110870,171.592697 360.215820,178.436813 353.369843,185.317764 
	C352.207642,186.485901 351.155273,188.358688 351.106781,189.938309 
	C350.873474,197.533997 351.001892,205.140808 351.001892,213.879105 
	C352.849335,212.337738 353.969635,211.540665 354.928986,210.582413 
	C375.470734,190.063904 395.994720,169.527634 416.521149,148.993805 
	C418.904144,146.609970 421.286957,144.225952 423.659454,141.831680 
	C426.392273,139.073807 428.963837,136.585358 429.596405,132.127213 
	C430.390594,126.529892 434.846863,124.244942 441.029877,125.025848 
	C445.067383,125.535782 447.477722,127.966141 447.974121,132.001266 
	C448.732788,138.168411 446.289337,142.067307 440.878967,143.628967 
	C440.254425,143.809219 439.439484,144.186234 438.979584,143.950851 
	C432.949249,140.864395 429.987030,145.422028 426.642120,148.873077 
	C418.102966,157.683273 409.692230,166.618881 401.097504,175.374100 
	C378.466583,198.427536 355.793610,221.439957 333.061920,244.393921 
	C329.528076,247.962357 327.840546,251.641098 327.852051,256.987640 
	C328.056305,351.647186 328.000000,446.307251 328.000000,540.967224 
	C328.000000,542.781067 328.000000,544.594971 328.000000,547.000000 
	C329.953766,547.000000 331.716370,547.000000 333.478943,547.000000 
	C365.310028,547.000000 397.141083,546.998962 428.972168,547.000916 
	C435.119843,547.001282 435.119843,547.006531 434.841949,554.000000 
	C416.744781,554.000000 398.622375,554.000000 380.000000,554.000000 
z"/>
<path fill="#FFFFFF" opacity="1.000000" stroke="none" 
	d="
M385.999451,526.000000 
	C392.477173,526.000000 398.454987,526.000000 404.715454,526.000000 
	C404.715454,528.295593 404.715454,530.365967 404.715454,532.720825 
	C385.070099,532.720825 365.321228,532.720825 345.223022,532.720825 
	C345.151489,531.363586 345.009644,529.926941 345.009460,528.490356 
	C344.998901,441.824554 345.012054,355.158722 344.946594,268.492950 
	C344.944427,265.644531 345.634705,263.994019 348.101440,262.110291 
	C354.218506,257.438995 359.724274,251.975327 365.601501,246.978012 
	C368.203674,244.765396 369.653412,242.302017 369.012299,238.830750 
	C368.923004,238.347244 369.070099,237.821457 368.989685,237.334747 
	C367.164856,226.286102 370.224396,217.270508 379.669769,210.664017 
	C380.663422,209.969025 380.737030,207.887955 381.131744,206.421478 
	C382.077728,202.906693 381.784302,199.051743 386.008606,196.887329 
	C390.544983,194.563019 394.524384,194.947571 397.728668,198.428436 
	C400.453949,201.388992 402.304352,204.828018 399.411072,209.304977 
	C396.820862,213.313019 393.860077,215.413483 389.094788,214.618591 
	C388.509521,214.520966 387.635864,214.050980 387.399567,214.277954 
	C383.805786,217.729935 380.038818,221.059540 376.904480,224.900894 
	C375.788635,226.268402 376.181305,228.921783 376.024048,230.998688 
	C375.903290,232.593231 376.000000,234.204239 376.000000,237.232315 
	C380.931732,233.174667 384.974213,230.026642 388.818390,226.652618 
	C400.574402,216.334366 412.246674,205.920807 423.974670,195.570511 
	C425.184631,194.502625 426.551025,193.612228 427.842316,192.636169 
	C429.901947,191.079361 430.964020,189.325821 430.003540,186.534317 
	C428.472076,182.083267 431.997406,176.334641 436.769989,175.080551 
	C440.414276,174.122955 446.880463,177.651062 447.985138,181.199814 
	C449.628235,186.478256 446.926300,193.694305 442.383240,193.606155 
	C434.638000,193.455872 431.324463,199.495239 426.522705,203.219009 
	C418.345367,209.560532 410.782349,216.697693 403.022034,223.569260 
	C402.017883,224.458450 401.375366,225.756073 400.225555,227.329376 
	C408.551117,228.950790 416.050201,230.519058 423.602295,231.766846 
	C424.747742,231.956116 426.343567,230.893875 427.380371,230.002579 
	C431.250397,226.675720 434.996368,223.202835 438.748871,219.741348 
	C447.724365,211.461884 456.662018,203.141312 465.650330,194.875778 
	C467.775452,192.921555 469.332672,191.037643 469.109985,187.714310 
	C468.778534,182.767517 471.854218,179.417328 476.233398,179.000748 
	C482.779022,178.378113 486.488586,181.018814 487.774261,187.447586 
	C488.405731,190.604950 485.558929,195.435913 481.657898,196.981354 
	C481.361938,197.098602 480.999146,197.059433 480.666687,197.070312 
	C469.420746,197.438599 463.977905,206.777023 456.723389,213.019287 
	C447.461884,220.988556 439.057068,229.947083 430.059265,238.236404 
	C428.773804,239.420685 426.115112,239.904663 424.291870,239.582260 
	C414.923798,237.925705 405.670563,235.549515 396.264771,234.220215 
	C393.512299,233.831223 389.788940,235.329529 387.540680,237.200562 
	C376.578552,246.323441 365.943054,255.840408 355.264954,265.300293 
	C354.251404,266.198212 353.105591,267.664124 353.097778,268.873260 
	C352.965149,289.485901 353.002655,310.099640 353.554962,330.961609 
	C357.842377,326.882507 363.760590,324.533112 363.167084,316.620483 
	C362.458496,307.173737 363.180664,297.627960 362.905609,288.136047 
	C362.804260,284.638428 363.922852,282.283173 366.398499,279.980621 
	C371.060120,275.644958 375.573517,271.131012 379.871979,266.437897 
	C380.882721,265.334351 381.285065,263.169250 381.112366,261.585754 
	C380.687164,257.687286 385.210754,251.689804 389.502869,251.006805 
	C394.593994,250.196655 399.679810,254.343124 400.357544,259.856537 
	C401.001862,265.097839 397.530609,270.194458 392.672363,269.829895 
	C388.166412,269.491730 385.966125,272.139587 382.918701,274.396362 
	C372.059479,282.438202 367.544312,292.765472 369.939728,306.147919 
	C370.363922,308.517761 370.000000,311.028687 370.000000,314.201294 
	C371.900604,312.827148 373.443085,311.987030 374.643188,310.800659 
	C384.004852,301.546051 393.379059,292.300751 402.533356,282.843445 
	C403.926575,281.404114 405.041962,278.794769 404.832825,276.885742 
	C404.337189,272.361572 409.081055,268.009644 413.264404,267.043640 
	C416.565643,266.281342 421.834045,269.463379 423.004089,272.713287 
	C425.083160,278.487854 423.735443,282.829132 418.944366,285.496521 
	C418.277954,285.867554 417.325165,286.120850 416.615814,285.954865 
	C411.402374,284.734894 408.398712,287.963348 405.226593,291.218903 
	C399.793610,296.794830 394.184692,302.199341 387.778900,308.537292 
	C394.054840,309.094574 399.300812,308.941986 404.216827,310.141602 
	C411.634491,311.951630 415.705536,307.990906 420.352417,303.319366 
	C437.818268,285.760742 455.613800,268.529694 473.322357,251.213257 
	C475.576050,249.009460 478.285980,247.237106 480.349182,244.883255 
	C482.543243,242.380142 484.527313,239.829056 484.153259,235.814941 
	C483.718506,231.149414 488.794159,226.766190 493.306702,227.002182 
	C497.994476,227.247345 502.946564,232.323303 502.997833,236.935730 
	C503.050232,241.651901 498.832092,246.219803 494.142120,245.910782 
	C490.631866,245.679459 488.340118,246.986221 485.980316,249.396484 
	C475.331818,260.272430 464.572845,271.042480 453.732269,281.727478 
	C442.147736,293.145752 430.351746,304.350067 418.806458,315.807373 
	C414.763855,319.819214 410.036804,317.848724 405.676514,317.755920 
	C397.823425,317.588806 389.991669,316.554932 382.138794,316.087494 
	C381.071136,316.023956 379.707855,316.909210 378.863220,317.742279 
	C370.799866,325.694824 362.786682,333.699402 354.857391,341.785370 
	C353.933868,342.727142 353.082581,344.249817 353.077606,345.506683 
	C352.986053,368.671875 353.027191,391.837616 353.061249,415.003204 
	C353.061615,415.258026 353.339874,415.512451 354.036743,416.707031 
	C360.519714,409.889160 366.878418,403.324646 373.038513,396.578705 
	C373.870544,395.667542 373.929932,393.849335 373.959259,392.443024 
	C374.063538,387.445251 374.711975,382.317047 373.848053,377.471130 
	C372.179169,368.110077 378.008453,362.817902 383.490143,357.142273 
	C386.644135,353.876648 389.915588,350.721130 392.973022,347.369049 
	C393.472931,346.820984 393.321930,345.476868 393.155640,344.557922 
	C392.361450,340.169983 394.113739,336.206207 397.547852,334.483612 
	C400.280487,333.112915 404.446320,333.407410 407.588074,334.310974 
	C412.911041,335.841766 412.601868,340.882629 411.816986,344.980286 
	C410.974396,349.379272 407.237823,351.068817 402.975494,352.135712 
	C400.131531,352.847534 397.516937,354.713348 394.989105,356.354462 
	C393.642456,357.228699 392.868927,358.964722 391.545197,359.898560 
	C381.747192,366.811066 378.749420,376.192139 381.681793,387.964447 
	C382.345001,387.542938 383.324097,387.127930 384.035980,386.437439 
	C396.668945,374.184082 409.191650,361.815979 421.902252,349.644012 
	C431.592987,340.363983 441.513153,331.323547 451.331329,322.176605 
	C453.319550,320.324341 454.852509,318.702545 453.300537,315.422882 
	C451.890625,312.443359 455.284912,307.232758 458.837646,305.676361 
	C462.949982,303.874817 468.655182,305.188477 470.801422,308.431122 
	C475.145538,314.994232 471.493378,322.144897 463.613770,323.121765 
	C461.409668,323.395020 458.981598,324.719055 457.351990,326.285065 
	C449.364777,333.960724 441.769714,342.046234 433.743439,349.679169 
	C418.236572,364.426117 402.510834,378.942657 386.929626,393.611847 
	C383.715820,396.637543 380.736969,399.912781 376.642181,404.104431 
	C388.429962,402.450348 398.631775,400.997681 408.841461,399.602417 
	C411.111206,399.292206 413.407166,399.166107 415.693542,398.986450 
	C423.207306,398.395996 427.869843,393.814697 432.490875,388.288208 
	C438.080750,381.602997 444.854065,375.919678 450.813232,369.521484 
	C452.176117,368.058228 452.746338,365.478912 452.911743,363.353424 
	C453.306732,358.277161 456.552460,354.566040 461.685913,354.001831 
	C466.319641,353.492584 470.787415,356.805939 471.913635,361.844604 
	C472.559296,364.733368 470.910431,370.826752 466.331696,372.177887 
	C465.734192,372.354187 465.113403,373.050293 464.634674,372.939331 
	C458.668823,371.556641 455.656952,375.801575 452.197174,379.287201 
	C444.448639,387.093719 436.381531,394.608429 429.014404,402.757538 
	C425.905243,406.196747 422.090759,406.333679 418.493683,406.848724 
	C406.551910,408.558563 394.519043,409.625366 382.530457,411.019043 
	C377.691284,411.581604 372.706207,411.807312 368.117065,413.241089 
	C365.563843,414.038757 363.859039,417.244415 361.476074,418.952087 
	C354.322693,424.078369 352.617035,430.819855 352.787720,439.495636 
	C353.351013,468.128998 353.000000,496.780365 353.000000,526.000000 
	C363.971710,526.000000 374.735657,526.000000 385.999451,526.000000 
z"/>
<path fill="#FFFFFF" opacity="1.000000" stroke="none" 
	d="
M175.232788,212.729828 
	C170.615555,208.770935 166.142456,205.189377 161.918625,201.334686 
	C158.779709,198.470108 155.606232,196.569153 151.053711,196.903229 
	C145.883682,197.282608 141.330017,193.647354 141.000443,189.642349 
	C140.492645,183.471558 143.372528,179.284744 148.993896,178.021378 
	C152.756790,177.175690 159.752960,181.445587 159.651230,185.754181 
	C159.537933,190.552368 162.590591,192.401703 165.244949,194.624420 
	C180.154465,207.109528 195.681702,218.901520 210.026993,231.994095 
	C215.813705,237.275482 220.701416,237.576889 227.179977,235.461578 
	C229.978470,234.547836 233.044205,234.452576 237.184448,233.795822 
	C229.309311,225.896103 222.357498,218.836044 215.259415,211.926254 
	C214.486389,211.173737 212.879822,211.099030 211.642609,211.032730 
	C206.298370,210.746384 201.813583,206.781921 201.360138,201.803986 
	C200.994919,197.794800 205.625656,192.741302 210.332855,192.012115 
	C214.357040,191.388733 219.654221,195.196579 220.847733,199.596237 
	C220.975174,200.065994 221.163574,200.694519 220.965866,201.050858 
	C218.036575,206.330322 222.268738,208.749313 225.178253,211.664597 
	C236.597565,223.106537 248.028214,234.537216 259.473846,245.952820 
	C262.952759,249.422562 266.493500,252.830292 270.994965,257.233948 
	C270.994965,247.065033 271.024567,238.324097 270.950287,229.584030 
	C270.942627,228.687500 270.535400,227.596527 269.938354,226.933853 
	C264.759644,221.185837 259.570679,215.441528 254.175125,209.900269 
	C253.357895,209.060989 251.469208,209.216125 250.061737,209.009338 
	C245.140213,208.286194 241.833298,205.712067 240.340042,200.867081 
	C239.130463,196.942429 240.650986,193.534927 243.807312,192.030304 
	C246.768448,190.618729 250.841980,189.885223 253.884293,190.752869 
	C257.094788,191.668457 259.838165,194.898102 258.939575,199.055969 
	C258.074066,203.061035 259.808960,205.530807 262.531830,208.169846 
	C267.385681,212.874222 271.931976,217.912354 276.370972,223.016052 
	C277.400940,224.200256 277.910461,226.204330 277.930695,227.840149 
	C278.064697,238.671066 277.949768,249.504944 278.057831,260.336426 
	C278.072876,261.843719 278.411499,263.786072 279.373230,264.776642 
	C287.401398,273.045471 295.746490,281.010529 303.649048,289.394165 
	C305.201416,291.041077 305.890961,294.097443 305.903229,296.509216 
	C306.052277,325.839722 306.000000,355.171265 306.000000,384.502533 
	C306.000000,431.999176 306.000000,479.495850 306.000000,526.992493 
	C306.000000,528.805481 306.000000,530.618469 306.000000,532.712646 
	C286.379486,532.712646 266.974457,532.712646 247.284027,532.712646 
	C247.284027,530.703613 247.284027,528.633362 247.284027,526.168457 
	C264.261322,526.168457 281.346008,526.168457 299.000000,526.168457 
	C299.000000,524.023376 299.000000,522.258057 299.000000,520.492737 
	C299.000000,491.828094 298.893799,463.162628 299.117981,434.499725 
	C299.150452,430.345612 297.718658,427.599121 294.732910,425.245117 
	C285.290771,417.800995 275.883118,410.311554 266.333527,403.007721 
	C265.210938,402.149109 263.168549,401.804657 261.756561,402.123871 
	C252.190231,404.286957 242.540817,406.254974 233.205429,409.197174 
	C228.239563,410.762299 224.706833,409.512238 221.193558,406.643555 
	C209.825058,397.361023 198.545578,387.969421 187.171951,378.693207 
	C180.620270,373.349701 174.060745,368.001404 167.253220,362.997406 
	C165.777710,361.912811 163.232666,362.217743 161.167297,362.014038 
	C156.024216,361.506836 152.333801,358.167450 152.000488,353.620667 
	C151.645691,348.781097 154.522873,344.380646 158.911926,343.050201 
	C163.366928,341.699738 168.063187,344.066071 170.211365,348.723602 
	C170.341644,349.006104 170.843430,349.262238 170.804474,349.457031 
	C169.059891,358.177368 176.754547,360.634125 181.421417,364.627563 
	C192.663849,374.247772 204.437088,383.247437 215.990021,392.505127 
	C219.547287,395.355682 222.917816,398.485382 226.710876,400.973389 
	C228.282242,402.004089 230.884216,402.311951 232.766678,401.872986 
	C240.880508,399.980988 248.901337,397.690186 258.877533,395.032715 
	C255.801056,392.497742 253.499985,390.657806 251.262253,388.743835 
	C248.393997,386.290588 245.781052,383.478394 242.686172,381.365662 
	C238.737930,378.670410 235.989197,374.207336 229.478317,375.472931 
	C225.465057,376.252991 221.517319,371.716675 221.397293,367.362640 
	C221.313583,364.325592 223.370178,360.308624 225.784500,358.343109 
	C229.261047,355.512756 233.959167,356.154602 237.385330,359.265778 
	C238.856354,360.601501 239.936371,363.208679 239.889755,365.207764 
	C239.777054,370.039490 243.239304,372.122253 246.162048,374.579315 
	C255.524307,382.449829 265.007538,390.176575 274.452484,397.948578 
	C282.263489,404.376068 290.086487,410.788940 299.000000,418.108063 
	C299.000000,411.281952 298.462555,405.534607 299.123505,399.928558 
	C300.165375,391.091278 297.516144,384.801697 290.592712,378.722870 
	C275.299469,365.295258 260.971893,350.770111 246.140884,336.809052 
	C245.002975,335.737885 243.014282,335.115173 241.403259,335.079102 
	C233.574402,334.904022 225.727966,335.238464 217.913330,334.861816 
	C215.408096,334.741089 212.503326,333.549286 210.593475,331.904480 
	C194.061188,317.666626 177.736038,303.188538 161.301804,288.836304 
	C154.400116,282.808960 147.461899,276.816986 140.356705,271.034515 
	C138.891602,269.842133 136.636871,269.195648 134.701035,269.084930 
	C128.715591,268.742493 124.890381,265.023773 125.000038,259.168213 
	C125.099586,253.852829 129.566940,249.610413 134.874603,250.034241 
	C139.020340,250.365326 145.023560,254.369934 143.952957,260.496826 
	C143.456070,263.340393 144.204742,264.661804 146.724884,266.548798 
	C153.144714,271.355804 158.824951,277.138977 164.920807,282.392731 
	C176.197464,292.111542 187.570908,301.717957 198.880905,311.398224 
	C203.857544,315.657745 209.318130,319.513947 213.571320,324.411102 
	C217.834686,329.319916 222.740738,327.557617 228.016129,328.070862 
	C226.950378,317.670654 227.308395,307.285461 216.369934,301.702576 
	C214.955154,300.980499 213.896042,299.492310 212.786011,298.256744 
	C210.453888,295.660919 208.322495,294.031799 204.288834,295.760223 
	C200.412827,297.421112 194.173553,292.687378 193.036850,288.113800 
	C191.980545,283.863739 195.563019,278.109344 199.925949,277.048035 
	C204.822678,275.856873 211.068359,279.007538 211.827850,283.862976 
	C212.548111,288.467621 215.269730,290.781067 218.614334,293.355682 
	C223.168427,296.861359 227.294739,300.951660 231.379211,305.017578 
	C232.371490,306.005341 232.724640,307.840576 232.956375,309.349884 
	C233.770340,314.651215 234.241882,320.010925 235.238739,325.273560 
	C235.442383,326.348724 237.559341,328.042389 238.456375,327.852661 
	C246.957413,326.055023 251.823532,331.768951 257.031708,336.596130 
	C261.547760,340.781799 265.725464,345.330658 270.145691,349.623260 
	C270.969299,350.423126 272.233582,350.769257 273.998260,351.693298 
	C273.998260,345.506073 274.162231,340.218414 273.941803,334.946808 
	C273.789642,331.307617 265.650940,324.967194 261.613770,324.990784 
	C257.695618,325.013672 252.163467,319.900940 252.000031,316.105927 
	C251.734406,309.937836 255.134857,305.512146 260.529022,305.005524 
	C264.624908,304.620789 271.208984,309.457520 270.807434,313.630859 
	C270.161316,320.345398 275.112213,323.413879 278.198914,327.817566 
	C279.500610,329.674683 280.742004,331.992737 280.874542,334.170410 
	C281.238281,340.147858 281.380737,346.193390 280.888336,352.152283 
	C280.434814,357.640533 282.105377,361.620331 286.397736,364.980743 
	C290.413239,368.124390 294.070221,371.725952 298.517883,375.690033 
	C298.517883,349.836273 298.517883,324.713074 298.517883,298.798920 
	C292.585480,299.195557 286.140076,298.611755 280.342834,300.280090 
	C273.628448,302.212311 269.057495,299.979340 264.487976,295.962708 
	C261.403412,293.251404 258.447540,290.378662 255.217499,287.855347 
	C253.934921,286.853424 252.051056,286.057800 250.468735,286.104706 
	C244.931183,286.268890 240.200577,282.538330 240.000137,277.418488 
	C239.795395,272.188751 244.322250,267.127167 249.317459,267.000549 
	C254.645599,266.865540 258.611023,271.015564 259.121033,276.442261 
	C259.342072,278.794464 260.393494,281.452972 261.934937,283.212830 
	C264.728394,286.402130 268.164490,289.030304 271.351532,291.871155 
	C271.824402,292.292664 272.423096,292.934845 272.928223,292.903595 
	C279.632385,292.488922 286.330200,291.972107 294.438416,291.377441 
	C292.205566,288.908813 291.286835,287.801392 290.274445,286.787537 
	C276.261505,272.754547 261.972534,258.982758 248.367188,244.565704 
	C244.069534,240.011642 239.895569,240.473328 235.024750,241.471039 
	C229.670471,242.567780 224.387619,244.080963 218.995941,244.903275 
	C215.515976,245.434006 212.639923,244.742676 209.615372,241.539307 
	C203.826324,235.408005 196.799759,230.440506 190.253403,225.030396 
	C185.357315,220.984131 180.408981,217.001114 175.232788,212.729828 
z"/>
<path fill="#FFFFFF" opacity="1.000000" stroke="none" 
	d="
M385.237274,98.984604 
	C381.985931,97.797523 380.341156,95.647636 381.135162,92.656998 
	C381.508270,91.251717 383.113586,89.444099 384.439362,89.170670 
	C387.341980,88.571999 390.558655,88.674957 390.985748,92.887871 
	C391.379456,96.771721 390.155945,99.345070 385.237274,98.984604 
z"/>
<path fill="#FFFFFF" opacity="1.000000" stroke="none" 
	d="
M269.484802,433.184692 
	C273.021027,437.090088 273.022003,440.572632 269.565552,441.934967 
	C267.852509,442.610107 264.879700,442.983490 263.941650,442.038818 
	C262.600342,440.687988 261.821075,437.803986 262.294067,435.956848 
	C262.630066,434.644745 265.395264,433.895447 267.147583,433.041290 
	C267.675293,432.784088 268.442169,433.017578 269.484802,433.184692 
z"/>
<path fill="#FFFFFF" opacity="1.000000" stroke="none" 
	d="
M200.177429,349.334991 
	C202.531372,347.118683 205.108566,346.020233 207.264267,348.168762 
	C208.491257,349.391663 209.173706,352.057037 208.768463,353.754700 
	C208.405563,355.275055 206.416367,357.005585 204.793396,357.507507 
	C200.898682,358.712006 198.314362,354.375275 200.177429,349.334991 
z"/>
<path fill="#FFFFFF" opacity="1.000000" stroke="none" 
	d="
M183.462875,184.826904 
	C179.779861,185.036575 175.951096,185.575790 176.122070,180.609512 
	C176.184875,178.785187 177.191772,176.158005 178.570404,175.442017 
	C180.039856,174.678833 183.211838,175.051712 184.261688,176.194901 
	C185.428833,177.465805 185.203445,180.162628 185.245193,182.245468 
	C185.261246,183.046524 184.342804,183.866302 183.462875,184.826904 
z"/>
<path fill="#FFFFFF" opacity="1.000000" stroke="none" 
	d="
M394.997101,425.964508 
	C395.626770,423.550629 395.752686,420.458252 397.096680,419.780182 
	C398.794403,418.923645 402.552399,419.253632 403.465973,420.502472 
	C404.513489,421.934418 404.179749,425.508636 403.005463,427.065918 
	C402.112061,428.250702 398.970001,427.866547 396.824280,427.897858 
	C396.235229,427.906464 395.631317,426.899200 394.997101,425.964508 
z"/>
<path fill="#FFFFFF" opacity="1.000000" stroke="none" 
	d="
M226.887543,137.016647 
	C230.430099,140.787247 230.627045,144.578537 227.369690,145.728577 
	C225.478256,146.396347 222.067566,146.328461 221.100616,145.148819 
	C219.877579,143.656815 219.693802,140.416550 220.431046,138.441437 
	C221.348206,135.984344 224.051910,135.820587 226.887543,137.016647 
z"/>
<path fill="#FFFFFF" opacity="1.000000" stroke="none" 
	d="
M464.949097,150.022354 
	C468.347290,150.919952 469.891907,153.080322 468.858459,155.917282 
	C468.186188,157.762848 466.416016,159.767914 464.651825,160.456314 
	C463.507538,160.902817 461.078949,159.479858 459.941498,158.238663 
	C457.216309,155.264893 458.934021,152.366638 464.949097,150.022354 
z"/>
<path fill="#FFFFFF" opacity="1.000000" stroke="none" 
	d="
M374.660431,341.172302 
	C376.260010,343.568542 378.664886,345.772888 375.368866,348.006409 
	C373.876892,349.017456 371.718231,350.141113 370.233032,349.761658 
	C368.705627,349.371368 366.984955,347.410309 366.485687,345.786987 
	C365.289825,341.898468 369.625031,339.317871 374.660431,341.172302 
z"/>
<path fill="#FFFFFF" opacity="1.000000" stroke="none" 
	d="
M483.298798,336.785217 
	C486.137268,339.936096 485.731262,343.110931 482.803284,344.769165 
	C481.283539,345.629852 477.848114,344.693298 476.306549,343.370300 
	C475.286804,342.495056 475.383667,339.106689 476.240845,337.527527 
	C477.695435,334.847870 480.252502,333.507660 483.298798,336.785217 
z"/>
<path fill="#FFFFFF" opacity="1.000000" stroke="none" 
	d="
M493.642365,264.864197 
	C496.757599,262.698303 499.790771,261.846161 501.864441,265.148193 
	C502.807892,266.650543 503.146393,269.820068 502.215179,270.892090 
	C501.004120,272.286316 498.083557,273.128204 496.227509,272.718384 
	C494.876068,272.420013 493.888336,269.789276 493.078094,268.040955 
	C492.724457,267.277863 493.220490,266.121002 493.642365,264.864197 
z"/>
<path fill="#FFFFFF" opacity="1.000000" stroke="none" 
	d="
M202.696289,261.246704 
	C201.955307,258.146057 202.923737,255.799042 205.688034,255.255844 
	C207.534912,254.892929 210.273956,255.154022 211.489502,256.313995 
	C213.981079,258.691681 213.358643,261.790863 210.571732,263.690430 
	C207.499466,265.784485 204.454468,265.935486 202.696289,261.246704 
z"/>
<path fill="#FFFFFF" opacity="1.000000" stroke="none" 
	d="
M435.675964,254.986053 
	C432.309174,255.177185 429.022888,254.981750 429.214661,251.248947 
	C429.323853,249.124084 431.177277,246.518494 433.019043,245.281296 
	C434.016388,244.611343 437.601501,245.822479 438.329132,247.127457 
	C439.905029,249.953659 439.687378,253.170746 435.675964,254.986053 
z"/>
<path fill="#FFFFFF" opacity="1.000000" stroke="none" 
	d="
M497.735748,306.632080 
	C495.874237,310.751373 492.563843,309.194733 490.371338,308.488525 
	C489.142365,308.092651 487.698730,304.542786 488.269806,303.284241 
	C489.103607,301.446564 491.556793,299.447388 493.511139,299.228851 
	C496.296082,298.917419 497.990540,301.241028 497.997101,304.276794 
	C497.998535,304.941254 497.973877,305.605743 497.735748,306.632080 
z"/>
<path fill="#FFFFFF" opacity="1.000000" stroke="none" 
	d="
M155.780548,301.014496 
	C156.570496,301.312988 157.179504,301.517395 157.324600,301.898468 
	C158.186691,304.162354 159.709839,306.569000 159.425049,308.717468 
	C159.270462,309.883728 155.764084,311.635040 154.159561,311.292999 
	C152.524246,310.944427 150.512894,308.509460 150.182404,306.709595 
	C149.538818,303.204681 152.107239,301.524597 155.780548,301.014496 
z"/>
<path fill="#FFFFFF" opacity="1.000000" stroke="none" 
	d="
M418.277405,332.762085 
	C415.514343,329.253937 418.044525,327.106750 420.118591,325.667297 
	C421.267883,324.869690 424.045624,325.208893 425.368805,326.102539 
	C429.057098,328.593475 427.626343,331.760315 424.988159,335.518707 
	C423.073273,334.779633 420.816223,333.908478 418.277405,332.762085 
z"/>
<path fill="#FFFFFF" opacity="1.000000" stroke="none" 
	d="
M464.652344,237.152466 
	C464.740875,234.604004 464.407776,231.246216 465.731232,230.358734 
	C467.335541,229.282898 471.271332,229.399139 472.476013,230.653564 
	C473.685089,231.912506 472.775391,235.206238 472.794220,237.608215 
	C470.184418,237.551422 467.574646,237.494629 464.652344,237.152466 
z"/>
<path fill="#FFFFFF" opacity="1.000000" stroke="none" 
	d="
M379.179443,430.676147 
	C379.519714,433.605377 379.573517,436.228607 379.627319,438.851868 
	C377.238464,438.828857 374.302185,439.617615 372.649445,438.503021 
	C371.510681,437.735107 371.197968,433.486084 372.234558,432.318665 
	C373.535431,430.853546 376.593384,430.948486 379.179443,430.676147 
z"/>
<path fill="#FFFFFF" opacity="1.000000" stroke="none" 
	d="
M181.826843,334.999146 
	C178.052490,335.228760 176.211121,334.030609 175.909653,330.314423 
	C175.644897,327.050659 177.494171,325.202881 179.882889,325.262390 
	C181.900452,325.312622 184.824265,326.955597 185.632736,328.691864 
	C186.853287,331.313171 185.703583,334.133606 181.826843,334.999146 
z"/>
<path fill="#FFFFFF" opacity="1.000000" stroke="none" 
	d="
M235.011383,427.322754 
	C236.790649,424.619476 238.574890,421.275330 241.904404,423.702667 
	C243.602081,424.940369 244.571304,428.015778 244.627869,430.291382 
	C244.653854,431.336304 241.657272,433.395233 240.088974,433.340607 
	C237.056366,433.234924 234.426025,431.641449 235.011383,427.322754 
z"/>
<path fill="#FFFFFF" opacity="1.000000" stroke="none" 
	d="
M260.753601,116.253922 
	C259.034515,112.818047 259.108398,109.502365 262.477631,108.201843 
	C264.969299,107.240059 268.793182,107.078247 269.494507,111.201691 
	C269.768890,112.815002 269.064087,115.092644 267.970978,116.331573 
	C266.018982,118.543976 263.404266,118.274086 260.753601,116.253922 
z"/>
<path fill="#FFFFFF" opacity="1.000000" stroke="none" 
	d="
M423.347412,109.847214 
	C423.730316,112.583366 425.522064,115.599358 421.916687,116.932938 
	C420.398499,117.494492 418.196899,117.968529 416.997955,117.279053 
	C414.211517,115.676651 412.678558,113.007889 415.050873,109.894028 
	C417.455658,106.737572 420.266785,107.160164 423.347412,109.847214 
z"/>
<path fill="#FFFFFF" opacity="1.000000" stroke="none" 
	d="
M145.854767,223.600769 
	C142.163712,222.308670 139.353424,220.127853 141.649353,216.074875 
	C142.502380,214.569031 145.537918,212.805923 146.667053,213.289154 
	C148.505142,214.075760 150.804214,216.710831 150.667953,218.383255 
	C150.524429,220.144775 147.751953,221.692123 145.854767,223.600769 
z"/>
<path fill="#FFFFFF" opacity="1.000000" stroke="none" 
	d="
M469.196411,285.463043 
	C471.595886,284.080658 473.757080,282.713715 476.099884,282.234375 
	C476.804932,282.090118 478.602661,284.296051 478.872223,285.632629 
	C479.442413,288.459686 479.129547,291.559113 475.373199,291.926086 
	C471.187531,292.335052 468.975891,290.108734 469.196411,285.463043 
z"/>
<path fill="#FFFFFF" opacity="1.000000" stroke="none" 
	d="
M171.773529,258.705383 
	C167.796814,261.680573 165.032516,259.529999 163.516449,256.597900 
	C162.892044,255.390198 164.397430,252.335693 165.794327,251.072495 
	C166.847092,250.120438 169.746979,249.932556 170.986420,250.721497 
	C173.904648,252.579041 173.752960,255.543900 171.773529,258.705383 
z"/>
<path fill="#FFFFFF" opacity="1.000000" stroke="none" 
	d="
M245.591019,156.224121 
	C247.284683,158.244690 249.509598,159.997192 249.674225,161.925598 
	C249.784485,163.216934 247.178146,165.350830 245.390625,165.979538 
	C244.193039,166.400711 241.794937,165.266174 240.814301,164.092377 
	C238.059830,160.795227 240.066910,157.359146 245.591019,156.224121 
z"/>
</svg>