<svg width="32" height="32" viewBox="0 0 32 32" fill="none" xmlns="http://www.w3.org/2000/svg">
<path d="M24.07 9.48001C22.69 6.57001 19.98 4.67001 16.83 4.42001C16.28 4.38001 15.71 4.38001 15.16 4.42001C12.01 4.68001 9.31002 6.57001 7.92002 9.48001C6.48002 12.51 6.76002 16.1 8.64002 18.83L13.94 26.53C14.4 27.2 15.17 27.6 15.98 27.6C16.79 27.6 17.56 27.2 18.02 26.53L19.78 23.97C19.93 23.75 19.88 23.45 19.66 23.3C19.44 23.15 19.14 23.2 18.99 23.42L17.23 25.98C16.66 26.81 15.31 26.81 14.74 25.98L9.44002 18.28C7.75002 15.83 7.50002 12.61 8.79002 9.89002C10.02 7.29002 12.43 5.61001 15.23 5.38001C15.73 5.34001 16.24 5.34001 16.74 5.38001C19.54 5.61001 21.95 7.29002 23.18 9.89002C24.46 12.58 24.22 15.74 22.59 18.19C22.5 18.17 22.41 18.13 22.31 18.13C21.64 18.13 21.1 18.67 21.1 19.34C21.1 20.01 21.64 20.55 22.31 20.55C22.98 20.55 23.52 20.01 23.52 19.34C23.52 19.13 23.46 18.95 23.36 18.78C25.22 16.05 25.49 12.49 24.06 9.48001H24.07Z" fill="white"/>
<path d="M12.01 13.0501C12.01 15.2501 13.8 17.0401 16 17.0401C18.2 17.0401 19.99 15.2501 19.99 13.0501C19.99 10.8501 18.2 9.06006 16 9.06006C13.8 9.06006 12.01 10.8501 12.01 13.0501ZM19.03 13.0501C19.03 14.7201 17.67 16.0701 16.01 16.0701C14.35 16.0701 12.99 14.7101 12.99 13.0501C12.99 11.3901 14.35 10.0301 16.01 10.0301C17.67 10.0301 19.03 11.3901 19.03 13.0501Z" fill="white"/>
</svg>
