<svg width="32" height="32" viewBox="0 0 32 32" fill="none" xmlns="http://www.w3.org/2000/svg">
<path d="M21.42 8.28001C20.14 8.28001 18.95 8.75001 18.04 9.63001L10.93 16.56C10.68 16.8 10.48 17.09 10.34 17.42C10.2 17.74 10.13 18.09 10.13 18.44C10.13 18.79 10.19 19.14 10.33 19.46C10.46 19.79 10.66 20.08 10.91 20.33C11.16 20.58 11.45 20.77 11.78 20.91C12.1 21.04 12.44 21.11 12.78 21.11H12.81C13.16 21.11 13.51 21.04 13.83 20.9C14.15 20.76 14.44 20.56 14.68 20.31L21.8 13.19C21.99 13 21.99 12.69 21.8 12.5C21.61 12.31 21.3 12.31 21.11 12.5L13.99 19.62C13.84 19.78 13.65 19.91 13.45 20C13.24 20.09 13.03 20.13 12.8 20.14C12.58 20.14 12.36 20.1 12.15 20.02C11.94 19.93 11.76 19.81 11.6 19.65C11.44 19.49 11.32 19.31 11.23 19.1C11.15 18.89 11.1 18.68 11.11 18.45C11.11 18.23 11.16 18.01 11.25 17.8C11.34 17.59 11.47 17.41 11.63 17.25L18.74 10.32C19.46 9.62001 20.4 9.24001 21.4 9.24001H21.44C22.45 9.24001 23.4 9.65001 24.12 10.36C24.84 11.08 25.23 12.03 25.24 13.04C25.24 14.05 24.87 15.01 24.17 15.73L20.57 19.27C20.38 19.46 20.38 19.76 20.57 19.96C20.76 20.15 21.07 20.15 21.26 19.96L24.87 16.41C25.75 15.5 26.23 14.3 26.22 13.03C26.21 11.76 25.71 10.57 24.81 9.67001C23.91 8.77001 22.72 8.27001 21.45 8.26001L21.42 8.28001Z" fill="white"/>
<path d="M17.77 21.48C17.15 21.48 16.66 21.98 16.66 22.59C16.66 22.71 16.69 22.83 16.73 22.94C15.64 23.9 14.25 24.42 12.79 24.42C11.19 24.42 9.68001 23.8 8.55001 22.66C7.43001 21.54 6.79001 20 6.79001 18.42C6.79001 16.84 7.43001 15.3 8.55001 14.18L15.3 7.42002C15.49 7.23002 15.49 6.92002 15.3 6.73002C15.11 6.54002 14.8 6.54002 14.61 6.73002L7.86001 13.49C6.56001 14.79 5.82001 16.58 5.82001 18.42C5.82001 20.26 6.56001 22.05 7.86001 23.35C9.18001 24.67 10.93 25.39 12.79 25.39C14.51 25.39 16.13 24.76 17.41 23.63C17.53 23.67 17.65 23.7 17.78 23.7C18.4 23.7 18.89 23.2 18.89 22.59C18.89 21.98 18.39 21.48 17.78 21.48H17.77Z" fill="white"/>
</svg>
