<svg width="32" height="32" viewBox="0 0 32 32" fill="none" xmlns="http://www.w3.org/2000/svg">
<path fill-rule="evenodd" clip-rule="evenodd" d="M25.057 19.2775C24.7855 19.2775 24.5721 19.4909 24.5721 19.7624V22.429C24.5721 23.2824 23.874 23.9806 23.0206 23.9806H8.98911C8.13578 23.9806 7.43759 23.2824 7.43759 22.429V21.2169C7.88365 21.0327 8.19396 20.606 8.19396 20.1018C8.19396 19.4327 7.65093 18.8896 6.98184 18.8896C6.31274 18.8896 5.76971 19.4327 5.76971 20.1018C5.76971 20.5866 6.06062 20.9939 6.4679 21.1878V22.429C6.4679 23.8254 7.60244 24.9503 8.98911 24.9503H23.0206C24.4073 24.9503 25.5418 23.8157 25.5418 22.429V19.7624C25.5418 19.4909 25.3285 19.2775 25.057 19.2775Z" fill="white"/>
<path fill-rule="evenodd" clip-rule="evenodd" d="M15.2243 20.8388C15.3988 21.1006 15.6897 21.2558 16 21.2558C16.3103 21.2558 16.6012 21.1006 16.7758 20.8388L20.7515 14.8364C20.9455 14.5358 20.9552 14.1673 20.7806 13.857C20.6061 13.5467 20.2764 13.3624 19.9176 13.3915L18.8994 13.4885V6.38062C18.8994 5.86668 18.4824 5.44971 17.9685 5.44971H14.0121C13.4982 5.44971 13.0812 5.86668 13.0812 6.38062V7.95152C12.6739 8.14546 12.383 8.55274 12.383 9.03759C12.383 9.70668 12.9261 10.2497 13.5952 10.2497C14.2643 10.2497 14.8073 9.70668 14.8073 9.03759C14.8073 8.52365 14.4873 8.08728 14.0315 7.91274L14.0121 6.4194L17.9297 6.38062V13.4885C17.9297 13.7406 18.0364 13.9927 18.2206 14.1673C18.4049 14.3418 18.6473 14.4388 18.9188 14.4194L19.937 14.303L16.0194 20.3055L12.0049 14.3612L13.0618 14.4194C13.3139 14.4388 13.5661 14.3418 13.76 14.1673C13.9539 13.9927 14.0509 13.7406 14.0509 13.4885V12.48C14.0509 12.2085 13.8376 11.9952 13.5661 11.9952C13.2946 11.9952 13.0812 12.2085 13.0812 12.48L13.12 13.4497L12.063 13.3915C11.6849 13.3624 11.3746 13.5467 11.2 13.857C11.0255 14.1673 11.0352 14.5455 11.2291 14.8364L15.2146 20.8388H15.2243Z" fill="white"/>
</svg>
