<svg width="32" height="32" viewBox="0 0 32 32" fill="none" xmlns="http://www.w3.org/2000/svg">
<path d="M16.98 4.32996H15.02C13.96 4.32996 13.09 5.19996 13.09 6.25996V11.12C12.65 11.3 12.35 11.73 12.35 12.24C12.35 12.91 12.89 13.45 13.56 13.45C14.23 13.45 14.77 12.91 14.77 12.24C14.77 11.75 14.48 11.33 14.06 11.14V6.25996C14.06 5.72996 14.49 5.29996 15.02 5.29996H16.98C17.51 5.29996 17.94 5.72996 17.94 6.25996V17.91C17.94 18.44 17.51 18.87 16.98 18.87H15.02C14.49 18.87 14.06 18.44 14.06 17.91V16.25C14.06 15.98 13.84 15.77 13.58 15.77C13.32 15.77 13.1 15.99 13.1 16.25V17.91C13.1 18.97 13.97 19.84 15.03 19.84H16.99C18.05 19.84 18.92 18.97 18.92 17.91V6.26996C18.92 5.20996 18.05 4.33996 16.99 4.33996L16.98 4.32996Z" fill="white"/>
<path d="M16 21.88C14.41 21.88 13.12 23.17 13.12 24.75C13.12 26.33 14.41 27.62 16 27.62C17.59 27.62 18.88 26.33 18.88 24.75C18.88 23.17 17.59 21.88 16 21.88ZM16 26.73C14.91 26.73 14.03 25.84 14.03 24.76C14.03 23.68 14.92 22.79 16 22.79C17.08 22.79 17.97 23.68 17.97 24.76C17.97 25.84 17.08 26.73 16 26.73Z" fill="white"/>
</svg>
