<svg width="32" height="32" viewBox="0 0 32 32" fill="none" xmlns="http://www.w3.org/2000/svg">
<path fill-rule="evenodd" clip-rule="evenodd" d="M26.14 22.63L19.3 18.68C18.43 18.18 17.92 17.28 17.92 16.28C17.92 15.28 18.44 14.38 19.3 13.88L26.14 9.93005C27.29 9.27005 28 8.03005 28 6.71005C28 5.39005 27.31 4.16005 26.14 3.49005C24.98 2.82005 23.59 2.82005 22.42 3.49005L5.86 13.07C4.7 13.74 4 14.94 4 16.29C4 17.64 4.69 18.84 5.86 19.51L14.11 24.2701C14.11 24.2701 14.09 24.34 14.09 24.38C14.09 25.03 14.62 25.57 15.28 25.57C15.94 25.57 16.47 25.04 16.47 24.38C16.47 23.72 15.94 23.1901 15.28 23.1901C15.01 23.1901 14.78 23.2901 14.58 23.4401L6.33 18.68C5.46 18.18 4.95 17.28 4.95 16.28C4.95 15.28 5.47 14.38 6.33 13.88L22.9 4.33005C23.77 3.83005 24.8 3.83005 25.67 4.33005C26.54 4.83005 27.05 5.73005 27.05 6.73005C27.05 7.73005 26.52 8.63005 25.67 9.13005L18.83 13.08C17.67 13.75 16.97 14.95 16.97 16.3C16.97 17.65 17.66 18.85 18.83 19.5201L25.67 23.47C26.52 23.96 27.05 24.8801 27.05 25.8701C27.05 26.8601 26.53 27.7701 25.67 28.2701C24.81 28.7701 23.77 28.7701 22.9 28.2701L20.28 26.76C20.05 26.6301 19.76 26.7101 19.63 26.93C19.5 27.16 19.58 27.4501 19.8 27.58L22.42 29.09C23 29.43 23.64 29.59 24.28 29.59C24.92 29.59 25.56 29.42 26.14 29.09C27.3 28.42 28 27.2101 28 25.8701C28 24.5301 27.29 23.31 26.14 22.65V22.63Z" fill="black"/>
</svg>
