<svg width="32" height="32" viewBox="0 0 32 32" fill="none" xmlns="http://www.w3.org/2000/svg">
<path fill-rule="evenodd" clip-rule="evenodd" d="M14.04 13.3401C12.86 13.3401 11.9 14.3001 11.9 15.4801V17.4301C11.9 18.1501 12.49 18.7301 13.2 18.7301H18.79C19.51 18.7301 20.09 18.1401 20.09 17.4301V15.4801C20.09 14.3001 19.13 13.3401 17.95 13.3401C17.87 13.3401 17.81 13.2801 17.81 13.2001C17.81 13.1601 17.83 13.1201 17.86 13.1001C18.69 12.4501 19.11 11.4401 19 10.3901C18.85 8.99011 17.73 7.87011 16.33 7.71011C15.47 7.62011 14.61 7.89011 13.97 8.46011C13.33 9.03011 12.96 9.86011 12.96 10.7201C12.96 11.6501 13.38 12.5101 14.11 13.0901C14.15 13.1201 14.17 13.1601 14.17 13.2001C14.17 13.2801 14.11 13.3401 14.03 13.3401H14.04ZM14.72 12.3301C14.22 11.9401 13.94 11.3501 13.94 10.7201C13.94 10.1301 14.19 9.58011 14.63 9.18011C15.01 8.84011 15.49 8.66011 16 8.66011C16.08 8.66011 16.16 8.66011 16.24 8.67011C17.19 8.77011 17.95 9.54011 18.05 10.4901C18.13 11.2001 17.84 11.8901 17.27 12.3301C17 12.5401 16.85 12.8601 16.85 13.2001C16.85 13.8101 17.35 14.3101 17.96 14.3101C18.6 14.3101 19.13 14.8301 19.13 15.4801V17.4301C19.13 17.6101 18.98 17.7601 18.79 17.7601H13.2C13.02 17.7601 12.87 17.6101 12.87 17.4301V15.4801C12.87 14.8401 13.39 14.3101 14.04 14.3101C14.69 14.3101 15.15 13.8101 15.15 13.2001C15.15 12.8601 15 12.5401 14.72 12.3301Z" fill="white"/>
<path fill-rule="evenodd" clip-rule="evenodd" d="M20.29 5.79004H11.7C10.04 5.79004 8.69001 7.14004 8.69001 8.80004V16.59C8.69001 16.59 8.69001 16.59 8.69001 16.6C8.29001 16.8 8.01001 17.2 8.01001 17.68C8.01001 18.35 8.55001 18.89 9.22001 18.89C9.89001 18.89 10.43 18.35 10.43 17.68C10.43 17.19 10.14 16.77 9.72001 16.58V8.81004C9.72001 7.72004 10.61 6.83004 11.7 6.83004H20.29C21.38 6.83004 22.27 7.72004 22.27 8.81004V23.21C22.27 23.21 22.27 23.21 22.27 23.22C22.27 24.3 21.38 25.18 20.29 25.18H11.7C10.62 25.18 9.73001 24.3 9.72001 23.22C9.72001 22.14 10.61 21.26 11.7 21.26H20.29C20.58 21.26 20.81 21.03 20.81 20.74C20.81 20.45 20.58 20.22 20.29 20.22H11.7C10.05 20.22 8.70001 21.56 8.69001 23.22C8.70001 24.87 10.05 26.21 11.7 26.21H20.29C21.94 26.21 23.29 24.87 23.3 23.22C23.3 23.22 23.3 23.21 23.3 23.2V8.80004C23.3 7.14004 21.95 5.79004 20.29 5.79004Z" fill="white"/>
</svg>
