<svg width="32" height="32" viewBox="0 0 32 32" fill="none" xmlns="http://www.w3.org/2000/svg">
<path d="M22.57 6.64001C21.98 6.05001 21.01 6.05001 20.41 6.64001L18.79 8.26001C18.2 8.86001 18.2 9.82001 18.79 10.42L20.87 12.5C21.06 12.69 21.37 12.69 21.56 12.5C21.75 12.31 21.75 12 21.56 11.81L19.48 9.73001C19.26 9.51001 19.26 9.16001 19.48 8.94001L21.1 7.32001C21.32 7.10001 21.67 7.10001 21.89 7.32001L24.62 10.05C24.73 10.15 24.78 10.29 24.78 10.44C24.78 10.59 24.72 10.73 24.62 10.83L11.84 23.61C11.77 23.68 11.69 23.73 11.6 23.75L7.93002 24.78C7.65002 24.86 7.46002 24.71 7.39002 24.64C7.32002 24.57 7.17002 24.38 7.24002 24.1L8.23002 20.39C8.25002 20.3 8.30002 20.21 8.37002 20.14L15.22 13.29C15.36 13.35 15.51 13.38 15.67 13.38C16.34 13.38 16.88 12.84 16.88 12.17C16.88 11.5 16.34 10.96 15.67 10.96C15 10.96 14.46 11.5 14.46 12.17C14.46 12.32 14.5 12.46 14.55 12.6L7.69002 19.46C7.50002 19.65 7.37002 19.89 7.30002 20.14L6.31002 23.85C6.17002 24.39 6.31002 24.94 6.71002 25.33C7.00002 25.62 7.38002 25.77 7.78002 25.77C7.92002 25.77 8.06002 25.75 8.20002 25.71L11.87 24.68C12.12 24.61 12.35 24.47 12.54 24.29L25.32 11.51C25.61 11.22 25.77 10.84 25.77 10.43C25.77 10.02 25.61 9.64001 25.32 9.35001L22.59 6.62001L22.57 6.64001Z" fill="white"/>
</svg>
