<svg width="150" height="151" viewBox="0 0 150 151" fill="none" xmlns="http://www.w3.org/2000/svg">
<path d="M5.37109 96.9559V73.0065C5.37109 63.145 13.3396 55.1765 23.2011 55.1765H128.42C138.282 55.1765 146.25 63.145 146.25 73.0065V125.352C146.25 135.213 138.282 143.182 128.42 143.182H23.2011C13.3396 143.182 5.37109 135.213 5.37109 125.352V117.559" stroke="#201A18" stroke-width="5" stroke-miterlimit="10" stroke-linecap="round"/>
<path d="M73.8736 86.6545C73.0371 85.4218 72.0686 84.2771 70.9679 83.2646C66.0372 78.5539 58.9052 76.0885 51.2449 77.5854C44.4651 78.9501 38.6538 83.7048 35.7922 90.0003C28.7923 105.365 40.8991 121.17 55.7794 121.17C66.6975 121.17 75.7666 113.245 77.4836 102.812C77.8358 100.698 79.5968 99.1575 81.71 99.1575H118.03" stroke="#201A18" stroke-width="5" stroke-miterlimit="10" stroke-linecap="round"/>
<path d="M73.6974 91.4088C76.7367 91.4088 79.2005 88.9449 79.2005 85.9057C79.2005 82.8664 76.7367 80.4026 73.6974 80.4026C70.6582 80.4026 68.1943 82.8664 68.1943 85.9057C68.1943 88.9449 70.6582 91.4088 73.6974 91.4088Z" fill="#201A18"/>
<path d="M5.50309 118.661C8.54236 118.661 11.0062 116.197 11.0062 113.158C11.0062 110.119 8.54236 107.655 5.50309 107.655C2.46382 107.655 0 110.119 0 113.158C0 116.197 2.46382 118.661 5.50309 118.661Z" fill="#201A18"/>
<path d="M112.307 33.6934C115.346 33.6934 117.81 31.2296 117.81 28.1903C117.81 25.1511 115.346 22.6873 112.307 22.6873C109.268 22.6873 106.804 25.1511 106.804 28.1903C106.804 31.2296 109.268 33.6934 112.307 33.6934Z" fill="#201A18"/>
<path d="M103.326 99.8184V110.34" stroke="#201A18" stroke-width="5" stroke-miterlimit="10" stroke-linecap="round"/>
<path d="M32.27 54.1643C32.27 27.0892 51.905 4.85669 75.8104 4.85669C90.6467 4.85669 103.81 13.3975 111.691 26.3407" stroke="#201A18" stroke-width="5" stroke-miterlimit="10" stroke-linecap="round"/>
</svg>
