<svg width="223" height="205" viewBox="0 0 223 205" fill="none" xmlns="http://www.w3.org/2000/svg">
<g clip-path="url(#clip0_798_5637)">
<mask id="mask0_798_5637" style="mask-type:luminance" maskUnits="userSpaceOnUse" x="-43" y="-13" width="272" height="218">
<path d="M228.767 -12.0686H-42.3511V204.655H228.767V-12.0686Z" fill="white"/>
</mask>
<g mask="url(#mask0_798_5637)">
<path d="M9.73674 120.734C10.8998 120.048 12.3897 119.265 13.8123 118.752C14.1871 118.617 14.5716 118.946 14.5043 119.342C14.4082 119.874 14.216 120.377 13.9084 120.812C12.7838 122.388 12.207 124.573 12.1109 124.988C12.1013 125.037 12.0725 125.085 12.1013 125.124C24.0299 140.883 29.1916 141.241 43.4367 156.053C44.6382 157.309 44.4844 157.126 45.8973 158.131C56.3841 165.595 61.7765 165.953 66.5825 166.668C69.1297 167.055 72.5228 167.819 73.5993 167.635C78.7802 166.765 83.692 169.327 83.692 169.327C84.5667 168.882 84.98 170.739 84.98 170.739L107.27 175.766C109.193 178.454 108.251 197.481 107.761 205.467C107.636 207.517 107.722 209.557 108.068 211.577C110.702 226.843 112.269 274.45 112.269 274.45C112.269 274.856 112.269 275.252 112.259 275.658C92.439 289.706 57.6337 280.154 48.6656 274.015C48.8386 270.292 49.3192 266.59 50.0786 262.945C50.4535 261.137 50.7899 259.271 50.9725 258.642C62.9107 216.798 73.3398 198.206 73.3398 198.206C78.0017 190.433 66.6114 180.068 56.5091 175.727C54.827 175.002 36.4295 165.837 35.0165 164.657C23.309 154.863 2.95062 125.752 2.73915 124.379C2.73915 124.341 2.71993 124.312 2.71032 124.273C2.38351 123.529 2.11436 122.774 1.87406 122.03C1.75872 121.653 2.08553 121.285 2.47962 121.363C3.08518 121.489 3.73881 121.605 4.3732 121.721C6.22833 122.04 8.12191 121.692 9.74635 120.744L9.73674 120.734Z" fill="url(#paint0_linear_798_5637)"/>
<path d="M9.52535 120.357C10.6404 119.69 11.8419 119.091 13.0434 118.588C13.3702 118.472 13.4855 118.385 13.8796 118.298C14.4852 118.221 15.0235 118.791 14.9177 119.4C14.7255 120.754 13.7066 121.595 13.2741 122.803C12.9376 123.567 12.6877 124.35 12.4763 125.153C12.4763 125.153 12.4763 125.143 12.4763 125.076C12.4763 125.047 12.4763 124.998 12.457 124.95C12.4474 124.901 12.3897 124.843 12.409 124.872L12.4666 124.95L12.7069 125.259C16.4364 130.229 20.6081 134.821 25.3372 138.833C30.0952 142.846 35.0742 146.597 39.5823 150.928C41.4374 152.678 43.2733 154.593 45.0708 156.372C49.5212 159.688 54.2215 162.985 59.4985 164.812C63.3818 166.108 67.5919 166.494 71.6097 167.181C72.6862 167.345 73.5225 167.277 74.5991 166.949C77.7806 166.233 81.2218 167.094 83.8363 168.998H83.5094C84.5283 168.496 85.1819 169.849 85.355 170.652L85.057 170.352L107.347 175.35L107.52 175.389C108.683 177.371 108.539 179.682 108.732 181.876C108.962 188.161 108.655 194.436 108.337 200.701C108.203 203.823 107.809 206.927 108.174 210.03C108.972 215.184 109.683 220.385 110.125 225.577C111.625 242.361 113.288 259.174 112.913 276.036C108.097 279.216 102.782 281.614 97.2066 283.074C91.6893 284.37 85.9701 284.321 80.3567 283.983C74.7432 283.615 69.2067 282.581 63.8143 281.082C58.4219 279.526 53.0488 277.689 48.3677 274.46C47.8871 273.502 48.2331 274.17 48.1274 273.938V273.889V273.793L48.1466 273.599L48.1755 273.212C48.6849 267.295 49.6846 261.301 51.4147 255.597C54.2984 245.658 57.48 235.816 61.0268 226.089C63.872 218.316 66.9767 210.64 70.4178 203.098C71.2925 201.232 72.196 199.337 73.138 197.51C74.9739 193.797 72.8785 189.698 70.4178 186.798C63.7566 178.841 53.4813 175.66 44.6575 170.845C41.7066 169.25 37.0351 167.103 34.3149 165.208C30.941 162.298 28.019 158.953 25.1642 155.608C17.2823 145.988 9.85216 136.078 2.96992 125.723C2.3163 124.718 1.96065 123.577 1.55695 122.436L1.49927 122.252L1.47044 122.156C1.46082 122.107 1.4416 122.049 1.43199 121.991C1.34548 121.373 1.9222 120.822 2.52776 120.938L2.72962 120.976L3.10449 121.044L3.85423 121.189C5.80548 121.653 7.82402 121.373 9.52535 120.367V120.357ZM9.95789 121.102C7.85285 122.407 5.24798 122.465 2.94108 121.875L2.5566 121.808L2.38358 121.779C2.37397 121.779 2.35475 121.779 2.34513 121.779C2.28746 121.798 2.25863 121.846 2.27785 121.895L2.30669 121.982C2.59505 122.842 2.95069 123.819 3.31595 124.621C9.99634 135.285 17.8782 145.282 26.2215 154.67C29.3166 158.025 32.4021 161.457 35.9682 164.222C38.3808 165.643 42.9081 167.925 45.4649 169.24C50.9534 172.199 56.6918 174.471 62.0841 177.584C67.3516 180.948 72.619 185.347 74.5894 191.535C75.2046 193.623 75.0893 196.031 74.0127 197.964C72.9746 199.772 72.0519 201.59 71.1579 203.456C69.3605 207.169 67.7264 210.959 66.1885 214.787C61.5459 226.273 57.5569 238.02 53.9812 249.893C51.5685 257.589 49.425 265.536 49.2232 273.657V273.851V273.947V273.996C49.1175 273.802 49.4539 274.498 48.9925 273.57C53.6736 276.287 59.0467 277.824 64.3238 279.149C74.9259 281.653 85.999 282.494 96.7645 280.676C102.118 279.99 107.53 278.433 111.884 275.107L111.596 275.658C110.394 259.3 110.269 242.032 109.183 225.664C108.885 221.507 108.539 217.34 107.991 213.221C107.684 211.162 107.347 209.044 107.415 206.937C107.559 205.138 107.597 202.489 107.732 200.672C108.001 194.426 108.212 188.161 107.905 181.925C107.732 179.991 107.77 177.777 106.934 176.027C108.558 176.685 84.4418 170.951 84.9032 171.145L84.6629 171.087C84.5572 170.613 84.413 169.975 84.0381 169.665C83.9804 169.598 83.7786 169.704 83.6921 169.723C80.1452 168.824 76.7714 168.032 73.1188 168.051C68.4762 167.229 63.8624 166.755 59.2582 165.692C53.6351 164.155 48.5311 161.264 43.8597 157.803C41.9661 155.946 40.2647 154.071 38.3519 152.253C32.5078 146.375 25.8851 141.328 20.1371 135.314C17.1573 132.162 14.3891 128.836 11.7746 125.385C11.7842 125.395 11.7265 125.327 11.7073 125.259C11.6496 125.143 11.6881 124.989 11.7073 124.921C12.0822 123.074 13.1299 121.373 13.9757 119.768C14.0142 119.661 14.043 119.545 14.0719 119.429L14.1007 119.265C14.1007 119.265 14.1007 119.236 14.1007 119.226C14.0238 119.062 13.9181 119.178 13.7162 119.236C12.4186 119.748 11.1594 120.386 9.95789 121.102Z" fill="black"/>
<path d="M108.136 164.503C113.528 163.062 128.667 160.152 135.482 170.661C136.087 171.599 136.53 172.643 136.847 173.726C138.135 178.087 143.162 192.463 154.168 196.292C155.389 196.717 155.437 198.448 154.225 198.883C150.573 200.198 144.248 200.836 136.664 194.677C135.261 193.537 134.357 191.874 134.155 190.075C133.973 188.528 133.694 186.566 133.281 185.048C133.021 184.1 131.695 184.052 131.368 184.98C131.003 186.024 130.657 187.368 130.637 188.799C130.637 189.428 130.09 189.911 129.474 189.814C127.86 189.563 125.072 188.296 123.996 182.747C123.707 181.287 123.217 179.875 122.448 178.599C121.083 176.346 118.488 173.456 113.797 172.208C112.519 171.87 111.192 171.706 109.866 171.677C108.03 171.638 103.714 171.203 104.714 167.761C105.175 166.156 106.521 164.938 108.126 164.512L108.136 164.503Z" fill="url(#paint1_linear_798_5637)"/>
<path d="M108.001 163.99C117.305 161.883 129.455 161.177 135.664 169.936C137.154 171.773 137.548 174.19 138.404 176.317C141.287 183.743 145.68 191.525 153.197 194.861L154.187 195.267L154.437 195.373C155.494 195.712 156.225 196.843 156.042 197.955C155.936 198.873 155.186 199.656 154.293 199.879C152.207 200.604 149.948 200.875 147.756 200.681C143.739 200.333 140.057 198.564 136.914 196.166C135.53 195.199 134.299 193.904 133.694 192.309C132.867 190.085 133.002 187.474 132.319 185.309L132.339 185.318C132.329 185.318 132.3 185.318 132.329 185.309C132.329 185.309 132.329 185.309 132.329 185.299C132.329 185.299 132.329 185.289 132.291 185.405C131.829 186.691 131.675 187.784 131.589 189.166C131.291 190.636 129.811 191.081 128.523 190.559C126.783 190.027 125.456 188.673 124.63 187.233C123.005 184.506 123.313 181.306 121.563 178.725C120.054 176.288 117.738 174.393 115.056 173.368C112.999 172.508 110.769 172.392 108.558 172.247C106.924 171.996 105.011 171.609 104.214 169.849C103.301 167.19 105.588 164.58 108.001 163.99ZM108.27 165.015C106.463 165.47 104.694 167.519 105.319 169.366C106.088 170.806 108.27 170.913 109.769 170.99C111.721 170.99 113.701 171.309 115.546 171.986C118.536 173.049 121.198 175.118 122.948 177.816C125.456 181.151 124.524 187.194 129.061 188.722C129.244 188.77 129.445 188.818 129.628 188.847C129.628 188.847 129.657 188.828 129.657 188.789C129.666 187.619 129.868 186.44 130.195 185.318C130.349 184.835 130.493 184.236 130.906 183.859C131.771 183.017 133.213 183.133 133.915 184.091C135.424 186.991 134.338 190.646 136.578 193.169C140.682 197.007 146.497 199.676 152.13 198.458C152.639 198.371 153.168 198.197 153.658 198.042L153.898 197.965C153.918 197.945 153.966 197.945 153.975 197.926C154.206 197.829 154.196 197.346 153.927 197.22C145.2 193.943 140.163 185.154 137.164 176.772C136.366 174.693 136.078 172.392 134.703 170.603C128.946 162.192 117.075 162.376 108.27 165.025V165.015Z" fill="black"/>
<path d="M115.479 167.355C122.284 167.799 130.06 170.11 133.338 176.685C133.559 177.12 133.386 177.651 132.954 177.874C132.511 178.096 131.973 177.912 131.762 177.468C128.965 171.328 121.659 169.037 115.431 168.38C114.777 168.351 114.806 167.335 115.479 167.364V167.355Z" fill="black"/>
<path d="M138.394 186.73C139.317 189.94 141.768 192.85 144.709 194.474C145.728 195.074 146.833 195.489 147.968 195.867C148.573 196.07 148.304 196.998 147.689 196.843C143.959 196.031 140.48 193.943 138.221 190.81C137.625 189.834 135.107 186.682 136.971 185.918C137.587 185.686 138.269 186.082 138.394 186.73Z" fill="black"/>
<path d="M3.25817 108.214L8.862 107.653C9.93856 107.547 11.0055 107.943 11.7648 108.726L14.4178 111.501C15.206 112.323 15.552 113.464 15.3502 114.585L14.7158 118.163C14.6773 118.356 14.5427 118.511 14.3601 118.569C12.7741 119.062 11.0536 119.961 9.74632 120.734C8.12188 121.692 6.21869 122.04 4.37317 121.711C3.54653 121.566 2.69106 121.401 1.94132 121.247C1.74908 121.208 1.59528 121.063 1.54722 120.87C0.509115 117.022 0.441834 113.396 0.566791 111.076C0.643687 109.577 1.79714 108.369 3.27739 108.214H3.25817Z" fill="#643C3B"/>
<path d="M3.21962 107.837L9.22716 107.286C10.3229 107.286 11.4091 107.798 12.13 108.591C12.899 109.442 14.658 110.989 15.2828 111.956C15.8787 112.874 15.946 114.17 15.7057 115.166C15.5807 115.91 15.3404 117.399 15.2251 118.143C15.177 118.955 14.36 119.081 13.7448 119.313C12.428 119.806 11.015 120.58 9.78467 121.286C7.46816 122.678 4.63259 122.407 2.15268 121.798C1.68169 121.759 1.1338 121.479 1.03768 120.957C0.355224 118.298 0.0476376 115.543 0.0764738 112.806C-0.0580952 110.496 0.5763 108.137 3.22923 107.837H3.21962ZM3.29652 108.581C2.42182 108.678 1.62402 109.239 1.23953 110.022C0.826214 110.853 0.970398 111.888 0.941561 112.797C0.970398 115.465 1.30682 118.124 2.01811 120.686C2.03734 120.754 2.01811 120.715 2.02772 120.725C4.03664 121.121 6.03596 121.643 8.00643 120.937C8.81384 120.715 9.87117 120.048 10.6113 119.642C11.7551 119.023 12.9855 118.453 14.2254 118.047L14.2447 117.95L14.5234 116.471C14.6291 115.678 15.0329 114.373 14.9463 113.619C14.8694 112.652 14.3792 111.965 13.6776 111.269L11.6302 109.065C11.0246 108.349 10.1499 107.943 9.23677 107.943C7.31436 108.098 5.2766 108.349 3.30613 108.562L3.29652 108.581Z" fill="black"/>
<path d="M91.4391 48.1841C87.6711 44.7132 80.5678 35.3446 83.1246 15.5634C83.3937 13.5041 81.9808 11.5994 79.9526 11.232C77.9245 10.8646 75.9636 12.1505 75.483 14.1615C74.9447 16.3852 74.3392 19.2663 74.0989 21.6061C73.9259 23.3657 72.2245 24.5549 70.5232 24.1391C64.3042 22.6212 57.9891 18.928 58.5466 5.10237C58.6138 3.33308 57.3931 1.77649 55.6533 1.45744C53.6828 1.09971 51.8085 2.46294 51.5394 4.46426C50.6166 11.5124 52.6447 29.0023 69.5716 33.469C71.8881 34.0781 73.6183 36.0311 74.2334 38.3611C75.2043 42.0254 77.4823 47.9907 82.7594 54.5941C84.1819 56.3731 86.3447 57.4559 88.6035 57.2916C90.0934 57.1852 91.6505 56.5858 92.6213 54.8358C93.8421 52.6411 93.2846 49.876 91.4391 48.1841Z" fill="url(#paint2_linear_798_5637)"/>
<path d="M90.8433 48.8318C82.5 40.7588 81.2504 28.2384 82.5673 17.2746L82.7211 15.892C83.4612 12.5952 79.5972 10.1104 76.9827 12.2761C76.3098 12.8175 75.8773 13.5717 75.7043 14.4418C75.1756 16.6752 74.7046 18.9182 74.4259 21.1999C74.4931 23.2882 72.3497 25.0672 70.3119 24.4388C60.4307 22.3504 57.6144 14.2581 57.9796 5.01525C58.0469 1.86341 53.6542 0.819234 52.3566 3.71004C51.9048 4.81222 52.0297 6.35914 51.9625 7.558C52.0201 11.6187 52.8179 15.689 54.3847 19.4209C56.6916 25.0672 61.2381 29.5436 66.8516 31.7576C67.2553 31.8833 69.6198 32.6471 70.0716 32.7921C72.5803 33.5559 74.4163 35.77 75.041 38.245C76.3675 43.0405 78.7032 47.4975 81.5676 51.5485C82.5961 52.9021 83.5381 54.507 84.9607 55.4255C90.007 58.732 95.0534 53.3178 90.8337 48.8318H90.8433ZM92.0256 47.5362C94.4478 49.6729 94.8996 53.7529 92.708 56.2473C89.7571 59.6505 84.1052 58.2196 81.8079 54.8261C78.3188 50.427 75.5216 45.4285 73.8395 40.0433C73.3301 37.6263 72.119 35.0448 69.591 34.31L66.9477 33.4399C60.6902 31.2355 55.567 26.121 53.1159 19.9624C51.5107 16.0274 50.7321 11.8024 50.7129 7.56767C50.8186 6.14644 50.6744 4.57051 51.2608 3.21696C53.1447 -0.795362 59.1715 0.596864 59.0658 5.05393C58.8159 10.7389 59.5368 17.3713 64.3909 21.0259C65.8038 22.1087 67.4571 22.8725 69.1777 23.4139C69.9851 23.6363 70.8502 24.0134 71.696 23.849C72.9841 23.6073 73.8107 22.4568 73.8299 21.1419L74.0222 19.7593C74.3105 17.932 74.695 16.1144 75.1275 14.3161C75.3102 13.3783 75.8388 12.4405 76.6078 11.8217C79.6356 9.31762 84.2013 12.1408 83.4324 15.9887C82.1732 26.9622 83.6631 39.6469 92.0256 47.5362Z" fill="black"/>
<path d="M64.1123 63.4888C64.1123 63.4888 56.1727 74.9843 52.1644 93.412C50.5785 100.731 47.9928 107.818 44.2729 114.305C40.9279 120.135 36.5256 125.868 31.4504 127.725C29.826 128.324 29.1532 130.258 30.1336 131.689C32.2482 134.782 38.6018 138.282 57.576 134.077C57.576 134.077 77.7422 130.267 83.7209 120.27C83.7209 120.27 83.9996 82.8446 64.1026 63.4888H64.1123Z" fill="url(#paint3_linear_798_5637)"/>
<path d="M64.1314 63.7016C64.1314 63.7016 64.1891 63.7499 64.1987 63.7402C64.2083 63.7402 64.1603 63.7983 64.141 63.8273L63.9969 64.0496C59.7003 71.2621 56.6052 79.1611 54.3848 87.2438C52.3855 95.6455 50.6457 104.26 46.5798 112.004C43.1867 118.424 39.2073 125.375 32.3347 128.566L31.8157 128.788C31.1428 129.04 30.6718 129.823 30.8545 130.519C31.8829 132.772 34.4974 133.69 36.7947 134.251C45.0034 135.759 53.5774 133.748 61.5938 131.756C69.2739 129.707 78.6841 125.839 83.221 120.261C82.6923 100.267 78.2323 78.61 64.1314 63.7016ZM64.093 63.2665C75.416 74.0369 80.3374 89.8058 82.8461 104.888C83.6439 110.022 84.163 115.185 84.2399 120.416C83.8266 121.092 83.4228 121.788 82.9903 122.465C74.8297 132.743 57.6048 136.165 45.138 137.161C40.0532 137.325 33.9784 137.219 30.047 133.361C27.8074 131.418 28.1535 127.763 31.0275 126.681C41.1682 122.426 48.3676 105.478 50.9629 95.2491C53.414 84.382 57.3069 73.6502 63.3336 64.2527L63.6316 63.7983L63.7854 63.5759L63.8815 63.4405C63.9392 63.3632 64.0257 63.2955 64.1026 63.2568L64.093 63.2665Z" fill="black"/>
<path d="M154.456 70.0244C154.245 69.0963 153.899 68.2068 153.399 67.385C150.16 61.9804 136.28 42.3442 105.319 40.952C105.319 40.952 81.0201 40.1689 62.8629 61.236C60.6137 63.8464 58.9028 66.8726 57.8166 70.1501C56.9419 72.7895 55.9615 75.9124 55.7212 77.3916C54.8753 82.4964 54.164 83.2699 51.0689 86.2961C47.9738 89.3319 47.4836 103.699 50.473 111.066C50.473 111.066 57.6147 133.903 83.9999 146.104C83.9999 146.104 85.1918 147.477 85.8358 150.88C86.3933 153.8 87.6332 156.546 89.6037 158.769L89.6998 158.876C94.3617 164.125 102.224 164.967 107.876 160.819C109.683 159.494 110.894 157.464 111.058 155.221C111.308 151.75 112.711 146.52 118.632 144.924C118.632 144.924 138.914 139.694 144.566 130.006C147.093 125.675 150.467 121.904 154.802 119.419L155.168 119.207C164.261 118.897 164.712 115.485 162.694 106.561L154.437 70.0051L154.456 70.0244Z" fill="url(#paint4_linear_798_5637)"/>
<path d="M153.956 70.1405C153.053 66.9597 150.659 64.4362 148.612 61.9322C141.932 54.536 133.435 48.7834 124.044 45.4768C117.805 43.2821 111.135 42.1219 104.57 41.8029C89.6516 42.2283 74.8587 48.9574 64.7275 60.0275C61.075 63.5274 58.7969 68.0618 57.4993 72.9346C56.2497 76.2412 56.3458 79.5864 54.8271 82.8253C53.9524 84.4592 52.6259 85.658 51.5013 86.8569C49.7423 89.303 49.5309 93.0639 49.3674 96.1094C49.0214 103.187 50.5305 110.109 53.9332 116.277C60.2003 127.957 70.0046 137.722 81.5102 144.18L84.2112 145.659L84.3362 145.727L84.3746 145.785C85.7203 147.632 86.0567 149.797 86.4989 151.895C86.9795 153.887 87.8157 155.792 88.998 157.464C91.353 160.848 95.2458 163.062 99.3598 163.217C103.32 163.381 107.876 161.699 109.943 158.16C111.029 156.294 110.664 154.109 111.231 152.089C111.75 150.02 112.721 147.931 114.412 146.442C115.979 144.915 118.267 144.228 120.237 143.59C122.188 142.904 124.121 142.188 126.033 141.405C130.791 139.443 135.482 137.344 139.654 134.357C140.846 133.419 142.009 132.433 143.008 131.283C143.921 130.084 144.825 128.701 145.69 127.454C148.17 123.993 151.294 120.899 155.071 118.868C157.301 118.743 159.791 118.656 161.636 117.331C165.029 114.576 162.434 108.059 161.848 104.376L160.281 97.5307L153.956 70.1792V70.1405ZM154.946 69.9181C156.081 74.994 161.483 99.677 162.521 104.182C164.385 112.449 166.644 119.487 155.196 119.613C152.409 121.17 148.516 124.631 146.43 127.937C145.623 129.204 144.767 130.693 143.921 131.969C138.269 139.181 129.321 142.875 120.747 145.224C116.537 145.93 113.153 147.922 111.932 152.263C111.634 153.239 111.433 154.254 111.346 155.289C111.144 157.454 109.972 159.465 108.28 160.8C102.272 165.537 92.8717 164.155 88.4501 157.87C86.422 155.356 85.6915 152.098 84.9225 149.072C84.6149 148.125 84.1728 147.138 83.6345 146.442L83.8075 146.568C76.1659 143.174 68.8992 138.717 63.0358 132.655C57.1725 126.564 52.3472 119.449 49.5116 111.385C47.8487 106.793 47.4258 101.118 47.743 96.0224C48.0602 92.5805 48.3005 88.6939 50.5594 85.8998C51.7705 84.6816 53.0393 83.6084 53.7698 82.2355C54.5099 80.8626 54.8175 79.2093 55.1251 77.5657C55.8556 74.1528 56.9129 71.001 58.2009 67.7621C60.5463 62.1932 65.0832 57.9102 69.4951 53.9752C79.3859 45.8249 91.7182 40.7007 104.57 40.1206C118.238 40.43 132.012 44.7324 142.518 53.6755C145.104 55.9282 147.516 58.3743 149.66 61.0524C151.678 63.8078 154.139 66.5149 154.966 69.9181H154.946Z" fill="black"/>
<path d="M151.668 65.0261C151.668 65.0261 169.412 102.655 219.068 129.33C221 130.374 221.529 132.926 220.125 134.628C216.271 139.278 206.918 146.858 186.906 146.587C186.906 146.587 174.574 146.027 163.212 141.057C160.396 139.829 157.983 137.838 156.244 135.305C153.158 130.819 148.669 122.214 146.555 108.108" fill="url(#paint5_linear_798_5637)"/>
<path d="M152.245 64.7555C164.424 86.422 182.879 104.144 203.208 118.086C204.89 119.178 209.379 122.059 211.023 123.103C212.792 124.109 217.28 126.681 219.087 127.705C222.221 129.04 223.451 132.917 221.144 135.614C215.694 142.072 207.447 145.659 199.315 147.042C186.752 149.304 173.67 146.984 162.097 141.715C158.099 139.781 155.35 136.136 153.379 132.269C151.37 128.527 149.89 124.544 148.766 120.493C147.631 116.442 146.862 112.304 146.382 108.147C146.372 108.04 146.439 107.953 146.545 107.944C146.641 107.934 146.728 108.002 146.747 108.098C147.535 112.188 148.516 116.239 149.842 120.164C151.169 124.09 152.831 127.889 154.869 131.437C156.84 134.966 159.329 138.147 163.039 139.8C174.276 144.393 186.801 146.539 198.825 144.257C205.188 143.097 211.494 140.729 216.415 136.436C217.367 135.537 218.549 134.483 219.28 133.4C219.828 132.453 219.424 131.099 218.434 130.596L217.761 130.209L212.311 127.087C192.491 115.543 174.622 99.9769 161.021 81.4042C157.34 76.3477 153.85 70.9818 151.111 65.3162C150.957 64.9972 151.092 64.6201 151.409 64.4654C151.726 64.3107 152.111 64.4461 152.255 64.7651L152.245 64.7555Z" fill="black"/>
<path d="M79.6357 143.01C83.1826 145.746 87.979 146.858 92.3813 145.978C92.6024 145.94 92.6793 146.297 92.4486 146.336C89.0363 147.177 85.3741 146.877 82.1349 145.514C81.0391 145.06 80.0106 144.528 79.0013 143.803C78.7706 143.638 78.7226 143.319 78.886 143.087C79.059 142.836 79.4147 142.807 79.6357 143V143.01Z" fill="black"/>
<path d="M94.5151 93.6343C93.0829 101.659 97.764 110.921 105.752 112.362C113.73 113.802 121.986 106.88 123.419 98.8552C124.851 90.8305 120.17 81.5297 112.192 80.0891C104.214 78.6485 95.9473 85.6097 94.5151 93.6343Z" fill="white"/>
<path d="M95.5439 93.818C93.0543 106.851 105.521 118.298 116.931 108.62C123.294 103.486 124.803 94.4368 120.679 87.4466C113.634 75.1583 98.0814 81.8681 95.5439 93.818ZM93.4965 93.4506C95.1017 82.6705 108.751 74.3172 117.998 81.7714C126.581 88.7905 126.456 102.722 117.546 109.384C105.194 118.859 91.5741 107.711 93.4965 93.4603V93.4506Z" fill="black"/>
<path d="M107.19 89.5626C107.735 86.5091 106.766 83.779 105.026 83.4647C103.286 83.1505 101.434 85.3711 100.889 88.4246C100.344 91.478 101.312 94.2081 103.052 94.5224C104.792 94.8367 106.645 92.6161 107.19 89.5626Z" fill="#429195"/>
<path d="M57.8358 87.0117C56.4036 95.0363 59.0565 103.467 63.9683 104.356C68.88 105.246 74.1859 98.2558 75.6181 90.2312C77.0503 82.2065 74.3109 74.2302 69.3991 73.3408C64.4873 72.4513 59.2584 78.987 57.8262 87.0117H57.8358Z" fill="white"/>
<path d="M58.3932 87.1083C57.4704 92.1358 57.9126 102.326 63.8529 103.912C67.0248 104.511 69.7066 101.794 71.3695 99.3386C75.5892 92.8416 76.7907 83.5601 72.7248 76.7536C71.1196 74.0658 67.9476 73.2344 65.3523 75.0617C61.421 77.7301 59.3352 82.5159 58.3836 87.0986L58.3932 87.1083ZM57.2782 86.9053C58.249 80.9786 62.4976 71.5038 69.7931 72.5673C73.5322 73.4277 75.4546 77.179 76.262 80.5532C77.973 88.6456 75.4354 98.5072 68.6781 103.573C63.2281 107.325 58.8642 102.084 57.5858 96.9409C56.7591 93.6537 56.7207 90.2215 57.2782 86.8956V86.9053Z" fill="black"/>
<path d="M68.9061 82.6488C69.4512 79.5953 68.4826 76.8652 66.7427 76.5509C65.0027 76.2367 63.1503 78.4572 62.6052 81.5107C62.0601 84.5642 63.0287 87.2943 64.7686 87.6086C66.5085 87.9228 68.3609 85.7023 68.9061 82.6488Z" fill="#429195"/>
<path d="M77.319 59.7859C75.2909 59.9503 73.5319 59.0898 71.5037 59.2252C69.5525 59.2058 67.5147 59.5152 65.6019 59.96C65.3232 60.0373 65.0348 59.8536 64.9771 59.5732C64.9291 59.3412 65.0444 59.0995 65.2559 59.0028C68.1587 57.5719 71.5037 57.0111 74.7238 57.5139C75.8003 57.6879 76.9345 57.862 77.7612 58.8675C78.0688 59.2252 77.7804 59.7859 77.319 59.7859Z" fill="black"/>
<path d="M111.163 64.2623C113.22 63.5662 114.921 64.8231 116.757 65.4419C120.227 66.9598 123.467 69.0578 126.225 71.6682C127.609 72.9541 128.849 74.385 129.984 75.8836C130.157 76.1059 130.109 76.425 129.887 76.599C129.676 76.7634 129.388 76.7247 129.215 76.5507C124.755 72.1033 119.372 68.5454 113.393 66.573C112.701 66.4667 109.75 65.2098 111.173 64.272L111.163 64.2623Z" fill="black"/>
<path d="M83.3557 105.894C81.1161 104.666 77.2616 102.819 74.6375 103.042C73.1861 103.158 72.0807 104.424 72.1384 105.894C72.1864 107.247 72.5998 109.365 74.4645 110.689C75.368 111.327 76.4638 111.608 77.5692 111.617C79.2033 111.637 81.7793 111.211 83.8651 108.833C84.6725 107.914 84.4322 106.483 83.3557 105.894Z" fill="black"/>
<path d="M101.994 126.1C95.0537 127.725 87.2583 127.029 81.318 122.775C79.5494 121.605 77.0118 119.091 76.3198 117.795C74.9548 116.877 75.397 115.214 75.224 113.918C75.099 112.623 75.1182 111.405 76.1852 110.428C76.4543 110.186 76.8676 110.216 77.0983 110.486C78.1941 112.227 76.9061 113.86 76.339 115.475C76.2429 116.065 76.512 116.693 77.0022 117.032C80.8663 122.852 87.9888 126.081 94.8807 125.965C97.1972 125.946 99.5041 125.636 101.763 125.105C102.397 124.95 102.657 125.955 101.994 126.1Z" fill="black"/>
<path d="M139.509 56.8662C144.238 54.9229 154.148 48.6385 158.589 29.1957C159.05 27.1653 161.03 25.8795 163.068 26.2469C165.096 26.6143 166.49 28.4996 166.25 30.5589C165.981 32.8309 165.558 35.7411 164.971 38.0228C164.529 39.7341 165.702 41.4357 167.451 41.6484C173.805 42.4025 186.743 42.1898 190.991 29.0313C191.539 27.349 193.231 26.3145 194.961 26.6239C196.932 26.9817 198.22 28.9153 197.777 30.878C196.201 37.8101 189.944 52.0804 165.106 50.7269C162.713 50.5915 160.425 51.713 159.041 53.6757C156.859 56.7695 152.668 61.565 145.43 65.9157C143.488 67.0855 141.076 67.3369 139.009 66.3991C137.644 65.7803 136.404 64.6685 136.097 62.6962C135.712 60.2114 137.193 57.8137 139.509 56.8662Z" fill="url(#paint6_linear_798_5637)"/>
<path d="M139.23 56.1796C150.005 51.6936 155.705 40.0433 158.272 29.1666C159.473 24.1971 166.769 25.2026 166.596 30.3171C166.394 33.2079 165.683 36.0697 165.26 38.8831C165.577 42.122 169.739 41.2809 172.036 41.4452C180.457 41.3775 187.81 37.2105 190.328 28.8185C192.106 23.6267 199.7 25.7827 198.537 31.1679C196.393 41.2519 188.675 48.3677 178.832 50.6494C174.978 51.5969 171.008 51.9933 167.096 51.8289C164.433 51.6452 161.79 51.7806 160.108 54.0429C156.369 59.2831 151.37 63.5082 145.863 66.7277C142.633 68.7097 137.558 68.1006 135.78 64.417C134.271 61.2845 136.106 57.3398 139.24 56.17L139.23 56.1796ZM139.788 57.5622C137.443 58.5 136.116 61.4198 137.26 63.7112C138.673 66.3893 142.527 66.6697 144.921 65.1421L146.122 64.388C150.88 61.2845 155.186 57.4075 158.426 52.7281C159.791 50.9588 161.924 49.8276 164.145 49.6632C165.337 49.6246 166.154 49.6826 167.134 49.6826C170.921 49.8179 174.699 49.4602 178.342 48.6384C187.56 46.6371 194.74 40.1013 196.951 30.8005C197.806 27.3199 192.837 25.8794 191.635 29.2536C188.742 38.1194 181.004 42.3637 172.046 42.3154C169.297 42.2187 164.75 42.7504 164.491 38.9315C164.895 36.031 165.702 33.2079 165.923 30.2881C165.981 29.3986 165.683 28.4994 165.125 27.813C163.376 25.512 159.406 26.4691 158.887 29.3212C156.301 40.5654 150.899 52.6217 139.788 57.5719V57.5622Z" fill="black"/>
<path d="M102.837 86.9727C103.187 86.9727 103.471 86.687 103.471 86.3346C103.471 85.9822 103.187 85.6965 102.837 85.6965C102.487 85.6965 102.203 85.9822 102.203 86.3346C102.203 86.687 102.487 86.9727 102.837 86.9727Z" fill="white"/>
<path d="M64.3019 80.0213C64.6522 80.0213 64.9363 79.7356 64.9363 79.3832C64.9363 79.0308 64.6522 78.7451 64.3019 78.7451C63.9515 78.7451 63.6675 79.0308 63.6675 79.3832C63.6675 79.7356 63.9515 80.0213 64.3019 80.0213Z" fill="white"/>
<path d="M73.9069 105.294C74.2572 105.294 74.5413 105.009 74.5413 104.656C74.5413 104.304 74.2572 104.018 73.9069 104.018C73.5565 104.018 73.2725 104.304 73.2725 104.656C73.2725 105.009 73.5565 105.294 73.9069 105.294Z" fill="white"/>
<path d="M76.1562 111.095C76.1562 111.095 76.4253 114.228 75.4449 115.929C75.4449 115.929 71.4367 121.208 66.1885 118.888C66.1885 118.888 69.2163 129.987 80.8757 131.872C80.8757 131.872 90.8242 133.999 101.359 126.178C101.397 126.149 101.378 126.091 101.33 126.1C99.3309 126.584 82.875 130.084 75.9351 115.775" fill="black"/>
<path d="M76.1562 111.095C76.1562 111.095 76.4253 114.228 75.4449 115.929C75.4449 115.929 71.4367 121.208 66.1885 118.888C66.1885 118.888 69.2163 129.987 80.8757 131.872C80.8757 131.872 90.8242 133.999 101.359 126.178C101.397 126.149 101.378 126.091 101.33 126.1C99.3309 126.584 82.875 130.084 75.9351 115.775" stroke="black" stroke-miterlimit="10" stroke-linecap="round"/>
<path d="M76.627 129.91C76.627 129.91 80.6736 124.756 86.3736 126.062C86.3736 126.062 91.3622 127 93.9383 129.465C93.9383 129.465 85.2105 133.632 76.627 129.91Z" fill="#FF5C5C"/>
<path d="M71.8213 201.252C71.8213 201.252 75.099 194.832 76.4639 192.869L71.8213 201.252Z" fill="#D1744E"/>
<path d="M71.3693 201.02C72.9457 198.206 74.4355 195.393 76.2618 192.724C76.3387 192.618 76.4925 192.589 76.6079 192.666C76.7136 192.744 76.7424 192.898 76.6655 193.005C75.0219 195.712 73.6666 198.632 72.2728 201.484C71.9749 202.102 71.0425 201.629 71.3693 201.02Z" fill="black"/>
<path d="M107.751 178.444C107.751 178.444 109.568 182.553 110.961 184.207C110.961 184.207 118.632 191.767 118.699 199.202C118.699 199.202 117.68 207.072 135.645 233.07C136.77 234.694 136.577 236.908 135.174 238.31C130.705 242.758 121.294 253.064 116.085 265.584C115.815 266.222 115.94 266.967 116.392 267.479C116.786 267.924 117.363 268.494 118.161 269.104C116.248 269.297 114.364 269.722 114.153 270.583C114.153 270.583 112.047 274.933 111.682 279.371C111.009 278.346 110.375 277.186 109.808 275.881C109.414 274.982 109.231 274.005 109.25 273.019C109.327 268.427 110.538 254.05 121.833 238.678C122.669 237.546 122.871 236.067 122.361 234.752C120.458 229.879 115.046 217.804 105.117 208.368" fill="url(#paint7_linear_798_5637)"/>
<path d="M108.405 178.154C109.212 180.097 110.106 182.205 111.365 183.868C113.192 185.831 115.124 188.345 116.546 190.829C117.959 193.372 119.103 196.166 119.228 199.202C119.209 200.749 119.747 202.508 120.266 204.017C122.256 209.576 125.312 214.719 128.282 219.795C130.926 224.117 133.733 228.458 136.597 232.644C138.125 234.887 137.347 238.039 135.319 239.644C133.848 241.133 132.406 242.699 131.022 244.275C126.562 249.322 122.592 254.823 119.343 260.731C118.411 262.51 117.402 264.308 116.729 266.193C116.661 266.86 117.229 267.237 117.68 267.721C118.276 268.32 119.362 269.084 120.006 269.625C118.44 269.877 116.085 269.78 114.854 270.757C113.701 273.328 112.653 276.49 112.403 279.429L112.211 281.363C110.366 278.723 108.088 275.803 108.337 272.4C108.559 261.33 112.48 250.511 118.459 241.297C119.113 240.263 119.93 239.17 120.622 238.155C121.266 237.363 121.564 236.251 121.189 235.274C117.354 225.529 112.009 216.363 104.858 208.667C104.521 208.329 105.031 207.749 105.406 208.087C110.529 212.428 114.778 217.784 118.238 223.576C119.968 226.476 121.525 229.473 122.861 232.586L123.351 233.756C124.313 235.671 124.072 238.049 122.727 239.712C116.315 248.626 111.75 259.058 110.452 270.032C110.318 271.569 110.01 273.174 110.337 274.692C110.721 276.103 111.538 277.669 112.298 278.984L110.981 279.323C111.211 276.393 112.423 272.545 113.47 270.418C113.711 269.654 114.239 269.393 114.624 269.19C115.739 268.678 116.931 268.523 118.103 268.388L117.748 269.683C116.969 269.084 116.354 268.591 115.7 267.798C114.96 266.841 115.133 265.623 115.662 264.627C116.325 263.032 117.046 261.465 117.834 259.928C120.977 253.779 125.024 248.143 129.494 242.922C130.878 241.297 132.377 239.712 133.867 238.184C135.232 237.092 135.866 235.294 134.876 233.776C129.58 226.002 124.409 218.055 120.843 209.296C119.862 206.898 119.007 204.423 118.469 201.87C118.017 199.647 118.344 197.423 117.517 195.132C116.133 191.139 113.566 187.561 110.616 184.593C110.212 184.139 109.885 183.636 109.568 183.153C108.655 181.731 107.886 180.252 107.117 178.744C106.934 178.386 107.078 177.951 107.434 177.777C107.809 177.584 108.28 177.767 108.434 178.164L108.405 178.154Z" fill="black"/>
<path d="M110.5 169.714C110.5 169.714 106.55 163.033 110.222 159.572C110.981 158.856 111.644 158.054 112.058 157.097C112.067 157.068 112.077 157.039 112.096 157.02C113.086 154.66 111.423 152.021 108.886 151.847C107.713 151.77 106.098 151.895 104.003 152.591C100.879 153.626 97.4664 153.529 94.5155 152.069C93.3717 151.509 92.1509 150.735 90.8822 149.691C90.0075 148.966 89.0174 148.386 87.9505 147.989C86.0088 147.284 83.5385 147.119 83.5578 150.929C83.5578 150.929 83.0003 154.303 84.5862 158.228C85.682 160.935 85.4321 164.029 83.7212 166.398C83.3078 166.968 82.8176 167.587 82.2313 168.225C82.2313 168.225 78.8767 171.754 88.6329 176.936C88.6329 176.936 93.6312 180.001 99.8022 179.924C103.041 179.885 106.213 178.763 108.597 176.559C110.385 174.906 111.846 172.547 110.491 169.714H110.5Z" fill="url(#paint8_linear_798_5637)"/>
<path d="M109.77 170.12C108.309 167.268 107.03 163.459 108.76 160.355C109.289 159.369 110.221 158.779 110.856 157.909C112.096 156.43 112.125 154.332 110.625 153.094C109.126 151.886 106.828 152.379 105.04 152.785C103.099 153.423 100.859 153.887 98.7158 153.665C96.5626 153.5 94.4672 152.678 92.6794 151.499C90.9108 150.387 89.4882 148.83 87.4504 148.279C85.0762 147.506 83.9612 148.589 84.0285 151.015C83.7594 153.355 84.1919 155.84 85.0955 158.044C86.3835 161.041 85.9798 164.88 83.7786 167.384C83.6152 167.597 83.0481 168.302 82.8847 168.515C81.3467 170.458 83.7882 172.817 85.4127 173.987C91.7374 178.618 101.744 181.673 108.164 175.747C109.789 174.306 110.779 172.15 109.779 170.12H109.77ZM111.25 169.327C112.711 171.957 111.49 175.244 109.414 177.071C105.579 180.881 99.677 181.548 94.6979 180.223C90.4302 179.343 77.5788 173.243 81.9043 167.616C82.0869 167.413 82.5867 166.794 82.7693 166.581C84.7783 164.425 85.1916 161.177 84.115 158.441C83.1923 156.149 82.8174 153.123 83.1154 150.938C83.0289 145.843 87.6619 146.742 90.6032 148.956C94.6018 152.611 99.7058 153.935 104.791 151.866C106.876 151.325 109.433 150.783 111.308 152.224C113.345 153.732 113.451 156.787 111.894 158.692C111.336 159.553 110.423 160.181 109.962 161.061C108.645 163.71 109.885 166.833 111.24 169.327H111.25Z" fill="black"/>
<path d="M84.9417 157.851C87.5274 159.05 90.065 160.703 92.6218 162.028C95.3516 163.401 97.6873 165.595 99.4079 168.09C99.6098 168.37 99.1964 168.718 98.9561 168.457C96.9088 166.378 94.6211 164.561 91.9393 163.42C89.2191 162.057 86.2874 160.974 84.2497 158.586C83.894 158.131 84.4611 157.532 84.9417 157.841V157.851Z" fill="black"/>
<path d="M102.964 170.507C99.4944 177.042 87.2582 170.362 83.9421 166.359C83.7402 166.108 84.1055 165.769 84.3265 166.011C86.8257 168.312 90.0938 169.598 93.2369 170.777C96.1302 171.938 99.7059 172.237 102.061 170.023C102.407 169.511 103.214 169.927 102.955 170.507H102.964Z" fill="black"/>
<path d="M110.048 169.781C107.059 165.44 104.56 159.959 99.1098 158.325C98.8407 158.257 98.9272 157.822 99.2059 157.87C102.08 158.257 104.55 160.084 106.482 162.153C108.328 164.309 110.26 166.533 110.971 169.366C111.096 169.897 110.356 170.226 110.048 169.781Z" fill="black"/>
</g>
</g>
<defs>
<linearGradient id="paint0_linear_798_5637" x1="38.7664" y1="278.725" x2="73.9587" y2="126.449" gradientUnits="userSpaceOnUse">
<stop stop-color="#643C3B"/>
<stop offset="0.03" stop-color="#72453D"/>
<stop offset="0.12" stop-color="#996044"/>
<stop offset="0.22" stop-color="#B87449"/>
<stop offset="0.3" stop-color="#CF834D"/>
<stop offset="0.39" stop-color="#DC8C50"/>
<stop offset="0.47" stop-color="#E19051"/>
</linearGradient>
<linearGradient id="paint1_linear_798_5637" x1="131.066" y1="198.552" x2="127.237" y2="150.296" gradientUnits="userSpaceOnUse">
<stop stop-color="#487E50"/>
<stop offset="0.07" stop-color="#518A58"/>
<stop offset="0.21" stop-color="#61A167"/>
<stop offset="0.34" stop-color="#6AAE6F"/>
<stop offset="0.47" stop-color="#6EB373"/>
</linearGradient>
<linearGradient id="paint2_linear_798_5637" x1="68.0697" y1="52.8984" x2="76.9318" y2="3.83264" gradientUnits="userSpaceOnUse">
<stop offset="0.56" stop-color="#F9E9B3"/>
<stop offset="0.61" stop-color="#F3D9A5"/>
<stop offset="0.79" stop-color="#E1A276"/>
<stop offset="0.93" stop-color="#D58059"/>
<stop offset="1" stop-color="#D1744E"/>
</linearGradient>
<linearGradient id="paint3_linear_798_5637" x1="59.7466" y1="137.258" x2="49.1705" y2="81.3434" gradientUnits="userSpaceOnUse">
<stop stop-color="#643C3B"/>
<stop offset="0.03" stop-color="#72453D"/>
<stop offset="0.12" stop-color="#996044"/>
<stop offset="0.22" stop-color="#B87449"/>
<stop offset="0.3" stop-color="#CF834D"/>
<stop offset="0.39" stop-color="#DC8C50"/>
<stop offset="0.47" stop-color="#E19051"/>
</linearGradient>
<linearGradient id="paint4_linear_798_5637" x1="97.1012" y1="154.661" x2="117.789" y2="40.1206" gradientUnits="userSpaceOnUse">
<stop stop-color="#643C3B"/>
<stop offset="0.02" stop-color="#7C4C3F"/>
<stop offset="0.05" stop-color="#9B6144"/>
<stop offset="0.08" stop-color="#B47249"/>
<stop offset="0.11" stop-color="#C87F4C"/>
<stop offset="0.15" stop-color="#D6884F"/>
<stop offset="0.2" stop-color="#DE8E50"/>
<stop offset="0.28" stop-color="#E19051"/>
</linearGradient>
<linearGradient id="paint5_linear_798_5637" x1="182.568" y1="156.087" x2="185.088" y2="80.5532" gradientUnits="userSpaceOnUse">
<stop stop-color="#643C3B"/>
<stop offset="0.06" stop-color="#835140"/>
<stop offset="0.15" stop-color="#A56746"/>
<stop offset="0.23" stop-color="#BF794B"/>
<stop offset="0.32" stop-color="#D2864E"/>
<stop offset="0.41" stop-color="#DD8D50"/>
<stop offset="0.51" stop-color="#E19051"/>
</linearGradient>
<linearGradient id="paint6_linear_798_5637" x1="161.622" y1="75.7876" x2="171.525" y2="20.9572" gradientUnits="userSpaceOnUse">
<stop offset="0.56" stop-color="#F9E9B3"/>
<stop offset="0.61" stop-color="#F3D9A5"/>
<stop offset="0.79" stop-color="#E1A276"/>
<stop offset="0.93" stop-color="#D58059"/>
<stop offset="1" stop-color="#D1744E"/>
</linearGradient>
<linearGradient id="paint7_linear_798_5637" x1="105.686" y1="272.192" x2="116.082" y2="231.466" gradientUnits="userSpaceOnUse">
<stop stop-color="#643C3B"/>
<stop offset="0.03" stop-color="#72453D"/>
<stop offset="0.12" stop-color="#996044"/>
<stop offset="0.22" stop-color="#B87449"/>
<stop offset="0.3" stop-color="#CF834D"/>
<stop offset="0.39" stop-color="#DC8C50"/>
<stop offset="0.47" stop-color="#E19051"/>
</linearGradient>
<linearGradient id="paint8_linear_798_5637" x1="93.7033" y1="180.282" x2="99.5923" y2="149.561" gradientUnits="userSpaceOnUse">
<stop stop-color="#487E50"/>
<stop offset="0.07" stop-color="#518A58"/>
<stop offset="0.21" stop-color="#61A167"/>
<stop offset="0.34" stop-color="#6AAE6F"/>
<stop offset="0.47" stop-color="#6EB373"/>
</linearGradient>
<clipPath id="clip0_798_5637">
<rect width="223" height="204" fill="white" transform="translate(0 0.5)"/>
</clipPath>
</defs>
</svg>
