<svg width="163" height="150" viewBox="0 0 163 150" fill="none" xmlns="http://www.w3.org/2000/svg">
<g clip-path="url(#clip0_706_2193)">
<mask id="mask0_706_2193" style="mask-type:luminance" maskUnits="userSpaceOnUse" x="-31" y="-9" width="199" height="159">
<path d="M167.216 -8.43018H-30.9559V149.863H167.216V-8.43018Z" fill="white"/>
</mask>
<g mask="url(#mask0_706_2193)">
<path d="M7.11722 88.5682C7.96735 88.0668 9.05636 87.4948 10.0962 87.1205C10.3702 87.0217 10.6512 87.2618 10.6021 87.5513C10.5318 87.9397 10.3913 88.3069 10.1664 88.6246C9.34442 89.7757 8.92287 91.3716 8.85261 91.6753C8.84558 91.7106 8.82451 91.7459 8.84559 91.7741C17.5647 103.285 21.3376 103.546 31.7499 114.364C32.6281 115.282 32.5157 115.148 33.5485 115.882C41.2137 121.334 45.1552 121.595 48.6682 122.118C50.53 122.4 53.0102 122.958 53.7971 122.824C57.584 122.188 61.1742 124.06 61.1742 124.06C61.8136 123.735 62.1157 125.091 62.1157 125.091L78.4087 128.763C79.8138 130.726 79.1253 144.623 78.767 150.456C78.6756 151.953 78.7389 153.443 78.9918 154.919C80.9169 166.069 82.0621 200.841 82.0621 200.841C82.0621 201.137 82.0621 201.427 82.0551 201.723C67.5677 211.984 42.1271 205.007 35.572 200.523C35.6984 197.804 36.0497 195.1 36.6048 192.437C36.8788 191.117 37.1247 189.754 37.2582 189.295C45.9843 158.732 53.6074 145.153 53.6074 145.153C57.0149 139.475 48.6893 131.905 41.3051 128.735C40.0755 128.205 26.628 121.511 25.5952 120.649C17.0377 113.496 2.15696 92.2331 2.00239 91.2304C2.00239 91.2021 1.98834 91.181 1.98132 91.1527C1.74244 90.609 1.54571 90.0582 1.37007 89.5144C1.28576 89.239 1.52464 88.9707 1.8127 89.0272C2.25533 89.119 2.73308 89.2037 3.19679 89.2884C4.55278 89.5215 5.93688 89.2672 7.12425 88.5752L7.11722 88.5682Z" fill="url(#paint0_linear_706_2193)"/>
<path d="M6.96263 88.2927C7.77763 87.8055 8.65586 87.3677 9.53409 87.0005C9.77297 86.9157 9.85728 86.8522 10.1453 86.7886C10.588 86.7321 10.9814 87.1487 10.9041 87.5936C10.7636 88.5823 10.0189 89.1966 9.70271 90.0793C9.45681 90.6372 9.27413 91.2092 9.11957 91.7953C9.11957 91.7953 9.11957 91.7882 9.11957 91.7388C9.11957 91.7176 9.11957 91.6823 9.10551 91.647C9.09849 91.6117 9.05633 91.5693 9.07038 91.5905L9.11254 91.647L9.28819 91.873C12.0142 95.5026 15.0634 98.8569 18.5202 101.787C21.998 104.718 25.6374 107.458 28.9325 110.622C30.2885 111.9 31.6304 113.298 32.9443 114.597C36.1972 117.019 39.6329 119.427 43.4901 120.762C46.3285 121.708 49.4059 121.991 52.3427 122.492C53.1296 122.612 53.7408 122.563 54.5277 122.323C56.8533 121.8 59.3685 122.429 61.2796 123.82H61.0407C61.7854 123.452 62.2632 124.441 62.3897 125.027L62.1719 124.808L78.4648 128.459L78.5913 128.487C79.4414 129.935 79.336 131.623 79.4765 133.226C79.6452 137.816 79.4203 142.399 79.1885 146.975C79.0901 149.256 78.8021 151.522 79.0691 153.789C79.6522 157.553 80.1721 161.352 80.4953 165.144C81.5913 177.403 82.8068 189.683 82.5328 201.999C79.0128 204.322 75.1275 206.073 71.0525 207.14C67.0197 208.086 62.8393 208.051 58.7362 207.803C54.6331 207.535 50.5862 206.78 46.6447 205.685C42.7032 204.548 38.7757 203.206 35.3541 200.848C35.0028 200.149 35.2558 200.636 35.1785 200.466V200.431V200.361L35.1925 200.219L35.2136 199.937C35.586 195.615 36.3167 191.237 37.5813 187.071C39.6891 179.811 42.0147 172.622 44.6072 165.519C46.6869 159.841 48.9562 154.234 51.4715 148.726C52.1108 147.363 52.7713 145.979 53.4598 144.644C54.8017 141.933 53.2701 138.939 51.4715 136.82C46.6025 131.008 39.0919 128.685 32.6421 125.168C30.4852 124.003 27.0706 122.436 25.0823 121.052C22.6162 118.926 20.4804 116.483 18.3937 114.039C12.6325 107.013 7.20151 99.7749 2.17099 92.2119C1.69323 91.4775 1.43327 90.6442 1.13819 89.811L1.09603 89.6768L1.07495 89.6062C1.06793 89.5709 1.05387 89.5285 1.04685 89.4861C0.983615 89.0342 1.40517 88.6317 1.8478 88.7164L1.99534 88.7447L2.26935 88.7941L2.81737 88.9C4.24362 89.239 5.71905 89.0342 6.96263 88.2998V88.2927ZM7.27879 88.8365C5.74012 89.7898 3.83612 89.8322 2.14991 89.4014L1.86888 89.352L1.74241 89.3308C1.73538 89.3308 1.72133 89.3308 1.71431 89.3308C1.67215 89.3449 1.65107 89.3802 1.66512 89.4155L1.6862 89.4791C1.89698 90.1076 2.15693 90.8208 2.42392 91.4069C7.30689 99.1959 13.0681 106.498 19.1665 113.354C21.4289 115.805 23.6842 118.312 26.2908 120.331C28.0543 121.369 31.3634 123.036 33.2323 123.996C37.2441 126.157 41.4385 127.817 45.38 130.09C49.2302 132.548 53.0804 135.761 54.5207 140.28C54.9703 141.806 54.886 143.564 54.0991 144.976C53.3403 146.297 52.6659 147.624 52.0125 148.987C50.6986 151.699 49.5042 154.467 48.3801 157.263C44.9866 165.653 42.0709 174.233 39.4572 182.904C37.6937 188.525 36.127 194.33 35.9794 200.262V200.403V200.473V200.509C35.9021 200.368 36.1481 200.876 35.8108 200.198C39.2324 202.182 43.1599 203.305 47.0171 204.273C54.7666 206.102 62.8604 206.716 70.7293 205.388C74.6428 204.887 78.5983 203.75 81.781 201.321L81.5703 201.723C80.692 189.775 80.6007 177.163 79.8068 165.208C79.589 162.171 79.336 159.128 78.9356 156.12C78.7107 154.615 78.4648 153.069 78.514 151.529C78.6194 150.216 78.6475 148.281 78.7459 146.954C78.9426 142.392 79.0972 137.816 78.8723 133.261C78.7459 131.849 78.774 130.232 78.1627 128.953C79.3501 129.434 61.7222 125.246 62.0594 125.387L61.8838 125.345C61.8065 124.999 61.7011 124.533 61.4271 124.307C61.385 124.258 61.2374 124.335 61.1742 124.349C58.5816 123.693 56.1156 123.114 53.4457 123.128C50.0522 122.527 46.6798 122.181 43.3144 121.405C39.2043 120.282 35.4736 118.17 32.059 115.642C30.6749 114.287 29.4313 112.917 28.0332 111.589C23.7615 107.296 18.9206 103.609 14.7192 99.217C12.5412 96.915 10.5177 94.4858 8.60668 91.9648C8.6137 91.9718 8.57155 91.9224 8.5575 91.873C8.51534 91.7882 8.54345 91.6752 8.5575 91.6258C8.83151 90.277 9.59732 89.0342 10.2156 87.862C10.2437 87.7843 10.2648 87.6996 10.2859 87.6148L10.3069 87.4948C10.3069 87.4948 10.3069 87.4736 10.3069 87.4665C10.2507 87.3465 10.1734 87.4312 10.0259 87.4736C9.07741 87.8478 8.15702 88.3139 7.27879 88.8365Z" fill="black"/>
<path d="M79.041 120.536C82.9825 119.484 94.0482 117.358 99.0295 125.034C99.4722 125.719 99.7954 126.482 100.027 127.273C100.969 130.457 104.643 140.958 112.688 143.754C113.58 144.065 113.615 145.329 112.73 145.647C110.06 146.607 105.437 147.073 99.8937 142.575C98.868 141.742 98.2075 140.527 98.06 139.214C97.9265 138.084 97.7227 136.65 97.4206 135.542C97.2309 134.85 96.2614 134.814 96.0225 135.492C95.7555 136.255 95.5026 137.237 95.4885 138.282C95.4885 138.741 95.088 139.094 94.6384 139.023C93.458 138.84 91.4205 137.914 90.6336 133.861C90.4229 132.795 90.0645 131.764 89.5025 130.832C88.5048 129.186 86.6078 127.075 83.1792 126.164C82.2448 125.917 81.2752 125.797 80.3056 125.776C78.9637 125.747 75.8091 125.43 76.5398 122.916C76.877 121.743 77.8606 120.854 79.034 120.543L79.041 120.536Z" fill="url(#paint1_linear_706_2193)"/>
<path d="M78.9426 120.162C85.7436 118.622 94.6243 118.107 99.163 124.505C100.252 125.846 100.54 127.612 101.165 129.165C103.273 134.589 106.484 140.273 111.978 142.709L112.702 143.006L112.885 143.084C113.657 143.331 114.191 144.157 114.058 144.969C113.981 145.64 113.433 146.212 112.779 146.374C111.255 146.904 109.603 147.102 108.002 146.961C105.065 146.706 102.374 145.414 100.076 143.663C99.0647 142.957 98.1654 142.01 97.7227 140.845C97.1185 139.221 97.2169 137.314 96.718 135.733L96.7321 135.74C96.7251 135.74 96.704 135.74 96.7251 135.733C96.7251 135.733 96.7251 135.733 96.7251 135.725C96.7251 135.725 96.7251 135.718 96.697 135.803C96.3597 136.742 96.2473 137.54 96.1841 138.55C95.9663 139.623 94.8843 139.948 93.9428 139.567C92.6711 139.179 91.7016 138.19 91.0973 137.138C89.91 135.146 90.1348 132.809 88.8561 130.924C87.753 129.144 86.0598 127.76 84.0996 127.011C82.596 126.383 80.9661 126.298 79.3501 126.192C78.1557 126.009 76.7576 125.726 76.1744 124.441C75.507 122.499 77.1791 120.592 78.9426 120.162ZM79.1393 120.91C77.8185 121.242 76.5257 122.739 76.9824 124.088C77.5445 125.14 79.1393 125.218 80.2354 125.274C81.6616 125.274 83.1089 125.507 84.4579 126.002C86.643 126.778 88.5891 128.29 89.8678 130.26C91.7016 132.696 91.0201 137.11 94.3363 138.225C94.4698 138.261 94.6173 138.296 94.7508 138.317C94.7508 138.317 94.7719 138.303 94.7719 138.275C94.7789 137.42 94.9264 136.559 95.1653 135.74C95.2777 135.387 95.3831 134.949 95.6852 134.673C96.3176 134.059 97.3714 134.144 97.8843 134.843C98.9874 136.961 98.1935 139.631 99.8305 141.474C102.831 144.277 107.081 146.226 111.198 145.336C111.571 145.273 111.957 145.146 112.315 145.033L112.491 144.976C112.505 144.962 112.54 144.962 112.547 144.948C112.716 144.877 112.709 144.524 112.512 144.432C106.133 142.039 102.451 135.62 100.259 129.497C99.6759 127.979 99.4651 126.298 98.4604 124.992C94.252 118.848 85.575 118.982 79.1393 120.917V120.91Z" fill="black"/>
<path d="M84.4087 122.619C89.383 122.944 95.0669 124.632 97.4627 129.434C97.6243 129.751 97.4979 130.14 97.1817 130.302C96.8585 130.465 96.4651 130.33 96.3105 130.006C94.266 125.521 88.9263 123.848 84.3735 123.368C83.8958 123.346 83.9169 122.605 84.4087 122.626V122.619Z" fill="black"/>
<path d="M101.158 136.771C101.833 139.115 103.625 141.241 105.774 142.427C106.519 142.865 107.327 143.168 108.156 143.444C108.599 143.592 108.402 144.27 107.952 144.157C105.226 143.564 102.683 142.039 101.032 139.751C100.596 139.037 98.7556 136.735 100.119 136.177C100.568 136.008 101.067 136.298 101.158 136.771Z" fill="black"/>
<path d="M2.38169 79.4232L6.47776 79.0136C7.26466 78.936 8.04453 79.2255 8.59957 79.7975L10.5387 81.8242C11.1148 82.4244 11.3678 83.2577 11.2202 84.0768L10.7565 86.6896C10.7284 86.8308 10.63 86.9438 10.4966 86.9862C9.33729 87.3463 8.07966 88.0031 7.12414 88.568C5.93677 89.2671 4.54565 89.5213 3.19669 89.2812C2.59246 89.1753 1.96716 89.0553 1.41914 88.9423C1.27863 88.914 1.16621 88.8081 1.13108 88.6669C0.372288 85.8563 0.323109 83.2082 0.414445 81.5135C0.470652 80.4189 1.31376 79.5362 2.39574 79.4232H2.38169Z" fill="#643C3B"/>
<path d="M2.35364 79.1479L6.7448 78.7454C7.54575 78.7454 8.33967 79.1196 8.86661 79.6987C9.42868 80.3201 10.7144 81.45 11.1711 82.1561C11.6067 82.827 11.6559 83.7732 11.4802 84.5006C11.3889 85.0443 11.2132 86.1318 11.1289 86.6755C11.0938 87.2687 10.4966 87.3605 10.047 87.53C9.08441 87.8901 8.05161 88.4551 7.1523 88.9706C5.45907 89.9874 3.38644 89.7897 1.57376 89.3448C1.2295 89.3166 0.829023 89.1118 0.758765 88.7305C0.259929 86.7885 0.0351011 84.776 0.0561787 82.7775C-0.0421834 81.0898 0.421523 79.3668 2.36066 79.1479H2.35364ZM2.40984 79.6916C1.77049 79.7622 1.18734 80.1718 0.906307 80.7438C0.604195 81.3511 0.709585 82.1067 0.688507 82.7705C0.709585 84.7195 0.955489 86.6614 1.4754 88.5328C1.48945 88.5822 1.4754 88.5539 1.48243 88.561C2.95083 88.8505 4.41221 89.2319 5.85251 88.7164C6.44269 88.5539 7.21553 88.0667 7.75652 87.7701C8.5926 87.3182 9.49191 86.9015 10.3982 86.6049L10.4123 86.5343L10.616 85.4539C10.6933 84.8748 10.9884 83.9215 10.9252 83.3707C10.869 82.6646 10.5107 82.1632 9.99777 81.6547L8.50126 80.0447C8.05864 79.5221 7.41928 79.2256 6.75182 79.2256C5.34665 79.3385 3.85717 79.5221 2.41687 79.6775L2.40984 79.6916Z" fill="black"/>
<path d="M66.837 35.5777C64.0828 33.0425 58.8907 26.1998 60.7596 11.7518C60.9563 10.2477 59.9235 8.85652 58.4411 8.58818C56.9586 8.31984 55.5253 9.25904 55.174 10.7278C54.7806 12.352 54.338 14.4564 54.1623 16.1653C54.0358 17.4505 52.7923 18.3191 51.5487 18.0154C47.003 16.9068 42.387 14.2092 42.7945 4.11112C42.8436 2.81885 41.9514 1.68193 40.6797 1.44889C39.2394 1.18761 37.8693 2.1833 37.6726 3.64506C36.9981 8.79297 38.4806 21.5674 50.8531 24.8299C52.5464 25.2748 53.811 26.7012 54.2607 28.4031C54.9703 31.0794 56.6354 35.4364 60.4926 40.2595C61.5324 41.5588 63.1133 42.3497 64.7643 42.2297C65.8533 42.152 66.9915 41.7142 67.7011 40.436C68.5934 38.8331 68.1859 36.8134 66.837 35.5777Z" fill="url(#paint2_linear_706_2193)"/>
<path d="M66.4013 36.0509C60.3029 30.1544 59.3895 21.0097 60.3521 13.0018L60.4645 11.992C61.0055 9.58397 58.1811 7.76914 56.27 9.35094C55.7782 9.74639 55.4621 10.2972 55.3356 10.9327C54.9492 12.564 54.6049 14.2023 54.4012 15.8688C54.4503 17.3941 52.8836 18.6935 51.3941 18.2344C44.1715 16.7091 42.1129 10.7986 42.3799 4.04767C42.4291 1.74558 39.2183 0.98293 38.2698 3.09435C37.9396 3.89938 38.0309 5.02923 37.9817 5.90487C38.0239 8.87075 38.607 11.8437 39.7522 14.5695C41.4384 18.6935 44.7617 21.963 48.8648 23.5801C49.1599 23.6719 50.8882 24.2298 51.2184 24.3357C53.0522 24.8935 54.3941 26.5107 54.8508 28.3184C55.8204 31.821 57.5277 35.0764 59.6214 38.0352C60.3731 39.0238 61.0617 40.1961 62.1015 40.8669C65.7901 43.282 69.4787 39.3275 66.3943 36.0509H66.4013ZM67.2655 35.1046C69.036 36.6653 69.3662 39.6453 67.7643 41.4672C65.6074 43.9528 61.4762 42.9077 59.797 40.4291C57.2466 37.2161 55.2021 33.5652 53.9726 29.6319C53.6002 27.8665 52.715 25.981 50.8672 25.4444L48.935 24.8088C44.3612 23.1988 40.6164 19.4632 38.8248 14.9649C37.6515 12.0908 37.0824 9.00492 37.0684 5.91193C37.1456 4.87388 37.0403 3.72284 37.4688 2.73421C38.8459 -0.196358 43.2511 0.820513 43.1738 4.07592C42.9912 8.22814 43.5181 13.0724 47.0662 15.7417C48.099 16.5326 49.3074 17.0905 50.565 17.4859C51.1552 17.6483 51.7875 17.9237 52.4058 17.8037C53.3473 17.6271 53.9515 16.7868 53.9656 15.8264L54.1061 14.8166C54.3169 13.482 54.5979 12.1544 54.914 10.8409C55.0475 10.156 55.434 9.47099 55.996 9.01904C58.2092 7.19009 61.5465 9.25208 60.9844 12.0626C60.064 20.0775 61.153 29.3424 67.2655 35.1046Z" fill="black"/>
<path d="M46.8625 46.7563C46.8625 46.7563 41.0591 55.1526 38.1293 68.612C36.9701 73.9577 35.0801 79.1338 32.3611 83.8722C29.9161 88.1303 26.6983 92.3179 22.9886 93.6737C21.8012 94.1115 21.3094 95.5238 22.0261 96.569C23.5718 98.8287 28.2158 101.385 42.0849 98.3132C42.0849 98.3132 56.8252 95.5309 61.1952 88.2292C61.1952 88.2292 61.399 60.8937 46.8555 46.7563H46.8625Z" fill="url(#paint3_linear_706_2193)"/>
<path d="M46.8765 46.9117C46.8765 46.9117 46.9186 46.9471 46.9257 46.94C46.9327 46.94 46.8976 46.9824 46.8835 47.0035L46.7781 47.166C43.6376 52.4339 41.3752 58.2033 39.7523 64.1068C38.2909 70.2433 37.0192 76.5352 34.0473 82.1916C31.5671 86.8805 28.6584 91.9578 23.6349 94.2881L23.2555 94.4505C22.7637 94.6341 22.4195 95.2061 22.553 95.7145C23.3047 97.3599 25.2158 98.0307 26.8949 98.4403C32.895 99.5419 39.1621 98.0731 45.0217 96.6184C50.6353 95.1214 57.5136 92.2967 60.8298 88.2222C60.4434 73.6188 57.1834 57.8008 46.8765 46.9117ZM46.8484 46.594C55.1248 54.4606 58.7221 65.9781 60.5558 76.9942C61.139 80.7439 61.5184 84.5148 61.5746 88.3352C61.2725 88.8295 60.9774 89.3379 60.6612 89.8322C54.6963 97.3387 42.1059 99.8385 32.9934 100.566C29.2767 100.686 24.8364 100.608 21.9628 97.7907C20.3258 96.3713 20.5787 93.702 22.6794 92.9111C30.0917 89.804 35.3541 77.425 37.2511 69.9538C39.0427 62.0165 41.8881 54.1781 46.2933 47.3143L46.5111 46.9824L46.6236 46.8199L46.6938 46.7211C46.736 46.6646 46.7992 46.6152 46.8554 46.5869L46.8484 46.594Z" fill="black"/>
<path d="M112.899 51.53C112.744 50.8521 112.491 50.2024 112.126 49.6022C109.758 45.6547 99.6126 31.3126 76.9823 30.2957C76.9823 30.2957 59.2209 29.7237 45.9491 45.111C44.305 47.0176 43.0544 49.2279 42.2605 51.6218C41.6212 53.5496 40.9045 55.8305 40.7289 56.9109C40.1106 60.6395 39.5907 61.2044 37.3284 63.4147C35.066 65.632 34.7077 76.1256 36.8928 81.5065C36.8928 81.5065 42.113 98.186 61.399 107.098C61.399 107.098 62.2702 108.101 62.7409 110.586C63.1484 112.719 64.0547 114.724 65.495 116.349L65.5653 116.426C68.9728 120.261 74.72 120.875 78.8512 117.846C80.1721 116.878 81.0573 115.395 81.1768 113.757C81.3594 111.222 82.3852 107.401 86.7131 106.236C86.7131 106.236 101.538 102.416 105.669 95.3402C107.517 92.1766 109.983 89.4226 113.151 87.6077L113.418 87.4524C120.065 87.2264 120.395 84.7337 118.92 78.2158L112.884 51.5159L112.899 51.53Z" fill="url(#paint4_linear_706_2193)"/>
<path d="M112.533 51.6148C111.873 49.2915 110.123 47.4484 108.627 45.6195C103.744 40.2173 97.533 36.0157 90.6687 33.6006C86.109 31.9976 81.233 31.1502 76.4343 30.9172C65.5302 31.2279 54.7174 36.1428 47.3121 44.2283C44.6423 46.7846 42.9772 50.0965 42.0287 53.6556C41.1153 56.0707 41.1856 58.514 40.0755 60.8796C39.4361 62.073 38.4666 62.9487 37.6446 63.8243C36.3588 65.6109 36.2043 68.3579 36.0848 70.5823C35.8319 75.7514 36.9349 80.8075 39.4221 85.3128C44.003 93.8432 51.1693 100.975 59.5793 105.693L61.5536 106.773L61.6449 106.822L61.673 106.865C62.6566 108.214 62.9025 109.795 63.2257 111.328C63.577 112.782 64.1883 114.174 65.0524 115.395C66.7738 117.867 69.6192 119.484 72.6263 119.597C75.521 119.717 78.8512 118.488 80.3618 115.904C81.1557 114.541 80.8887 112.945 81.3033 111.469C81.6827 109.958 82.3923 108.433 83.6288 107.345C84.774 106.229 86.4462 105.728 87.8865 105.262C89.3127 104.76 90.7249 104.238 92.1231 103.666C95.6009 102.232 99.0295 100.7 102.079 98.518C102.95 97.833 103.8 97.1127 104.531 96.2724C105.198 95.3968 105.859 94.387 106.491 93.476C108.304 90.948 110.587 88.6882 113.348 87.2053C114.978 87.1135 116.798 87.0499 118.147 86.0825C120.627 84.0699 118.73 79.3104 118.301 76.6199L117.156 71.6203L112.533 51.643V51.6148ZM113.257 51.4524C114.086 55.1597 118.034 73.188 118.793 76.4787C120.156 82.5164 121.807 87.6572 113.44 87.749C111.402 88.886 108.557 91.414 107.032 93.8291C106.442 94.7542 105.816 95.8417 105.198 96.7738C101.067 102.042 94.5259 104.739 88.2589 106.455C85.1815 106.971 82.7084 108.425 81.8161 111.596C81.5983 112.309 81.4508 113.051 81.3876 113.806C81.24 115.388 80.3829 116.857 79.1463 117.832C74.7552 121.292 67.8839 120.282 64.652 115.692C63.1695 113.856 62.6355 111.476 62.0735 109.266C61.8486 108.574 61.5255 107.853 61.132 107.345L61.2585 107.437C55.6729 104.958 50.3614 101.703 46.0756 97.2752C41.7898 92.8263 38.2628 87.629 36.1902 81.7396C34.9747 78.3854 34.6656 74.2402 34.8974 70.5187C35.1293 68.0048 35.3049 65.166 36.956 63.1252C37.8413 62.2354 38.7687 61.4516 39.3027 60.4489C39.8436 59.4461 40.0685 58.2386 40.2933 57.0381C40.8273 54.5453 41.6001 52.2433 42.5416 49.8776C44.2559 45.8101 47.5721 42.6818 50.797 39.8078C58.0266 33.8548 67.0408 30.1122 76.4343 29.6885C86.4251 29.9144 96.4932 33.0569 104.172 39.5889C106.062 41.2342 107.826 43.0208 109.393 44.9769C110.868 46.9894 112.667 48.9667 113.271 51.4524H113.257Z" fill="black"/>
<path d="M110.861 47.8792C110.861 47.8792 123.831 75.3629 160.126 94.8459C161.538 95.6086 161.925 97.4728 160.899 98.7157C158.082 102.112 151.246 107.649 136.618 107.451C136.618 107.451 127.604 107.041 119.299 103.412C117.24 102.515 115.477 101.06 114.205 99.21C111.95 95.9334 108.669 89.6486 107.123 79.3457" fill="url(#paint5_linear_706_2193)"/>
<path d="M111.283 47.6815C120.184 63.5066 133.674 76.4505 148.534 86.6333C149.763 87.4313 153.044 89.5357 154.246 90.2983C155.538 91.0327 158.82 92.9111 160.14 93.6596C162.431 94.6341 163.33 97.4658 161.644 99.436C157.66 104.153 151.632 106.773 145.688 107.783C136.505 109.435 126.943 107.74 118.484 103.892C115.561 102.48 113.552 99.8174 112.112 96.9927C110.643 94.2599 109.561 91.3505 108.739 88.3917C107.91 85.4329 107.348 82.4105 106.997 79.374C106.99 79.2963 107.039 79.2328 107.116 79.2257C107.186 79.2186 107.25 79.2681 107.264 79.3387C107.84 82.3258 108.556 85.2846 109.526 88.1516C110.496 91.0186 111.711 93.7938 113.201 96.3854C114.641 98.9629 116.461 101.286 119.173 102.494C127.386 105.848 136.541 107.416 145.33 105.749C149.981 104.902 154.59 103.172 158.187 100.036C158.883 99.3795 159.747 98.6098 160.281 97.8189C160.681 97.1269 160.386 96.1383 159.663 95.7711L159.171 95.4886L155.187 93.2077C140.7 84.7761 127.639 73.4069 117.697 59.8416C115.006 56.1484 112.456 52.2292 110.453 48.0911C110.341 47.858 110.439 47.5826 110.671 47.4696C110.903 47.3567 111.184 47.4555 111.29 47.6885L111.283 47.6815Z" fill="black"/>
<path d="M58.2092 104.838C60.8017 106.836 64.3077 107.648 67.5255 107.006C67.6871 106.978 67.7433 107.239 67.5747 107.267C65.0805 107.881 62.4036 107.663 60.0359 106.667C59.235 106.335 58.4832 105.947 57.7455 105.417C57.5769 105.297 57.5417 105.064 57.6612 104.894C57.7877 104.711 58.0476 104.69 58.2092 104.831V104.838Z" fill="black"/>
<path d="M69.0852 68.7744C68.0384 74.6355 71.4599 81.4006 77.2984 82.4527C83.1299 83.5049 89.1651 78.4488 90.212 72.5877C91.2588 66.7265 87.8372 59.9333 82.0058 58.8811C76.1743 57.8289 70.1321 62.9133 69.0852 68.7744Z" fill="white"/>
<path d="M69.837 68.9086C68.0173 78.4277 77.1298 86.7886 85.4695 79.7199C90.1206 75.9702 91.2237 69.3606 88.2096 64.255C83.0596 55.2797 71.6918 60.1805 69.837 68.9086ZM68.3404 68.6403C69.5138 60.7666 79.4905 54.6653 86.2494 60.1099C92.5235 65.2366 92.4321 75.4124 85.9192 80.2778C76.8909 87.1982 66.9353 79.0562 68.3404 68.6473V68.6403Z" fill="black"/>
<path d="M82.6373 70.2422C83.0358 68.012 82.3278 66.0179 81.056 65.7884C79.7842 65.5589 78.4302 67.1808 78.0318 69.411C77.6333 71.6413 78.3413 73.6353 79.6131 73.8648C80.8849 74.0944 82.2389 72.4725 82.6373 70.2422Z" fill="#429195"/>
<path d="M42.2746 63.937C41.2278 69.7982 43.1669 75.9559 46.7571 76.6056C50.3473 77.2552 54.2256 72.1497 55.2725 66.2885C56.3193 60.4274 54.3169 54.6016 50.7267 53.9519C47.1365 53.3022 43.3144 58.0759 42.2676 63.937H42.2746Z" fill="white"/>
<path d="M42.6821 64.0078C42.0076 67.6798 42.3308 75.1227 46.6727 76.2808C48.9913 76.7187 50.9515 74.7343 52.167 72.9407C55.2513 68.1953 56.1296 61.4161 53.1576 56.4448C51.9843 54.4816 49.6658 53.8743 47.7688 55.209C44.8952 57.158 43.3706 60.6535 42.675 64.0007L42.6821 64.0078ZM41.8671 63.8595C42.5767 59.5307 45.6821 52.6103 51.0147 53.3871C53.7478 54.0156 55.153 56.7555 55.7431 59.22C56.9937 65.1306 55.1389 72.3334 50.1997 76.0337C46.2161 78.7736 43.0263 74.9462 42.0919 71.1894C41.4877 68.7885 41.4596 66.2816 41.8671 63.8524V63.8595Z" fill="black"/>
<path d="M54.6541 65.1927C55.0525 62.9624 54.3445 60.9684 53.0727 60.7389C51.8009 60.5093 50.4469 62.1312 50.0485 64.3615C49.65 66.5917 50.358 68.5857 51.6298 68.8153C52.9016 69.0448 54.2556 67.4229 54.6541 65.1927Z" fill="#429195"/>
<path d="M56.5159 44.0516C55.0335 44.1717 53.7477 43.5432 52.2653 43.642C50.839 43.6279 49.3496 43.8539 47.9514 44.1787C47.7477 44.2352 47.5369 44.101 47.4947 43.8962C47.4596 43.7268 47.5439 43.5502 47.6985 43.4796C49.8203 42.4345 52.2653 42.0249 54.619 42.3921C55.4058 42.5192 56.2349 42.6463 56.8391 43.3808C57.0639 43.642 56.8532 44.0516 56.5159 44.0516Z" fill="black"/>
<path d="M81.254 47.3213C82.7576 46.8128 84.0012 47.7309 85.3431 48.1828C87.8794 49.2915 90.2471 50.8238 92.2636 52.7305C93.2753 53.6697 94.1816 54.7148 95.0107 55.8093C95.1371 55.9718 95.102 56.2048 94.9404 56.3319C94.7859 56.4519 94.5751 56.4237 94.4486 56.2966C91.1886 53.0483 87.2541 50.4496 82.884 49.009C82.3782 48.9313 80.2212 48.0133 81.2611 47.3283L81.254 47.3213Z" fill="black"/>
<path d="M60.9282 77.7284C59.2911 76.8316 56.4738 75.4828 54.5557 75.6452C53.4948 75.73 52.6868 76.6551 52.729 77.7284C52.7641 78.7171 53.0662 80.2635 54.4293 81.231C55.0897 81.6971 55.8906 81.9018 56.6986 81.9089C57.893 81.923 59.7759 81.6123 61.3005 79.8752C61.8907 79.2043 61.7151 78.1592 60.9282 77.7284Z" fill="black"/>
<path d="M74.5514 92.4872C69.4787 93.6736 63.7807 93.1651 59.4388 90.058C58.146 89.2036 56.2912 87.3676 55.7853 86.4213C54.7876 85.7504 55.1108 84.5358 54.9844 83.5896C54.893 82.6433 54.9071 81.7536 55.687 81.0403C55.8837 80.8638 56.1858 80.885 56.3544 81.0827C57.1554 82.3538 56.2139 83.5472 55.7994 84.7265C55.7291 85.1573 55.9258 85.6163 56.2841 85.8634C59.1085 90.1145 64.3147 92.4731 69.3523 92.3884C71.0455 92.3742 72.7317 92.1483 74.3828 91.7599C74.8465 91.6469 75.0362 92.3813 74.5514 92.4872Z" fill="black"/>
<path d="M101.973 41.9191C105.43 40.4997 112.674 35.9096 115.92 21.7087C116.257 20.2258 117.704 19.2866 119.194 19.555C120.676 19.8233 121.695 21.2003 121.519 22.7044C121.322 24.3639 121.013 26.4895 120.585 28.156C120.262 29.4059 121.119 30.6487 122.397 30.8041C127.041 31.3549 136.498 31.1996 139.604 21.5887C140.004 20.36 141.241 19.6044 142.505 19.8304C143.946 20.0916 144.887 21.504 144.564 22.9375C143.412 28.0006 138.838 38.4236 120.683 37.435C118.934 37.3361 117.261 38.1552 116.25 39.5887C114.655 41.8485 111.592 45.351 106.301 48.5287C104.882 49.3832 103.118 49.5668 101.608 48.8818C100.61 48.4299 99.7038 47.6178 99.479 46.1772C99.198 44.3624 100.28 42.6111 101.973 41.9191Z" fill="url(#paint6_linear_706_2193)"/>
<path d="M101.77 41.4177C109.645 38.1412 113.812 29.6319 115.688 21.6876C116.566 18.0579 121.899 18.7923 121.772 22.5279C121.625 24.6394 121.105 26.7296 120.796 28.7845C121.027 31.1502 124.07 30.5358 125.749 30.6558C131.903 30.6064 137.278 27.5629 139.119 21.4334C140.419 17.6413 145.969 19.216 145.119 23.1494C143.552 30.5146 137.911 35.712 130.716 37.3785C127.899 38.0705 124.997 38.3601 122.137 38.24C120.191 38.1058 118.259 38.2047 117.03 39.8571C114.297 43.6845 110.643 46.7704 106.617 49.122C104.257 50.5696 100.547 50.1247 99.2472 47.4342C98.1442 45.1463 99.4861 42.2651 101.777 41.4107L101.77 41.4177ZM102.177 42.4276C100.463 43.1125 99.4931 45.2451 100.329 46.9187C101.362 48.8748 104.179 49.0796 105.929 47.9639L106.807 47.4131C110.285 45.1463 113.432 42.3146 115.8 38.8967C116.798 37.6045 118.358 36.7783 119.981 36.6582C120.852 36.63 121.449 36.6723 122.166 36.6723C124.934 36.7712 127.695 36.5099 130.358 35.9097C137.096 34.4479 142.344 29.6743 143.96 22.881C144.585 20.3388 140.953 19.2867 140.074 21.7512C137.96 28.2267 132.304 31.3267 125.756 31.2914C123.746 31.2208 120.423 31.6092 120.233 28.8198C120.529 26.7013 121.119 24.6394 121.28 22.5067C121.322 21.8571 121.105 21.2004 120.697 20.699C119.418 19.0183 116.517 19.7174 116.137 21.8006C114.247 30.0132 110.299 38.8191 102.177 42.4346V42.4276Z" fill="black"/>
<path d="M79.4554 68.3506C79.7115 68.3506 79.9191 68.1419 79.9191 67.8845C79.9191 67.6271 79.7115 67.4185 79.4554 67.4185C79.1993 67.4185 78.9917 67.6271 78.9917 67.8845C78.9917 68.1419 79.1993 68.3506 79.4554 68.3506Z" fill="white"/>
<path d="M51.2888 63.2734C51.5449 63.2734 51.7525 63.0648 51.7525 62.8074C51.7525 62.55 51.5449 62.3413 51.2888 62.3413C51.0327 62.3413 50.8251 62.55 50.8251 62.8074C50.8251 63.0648 51.0327 63.2734 51.2888 63.2734Z" fill="white"/>
<path d="M54.0218 77.2908C54.2779 77.2908 54.4855 77.0821 54.4855 76.8247C54.4855 76.5673 54.2779 76.3586 54.0218 76.3586C53.7657 76.3586 53.5581 76.5673 53.5581 76.8247C53.5581 77.0821 53.7657 77.2908 54.0218 77.2908Z" fill="white"/>
<path d="M55.6658 81.5276C55.6658 81.5276 55.8626 83.8156 55.1459 85.0584C55.1459 85.0584 52.2161 88.914 48.38 87.2192C48.38 87.2192 50.5932 95.326 59.1155 96.703C59.1155 96.703 66.3873 98.2565 74.0876 92.5437C74.1157 92.5225 74.1017 92.4802 74.0666 92.4872C72.6052 92.8403 60.5769 95.3966 55.5042 84.9454" fill="black"/>
<path d="M55.6658 81.5276C55.6658 81.5276 55.8626 83.8155 55.1459 85.0584C55.1459 85.0584 52.2161 88.914 48.38 87.2192C48.38 87.2192 50.5932 95.326 59.1155 96.703C59.1155 96.703 66.3873 98.2565 74.0876 92.5437C74.1157 92.5225 74.1017 92.4802 74.0666 92.4872C72.6052 92.8403 60.5769 95.3966 55.5042 84.9454" stroke="black" stroke-miterlimit="10" stroke-linecap="round"/>
<path d="M56.0101 95.2694C56.0101 95.2694 58.968 91.5056 63.1344 92.4589C63.1344 92.4589 66.7808 93.1439 68.6637 94.9446C68.6637 94.9446 62.2842 97.9882 56.0101 95.2694Z" fill="#FF5C5C"/>
<path d="M52.4972 147.377C52.4972 147.377 54.893 142.688 55.8907 141.255L52.4972 147.377Z" fill="#D1744E"/>
<path d="M52.167 147.208C53.3193 145.153 54.4083 143.098 55.7432 141.149C55.7994 141.071 55.9118 141.05 55.9961 141.106C56.0734 141.163 56.0945 141.276 56.0383 141.354C54.8369 143.331 53.8462 145.463 52.8275 147.547C52.6097 147.999 51.9281 147.652 52.167 147.208Z" fill="black"/>
<path d="M78.7599 130.719C78.7599 130.719 80.0878 133.72 81.1066 134.927C81.1066 134.927 86.7132 140.45 86.7624 145.88C86.7624 145.88 86.0176 151.628 99.149 170.617C99.971 171.803 99.8305 173.42 98.8047 174.444C95.5377 177.693 88.6594 185.22 84.8513 194.365C84.6546 194.831 84.746 195.375 85.0762 195.749C85.3642 196.074 85.7858 196.491 86.3689 196.935C84.9708 197.077 83.5937 197.387 83.4392 198.016C83.4392 198.016 81.9005 201.194 81.6335 204.435C81.1417 203.686 80.678 202.839 80.2635 201.886C79.9754 201.229 79.8419 200.516 79.856 199.795C79.9122 196.441 80.7974 185.941 89.0528 174.713C89.6641 173.886 89.8116 172.806 89.4392 171.846C88.0481 168.287 84.0926 159.467 76.8348 152.574" fill="url(#paint7_linear_706_2193)"/>
<path d="M79.2376 130.507C79.8278 131.926 80.4812 133.466 81.4016 134.68C82.7365 136.114 84.1487 137.95 85.1885 139.765C86.2213 141.622 87.0574 143.663 87.1488 145.88C87.1347 147.01 87.5282 148.295 87.9075 149.397C89.3619 153.457 91.5961 157.214 93.7671 160.921C95.6992 164.078 97.7508 167.249 99.8445 170.306C100.962 171.945 100.393 174.247 98.9101 175.419C97.8351 176.506 96.7812 177.65 95.7695 178.801C92.5095 182.488 89.6078 186.506 87.2331 190.82C86.5516 192.12 85.8138 193.433 85.322 194.81C85.2729 195.297 85.6874 195.573 86.0176 195.926C86.4532 196.364 87.2471 196.921 87.7179 197.317C86.5726 197.5 84.8513 197.43 83.952 198.143C83.1089 200.021 82.3431 202.331 82.1604 204.477L82.0199 205.89C80.6709 203.962 79.0058 201.829 79.1885 199.344C79.3501 191.258 82.2166 183.356 86.5867 176.626C87.0645 175.871 87.6617 175.073 88.1675 174.331C88.6382 173.752 88.856 172.94 88.582 172.227C85.7787 165.109 81.8723 158.414 76.6451 152.793C76.3992 152.546 76.7716 152.123 77.0456 152.37C80.7904 155.54 83.8958 159.453 86.4251 163.682C87.6898 165.801 88.8279 167.99 89.8045 170.264L90.1629 171.118C90.8654 172.517 90.6898 174.254 89.7062 175.468C85.0199 181.979 81.6826 189.599 80.7341 197.613C80.6358 198.736 80.411 199.909 80.6498 201.017C80.9309 202.048 81.5281 203.192 82.0831 204.153L81.1206 204.4C81.2892 202.26 82.1745 199.449 82.9403 197.896C83.1159 197.338 83.5023 197.147 83.7834 196.999C84.5984 196.625 85.4696 196.512 86.3267 196.413L86.0668 197.359C85.4977 196.921 85.048 196.561 84.5703 195.982C84.0293 195.283 84.1557 194.393 84.5422 193.666C85.0269 192.501 85.5539 191.357 86.13 190.234C88.4275 185.743 91.3854 181.626 94.6524 177.813C95.6641 176.626 96.7601 175.468 97.8492 174.353C98.8468 173.555 99.3105 172.241 98.5869 171.132C94.7156 165.455 90.9357 159.65 88.3291 153.252C87.6125 151.501 86.9872 149.693 86.5937 147.829C86.2635 146.205 86.5024 144.581 85.8982 142.907C84.8864 139.991 83.0105 137.378 80.8536 135.21C80.5585 134.878 80.3196 134.511 80.0878 134.158C79.4203 133.12 78.8582 132.039 78.2962 130.938C78.1627 130.676 78.2681 130.359 78.528 130.232C78.802 130.09 79.1463 130.225 79.2587 130.514L79.2376 130.507Z" fill="black"/>
<path d="M80.7694 124.342C80.7694 124.342 77.8818 119.463 80.5656 116.935C81.1207 116.412 81.6055 115.826 81.9076 115.127C81.9146 115.106 81.9216 115.085 81.9357 115.07C82.6593 113.347 81.4439 111.42 79.5891 111.292C78.7319 111.236 77.5515 111.328 76.0199 111.836C73.7365 112.592 71.2423 112.521 69.0854 111.455C68.2493 111.045 67.357 110.48 66.4296 109.718C65.7903 109.188 65.0666 108.764 64.2867 108.475C62.8675 107.959 61.0619 107.839 61.0759 110.622C61.0759 110.622 60.6684 113.086 61.8277 115.953C62.6286 117.93 62.446 120.19 61.1953 121.92C60.8932 122.337 60.5349 122.789 60.1063 123.255C60.1063 123.255 57.6543 125.832 64.7856 129.617C64.7856 129.617 68.439 131.856 72.9496 131.799C75.3173 131.771 77.6359 130.952 79.3783 129.342C80.6851 128.134 81.753 126.411 80.7624 124.342H80.7694Z" fill="url(#paint8_linear_706_2193)"/>
<path d="M80.2354 124.639C79.1674 122.556 78.233 119.773 79.4977 117.507C79.8841 116.786 80.5656 116.356 81.0293 115.72C81.9356 114.64 81.9567 113.107 80.8607 112.203C79.7646 111.321 78.0855 111.681 76.7786 111.977C75.3594 112.443 73.7224 112.782 72.1556 112.62C70.5818 112.5 69.0502 111.9 67.7434 111.038C66.4506 110.226 65.4108 109.089 63.9213 108.687C62.1859 108.122 61.3709 108.913 61.4201 110.685C61.2234 112.394 61.5396 114.209 62.2 115.819C63.1414 118.008 62.8464 120.811 61.2374 122.64C61.118 122.796 60.7035 123.311 60.584 123.467C59.4599 124.886 61.2445 126.609 62.4318 127.463C67.0549 130.846 74.3688 133.077 79.062 128.749C80.2494 127.696 80.9731 126.122 80.2424 124.639H80.2354ZM81.3174 124.06C82.3853 125.98 81.493 128.381 79.9754 129.716C77.1721 132.498 72.8582 132.986 69.2188 132.018C66.0993 131.376 56.7058 126.92 59.8674 122.81C60.0009 122.662 60.3662 122.21 60.4997 122.054C61.9681 120.479 62.2702 118.107 61.4834 116.108C60.8089 114.435 60.5349 112.224 60.7527 110.629C60.6894 106.907 64.0759 107.564 66.2258 109.181C69.1486 111.85 72.8793 112.818 76.596 111.306C78.1206 110.911 79.9895 110.516 81.3595 111.568C82.849 112.669 82.9263 114.901 81.7881 116.292C81.3806 116.92 80.7131 117.379 80.3759 118.022C79.4134 119.957 80.3197 122.238 81.3103 124.06H81.3174Z" fill="black"/>
<path d="M62.0876 115.678C63.9775 116.553 65.8324 117.761 67.7013 118.728C69.6966 119.731 71.4039 121.334 72.6615 123.156C72.8091 123.361 72.5069 123.615 72.3313 123.424C70.8348 121.906 69.1626 120.578 67.2024 119.745C65.2141 118.749 63.0712 117.959 61.5817 116.214C61.3218 115.882 61.7363 115.445 62.0876 115.671V115.678Z" fill="black"/>
<path d="M75.2611 124.921C72.7248 129.695 63.7808 124.815 61.3569 121.892C61.2094 121.708 61.4764 121.461 61.638 121.638C63.4647 123.318 65.8535 124.257 68.1509 125.119C70.2657 125.966 72.8793 126.185 74.6007 124.568C74.8536 124.194 75.4438 124.497 75.2541 124.921H75.2611Z" fill="black"/>
<path d="M80.4392 124.392C78.2541 121.221 76.4274 117.217 72.4437 116.024C72.247 115.974 72.3102 115.656 72.514 115.692C74.6147 115.974 76.4204 117.309 77.8326 118.82C79.1815 120.395 80.5937 122.019 81.1136 124.088C81.205 124.476 80.664 124.716 80.4392 124.392Z" fill="black"/>
</g>
</g>
<defs>
<linearGradient id="paint0_linear_706_2193" x1="28.3362" y1="203.963" x2="54.023" y2="92.7334" gradientUnits="userSpaceOnUse">
<stop stop-color="#643C3B"/>
<stop offset="0.03" stop-color="#72453D"/>
<stop offset="0.12" stop-color="#996044"/>
<stop offset="0.22" stop-color="#B87449"/>
<stop offset="0.3" stop-color="#CF834D"/>
<stop offset="0.39" stop-color="#DC8C50"/>
<stop offset="0.47" stop-color="#E19051"/>
</linearGradient>
<linearGradient id="paint1_linear_706_2193" x1="95.8017" y1="145.405" x2="93.0074" y2="110.159" gradientUnits="userSpaceOnUse">
<stop stop-color="#487E50"/>
<stop offset="0.07" stop-color="#518A58"/>
<stop offset="0.21" stop-color="#61A167"/>
<stop offset="0.34" stop-color="#6AAE6F"/>
<stop offset="0.47" stop-color="#6EB373"/>
</linearGradient>
<linearGradient id="paint2_linear_706_2193" x1="49.7553" y1="39.021" x2="56.2236" y2="3.18202" gradientUnits="userSpaceOnUse">
<stop offset="0.56" stop-color="#F9E9B3"/>
<stop offset="0.61" stop-color="#F3D9A5"/>
<stop offset="0.79" stop-color="#E1A276"/>
<stop offset="0.93" stop-color="#D58059"/>
<stop offset="1" stop-color="#D1744E"/>
</linearGradient>
<linearGradient id="paint3_linear_706_2193" x1="43.6714" y1="100.636" x2="35.9522" y2="59.7951" gradientUnits="userSpaceOnUse">
<stop stop-color="#643C3B"/>
<stop offset="0.03" stop-color="#72453D"/>
<stop offset="0.12" stop-color="#996044"/>
<stop offset="0.22" stop-color="#B87449"/>
<stop offset="0.3" stop-color="#CF834D"/>
<stop offset="0.39" stop-color="#DC8C50"/>
<stop offset="0.47" stop-color="#E19051"/>
</linearGradient>
<linearGradient id="paint4_linear_706_2193" x1="70.9753" y1="113.348" x2="86.075" y2="29.6845" gradientUnits="userSpaceOnUse">
<stop stop-color="#643C3B"/>
<stop offset="0.02" stop-color="#7C4C3F"/>
<stop offset="0.05" stop-color="#9B6144"/>
<stop offset="0.08" stop-color="#B47249"/>
<stop offset="0.11" stop-color="#C87F4C"/>
<stop offset="0.15" stop-color="#D6884F"/>
<stop offset="0.2" stop-color="#DE8E50"/>
<stop offset="0.28" stop-color="#E19051"/>
</linearGradient>
<linearGradient id="paint5_linear_706_2193" x1="133.447" y1="114.39" x2="135.286" y2="59.2199" gradientUnits="userSpaceOnUse">
<stop stop-color="#643C3B"/>
<stop offset="0.06" stop-color="#835140"/>
<stop offset="0.15" stop-color="#A56746"/>
<stop offset="0.23" stop-color="#BF794B"/>
<stop offset="0.32" stop-color="#D2864E"/>
<stop offset="0.41" stop-color="#DD8D50"/>
<stop offset="0.51" stop-color="#E19051"/>
</linearGradient>
<linearGradient id="paint6_linear_706_2193" x1="118.136" y1="55.7391" x2="125.365" y2="15.6895" gradientUnits="userSpaceOnUse">
<stop offset="0.56" stop-color="#F9E9B3"/>
<stop offset="0.61" stop-color="#F3D9A5"/>
<stop offset="0.79" stop-color="#E1A276"/>
<stop offset="0.93" stop-color="#D58059"/>
<stop offset="1" stop-color="#D1744E"/>
</linearGradient>
<linearGradient id="paint7_linear_706_2193" x1="77.2509" y1="199.191" x2="84.839" y2="169.443" gradientUnits="userSpaceOnUse">
<stop stop-color="#643C3B"/>
<stop offset="0.03" stop-color="#72453D"/>
<stop offset="0.12" stop-color="#996044"/>
<stop offset="0.22" stop-color="#B87449"/>
<stop offset="0.3" stop-color="#CF834D"/>
<stop offset="0.39" stop-color="#DC8C50"/>
<stop offset="0.47" stop-color="#E19051"/>
</linearGradient>
<linearGradient id="paint8_linear_706_2193" x1="68.4917" y1="132.061" x2="72.79" y2="109.622" gradientUnits="userSpaceOnUse">
<stop stop-color="#487E50"/>
<stop offset="0.07" stop-color="#518A58"/>
<stop offset="0.21" stop-color="#61A167"/>
<stop offset="0.34" stop-color="#6AAE6F"/>
<stop offset="0.47" stop-color="#6EB373"/>
</linearGradient>
<clipPath id="clip0_706_2193">
<rect width="163" height="149" fill="white" transform="translate(0 0.75)"/>
</clipPath>
</defs>
</svg>
