<svg width="202" height="205" viewBox="0 0 202 205" fill="none" xmlns="http://www.w3.org/2000/svg">
<mask id="mask0_798_5426" style="mask-type:luminance" maskUnits="userSpaceOnUse" x="-1" y="0" width="203" height="205">
<path d="M-0.000213623 0.924072H201.105V204.076H-0.000213623V0.924072Z" fill="white"/>
</mask>
<g mask="url(#mask0_798_5426)">
<path d="M191.532 113.873C190.392 113.2 188.922 112.431 187.521 111.937C187.15 111.799 186.766 112.129 186.834 112.513C186.93 113.035 187.123 113.53 187.425 113.956C188.537 115.494 189.101 117.637 189.197 118.049C189.197 118.09 189.197 118.131 189.197 118.186C190.982 135.644 182.851 156.509 179.637 160.369C178.552 161.687 178.607 161.426 177.219 162.402C166.89 169.709 160.915 171.385 156.19 172.085C153.676 172.456 151.011 171.879 149.94 171.701C144.844 170.849 139.995 173.363 139.995 173.363C139.13 172.923 138.732 174.75 138.732 174.75L116.796 179.668C114.9 182.291 115.834 200.917 116.315 208.732C116.439 210.738 116.356 212.743 116.013 214.721C113.417 229.666 111.878 276.257 111.878 276.257C111.878 276.656 111.878 277.04 111.892 277.439C131.41 291.188 165.667 281.834 174.5 275.832C174.335 272.192 173.854 268.565 173.112 264.994C172.741 263.222 172.412 261.409 172.233 260.777C160.475 219.817 150.215 201.617 150.215 201.617C145.627 194.008 156.835 183.857 166.78 179.613C168.442 178.898 186.807 170.19 187.933 168.775C196.01 158.652 198.207 118.777 198.413 117.445C198.413 117.403 198.427 117.376 198.441 117.348C198.757 116.62 199.032 115.879 199.265 115.151C199.389 114.78 199.059 114.423 198.674 114.505C198.07 114.629 197.438 114.739 196.806 114.849C194.98 115.164 193.111 114.821 191.518 113.887L191.532 113.873Z" fill="url(#paint0_linear_798_5426)"/>
<path d="M191.738 113.516C190.626 112.857 189.431 112.266 188.236 111.771L187.865 111.634C187.755 111.607 187.631 111.524 187.357 111.497C186.876 111.483 186.45 111.854 186.409 112.335C186.409 113.186 186.958 114.065 187.398 114.67C188.03 115.727 188.483 116.922 188.799 118.117C189.225 122.417 189.115 126.757 188.51 131.043C187.412 139.119 185.049 147.059 181.821 154.503C180.791 156.742 179.788 159.091 178.085 160.698C171.162 165.602 163.827 171.069 155.105 171.907C151.96 172.25 148.979 170.519 145.82 170.821C143.677 171.055 141.589 171.742 139.845 173.047H140.174C139.941 172.909 139.57 172.896 139.323 173.047C138.732 173.417 138.554 174.049 138.361 174.654L138.663 174.352L116.714 179.241L116.549 179.283L116.466 179.406C114.804 183.266 115.45 187.675 115.299 191.782C115.368 197.908 115.766 204.062 116.054 210.161C115.835 216.259 114.351 222.289 113.994 228.402C113.17 236.547 112.524 244.706 111.989 252.865C111.59 259.953 110.917 270.364 111.233 277.425L111.247 277.782L111.508 277.96C116.192 280.982 121.315 283.276 126.713 284.677C137.578 286.916 148.979 285.57 159.583 282.727C164.899 281.202 170.187 279.403 174.788 276.243C175.269 275.309 174.926 275.955 175.022 275.735V275.68V275.584C174.486 267.425 172.481 259.445 169.967 251.698C164.844 235.064 158.992 218.594 151.41 202.894C146.781 196.315 152.921 189.626 158.141 185.697C164.61 180.752 172.536 178.211 179.665 174.338C182.687 172.676 185.928 171.467 188.634 169.228C191.601 165.149 192.81 160.094 193.964 155.382C195.79 147.333 196.683 139.174 197.59 131.029C198.043 126.702 198.469 122.362 198.785 118.021C198.812 117.801 198.826 117.431 198.854 117.403C199.183 116.675 199.417 115.961 199.678 115.205C199.842 114.752 199.554 114.216 199.114 114.065C198.922 113.969 198.579 114.01 198.51 114.038C196.189 114.615 193.812 114.738 191.738 113.461V113.516ZM191.313 114.244C193.414 115.549 195.996 115.576 198.29 114.986C198.538 114.944 198.854 114.876 198.812 114.903C198.867 114.931 198.881 114.972 198.867 115.013C198.62 115.961 197.933 117.087 197.933 118.021C197.59 122.348 197.288 126.688 196.807 131.015C195.928 139.119 194.623 147.223 192.631 155.121C191.368 159.737 190.063 164.393 187.274 168.212C181.176 172.085 174.321 174.956 167.824 178.143C164.02 179.736 160.27 181.796 157.069 184.392C152.578 188.183 146.85 194.117 149.158 200.587C157.852 216.836 163.731 234.418 169.184 251.972C171.616 259.692 173.799 267.672 173.951 275.818C174.047 275.625 173.731 276.312 174.17 275.392C169.569 278.056 164.281 279.554 159.075 280.859C151.218 282.672 143.141 283.647 135.092 283.221C129.776 282.809 124.433 282.246 119.337 280.611C116.81 279.732 114.406 278.482 112.263 276.889L112.552 277.425C113.733 261.422 113.857 244.5 114.928 228.498C115.148 222.344 116.425 216.301 116.7 210.174C116.274 200.518 115.313 188.623 116.906 180.079L138.842 175.134L139.089 175.08C139.185 174.613 139.336 173.994 139.694 173.692C139.762 173.665 139.776 173.651 139.872 173.692L140.051 173.747C142.042 173.198 144.062 172.772 146.04 172.483C149.061 171.742 152.083 172.552 155.16 172.483C163.498 171.742 171.148 167.676 177.934 163.02C180.86 161.467 182.206 157.965 183.469 155.218C186.642 147.512 188.524 139.38 189.458 131.166C189.87 127.046 190.063 122.897 189.678 118.763C189.582 117.211 188.895 115.617 188.126 114.258C187.714 113.585 187.329 113.118 187.261 112.417C187.261 112.376 187.315 112.321 187.37 112.321C188.689 112.802 190.104 113.502 191.34 114.244H191.313Z" fill="black"/>
<path d="M115.944 168.637C110.642 167.222 95.7255 164.379 89.0224 174.667C88.418 175.588 87.9922 176.604 87.6763 177.662C86.3989 181.933 81.454 195.999 70.6165 199.749C69.4215 200.161 69.3665 201.85 70.5616 202.29C74.1603 203.581 80.3826 204.199 87.8549 198.183C89.2422 197.07 90.1213 195.436 90.3273 193.678C90.5059 192.167 90.7806 190.244 91.1927 188.746C91.4399 187.826 92.7585 187.771 93.0745 188.678C93.4316 189.708 93.775 191.013 93.7887 192.414C93.7887 193.032 94.3244 193.499 94.9288 193.403C96.5221 193.156 99.2693 191.919 100.327 186.48C100.602 185.051 101.096 183.664 101.852 182.428C103.198 180.216 105.753 177.387 110.368 176.178C111.631 175.848 112.936 175.684 114.241 175.656C116.041 175.615 120.299 175.189 119.31 171.824C118.856 170.244 117.538 169.063 115.944 168.637Z" fill="url(#paint1_linear_798_5426)"/>
<path d="M116.082 168.129C106.92 166.069 94.9561 165.368 88.8437 173.953C87.3877 175.739 86.9756 178.197 86.1515 180.203C84.0499 185.656 81.1654 190.972 76.9073 194.872C75.053 196.548 72.9377 197.908 70.6026 198.76C68.6933 199.227 68.0066 201.809 69.7922 202.949C76.509 205.875 84.4757 202.894 89.4481 198.018C91.7419 195.573 91.2887 191.837 92.1265 189.007C92.1265 189.035 92.0853 188.911 92.154 189.103L92.3188 189.598C92.5249 190.257 92.676 190.917 92.7584 191.603L92.8545 192.798C92.9782 193.499 93.5276 194.117 94.2556 194.309C98.445 194.612 100.698 189.859 101.22 186.425C102.264 180.752 107.662 176.755 113.28 176.384C115.395 176.233 118.65 176.302 119.804 173.884C120.697 171.274 118.458 168.733 116.068 168.143L116.082 168.129ZM115.821 169.132C117.593 169.571 119.337 171.577 118.733 173.39C118.197 174.502 116.59 174.777 115.409 174.928C113.197 175.011 110.793 175.12 108.664 175.958C104.241 177.497 100.519 181.384 99.5576 186.04C99.0494 188.609 97.9642 191.535 95.3682 192.345C95.1896 192.4 94.9973 192.441 94.805 192.469C94.805 192.469 94.7775 192.455 94.7775 192.414C94.7638 191.068 94.5028 189.722 94.0633 188.444C93.8435 187.441 92.4562 186.713 91.481 187.139C91.1376 187.263 90.8079 187.496 90.5744 187.799C89.1047 190.614 90.1349 194.268 87.9509 196.686C83.4868 200.875 76.7837 203.595 70.8086 201.342C70.6301 201.273 70.5889 200.944 70.7262 200.765C70.6576 200.669 71.674 200.339 72.3333 200.023C77.2645 197.798 80.9868 193.444 83.6104 188.856C85.1213 186.233 86.3575 183.472 87.3602 180.629C88.1706 178.527 88.4179 176.357 89.7777 174.585C95.4368 166.371 107.14 166.522 115.807 169.118L115.821 169.132Z" fill="black"/>
<path d="M108.705 171.426C102.002 171.865 94.3514 174.118 91.1235 180.56C90.9037 180.986 91.0823 181.508 91.5081 181.727C91.9476 181.947 92.4696 181.769 92.6756 181.329C95.4365 175.313 102.634 173.074 108.774 172.428C109.406 172.387 109.351 171.398 108.705 171.426Z" fill="black"/>
<path d="M86.1512 190.395C85.2446 193.54 82.8271 196.383 79.9289 197.977C78.9262 198.567 77.8273 198.966 76.7147 199.337C76.1241 199.515 76.3851 200.449 76.9894 200.298C81.9618 199.24 86.3847 195.834 88.1841 190.958C88.3764 190.408 88.1017 189.804 87.5385 189.598C86.9341 189.378 86.2611 189.763 86.1374 190.395H86.1512Z" fill="black"/>
<path d="M197.907 101.62L192.385 101.071C191.327 100.961 190.27 101.346 189.528 102.115L186.918 104.835C186.149 105.631 185.806 106.758 185.998 107.856L186.616 111.359C186.643 111.551 186.781 111.702 186.973 111.757C188.525 112.238 190.228 113.131 191.52 113.873C193.113 114.807 194.995 115.15 196.808 114.834C197.618 114.697 198.456 114.532 199.198 114.381C199.39 114.34 199.541 114.202 199.596 114.01C200.626 110.246 200.681 106.703 200.558 104.422C200.475 102.953 199.349 101.771 197.893 101.62H197.907Z" fill="#643C3B"/>
<path d="M197.947 101.264L192.027 100.728C190.956 100.728 189.871 101.223 189.17 102.005C187.851 103.503 185.695 104.89 185.544 106.854C185.42 107.829 185.791 108.969 185.887 109.904C186.011 110.357 186.025 111.566 186.368 111.936C186.684 112.294 187.206 112.335 187.577 112.5C189.486 113.145 190.969 114.354 192.92 115.054C194.884 115.769 197.054 115.357 198.991 114.931C199.321 114.89 199.788 114.752 199.966 114.409C200.104 114.162 200.09 114.038 200.131 113.928C200.777 111.387 201.052 108.75 201.038 106.126C201.203 103.915 200.502 101.511 197.947 101.264ZM197.879 101.992C200.021 102.239 200.337 104.327 200.2 106.126C200.172 108.681 199.857 111.222 199.183 113.667C199.101 113.969 199.183 113.859 198.799 113.942C196.917 114.326 195.063 114.738 193.222 114.093C191.464 113.461 189.774 112.17 187.92 111.552C187.659 111.456 187.384 111.359 187.11 111.277C187.11 111.25 187.11 111.359 187.082 111.181C186.945 110.453 186.656 108.997 186.519 108.283C186.121 106.854 186.547 105.632 187.632 104.643L189.651 102.486C190.241 101.786 191.107 101.387 192.013 101.387C193.909 101.538 195.914 101.786 197.851 101.992H197.879Z" fill="black"/>
<path d="M106.769 55.2078C109.475 50.9635 113.87 40.3046 106.453 22.242C105.684 20.3602 106.536 18.2037 108.376 17.3384C110.217 16.473 112.401 17.1873 113.362 18.9729C114.434 20.9371 115.739 23.5057 116.563 25.6622C117.181 27.2831 119.09 27.9698 120.601 27.1457C126.136 24.1376 131.219 19.0416 127.194 6.10252C126.672 4.44049 127.455 2.65484 129.021 1.92685C130.807 1.08897 132.936 1.89938 133.691 3.72623C136.342 10.1546 138.842 27.2144 123.856 35.7305C121.81 36.8981 120.656 39.1782 120.656 41.5408C120.656 45.2494 119.997 51.4717 116.645 59.0676C115.739 61.1142 113.953 62.6801 111.769 63.1059C110.327 63.3944 108.692 63.2158 107.332 61.801C105.615 60.0428 105.45 57.2819 106.783 55.2078H106.769Z" fill="url(#paint2_linear_798_5426)"/>
<path d="M107.497 55.6748C114.008 45.0295 110.807 32.0355 106.535 21.253C106.082 18.6294 109.049 16.4042 111.453 17.5855C113.664 18.7256 114.433 22.0359 115.615 24.1375C115.999 24.9067 116.233 25.9506 116.782 26.6648C118.211 28.4368 120.436 27.9148 122.043 26.7198C127.07 23.9726 129.694 18.2448 129.034 12.6269C128.842 10.8 128.554 8.97319 128.046 7.21501L127.688 5.89638C127.372 4.79752 127.771 3.52009 128.664 2.8333C129.831 1.84433 131.768 2.03663 132.702 3.24538C133.155 3.78107 133.375 4.68763 133.677 5.51178C134.982 9.72865 135.339 14.2615 134.749 18.6157C133.842 25.7171 129.46 31.802 123.197 35.2497C121.452 36.3348 120.312 38.2166 119.969 40.1946C119.735 42.0077 119.859 43.8208 119.571 45.6339C118.76 50.6887 117.593 56.1418 114.736 60.4411C110.848 64.8365 104.571 61.018 107.483 55.7022L107.497 55.6748ZM106.041 54.7407C104.269 57.378 104.873 61.3614 107.579 63.147C110.244 65.0013 114.049 63.8613 116.04 61.5674C117.373 60.0977 117.909 58.2571 118.623 56.4852C119.914 53.0512 120.793 49.4525 121.219 45.785C121.645 42.5983 120.779 38.4639 124.021 36.5271C130.477 32.9558 135.257 26.1841 136.067 18.7668C136.617 13.2999 136.301 7.3249 133.608 2.46244C130.848 -0.861615 125.395 2.02289 126.644 6.18483C128.32 11.5006 129.309 17.9564 125.614 22.6403C123.76 24.838 118.43 29.9477 116.672 25.1402C116.178 23.9177 115.573 22.5853 114.983 21.4178C114.09 19.8244 113.513 17.8053 111.686 17.0361C108.17 15.4427 104.544 19.2613 106.247 22.7089C110.216 32.7635 112.002 45.1394 106.027 54.727L106.041 54.7407Z" fill="black"/>
<path d="M141.411 63.3804C141.411 63.3804 148.471 75.1245 151.204 93.3793C152.289 100.632 154.363 107.719 157.605 114.299C160.517 120.219 164.473 126.098 169.335 128.241C170.901 128.927 171.423 130.864 170.366 132.197C168.085 135.081 161.616 138.075 143.251 132.746C143.251 132.746 123.691 127.705 118.458 117.554C118.458 117.554 120.601 80.9759 141.397 63.3667L141.411 63.3804Z" fill="url(#paint3_linear_798_5426)"/>
<path d="M141.369 63.5862C141.369 63.5862 141.314 63.6274 141.301 63.6274C141.301 63.6274 141.328 63.6961 141.342 63.7236L141.465 63.9571C145.215 71.2782 147.743 79.19 149.405 87.2392C150.819 95.5768 151.973 104.093 155.476 111.922C158.388 118.419 161.849 125.466 168.401 129.023C169.225 129.326 170.05 130.054 169.734 131.029C168.58 133.158 165.956 133.886 163.649 134.284C155.49 135.232 147.193 132.705 139.446 130.232C132.043 127.746 123.032 123.323 118.939 117.595C120.724 98.1179 126.617 77.2395 141.356 63.5999L141.369 63.5862ZM141.438 63.1741C125.917 76.5665 120.038 97.9393 117.95 117.678C123.527 130.507 151.053 138.226 164.02 136.564C167 136.07 170.723 134.751 171.89 131.633C172.412 129.902 171.437 127.979 169.816 127.265C159.885 122.101 154.322 105.755 152.275 95.2746C150.572 84.5058 147.44 73.7781 142.125 64.1906L141.864 63.7236L141.726 63.4901L141.644 63.3527C141.589 63.2703 141.507 63.2016 141.438 63.1604V63.1741Z" fill="black"/>
<path d="M52.3344 91.8554C52.2932 90.9214 52.4169 90.0011 52.6778 89.0945C54.3948 83.1607 62.6363 61.0599 91.7423 51.8844C91.7423 51.8844 114.654 44.9753 137.249 60.2907C140.037 62.1862 142.441 64.6174 144.295 67.4333C145.793 69.7134 147.509 72.4056 148.114 73.7517C150.202 78.3669 151.081 78.9163 154.789 80.9904C158.498 83.0783 162.591 96.5393 161.602 104.259C161.602 104.259 160.572 127.665 138.554 145.906C138.554 145.906 137.771 147.499 138.004 150.892C138.21 153.79 137.716 156.702 136.411 159.312L136.342 159.435C133.224 165.575 125.972 168.377 119.543 165.891C117.497 165.094 115.835 163.487 115.107 161.413C113.994 158.199 111.343 153.611 105.3 153.598C105.3 153.598 84.6959 153.804 76.8665 146.07C73.3639 142.623 69.202 139.917 64.4494 138.667L64.051 138.557C55.3288 140.576 54.0377 137.458 53.6943 128.516L52.3207 91.8554H52.3344Z" fill="url(#paint4_linear_798_5426)"/>
<path d="M52.8284 91.8412C53.4465 85.4678 57.4299 79.5477 61.0287 74.4105C68.7482 63.834 80.2175 56.348 92.6484 52.502C106.164 49.2878 120.944 51.4855 133.045 58.3259C136.534 60.3863 140.092 62.6115 142.537 65.9081C144.432 68.4904 146.287 71.3749 147.688 74.2457C148.388 75.7566 149.089 77.3362 150.311 78.6686C151.561 79.9872 153.127 80.7839 154.5 81.6355C155.613 82.4184 156.451 83.9019 157.138 85.3167C159.734 91.1132 161.217 97.9398 160.572 104.245C159.02 118.104 151.973 131.167 142.564 141.331C141.163 142.842 139.611 144.202 138.127 145.658C137.276 147.814 137.523 150.026 137.633 152.031C137.894 158.075 134.213 164.242 128.251 166.001C124.529 167.168 119.763 166.729 116.906 163.899C115.409 162.415 115.189 160.259 114.145 158.487C113.128 156.66 111.686 154.93 109.694 153.954C105.848 152.169 101.439 152.924 97.3735 152.141C91.4122 151.303 85.2723 150.52 79.9428 147.636C79.1187 147.292 78.2121 146.482 77.4978 145.946C73.693 142.457 69.2564 139.394 64.1467 138.199C61.1248 138.735 56.7568 139.779 55.2459 136.208C53.9685 133.076 54.1471 129.546 53.941 126.181L53.7075 119.313L52.8284 91.8412ZM51.8257 91.8824L52.9932 119.34L53.268 126.208C53.6663 130.329 52.6636 136.922 57.1414 139.065C59.1057 139.958 62.677 139.339 63.9544 138.941C68.913 140.15 73.281 143.034 76.7973 146.702C79.0774 148.913 81.962 150.438 84.9289 151.537C90.849 153.734 97.1262 154.435 103.376 154.421C105.436 154.38 107.304 154.215 109.186 155.026C110.972 155.74 112.483 157.141 113.54 158.844C114.694 160.547 115.01 162.786 116.576 164.215C123.087 170.121 134.46 166.152 137.303 158.185C138.594 155.3 138.471 152.031 138.443 148.968C138.498 147.993 138.663 146.949 139.007 146.152L138.883 146.317C148.649 138.708 156.437 128.447 160.118 116.538C162.508 109.354 163.621 101.635 161.794 94.2312C160.489 89.3962 159.308 83.8607 155.201 80.4954C153.745 79.6576 152.262 78.957 151.218 77.8444C150.174 76.7318 149.459 75.2484 148.759 73.7787C147.207 70.7293 145.407 68.0234 143.361 65.29C139.721 60.6198 134.336 57.7216 129.131 55.1118C117.675 49.9197 104.64 48.2027 92.2638 50.9224C79.3522 54.686 67.3334 62.2544 59.5864 73.3803C56.7294 77.5423 54.4355 82.0751 52.8284 86.8551C52.279 88.4622 51.7296 90.1654 51.8532 91.8961L51.8257 91.8824Z" fill="black"/>
<path d="M52.5538 90.3167C52.5538 90.3167 46.5788 130.645 7.4044 169.86C5.87973 171.385 6.11324 173.94 7.92636 175.121C12.885 178.377 23.8598 182.786 42.6229 176.797C42.6229 176.797 54.0785 172.731 63.3639 164.819C65.6577 162.855 67.3747 160.314 68.295 157.43C69.9158 152.347 71.6877 143.007 69.6686 129.189" fill="url(#paint5_linear_798_5426)"/>
<path d="M51.9359 90.234C46.6476 114.011 34.3129 135.905 19.1487 154.778C17.8712 156.289 14.4785 160.259 13.2285 161.715C11.2781 163.871 7.58315 167.456 5.75629 169.737C4.57501 171.577 4.86346 174.159 6.44308 175.684C8.16005 177.14 10.2479 178.033 12.2945 178.885C22.3353 182.689 33.3514 181.206 43.3236 177.951C51.098 174.819 58.3505 170.739 64.614 165.108C70.8088 159.036 71.0423 149.504 71.1248 141.413C71.0423 137.293 70.5891 133.199 69.8473 129.161C69.8336 129.065 69.7374 128.996 69.6413 129.01C69.5451 129.024 69.4902 129.12 69.4902 129.216C69.916 133.282 70.1495 137.348 70.0259 141.4C69.9023 145.452 69.4078 149.49 68.515 153.405C67.6633 157.265 66.2348 160.973 63.1992 163.569C53.9551 171.083 42.7192 176.701 30.7554 178.005C23.9287 178.802 16.7998 178.266 10.6462 175.094C9.4512 174.393 7.59689 173.761 7.80293 172.058C7.83039 171.344 8.44851 170.767 8.90179 170.286L13.1461 165.794C27.1429 150.809 38.6122 133.117 46.263 114.093C49.2574 106.428 51.8398 98.5991 53.1721 90.4126C53.2271 90.0692 52.9936 89.7533 52.6639 89.6983C52.3205 89.6434 52.0046 89.8906 51.9496 90.234H51.9359Z" fill="black"/>
<path d="M141.918 141.894C139.226 145.383 134.954 147.649 130.545 147.938C130.325 147.951 130.339 148.309 130.572 148.295C134.034 148.226 137.44 147.017 140.174 144.902C141.094 144.188 141.946 143.432 142.715 142.485C142.893 142.265 142.866 141.963 142.646 141.784C142.413 141.592 142.069 141.647 141.904 141.894H141.918Z" fill="black"/>
<path d="M115.298 98.9694C118.69 106.194 116.561 116.139 109.336 119.532C102.111 122.925 92.5102 118.474 89.1174 111.249C85.7247 104.024 87.8263 94.0382 95.065 90.6455C102.29 87.2528 111.905 91.7444 115.298 98.9694Z" fill="white"/>
<path d="M114.378 99.4091C120.133 110.975 110.931 125.164 97.7579 118.831C90.4917 115.713 86.6457 107.28 88.8572 99.7662C92.3461 86.4013 109.049 88.7776 114.378 99.4091ZM116.233 98.5437C112.043 88.7639 96.8651 84.341 89.9835 93.7087C83.5689 102.349 87.3188 115.837 97.3871 119.697C111.48 125.562 121.672 111.469 116.246 98.53L116.233 98.5437Z" fill="black"/>
<path d="M104.634 99.2096C103.346 96.4622 103.577 93.6371 105.15 92.8997C106.723 92.1622 109.042 93.7916 110.33 96.539C111.618 99.2864 111.388 102.112 109.815 102.849C108.242 103.586 105.922 101.957 104.634 99.2096Z" fill="#429195"/>
<path d="M148.525 83.3935C151.918 90.6185 151.52 99.272 147.069 101.346C142.619 103.434 135.806 98.1732 132.427 90.9481C129.034 83.7231 129.625 75.4817 134.075 73.3938C138.526 71.306 145.146 76.1547 148.539 83.3935H148.525Z" fill="white"/>
<path d="M148.031 83.6271C150.174 88.2698 152.372 97.7475 147.083 100.907C144.213 102.28 140.985 100.398 138.773 98.4892C133.114 93.4207 129.625 84.9457 131.782 77.4735C135.504 68.1469 145.778 78.0504 148.031 83.6271ZM149.034 83.1601C146.493 77.7207 140.339 69.9875 133.512 72.7759C130.175 74.534 129.295 78.5723 129.378 81.9788C129.831 90.1516 134.639 98.6815 142.399 101.827C145.998 103.187 149.405 101.25 150.449 97.6376C152.124 92.8987 151.012 87.6379 149.02 83.1738L149.034 83.1601Z" fill="black"/>
<path d="M139.31 82.9411C138.022 80.1937 138.253 77.3686 139.826 76.6311C141.399 75.8936 143.718 77.523 145.006 80.2705C146.295 83.0179 146.064 85.843 144.491 86.5804C142.918 87.3179 140.599 85.6885 139.31 82.9411Z" fill="#429195"/>
<path d="M127.455 62.886C128.471 63.1745 129.378 62.9409 130.339 62.886C133.265 62.7074 136.149 63.3118 138.91 64.3008C139.446 64.4931 139.831 63.6964 139.336 63.3942C136.671 61.7047 133.416 60.7844 130.229 60.9355C129.158 60.9905 128.032 61.0317 127.111 61.9245C126.768 62.2404 127.001 62.8173 127.441 62.8585L127.455 62.886Z" fill="black"/>
<path d="M86.7833 78.9702C84.7366 79.6021 84.1048 81.58 83.0059 83.1322C80.1352 87.9122 78.5006 93.4477 78.4045 99.0244C78.4045 99.2991 78.6105 99.5326 78.8852 99.5326C79.1462 99.5326 79.3522 99.3541 79.3934 99.1068C80.2725 93.8598 82.0307 88.7638 84.8328 84.2448C85.6707 82.6102 87.1816 81.5938 87.4838 79.657C87.5799 79.2449 87.1816 78.8466 86.7695 78.9565L86.7833 78.9702Z" fill="black"/>
<path d="M129.021 107.733C130.848 106.003 134.048 103.283 136.589 102.816C138.004 102.555 139.364 103.475 139.68 104.876C139.968 106.167 140.119 108.283 138.677 110C137.976 110.838 137.001 111.373 135.957 111.662C134.405 112.088 131.85 112.349 129.268 110.632C128.265 109.972 128.142 108.544 129.007 107.72L129.021 107.733Z" fill="black"/>
<path d="M136.081 110.617C137.015 111.991 136.906 113.763 137.565 115.233C137.73 115.672 137.84 115.851 137.922 116.579C137.922 116.936 138.169 117.279 138.554 117.238C139.46 117.018 139.927 115.947 139.79 115.013C139.419 113.117 137.482 112.032 136.988 110.192C136.754 109.464 135.683 109.972 136.081 110.617Z" fill="black"/>
<path d="M63.2265 75.6186C58.2404 74.9868 47.2243 71.5528 38.0901 54.3007C37.1423 52.5013 34.9309 51.7871 33.0903 52.6387C31.2497 53.5041 30.398 55.6331 31.1535 57.5149C31.9777 59.6027 33.1177 62.24 34.2578 64.2454C35.1094 65.7426 34.4226 67.6656 32.8155 68.2975C26.9641 70.6325 14.6019 73.7093 7.23957 62.3361C6.29181 60.8802 4.42374 60.3307 2.85786 61.0725C1.07222 61.9103 0.33049 64.0669 1.25079 65.8113C4.49242 71.9649 14.0525 83.8738 37.3346 76.2917C39.5735 75.5637 42.0322 76.0307 43.8454 77.5416C46.7024 79.9179 51.8945 83.3793 59.8887 85.6595C62.0315 86.2638 64.3803 85.9067 66.111 84.4919C67.2511 83.5579 68.1576 82.198 67.9516 80.2476C67.6906 77.8026 65.6715 75.9071 63.2402 75.6049L63.2265 75.6186Z" fill="url(#paint6_linear_798_5426)"/>
<path d="M63.3225 74.9046C51.9355 73.3937 43.5842 63.8336 38.3921 54.1911C36.0158 49.7957 29.299 52.5978 30.755 57.3916C31.6753 60.0838 33.0763 62.5974 34.1889 65.1523C34.6834 68.2977 30.5489 68.5587 28.3924 69.2867C20.5218 71.402 12.1705 69.2043 7.80254 61.993C5.16527 57.9273 -1.13944 60.853 0.261604 65.5094C4.4098 74.9046 14.1897 80.1242 24.258 79.7259C28.1589 79.6435 32.0324 79.0116 35.7273 77.8716C38.2135 77.02 40.7546 76.4705 42.9386 78.1875C47.7873 82.1709 53.6525 84.9317 59.6962 86.5663C63.2675 87.624 67.9377 85.7559 68.7069 81.8137C69.3524 78.4759 66.619 75.1931 63.3362 74.8909L63.3225 74.9046ZM63.1439 76.3469C65.6163 76.6353 67.608 79.0666 67.0998 81.5253C66.4405 84.4235 62.828 85.6597 60.177 84.8219C55.3008 83.3659 50.5345 81.2231 46.4275 78.2424C44.8479 77.0886 43.2957 75.4953 41.2491 75.1244C39.2437 74.5475 36.9635 75.2892 35.1504 75.8387C31.5791 76.9238 27.8979 77.5556 24.2168 77.693C16.8681 78.0501 9.43708 75.2892 4.72572 69.5202C3.61313 68.1741 2.47307 66.5945 1.77254 65.0286C1.25059 63.6276 2.18461 61.8969 3.69554 61.5672C4.7944 61.2788 6.04435 61.7733 6.6762 62.7348L7.55528 63.916C12.2117 70.5779 21.1262 72.3086 28.6122 70.1246C30.4665 69.534 32.5132 69.2318 34.0653 67.9681C35.274 66.8418 35.2466 64.8501 34.3263 63.6001L33.6807 62.3502C32.8565 60.6744 32.0736 58.9025 31.4006 57.1855C30.1094 53.1197 35.8372 50.7022 37.8564 54.4796C43.1584 64.4655 51.3311 74.4926 63.1576 76.3469H63.1439Z" fill="black"/>
<path d="M107.951 95.6732C107.61 95.6732 107.333 95.3965 107.333 95.0551C107.333 94.7137 107.61 94.437 107.951 94.437C108.292 94.437 108.569 94.7137 108.569 95.0551C108.569 95.3965 108.292 95.6732 107.951 95.6732Z" fill="white"/>
<path d="M142.854 79.3007C142.512 79.3007 142.236 79.0239 142.236 78.6826C142.236 78.3412 142.512 78.0645 142.854 78.0645C143.195 78.0645 143.472 78.3412 143.472 78.6826C143.472 79.0239 143.195 79.3007 142.854 79.3007Z" fill="white"/>
<path d="M137.702 104.78C137.36 104.78 137.084 104.503 137.084 104.162C137.084 103.82 137.36 103.543 137.702 103.543C138.043 103.543 138.32 103.82 138.32 104.162C138.32 104.503 138.043 104.78 137.702 104.78Z" fill="white"/>
<path d="M139.172 129.133C137.245 129.133 135.683 126.003 135.683 122.142C135.683 118.281 137.245 115.15 139.172 115.15C141.098 115.15 142.66 118.281 142.66 122.142C142.66 126.003 141.098 129.133 139.172 129.133Z" fill="#020202" stroke="black" stroke-width="1.44" stroke-miterlimit="10" stroke-linecap="round"/>
<path d="M151.699 204.597C151.699 204.597 148.471 198.32 147.125 196.383L151.699 204.597Z" fill="#D1744E"/>
<path d="M152.138 204.378C151.754 203.883 146.85 194.31 146.919 196.521C148.539 199.172 149.872 202.043 151.245 204.831C151.52 205.436 152.468 204.955 152.138 204.378Z" fill="black"/>
<path d="M116.315 182.278C116.315 182.278 114.53 186.303 113.156 187.923C113.156 187.923 105.601 195.327 105.533 202.607C105.533 202.607 106.536 210.313 88.8576 235.751C87.745 237.345 87.9373 239.515 89.3109 240.875C93.7063 245.229 102.978 255.325 108.101 267.563C108.362 268.195 108.239 268.909 107.799 269.418C107.415 269.857 106.838 270.407 106.055 271.011C107.937 271.203 109.791 271.615 110.011 272.467C110.011 272.467 112.085 276.725 112.442 281.066C113.101 280.063 113.733 278.923 114.282 277.645C114.667 276.766 114.846 275.805 114.832 274.843C114.75 270.352 113.554 256.273 102.442 241.232C101.618 240.119 101.412 238.677 101.92 237.386C103.788 232.62 109.118 220.793 118.898 211.563" fill="url(#paint7_linear_798_5426)"/>
<path d="M115.67 181.989C114.873 183.884 113.994 185.958 112.758 187.579C110.959 189.502 109.063 191.961 107.662 194.392C106.275 196.878 105.148 199.612 105.025 202.592C105.025 204.048 104.558 205.765 104.008 207.304C101.11 215.064 96.5498 222.097 92.1131 229.061C91.2203 230.462 90.2725 231.836 89.3385 233.209L87.9237 235.311C86.7562 237.069 86.8936 239.555 88.2397 241.19C92.3329 245.365 96.2201 249.678 99.5991 254.445C102.594 258.648 105.272 263.084 107.36 267.796C107.841 268.977 106.385 269.691 105.615 270.433L104.242 271.518C105.382 271.601 106.934 271.793 108.019 272.04C108.431 272.123 109.255 272.452 109.283 272.603C110.835 275.817 111.673 279.43 111.92 282.988C113.266 281.037 114.695 279.224 115.436 276.916C116.316 271.903 115.066 266.779 113.939 261.917C111.934 254.266 108.294 247.096 103.637 240.723C102.813 239.734 102.717 238.497 103.294 237.357C107.058 228.031 112.25 219.24 119.159 211.85C119.488 211.52 118.98 210.957 118.623 211.287C113.568 215.531 109.434 220.806 105.986 226.437C104.283 229.281 102.745 232.22 101.44 235.256L100.959 236.396C100.011 238.278 100.245 240.585 101.577 242.22C107.896 250.942 112.387 261.161 113.665 271.903C113.802 273.386 114.104 275.021 113.774 276.463C113.404 277.85 112.593 279.375 111.851 280.666L113.143 280.996C112.923 278.125 111.728 274.362 110.684 272.274C109.942 270.502 107.676 270.57 106.124 270.296L106.481 271.559H106.494C107.786 270.612 109.667 269.032 108.788 267.191C106.783 262.302 104.187 257.659 101.151 253.346C98.253 249.198 95.0389 245.269 91.5088 241.629C91.1104 241.176 90.1627 240.311 89.8193 239.898C89.0226 238.937 88.9402 237.454 89.627 236.41C94.8328 228.8 99.9288 221.026 103.445 212.454C104.681 209.199 105.986 206.136 106.041 202.523C106.041 200.188 107.085 197.084 108.431 194.845C110.203 191.315 113.527 188.856 115.395 185.464C115.945 184.502 116.439 183.541 116.947 182.565C117.126 182.222 116.989 181.796 116.645 181.618C116.274 181.425 115.807 181.618 115.67 182.002V181.989Z" fill="black"/>
<path d="M113.61 173.732C113.61 173.732 117.497 167.194 113.884 163.802C113.143 163.101 112.483 162.318 112.071 161.384C112.071 161.357 112.044 161.329 112.03 161.302C111.055 158.994 112.689 156.412 115.189 156.247C116.343 156.164 117.936 156.302 119.997 156.975C123.074 157.991 126.425 157.895 129.337 156.467C130.463 155.917 131.658 155.162 132.908 154.132C133.774 153.417 134.749 152.854 135.793 152.47C137.702 151.769 140.133 151.618 140.12 155.34C140.12 155.34 140.669 158.637 139.103 162.483C138.032 165.134 138.265 168.17 139.955 170.477C140.367 171.04 140.848 171.631 141.425 172.263C141.425 172.263 144.721 175.71 135.12 180.793C135.12 180.793 130.202 183.787 124.117 183.718C120.931 183.677 117.813 182.578 115.45 180.422C113.692 178.801 112.25 176.493 113.582 173.719L113.61 173.732Z" fill="url(#paint8_linear_798_5426)"/>
<path d="M114.337 174.131C115.78 171.343 117.03 167.607 115.326 164.571C114.804 163.61 113.884 163.033 113.266 162.181C112.044 160.739 112.016 158.679 113.5 157.47C117.016 155.259 121.301 158.775 125.216 158.019C127.345 157.855 129.406 157.058 131.164 155.904C133.485 154.16 139.652 149.503 139.68 155.355C139.955 157.662 139.543 160.135 138.636 162.305C137.166 165.588 138.004 169.612 140.532 172.181C142.578 174.118 140.133 176.686 138.348 177.936C132.139 182.469 122.249 185.422 115.931 179.64C114.337 178.225 113.362 176.123 114.337 174.131ZM112.881 173.349C111.453 175.917 112.648 179.131 114.681 180.931C118.458 184.653 124.268 185.312 129.158 184.007C133.499 183.073 146.479 176.975 141.479 171.343C139.185 169.104 138.348 165.725 139.584 162.703C140.49 160.464 140.861 157.498 140.559 155.368C140.641 150.396 136.067 151.261 133.183 153.432C130.848 155.382 128.197 157.017 125.134 157.209C122.029 157.649 119.172 155.863 116.068 155.753C110.917 155.437 109.626 161.124 113.307 164.214C115.835 166.714 114.392 170.615 112.868 173.376L112.881 173.349Z" fill="black"/>
<path d="M138.773 162.126C135.01 164.187 130.807 166.014 127.483 168.788C126.356 169.777 125.381 170.931 124.53 172.153C124.433 172.277 124.475 172.469 124.598 172.552C124.722 172.634 124.873 172.607 124.969 172.511C126.974 170.464 129.241 168.706 131.878 167.579C134.57 166.22 137.386 165.244 139.46 162.854C139.831 162.415 139.241 161.797 138.787 162.126H138.773Z" fill="black"/>
<path d="M121.041 174.502C124.64 180.902 136.37 174.392 139.776 170.449C139.982 170.202 139.612 169.873 139.392 170.106C136.933 172.359 133.705 173.609 130.615 174.776C127.785 175.916 124.186 176.191 121.92 174.035C121.577 173.526 120.78 173.938 121.041 174.502Z" fill="black"/>
<path d="M114.063 173.801C117.002 169.543 119.461 164.186 124.832 162.593C125.093 162.524 125.01 162.099 124.736 162.14C121.906 162.524 119.475 164.31 117.565 166.329C115.752 168.444 113.843 170.615 113.156 173.389C113.033 173.911 113.761 174.227 114.063 173.801Z" fill="black"/>
</g>
<defs>
<linearGradient id="paint0_linear_798_5426" x1="175.509" y1="282.658" x2="137.316" y2="116.433" gradientUnits="userSpaceOnUse">
<stop stop-color="#643C3B"/>
<stop offset="0.03" stop-color="#72453D"/>
<stop offset="0.12" stop-color="#996044"/>
<stop offset="0.22" stop-color="#B87449"/>
<stop offset="0.3" stop-color="#CF834D"/>
<stop offset="0.39" stop-color="#DC8C50"/>
<stop offset="0.47" stop-color="#E19051"/>
</linearGradient>
<linearGradient id="paint1_linear_798_5426" x1="93.3748" y1="201.752" x2="97.1011" y2="154.511" gradientUnits="userSpaceOnUse">
<stop stop-color="#487E50"/>
<stop offset="0.07" stop-color="#518A58"/>
<stop offset="0.21" stop-color="#61A167"/>
<stop offset="0.34" stop-color="#6AAE6F"/>
<stop offset="0.47" stop-color="#6EB373"/>
</linearGradient>
<linearGradient id="paint2_linear_798_5426" x1="130.141" y1="53.5902" x2="109.424" y2="9.40288" gradientUnits="userSpaceOnUse">
<stop offset="0.56" stop-color="#F9E9B3"/>
<stop offset="0.61" stop-color="#F3D9A5"/>
<stop offset="0.79" stop-color="#E1A276"/>
<stop offset="0.93" stop-color="#D58059"/>
<stop offset="1" stop-color="#D1744E"/>
</linearGradient>
<linearGradient id="paint3_linear_798_5426" x1="140.936" y1="135.625" x2="154.825" y2="81.686" gradientUnits="userSpaceOnUse">
<stop stop-color="#643C3B"/>
<stop offset="0.03" stop-color="#72453D"/>
<stop offset="0.12" stop-color="#996044"/>
<stop offset="0.22" stop-color="#B87449"/>
<stop offset="0.3" stop-color="#CF834D"/>
<stop offset="0.39" stop-color="#DC8C50"/>
<stop offset="0.47" stop-color="#E19051"/>
</linearGradient>
<linearGradient id="paint4_linear_798_5426" x1="128.216" y1="157.198" x2="79.8419" y2="54.0241" gradientUnits="userSpaceOnUse">
<stop stop-color="#643C3B"/>
<stop offset="0.02" stop-color="#7C4C3F"/>
<stop offset="0.05" stop-color="#9B6144"/>
<stop offset="0.08" stop-color="#B47249"/>
<stop offset="0.11" stop-color="#C87F4C"/>
<stop offset="0.15" stop-color="#D6884F"/>
<stop offset="0.2" stop-color="#DE8E50"/>
<stop offset="0.28" stop-color="#E19051"/>
</linearGradient>
<linearGradient id="paint5_linear_798_5426" x1="49.5187" y1="184.881" x2="25.6328" y2="114.876" gradientUnits="userSpaceOnUse">
<stop stop-color="#643C3B"/>
<stop offset="0.06" stop-color="#835140"/>
<stop offset="0.15" stop-color="#A56746"/>
<stop offset="0.23" stop-color="#BF794B"/>
<stop offset="0.32" stop-color="#D2864E"/>
<stop offset="0.41" stop-color="#DD8D50"/>
<stop offset="0.51" stop-color="#E19051"/>
</linearGradient>
<linearGradient id="paint6_linear_798_5426" x1="46.9325" y1="98.9897" x2="23.7775" y2="49.6038" gradientUnits="userSpaceOnUse">
<stop offset="0.56" stop-color="#F9E9B3"/>
<stop offset="0.61" stop-color="#F3D9A5"/>
<stop offset="0.79" stop-color="#E1A276"/>
<stop offset="0.93" stop-color="#D58059"/>
<stop offset="1" stop-color="#D1744E"/>
</linearGradient>
<linearGradient id="paint7_linear_798_5426" x1="118.378" y1="274.262" x2="108.258" y2="234.388" gradientUnits="userSpaceOnUse">
<stop stop-color="#643C3B"/>
<stop offset="0.03" stop-color="#72453D"/>
<stop offset="0.12" stop-color="#996044"/>
<stop offset="0.22" stop-color="#B87449"/>
<stop offset="0.3" stop-color="#CF834D"/>
<stop offset="0.39" stop-color="#DC8C50"/>
<stop offset="0.47" stop-color="#E19051"/>
</linearGradient>
<linearGradient id="paint8_linear_798_5426" x1="130.129" y1="183.779" x2="124.397" y2="153.703" gradientUnits="userSpaceOnUse">
<stop stop-color="#487E50"/>
<stop offset="0.07" stop-color="#518A58"/>
<stop offset="0.21" stop-color="#61A167"/>
<stop offset="0.34" stop-color="#6AAE6F"/>
<stop offset="0.47" stop-color="#6EB373"/>
</linearGradient>
</defs>
</svg>
