<svg width="150" height="151" viewBox="0 0 150 151" fill="none" xmlns="http://www.w3.org/2000/svg">
<path d="M5.37109 96.663V72.7135C5.37109 62.852 13.3396 54.8835 23.2011 54.8835H128.42C138.282 54.8835 146.25 62.852 146.25 72.7135V125.059C146.25 134.92 138.282 142.889 128.42 142.889H23.2011C13.3396 142.889 5.37109 134.92 5.37109 125.059V117.267" stroke="#201A18" stroke-width="5" stroke-miterlimit="10" stroke-linecap="round"/>
<path d="M73.8736 86.3615C73.0371 85.1288 72.0686 83.9842 70.9679 82.9716C66.0372 78.2609 58.9052 75.7956 51.2449 77.2924C44.4651 78.6572 38.6538 83.4118 35.7922 89.7074C28.7923 105.072 40.8991 120.877 55.7794 120.877C66.6975 120.877 75.7666 112.952 77.4836 102.519C77.8358 100.405 79.5968 98.8645 81.71 98.8645H118.03" stroke="#201A18" stroke-width="5" stroke-miterlimit="10" stroke-linecap="round"/>
<path d="M73.6974 91.1158C76.7367 91.1158 79.2005 88.652 79.2005 85.6127C79.2005 82.5734 76.7367 80.1096 73.6974 80.1096C70.6582 80.1096 68.1943 82.5734 68.1943 85.6127C68.1943 88.652 70.6582 91.1158 73.6974 91.1158Z" fill="#201A18"/>
<path d="M5.50309 118.368C8.54236 118.368 11.0062 115.904 11.0062 112.865C11.0062 109.826 8.54236 107.362 5.50309 107.362C2.46382 107.362 0 109.826 0 112.865C0 115.904 2.46382 118.368 5.50309 118.368Z" fill="#201A18"/>
<path d="M103.326 99.5254V110.047" stroke="#201A18" stroke-width="5" stroke-miterlimit="10" stroke-linecap="round"/>
<path d="M32.27 53.8714C32.27 26.7962 51.905 4.56372 75.8104 4.56372C99.7158 4.56372 119.395 26.7962 119.395 53.8714" stroke="#201A18" stroke-width="5" stroke-miterlimit="10" stroke-linecap="round"/>
</svg>
