<svg width="153" height="153" viewBox="0 0 153 153" fill="none" xmlns="http://www.w3.org/2000/svg">
<path d="M43.5349 90.0651L41.3024 103.033C40.6374 106.785 43.5349 110.205 47.3349 110.205H119.06C122.052 110.205 124.57 108.068 125.092 105.123L133.832 54.2501C134.497 50.4976 131.6 47.0776 127.8 47.0776H52.7974C52.1799 47.0776 51.8949 47.8851 52.3699 48.2651L75.6449 67.0276C79.8724 70.4476 85.6199 71.3501 90.7024 69.3551L121.72 57.2426" stroke="#201A18" stroke-width="5" stroke-miterlimit="10" stroke-linecap="round"/>
<path d="M121.672 63.1327C124.952 63.1327 127.61 60.4744 127.61 57.1952C127.61 53.916 124.952 51.2577 121.672 51.2577C118.393 51.2577 115.735 53.916 115.735 57.1952C115.735 60.4744 118.393 63.1327 121.672 63.1327Z" fill="#201A18"/>
<path d="M47.1926 69.7351C50.4718 69.7351 53.1301 67.0768 53.1301 63.7976C53.1301 60.5184 50.4718 57.8601 47.1926 57.8601C43.9134 57.8601 41.2551 60.5184 41.2551 63.7976C41.2551 67.0768 43.9134 69.7351 47.1926 69.7351Z" fill="#201A18"/>
<path d="M22.9675 63.7976H50.28" stroke="#201A18" stroke-width="5" stroke-miterlimit="10" stroke-linecap="round"/>
<path d="M59.6851 85.5526C62.9642 85.5526 65.6226 82.8943 65.6226 79.6151C65.6226 76.3359 62.9642 73.6776 59.6851 73.6776C56.4059 73.6776 53.7476 76.3359 53.7476 79.6151C53.7476 82.8943 56.4059 85.5526 59.6851 85.5526Z" fill="#201A18"/>
<path d="M20.7825 79.6151H56.17" stroke="#201A18" stroke-width="5" stroke-miterlimit="10" stroke-linecap="round"/>
</svg>
