<svg width="160" height="210" viewBox="0 0 160 210" fill="none" xmlns="http://www.w3.org/2000/svg">
<g clip-path="url(#clip0_710_2274)">
<path d="M15.6809 173.839C15.6809 173.839 14.0565 166.433 3.41698 164.53C1.5143 164.188 0.155243 162.511 0.265262 160.595C0.375281 158.692 1.89613 157.176 3.80529 157.047C9.24152 156.686 19.9392 157.266 25.7703 166.324L26.6763 168.349C28.0418 171.407 26.6957 174.994 23.654 176.407C20.8323 177.717 17.4735 176.717 15.8297 174.078L15.6873 173.846L15.6809 173.839Z" fill="url(#paint0_linear_710_2274)"/>
<path d="M15.4091 173.949C13.9659 169.214 9.41634 166.324 4.83437 165.111C3.89597 164.859 2.47219 164.653 1.68912 164.027C-0.938394 162.234 -0.401243 157.989 2.61457 156.905C4.80201 156.298 7.06711 156.479 9.30632 156.544C16.0434 156.879 22.8904 159.963 26.5469 165.82L26.5858 165.879L26.6117 165.943L27.1423 167.137C30.1193 172.42 25.6733 178.833 19.661 177.413C17.7907 176.929 16.244 175.678 15.4091 173.943V173.949ZM15.9528 173.73C19.6805 179.11 28.0937 175.381 25.958 169.033C25.7445 168.427 25.1879 167.337 24.9225 166.698C21.732 161.724 15.5709 158.356 9.1963 157.692C7.14477 157.498 4.89909 157.189 2.87991 157.627C0.918985 158.24 -0.064714 160.711 0.957816 162.517C2.0127 164.627 4.64022 164.304 6.56878 165.021C10.7495 166.298 14.7296 169.401 15.9592 173.73H15.9528Z" fill="black"/>
<path d="M17.726 207.683C16.5352 206.166 15.6421 204.625 15.0791 203.096C17.273 200.257 19.098 197.483 20.5218 194.838C22.2756 196.664 24.9808 200.18 25.7704 205.141C23.0652 206.141 20.36 206.999 17.726 207.683Z" fill="url(#paint1_linear_710_2274)"/>
<path d="M20.5865 195.393C22.2756 197.225 24.6249 200.476 25.4015 204.934C22.8646 205.87 20.3212 206.67 17.849 207.315C16.7876 205.928 15.9787 204.534 15.4415 203.154C17.4866 200.489 19.2145 197.883 20.5865 195.393ZM20.4377 194.303C18.7486 197.515 16.6517 200.541 14.7102 203.044C15.1826 204.36 16.0369 206.095 17.6031 208.05C20.5218 207.302 23.3758 206.386 26.1263 205.36C25.3238 199.818 22.1333 195.993 20.4377 194.309V194.303Z" fill="black"/>
<path d="M122.587 39.3896C125.926 37.9188 132.864 33.261 135.628 19.4167C135.919 17.9716 137.304 17.0168 138.76 17.2362C140.216 17.4555 141.251 18.7586 141.122 20.2166C140.98 21.8294 140.74 23.9003 140.365 25.526C140.087 26.7452 140.96 27.9258 142.209 28.0355C146.765 28.4355 151.878 27.4033 154.641 18.0039C154.997 16.7975 156.182 16.0362 157.424 16.2169C158.842 16.4298 159.799 17.7716 159.521 19.1651C158.544 24.1003 153.198 35.3705 140.727 34.4996C139.019 34.3835 137.407 35.2931 136.462 36.7188C134.974 38.9574 132.081 42.4346 127.001 45.6602C125.635 46.5247 123.927 46.7569 122.432 46.1376C121.442 45.7312 120.536 44.9699 120.27 43.5765C119.94 41.8282 120.95 40.0993 122.581 39.3832L122.587 39.3896Z" fill="url(#paint2_linear_710_2274)"/>
<path d="M122.335 38.8154C129.796 35.4285 133.68 27.2677 135.323 19.6166C135.705 16.849 139.375 16.0039 140.889 18.378C141.277 18.965 141.413 19.7134 141.329 20.3843C141.213 21.6874 141.057 22.9906 140.837 24.2873C140.766 24.8227 140.501 25.6485 140.552 26.1581C140.611 26.7387 140.973 27.2742 141.478 27.558C142.015 27.8612 142.682 27.8096 143.284 27.8419C144.571 27.8677 145.859 27.7387 147.063 27.3322C151.179 25.9839 153.172 21.7003 154.292 17.8361C155.217 14.8362 159.638 15.262 159.993 18.3844C160.084 19.4295 159.631 20.4488 159.372 21.4229C158.395 24.255 156.906 26.9129 154.926 29.1837C151.969 32.6545 147.568 34.8157 143.005 35.0737C142.682 35.0737 140.876 35.0608 140.514 35.0544C138.637 34.9705 137.239 36.422 136.339 37.9316C133.977 41.1637 130.948 43.8732 127.59 46.0343C125.266 47.789 121.111 47.46 119.888 44.4989C118.976 42.3313 120.205 39.6928 122.335 38.8154ZM122.839 39.9573C121.293 40.6024 120.406 42.4732 121.053 44.0344C121.713 45.615 123.733 46.144 125.312 45.7182C126.483 45.4215 127.486 44.557 128.489 43.8925C131.35 41.8281 133.938 39.3702 135.925 36.4607C136.915 34.9447 138.656 33.8802 140.533 33.9383C140.889 33.9447 142.636 33.977 142.947 33.9835C147.244 33.777 151.347 31.8094 154.188 28.5515C156.091 26.4097 157.56 23.855 158.518 21.152C158.738 20.3327 159.172 19.3263 159.126 18.4812C158.9 16.2491 155.709 15.933 155.03 18.0748C153.166 24.3647 149.432 29.1321 142.267 28.287C140.747 28.2419 139.705 26.5581 140.222 25.1775C140.559 23.5905 140.74 21.9713 140.895 20.3585C140.973 19.7392 140.857 19.1263 140.52 18.6167C139.886 17.5716 138.449 17.12 137.343 17.6425C136.475 18.0167 135.951 18.8102 135.815 19.7327L135.608 20.694C134.01 28.3451 130.321 36.4607 122.839 39.9702V39.9573Z" fill="black"/>
<path d="M93.3931 47.3696C93.3931 47.3696 86.0995 54.0982 80.4886 66.2265C78.2623 71.0391 75.3824 75.5421 71.7971 79.458C68.5742 82.9803 64.6264 86.264 60.8016 86.7736C59.5785 86.9349 58.8148 88.1736 59.2808 89.3154C60.2839 91.7798 64.1799 95.1667 78.0552 95.1667C78.0552 95.1667 92.7007 95.6183 98.4022 89.6251C98.4022 89.6251 104.317 63.7944 93.3931 47.3696Z" fill="url(#paint3_linear_710_2274)"/>
<path d="M93.3738 47.5245C93.3738 47.5245 93.4061 47.5632 93.4126 47.5632C93.4191 47.5632 93.3738 47.6019 93.3608 47.6148L93.2249 47.7503C89.1283 52.0791 85.763 57.0659 82.9802 62.3107C80.3009 67.8136 77.7769 73.4971 73.7515 78.2258C70.4057 82.1482 66.5679 86.3415 61.2806 87.4898L60.8858 87.5608C60.3745 87.6253 59.9344 88.0962 59.9474 88.6123C60.3163 90.3283 62.0054 91.367 63.5262 92.1024C69.0207 94.4055 75.3112 94.3281 81.2005 94.1797C86.9085 93.9346 93.9756 92.7153 98.0399 89.5477C100.732 75.6905 100.913 59.9431 93.3673 47.5245H93.3738ZM93.4126 47.2213C101.444 59.0722 101.295 76.1034 98.7517 89.709C94.5192 95.0764 84.624 96.128 78.1782 96.0828C72.9814 95.9667 67.6617 95.7861 62.8144 93.6184C60.834 92.6701 58.5171 91.0122 58.3295 88.6059C58.3165 87.2963 59.3779 86.1544 60.6528 85.9867C68.3541 84.619 76.0037 73.9745 79.356 67.3168C82.7278 60.1818 87.0768 53.3629 92.7201 47.7826L92.9984 47.5181L93.1408 47.389L93.2249 47.3116C93.2767 47.2665 93.3479 47.2342 93.4061 47.2213H93.4126Z" fill="black"/>
<path d="M74.9877 39.667C75.3372 39.0928 75.7772 38.5832 76.2885 38.1445C79.6991 35.2737 93.555 25.2421 114.834 31.3707C114.834 31.3707 131.447 36.3833 138.948 54.6403C139.879 56.9046 140.345 59.3303 140.339 61.7753C140.333 63.7429 140.281 66.0589 140.112 67.1105C139.524 70.7296 139.834 71.407 141.232 74.1423C142.636 76.8776 139.705 86.6318 136.003 90.8896C136.003 90.8896 125.978 104.573 105.353 106.74C105.353 106.74 104.22 107.398 102.997 109.566C101.968 111.385 100.499 112.921 98.6741 113.953C94.2734 116.436 88.7012 115.198 85.7825 111.082C84.8635 109.785 84.5917 108.153 84.98 106.611C85.5819 104.224 85.7825 100.45 82.1778 98.0569C82.1778 98.0569 69.0725 89.5542 67.9271 81.6192C67.3511 77.6259 65.9985 73.781 64.0958 70.2199L63.7722 69.6071L74.9747 39.667H74.9877Z" fill="url(#paint4_linear_710_2274)"/>
<path d="M74.6576 39.5121C76.0037 37.3703 78.2688 36.1639 80.275 34.7447C85.9313 31.1255 92.5842 29.0805 99.2889 28.8224C104.803 28.5321 110.258 29.3772 115.539 30.9965C121.823 33.4286 127.363 37.4477 131.783 42.4539C133.382 44.2215 134.838 46.273 136.126 48.2729C136.644 49.2147 137.414 50.4985 137.886 51.4468C138.333 52.4274 138.973 53.7757 139.381 54.7563C140.986 58.7625 140.915 63.1429 140.501 67.3685C140.332 68.5361 140.164 69.7231 140.365 70.8005C140.598 72.3488 141.976 73.8003 142.093 75.4647C142.268 78.7161 141.29 81.903 140.177 84.9157C139.278 87.1866 138.197 89.4123 136.585 91.3928C128.806 101.012 117.766 105.902 105.385 107.063L105.515 107.024C104.965 107.385 104.427 107.972 103.994 108.566C103.534 109.153 103.198 109.83 102.751 110.488C101.865 111.785 100.732 112.914 99.4054 113.759C95.4447 116.385 89.7237 115.746 86.5202 112.211C85.4006 111.108 84.5852 109.611 84.5658 107.998C84.5658 106.482 85.1159 104.979 84.8699 103.463C84.5658 99.9535 81.9965 98.8568 79.4855 97.0569C74.6058 93.3797 69.7197 88.6962 67.8752 82.7094C67.1569 78.1742 65.8431 73.7487 63.5521 69.7296L63.4939 69.6264L63.5327 69.5167C66.665 61.1495 71.5576 47.9955 74.6576 39.5121ZM75.3112 39.8282C72.153 48.3374 67.0792 61.2721 64.0246 69.7038L64.0116 69.4909C65.5066 72.1875 66.7233 75.0647 67.5064 78.0646C67.927 79.5225 68.1018 81.1224 68.4448 82.574C68.8395 84.0126 69.5838 85.348 70.451 86.5802C73.9004 91.1476 78.6312 94.5345 83.1808 97.9537C85.5171 99.8245 86.2031 103.024 85.5236 105.798C84.734 108.043 84.9994 110.275 86.7597 112.004C91.1993 116.869 98.9653 115.688 102.311 110.211C103.12 108.876 103.832 107.437 105.198 106.482L105.236 106.456L105.327 106.443L107.502 106.102C113.967 105.069 120.115 102.347 125.629 98.8891C132.385 94.6184 138.003 88.9929 140.138 81.1095C140.721 79.0451 141.426 76.4647 140.798 74.439C140.313 73.381 139.672 72.2778 139.465 70.9682C139.193 68.4394 140.002 66.2266 139.918 63.7235C140.138 60.1624 139.659 56.5949 137.977 53.4145L137.226 51.7952C132.657 42.828 124.626 35.5769 115.164 32.1061C106.104 29.4482 96.1825 29.3643 87.2645 32.6609C83.9251 33.8479 80.6698 35.4091 77.8028 37.4993C76.8839 38.1509 75.9131 38.8928 75.3242 39.8347L75.3112 39.8282Z" fill="black"/>
<path d="M75.9647 38.5509C75.9647 38.5509 55.1581 59.498 15.4219 65.6008C13.8751 65.8395 12.9173 67.4265 13.4674 68.891C14.9688 72.9101 19.4926 80.1741 33.0378 84.7158C33.0378 84.7158 41.4769 87.2447 50.3044 86.6125C52.4918 86.4576 54.5822 85.6964 56.3554 84.4126C59.4877 82.1418 64.5356 77.4582 69.2794 68.5361" fill="url(#paint5_linear_710_2274)"/>
<path d="M76.2819 38.8671C66.5679 48.1633 54.4852 54.6919 42.0466 59.6206C37.9888 61.1238 33.4198 62.6398 29.2585 63.7365C27.77 64.1042 24.1717 64.9429 22.7156 65.2848C21.2659 65.5493 17.59 66.2202 16.1015 66.4912L15.5579 66.5879C14.7813 66.6911 14.1859 67.4975 14.3283 68.2588C14.5548 69.1555 15.1178 70.1361 15.5449 70.9618C17.8553 74.9939 21.5442 78.0582 25.5631 80.3355C30.624 83.2708 36.235 84.8771 42.0336 85.5158C44.9071 85.8513 47.8517 85.9996 50.7316 85.7996C53.618 85.5739 56.0449 84.032 58.2064 82.1418C62.6719 78.3291 66.2184 73.5294 69.163 68.4652C69.2342 68.3169 69.4801 68.4459 69.396 68.5878C66.7685 73.923 63.4356 78.9936 59.0025 83.0514C56.7632 85.1739 54.0516 86.9544 50.9063 87.3028C47.8517 87.6318 44.8488 87.5608 41.846 87.2705C30.6823 86.3803 17.4282 80.6645 12.7686 69.8522C11.5066 67.3363 12.9951 64.7558 15.7973 64.5106C25.9061 62.8398 36.0344 60.1819 45.5089 56.2918C53.6568 52.9307 61.5458 48.789 68.7488 43.699C71.1369 41.9894 73.4991 40.196 75.6412 38.2284C75.8224 38.0478 76.1201 38.0478 76.2949 38.2413C76.4566 38.4219 76.4502 38.6929 76.2819 38.8671Z" fill="black"/>
<path d="M137.906 124.571C137.013 123.849 135.802 122.959 134.683 122.455L134.696 123.197C134.702 123.52 134.845 124.004 135.058 124.249C135.175 124.384 135.246 124.546 135.285 124.707C135.401 125.229 135.149 125.771 134.715 126.1C121.869 135.822 119.72 136.958 115.701 137.016C115.022 137.022 114.336 136.951 113.676 136.777C104.046 134.293 103.437 134.526 100.635 133.597C98.6353 132.932 96.7391 129.829 96.6161 129.003C96.0725 125.365 93.2703 124.694 93.2703 124.694C93.1085 124.017 92.539 123.662 92.539 123.662L79.5502 113.824C77.2075 114.004 66.005 118.559 61.1512 121.475C34.4424 137.487 20.0882 160.621 19.8682 160.808C26.4887 173.749 48.7967 174.291 64.3223 172.169C64.3223 172.169 64.7236 168.762 65.0666 167.924C73.5833 147.106 82.0354 144.738 82.0354 144.738C92.416 140.041 108.388 142.583 113.132 144.261C113.85 144.512 114.892 144.435 116.161 144.164C127.959 141.674 142.455 127.849 142.455 127.849C142.889 127.165 143.258 126.475 143.581 125.778C142.979 125.81 142.268 125.836 141.588 125.849C140.248 125.868 138.941 125.417 137.899 124.571H137.906Z" fill="url(#paint6_linear_710_2274)"/>
<path d="M85.3746 107.489C82.993 104.302 75.8094 95.9925 67.3574 98.7987C66.6002 99.0503 65.8948 99.4374 65.2411 99.889C62.5942 101.734 53.4367 107.482 45.5865 104.734C44.7193 104.431 43.9233 105.366 44.4087 106.147C45.8713 108.495 49.133 111.643 56.0837 111.592C57.3715 111.579 58.6076 111.056 59.5201 110.146C60.3032 109.366 61.3257 108.405 62.2318 107.747C62.7948 107.334 63.5585 107.895 63.332 108.553C63.0796 109.295 62.6719 110.192 62.057 110.992C61.7852 111.34 61.8694 111.85 62.2577 112.069C63.2737 112.643 65.39 113.178 68.4446 110.579C69.2471 109.895 70.1467 109.327 71.1368 108.966C72.8971 108.321 75.6217 107.869 78.7929 109.25C79.6601 109.63 80.469 110.121 81.2262 110.695C82.2682 111.488 84.8763 113.153 85.8406 110.804C86.2871 109.708 86.0735 108.443 85.3681 107.495L85.3746 107.489Z" fill="url(#paint7_linear_710_2274)"/>
<path d="M85.0705 107.714C81.3169 102.353 74.7481 96.9924 67.8169 99.1084C66.2572 99.4891 65.0794 100.644 63.7139 101.437C58.3359 104.76 51.6312 107.398 45.3083 105.353C45.0689 105.308 44.8424 105.605 44.9912 105.785L45.0883 105.934C45.8455 107.089 46.8486 108.089 48.02 108.837C50.5828 110.463 53.7927 111.03 56.8021 110.792C58.9054 110.417 59.9862 108.379 61.7012 107.25C61.9536 106.992 62.7043 106.766 63.112 106.966C63.8627 107.185 64.3157 108.14 63.9921 108.863L63.8368 109.269C63.5262 110.037 63.1185 110.772 62.6072 111.43C62.5684 111.488 62.646 111.495 62.6784 111.514C65.9466 113.101 68.27 109.069 71.2081 108.314C73.3761 107.592 75.7836 107.624 77.9193 108.359C79.2524 108.805 80.5015 109.501 81.5952 110.366C82.4753 110.992 83.7373 111.895 84.8052 111.437C85.9701 110.688 85.8859 108.766 85.077 107.714H85.0705ZM85.6788 107.263C87.3097 109.166 86.3778 113.269 83.3102 112.314C81.2198 111.656 79.7508 109.863 77.5957 109.347C75.6348 108.727 73.5056 108.753 71.5899 109.437C69.4737 110.095 68.2311 112.004 66.1213 112.798C65.0276 113.237 63.688 113.398 62.4778 112.92C61.5264 112.643 60.8922 111.727 61.3776 110.792C61.9406 109.985 62.3354 109.308 62.646 108.392C62.6784 108.308 62.6654 108.314 62.6719 108.327C62.6784 108.353 62.6719 108.327 62.659 108.327C62.659 108.327 62.659 108.327 62.6719 108.327C61.3323 109.23 60.258 110.734 58.8148 111.598C57.7728 112.217 56.5109 112.385 55.3071 112.308C53.618 112.282 51.9418 112.011 50.3239 111.495C47.8841 110.701 45.6513 109.159 44.1823 107.037L43.9428 106.676C43.548 106.16 43.4574 105.392 43.8134 104.837C44.1952 104.147 45.1142 103.831 45.8455 104.115C45.949 104.14 46.6415 104.347 46.7645 104.379C52.4466 105.85 58.3359 103.489 63.2285 100.644C64.6458 99.8439 65.9401 98.6762 67.5775 98.3149C74.9164 96.2054 81.3946 101.973 85.6724 107.263H85.6788Z" fill="black"/>
<path d="M79.5761 106.405C75.8161 104.024 70.7358 102.063 66.4644 104.198C66.1538 104.373 65.7526 104.256 65.5908 103.934C65.4354 103.618 65.5713 103.231 65.8885 103.089C68.2312 101.973 70.917 101.986 73.3568 102.637C75.7578 103.295 77.9711 104.392 79.9968 105.818C80.3786 106.095 79.9579 106.682 79.5696 106.405H79.5761Z" fill="black"/>
<path d="M59.5395 107.656C56.3231 109.605 52.2718 109.547 48.9712 107.914C48.79 107.831 48.7123 107.618 48.79 107.437C48.8677 107.263 49.0683 107.185 49.243 107.25C50.039 107.54 50.848 107.805 51.6829 107.921C54.045 108.327 56.6984 107.792 58.6335 106.424C59.4813 105.753 60.4455 107.063 59.5395 107.663V107.656Z" fill="black"/>
<path d="M109.262 106.334C106.02 107.276 102.434 106.766 99.5867 104.966C99.522 104.927 99.5026 104.85 99.5414 104.785C99.5802 104.721 99.6579 104.702 99.7226 104.74C102.499 106.334 105.987 106.676 109.01 105.65C109.469 105.456 109.741 106.179 109.255 106.327L109.262 106.334Z" fill="black"/>
<path d="M110.168 69.1619C109.314 74.8713 104.389 75.5809 98.6613 74.7293C92.9338 73.8778 88.5654 71.7811 89.4261 66.0718C90.2804 60.3625 95.6196 56.4272 101.347 57.2788C107.075 58.1304 111.022 63.4526 110.168 69.1619Z" fill="white"/>
<path d="M110.906 69.2651C109.838 76.0066 103.043 75.9421 97.7164 74.8067C93.8981 74.168 89.1802 72.5746 88.9084 68.02C88.6107 63.9364 90.9146 59.8915 94.4999 57.9174C102.467 53.4274 112.439 60.1753 110.899 69.2651H110.906ZM109.437 69.0458C110.485 61.1882 102.175 55.1885 95.0694 58.9432C91.8012 60.614 89.6073 64.2848 89.7756 67.962C89.918 72.0198 94.3122 73.8003 97.807 74.3422C102.467 75.1357 108.958 74.9873 109.443 69.0458H109.437Z" fill="black"/>
<path d="M136.495 73.0778C135.64 78.7872 132.806 78.9162 129.279 78.3936C125.752 77.8711 122.872 76.8905 123.726 71.1812C124.58 65.4719 128.133 61.2657 131.654 61.7947C135.181 62.3172 137.342 67.375 136.488 73.0843L136.495 73.0778Z" fill="white"/>
<path d="M136.896 73.1358C136.585 75.6325 135.304 78.8 132.314 78.8C128.942 78.8903 123.894 78.529 123.247 74.3874C122.736 70.3231 124.069 65.7556 127.053 62.8332C129.79 60.2205 133.718 60.7237 135.576 64.0525C137.161 66.7814 137.368 70.0909 136.896 73.1294V73.1358ZM136.1 73.0197C137.498 63.0139 129.505 57.2078 124.936 68.5813C122.995 74.8067 123.83 77.7356 130.8 78.3097C134.269 78.7613 135.757 76.0453 136.1 73.0197Z" fill="black"/>
<path d="M127.16 58.0278C127.783 57.3396 128.598 57.2598 129.364 57.1717C130.141 57.0906 130.926 57.0918 131.695 57.1666C133.227 57.336 134.719 57.7943 136.063 58.541C136.238 58.6392 136.305 58.8587 136.207 59.0336C136.127 59.1815 135.955 59.2552 135.797 59.2141C133.751 58.6354 131.634 58.3101 129.521 58.5722C129.04 58.6372 126.557 59.1742 127.151 58.0296L127.16 58.0278Z" fill="black"/>
<path d="M111.176 55.9352C109.763 55.8397 108.925 54.8209 107.693 54.3306C104.262 52.5937 100.466 51.6411 96.6274 51.3462C96.4214 51.3348 96.2605 51.151 96.2895 50.9359C96.3114 50.7616 96.4538 50.6313 96.6241 50.6182C99.2998 50.4283 102.024 50.7132 104.604 51.4607C106.56 52.0155 108.431 52.831 110.184 53.8597C110.77 54.1986 111.353 54.5839 111.625 55.3698C111.735 55.6627 111.47 55.9717 111.167 55.9326L111.176 55.9352Z" fill="black"/>
<path d="M114.938 79.9225C116.737 79.6064 119.759 79.2516 121.48 79.9935C122.438 80.4064 122.898 81.5031 122.522 82.4772C122.179 83.3739 121.422 84.7029 119.856 85.1674C119.099 85.3932 118.296 85.3287 117.546 85.0835C116.432 84.7222 114.789 83.8513 113.921 81.7805C113.585 80.9805 114.077 80.0709 114.938 79.9225Z" fill="black"/>
<path d="M118.762 84.5997C118.542 85.7738 118.38 86.9157 118.212 88.1414C118.083 88.7737 117.604 89.3285 116.995 89.5478C111.773 91.6057 105.553 91.1929 100.823 88.0705C98.7388 86.7544 96.9332 85.0578 95.477 83.1288C95.3541 82.9676 95.3864 82.7418 95.5482 82.6192C95.6841 82.516 95.8783 82.5224 96.0012 82.6321C99.5477 85.6126 103.392 88.3027 107.974 89.2446C110.77 89.8446 113.766 89.7091 116.53 88.864C116.995 88.7737 117.423 88.4769 117.526 87.9931C117.727 86.8706 117.908 85.6642 118.037 84.4965C118.089 84.0127 118.84 84.1223 118.756 84.6062L118.762 84.5997Z" fill="black"/>
<path d="M123.752 90.7347C123.713 92.0185 122.354 93.083 121.092 92.5927C120.057 92.2701 119.261 91.4831 118.594 90.6831C118.154 90.1799 117.817 89.6187 117.468 89.0703C117.358 88.9026 117.41 88.6768 117.578 88.5736C117.72 88.4832 117.908 88.5026 118.025 88.6187C118.484 89.0703 118.898 89.5542 119.358 89.9735C119.513 90.1412 119.85 90.4444 120.031 90.5799C121.124 91.5089 122.16 92.0056 123.047 90.5541C123.228 90.1993 123.784 90.3412 123.746 90.7412L123.752 90.7347Z" fill="black"/>
<path d="M14.7103 203.044C14.0308 203.915 13.3706 204.728 12.7558 205.463C11.5197 206.934 12.8529 209.127 14.7297 208.721C15.694 208.515 16.6518 208.289 17.5967 208.044C16.037 206.089 15.1762 204.354 14.7038 203.037L14.7103 203.044Z" fill="#643C3B"/>
<path d="M143.847 116.527L139.776 115.469C139.135 115.301 138.456 115.436 137.931 115.836L135.459 117.707C134.909 118.12 134.599 118.772 134.611 119.462L134.676 122.449C135.796 122.952 137.006 123.842 137.899 124.565C138.941 125.41 140.242 125.862 141.588 125.842C142.274 125.829 142.979 125.804 143.581 125.771C144.811 123.12 145.27 120.501 145.445 118.817C145.549 117.759 144.876 116.785 143.847 116.52V116.527Z" fill="#643C3B" stroke="black" stroke-miterlimit="10"/>
<path d="M101.4 67.4431C101.726 65.2724 100.977 63.3621 99.7296 63.1765C98.4817 62.9908 97.2066 64.5999 96.8815 66.7706C96.5565 68.9413 97.3046 70.8516 98.5524 71.0373C99.8003 71.2229 101.075 69.6138 101.4 67.4431Z" fill="#429195"/>
<path d="M100.564 66.0525C100.814 66.0525 101.017 65.8503 101.017 65.6009C101.017 65.3515 100.814 65.1493 100.564 65.1493C100.314 65.1493 100.111 65.3515 100.111 65.6009C100.111 65.8503 100.314 66.0525 100.564 66.0525Z" fill="white"/>
<path d="M131.077 71.7442C131.402 69.5735 130.654 67.6633 129.406 67.4776C128.158 67.2919 126.883 68.9011 126.558 71.0718C126.233 73.2425 126.981 75.1527 128.229 75.3384C129.477 75.5241 130.752 73.9149 131.077 71.7442Z" fill="#429195"/>
<path d="M130.411 70.3812C130.661 70.3812 130.864 70.179 130.864 69.9296C130.864 69.6802 130.661 69.478 130.411 69.478C130.161 69.478 129.958 69.6802 129.958 69.9296C129.958 70.179 130.161 70.3812 130.411 70.3812Z" fill="white"/>
<path d="M121.61 81.7031C121.86 81.7031 122.063 81.5009 122.063 81.2515C122.063 81.0021 121.86 80.7999 121.61 80.7999C121.36 80.7999 121.157 81.0021 121.157 81.2515C121.157 81.5009 121.36 81.7031 121.61 81.7031Z" fill="white"/>
<path d="M22.2109 101.154C22.6899 101.566 22.3533 102.895 21.8679 104.179C21.1237 104.547 20.2565 105.089 19.3246 105.895C18.7292 106.411 17.9137 106.592 17.163 106.366L14.1601 105.456C13.6424 105.302 13.1959 104.966 12.9046 104.508L11.1314 101.741C10.426 100.644 10.8013 99.1923 11.9403 98.5472C13.1894 97.8376 15.0274 97.0764 17.4219 96.799C20.1206 98.4376 22.2109 101.16 22.2109 101.16V101.154Z" fill="#643C3B" stroke="black" stroke-width="2" stroke-miterlimit="10"/>
<path d="M66.0696 126.674C66.0696 126.674 61.4035 123.533 39.1473 126.72C37.7559 126.92 36.4097 126.094 35.9761 124.765C34.5847 120.514 31.0512 111.25 24.7736 103.966C24.45 103.592 23.9452 103.437 23.4728 103.566C23.0651 103.676 22.515 103.863 21.8743 104.179C22.3597 102.895 22.6962 101.573 22.2173 101.153C22.2173 101.153 20.1269 98.4375 17.4282 96.7925C18.2954 96.6892 19.2338 96.6505 20.2434 96.7086C20.9424 96.7473 21.6154 96.9344 22.2367 97.2569C25.1231 98.7601 33.8664 104.095 40.0145 116.159C40.4675 117.049 41.3412 117.649 42.3378 117.74C46.0396 118.075 55.4366 118.462 64.607 115.133C64.607 115.133 70.8716 111.875 76.4049 115.049" fill="url(#paint8_linear_710_2274)"/>
<path d="M48.2272 193.393C47.2177 186.297 36.1575 184.632 26.6441 181.807C24.502 182.31 23.0911 189.251 20.4377 194.309C22.1333 195.993 25.3239 199.818 26.1264 205.36C32.2486 203.07 40.6812 199.754 48.2272 193.393Z" fill="url(#paint9_linear_710_2274)"/>
<path d="M67.8687 194.064C68.2376 195.032 68.5418 195.909 68.7877 196.696C69.4414 198.747 67.2927 200.58 65.3642 199.599C64.2381 199.025 63.1314 198.496 62.0312 197.999C65.1312 196.786 66.885 195.29 67.8623 194.064H67.8687Z" fill="#643C3B"/>
<path d="M63.7203 184.961C65.6166 188.6 66.9433 191.619 67.8687 194.057C66.8915 195.277 65.1377 196.78 62.0377 197.993C59.2808 196.741 56.6274 195.715 54.1099 194.87C54.7053 192.909 56.8603 187.897 63.7268 184.955L63.7203 184.961Z" fill="url(#paint10_linear_710_2274)" stroke="black" stroke-miterlimit="10"/>
<path d="M60.3617 181.342C61.449 179.413 62.5751 176.652 64.3224 172.162C56.6405 173.214 28.1067 175.988 19.8683 160.801C16.147 168.491 15.3251 173.678 16.5936 180.194C16.5936 180.194 16.5936 180.213 16.6001 180.22C17.9073 182.039 23.9907 190.671 54.1036 194.87C54.699 192.909 56.8541 187.896 63.7206 184.955C63.1187 183.8 61.9214 182.555 60.3553 181.336L60.3617 181.342Z" fill="url(#paint11_linear_710_2274)"/>
<path d="M60.0445 181.407C60.1092 181.129 60.3034 180.774 60.3746 180.645C61.0412 179.362 61.6172 178.026 62.1737 176.691C62.8079 175.155 63.4163 173.601 64.0246 172.052L64.3676 172.491C60.3681 173.149 56.3233 173.543 52.2655 173.639C44.1565 173.781 35.7239 173.136 28.3332 169.452C24.6702 167.588 21.3631 164.704 19.5834 160.963L20.1594 160.95C18.7227 163.95 17.4478 167.053 16.8135 170.298C16.0952 173.413 16.3799 177.82 16.9106 180.116C18.1661 182.039 21.8938 184.897 24.7025 186.303C33.7435 190.967 44.163 192.98 54.1553 194.561C54.1682 194.561 53.7993 194.786 53.8058 194.786C54.5371 192.457 55.8897 190.367 57.5982 188.658C59.3132 186.948 61.3906 185.639 63.604 184.671L63.4422 185.116C62.7885 183.897 61.7078 182.877 60.6464 181.987C60.4458 181.819 60.1869 181.626 60.051 181.413L60.0445 181.407ZM60.6788 181.278C60.8729 181.278 60.8858 181.368 61.0541 181.484C62.2837 182.51 63.4487 183.645 64.1735 185.11L63.8564 185.258C59.5915 187.064 55.8185 190.483 54.4206 194.967L54.3365 195.231L54.0647 195.193C42.7262 193.509 29.3169 191.109 19.9717 184.155C18.6127 183.09 16.9559 181.51 16.2828 180.252C15.7522 178.065 15.4415 173.233 16.1858 170.169C16.8782 166.653 18.2826 163.35 19.8229 160.156C21.9585 163.743 25.1879 166.491 28.9415 168.24C36.1769 171.665 44.3183 172.394 52.2461 172.472C56.4333 172.472 60.6335 172.233 64.8142 171.788C63.591 174.865 62.4585 177.987 60.9441 180.942C60.8276 181.181 60.8147 181.194 60.6788 181.278Z" fill="black"/>
<path d="M63.6752 185.497C63.2028 184.684 62.5233 183.968 61.7984 183.323C60.9312 182.613 60.4523 181.329 60.7565 180.161L61.7014 177.278C62.245 175.529 63.7723 170.517 64.3289 168.685C64.9825 166.807 65.8238 164.859 66.6587 163.053C69.1762 157.556 72.2891 152.073 76.638 147.757C84.3006 139.854 100.525 140.609 110.938 142.867C111.876 143.061 113.041 143.428 113.896 143.699C114.718 143.835 115.63 143.654 116.51 143.448C121.086 142.377 125.247 140.061 129.201 137.538C133.738 134.584 138.055 131.177 142.028 127.513L141.879 127.694C142.734 126.371 143.394 124.9 143.879 123.371C144.319 121.991 144.61 120.546 144.772 119.101C144.837 118.527 144.462 117.939 143.892 117.785C142.96 117.552 141.129 117.036 140.255 116.817L139.951 116.733L139.802 116.694C139.355 116.591 138.98 116.682 138.624 116.965L137.614 117.72L136.605 118.475L136.352 118.662C135.945 118.927 135.692 119.346 135.699 119.836C135.712 120.591 135.744 122.771 135.757 123.565C135.757 123.649 135.796 123.804 135.848 123.933C135.912 124.113 136.029 124.223 136.12 124.384C136.767 125.655 136.016 126.81 134.948 127.461L133.939 128.216L131.913 129.719C129.182 131.713 126.477 133.726 123.584 135.506C121.442 136.848 118.827 138.067 116.187 137.996C113.591 138.016 111.165 136.893 108.647 136.396C105.994 135.68 103.263 135.274 100.655 134.377C98.6872 133.519 97.3281 131.629 96.5321 129.707C96.3315 128.616 96.0532 127.52 95.3154 126.668C94.7718 126.023 94.034 125.52 93.2445 125.313C93.1733 124.907 92.9403 124.507 92.5843 124.287L79.5956 114.449L79.8157 114.514C78.6184 114.675 77.3694 115.146 76.198 115.54C73.5316 114.346 70.5223 114.424 67.7912 115.262C66.8593 115.54 65.9403 115.933 65.1378 116.346C62.6268 117.346 60.0187 118.107 57.3653 118.623C52.3692 119.604 47.2177 119.894 42.1439 119.43C40.7201 119.223 39.5034 118.236 38.9015 116.952C38.0408 115.333 36.973 113.52 35.944 112.011C32.2098 106.553 27.3495 101.657 21.4344 98.6504C20.9555 98.4504 20.4378 98.4181 19.933 98.4052C17.519 98.3342 15.0792 98.8245 12.9565 99.9729C12.374 100.205 12.141 100.863 12.4193 101.386C12.7494 101.94 13.7266 103.457 14.089 104.037L14.212 104.231C14.2702 104.327 14.3479 104.411 14.4385 104.482C14.652 104.637 14.6197 104.605 14.9174 104.708C15.6357 104.921 17.0789 105.392 17.752 105.598C18.1727 105.747 18.6192 105.585 18.9298 105.282C20.1983 104.237 21.6156 103.373 23.2206 102.915C23.3565 102.876 23.6995 102.779 24.0101 102.786C24.3208 102.786 24.6314 102.844 24.9162 102.953C25.4016 103.134 25.7899 103.508 26.094 103.915C26.9548 104.96 27.7767 106.031 28.5339 107.147C31.5756 111.572 33.9313 116.417 35.7757 121.43C36.0928 122.32 36.4552 123.352 36.74 124.268C37.0442 125.72 37.9955 126.655 39.5228 126.397C45.0885 125.72 50.693 125.249 56.3104 125.365C52.8222 128.203 49.3339 131.035 45.9816 133.99C36.5458 142.241 27.9061 151.421 20.3342 161.408C17.5061 167.311 15.7134 173.665 17.2407 180.432C18.4833 182.123 20.8972 184.264 23.0653 185.484C23.2659 185.606 23.4989 185.742 23.6607 185.91C24.269 186.477 24.3143 187.419 23.9584 188.135L23.7448 188.716L23.3112 189.877C21.3826 195.38 18.1791 200.354 14.542 204.876L13.7654 205.85L13.403 206.308C12.95 206.889 13.0924 207.773 13.6748 208.231C14.0437 208.502 14.445 208.592 14.898 208.476L15.4934 208.334C17.9073 207.831 20.1659 207.024 22.4828 206.14C27.0907 204.392 31.6532 202.489 36.0993 200.386C39.6652 198.638 43.257 196.928 46.2987 194.432C47.1141 193.651 48.5961 193.406 49.5928 193.67L54.466 194.393C56.9964 195.167 59.4686 196.141 61.8955 197.199C63.2351 197.78 64.5295 198.464 65.8432 199.096C66.128 199.225 66.4516 199.399 66.7752 199.367C67.9336 199.302 68.6196 198.147 68.1342 197.051C67.6812 195.535 67.1505 194.051 66.6004 192.567C65.7009 190.193 64.6913 187.851 63.6687 185.51L64.2447 185.213C66.251 188.516 68.0177 191.993 69.3897 195.625L69.7263 196.541C69.8169 196.806 69.9787 197.244 69.9981 197.677C70.2181 200.251 67.2541 202.063 65.0149 200.728C61.6949 199.109 57.1388 197.141 54.2201 196.154L49.308 195.341C48.5379 195.225 48.1431 195.161 47.5413 195.561C47.2306 195.773 46.92 196.077 46.6093 196.296C40.7654 200.386 34.1319 202.973 27.5955 205.657C23.5248 207.224 19.467 208.876 15.1568 209.727C12.8529 210.308 10.9179 207.547 12.4193 205.605L12.827 205.102L13.6036 204.154C17.5255 199.438 20.8002 194.193 22.8064 188.393L23.0264 187.819L23.1365 187.529C23.2918 187.161 23.1559 186.697 22.8064 186.484C20.386 184.968 18.0367 183.187 16.4253 180.787C14.8591 174.026 16.7036 167.098 19.8035 161.059C26.3011 150.215 34.9603 140.596 44.7778 132.603C48.0914 129.977 51.5472 127.532 55.2167 125.429C55.2102 125.429 55.4303 126.036 55.3914 126.016C50.1299 126.255 44.9008 126.92 39.6976 127.758C38.0861 128.12 36.3128 127.294 35.6204 125.771C34.2548 122.055 32.7599 118.443 30.8831 114.972C28.9998 111.482 26.8124 108.166 24.2172 105.173L24.146 105.082C24.1266 105.063 24.1007 105.05 24.0749 105.044C24.0554 105.044 24.0295 105.037 24.0101 105.044C23.9842 105.044 24.0101 105.044 23.8289 105.095C22.7287 105.443 21.6803 106.063 20.7678 106.798L20.4183 107.089C19.5317 107.927 18.1856 108.276 17.0142 107.908C15.9658 107.598 15.1051 107.353 14.1602 107.076C13.4095 106.908 12.5099 106.295 12.0893 105.611L11.9469 105.392L10.8726 103.734L10.3354 102.902C9.287 101.431 9.63 99.1923 11.0926 98.1149C13.8496 96.3021 17.2407 95.6441 20.496 95.7731C22.9488 95.915 24.9421 97.5666 26.9095 98.831C32.4816 102.779 37.0312 108.024 40.3706 113.927L41.3284 115.72C41.5032 116.075 41.7167 116.411 42.0727 116.598C42.2603 116.707 42.4869 116.772 42.7069 116.791C44.8749 116.985 47.0559 117.075 49.2304 117.043C54.3948 116.952 59.5722 116.262 64.5036 114.695C66.7946 113.669 70.6258 112.991 73.5122 113.785C74.5153 114.024 75.4667 114.436 76.3404 114.94L76.088 114.92C77.3435 114.507 78.5213 114.043 79.8674 113.888L79.971 113.966L92.9597 123.804C93.238 124.017 93.7428 124.513 93.8075 125.016L93.568 124.778C95.3736 125.294 96.6292 126.881 97.0757 128.597C97.3152 130.184 98.4024 131.532 99.5285 132.61C100.719 133.758 102.395 133.919 103.942 134.293C105.586 134.629 107.243 134.977 108.887 135.351C111.301 135.777 113.663 136.809 116.128 136.771C118.614 136.758 120.723 135.674 122.814 134.338C125.609 132.545 128.295 130.519 130.962 128.513L132.968 126.991L133.971 126.229L134.463 125.849C134.663 125.72 134.793 125.345 134.689 125.191C134.333 124.746 134.191 124.287 134.113 123.713C134.094 122.926 134.023 120.675 134.003 119.901C133.958 118.965 134.424 118.004 135.175 117.436L135.298 117.34L135.55 117.146L136.547 116.378L137.543 115.611C138.288 114.978 139.427 114.759 140.371 115.056L140.676 115.133L141.899 115.443L144.364 116.069C145.762 116.436 146.746 117.875 146.584 119.307C146.228 122.688 145.283 126.1 143.355 128.952C136.139 135.455 128.302 141.68 119.021 144.925C116.957 145.538 114.472 146.338 112.362 145.435C103.321 142.964 88.3518 142.138 80.2881 147.467C74.8389 151.641 71.3183 157.763 68.2637 163.827C67.6035 165.111 66.9887 166.556 66.3869 167.865L66.0762 168.543C65.9856 168.743 65.9144 168.956 65.8303 169.194C64.5748 172.846 63.1704 176.833 61.7337 180.432C61.1448 182.432 63.5781 183.426 64.2318 185.206L63.6558 185.503L63.6752 185.497Z" fill="black"/>
<path d="M60.6915 181.884C56.7438 178.755 52.0712 176.459 47.1916 175.149C46.9715 175.097 47.0492 174.743 47.2757 174.801C49.7932 175.349 52.2654 176.149 54.6211 177.2C57.0027 178.265 59.2613 179.497 61.384 181.045C61.6235 181.226 61.6752 181.561 61.494 181.8C61.3064 182.052 60.931 182.09 60.698 181.884H60.6915Z" fill="black"/>
<path d="M123.195 91.7411C123.195 91.7411 96.849 109.643 96.3054 83.6771C96.3054 83.6771 105.178 94.2313 117.546 88.8704C117.546 88.8704 120.49 93.1282 123.195 91.7411Z" fill="white"/>
<path d="M123.37 91.6379C123.389 91.6831 123.37 91.8508 123.286 91.9218C123.221 91.9799 123.234 91.9605 123.189 91.9928C121.946 92.8766 120.639 93.6765 119.306 94.4184C113.889 97.2892 106.712 100.321 100.894 96.8312C96.3572 93.8314 95.3476 87.6769 96.0983 82.7482L96.5578 83.4707C101.806 89.2703 110.077 91.8766 117.416 88.5736L117.662 88.4768L117.811 88.6833C118.937 90.18 120.574 92.0895 122.645 91.7283C122.865 91.6444 123.182 91.6379 123.37 91.6379ZM123.027 91.8444C122.846 91.9992 122.852 92.1476 122.639 92.1605C120.387 92.5798 118.568 90.6509 117.28 89.0575L117.675 89.1671C110.077 92.5798 101.496 89.909 96.0595 83.8836L96.629 83.6707C97.4185 88.0511 97.8263 92.9927 101.658 95.6635C107.611 99.3471 116.491 95.1603 122.069 92.1605C122.302 92.025 122.755 91.7734 122.982 91.6315C123.001 91.625 123.001 91.6186 122.982 91.6444C122.936 91.6896 122.962 91.825 123.021 91.8444H123.027Z" fill="black"/>
<path d="M102.538 91.9993C102.538 91.9993 104.926 94.2765 108.938 93.9862L102.538 91.9993Z" fill="white"/>
<path d="M102.978 91.5412C104.518 93.025 106.783 93.7604 108.925 93.7282C109.074 93.7282 109.197 93.8379 109.191 93.9862C109.191 94.1153 109.087 94.2249 108.958 94.2378C106.544 94.5217 104.052 93.9669 102.104 92.4508C101.424 91.8638 102.356 90.8896 102.978 91.5412Z" fill="black"/>
<path d="M156.117 58.8076C152.318 55.2853 146.921 50.9178 140.009 46.8729C139.401 46.5181 139.045 45.8536 139.116 45.1569C139.271 43.5634 139.75 40.6604 141.232 38.5573C141.95 37.538 141.42 36.1252 140.216 35.8026C132.431 33.7253 112.038 29.0417 104.026 34.5253C103.806 34.6736 103.631 34.8736 103.502 35.1059C103.243 35.551 102.79 36.3961 102.363 37.5057C101.787 39.0024 100.24 39.8669 98.6677 39.5572C87.847 37.4154 77.777 37.4219 76.6962 37.4283C76.6315 37.4283 76.5733 37.4348 76.515 37.4606C75.1689 37.9638 73.2856 39.8411 72.0884 41.1507C71.7518 41.5184 72.0754 42.0925 72.5608 41.9958C79.958 40.512 96.3896 43.8537 100.803 44.8085C101.347 44.9246 101.839 45.1698 102.318 45.4407C102.382 45.4794 102.447 45.5052 102.512 45.5375C105.042 46.5697 111.993 49.8533 113.566 55.3885C113.792 56.1755 114.523 56.6981 115.339 56.6723C120.652 56.4723 138.999 56.2465 154.253 61.8075C156.104 62.4848 157.56 60.1495 156.117 58.8141V58.8076Z" fill="url(#paint12_linear_710_2274)"/>
<path d="M155.528 59.4399C150.752 54.9499 145.478 50.9695 139.847 47.5955C138.728 47.0278 138.223 45.8472 138.482 44.6344C138.734 42.7571 139.181 40.9185 140.08 39.2154C140.41 38.4928 141.264 37.8154 140.779 36.9574C140.604 36.6413 140.352 36.4413 139.944 36.3446L138.443 35.9446C129.803 33.777 111.391 29.5579 103.91 35.0995C103.36 35.9317 102.971 36.8671 102.577 37.8154C101.904 39.4089 99.9685 40.2733 98.3312 39.8153C91.2123 38.4348 83.9446 37.7445 76.6963 37.6864C75.3178 38.1573 74.2111 39.3766 73.1627 40.3572L72.6256 40.912L72.3602 41.1959C72.3214 41.241 72.2631 41.2991 72.2373 41.3249C72.1143 41.4539 72.1919 41.6926 72.3537 41.7442C72.9686 41.7313 73.8875 41.4862 74.5671 41.4797C81.8736 41.0281 89.1478 42.3377 96.312 43.5893C97.3669 43.7957 99.9038 44.286 100.907 44.5118C106.149 46.5891 112.096 49.5566 113.986 55.2918C114.154 55.8595 114.724 56.2466 115.313 56.2143L116.096 56.182C118.186 56.1046 120.27 56.0853 122.354 56.1111C131.233 56.2272 140.138 57.0981 148.772 59.2786C150.461 59.7302 152.402 60.2979 154.059 60.8656C154.305 60.9495 154.596 61.0398 154.693 61.0592C155.567 61.2462 156.214 60.0592 155.515 59.4464L155.528 59.4399ZM156.699 58.1819C158.673 59.9237 156.965 63.3042 154.35 62.7107C153.418 62.4462 152.228 61.9817 151.322 61.6785C149.911 61.2333 148.319 60.7495 146.875 60.3882C136.87 57.8336 126.451 56.9368 116.128 57.111C115.591 57.1046 114.899 57.2078 114.4 56.9497C113.799 56.6981 113.32 56.1627 113.138 55.5434C112.841 54.5886 112.446 53.6854 111.883 52.8532C109.573 49.4663 105.812 47.3245 102.104 45.6988C101.328 45.1827 100.124 44.9827 99.2437 44.8021C92.1636 43.3699 84.9283 42.0603 77.6994 41.8797C76.0232 41.8668 74.3535 41.9249 72.7032 42.2152C72.6061 42.2281 72.3667 42.2797 72.1855 42.2023C71.6224 42.0023 71.5318 41.2152 71.9978 40.8604L72.2631 40.5766C73.5057 39.3186 74.7612 37.938 76.4115 37.2155C80.6634 37.0671 84.9347 37.4477 89.1737 37.8412C92.2801 38.1638 95.3801 38.6154 98.4541 39.2024C99.8844 39.5831 101.405 38.8863 101.975 37.5445C102.247 36.8542 102.57 36.0736 102.933 35.3962C103.263 34.564 103.962 34.0802 104.725 33.6802C106.621 32.6545 108.712 32.1577 110.796 31.8545C120.212 30.7836 129.609 32.7125 138.734 34.8221C139.284 35.0156 140.663 35.1833 141.161 35.6091C142.319 36.4349 142.455 38.0993 141.562 39.1766C140.52 40.8475 140.054 42.8474 139.828 44.7956C139.731 45.344 139.77 45.8859 140.274 46.2214C146.157 49.6083 151.684 53.608 156.699 58.1819Z" fill="black"/>
<path d="M136.896 46.5568C130.301 44.3247 123.228 42.5054 116.213 43.2538C115.921 43.2989 115.831 42.8409 116.135 42.7893C119.688 42.1893 123.312 42.3958 126.865 42.8732C130.431 43.3828 133.913 44.157 137.362 45.215C137.737 45.3311 137.945 45.731 137.828 46.1052C137.705 46.4987 137.271 46.7052 136.89 46.5568H136.896Z" fill="black"/>
<path d="M150.28 57.5949C145.374 56.0659 140.352 54.7821 135.291 53.8661C130.256 53.0081 125.021 52.2662 119.96 53.2339C119.778 53.279 119.688 52.9823 119.888 52.9371C125.001 51.8275 130.295 52.4339 135.408 53.1693C140.546 53.9628 145.607 55.1112 150.61 56.5369C151.315 56.7562 150.998 57.8207 150.28 57.5949Z" fill="black"/>
<path d="M88.0863 34.2544C85.3229 31.8739 80.0549 25.4033 81.4658 11.3526C81.6146 9.88817 80.5662 8.57212 79.1101 8.35278C77.6539 8.13344 76.2819 9.08177 75.9778 10.5139C75.6412 12.1009 75.2659 14.146 75.1429 15.8104C75.0523 17.0555 73.868 17.9328 72.6448 17.6748C68.1729 16.7329 59.4749 13.6428 59.5849 3.84983C59.5979 2.59185 58.6918 1.52094 57.4428 1.33386C56.0255 1.12097 54.7182 2.12736 54.5694 3.54663C54.0581 8.55277 55.0483 19.5456 72.1595 24.3002C73.8098 24.7582 75.1041 26.0291 75.5895 27.6613C76.3596 30.2353 78.107 34.4028 82.0159 38.9702C83.0643 40.196 84.6369 40.9185 86.2484 40.7572C87.3097 40.654 88.4035 40.196 89.0636 38.938C89.8919 37.3639 89.4325 35.4156 88.0799 34.2544H88.0863Z" fill="url(#paint13_linear_710_2274)"/>
<path d="M87.7434 34.648C83.4915 30.8289 81.5953 25.1518 81.1294 19.6296C80.8899 16.8684 80.987 14.1009 81.2394 11.3526C81.3106 10.7204 81.1358 10.0753 80.754 9.56565C79.5632 7.86898 76.7545 8.38508 76.2497 10.3979C75.7319 12.4042 75.6413 14.4815 75.253 16.5201C74.1917 19.0296 71.2665 17.6297 69.3703 17.0684C63.2869 15.0427 59.0414 10.4559 59.0867 3.84343C59.0867 1.5726 55.8444 1.06295 55.2037 3.26927C54.7248 6.84324 55.5532 10.5656 57.3458 13.6815C58.912 16.2169 61.1059 18.3135 63.6752 19.8747C65.9532 21.2617 68.4319 22.3649 71.0205 23.1326C71.6807 23.3519 72.2566 23.5003 73.0462 23.797C74.5153 24.4099 75.6996 25.655 76.2238 27.1581C77.3499 31.0353 79.382 34.6157 81.8995 37.7833L82.5402 38.5639C83.8086 40.138 86.4879 40.8282 88.0476 39.3509C89.3419 38.0736 89.109 35.8157 87.737 34.6544L87.7434 34.648ZM88.4359 33.848C90.2933 35.3383 90.6363 38.4155 88.9019 40.1638C86.8568 42.2217 83.2909 41.4798 81.55 39.4154L80.8705 38.6155C78.1912 35.3963 76.0361 31.6869 74.8 27.6613C74.1723 25.7518 72.4184 25.0744 70.574 24.5841C67.8882 23.797 65.2931 22.6229 62.8986 21.1133C56.7504 17.3329 53.1586 10.8172 53.9935 3.55957C54.4336 -0.304704 60.0445 -0.0531071 60.0834 3.85633C59.941 8.33347 62.0961 12.3848 65.9467 14.7202C67.6488 15.8233 69.5774 16.5717 71.5318 17.1007C72.1401 17.2426 72.8132 17.5136 73.428 17.3974C74.0105 17.2942 74.5347 16.8684 74.7547 16.3136C74.9553 15.7459 74.923 14.9718 75.0395 14.346C75.2336 12.9719 75.4796 11.6365 75.7967 10.2624C75.9973 9.5463 76.4827 8.91408 77.1234 8.53346C79.162 7.23031 82.003 8.98505 81.6924 11.3913C80.9481 19.2747 82.1842 28.3645 88.4359 33.8416V33.848Z" fill="black"/>
<path d="M81.7701 144.222C84.9801 142.564 88.3777 140.945 91.0635 138.512C91.29 138.274 91.6783 138.629 91.4518 138.874C88.8242 141.551 85.5107 143.357 82.3072 145.247C81.6148 145.615 81.0647 144.577 81.7701 144.222Z" fill="black"/>
<path d="M78.9937 111.501C78.9937 111.501 84.0416 109.276 83.3233 105.76C83.1744 105.037 83.1227 104.295 83.2715 103.573C83.2715 103.553 83.278 103.534 83.2845 103.508C83.6792 101.741 85.7308 100.902 87.2775 101.85C87.9894 102.289 88.8825 103.031 89.8144 104.289C91.2123 106.173 93.2379 107.521 95.5548 107.901C96.4479 108.05 97.4769 108.108 98.6483 108.024C99.4572 107.966 100.273 108.037 101.049 108.25C102.473 108.643 103.975 109.566 102.395 111.753C102.395 111.753 101.334 113.927 98.7971 115.54C97.0433 116.656 95.9172 118.539 95.9431 120.61C95.9431 121.114 95.9819 121.668 96.0596 122.275C96.0596 122.275 96.5644 125.694 88.7531 124.668C88.7531 124.668 84.5788 124.378 81.0194 121.791C79.149 120.436 77.7641 118.481 77.2787 116.224C76.9163 114.533 77.0393 112.572 78.9872 111.495L78.9937 111.501Z" fill="url(#paint14_linear_710_2274)"/>
<path d="M78.7284 110.972C80.5405 110.088 82.5467 108.798 82.8703 106.727C82.9609 106.024 82.6891 105.289 82.7215 104.56C82.5985 102.824 83.9122 101.102 85.7179 101.07C87.407 101.012 88.6689 102.386 89.6591 103.553C91.7754 106.843 95.2895 108.185 99.1208 107.721C101.729 107.656 104.816 109.037 102.667 111.953C101.936 113.34 100.486 114.927 99.0043 115.869C97.2504 117.004 96.1632 119.049 96.4415 121.12C96.4415 121.288 96.5127 121.901 96.5191 122.068C96.7456 127.087 86.7145 125.326 83.8799 124.075C80.4369 122.791 77.2723 119.972 76.6057 116.191C76.1591 114.275 76.7869 111.888 78.7219 110.966L78.7284 110.972ZM79.2591 112.043C77.8483 112.804 77.5376 114.456 77.8871 115.953C78.929 121.068 84.4753 123.701 89.2967 124.159C90.9276 124.339 92.7397 124.488 94.2734 123.913C95.0824 123.591 95.6843 122.972 95.5807 122.191C95.5613 121.984 95.5354 121.385 95.5225 121.172C95.2701 118.817 96.6097 116.436 98.5901 115.237C100.02 114.34 101.295 113.082 102.098 111.617C103.12 110.25 102.939 109.159 101.224 108.63C99.0819 107.94 96.7586 108.701 94.5776 107.992C93.0891 107.579 91.7171 106.773 90.6105 105.695C89.5491 104.669 88.7919 103.34 87.5623 102.502C86.5074 101.599 84.9607 101.637 84.1193 102.721C83.4981 103.521 83.5757 104.618 83.7569 105.573C84.4365 108.56 81.5954 110.875 79.2397 112.037L79.2591 112.043Z" fill="black"/>
<path d="M98.8555 115.907C96.6875 116.443 94.5324 115.862 92.3903 115.527C90.3646 115.075 88.2808 115.185 86.2292 115.54C85.9898 115.591 85.8862 115.217 86.1192 115.14C87.1353 114.779 88.1966 114.508 89.2774 114.398C91.4195 114.101 93.5617 114.637 95.6909 114.791C96.7458 114.882 97.8201 115.017 98.8102 115.204C99.1791 115.262 99.205 115.817 98.8491 115.907H98.8555Z" fill="black"/>
<path d="M81.0777 113.766C81.3883 116.049 83.5045 117.482 85.6273 118.153C87.8988 118.92 90.2804 119.688 92.7008 119.552C92.9273 119.52 92.9856 119.875 92.7591 119.92C89.1608 120.63 79.3303 118.759 80.3658 113.63C80.4952 113.192 81.11 113.327 81.0777 113.766Z" fill="black"/>
<path d="M78.8708 111.108C81.6083 108.953 87.2516 107.624 90.4486 109.321C90.5328 109.366 90.5587 109.463 90.5198 109.547C90.481 109.624 90.3904 109.656 90.3127 109.624C87.5234 108.701 84.5529 109.566 81.9383 110.65C81.0517 111.037 80.178 111.482 79.2267 111.734C78.8643 111.843 78.5925 111.353 78.8772 111.108H78.8708Z" fill="black"/>
</g>
<defs>
<linearGradient id="paint0_linear_710_2274" x1="22.4869" y1="158.583" x2="1.06216" y2="177.719" gradientUnits="userSpaceOnUse">
<stop stop-color="#643C3B"/>
<stop offset="0.03" stop-color="#72453D"/>
<stop offset="0.12" stop-color="#996044"/>
<stop offset="0.22" stop-color="#B87449"/>
<stop offset="0.3" stop-color="#CF834D"/>
<stop offset="0.39" stop-color="#DC8C50"/>
<stop offset="0.47" stop-color="#E19051"/>
</linearGradient>
<linearGradient id="paint1_linear_710_2274" x1="14.7594" y1="203.401" x2="25.5272" y2="199.022" gradientUnits="userSpaceOnUse">
<stop stop-color="#643C3B"/>
<stop offset="0.03" stop-color="#72453D"/>
<stop offset="0.12" stop-color="#996044"/>
<stop offset="0.22" stop-color="#B87449"/>
<stop offset="0.3" stop-color="#CF834D"/>
<stop offset="0.39" stop-color="#DC8C50"/>
<stop offset="0.47" stop-color="#E19051"/>
</linearGradient>
<linearGradient id="paint2_linear_710_2274" x1="137.332" y1="47.8382" x2="142.527" y2="12.9256" gradientUnits="userSpaceOnUse">
<stop offset="0.56" stop-color="#F9E9B3"/>
<stop offset="0.61" stop-color="#F3D9A5"/>
<stop offset="0.79" stop-color="#E1A276"/>
<stop offset="0.93" stop-color="#D58059"/>
<stop offset="1" stop-color="#D1744E"/>
</linearGradient>
<linearGradient id="paint3_linear_710_2274" x1="79.0632" y1="97.7007" x2="80.3104" y2="57.4385" gradientUnits="userSpaceOnUse">
<stop stop-color="#643C3B"/>
<stop offset="0.03" stop-color="#72453D"/>
<stop offset="0.12" stop-color="#996044"/>
<stop offset="0.22" stop-color="#B87449"/>
<stop offset="0.3" stop-color="#CF834D"/>
<stop offset="0.39" stop-color="#DC8C50"/>
<stop offset="0.47" stop-color="#E19051"/>
</linearGradient>
<linearGradient id="paint4_linear_710_2274" x1="97.2176" y1="109.823" x2="109.34" y2="28.3512" gradientUnits="userSpaceOnUse">
<stop stop-color="#643C3B"/>
<stop offset="0.02" stop-color="#7C4C3F"/>
<stop offset="0.05" stop-color="#9B6144"/>
<stop offset="0.08" stop-color="#B47249"/>
<stop offset="0.11" stop-color="#C87F4C"/>
<stop offset="0.15" stop-color="#D6884F"/>
<stop offset="0.2" stop-color="#DE8E50"/>
<stop offset="0.28" stop-color="#E19051"/>
</linearGradient>
<linearGradient id="paint5_linear_710_2274" x1="33.7457" y1="92.0277" x2="49.7453" y2="40.9671" gradientUnits="userSpaceOnUse">
<stop stop-color="#643C3B"/>
<stop offset="0.06" stop-color="#835140"/>
<stop offset="0.15" stop-color="#A56746"/>
<stop offset="0.23" stop-color="#BF794B"/>
<stop offset="0.32" stop-color="#D2864E"/>
<stop offset="0.41" stop-color="#DD8D50"/>
<stop offset="0.51" stop-color="#E19051"/>
</linearGradient>
<linearGradient id="paint6_linear_710_2274" x1="48.0806" y1="188.06" x2="114.749" y2="99.048" gradientUnits="userSpaceOnUse">
<stop stop-color="#643C3B"/>
<stop offset="0.03" stop-color="#72453D"/>
<stop offset="0.12" stop-color="#996044"/>
<stop offset="0.22" stop-color="#B87449"/>
<stop offset="0.3" stop-color="#CF834D"/>
<stop offset="0.39" stop-color="#DC8C50"/>
<stop offset="0.47" stop-color="#E19051"/>
</linearGradient>
<linearGradient id="paint7_linear_710_2274" x1="57.4648" y1="116.295" x2="80.8089" y2="91.1384" gradientUnits="userSpaceOnUse">
<stop stop-color="#487E50"/>
<stop offset="0.07" stop-color="#518A58"/>
<stop offset="0.21" stop-color="#61A167"/>
<stop offset="0.34" stop-color="#6AAE6F"/>
<stop offset="0.47" stop-color="#6EB373"/>
</linearGradient>
<linearGradient id="paint8_linear_710_2274" x1="24.8865" y1="93.2011" x2="43.4139" y2="109.273" gradientUnits="userSpaceOnUse">
<stop stop-color="#643C3B"/>
<stop offset="0.03" stop-color="#72453D"/>
<stop offset="0.12" stop-color="#996044"/>
<stop offset="0.22" stop-color="#B87449"/>
<stop offset="0.3" stop-color="#CF834D"/>
<stop offset="0.39" stop-color="#DC8C50"/>
<stop offset="0.47" stop-color="#E19051"/>
</linearGradient>
<linearGradient id="paint9_linear_710_2274" x1="16.3454" y1="197.686" x2="87.9451" y2="168.563" gradientUnits="userSpaceOnUse">
<stop stop-color="#487E50"/>
<stop offset="0.07" stop-color="#518A58"/>
<stop offset="0.21" stop-color="#61A167"/>
<stop offset="0.34" stop-color="#6AAE6F"/>
<stop offset="0.47" stop-color="#6EB373"/>
</linearGradient>
<linearGradient id="paint10_linear_710_2274" x1="62.8665" y1="197.71" x2="57.0232" y2="186.06" gradientUnits="userSpaceOnUse">
<stop stop-color="#643C3B"/>
<stop offset="0.03" stop-color="#72453D"/>
<stop offset="0.12" stop-color="#996044"/>
<stop offset="0.22" stop-color="#B87449"/>
<stop offset="0.3" stop-color="#CF834D"/>
<stop offset="0.39" stop-color="#DC8C50"/>
<stop offset="0.47" stop-color="#E19051"/>
</linearGradient>
<linearGradient id="paint11_linear_710_2274" x1="37.0753" y1="190.079" x2="51.411" y2="130.223" gradientUnits="userSpaceOnUse">
<stop stop-color="#487E50"/>
<stop offset="0.07" stop-color="#518A58"/>
<stop offset="0.21" stop-color="#61A167"/>
<stop offset="0.34" stop-color="#6AAE6F"/>
<stop offset="0.47" stop-color="#6EB373"/>
</linearGradient>
<linearGradient id="paint12_linear_710_2274" x1="113.886" y1="61.1073" x2="115.143" y2="30.7673" gradientUnits="userSpaceOnUse">
<stop stop-color="#643C3B"/>
<stop offset="0.08" stop-color="#8F2C2B"/>
<stop offset="0.16" stop-color="#B71E1E"/>
<stop offset="0.24" stop-color="#D61413"/>
<stop offset="0.32" stop-color="#ED0C0C"/>
<stop offset="0.4" stop-color="#FA0707"/>
<stop offset="0.47" stop-color="#FF0606"/>
</linearGradient>
<linearGradient id="paint13_linear_710_2274" x1="68.8271" y1="41.8648" x2="74.6317" y2="2.85534" gradientUnits="userSpaceOnUse">
<stop offset="0.56" stop-color="#F9E9B3"/>
<stop offset="0.61" stop-color="#F3D9A5"/>
<stop offset="0.79" stop-color="#E1A276"/>
<stop offset="0.93" stop-color="#D58059"/>
<stop offset="1" stop-color="#D1744E"/>
</linearGradient>
<linearGradient id="paint14_linear_710_2274" x1="84.3855" y1="124.647" x2="93.5752" y2="104.483" gradientUnits="userSpaceOnUse">
<stop stop-color="#487E50"/>
<stop offset="0.07" stop-color="#518A58"/>
<stop offset="0.21" stop-color="#61A167"/>
<stop offset="0.34" stop-color="#6AAE6F"/>
<stop offset="0.47" stop-color="#6EB373"/>
</linearGradient>
<clipPath id="clip0_710_2274">
<rect width="160" height="209" fill="white" transform="translate(0 0.791992)"/>
</clipPath>
</defs>
</svg>
