<svg width="40" height="40" viewBox="0 0 40 40" fill="none" xmlns="http://www.w3.org/2000/svg">
<path fill-rule="evenodd" clip-rule="evenodd" d="M12.16 12.49H29.49C30.43 12.49 31.29 12.06 31.86 11.3C32.43 10.53 32.61 9.56 32.33 8.63C30.83 3.55 26.1 0 20.83 0C19.24 0 17.69 0.31 16.22 0.93C16.17 0.95 16.12 0.99 16.08 1.02C15.88 0.89 15.66 0.8 15.41 0.8C14.72 0.8 14.16 1.36 14.16 2.05C14.16 2.74 14.72 3.3 15.41 3.3C16.1 3.3 16.66 2.74 16.66 2.05C16.66 1.98 16.63 1.91 16.62 1.84C17.96 1.28 19.37 0.99 20.82 0.99C25.66 0.99 29.99 4.25 31.37 8.91C31.55 9.53 31.44 10.18 31.05 10.7C30.68 11.2 30.11 11.48 29.48 11.48H12.16C11.58 11.48 11.06 11.23 10.7 10.79C10.29 10.28 10.14 9.57 10.29 8.88C10.5 7.93 11.51 6 12.39 5.1C12.58 4.9 12.58 4.59 12.39 4.39C12.2 4.19 11.88 4.2 11.68 4.39C10.64 5.45 9.55999 7.55 9.31999 8.65C9.09999 9.65 9.31999 10.65 9.92999 11.4C10.48 12.09 11.28 12.46 12.17 12.46L12.16 12.49Z" fill="#201A18"/>
<path fill-rule="evenodd" clip-rule="evenodd" d="M28.17 22.4C27.15 22.4 26.33 21.57 26.33 20.55C26.33 19.99 26.58 19.47 27.02 19.12C27.83 18.48 28.53 17.72 29.11 16.87C29.14 16.87 29.17 16.89 29.2 16.89C29.89 16.89 30.45 16.33 30.45 15.64C30.45 14.95 29.89 14.39 29.2 14.39C28.51 14.39 27.95 14.95 27.95 15.64C27.95 15.92 28.06 16.17 28.22 16.38C27.71 17.11 27.1 17.77 26.39 18.33C25.71 18.86 25.32 19.67 25.32 20.54C25.32 22.11 26.6 23.38 28.16 23.38C31.3 23.38 33.86 25.94 33.86 29.08V36.41C33.86 37.83 32.71 38.98 31.29 38.98H10.31C8.88999 38.98 7.73999 37.83 7.73999 36.41V35.33C7.73999 35.05 7.51999 34.83 7.23999 34.83C6.95999 34.83 6.73999 35.05 6.73999 35.33V36.41C6.73999 38.38 8.33999 39.98 10.31 39.98H31.3C33.27 39.98 34.87 38.38 34.87 36.41V29.08C34.87 25.39 31.87 22.38 28.17 22.38V22.4Z" fill="#201A18"/>
<path fill-rule="evenodd" clip-rule="evenodd" d="M8.51 30.6999C8.51 30.1799 8.19 29.7299 7.74 29.5499V29.0999C7.74 25.9599 10.3 23.3999 13.44 23.3999C15.01 23.3999 16.28 22.1199 16.28 20.5599C16.28 19.6899 15.88 18.8799 15.18 18.3199C14.58 17.8399 14.04 17.2899 13.57 16.6799C13.33 16.3699 13.11 16.0299 12.92 15.6899C12.78 15.4399 12.65 15.1899 12.53 14.9299C12.42 14.6799 12.12 14.5599 11.87 14.6799C11.62 14.7999 11.5 15.0899 11.62 15.3399C11.75 15.6299 11.89 15.9099 12.05 16.1899C12.26 16.5699 12.51 16.9399 12.77 17.2799C13.28 17.9599 13.88 18.5699 14.55 19.0999C15.01 19.4599 15.27 19.9899 15.27 20.5499C15.27 21.5699 14.44 22.3899 13.43 22.3899C9.74 22.3899 6.73 25.3899 6.73 29.0899V29.5599C6.3 29.7599 6 30.1899 6 30.6899C6 31.3799 6.56 31.9399 7.25 31.9399C7.94 31.9399 8.5 31.3799 8.5 30.6899L8.51 30.6999Z" fill="#201A18"/>
</svg>
