<svg width="40" height="40" viewBox="0 0 40 40" fill="none" xmlns="http://www.w3.org/2000/svg">
<path d="M26.3775 7.69677C25.6875 7.69677 25.1275 8.25677 25.1275 8.94677C25.1275 9.63677 25.6875 10.1968 26.3775 10.1968C26.8375 10.1968 27.2175 9.93677 27.4375 9.56677C29.2275 9.89677 30.5875 11.4568 30.5875 13.3368C30.5875 13.6168 30.8075 13.8368 31.0875 13.8368C31.3675 13.8368 31.5875 13.6168 31.5875 13.3368C31.5875 10.9468 29.8375 8.96677 27.5575 8.57677C27.3975 8.06677 26.9375 7.68677 26.3775 7.68677V7.69677Z" fill="#201A18"/>
<path d="M4.6975 27.5067C4.6075 27.5067 4.5375 27.5367 4.4475 27.5567C3.8775 26.0467 4.1875 24.2667 5.4075 23.0567C5.6075 22.8567 5.6075 22.5467 5.4075 22.3467C5.2075 22.1467 4.8975 22.1467 4.6975 22.3467C3.1275 23.9167 2.7775 26.2367 3.6175 28.1567C3.5175 28.3367 3.4475 28.5367 3.4475 28.7567C3.4475 29.4467 4.0075 30.0067 4.6975 30.0067C5.3875 30.0067 5.9475 29.4467 5.9475 28.7567C5.9475 28.0667 5.3875 27.5067 4.6975 27.5067Z" fill="#201A18"/>
<path d="M39.8175 27.8367L33.8575 21.8767C32.9675 20.9867 31.5575 20.8267 30.4975 21.5067C28.7975 22.6067 26.8075 23.0467 24.7675 22.7667C21.0675 22.2767 18.0475 19.2267 17.5775 15.5267C17.2475 12.8967 18.1175 10.3267 19.9775 8.46671C21.8375 6.60671 24.4075 5.73671 27.0375 6.06671C30.8675 6.54671 33.9275 9.68671 34.3175 13.5367C34.4275 14.6167 34.3275 15.6767 34.0375 16.7067C33.3775 16.7367 32.8475 17.2767 32.8475 17.9467C32.8475 18.6167 33.4075 19.1967 34.0975 19.1967C34.7875 19.1967 35.3475 18.6367 35.3475 17.9467C35.3475 17.5967 35.2075 17.2867 34.9775 17.0567C35.3175 15.8867 35.4375 14.6767 35.3075 13.4367C34.8675 9.13671 31.4375 5.61671 27.1575 5.07671C24.2175 4.70671 21.3375 5.68671 19.2675 7.76671C17.1875 9.84671 16.2175 12.7267 16.5875 15.6667C17.1175 19.8067 20.4975 23.2167 24.6375 23.7767C26.8875 24.0767 29.1675 23.5767 31.0375 22.3567C31.6975 21.9267 32.5875 22.0267 33.1475 22.5967L39.1075 28.5567C39.2075 28.6567 39.3375 28.7067 39.4575 28.7067C39.5775 28.7067 39.7175 28.6567 39.8075 28.5567C40.0075 28.3567 40.0075 28.0467 39.8075 27.8467L39.8175 27.8367Z" fill="#201A18"/>
<path d="M10.1475 27.7867C11.1075 26.8267 11.1075 25.2667 10.1475 24.3067C9.18751 23.3467 7.62751 23.3467 6.66751 24.3067C5.70751 25.2667 5.70751 26.8267 6.66751 27.7867C7.12751 28.2467 7.74751 28.5067 8.40751 28.5067C9.06751 28.5067 9.67751 28.2467 10.1475 27.7867ZM7.37751 25.0167C7.65751 24.7367 8.03751 24.5867 8.40751 24.5867C8.77751 24.5867 9.15751 24.7267 9.43751 25.0167C10.0075 25.5867 10.0075 26.5067 9.43751 27.0767C8.88751 27.6267 7.92751 27.6267 7.37751 27.0767C6.80751 26.5067 6.80751 25.5867 7.37751 25.0167Z" fill="#201A18"/>
<path d="M12.1075 29.7567C13.0975 28.7667 13.6375 27.4567 13.6375 26.0567C13.6375 24.6567 13.0975 23.3467 12.1075 22.3567C11.3275 21.5767 10.3375 21.0767 9.27749 20.8967C9.09749 20.4267 8.64749 20.0867 8.11749 20.0867C7.42749 20.0867 6.86749 20.6467 6.86749 21.3367C6.86749 22.0267 7.42749 22.5867 8.11749 22.5867C8.60749 22.5867 9.00749 22.3067 9.21749 21.8967C10.0375 22.0567 10.7975 22.4567 11.3975 23.0567C12.1975 23.8567 12.6375 24.9167 12.6375 26.0567C12.6375 27.1967 12.1975 28.2567 11.3975 29.0567C10.3375 30.1167 8.83749 30.5367 7.37749 30.1767C7.10749 30.1067 6.83749 30.2767 6.76749 30.5467C6.69749 30.8167 6.86749 31.0867 7.13749 31.1567C7.55749 31.2567 7.98749 31.3167 8.40749 31.3167C9.77749 31.3167 11.0975 30.7767 12.0975 29.7767L12.1075 29.7567Z" fill="#201A18"/>
<path d="M25.9675 25.5567C25.6875 25.5567 25.4675 25.7767 25.4675 26.0567C25.4675 27.5667 25.0175 28.9767 24.2375 30.1467C24.2175 30.1467 24.2075 30.1467 24.1975 30.1467H20.7675C20.5775 29.7067 20.1375 29.3967 19.6275 29.3967C18.9375 29.3967 18.3775 29.9567 18.3775 30.6467C18.3775 31.3367 18.9375 31.8967 19.6275 31.8967C20.1375 31.8967 20.5775 31.5867 20.7675 31.1467H23.4575C22.0975 32.5967 20.1675 33.5067 18.0275 33.5067H12.3975C13.1175 33.1267 13.7875 32.6367 14.3875 32.0367C15.3975 31.0267 16.0975 29.8267 16.4875 28.5467H21.4775C21.6675 28.9867 22.1075 29.2967 22.6175 29.2967C23.3075 29.2967 23.8675 28.7367 23.8675 28.0467C23.8675 27.3567 23.3075 26.7967 22.6175 26.7967C22.1075 26.7967 21.6675 27.1067 21.4775 27.5467H16.7275C17.1875 24.9267 16.4175 22.1167 14.3975 20.0967C13.7975 19.4967 13.1275 19.0067 12.4075 18.6267H14.8175C15.0975 18.6267 15.3175 18.4067 15.3175 18.1267C15.3175 17.8467 15.0975 17.6267 14.8175 17.6267H8.7775C8.7775 17.6267 8.7275 17.6367 8.6975 17.6467C6.4475 17.5767 4.1775 18.3867 2.4675 20.1067C-0.8225 23.3967 -0.8225 28.7567 2.4675 32.0467C4.1175 33.6967 6.2775 34.5167 8.4375 34.5167C8.4775 34.5167 8.5175 34.5167 8.5475 34.5167C8.5675 34.5167 8.5775 34.5167 8.5975 34.5167H18.0475C22.7075 34.5167 26.4975 30.7267 26.4975 26.0667C26.4975 25.7867 26.2775 25.5667 25.9975 25.5667L25.9675 25.5567ZM3.1475 20.7867C4.5975 19.3367 6.5075 18.6067 8.4075 18.6067C10.3075 18.6067 12.2175 19.3367 13.6675 20.7867C16.5675 23.6867 16.5675 28.4167 13.6675 31.3167C10.7675 34.2167 6.0375 34.2167 3.1375 31.3167C0.2375 28.4167 0.2375 23.6867 3.1375 20.7867H3.1475Z" fill="#201A18"/>
</svg>
