<svg width="40" height="40" viewBox="0 0 40 40" fill="none" xmlns="http://www.w3.org/2000/svg">
<path d="M38.7397 7.09C37.8995 6.25 36.8692 5.82 35.6789 5.82H32.2581C30.7477 5.82 29.2873 5.18 28.2571 4.07C27.0368 2.75 25.3063 2 23.5059 2H17.2443C15.4439 2 13.7134 2.76 12.4931 4.07C11.4629 5.18 10.0125 5.82 8.49212 5.82H5.07127C3.89097 5.82 2.86071 6.25 2.0205 7.09C1.18029 7.93 0.750188 8.96 0.750188 10.15V19.04C0.310077 19.24 0 19.68 0 20.19C0 20.89 0.570143 21.46 1.27032 21.46C1.97049 21.46 2.54063 20.89 2.54063 20.19C2.54063 19.67 2.22055 19.22 1.77044 19.02V10.14C1.77044 9.22 2.09052 8.45 2.75069 7.8C3.40085 7.15 4.17104 6.83 5.08127 6.83H8.50212C10.3026 6.83 12.033 6.07 13.2533 4.76C14.2836 3.65 15.7339 3.01 17.2543 3.01H23.5159C25.0263 3.01 26.4866 3.65 27.5169 4.76C28.7372 6.08 30.4676 6.83 32.2681 6.83H35.6889C36.6091 6.83 37.3793 7.15 38.0295 7.81C38.6797 8.47 38.9997 9.23 38.9997 10.15V33.09C38.9997 34.01 38.6797 34.78 38.0195 35.43C37.3693 36.08 36.5991 36.4 35.6889 36.4H5.08127C4.16104 36.4 3.39085 36.08 2.74068 35.42C2.08052 34.76 1.77044 34 1.77044 33.08V29.12C1.77044 28.84 1.54039 28.61 1.26031 28.61C0.980245 28.61 0.750188 28.84 0.750188 29.12V33.08C0.750188 34.27 1.18029 35.29 2.0205 36.14C2.86071 36.98 3.89097 37.41 5.08127 37.41H35.6789C36.8592 37.41 37.8895 36.98 38.7297 36.14C39.5699 35.3 40 34.27 40 33.08V10.14C40 8.95 39.5699 7.93 38.7297 7.08L38.7397 7.09Z" fill="#201A18"/>
<path d="M20.3851 30.72C22.9057 30.72 25.0763 29.83 26.8367 28.06C28.5972 26.3 29.4974 24.13 29.4974 21.61C29.4974 19.09 28.6072 16.92 26.8367 15.16C25.0763 13.4 22.9057 12.5 20.3951 12.5C17.8745 12.5 15.7039 13.39 13.9435 15.16C12.1831 16.92 11.2828 19.09 11.2828 21.61C11.2828 24.13 12.1731 26.3 13.9435 28.06C15.7039 29.82 17.8745 30.72 20.3951 30.72H20.3851ZM12.2931 21.61C12.2931 19.34 13.0633 17.47 14.6537 15.88C16.2441 14.29 18.1245 13.52 20.3951 13.52C22.6657 13.52 24.5361 14.29 26.1265 15.88C27.7169 17.47 28.4871 19.34 28.4871 21.62C28.4871 23.89 27.7169 25.76 26.1265 27.35C24.5361 28.94 22.6657 29.71 20.3951 29.71C18.1245 29.71 16.2541 28.94 14.6637 27.35C13.0733 25.76 12.3031 23.88 12.3031 21.61H12.2931Z" fill="#201A18"/>
</svg>
