<svg width="40" height="40" viewBox="0 0 40 40" fill="none" xmlns="http://www.w3.org/2000/svg">
<g clip-path="url(#clip0_485_2141)">
<path d="M37.31 8.06256C35.6 6.35256 33.32 5.39256 30.9 5.37256C28.52 5.37256 26.18 6.27256 24.44 7.95256L10.12 21.8926C9.65999 22.3426 9.28999 22.8726 9.03999 23.4626C8.78999 24.0526 8.64999 24.6826 8.64999 25.3326C8.64999 25.9826 8.76999 26.6126 9.00999 27.2026C9.24999 27.8026 9.60999 28.3326 10.07 28.7926C10.53 29.2526 11.06 29.6026 11.66 29.8526C12.24 30.0926 12.86 30.2126 13.49 30.2126H13.53C14.18 30.2126 14.8 30.0726 15.4 29.8226C15.99 29.5626 16.52 29.2026 16.96 28.7426L31.28 14.4226C31.47 14.2326 31.47 13.9226 31.28 13.7326C31.09 13.5426 30.78 13.5426 30.59 13.7326L16.27 28.0526C15.91 28.4226 15.49 28.7126 15.02 28.9126C14.55 29.1126 14.05 29.2226 13.53 29.2226C13 29.2226 12.51 29.1326 12.04 28.9326C11.56 28.7326 11.14 28.4526 10.77 28.0926C10.41 27.7326 10.12 27.3026 9.92999 26.8226C9.72999 26.3526 9.63999 25.8426 9.63999 25.3326C9.63999 24.8126 9.74999 24.3126 9.94999 23.8426C10.15 23.3726 10.45 22.9426 10.82 22.5926L25.14 8.65256C26.68 7.16256 28.7 6.35256 30.84 6.35256C30.86 6.35256 30.89 6.35256 30.91 6.35256C33.07 6.37256 35.11 7.22256 36.64 8.75256C38.17 10.2826 39.02 12.3226 39.04 14.4826C39.06 16.6426 38.24 18.7026 36.74 20.2426L29.49 27.3726C29.3 27.5626 29.3 27.8726 29.49 28.0626C29.68 28.2526 29.99 28.2526 30.18 28.0626L37.44 20.9226C39.12 19.1826 40.04 16.8826 40.02 14.4626C40 12.0426 39.04 9.76256 37.33 8.05256L37.31 8.06256Z" fill="#201A18"/>
<path d="M23.56 32.4825C22.89 32.4825 22.34 33.0325 22.34 33.7025C22.34 33.8725 22.37 34.0325 22.44 34.1725C22.44 34.1725 22.42 34.1825 22.41 34.1925C20.04 36.5625 16.89 37.8725 13.53 37.8725C10.17 37.8725 7.02 36.5625 4.65 34.1925C2.28 31.8225 0.97 28.6625 0.97 25.3125C0.97 21.9625 2.28 18.8025 4.65 16.4325L18.22 2.8325C18.41 2.6425 18.41 2.3325 18.22 2.1425C18.03 1.9525 17.72 1.9525 17.53 2.1425L3.96 15.7525C1.4 18.3125 0 21.7025 0 25.3225C0 28.9425 1.41 32.3325 3.96 34.8925C6.52 37.4525 9.91 38.8525 13.53 38.8525C17.15 38.8525 20.54 37.4425 23.1 34.8925C23.12 34.8725 23.12 34.8625 23.13 34.8425C23.26 34.8925 23.41 34.9325 23.56 34.9325C24.23 34.9325 24.78 34.3825 24.78 33.7125C24.78 33.0425 24.23 32.4925 23.56 32.4925V32.4825Z" fill="#201A18"/>
</g>
<defs>
<clipPath id="clip0_485_2141">
<rect width="40" height="40" fill="white"/>
</clipPath>
</defs>
</svg>
