<svg width="40" height="40" viewBox="0 0 40 40" fill="none" xmlns="http://www.w3.org/2000/svg">
<path d="M28.34 0.77H21.35C21.15 0.32 20.71 0 20.18 0C19.48 0 18.91 0.57 18.91 1.27C18.91 1.97 19.48 2.54 20.18 2.54C20.7 2.54 21.15 2.22 21.35 1.77H28.34C31.66 1.77 34.36 4.47 34.36 7.79V32.96C34.36 36.28 31.66 38.98 28.34 38.98H12.03C8.71 38.98 6.01 36.28 6.01 32.96V7.8C6.01 4.48 8.71 1.78 12.03 1.78H15.31C15.59 1.78 15.82 1.55 15.82 1.27C15.82 0.99 15.59 0.76 15.31 0.76H12.03C8.15 0.77 5 3.92 5 7.8V32.97C5 36.85 8.15 40 12.03 40H28.34C32.22 40 35.37 36.85 35.37 32.97V7.8C35.37 3.92 32.22 0.77 28.34 0.77Z" fill="white"/>
<path d="M29.6 11.52C29.1 11.52 28.67 11.82 28.47 12.24H11.9C11.69 11.82 11.27 11.52 10.77 11.52C10.07 11.52 9.5 12.09 9.5 12.79C9.5 13.49 10.07 14.06 10.77 14.06C11.27 14.06 11.7 13.76 11.9 13.34H28.46C28.67 13.76 29.09 14.06 29.59 14.06C30.29 14.06 30.86 13.49 30.86 12.79C30.86 12.09 30.29 11.52 29.59 11.52H29.6Z" fill="white"/>
<path d="M29.6 19.12C29.1 19.12 28.67 19.42 28.47 19.84H10.06C9.76001 19.84 9.51001 20.08 9.51001 20.39C9.51001 20.7 9.75001 20.94 10.06 20.94H28.47C28.68 21.36 29.1 21.66 29.6 21.66C30.3 21.66 30.87 21.09 30.87 20.39C30.87 19.69 30.3 19.12 29.6 19.12Z" fill="white"/>
<path d="M11.9 27.43C11.69 27.01 11.27 26.71 10.77 26.71C10.07 26.71 9.5 27.28 9.5 27.98C9.5 28.68 10.07 29.25 10.77 29.25C11.27 29.25 11.7 28.95 11.9 28.53H30.31C30.61 28.53 30.86 28.29 30.86 27.98C30.86 27.67 30.62 27.43 30.31 27.43H11.9Z" fill="white"/>
</svg>
