<svg width="40" height="40" viewBox="0 0 40 40" fill="none" xmlns="http://www.w3.org/2000/svg">
<g clip-path="url(#clip0_481_4221)">
<path d="M36.54 0H27.8C27.52 0 27.3 0.22 27.3 0.5C27.3 0.78 27.52 1 27.8 1H36.54C37.89 1 39 2.1 39 3.46V12.2C39 12.48 39.22 12.7 39.5 12.7C39.78 12.7 40 12.48 40 12.2V3.46C40 1.55 38.45 0 36.54 0Z" fill="#201A18"/>
<path d="M39.5 27.3C39.22 27.3 39 27.52 39 27.8V36.5401C39 37.8901 37.9 39 36.54 39H27.8C27.52 39 27.3 39.22 27.3 39.5C27.3 39.78 27.52 40 27.8 40H36.54C38.45 40 40 38.4501 40 36.5401V27.8C40 27.52 39.78 27.3 39.5 27.3Z" fill="#201A18"/>
<path d="M12.2 39H3.46C2.11 39 1 37.9001 1 36.5401V27.8C1 27.52 0.78 27.3 0.5 27.3C0.22 27.3 0 27.52 0 27.8V36.5401C0 38.4401 1.55 40 3.46 40H12.21C12.49 40 12.71 39.78 12.71 39.5C12.71 39.22 12.49 39 12.21 39H12.2Z" fill="#201A18"/>
<path d="M0.5 12.7C0.78 12.7 1 12.48 1 12.2V3.46C1 2.11 2.1 1 3.46 1H12.21C12.49 1 12.71 0.78 12.71 0.5C12.71 0.22 12.49 0 12.21 0H3.46C1.55 0 0 1.55 0 3.46V12.2C0 12.48 0.22 12.7 0.5 12.7Z" fill="#201A18"/>
<path d="M15.03 29.45C14.58 29.45 14.21 29.7 13.99 30.05C11.54 29.38 9.73999 27.15 9.73999 24.49C9.73999 24.21 9.51999 23.99 9.23999 23.99C8.95999 23.99 8.73999 24.21 8.73999 24.49C8.73999 27.65 10.92 30.3 13.85 31.04C14 31.56 14.46 31.95 15.03 31.95C15.72 31.95 16.28 31.39 16.28 30.7C16.28 30.01 15.72 29.45 15.03 29.45Z" fill="#201A18"/>
<path d="M15.51 21.41C13.81 21.41 12.42 22.8 12.42 24.5C12.42 26.2 13.81 27.59 15.51 27.59C17.21 27.59 18.6 26.2 18.6 24.5C18.6 22.8 17.21 21.41 15.51 21.41ZM15.51 26.59C14.36 26.59 13.42 25.65 13.42 24.5C13.42 23.35 14.36 22.41 15.51 22.41C16.66 22.41 17.6 23.35 17.6 24.5C17.6 25.65 16.66 26.59 15.51 26.59Z" fill="#201A18"/>
<path d="M15.51 17.73C13.85 17.73 12.28 18.34 11.06 19.4C10.91 19.34 10.75 19.3 10.57 19.3C9.88001 19.3 9.32001 19.86 9.32001 20.55C9.32001 21.24 9.88001 21.8 10.57 21.8C11.26 21.8 11.82 21.24 11.82 20.55C11.82 20.4 11.78 20.27 11.74 20.13C12.78 19.23 14.11 18.72 15.51 18.72C18.69 18.72 21.27 21.31 21.27 24.48C21.27 26.52 20.23 28.36 18.48 29.42C18.24 29.56 18.17 29.87 18.31 30.11C18.4 30.27 18.57 30.35 18.74 30.35C18.83 30.35 18.92 30.33 19 30.28C21.05 29.04 22.27 26.88 22.27 24.49C22.27 20.76 19.24 17.73 15.51 17.73Z" fill="#201A18"/>
<path d="M32.28 23.29C34.36 21.21 35.5 18.45 35.5 15.51C35.5 12.57 34.36 9.81001 32.28 7.73001C30.2 5.65001 27.44 4.51001 24.5 4.51001C21.56 4.51001 18.8 5.66001 16.72 7.73001L7.88001 16.57H7.89001C5.81001 18.58 4.51001 21.39 4.51001 24.5C4.51001 30.57 9.45001 35.51 15.52 35.51C18.63 35.51 21.44 34.21 23.44 32.13H23.45L32.29 23.3L32.28 23.29ZM15.51 34.5C9.99001 34.5 5.50001 30.01 5.50001 24.49C5.50001 18.97 9.99001 14.48 15.51 14.48C21.03 14.48 25.52 18.97 25.52 24.49C25.52 30.01 21.03 34.5 15.51 34.5ZM25.18 19.24L30.26 14.16C30.71 14.33 31.24 14.24 31.6 13.88C32.09 13.39 32.09 12.6 31.6 12.11C31.11 11.62 30.32 11.62 29.83 12.11C29.47 12.47 29.38 13 29.55 13.45L24.64 18.36C22.66 15.43 19.31 13.49 15.51 13.49C14.15 13.49 12.86 13.75 11.65 14.2L17.42 8.43001C19.31 6.54001 21.82 5.50001 24.5 5.50001C24.87 5.50001 25.24 5.52001 25.6 5.56001L22.56 8.60001C22.1 8.40001 21.56 8.49001 21.18 8.86001C20.69 9.35001 20.69 10.14 21.18 10.63C21.67 11.12 22.46 11.12 22.95 10.63C23.3 10.28 23.39 9.78001 23.24 9.34001L26.81 5.77001C28.6 6.19001 30.25 7.09001 31.58 8.42001C33.01 9.85001 33.95 11.63 34.33 13.58C34.29 13.6 34.24 13.62 34.21 13.66L30.61 17.26C30.15 17.06 29.61 17.15 29.23 17.52C28.74 18.01 28.74 18.8 29.23 19.29C29.72 19.78 30.51 19.78 31 19.29C31.35 18.94 31.44 18.44 31.29 18L34.48 14.81C34.5 15.04 34.51 15.27 34.51 15.51C34.51 18.18 33.47 20.7 31.58 22.59L25.81 28.36C26.26 27.16 26.52 25.86 26.52 24.51C26.52 22.61 26.03 20.81 25.18 19.25V19.24Z" fill="#201A18"/>
</g>
<defs>
<clipPath id="clip0_481_4221">
<rect width="40" height="40" fill="white"/>
</clipPath>
</defs>
</svg>
