<svg width="198" height="210" viewBox="0 0 198 210" fill="none" xmlns="http://www.w3.org/2000/svg">
<path d="M99.8653 132.904C95.2053 132.054 82.1853 130.614 77.1053 139.914C76.6553 140.744 76.3553 141.654 76.1553 142.584C75.3553 146.344 72.0453 158.784 62.9853 162.744C61.9853 163.184 62.0553 164.644 63.1053 164.934C66.2853 165.794 71.6853 165.914 77.7053 160.224C78.8153 159.174 79.4653 157.714 79.5253 156.174C79.5753 154.854 79.6853 153.184 79.9353 151.874C80.0853 151.064 81.2153 150.934 81.5553 151.684C81.9353 152.544 82.3153 153.654 82.4253 154.854C82.4753 155.384 82.9653 155.754 83.4753 155.634C84.8253 155.314 87.1053 154.064 87.6553 149.314C87.7953 148.064 88.1253 146.844 88.6853 145.724C89.6953 143.734 91.6953 141.124 95.5853 139.764C96.6453 139.394 97.7553 139.164 98.8753 139.054C100.425 138.904 104.055 138.244 102.975 135.414C102.475 134.094 101.255 133.164 99.8653 132.904Z" fill="url(#paint0_linear_755_2759)"/>
<path d="M99.7851 133.344C92.1551 131.704 82.0551 132.334 77.7351 139.794C76.6851 141.394 76.6051 143.354 76.0651 145.164C75.4051 147.674 74.5251 150.134 73.4151 152.494C71.4551 156.624 68.5551 160.614 64.4651 162.864C63.9151 163.184 63.0651 163.544 63.1351 163.614C63.0251 163.784 63.0851 164.064 63.2451 164.104C68.5351 165.644 74.1151 162.844 77.6751 158.934C79.3951 156.704 78.2451 153.634 79.3251 151.114C79.9351 150.094 81.5351 150.064 82.1851 151.084C82.8151 152.254 83.0851 153.544 83.2651 154.834C84.4951 154.574 85.4151 153.644 86.0051 152.454C87.1051 150.204 86.7951 147.304 88.1951 145.094C89.4951 142.704 91.6151 140.784 94.0751 139.694C95.8451 138.834 97.9151 138.564 99.8151 138.344C100.835 138.134 102.185 137.794 102.575 136.794C102.975 135.194 101.345 133.584 99.7851 133.324V133.344ZM99.9451 132.454C102.035 132.794 104.135 134.844 103.545 137.134C102.995 138.664 101.395 139.124 100.025 139.444C98.1151 139.724 96.3151 139.954 94.5951 140.824C91.3051 142.384 88.7951 145.534 88.4051 149.184C88.1951 152.174 86.5751 156.414 82.9551 156.444C82.0751 156.314 81.5551 155.404 81.5551 154.644C81.4451 153.924 81.2451 153.204 80.9751 152.524L80.8051 152.114C80.7651 152.014 80.7551 152.024 80.7751 152.034C80.7951 152.044 80.7751 152.034 80.7651 152.044C80.7651 152.044 80.7651 152.044 80.7751 152.034C80.2051 154.604 80.8951 157.694 79.0751 159.984C78.7151 160.514 78.0751 161.054 77.6051 161.484C73.9151 164.854 68.6851 167.044 63.6251 165.894L63.1251 165.774C62.3551 165.644 61.6651 165.044 61.5151 164.274C61.2951 163.354 61.8251 162.354 62.7051 161.994C62.8151 161.934 63.5851 161.554 63.7251 161.484C69.8751 158.164 73.0751 151.324 75.0451 144.874C75.6351 143.024 75.8151 140.964 76.9451 139.324C81.6151 131.534 91.9351 131.294 99.9551 132.454H99.9451Z" fill="black"/>
<path d="M93.9353 136.654C88.7053 137.624 82.6752 140.034 80.7052 145.394C80.3652 146.304 78.9652 145.784 79.3052 144.874C80.4352 141.994 82.7852 139.814 85.4552 138.404C88.0752 137.034 90.8953 136.204 93.8253 135.804C94.0653 135.774 94.2752 135.944 94.3052 136.174C94.3352 136.414 94.1652 136.624 93.9253 136.654H93.9353Z" fill="black"/>
<path d="M77.505 153.994C76.285 158.304 72.715 161.534 68.505 162.784C68.275 162.854 68.035 162.734 67.965 162.514C67.895 162.304 68.005 162.074 68.205 161.984C69.135 161.594 70.055 161.164 70.875 160.594C73.275 159.024 75.165 156.384 75.725 153.584C75.985 152.364 77.815 152.774 77.505 153.994Z" fill="black"/>
<path d="M123.785 202.534C126.845 201.334 128.435 197.944 127.415 194.824C124.235 185.134 120.895 175.544 118.715 170.904C117.965 169.304 117.435 167.624 117.115 165.914C115.875 159.264 112.695 143.374 110.345 141.524L99.1652 141.574L87.9852 141.524C85.6252 143.374 82.4552 159.254 81.2152 165.914C80.8952 167.624 80.3652 169.304 79.6152 170.904C77.2652 175.894 73.9352 185.414 70.8152 194.894C69.7952 197.994 71.3552 201.344 74.3652 202.574L77.9952 204.054C91.1952 209.434 105.955 209.534 119.225 204.324L123.775 202.534H123.785Z" fill="url(#paint1_linear_755_2759)"/>
<path d="M123.575 202.014C126.665 200.844 127.975 197.154 126.625 194.184L125.985 192.234C123.835 185.814 121.665 179.224 119.085 172.994C116.495 168.054 116.105 162.464 114.855 157.124C113.985 153.144 113.075 149.154 111.775 145.284C111.395 144.154 110.875 142.694 109.985 141.974L110.335 142.094C108.475 142.274 106.615 142.564 104.745 142.644C101.005 142.914 97.2851 142.004 93.5651 141.924C91.7051 141.944 89.8351 141.924 87.9751 141.924L88.2251 141.844C87.4951 142.624 87.0351 143.824 86.6551 144.864C85.4351 148.274 84.6151 151.824 83.8051 155.354C83.2751 157.724 82.7851 160.094 82.3151 162.474C81.9251 164.634 81.4251 167.614 80.6451 169.634C77.6351 176.324 75.3251 183.164 73.0651 190.114L71.9451 193.584C71.6151 194.694 71.1551 195.734 71.2351 196.894C71.2851 199.054 72.7751 201.044 74.7551 201.664L78.2051 202.864C93.3451 208.034 108.755 207.494 123.575 202.004V202.014ZM123.965 203.004C110.955 210.264 94.7151 212.224 80.7351 206.544C78.6851 205.814 76.0051 204.404 74.0151 203.514C71.4251 202.374 69.7351 199.654 69.7751 196.934C69.8151 194.724 71.2451 191.844 71.8651 189.734C74.2851 182.864 76.7751 175.954 79.7851 169.334C80.5551 167.394 81.0651 164.404 81.4551 162.324C82.8751 155.784 84.0051 149.084 86.6151 142.874C86.9051 142.284 87.2551 141.664 87.8251 141.144C89.7351 141.164 91.6551 141.154 93.5651 141.204C97.2851 141.174 101.005 140.264 104.735 140.484C106.685 140.544 108.635 140.844 110.585 140.994C111.695 142.234 111.985 143.594 112.605 145.004C113.935 148.904 114.865 152.924 115.765 156.934C116.745 160.874 117.165 165.014 118.395 168.874C121.145 175.134 123.515 181.554 125.685 188.024L126.995 191.914C127.335 193.084 128.025 194.674 128.195 195.934C128.635 198.834 126.685 202.254 123.935 203.004H123.965Z" fill="black"/>
<path d="M168.765 81.3942C167.775 80.7442 166.775 80.1142 165.765 79.5042C151.335 70.7842 145.095 58.5142 145.095 58.5142C129.845 26.8342 103.825 26.3542 99.6151 26.4942C99.2551 26.5042 98.8951 26.5042 98.5351 26.4942C94.3251 26.3542 68.3151 26.8342 53.0551 58.5142C53.0551 58.5142 46.8151 70.7842 32.3851 79.5042C31.3751 80.1142 30.3751 80.7442 29.3851 81.3942C25.1551 84.1642 13.7051 91.5142 2.1851 97.3742C1.1151 97.9142 0.945095 99.3742 1.8651 100.144C4.7851 102.614 12.1251 107.084 28.6551 109.614C33.9251 110.424 39.3051 110.454 44.5551 109.554C50.0651 108.614 56.3051 106.564 59.4551 102.144C59.9851 101.404 61.0751 101.404 61.5751 102.164C64.5651 106.794 74.5051 118.564 99.0251 120.124H99.1151C123.645 118.564 133.585 106.794 136.565 102.164C137.055 101.404 138.155 101.404 138.685 102.144C141.835 106.564 148.075 108.614 153.585 109.554C159.095 110.494 164.215 110.414 169.485 109.614C186.015 107.084 193.355 102.614 196.275 100.144C197.195 99.3742 197.025 97.9142 195.955 97.3742C184.445 91.5142 172.985 84.1642 168.755 81.3942H168.765Z" fill="url(#paint2_linear_755_2759)"/>
<path d="M168.515 81.7743C158.885 76.2943 149.945 69.0243 144.565 59.1443C144.005 58.0743 142.545 55.3243 142.005 54.2943C141.025 52.4343 139.305 49.8943 138.155 48.1443C137.035 46.7943 135.965 45.1643 134.805 43.8543L132.345 41.1843C128.105 36.8843 123.125 33.2543 117.615 30.7443C99.7652 22.6743 79.2752 27.1943 65.8052 41.2143C62.0352 45.1243 58.7852 49.5643 56.1352 54.3043C55.0952 56.2243 53.7852 58.9243 52.6352 60.7843C48.6852 67.0843 43.3752 72.4643 37.3452 76.7843C26.0152 84.1543 14.7752 91.5343 2.85524 97.8743C2.64524 98.0043 2.42524 98.0743 2.29524 98.2343C1.95524 98.5943 1.98524 99.2443 2.38524 99.5443C6.11524 102.474 10.7052 104.294 15.2352 105.704C24.4452 108.334 34.1952 110.394 43.8052 109.004C49.2452 108.134 55.3952 106.664 58.9052 102.094C59.4852 100.984 61.2252 100.674 62.0052 101.854C62.3652 102.364 62.6952 102.844 63.0752 103.314C64.5452 105.204 66.2652 106.914 68.1252 108.424C76.5552 115.294 87.5452 118.184 98.2352 118.954L99.0852 119.034L99.9452 118.964C112.355 118.074 125.575 114.414 134.025 104.754C134.825 103.844 135.535 102.904 136.235 101.884C136.705 101.174 137.725 100.964 138.445 101.364C138.815 101.534 139.095 101.934 139.245 102.124C140.855 104.254 143.175 105.744 145.655 106.784C154.705 110.354 164.745 109.914 174.165 108.014C181.235 106.584 188.415 104.704 194.475 100.724C194.965 100.384 195.445 100.034 195.895 99.6643C196.345 99.3043 196.395 98.5543 195.975 98.1343C195.825 97.9643 195.595 97.8843 195.365 97.7543C186.145 92.8943 177.235 87.4843 168.535 81.7743H168.515ZM169.015 81.0143C177.725 86.6543 186.635 92.0043 195.905 96.6643C197.495 97.2343 198.145 99.4443 196.705 100.634C190.365 105.724 182.245 107.904 174.445 109.544C167.195 111.104 159.605 111.634 152.325 109.984C146.985 108.864 141.395 106.614 138.025 102.154C137.665 101.954 137.185 102.064 136.975 102.404C136.315 103.424 135.575 104.454 134.775 105.394C126.245 115.494 112.935 120.184 100.045 121.154C99.4452 121.244 98.7052 121.254 98.1052 121.164C87.0152 120.354 75.6652 116.954 67.1952 109.484C64.8552 107.444 62.7652 105.074 61.1052 102.444C60.9252 102.134 60.4852 102.014 60.1452 102.184C59.8652 102.274 59.4652 102.964 59.0352 103.394C55.1952 107.644 49.4352 109.354 43.9952 110.334C34.1852 112.044 24.1252 110.234 14.6852 107.434C9.94524 105.894 5.22524 104.024 1.34524 100.764C0.285236 99.8843 0.195236 98.1343 1.19524 97.1743C1.47524 96.7743 4.90524 95.1943 5.42524 94.8943C11.9352 91.5343 18.2852 87.8743 24.4952 83.9943C28.5752 81.3643 32.8352 78.8543 36.7252 75.9543C43.3852 70.7443 49.1152 64.2943 53.0852 56.8243C54.7552 53.6343 56.7552 50.2443 58.8552 47.3443C69.4652 32.9843 85.6652 24.6543 103.665 26.3243C118.515 27.6543 132.015 36.6443 140.295 48.8743C141.515 50.6543 143.225 53.2743 144.155 55.1943C149.645 66.0143 158.495 74.8143 168.995 81.0243L169.015 81.0143Z" fill="black"/>
<path d="M109.925 140.184C112.625 137.694 116.365 138.214 118.305 138.734C119.435 139.034 120.625 139.134 121.795 139.034C131.435 138.274 139.725 134.564 143.065 132.874C144.025 132.394 144.665 131.444 144.765 130.374C146.105 115.714 152.765 106.824 155.065 104.154C155.565 103.574 156.195 103.104 156.895 102.784C157.875 102.334 158.815 102.004 159.715 101.764C157.655 104.504 156.645 108.084 156.645 108.084C156.325 108.694 157.195 109.904 158.205 111.004C157.435 110.944 156.805 110.974 156.345 111.024C155.815 111.084 155.375 111.444 155.195 111.944C151.795 121.804 151.965 132.574 152.265 137.424C152.365 138.954 151.335 140.314 149.845 140.674C126.185 146.354 122.755 151.394 122.755 151.394C122.755 151.394 116.155 158.314 114.335 165.084" fill="url(#paint3_linear_755_2759)"/>
<path d="M109.555 139.774C112.005 137.634 115.525 137.554 118.485 138.404C119.895 138.774 121.325 138.774 122.815 138.584C129.825 137.874 136.565 135.424 142.785 132.194C143.575 131.774 144.015 130.914 144.035 130.034C144.505 124.754 145.835 119.524 147.895 114.654C149.745 110.464 151.965 106.374 155.205 103.064C156.985 101.644 159.275 101.254 161.385 100.664L160.245 102.174C158.895 103.934 157.795 106.454 157.185 108.374C157.445 109.584 158.825 110.754 159.625 111.724C158.635 111.664 157.285 111.434 156.355 111.604C156.055 111.664 155.815 111.864 155.725 112.174C153.125 119.724 152.515 127.834 152.955 135.764C153.075 137.204 153.295 138.874 152.255 140.084C151.465 141.314 149.615 141.644 148.305 141.994C140.835 144.064 133.215 146.144 126.365 149.834C125.315 150.454 124.205 151.104 123.405 152.014C119.805 155.844 116.445 160.184 114.645 165.184C114.585 165.344 114.415 165.424 114.255 165.374C114.105 165.324 114.025 165.164 114.055 165.014C114.975 160.974 117.135 157.344 119.545 154.034C120.965 152.194 121.965 150.674 123.705 149.384C129.785 145.214 136.985 143.124 144.015 141.214C145.295 140.874 146.575 140.574 147.855 140.274C148.705 139.994 150.395 139.914 150.945 139.064C151.735 138.204 151.425 136.914 151.435 135.834C151.285 127.734 152.135 119.544 154.665 111.824C155.095 110.294 157.005 110.354 158.245 110.444L157.765 111.414C157.155 110.734 156.525 110.044 156.145 109.164C156.025 108.844 155.845 108.414 156.105 107.824C156.545 106.114 157.835 103.194 159.185 101.394L159.885 102.424C159.195 102.614 158.515 102.854 157.845 103.134C155.745 103.844 154.695 105.794 153.445 107.504C151.805 109.934 150.405 112.534 149.275 115.254C147.275 119.994 146.125 125.084 145.565 130.194C145.515 130.634 145.455 131.074 145.285 131.484C144.535 133.544 142.135 134.074 140.345 134.904C136.155 136.614 131.785 137.864 127.345 138.684C124.355 139.094 121.315 139.864 118.295 139.114C115.575 138.394 112.355 138.544 110.295 140.604C109.785 141.114 108.965 140.294 109.545 139.784L109.555 139.774Z" fill="black"/>
<path d="M156.645 108.084C156.325 108.694 157.195 109.904 158.205 111.004C159.105 111.074 160.195 111.274 161.455 111.724C162.255 112.004 163.155 111.864 163.825 111.334L166.485 109.214C166.945 108.844 167.255 108.334 167.365 107.754L168.035 104.254C168.305 102.864 167.345 101.544 165.945 101.354C164.405 101.134 162.245 101.104 159.725 101.784C157.665 104.524 156.655 108.104 156.655 108.104L156.645 108.084Z" fill="#643C3B"/>
<path d="M157.015 108.234C156.925 109.164 157.935 110.024 158.495 110.744L158.235 110.614C159.505 110.524 160.845 110.884 162.065 111.114C162.655 111.164 163.165 110.834 163.575 110.444C164.485 109.484 165.975 108.874 166.445 107.654C166.595 106.904 166.895 105.404 167.045 104.664C167.115 104.264 167.265 103.854 167.185 103.464C167.075 102.794 166.525 102.204 165.775 102.074C163.835 101.744 161.815 101.794 159.815 102.144L160.025 102.004C158.655 103.884 157.695 106.004 157.005 108.234H157.015ZM156.285 107.944C156.995 105.654 158.025 103.384 159.475 101.434C161.525 100.694 163.755 100.354 165.985 100.594C167.685 100.694 169.155 102.404 168.915 104.164C168.755 105.334 168.425 106.924 168.215 108.084C167.795 109.864 165.895 110.664 164.635 111.754C163.885 112.394 162.875 112.754 161.895 112.564C160.535 112.174 159.395 111.574 157.995 111.344C157.255 110.394 155.905 109.274 156.295 107.934L156.285 107.944Z" fill="black"/>
<path d="M88.705 140.184C86.005 137.694 82.265 138.214 80.325 138.734C79.195 139.034 78.005 139.134 76.835 139.034C67.195 138.274 58.905 134.564 55.565 132.874C54.605 132.394 53.965 131.444 53.865 130.374C52.525 115.714 45.865 106.824 43.565 104.154C43.065 103.574 42.435 103.104 41.735 102.784C40.755 102.334 39.815 102.004 38.915 101.764C40.975 104.504 41.985 108.084 41.985 108.084C42.305 108.694 41.435 109.904 40.425 111.004C41.195 110.944 41.825 110.974 42.285 111.024C42.815 111.084 43.255 111.444 43.435 111.944C46.835 121.804 46.665 132.574 46.365 137.424C46.265 138.954 47.295 140.314 48.785 140.674C72.445 146.354 75.875 151.394 75.875 151.394C75.875 151.394 82.475 158.314 84.295 165.084" fill="url(#paint4_linear_755_2759)"/>
<path d="M88.3351 140.594C86.2751 138.534 83.0551 138.384 80.3351 139.104C78.8451 139.504 77.2351 139.494 75.7651 139.294C69.7751 138.684 63.8751 137.164 58.2851 134.894C56.4951 134.064 54.1051 133.534 53.3451 131.474C53.1751 131.064 53.1151 130.614 53.0651 130.184C52.5151 125.074 51.3551 119.984 49.3551 115.244C47.9451 111.854 46.1251 108.634 43.9051 105.704C42.7151 103.804 40.8451 102.964 38.7551 102.414L39.4551 101.384C40.8051 103.184 42.0851 106.094 42.5351 107.824C42.7951 108.414 42.6051 108.844 42.4951 109.164C42.1051 110.034 41.4851 110.734 40.8751 111.414L40.3951 110.444C42.0251 110.344 43.7251 110.304 44.1251 112.294C46.5351 119.874 47.3451 127.894 47.2051 135.834C47.2251 136.924 46.9051 138.214 47.6951 139.064C48.2451 139.904 49.9251 140.014 50.7851 140.274C52.0651 140.574 53.3551 140.874 54.6251 141.214C61.6551 143.124 68.8651 145.214 74.9351 149.384C76.6751 150.684 77.6751 152.204 79.0951 154.034C81.5151 157.354 83.6751 160.984 84.5851 165.014C84.6251 165.184 84.5151 165.344 84.3551 165.384C84.2051 165.414 84.0451 165.334 83.9951 165.184C82.1951 160.184 78.8451 155.844 75.2351 152.014C73.5051 150.214 71.0951 149.184 68.8451 148.124C62.8951 145.534 56.6051 143.684 50.3451 142.004C49.0451 141.644 47.1851 141.334 46.3951 140.094C45.6351 139.184 45.4651 137.844 45.6351 136.744C45.7451 135.134 45.8251 133.484 45.8251 131.874C45.8651 125.214 45.1051 118.494 42.9251 112.184C42.8251 111.884 42.5951 111.684 42.2951 111.614C41.3651 111.454 39.9951 111.664 39.0251 111.734C39.8251 110.764 41.1951 109.584 41.4651 108.384C41.1951 107.544 40.6551 106.074 40.1551 105.094C39.4351 103.514 38.3151 102.034 37.2651 100.674C39.3851 101.274 41.6651 101.644 43.4451 103.074C44.6551 104.194 45.4551 105.394 46.3951 106.684C51.1051 113.574 53.8551 121.754 54.6251 130.054C54.6451 130.934 55.0751 131.794 55.8751 132.214C62.0951 135.444 68.8351 137.894 75.8451 138.604C77.3251 138.804 78.7651 138.794 80.1751 138.424C83.1251 137.584 86.6551 137.654 89.1051 139.794C89.6351 140.274 88.9151 141.134 88.3551 140.614L88.3351 140.594Z" fill="black"/>
<path d="M41.9854 108.084C42.3054 108.694 41.4354 109.904 40.4254 111.004C39.5254 111.074 38.4354 111.274 37.1754 111.724C36.3754 112.004 35.4754 111.864 34.8054 111.334L32.1454 109.214C31.6854 108.844 31.3754 108.334 31.2654 107.754L30.5954 104.254C30.3254 102.864 31.2854 101.544 32.6854 101.354C34.2254 101.134 36.3854 101.104 38.9054 101.784C40.9654 104.524 41.9754 108.104 41.9754 108.104L41.9854 108.084Z" fill="#643C3B"/>
<path d="M42.3553 107.944C42.7353 109.294 41.3853 110.404 40.6553 111.354C39.2553 111.584 38.1153 112.184 36.7553 112.574C35.7753 112.754 34.7653 112.404 34.0153 111.764C32.7553 110.684 30.8553 109.874 30.4353 108.094C30.2353 106.934 29.8953 105.344 29.7353 104.174C29.4953 102.414 30.9653 100.694 32.6653 100.604C34.8953 100.364 37.1253 100.704 39.1753 101.444C40.6253 103.384 41.6553 105.654 42.3653 107.954L42.3553 107.944ZM41.6253 108.234C40.9353 106.004 39.9753 103.884 38.6053 102.004L38.8153 102.144C36.8153 101.794 34.7953 101.744 32.8553 102.074C32.1053 102.194 31.5653 102.794 31.4453 103.464C31.3653 103.844 31.5053 104.264 31.5853 104.664C31.7353 105.414 32.0353 106.914 32.1853 107.654C32.6553 108.874 34.1553 109.484 35.0553 110.444C35.4653 110.834 35.9753 111.164 36.5653 111.114C37.7853 110.884 39.1253 110.524 40.3953 110.614L40.1353 110.744C40.6853 110.044 41.7153 109.154 41.6153 108.234H41.6253Z" fill="black"/>
<path d="M109.335 119.034C109.335 119.034 115.575 122.714 112.455 125.994C112.455 125.994 107.895 129.914 111.575 134.234C111.575 134.234 116.105 139.224 110.375 143.074C109.185 143.874 107.815 144.364 106.405 144.624C104.345 144.994 100.865 145.544 99.025 145.434C99.025 145.434 90.065 144.874 87.745 142.794C87.745 142.794 82.145 138.474 86.945 133.354C86.945 133.354 89.665 130.714 87.025 127.594C87.025 127.594 81.825 121.194 89.905 119.354L99.015 120.764L109.345 119.034H109.335Z" fill="url(#paint5_linear_755_2759)"/>
<path d="M109.415 118.604C109.675 118.704 109.565 118.684 109.615 118.704L109.675 118.754L109.785 118.844C111.375 120.254 113.515 121.664 113.645 124.014C113.665 124.864 113.245 125.674 112.685 126.254C110.855 127.964 109.825 130.774 111.315 132.974C115.405 137.444 114.595 142.164 108.985 144.684C106.365 145.684 103.595 145.904 100.825 146.234C98.0552 146.434 95.3152 145.894 92.5852 145.414C90.6952 144.944 88.8852 144.604 87.2752 143.294C85.5052 141.794 83.9252 139.014 84.6152 136.444C84.9152 135.164 85.6352 134.084 86.4752 133.174C87.6852 132.024 88.1752 130.274 87.3552 128.794C83.9052 124.474 83.5952 120.204 89.8752 118.824C89.9552 118.794 98.9852 120.294 99.0752 120.274C101.745 119.754 106.165 119.114 109.405 118.594L109.415 118.604ZM109.255 119.454C105.805 120.054 102.375 120.744 98.9352 121.244L89.8252 119.854C84.8652 121.224 84.8952 124.144 88.0752 128.444C89.0552 130.184 88.4952 132.464 87.1452 133.804C86.4152 134.644 85.8252 135.624 85.6152 136.674C85.1152 139.614 87.4952 142.534 90.3652 143.244C96.2052 144.774 102.555 145.084 108.385 143.234C112.325 141.744 114.035 138.234 111.245 134.674C108.715 131.964 109.565 127.954 112.225 125.714C114.595 123.454 110.955 120.144 109.255 119.454Z" fill="black"/>
<path d="M95.7452 130.374C98.0452 131.764 100.755 131.684 103.015 130.244C103.155 130.174 103.335 130.224 103.405 130.364C103.535 130.804 102.845 131.154 102.585 131.474C100.515 133.264 97.0952 132.874 95.4152 130.724C95.2352 130.514 95.5252 130.214 95.7452 130.374Z" fill="black"/>
<path d="M110.435 127.794L112.115 125.714L112.755 126.294C110.305 128.724 108.165 131.564 106.575 134.634C106.455 134.884 106.065 134.694 106.185 134.444C107.695 131.224 109.725 128.284 112.155 125.674L112.795 126.254L111.115 128.334C110.765 128.774 110.085 128.224 110.445 127.794H110.435Z" fill="black"/>
<path d="M87.3152 127.274C89.4152 129.444 91.0852 132.074 91.6352 135.074C91.6552 135.184 91.5752 135.294 91.4652 135.314C91.3552 135.334 91.2452 135.254 91.2252 135.144C90.5852 132.344 88.8152 129.834 86.7452 127.904C86.2952 127.524 86.9052 126.854 87.3252 127.264L87.3152 127.274Z" fill="black"/>
<path d="M110.205 138.074C105.545 141.904 98.3351 142.854 93.0151 140.424C93.0351 140.344 93.1251 140.294 93.2051 140.314C93.9251 140.464 94.6251 140.664 95.3451 140.784C100.185 141.654 105.615 140.474 109.255 137.104C109.895 136.414 110.925 137.444 110.205 138.074Z" fill="black"/>
<path d="M106.425 123.544C102.185 126.664 95.8454 126.724 91.7554 123.324C91.5054 123.134 91.7754 122.734 92.0454 122.894C96.3854 125.394 101.695 125.244 106.165 123.154C106.415 123.014 106.655 123.384 106.425 123.554V123.544Z" fill="black"/>
<path d="M79.875 84.9642C86.7675 84.9642 92.355 79.3767 92.355 72.4841C92.355 65.5916 86.7675 60.0042 79.875 60.0042C72.9825 60.0042 67.395 65.5916 67.395 72.4841C67.395 79.3767 72.9825 84.9642 79.875 84.9642Z" fill="white"/>
<path d="M93.2351 72.4842C92.9451 84.0242 78.9951 89.3742 70.7651 81.5942C65.6551 76.8542 65.5951 68.0842 70.5751 63.1842C78.7851 54.7642 93.4151 60.6042 93.2351 72.4842ZM91.4651 72.4842C91.3151 62.2742 78.9051 56.9142 71.5251 64.1342C66.8451 68.5042 66.7851 76.4942 71.3351 81.0142C78.6851 88.8642 91.8051 83.0442 91.4651 72.4842Z" fill="black"/>
<path d="M84.3055 71.8242C85.8077 71.8242 87.0255 69.6976 87.0255 67.0742C87.0255 64.4509 85.8077 62.3242 84.3055 62.3242C82.8032 62.3242 81.5854 64.4509 81.5854 67.0742C81.5854 69.6976 82.8032 71.8242 84.3055 71.8242Z" fill="#429195"/>
<path d="M85.705 65.5844C86.0033 65.5844 86.245 65.3426 86.245 65.0444C86.245 64.7462 86.0033 64.5044 85.705 64.5044C85.4068 64.5044 85.165 64.7462 85.165 65.0444C85.165 65.3426 85.4068 65.5844 85.705 65.5844Z" fill="white"/>
<path d="M119.495 84.9642C126.388 84.9642 131.975 79.3767 131.975 72.4841C131.975 65.5916 126.388 60.0042 119.495 60.0042C112.603 60.0042 107.015 65.5916 107.015 72.4841C107.015 79.3767 112.603 84.9642 119.495 84.9642Z" fill="white"/>
<path d="M107.895 72.4842C107.555 83.0442 120.675 88.8742 128.025 81.0142C132.575 76.4942 132.515 68.5042 127.835 64.1342C120.455 56.9142 108.045 62.2742 107.895 72.4842ZM106.125 72.4842C105.945 60.6042 120.575 54.7642 128.785 63.1842C133.765 68.0842 133.705 76.8442 128.595 81.5942C120.365 89.3742 106.415 84.0242 106.125 72.4842Z" fill="black"/>
<path d="M115.065 71.8242C116.567 71.8242 117.785 69.6976 117.785 67.0742C117.785 64.4509 116.567 62.3242 115.065 62.3242C113.563 62.3242 112.345 64.4509 112.345 67.0742C112.345 69.6976 113.563 71.8242 115.065 71.8242Z" fill="#429195"/>
<path d="M113.665 65.5844C113.963 65.5844 114.205 65.3426 114.205 65.0444C114.205 64.7462 113.963 64.5044 113.665 64.5044C113.367 64.5044 113.125 64.7462 113.125 65.0444C113.125 65.3426 113.367 65.5844 113.665 65.5844Z" fill="white"/>
<path d="M104.815 86.1542C102.895 84.5042 95.4553 84.5042 93.5353 86.1542C92.8153 86.7742 92.5853 87.7842 92.9553 88.6542C93.5253 90.0042 95.0753 91.9643 99.1753 91.8943C103.275 91.9643 104.825 90.0042 105.395 88.6542C105.765 87.7842 105.525 86.7742 104.815 86.1542Z" fill="black"/>
<path d="M88.575 97.5743C89.755 99.6243 93.335 104.114 98.935 105.684C98.935 105.684 104.295 104.994 108.775 98.3543C109.025 97.9743 108.645 97.9843 108.185 98.0143C106.495 98.1343 102.585 98.2343 99.375 94.6743C99.375 94.6743 94.315 100.004 89.235 97.5543C88.875 97.3843 88.395 97.2343 88.585 97.5743H88.575Z" fill="black"/>
<path d="M89.1252 97.2544C91.4552 100.804 95.0952 103.624 99.1452 104.924L98.8352 104.904C100.565 104.724 102.425 103.884 103.905 102.874C105.695 101.714 107.205 100.114 108.495 98.3844C108.565 98.2944 108.655 98.1744 108.655 98.1544C108.645 98.1544 108.695 98.2344 108.695 98.2144C108.695 98.2144 108.635 98.1944 108.585 98.1944C105.175 98.4344 101.625 97.3344 99.3052 94.7344H99.4452C96.7652 97.3444 92.6852 99.4144 89.0052 97.7244C88.8852 97.7144 88.7252 97.7744 88.6652 97.8444C88.6452 97.8644 88.6452 97.8844 88.6652 97.9044C88.7052 97.9044 88.7752 97.9744 89.0052 97.7844C89.2352 97.5144 89.1452 97.3644 89.1452 97.2544H89.1252ZM88.0152 97.8944C87.6952 97.3944 88.1652 96.5444 88.8052 96.9044C92.0652 99.5644 96.8052 97.1844 99.3652 94.5444C101.595 97.2744 105.195 98.2844 108.605 97.8244C108.795 97.8044 109.115 97.9744 109.035 98.2344C106.775 102.004 103.295 105.364 98.8952 106.494C94.2552 105.344 90.3652 102.004 88.0152 97.8944Z" fill="black"/>
<path d="M99.6053 91.2343V94.6443C97.0353 99.5043 90.8653 100.214 86.7254 96.9143C86.1954 96.4843 85.6853 96.0443 85.1753 95.5943C84.9953 95.4343 84.9753 95.1643 85.1353 94.9843C85.2953 94.8043 85.5653 94.7943 85.7453 94.9443L87.3153 96.0443C91.5353 98.7643 95.4953 97.8343 98.8153 94.2643L98.7453 94.5043V91.2243C98.7453 90.6643 99.6053 90.6543 99.6053 91.2243V91.2343Z" fill="black"/>
<path d="M99.6051 91.2343V94.5143L99.5351 94.2743C101.505 95.6843 103.335 97.3643 105.815 97.4443C108.275 97.5743 110.605 96.3043 112.605 94.9443C112.805 94.7943 113.105 94.8443 113.245 95.0643C113.355 95.2343 113.315 95.4643 113.175 95.5943C112.195 96.5543 111.155 97.4743 109.925 98.1143C106.195 100.334 100.435 99.0043 98.8151 94.7443L98.7451 94.6443V94.5143V91.2343C98.7451 90.6743 99.6051 90.6643 99.6051 91.2343Z" fill="black"/>
<path d="M112.875 50.7942C115.255 48.1642 119.225 48.1842 122.385 49.0142C125.535 49.8842 128.275 51.8442 130.515 54.1742C130.895 54.5442 130.355 55.1442 129.945 54.8242C124.735 50.9742 119.705 49.3742 113.385 51.4942C112.965 51.6842 112.555 51.1442 112.865 50.8042L112.875 50.7942Z" fill="black"/>
<path d="M85.8752 50.4744C84.2852 50.4844 83.0452 49.8844 81.5852 49.8244C77.0552 49.4844 72.9252 51.9744 69.5352 54.7644C69.1452 55.1244 68.5652 54.5344 68.9252 54.1544C72.0952 50.4744 76.6552 47.5344 81.7052 47.8544C83.3552 47.9944 85.2152 48.1744 86.3352 49.7644C86.5752 50.1044 86.2552 50.5544 85.8652 50.4844L85.8752 50.4744Z" fill="black"/>
<path d="M81.095 34.9944C77.425 32.6744 70.085 25.9544 69.265 9.12439C69.175 7.37439 67.715 5.99439 65.965 5.99439C64.215 5.99439 62.765 7.35439 62.665 9.09439C62.545 11.0244 62.465 13.5044 62.615 15.4944C62.725 16.9844 61.495 18.2244 60.005 18.1344C54.575 17.8044 43.795 15.6844 42.195 4.10439C41.995 2.62439 40.735 1.50439 39.235 1.50439C37.535 1.50439 36.165 2.92439 36.245 4.62439C36.525 10.6244 39.635 23.4244 60.605 26.0344C62.625 26.2844 64.375 27.5544 65.235 29.4044C66.595 32.3044 69.385 36.9244 74.795 41.6244C76.245 42.8844 78.225 43.4644 80.085 42.9944C81.315 42.6844 82.525 41.9544 83.075 40.3544C83.765 38.3444 82.885 36.1344 81.095 34.9944Z" fill="url(#paint6_linear_755_2759)"/>
<path d="M80.7552 35.5243C72.1952 29.7343 69.4852 18.9143 68.9952 9.16435C68.7752 5.46435 63.4752 5.24435 62.9552 8.91435C62.7052 11.3743 62.9552 13.8443 62.8652 16.3143C62.0752 19.4543 58.3552 18.3243 56.0452 17.9943C48.6052 16.7243 42.6652 11.9243 41.6152 4.18435C41.2352 1.51435 37.2852 1.47435 36.9452 4.18435C37.0352 8.86435 38.9052 13.5543 42.0952 16.9743C47.0752 22.4143 54.4752 24.2443 61.5652 25.3043C64.4352 25.9343 65.8552 28.4543 66.9752 30.8743C68.5252 33.6643 70.5152 36.2043 72.7252 38.5343C73.5352 39.3843 74.4552 40.2543 75.3352 41.0443C77.1052 42.6744 80.3752 43.0243 81.9552 41.0043C83.2552 39.2643 82.5852 36.6443 80.7552 35.5143V35.5243ZM81.4252 34.4643C83.8752 35.9043 84.8252 39.4643 83.0852 41.8443C81.0452 44.6343 76.7152 44.3843 74.3052 42.2543L73.3652 41.4243C70.2452 38.6343 67.5352 35.4043 65.4552 31.7443C64.4352 29.7643 63.5052 27.5443 61.1152 27.0443C53.7852 26.0843 45.9952 23.8243 40.8852 18.0943C37.4452 14.3143 35.4852 9.14435 35.5852 4.03435C36.2152 -0.115654 42.1852 -0.115653 42.7752 4.04435C43.5852 11.3543 49.2052 16.0043 56.1852 17.2943C58.1452 17.5143 61.4652 18.8243 62.2352 16.1843C62.3052 13.7843 62.1352 11.3043 62.3952 8.86435C63.0152 4.59435 69.2752 4.84435 69.5352 9.16435C70.0552 18.5943 73.0852 29.1443 81.4252 34.4843V34.4643Z" fill="black"/>
<path d="M116.945 34.9944C120.615 32.6744 127.955 25.9544 128.775 9.12439C128.865 7.37439 130.325 5.99439 132.075 5.99439C133.825 5.99439 135.275 7.35439 135.375 9.09439C135.495 11.0244 135.575 13.5044 135.425 15.4944C135.315 16.9844 136.545 18.2244 138.035 18.1344C143.465 17.8044 154.245 15.6844 155.845 4.10439C156.045 2.62439 157.305 1.50439 158.805 1.50439C160.505 1.50439 161.875 2.92439 161.795 4.62439C161.515 10.6244 158.405 23.4244 137.435 26.0344C135.415 26.2844 133.665 27.5544 132.805 29.4044C131.445 32.3044 128.655 36.9244 123.245 41.6244C121.795 42.8844 119.815 43.4644 117.955 42.9944C116.725 42.6844 115.515 41.9544 114.965 40.3544C114.275 38.3444 115.155 36.1344 116.945 34.9944Z" fill="url(#paint7_linear_755_2759)"/>
<path d="M116.605 34.4643C124.945 29.1143 127.975 18.5743 128.495 9.14434C128.755 4.83434 135.005 4.57434 135.635 8.84434C135.895 11.2843 135.735 13.7643 135.795 16.1643C136.565 18.8043 139.885 17.4943 141.845 17.2743C148.825 15.9943 154.445 11.3343 155.255 4.02434C155.825 -0.125664 161.825 -0.145663 162.445 4.01434C162.545 9.12434 160.595 14.3043 157.145 18.0743C152.035 23.8143 144.245 26.0743 136.915 27.0243C134.525 27.5243 133.585 29.7443 132.575 31.7243C130.495 35.3843 127.785 38.6143 124.665 41.4043L123.725 42.2343C121.315 44.3643 116.985 44.6243 114.945 41.8243C113.215 39.4543 114.155 35.8843 116.605 34.4443V34.4643ZM117.275 35.5243C115.455 36.6543 114.775 39.2843 116.075 41.0143C117.655 43.0343 120.925 42.6843 122.695 41.0543C123.575 40.2543 124.485 39.4043 125.305 38.5443C127.515 36.2243 129.505 33.6743 131.055 30.8843C132.185 28.4543 133.595 25.9443 136.465 25.3143C143.545 24.2543 150.945 22.4143 155.935 16.9843C159.125 13.5643 160.995 8.87434 161.085 4.19434C160.735 1.49434 156.815 1.50434 156.415 4.19434C155.355 11.9443 149.425 16.7343 141.985 18.0043C139.675 18.3443 135.945 19.4443 135.165 16.3243C135.065 13.8543 135.325 11.3843 135.075 8.92434C134.565 5.26434 129.255 5.47434 129.035 9.17434C128.545 18.9143 125.835 29.7443 117.275 35.5343V35.5243Z" fill="black"/>
<path d="M139.975 67.2643C139.265 70.5443 141.255 73.4043 142.885 76.0643C147.615 85.1943 143.035 95.9743 136.575 103.014C136.125 103.484 135.405 102.794 135.885 102.324C142.225 95.6243 146.885 85.2043 142.425 76.2943C140.775 73.5543 138.825 70.5443 139.615 67.1743C139.665 66.9543 140.025 67.0143 139.975 67.2543V67.2643Z" fill="black"/>
<path d="M58.4552 67.1642C59.2452 70.5542 57.3052 73.5742 55.6352 76.3142C51.2652 85.1942 55.7952 95.4942 62.1752 102.124C62.7152 102.624 61.9152 103.454 61.4052 102.904C54.2552 95.4242 49.6852 83.1042 56.2852 73.9042C57.5252 71.9642 58.3452 69.5642 57.8852 67.2742C57.8052 66.9142 58.3752 66.7842 58.4552 67.1542V67.1642Z" fill="black"/>
<path d="M98.9355 105.044C98.9355 105.044 101.845 104.784 104.985 102.084C103.505 100.664 101.415 99.5444 99.1954 99.5444C96.9754 99.5444 94.8354 100.484 93.3354 101.994C94.8454 103.204 96.6655 104.404 98.9255 105.034L98.9355 105.044Z" fill="#FF5C5C"/>
<defs>
<linearGradient id="paint0_linear_755_2759" x1="82.7253" y1="163.224" x2="82.7253" y2="122.324" gradientUnits="userSpaceOnUse">
<stop stop-color="#487E50"/>
<stop offset="0.07" stop-color="#518A58"/>
<stop offset="0.21" stop-color="#61A167"/>
<stop offset="0.34" stop-color="#6AAE6F"/>
<stop offset="0.47" stop-color="#6EB373"/>
</linearGradient>
<linearGradient id="paint1_linear_755_2759" x1="99.1152" y1="210.224" x2="99.1152" y2="138.904" gradientUnits="userSpaceOnUse">
<stop stop-color="#643C3B"/>
<stop offset="0.03" stop-color="#72453D"/>
<stop offset="0.12" stop-color="#996044"/>
<stop offset="0.22" stop-color="#B87449"/>
<stop offset="0.3" stop-color="#CF834D"/>
<stop offset="0.39" stop-color="#DC8C50"/>
<stop offset="0.47" stop-color="#E19051"/>
</linearGradient>
<linearGradient id="paint2_linear_755_2759" x1="99.0751" y1="136.664" x2="99.0751" y2="27.5842" gradientUnits="userSpaceOnUse">
<stop stop-color="#643C3B"/>
<stop offset="0.03" stop-color="#72453D"/>
<stop offset="0.12" stop-color="#996044"/>
<stop offset="0.22" stop-color="#B87449"/>
<stop offset="0.3" stop-color="#CF834D"/>
<stop offset="0.39" stop-color="#DC8C50"/>
<stop offset="0.47" stop-color="#E19051"/>
</linearGradient>
<linearGradient id="paint3_linear_755_2759" x1="150.463" y1="102.012" x2="135.033" y2="131.702" gradientUnits="userSpaceOnUse">
<stop stop-color="#643C3B"/>
<stop offset="0.03" stop-color="#72453D"/>
<stop offset="0.12" stop-color="#996044"/>
<stop offset="0.22" stop-color="#B87449"/>
<stop offset="0.3" stop-color="#CF834D"/>
<stop offset="0.39" stop-color="#DC8C50"/>
<stop offset="0.47" stop-color="#E19051"/>
</linearGradient>
<linearGradient id="paint4_linear_755_2759" x1="48.1621" y1="102.009" x2="63.5961" y2="131.708" gradientUnits="userSpaceOnUse">
<stop stop-color="#643C3B"/>
<stop offset="0.03" stop-color="#72453D"/>
<stop offset="0.12" stop-color="#996044"/>
<stop offset="0.22" stop-color="#B87449"/>
<stop offset="0.3" stop-color="#CF834D"/>
<stop offset="0.39" stop-color="#DC8C50"/>
<stop offset="0.47" stop-color="#E19051"/>
</linearGradient>
<linearGradient id="paint5_linear_755_2759" x1="84.995" y1="132.234" x2="113.325" y2="132.234" gradientUnits="userSpaceOnUse">
<stop stop-color="#487E50"/>
<stop offset="0.07" stop-color="#518A58"/>
<stop offset="0.21" stop-color="#61A167"/>
<stop offset="0.34" stop-color="#6AAE6F"/>
<stop offset="0.47" stop-color="#6EB373"/>
</linearGradient>
<linearGradient id="paint6_linear_755_2759" x1="59.775" y1="47.3644" x2="59.775" y2="0.294394" gradientUnits="userSpaceOnUse">
<stop offset="0.56" stop-color="#F9E9B3"/>
<stop offset="0.61" stop-color="#F3D9A5"/>
<stop offset="0.79" stop-color="#E1A276"/>
<stop offset="0.93" stop-color="#D58059"/>
<stop offset="1" stop-color="#D1744E"/>
</linearGradient>
<linearGradient id="paint7_linear_755_2759" x1="138.255" y1="47.3644" x2="138.255" y2="0.294394" gradientUnits="userSpaceOnUse">
<stop offset="0.56" stop-color="#F9E9B3"/>
<stop offset="0.61" stop-color="#F3D9A5"/>
<stop offset="0.79" stop-color="#E1A276"/>
<stop offset="0.93" stop-color="#D58059"/>
<stop offset="1" stop-color="#D1744E"/>
</linearGradient>
</defs>
</svg>
