<svg width="214" height="180" viewBox="0 0 214 180" fill="none" xmlns="http://www.w3.org/2000/svg">
<path d="M107.945 143.316C102.902 142.39 88.8235 140.828 83.3384 150.925C82.849 151.828 82.5228 152.815 82.3084 153.82C81.437 157.898 77.8672 171.405 68.0619 175.698C66.9761 176.175 67.0506 177.756 68.1971 178.069C71.6364 179.009 77.4804 179.131 83.9815 172.958C85.1885 171.812 85.8875 170.231 85.9481 168.566C85.9994 167.135 86.1206 165.325 86.3862 163.903C86.554 163.019 87.7703 162.879 88.1338 163.698C88.5486 164.628 88.954 165.83 89.0752 167.135C89.1264 167.706 89.6531 168.113 90.2123 167.977C91.6756 167.631 94.1363 166.27 94.7281 161.121C94.8819 159.764 95.2314 158.436 95.8466 157.22C96.9371 155.06 99.1041 152.23 103.312 150.752C104.463 150.35 105.661 150.102 106.873 149.985C108.551 149.822 112.47 149.101 111.309 146.029C110.769 144.593 109.455 143.583 107.949 143.307L107.945 143.316Z" fill="url(#paint0_linear_666_16750)"/>
<path d="M107.856 143.798C100.153 142.189 90.45 142.507 85.1233 149.115C84.3077 150.158 83.5994 151.328 83.1893 152.595C82.7885 153.876 82.5928 155.312 82.2153 156.626C80.7426 162.084 78.5057 167.453 74.7168 171.751C72.9739 173.706 70.8535 175.394 68.4581 176.475C68.1458 176.573 68.0386 177.026 68.3416 177.19C72.7595 178.495 77.4897 176.933 81.0595 174.192C81.8238 173.612 82.644 172.911 83.357 172.251C84.4615 171.195 85.0254 169.745 85.0254 168.206C85.0907 166.789 85.1885 165.377 85.4449 163.927C85.4588 163.815 85.5381 163.394 85.7291 163.104C86.4841 161.832 88.5207 162.033 89.0146 163.431C89.518 164.586 89.8582 165.826 89.97 167.084C89.9747 167.121 89.9933 167.13 90.0073 167.13L90.1098 167.102C92.3747 166.546 93.4559 163.96 93.8054 161.794C94.3134 154.873 100.157 149.808 106.915 149.377C108.313 149.181 110.228 148.975 110.876 147.567C111.314 145.832 109.543 144.088 107.861 143.803L107.856 143.798ZM108.033 142.839C110.666 143.143 113.5 146.707 111.23 149.022C109.8 150.317 107.838 150.481 106.039 150.734C104.715 150.944 103.452 151.351 102.255 151.922C99.8638 153.058 97.8785 154.957 96.6762 157.29C95.6462 159.072 95.6229 161.163 95.2128 163.146C94.6676 165.648 93.0738 168.225 90.4174 168.847C89.49 169.095 88.4694 168.459 88.2457 167.547C88.1245 166.957 88.1665 166.911 88.0686 166.448C87.9148 165.648 87.6166 164.811 87.2903 164.076C87.2903 164.076 87.2903 164.076 87.295 164.086C87.323 164.1 87.295 164.086 87.2857 164.095C87.309 164.09 87.3136 164.006 87.2717 164.245C86.5493 168.431 87.7004 171.213 83.865 174.337C81.1667 176.76 77.8765 178.649 74.2601 179.243C72.2609 179.585 70.1777 179.491 68.2111 178.981C67.3862 178.841 66.6359 178.191 66.4728 177.344C66.2398 176.344 66.813 175.259 67.7637 174.88C72.5125 172.808 75.8213 168.533 78.1142 163.969C80.0482 160.279 81.1201 156.262 82.192 152.244C86.2418 142.035 98.7034 141.422 108.038 142.835L108.033 142.839Z" fill="black"/>
<path d="M101.528 147.38C95.8981 148.433 89.3504 151.014 87.2393 156.823C86.8804 157.842 85.3705 157.333 85.7107 156.299C86.8758 153.175 89.4855 150.785 92.3563 149.274C95.1944 147.783 98.2422 146.88 101.411 146.45C102.017 146.384 102.138 147.291 101.523 147.38H101.528Z" fill="black"/>
<path d="M83.7623 166.2C82.6298 170.24 79.4841 173.556 75.658 175.146C75.1267 175.376 74.5722 175.539 74.0362 175.736C73.7939 175.824 73.5282 175.698 73.4397 175.46C73.3465 175.207 73.491 174.941 73.7333 174.852C74.7259 174.421 75.7139 173.977 76.5901 173.355C79.1905 171.629 81.1711 168.879 81.8189 165.821C82.0473 164.46 84.0559 164.843 83.7623 166.2Z" fill="black"/>
<path d="M118.179 128.262C118.179 128.262 124.923 132.256 121.553 135.81C121.553 135.81 116.623 140.061 120.602 144.747C120.602 144.747 125.431 150.074 119.447 154.241C118.146 155.148 116.646 155.724 115.085 156.004C112.862 156.402 109.036 157.015 107.027 156.898C107.027 156.898 97.3429 156.29 94.8357 154.035C94.8357 154.035 88.7819 149.349 93.9688 143.793C93.9688 143.793 96.9095 140.931 94.0574 137.545C94.0574 137.545 88.4371 130.6 97.1705 128.608L118.184 128.262H118.179Z" fill="url(#paint1_linear_666_16750)"/>
<path d="M118.3 127.808C118.398 127.836 118.473 127.897 118.543 127.962C119.75 128.996 121.022 129.964 121.963 131.274C123.082 132.719 123.184 134.758 121.805 136.105C120.509 137.367 119.498 139.14 119.554 140.908C119.572 142.128 120.127 143.288 120.919 144.205C124.96 148.797 123.128 153.778 117.797 156.103C114.963 157.206 111.967 157.44 108.975 157.786C105.974 157.987 103.014 157.445 100.069 156.893C98.0279 156.383 96.0706 156.018 94.323 154.597C92.4216 152.983 90.7019 149.943 91.4475 147.165C91.7784 145.781 92.5614 144.612 93.4701 143.625C94.3136 142.778 94.8868 141.675 94.8589 140.515C94.8309 139.238 94.1272 138.345 93.3443 137.33C92.5986 136.231 91.9742 135.006 91.7877 133.593C91.3217 130.343 94.3835 128.547 97.1517 128.056C103.387 127.995 112.158 127.813 118.296 127.803L118.3 127.808ZM118.062 128.711C112.004 128.865 103.313 129.047 97.1751 129.155C93.0647 130.132 91.4149 132.634 94.0853 136.834C96.1032 139.219 96.3875 141.899 94.1738 144.284C93.3816 145.192 92.7524 146.272 92.5334 147.408C92.0627 149.761 93.5587 152.076 95.3389 153.474C96.6811 154.461 98.7316 154.826 100.423 155.153C104.133 155.794 107.931 156.29 111.678 155.63C113.495 155.34 115.448 155.209 117.154 154.526C121.656 152.726 123.273 148.989 120.029 144.948C118.375 142.961 118.123 140.155 119.409 137.915C119.903 137.007 120.528 136.222 121.301 135.52L121.273 135.548C121.52 135.282 121.749 134.996 121.903 134.678C123.054 132.153 119.689 129.426 118.062 128.715V128.711Z" fill="black"/>
<path d="M115.033 133.163C110.438 136.563 103.606 136.624 99.1696 132.92C98.8946 132.709 99.1836 132.274 99.4818 132.452C104.24 135.16 109.856 134.992 114.754 132.728C115.024 132.578 115.285 132.971 115.029 133.158L115.033 133.163Z" fill="black"/>
<path d="M119.372 137.774L121.189 135.52L121.879 136.147C121.222 136.787 120.574 137.489 119.964 138.2C118.118 140.342 116.487 142.685 115.196 145.201C115.136 145.323 114.991 145.369 114.875 145.304C114.763 145.243 114.716 145.107 114.772 144.991C115.182 144.125 115.611 143.26 116.096 142.432C117.545 139.926 119.251 137.592 121.231 135.473L121.921 136.1L120.104 138.354C119.717 138.831 118.999 138.242 119.377 137.765L119.372 137.774Z" fill="black"/>
<path d="M182.435 87.4194C181.368 86.7132 180.282 86.0304 179.187 85.3663C163.584 75.9052 156.841 62.5904 156.841 62.5904C140.343 28.2114 112.218 27.6923 107.665 27.842C107.274 27.856 106.887 27.856 106.491 27.842C101.938 27.6923 73.8083 28.2067 57.3155 62.5904C57.3155 62.5904 50.572 75.9099 34.9694 85.3663C33.8742 86.0304 32.793 86.7132 31.7211 87.4194C27.1541 90.4313 14.7623 98.4052 2.31467 104.766C1.15892 105.355 0.972505 106.936 1.96515 107.773C5.12483 110.453 13.0613 115.307 30.9382 118.048C36.6378 118.922 42.4491 118.964 48.1347 117.987C54.0906 116.963 60.8387 114.741 64.2454 109.943C64.8139 109.138 66.0023 109.138 66.5336 109.966C69.7632 114.989 80.5098 127.766 107.032 129.459H107.134C133.656 127.766 144.402 114.989 147.632 109.966C148.163 109.138 149.352 109.138 149.92 109.943C153.322 114.736 160.075 116.963 166.031 117.987C171.716 118.964 177.528 118.922 183.227 118.048C201.104 115.307 209.041 110.453 212.2 107.773C213.193 106.931 213.007 105.355 211.851 104.766C199.403 98.4052 187.012 90.4313 182.444 87.4194H182.435Z" fill="url(#paint2_linear_666_16750)"/>
<path d="M182.165 87.831C178.889 85.7451 175.207 83.6453 172.154 81.2788C166.777 77.2942 162.098 72.3134 158.379 66.7387C157.027 64.8353 155.517 61.8468 154.478 59.7189C150.782 52.7785 146.136 46.2872 140.245 41.0492C121.744 24.3531 94.5466 23.7358 75.4207 39.7818C69.3856 44.8327 64.4737 51.1276 60.6383 57.9978C59.8647 59.34 59.0398 60.991 58.3594 62.3659C57.3248 64.4798 56.0013 66.4862 54.6172 68.3849C49.1273 75.9987 41.6802 82.0131 33.6598 86.7647C24.768 92.4937 15.8155 98.2836 6.55085 103.4C5.39044 104.045 4.2207 104.677 3.05097 105.299L2.83194 105.416C2.64552 105.509 2.5663 105.561 2.43581 105.692C2.06299 106.075 2.09095 106.781 2.5197 107.109C6.54619 110.298 11.5234 112.239 16.412 113.787C28.7711 117.412 42.3699 119.862 54.8968 115.634C57.6417 114.676 60.2934 113.352 62.3952 111.35C62.8472 110.902 63.262 110.41 63.6302 109.891C63.8399 109.611 64.1288 109.204 64.4923 109.035C65.3125 108.572 66.4403 108.82 66.9716 109.611C75.8914 122.481 92.1652 127.261 107.078 128.266C118.328 127.485 129.918 124.908 139.136 118.08C141.219 116.514 143.186 114.769 144.882 112.786C145.745 111.795 146.514 110.771 147.255 109.662C147.753 108.9 148.844 108.657 149.636 109.087C150.279 109.424 150.605 110.158 151.095 110.658C151.71 111.35 152.474 112.057 153.215 112.609C161.413 118.412 174.788 118.609 184.378 116.991C188.219 116.373 192.17 115.574 195.913 114.512C200.899 113.09 205.909 111.308 210.215 108.399C210.746 108.035 211.259 107.646 211.748 107.244C212.07 106.978 212.214 106.547 212.126 106.131C212.023 105.626 211.613 105.383 211.18 105.172C201.216 99.9017 191.579 94.0324 182.165 87.8356V87.831ZM182.705 87.0079C192.119 93.1344 201.761 98.9383 211.786 103.985C212.117 104.158 212.527 104.345 212.792 104.639C213.799 105.612 213.748 107.399 212.652 108.297C212.126 108.746 211.59 109.162 211.031 109.559C206.589 112.655 201.505 114.591 196.36 116.093C191.243 117.547 185.958 118.604 180.678 119.259C172.69 120.096 164.39 119.212 156.99 115.966C154.553 114.825 152.19 113.371 150.377 111.29C150.009 110.92 149.594 110.167 149.193 109.933C148.802 109.718 148.28 109.84 148.051 110.214C147.334 111.318 146.528 112.431 145.665 113.455C136.252 124.67 121.469 129.702 107.241 130.661C91.6619 129.842 74.8708 123.894 66.0349 110.265C65.8345 109.929 65.3638 109.802 64.991 109.994C64.6042 110.205 64.1708 110.962 63.7933 111.313C56.691 119.142 41.3819 120.428 31.4695 119.086C26.1754 118.319 20.9372 117.299 15.8248 115.686C10.6892 114.03 5.60015 111.972 1.39656 108.432C-0.141334 107.043 0.343337 104.602 2.30998 103.858C11.7471 99.1534 20.9372 93.8313 29.8057 88.1116C31.9774 86.6992 34.3402 85.212 36.4746 83.7996C41.9318 80.1751 46.7366 75.5918 50.8656 70.5035C52.9068 67.9593 54.8315 65.3123 56.4347 62.4782C57.0498 61.3604 57.6463 60.079 58.2568 58.9472C60.5218 54.855 63.0616 50.8564 66.0955 47.2927C77.434 33.5289 94.2576 25.99 112.069 27.6549C132.831 29.6004 149.011 44.0797 157.731 62.4782C161.664 69.2408 167.07 75.1429 173.007 80.2031C175.915 82.6818 179.471 84.9688 182.71 87.0079H182.705Z" fill="black"/>
<path d="M99.8171 77.7525C99.8171 85.2307 93.4325 86.5916 85.9807 86.5916C78.5289 86.5916 72.834 85.2307 72.834 77.7525C72.834 70.2743 78.8737 64.2132 86.3255 64.2132C93.7774 64.2132 99.8171 70.2743 99.8171 77.7525Z" fill="white"/>
<path d="M100.772 77.7525C100.665 84.3374 95.6833 86.6056 89.8719 86.8582C88.1989 86.9704 86.5351 86.9564 84.8761 86.8862C81.544 86.7038 77.9509 86.7179 75.1361 84.5712C72.256 82.3357 71.8878 78.2529 72.4983 74.8997C73.1461 71.4856 75.1081 68.3335 77.8996 66.2336C87.2715 59.153 100.954 65.8782 100.772 77.7572V77.7525ZM98.8616 77.7525C98.829 71.5043 93.8378 65.8267 87.607 65.1673C81.311 64.3208 74.9869 68.8807 73.724 75.1522C71.4498 86.2362 81.5859 86.8769 89.7973 86.0117C94.7186 85.4458 99.1739 83.4161 98.8663 77.7572L98.8616 77.7525Z" fill="black"/>
<path d="M91.112 84.4637C92.7361 84.4637 94.0527 82.1583 94.0527 79.3145C94.0527 76.4708 92.7361 74.1654 91.112 74.1654C89.488 74.1654 88.1714 76.4708 88.1714 79.3145C88.1714 82.1583 89.488 84.4637 91.112 84.4637Z" fill="#429195"/>
<path d="M92.6265 77.7011C92.9482 77.7011 93.209 77.4393 93.209 77.1165C93.209 76.7936 92.9482 76.5319 92.6265 76.5319C92.3048 76.5319 92.0439 76.7936 92.0439 77.1165C92.0439 77.4393 92.3048 77.7011 92.6265 77.7011Z" fill="white"/>
<path d="M115.672 77.7525C115.672 85.2307 121.884 87.0546 129.336 87.0546C136.788 87.0546 142.655 85.2307 142.655 77.7525C142.655 70.2743 136.615 64.2132 129.163 64.2132C121.712 64.2132 115.672 70.2743 115.672 77.7525Z" fill="white"/>
<path d="M116.627 77.7525C116.194 85.544 124.373 86.7974 130.45 86.7319C137.832 86.6384 143.415 83.6265 141.807 75.3627C140.656 69.035 134.327 64.3535 127.989 65.1533C121.712 65.7566 116.66 71.4622 116.627 77.7478V77.7525ZM114.716 77.7525C114.544 65.7799 128.38 59.0922 137.738 66.3412C140.521 68.4878 142.445 71.6914 143.032 75.1382C143.629 78.5242 143.088 82.5696 140.208 84.8051C137.421 86.9891 133.819 87.1481 130.468 87.3446C128.795 87.4241 127.117 87.4287 125.435 87.2791C119.586 86.9049 114.819 84.2345 114.721 77.7525H114.716Z" fill="black"/>
<path d="M124.377 84.4637C126.001 84.4637 127.318 82.1583 127.318 79.3145C127.318 76.4708 126.001 74.1654 124.377 74.1654C122.753 74.1654 121.437 76.4708 121.437 79.3145C121.437 82.1583 122.753 84.4637 124.377 84.4637Z" fill="#429195"/>
<path d="M122.863 77.7011C123.185 77.7011 123.445 77.4393 123.445 77.1165C123.445 76.7936 123.185 76.5319 122.863 76.5319C122.541 76.5319 122.28 76.7936 122.28 77.1165C122.28 77.4393 122.541 77.7011 122.863 77.7011Z" fill="white"/>
<path d="M113.295 92.5872C111.222 90.7913 103.173 90.7913 101.099 92.5872C100.326 93.256 100.069 94.355 100.47 95.2951C101.09 96.7589 102.758 98.8868 107.2 98.812C111.636 98.8868 113.305 96.7589 113.929 95.2951C114.33 94.3504 114.074 93.256 113.3 92.5872H113.295Z" fill="black"/>
<path d="M107.195 98.1012V101.66C107.195 101.66 101.444 110.424 92.3657 102.483" stroke="black" stroke-width="2" stroke-miterlimit="10" stroke-linecap="round"/>
<path d="M107.194 98.1012V101.66C107.194 101.66 112.945 110.424 122.023 102.483" stroke="black" stroke-width="2" stroke-miterlimit="10" stroke-linecap="round"/>
<path d="M125.253 53.9805C126.763 52.7645 128.669 52.4278 130.496 52.554C135.963 52.9282 140.483 56.7257 143.289 61.2201C143.596 61.6738 142.972 62.2022 142.58 61.8187C141.695 60.9722 140.8 59.9901 139.849 59.2184C137.198 56.8567 133.907 55.0093 130.347 54.7802C128.781 54.6679 127.239 54.7521 125.659 54.8223C125.174 54.9111 124.862 54.2985 125.253 53.9805Z" fill="black"/>
<path d="M163.887 50.1315H157.367C157.367 26.2612 134.737 6.84322 106.92 6.84322C79.1023 6.84322 56.4719 26.2612 56.4719 50.1315H49.9521C49.9521 23.1745 75.5092 1.24512 106.92 1.24512C138.33 1.24512 163.887 23.1745 163.887 50.1315Z" fill="url(#paint3_linear_666_16750)"/>
<path d="M164.581 50.833C161.944 51.0341 159.115 51.1557 156.407 51.1183C156.379 44.8093 154.8 38.5378 151.747 33.0285C133.796 0.464124 80.039 0.464124 62.0922 33.0285C59.0397 38.5378 57.4599 44.814 57.4319 51.123C56.0105 51.123 50.3576 51.123 48.9502 51.123C48.9502 43.7009 50.819 36.2929 54.3794 29.8015C71.7204 -1.92571 118.473 -7.92134 145.894 13.8911C154.52 20.593 161.217 30.1476 163.705 40.9042C164.386 44.1405 165.08 47.5218 164.581 50.833ZM163.188 49.4346C162.978 48.7518 162.867 48.2982 162.867 47.5873C162.764 45.8896 162.615 44.1967 162.317 42.5177C161.585 38.3179 160.21 34.2351 158.271 30.4282C141.797 -1.1821 95.2549 -7.19176 68.5607 14.6675C57.8886 23.1465 50.572 36.3303 50.9401 50.1362L49.9568 49.1494H56.4766L55.4933 50.1362C55.1018 37.3312 61.8732 25.0406 71.7344 17.1836C96.2709 -3.02007 139.024 2.64818 154.1 31.7845C156.962 37.4481 158.518 43.8085 158.351 50.1362L157.367 49.1494C159.306 49.14 161.175 49.2663 163.193 49.4393L163.188 49.4346Z" fill="black"/>
<path d="M91.3497 54.1395C89.9144 54.1675 88.6468 53.7981 87.2487 53.7326C85.1049 53.6765 82.9332 54.2143 80.9759 55.1263C78.3755 56.3843 76.1665 58.2878 74.1113 60.2988C73.7012 60.6823 73.0767 60.107 73.4309 59.6674C73.9622 58.994 74.5074 58.3205 75.062 57.6517C75.6306 57.1139 76.3389 56.3188 76.9354 55.8278C79.6291 53.4987 83.0125 51.8432 86.6335 51.7683C87.533 51.7403 88.4743 51.8058 89.3551 51.9835C89.9656 52.0723 92.5521 53.134 91.7645 54.0085C91.648 54.1208 91.4989 54.1441 91.3497 54.1395Z" fill="black"/>
<path d="M87.6401 37.0739C83.6741 34.5531 75.733 27.262 74.8522 8.9992C74.759 7.09575 73.1792 5.60386 71.2778 5.60386C69.3857 5.60386 67.8198 7.07704 67.708 8.97114C67.5821 11.0663 67.4936 13.7602 67.6567 15.9162C67.7779 17.5296 66.4404 18.8812 64.8326 18.783C58.9606 18.4276 47.3052 16.1266 45.5809 3.56011C45.3618 1.9513 43.9964 0.74469 42.3793 0.74469C40.5384 0.74469 39.0611 2.27867 39.145 4.126C39.4479 10.6361 42.8033 24.5308 65.485 27.3555C67.6707 27.6268 69.5581 29.0064 70.4902 31.0081C71.9582 34.1556 74.978 39.1644 80.8267 44.2668C82.3972 45.6371 84.5316 46.2591 86.5495 45.7493C87.8824 45.4126 89.1873 44.6175 89.7838 42.8824C90.5341 40.7031 89.5787 38.3039 87.6401 37.0692V37.0739Z" fill="url(#paint4_linear_666_16750)"/>
<path d="M87.2763 37.6492C78.7945 31.9529 75.5696 21.4395 74.7541 11.7211L74.563 9.04601C74.5304 8.22289 74.1855 7.43252 73.603 6.8526C71.7389 4.91174 68.3089 6.09964 68.0339 8.77943C67.9174 10.5098 67.8755 12.3104 67.9128 14.0642C67.8895 14.9808 68.1178 15.8975 67.9361 16.8095C67.7124 17.7963 66.9667 18.6381 66.0114 18.9748C65.564 19.1525 65.0094 19.1806 64.5527 19.1385C63.2105 19.0543 61.873 18.8906 60.5495 18.6334C57.0123 17.9506 53.5171 16.6458 50.7069 14.3121C47.8502 11.9924 45.9488 8.59236 45.1985 4.99592C44.9981 4.2149 45.026 3.34502 44.5786 2.64818C43.847 1.39948 42.0481 1.03937 40.911 1.9186C39.965 2.5827 39.7599 3.74722 39.9417 4.82755C40.0582 6.11367 40.2819 7.39043 40.6127 8.63445C43.5347 20.0084 54.3373 24.9611 65.0979 26.2986C67.6285 26.4997 70.0285 27.9542 71.2029 30.2365C71.5897 31.0222 71.9626 31.8313 72.396 32.5983C74.4838 36.3818 77.2939 39.7911 80.449 42.7656C80.8963 43.1678 81.7911 44.0423 82.355 44.3276C84.2611 45.4921 87.1458 45.4594 88.5672 43.6074C89.9699 41.7226 89.2476 38.8792 87.2716 37.6492H87.2763ZM88.0033 36.494C91.7875 38.7482 91.7362 44.814 87.3276 46.3339C84.9368 47.2179 82.1966 46.5631 80.3045 44.9356L79.2839 44.0376C75.4205 40.5534 72.0651 36.4285 69.7489 31.719C69.3528 30.8445 68.7982 30.0307 68.0339 29.4461C66.7803 28.3704 65.056 28.2863 63.4995 28.0618C59.939 27.4959 56.3972 26.5746 53.065 25.0733C46.3449 22.1924 40.6733 16.3044 39.0655 9.02262C38.7393 7.68039 38.5342 6.31945 38.441 4.94447C38.208 3.37775 38.7346 1.65202 40.0954 0.754082C41.8803 -0.555415 44.6206 0.0432126 45.6925 1.97004C46.2191 2.80719 46.2237 3.80334 46.4148 4.74337C46.7503 6.42701 47.2909 8.07791 48.1298 9.56981C51.4386 15.6028 58.6714 18.1423 65.2051 18.3949C66.1651 18.3294 67.032 17.5858 67.251 16.6411C67.4048 15.8086 67.2044 14.92 67.2417 14.0689C67.2277 12.2683 67.2883 10.5098 67.4327 8.69525C67.7823 5.55713 71.8134 4.18684 74.0084 6.43637C74.6935 7.10514 75.1083 8.04985 75.1502 9.00859C75.3553 12.9885 75.9891 16.9264 77.0935 20.7426C78.9716 26.9113 82.4855 33.0051 88.008 36.4893L88.0033 36.494Z" fill="black"/>
<path d="M126.404 37.0739C130.37 34.5531 138.312 27.262 139.192 8.9992C139.286 7.09575 140.865 5.60386 142.767 5.60386C144.659 5.60386 146.225 7.07704 146.337 8.97114C146.462 11.0663 146.551 13.7602 146.388 15.9162C146.267 17.5296 147.604 18.8812 149.212 18.783C155.084 18.4276 166.739 16.1266 168.464 3.56011C168.683 1.9513 170.048 0.74469 171.665 0.74469C173.506 0.74469 174.983 2.27867 174.899 4.126C174.597 10.6361 171.241 24.5308 148.559 27.3555C146.374 27.6268 144.486 29.0064 143.554 31.0081C142.086 34.1556 139.066 39.1644 133.218 44.2668C131.647 45.6371 129.513 46.2591 127.495 45.7493C126.162 45.4126 124.857 44.6175 124.261 42.8824C123.51 40.7031 124.466 38.3039 126.404 37.0692V37.0739Z" fill="url(#paint5_linear_666_16750)"/>
<path d="M126.041 36.4987C131.563 33.0145 135.077 26.9206 136.955 20.752C138.06 16.9404 138.694 12.9979 138.899 9.01792C138.941 8.05918 139.355 7.11447 140.04 6.44569C142.235 4.20084 146.262 5.56178 146.616 8.70458C146.761 10.5192 146.821 12.2776 146.807 14.0782C146.84 14.9294 146.639 15.818 146.798 16.6504C147.017 17.5905 147.879 18.3387 148.844 18.4042C155.377 18.1517 162.615 15.6122 165.919 9.57913C166.763 8.08724 167.298 6.43634 167.634 4.7527C167.82 3.81267 167.83 2.81652 168.356 1.97937C169.424 0.0525422 172.173 -0.550762 173.953 0.763412C175.309 1.66135 175.841 3.38241 175.608 4.9538C175.515 6.32877 175.309 7.69439 174.983 9.03195C173.375 16.3137 167.704 22.2018 160.984 25.0826C157.652 26.5839 154.11 27.5052 150.549 28.0711C148.993 28.2956 147.268 28.3844 146.015 29.4554C145.251 30.04 144.691 30.8585 144.3 31.7283C141.984 36.4379 138.633 40.5581 134.765 44.047L133.744 44.9449C131.852 46.5724 129.112 47.2272 126.721 46.3433C122.322 44.814 122.252 38.7716 126.045 36.5033L126.041 36.4987ZM126.768 37.6538C124.797 38.8838 124.065 41.7366 125.472 43.612C126.894 45.464 129.778 45.4921 131.684 44.3323C132.281 44.0142 133.087 43.2332 133.59 42.7702C136.746 39.8005 139.556 36.3911 141.644 32.6029C142.072 31.8359 142.45 31.0315 142.837 30.2411C144.011 27.9542 146.411 26.4997 148.942 26.3033C159.697 24.9657 170.509 20.0037 173.427 8.6391C173.758 7.39508 173.981 6.11832 174.098 4.83221C174.275 3.75655 174.084 2.58735 173.128 1.92325C171.987 1.0487 170.192 1.40413 169.461 2.65283C169.018 3.34967 169.041 4.21955 168.841 5.00057C168.445 6.7871 167.825 8.55024 166.884 10.1357C164.129 14.9902 158.793 17.6653 153.49 18.6334C152.166 18.8859 150.834 19.0543 149.487 19.1385C149.03 19.1806 148.475 19.1525 148.028 18.9748C147.073 18.638 146.327 17.7962 146.103 16.8094C145.922 15.8928 146.15 14.9808 146.127 14.0642C146.164 12.3104 146.117 10.5098 146.006 8.77941C145.735 6.10429 142.301 4.90704 140.436 6.85257C139.854 7.43249 139.509 8.22287 139.481 9.04598L139.29 11.7211C138.474 21.4394 135.25 31.9575 126.763 37.6491L126.768 37.6538Z" fill="black"/>
<path d="M151.304 72.0889C150.969 73.7632 151.262 75.517 151.887 77.1024C152.497 78.7533 153.634 80.0815 154.45 81.6389C158.737 89.7718 155.937 99.5837 150.927 106.716C149.92 108.175 148.853 109.569 147.623 110.887C147.422 111.103 147.091 111.112 146.877 110.911C146.658 110.705 146.653 110.35 146.877 110.144C148.047 108.928 149.137 107.558 150.135 106.159C155.102 99.3078 157.987 89.8607 153.951 81.9008C153.168 80.3528 152.022 78.9498 151.439 77.2801C150.81 75.6199 150.526 73.7726 150.913 72.0094C150.936 71.9019 151.043 71.8317 151.15 71.8551C151.258 71.8785 151.328 71.986 151.304 72.0936V72.0889Z" fill="black"/>
<path d="M63.1593 71.9814C63.5461 73.7726 63.2572 75.6339 62.6281 77.3036C62.0455 78.9685 60.9038 80.3809 60.1162 81.9195C59.3798 83.4442 58.8206 85.081 58.5084 86.7553C57.2268 93.5834 59.995 100.486 63.9283 105.982C64.9256 107.371 66.0208 108.727 67.1905 109.924C67.4328 110.153 67.4422 110.546 67.1998 110.785C66.9621 111.018 66.5847 111.009 66.3563 110.771C65.112 109.461 64.0355 108.081 63.0195 106.627C57.3386 98.6671 54.7335 87.8029 60.8152 79.3052C62.1574 77.2007 63.0428 74.6004 62.5442 72.1077C62.465 71.7288 63.0615 71.5605 63.1593 71.9767V71.9814Z" fill="black"/>
<path d="M158.141 81.0497C158.141 81.0497 154.711 120.157 118.818 120.157" stroke="black" stroke-width="2" stroke-miterlimit="10"/>
<path d="M119.27 115.658H113.528C111.327 115.658 109.543 117.448 109.543 119.656V119.792C109.543 122 111.327 123.791 113.528 123.791H119.27C121.47 123.791 123.254 122 123.254 119.792V119.656C123.254 117.448 121.47 115.658 119.27 115.658Z" fill="black"/>
<path d="M62.1109 53.8776C62.4511 60.3596 63.015 69.6851 63.7094 76.0315C64.0635 79.2818 61.4351 82.2048 57.6836 82.738L55.5305 83.042C50.5999 83.7435 46.0328 80.6615 45.674 76.3822C45.1847 70.5596 44.6254 62.3846 44.5695 54.7849C44.5462 51.8712 46.895 49.3458 50.2038 48.6957L53.2656 48.0971C57.6696 47.2366 61.9058 50.0005 62.1109 53.8729V53.8776Z" fill="#643C3B"/>
<path d="M62.53 53.8542C62.5906 59.6955 62.9308 65.5227 63.6252 71.3219C63.7789 72.7203 63.9747 74.259 64.1704 75.6573C64.4547 77.2287 64.0958 78.9124 63.2011 80.2452C62.008 82.0505 60.0041 83.2103 57.907 83.6078C57.427 83.7014 56.2106 83.9212 55.7493 84.0054C50.5484 85.067 44.4713 81.7184 44.201 76.0315C43.6418 70.6859 43.255 65.3123 43.1432 59.9387C43.1432 58.9378 43.1012 56.5059 43.1385 55.5285C43.0732 53.7794 43.5766 51.932 44.6997 50.6179C46.1164 48.8454 48.3021 47.8492 50.4785 47.606L51.9185 47.3956C52.3659 47.3348 52.9251 47.2366 53.3865 47.1945C57.5202 46.5958 62.4042 49.3785 62.5253 53.8589L62.53 53.8542ZM61.6865 53.901C61.3649 50.1502 57.0308 48.0877 53.6708 48.9389C53.2979 48.9763 52.6688 49.1961 52.282 49.2663C51.527 49.4627 50.2687 49.7152 49.593 49.9912C47.5565 50.7208 45.8415 52.6897 45.9766 54.7755C46.1304 58.3252 46.2889 62.0947 46.4846 65.6397C46.5731 67.5759 46.6803 69.5074 46.8015 71.4435C46.9273 72.9074 46.9646 75.7275 47.1976 77.0276C47.9712 80.61 52.0583 82.4573 55.479 82.0645C55.9403 82.0224 57.1613 81.8868 57.6413 81.84C60.4096 81.5968 63.2337 79.4221 63.2011 76.4571C63.1545 75.1803 62.9587 72.6922 62.8935 71.3827C62.6092 65.5415 62.2504 59.7189 61.6911 53.8963L61.6865 53.901Z" fill="black"/>
<path d="M151.052 53.8776C150.712 60.3596 150.148 69.6851 149.454 76.0315C149.1 79.2818 151.728 82.2048 155.48 82.738L157.633 83.042C162.563 83.7435 167.13 80.6615 167.489 76.3822C167.979 70.5596 168.538 62.3846 168.594 54.7849C168.617 51.8712 166.268 49.3458 162.959 48.6957L159.898 48.0971C155.494 47.2366 151.257 50.0005 151.052 53.8729V53.8776Z" fill="#643C3B"/>
<path d="M151.463 53.8963C150.983 59.4991 150.531 65.7285 150.218 71.3781L150.013 74.2964C149.99 75.0868 149.78 76.3589 149.906 77.1212C150.256 79.8618 152.884 81.7371 155.499 82.0131C155.983 82.0692 157.195 82.2001 157.661 82.2563C161.189 82.6959 165.42 80.7924 166.227 77.0884C166.474 75.7275 166.515 72.9682 166.641 71.4623C166.958 66.1775 167.21 60.7945 167.382 55.5004L167.406 54.7755C167.471 53.003 166.39 51.3755 164.763 50.3934C163.202 49.4861 161.231 49.2756 159.506 48.836C156.109 48.0176 151.761 50.1221 151.463 53.901V53.8963ZM150.642 53.8542C150.787 49.4019 155.662 46.6613 159.753 47.2927C160.765 47.4236 161.687 47.5873 162.657 47.7323C166.245 48.0737 169.768 50.9406 169.787 54.7896C169.866 60.411 169.559 66.0372 169.102 71.6353L168.836 74.5536C168.71 75.4983 168.701 76.6535 168.435 77.6263C167.126 82.607 161.398 84.8332 156.724 83.6874L155.284 83.4301C153.224 83.0513 151.248 81.9289 150.065 80.1657C149.174 78.875 148.802 77.196 149.077 75.662C149.272 74.2543 149.44 72.725 149.585 71.322C150.242 65.5181 150.512 59.6861 150.642 53.8542Z" fill="black"/>
<defs>
<linearGradient id="paint0_linear_666_16750" x1="89.4014" y1="176.213" x2="89.4014" y2="131.83" gradientUnits="userSpaceOnUse">
<stop stop-color="#487E50"/>
<stop offset="0.07" stop-color="#518A58"/>
<stop offset="0.21" stop-color="#61A167"/>
<stop offset="0.34" stop-color="#6AAE6F"/>
<stop offset="0.47" stop-color="#6EB373"/>
</linearGradient>
<linearGradient id="paint1_linear_666_16750" x1="91.8624" y1="142.587" x2="122.495" y2="142.587" gradientUnits="userSpaceOnUse">
<stop stop-color="#487E50"/>
<stop offset="0.07" stop-color="#518A58"/>
<stop offset="0.21" stop-color="#61A167"/>
<stop offset="0.34" stop-color="#6AAE6F"/>
<stop offset="0.47" stop-color="#6EB373"/>
</linearGradient>
<linearGradient id="paint2_linear_666_16750" x1="107.083" y1="129.464" x2="107.083" y2="27.8279" gradientUnits="userSpaceOnUse">
<stop stop-color="#643C3B"/>
<stop offset="0.03" stop-color="#72453D"/>
<stop offset="0.12" stop-color="#996044"/>
<stop offset="0.22" stop-color="#B87449"/>
<stop offset="0.3" stop-color="#CF834D"/>
<stop offset="0.39" stop-color="#DC8C50"/>
<stop offset="0.47" stop-color="#E19051"/>
</linearGradient>
<linearGradient id="paint3_linear_666_16750" x1="49.9521" y1="25.6906" x2="163.887" y2="25.6906" gradientUnits="userSpaceOnUse">
<stop offset="0.56" stop-color="#F9E9B3"/>
<stop offset="0.61" stop-color="#F3D9A5"/>
<stop offset="0.79" stop-color="#E1A276"/>
<stop offset="0.93" stop-color="#D58059"/>
<stop offset="1" stop-color="#D1744E"/>
</linearGradient>
<linearGradient id="paint4_linear_666_16750" x1="64.5902" y1="50.4962" x2="64.5902" y2="-0.583516" gradientUnits="userSpaceOnUse">
<stop offset="0.56" stop-color="#F9E9B3"/>
<stop offset="0.61" stop-color="#F3D9A5"/>
<stop offset="0.79" stop-color="#E1A276"/>
<stop offset="0.93" stop-color="#D58059"/>
<stop offset="1" stop-color="#D1744E"/>
</linearGradient>
<linearGradient id="paint5_linear_666_16750" x1="149.454" y1="50.4962" x2="149.454" y2="-0.583516" gradientUnits="userSpaceOnUse">
<stop offset="0.56" stop-color="#F9E9B3"/>
<stop offset="0.61" stop-color="#F3D9A5"/>
<stop offset="0.79" stop-color="#E1A276"/>
<stop offset="0.93" stop-color="#D58059"/>
<stop offset="1" stop-color="#D1744E"/>
</linearGradient>
</defs>
</svg>
