<svg width="200" height="148" viewBox="0 0 200 148" fill="none" xmlns="http://www.w3.org/2000/svg">
<path d="M131.887 13.4836C128.437 13.4836 125.637 16.2836 125.637 19.7336C125.637 23.1836 128.437 25.9836 131.887 25.9836C134.187 25.9836 136.087 24.6836 137.187 22.8336C146.137 24.4836 152.937 32.2836 152.937 41.6836C152.937 43.0836 154.037 44.1836 155.437 44.1836C156.837 44.1836 157.937 43.0836 157.937 41.6836C157.937 29.7336 149.187 19.8336 137.787 17.8836C136.987 15.3336 134.687 13.4336 131.887 13.4336V13.4836Z" fill="#201A18"/>
<path d="M23.4876 112.534C23.0376 112.534 22.6876 112.684 22.2376 112.784C19.3876 105.234 20.9376 96.3336 27.0376 90.2836C28.0376 89.2836 28.0376 87.7336 27.0376 86.7336C26.0376 85.7336 24.4876 85.7336 23.4876 86.7336C15.6376 94.5836 13.8876 106.184 18.0876 115.784C17.5876 116.684 17.2376 117.684 17.2376 118.784C17.2376 122.234 20.0376 125.034 23.4876 125.034C26.9376 125.034 29.7376 122.234 29.7376 118.784C29.7376 115.334 26.9376 112.534 23.4876 112.534Z" fill="#201A18"/>
<path d="M199.087 114.184L169.287 84.3836C164.837 79.9336 157.787 79.1336 152.487 82.5336C143.987 88.0336 134.037 90.2336 123.837 88.8336C105.337 86.3836 90.2375 71.1336 87.8875 52.6336C86.2375 39.4836 90.5875 26.6336 99.8875 17.3336C109.187 8.03356 122.037 3.68356 135.187 5.33356C154.337 7.73356 169.637 23.4336 171.587 42.6836C172.137 48.0836 171.637 53.3836 170.187 58.5336C166.887 58.6836 164.237 61.3836 164.237 64.7336C164.237 68.0836 167.037 70.9836 170.487 70.9836C173.937 70.9836 176.737 68.1836 176.737 64.7336C176.737 62.9836 176.037 61.4336 174.887 60.2836C176.587 54.4336 177.187 48.3836 176.537 42.1836C174.337 20.6836 157.187 3.08356 135.787 0.383557C121.087 -1.46644 106.687 3.43356 96.3375 13.8336C85.9375 24.2336 81.0875 38.6336 82.9375 53.3336C85.5875 74.0336 102.487 91.0836 123.187 93.8836C134.437 95.3836 145.837 92.8836 155.187 86.7836C158.487 84.6336 162.937 85.1336 165.737 87.9836L195.537 117.784C196.037 118.284 196.687 118.534 197.287 118.534C197.887 118.534 198.587 118.284 199.037 117.784C200.037 116.784 200.037 115.234 199.037 114.234L199.087 114.184Z" fill="#201A18"/>
<path d="M50.7376 113.934C55.5376 109.134 55.5376 101.334 50.7376 96.5336C45.9376 91.7336 38.1375 91.7336 33.3375 96.5336C28.5375 101.334 28.5375 109.134 33.3375 113.934C35.6375 116.234 38.7375 117.534 42.0375 117.534C45.3375 117.534 48.3876 116.234 50.7376 113.934ZM36.8875 100.084C38.2875 98.6836 40.1875 97.9336 42.0375 97.9336C43.8875 97.9336 45.7876 98.6336 47.1876 100.084C50.0376 102.934 50.0376 107.534 47.1876 110.384C44.4376 113.134 39.6376 113.134 36.8875 110.384C34.0375 107.534 34.0375 102.934 36.8875 100.084Z" fill="#201A18"/>
<path d="M60.5374 123.784C65.4874 118.834 68.1874 112.284 68.1874 105.284C68.1874 98.2836 65.4874 91.7336 60.5374 86.7836C56.6374 82.8836 51.6874 80.3836 46.3874 79.4836C45.4874 77.1336 43.2374 75.4336 40.5874 75.4336C37.1374 75.4336 34.3374 78.2336 34.3374 81.6836C34.3374 85.1336 37.1374 87.9336 40.5874 87.9336C43.0374 87.9336 45.0374 86.5336 46.0874 84.4836C50.1874 85.2836 53.9874 87.2836 56.9874 90.2836C60.9874 94.2836 63.1874 99.5836 63.1874 105.284C63.1874 110.984 60.9874 116.284 56.9874 120.284C51.6874 125.584 44.1874 127.684 36.8874 125.884C35.5374 125.534 34.1874 126.384 33.8374 127.734C33.4874 129.084 34.3374 130.434 35.6874 130.784C37.7874 131.284 39.9374 131.584 42.0374 131.584C48.8874 131.584 55.4874 128.884 60.4874 123.884L60.5374 123.784Z" fill="#201A18"/>
<path d="M129.838 102.784C128.438 102.784 127.338 103.884 127.338 105.284C127.338 112.834 125.088 119.884 121.188 125.734C121.088 125.734 121.037 125.734 120.988 125.734H103.838C102.887 123.534 100.688 121.984 98.1375 121.984C94.6875 121.984 91.8875 124.784 91.8875 128.234C91.8875 131.684 94.6875 134.484 98.1375 134.484C100.688 134.484 102.887 132.934 103.838 130.734H117.288C110.488 137.984 100.838 142.534 90.1375 142.534H61.9875C65.5875 140.634 68.9375 138.184 71.9375 135.184C76.9875 130.134 80.4875 124.134 82.4375 117.734H107.388C108.338 119.934 110.537 121.484 113.088 121.484C116.537 121.484 119.338 118.684 119.338 115.234C119.338 111.784 116.537 108.984 113.088 108.984C110.537 108.984 108.338 110.534 107.388 112.734H83.6375C85.9375 99.6336 82.0875 85.5835 71.9875 75.4835C68.9875 72.4835 65.6375 70.0335 62.0375 68.1335H74.0875C75.4875 68.1335 76.5875 67.0335 76.5875 65.6335C76.5875 64.2335 75.4875 63.1335 74.0875 63.1335H43.8875C43.8875 63.1335 43.6375 63.1835 43.4875 63.2335C32.2375 62.8835 20.8875 66.9335 12.3375 75.5335C-4.1125 91.9835 -4.1125 118.784 12.3375 135.234C20.5875 143.484 31.3875 147.584 42.1875 147.584C42.3875 147.584 42.5875 147.584 42.7375 147.584C42.8375 147.584 42.8875 147.584 42.9875 147.584H90.2375C113.538 147.584 132.488 128.634 132.488 105.334C132.488 103.934 131.388 102.834 129.988 102.834L129.838 102.784ZM15.7375 78.9335C22.9875 71.6835 32.5375 68.0335 42.0375 68.0335C51.5375 68.0335 61.0875 71.6835 68.3375 78.9335C82.8375 93.4335 82.8375 117.084 68.3375 131.584C53.8375 146.084 30.1875 146.084 15.6875 131.584C1.1875 117.084 1.1875 93.4335 15.6875 78.9335H15.7375Z" fill="#201A18"/>
</svg>
