<svg width="150" height="150" viewBox="0 0 150 150" fill="none" xmlns="http://www.w3.org/2000/svg">
<path d="M137.025 0H104.25C103.2 0 102.375 0.825 102.375 1.875C102.375 2.925 103.2 3.75 104.25 3.75H137.025C142.088 3.75 146.25 7.875 146.25 12.975V45.75C146.25 46.8 147.075 47.625 148.125 47.625C149.175 47.625 150 46.8 150 45.75V12.975C150 5.8125 144.188 0 137.025 0Z" fill="#201A18"/>
<path d="M148.125 102.375C147.075 102.375 146.25 103.2 146.25 104.25V137.025C146.25 142.088 142.125 146.25 137.025 146.25H104.25C103.2 146.25 102.375 147.075 102.375 148.125C102.375 149.175 103.2 150 104.25 150H137.025C144.188 150 150 144.188 150 137.025V104.25C150 103.2 149.175 102.375 148.125 102.375Z" fill="#201A18"/>
<path d="M45.75 146.25H12.975C7.9125 146.25 3.75 142.125 3.75 137.025V104.25C3.75 103.2 2.925 102.375 1.875 102.375C0.825 102.375 0 103.2 0 104.25V137.025C0 144.15 5.8125 150 12.975 150H45.7875C46.8375 150 47.6625 149.175 47.6625 148.125C47.6625 147.075 46.8375 146.25 45.7875 146.25H45.75Z" fill="#201A18"/>
<path d="M1.875 47.625C2.925 47.625 3.75 46.8 3.75 45.75V12.975C3.75 7.9125 7.875 3.75 12.975 3.75H45.7875C46.8375 3.75 47.6625 2.925 47.6625 1.875C47.6625 0.825 46.8375 0 45.7875 0H12.975C5.8125 0 0 5.8125 0 12.975V45.75C0 46.8 0.825 47.625 1.875 47.625Z" fill="#201A18"/>
<path d="M56.3624 110.437C54.6749 110.437 53.2874 111.375 52.4624 112.687C43.2749 110.175 36.5249 101.812 36.5249 91.8375C36.5249 90.7875 35.6999 89.9625 34.6499 89.9625C33.5999 89.9625 32.7749 90.7875 32.7749 91.8375C32.7749 103.687 40.9499 113.625 51.9374 116.4C52.4999 118.35 54.2249 119.812 56.3624 119.812C58.9499 119.812 61.0499 117.712 61.0499 115.125C61.0499 112.537 58.9499 110.437 56.3624 110.437Z" fill="#201A18"/>
<path d="M58.1625 80.2875C51.7875 80.2875 46.575 85.5 46.575 91.875C46.575 98.25 51.7875 103.463 58.1625 103.463C64.5375 103.463 69.75 98.25 69.75 91.875C69.75 85.5 64.5375 80.2875 58.1625 80.2875ZM58.1625 99.7125C53.85 99.7125 50.325 96.1875 50.325 91.875C50.325 87.5625 53.85 84.0375 58.1625 84.0375C62.475 84.0375 66 87.5625 66 91.875C66 96.1875 62.475 99.7125 58.1625 99.7125Z" fill="#201A18"/>
<path d="M58.1625 66.4875C51.9375 66.4875 46.05 68.775 41.475 72.75C40.9125 72.525 40.3125 72.375 39.6375 72.375C37.05 72.375 34.95 74.475 34.95 77.0625C34.95 79.65 37.05 81.75 39.6375 81.75C42.225 81.75 44.325 79.65 44.325 77.0625C44.325 76.5 44.175 76.0125 44.025 75.4875C47.925 72.1125 52.9125 70.2 58.1625 70.2C70.0875 70.2 79.7625 79.9125 79.7625 91.8C79.7625 99.45 75.8625 106.35 69.3 110.325C68.4 110.85 68.1375 112.012 68.6625 112.912C69 113.512 69.6375 113.812 70.275 113.812C70.6125 113.812 70.95 113.737 71.25 113.55C78.9375 108.9 83.5125 100.8 83.5125 91.8375C83.5125 77.85 72.15 66.4875 58.1625 66.4875Z" fill="#201A18"/>
<path d="M121.05 87.3375C128.85 79.5375 133.125 69.1875 133.125 58.1625C133.125 47.1375 128.85 36.7875 121.05 28.9875C113.25 21.1875 102.9 16.9125 91.8751 16.9125C80.8501 16.9125 70.5001 21.225 62.7001 28.9875L29.5501 62.1375H29.5876C21.7876 69.675 16.9126 80.2125 16.9126 91.875C16.9126 114.638 35.4376 133.162 58.2001 133.162C69.8626 133.162 80.4001 128.288 87.9001 120.488H87.9376L121.088 87.375L121.05 87.3375ZM58.1626 129.375C37.4626 129.375 20.6251 112.538 20.6251 91.8375C20.6251 71.1375 37.4626 54.3 58.1626 54.3C78.8626 54.3 95.7001 71.1375 95.7001 91.8375C95.7001 112.538 78.8626 129.375 58.1626 129.375ZM94.4251 72.15L113.475 53.1C115.163 53.7375 117.15 53.4 118.5 52.05C120.338 50.2125 120.338 47.25 118.5 45.4125C116.663 43.575 113.7 43.575 111.863 45.4125C110.513 46.7625 110.175 48.75 110.813 50.4375L92.4001 68.85C84.9751 57.8625 72.4126 50.5875 58.1626 50.5875C53.0626 50.5875 48.2251 51.5625 43.6876 53.25L65.3251 31.6125C72.4126 24.525 81.8251 20.625 91.8751 20.625C93.2626 20.625 94.6501 20.7 96.0001 20.85L84.6001 32.25C82.8751 31.5 80.8501 31.8375 79.4251 33.225C77.5876 35.0625 77.5876 38.025 79.4251 39.8625C81.2626 41.7 84.2251 41.7 86.0626 39.8625C87.3751 38.55 87.7126 36.675 87.1501 35.025L100.538 21.6375C107.25 23.2125 113.438 26.5875 118.425 31.575C123.788 36.9375 127.313 43.6125 128.738 50.925C128.588 51 128.4 51.075 128.288 51.225L114.788 64.725C113.063 63.975 111.038 64.3125 109.613 65.7C107.775 67.5375 107.775 70.5 109.613 72.3375C111.45 74.175 114.413 74.175 116.25 72.3375C117.563 71.025 117.9 69.15 117.338 67.5L129.3 55.5375C129.375 56.4 129.413 57.2625 129.413 58.1625C129.413 68.175 125.513 77.625 118.425 84.7125L96.7876 106.35C98.4751 101.85 99.4501 96.975 99.4501 91.9125C99.4501 84.7875 97.6126 78.0375 94.4251 72.1875V72.15Z" fill="#201A18"/>
</svg>
