<svg width="115" height="150" viewBox="0 0 115 150" fill="none" xmlns="http://www.w3.org/2000/svg">
<path d="M88.275 2.8875H62.0625C61.3125 1.2 59.6625 0 57.675 0C55.05 0 52.9125 2.1375 52.9125 4.7625C52.9125 7.3875 55.05 9.525 57.675 9.525C59.625 9.525 61.3125 8.325 62.0625 6.6375H88.275C100.725 6.6375 110.85 16.7625 110.85 29.2125V123.6C110.85 136.05 100.725 146.175 88.275 146.175H27.1125C14.6625 146.175 4.5375 136.05 4.5375 123.6V29.25C4.5375 16.8 14.6625 6.675 27.1125 6.675H39.4125C40.4625 6.675 41.325 5.8125 41.325 4.7625C41.325 3.7125 40.4625 2.85 39.4125 2.85H27.1125C12.5625 2.8875 0.75 14.7 0.75 29.25V123.638C0.75 138.188 12.5625 150 27.1125 150H88.275C102.825 150 114.637 138.188 114.637 123.638V29.25C114.637 14.7 102.825 2.8875 88.275 2.8875Z" fill="#201A18"/>
<path d="M93 43.2C91.125 43.2 89.5125 44.325 88.7625 45.9H26.625C25.8375 44.325 24.2625 43.2 22.3875 43.2C19.7625 43.2 17.625 45.3375 17.625 47.9625C17.625 50.5875 19.7625 52.725 22.3875 52.725C24.2625 52.725 25.875 51.6 26.625 50.025H88.725C89.5125 51.6 91.0875 52.725 92.9625 52.725C95.5875 52.725 97.725 50.5875 97.725 47.9625C97.725 45.3375 95.5875 43.2 92.9625 43.2H93Z" fill="#201A18"/>
<path d="M93.0001 71.7C91.1251 71.7 89.5126 72.825 88.7626 74.4H19.7251C18.6001 74.4 17.6626 75.3 17.6626 76.4625C17.6626 77.625 18.5626 78.525 19.7251 78.525H88.7626C89.5501 80.1 91.1251 81.225 93.0001 81.225C95.6251 81.225 97.7626 79.0875 97.7626 76.4625C97.7626 73.8375 95.6251 71.7 93.0001 71.7Z" fill="#201A18"/>
<path d="M26.625 102.863C25.8375 101.288 24.2625 100.163 22.3875 100.163C19.7625 100.163 17.625 102.3 17.625 104.925C17.625 107.55 19.7625 109.688 22.3875 109.688C24.2625 109.688 25.875 108.563 26.625 106.988H95.6625C96.7875 106.988 97.725 106.088 97.725 104.925C97.725 103.763 96.825 102.863 95.6625 102.863H26.625Z" fill="#201A18"/>
</svg>
